<svg width="241" height="193" fill="none" xmlns="http://www.w3.org/2000/svg"><path d="M195.311 189.876c-11.333-1.467-21.333-3.2-22.266-3.867-2.4-2-3.2-6.4-1.334-7.733.8-.8 6.667-.534 14.134.4 6.933.933 17.2 2.133 22.666 2.533l10 .933-20-7.866c-63.2-24.934-104.4-49.734-139.733-84.134-22.667-22-37.733-42.533-50.933-69.466-8-16.4-8.8-20-4.667-20 2 0 4.267 3.466 10 15.6 31.2 65.733 96 116.533 193.067 151.733 14.533 5.2 15.066 4.533 5.066-5.333-5.466-5.2-7.333-11.334-3.6-11.334 2.667 0 28.8 27.6 30.934 32.8 3.466 8.267 3.2 8.534-10.4 8.4-6.8-.133-21.6-1.333-32.934-2.666z" fill="#000"/></svg>