<svg width="101" height="281" fill="none" xmlns="http://www.w3.org/2000/svg"><path d="M44.45 88.083c-3.562 2.214-6.128 5.984-8.862 9.092-.42.476.238 1.15.701.702 2.978-2.877 6.63-5.617 8.676-9.28.178-.319-.187-.717-.514-.514zm4.222 48.68c11.387-6.102 22.712-12.635 29.705-23.918.217-.35-.33-.665-.55-.322-6.93 10.735-18.567 17.595-29.255 24.069-.11.066-.013.231.1.171zm27.457-17.051c.214-.459-.465-.863-.686-.401-2.299 4.829-6.494 8.72-10.453 12.211-4.491 3.96-9.273 7.641-13.498 11.893-.361.364.123 1.054.567.735 4.974-3.578 9.638-7.724 14.215-11.792 4.139-3.68 7.502-7.6 9.855-12.646zm-58.457 45.193c-3.769 4.874-6.813 10.269-10.104 15.467-.265.418.393.798.66.386 3.34-5.137 6.969-10.133 9.812-15.569.116-.222-.197-.504-.367-.284zm16.593-15.676c-.926.568-1.793 1.226-2.675 1.86-.323.232-.012.773.315.538.903-.648 1.823-1.274 2.678-1.986.23-.192-.068-.565-.318-.412zm-6.804 6.983c-2.33.528-4.348 2.856-5.697 4.694-.373.508.474 1.168.88.678.785-.948 1.656-1.824 2.643-2.565.878-.658 1.89-1.162 2.705-1.895.427-.384-.03-1.026-.53-.912zm23.126-17.83c-1.555.262-2.921 1.519-4.2 2.397-1.483 1.019-2.938 2.078-4.407 3.117-.571.404-.064 1.325.558.955 1.637-.973 3.29-1.922 4.907-2.928 1.299-.808 2.86-1.492 3.719-2.791.269-.408-.175-.818-.577-.75zm-6.714 52.234c-6.98 2.707-12.746 7.93-17.242 13.819-.309.404.36.907.701.54 4.998-5.359 10.842-9.518 16.83-13.673.324-.225.135-.851-.289-.686zm-16.776 62.526a210.462 210.462 0 0112.271-8.391c4.009-2.531 8.475-4.642 12.177-7.61.518-.415-.042-1.273-.634-1.089-4.61 1.433-8.896 4.433-12.91 7.045a154.617 154.617 0 00-11.977 8.655c-.779.619.262 1.987 1.073 1.39zm1.3-7.239c7.388-4.725 14.94-9.129 21.83-14.596.244-.193-.068-.573-.326-.423-7.556 4.394-14.56 9.619-21.912 14.322-.436.279-.031.978.408.697z" fill="#000"/><path d="M98.94 134.118c-.203-.363-.601-.486-.976-.413 1.637-5.213 2.266-10.726 2.168-16.176-.115-6.414-1.2-12.786-2.45-19.063-.309-1.55-.613-3.11-.989-4.647-.17-.7-.234-1.257-.966-1.503-.29-.097-.842-.065-1.446.044.838-1.55.241-3.424-.835-5.196-2.559-4.215-3.596-9.386-5.335-13.989-3.77-9.98-8.208-19.686-12.137-29.601-.144-.364-.55-.645-.928-.592a39.579 39.579 0 00-.393-3.727c-.746-4.872-2.474-9.616-5.086-13.8-2.579-4.13-6.02-7.643-9.76-10.732-1.855-1.534-3.795-2.96-5.772-4.333-1.923-1.335-3.912-2.834-6.047-3.847C45.618.82 38.718-.92 33.262 1.142c-6.394 2.416-11.35 8.168-15.216 13.593C9.211 27.132 5.405 42.295 4.105 57.267c-.843 9.706-.66 19.464-.338 29.19.012.345.146.609.34.798a94.84 94.84 0 00-.685 4.51c-.628 4.767-.878 9.581-.816 14.388.059 4.55.427 9.091 1.073 13.595.349 2.436.78 4.863 1.31 7.267.372 1.691.91 3.278 1.468 4.878-.26.978-.48 1.965-.642 2.959-.899 2.3-1.547 4.725-2.159 7.032a71.758 71.758 0 00-2.26 13.999c-.546 8.914.81 17.545 3.23 26.039-.078 1.51-.131 3.023-.218 4.533-.955 2.15-1.511 4.559-2.038 6.73-.918 3.778-1.412 7.667-1.523 11.553-.12 4.197.19 8.395.717 12.557.452 3.566.704 7.66 2.09 11.038-.716 1.669-.407 3.627-.384 5.418.03 2.278.084 4.556.194 6.832.206 4.263.587 8.536 1.363 12.736.697 3.771 1.613 7.521 2.418 11.273.342 1.597.769 3.168 1.414 4.671.6 1.398 1.335 2.244 2.33 3.132-.184.347-.216.766.019 1.124 2.316 3.53 6.847 5.492 10.851 6.358 4.622.999 9.373.6 13.941-.492 8.614-2.058 16.843-6.332 23.957-11.552 14.505-10.642 24.874-25.856 30.59-42.831 1.77-5.257 3.14-10.67 4.057-16.141.42-2.506.753-5.029 1.012-7.557.192-1.87.24-3.678.229-5.505 1.219-2.352 2.043-4.854 1.815-7.474.451-3.351.508-6.829.772-10.092.42-5.191.783-10.387 1.088-15.586a601.87 601.87 0 00.721-15.235c.14-4.257 1.063-9.397-1.102-13.294zm-8.21 14.33c.006-.746-1.012-1.244-1.463-.451-4.727 8.313-11.297 14.966-18.406 21.263-3.967 3.514-7.974 6.982-11.965 10.469-4.154 3.631-8.465 7.172-12.127 11.316-.312.354.095.982.533.69 4.652-3.103 8.789-6.939 12.994-10.606 4.075-3.553 8.17-7.084 12.217-10.667 5.244-4.642 10.593-9.6 14.597-15.431a87.642 87.642 0 01-2.818 4.272c-5.251 7.49-11.588 14.239-18.465 20.255-7.42 6.493-15.564 12.108-23.767 17.555-7.57 5.026-15.09 10.116-22.967 14.649-2.596 1.494-5.265 3.034-7.613 4.937.391-.483.791-.96 1.2-1.429 3.523-4.039 7.605-7.555 11.158-11.558.319-.36-.118-1.044-.55-.713-3.673 2.823-7.242 5.938-10.42 9.35 1.692-2.326 3.865-4.411 5.706-6.404 3.205-3.469 6.564-6.757 9.878-10.117.184-.187-.069-.549-.292-.378-4.024 3.074-7.801 6.626-11.254 10.326-2.793 2.995-5.418 5.964-6.837 9.78a40.781 40.781 0 00-3.139 4.416c.085-.569.186-1.134.323-1.688 1.032-4.183 3.363-7.734 6.244-10.872 6.294-6.854 12.766-13.293 20.903-17.938 1.917-1.095 3.858-2.144 5.792-3.207-3.064 2.24-6.07 4.614-8.64 7.364-.326.35.092.945.524.679 4.513-2.784 8.741-6.096 13.063-9.171 4.359-3.102 8.777-6.119 13.122-9.238 8.01-5.75 15.832-11.814 22.39-19.201 3.219-3.036 6.194-6.271 8.742-9.821a.5.5 0 00.515-.06 15.65 15.65 0 002.598-2.402 58.818 58.818 0 01-1.413 3.279c-.118.253-.242.502-.363.752zM5.44 233.75c-.023-1.738.257-3.629-.384-5.262.429-.838.786-1.713 1.127-2.599 2.112-4.013 5.294-6.943 8.98-9.445-4.563 5.013-7.85 11.131-9.717 17.638-.001-.111-.005-.221-.006-.332zM92.028 89.201c-.498 1.745-1.331 3.327-2.318 4.824.847-1.964 1.4-4.033 1.524-6.233.199.35.402.7.604 1.052.072.124.133.242.19.357zM63.96 139.327a.712.712 0 00-.474.16c-4.084 3.253-8.357 6.257-12.29 9.695a.301.301 0 00-.09.135c-6.691 4.241-13.841 7.847-20.664 11.955 1.516-1.308 2.995-2.657 4.48-3.944 3.61-3.129 6.973-6.514 10.545-9.676.39-.345-.183-.915-.57-.571-3.487 3.086-7.227 5.908-10.77 8.934-3.498 2.988-7.357 5.818-10.401 9.281a.414.414 0 00-.09.378 80.96 80.96 0 00-2.885 2.125c-5.413 4.184-10.424 9.355-13.693 15.427a.656.656 0 00-.113-.05c.04-1.748.063-3.499.24-5.218.543-5.234 3.028-9.705 6.268-13.758 3.66-4.579 7.82-8.76 12.207-12.678a88.23 88.23 0 00-6.123 6.978c-3.903 4.964-7.288 10.326-9.948 16.055-.174.374.364.705.563.329 2.96-5.605 6.32-10.981 10.273-15.943a90.66 90.66 0 015.89-6.698c2.216-2.28 4.8-4.231 6.963-6.54.172-.183.12-.439-.025-.589 14.037-11.287 29.439-20.903 42.448-33.443 2.379-2.293 4.695-4.677 6.865-7.182-1.104 2.276-1.973 4.667-2.771 7.118-2.956 9.071-6.722 17.408-13.011 24.7a53.791 53.791 0 01-2.824 3.02zM5.079 192.954a51.58 51.58 0 00-.827 1.95c.082-.377.166-.754.256-1.13.062-.259.13-.517.201-.776a.683.683 0 00.37-.044zm41.163-98.233c-6.76 4.035-13.12 9.086-19.025 14.276-6.027 5.297-10.983 11.085-15.398 17.758-.137.207-.062.406.089.522a50.355 50.355 0 00-1.944 2.432c.579-2.142 1.778-3.905 3.146-5.792a455.533 455.533 0 005.205-7.354c3.4-4.886 7.274-9.643 10.148-14.861.215-.39-.315-.839-.635-.489-4.39 4.807-7.95 10.505-11.813 15.739-1.21 1.639-2.432 3.28-3.617 4.945a67.756 67.756 0 011.852-3.462c4.07-7.095 9.344-13.386 14.847-19.402C33.81 93.88 38.592 88.787 43.4 83.717a.441.441 0 00.187-.052c6.295-3.367 11.778-8.248 16.617-13.446a83.978 83.978 0 006.521-7.883c1.985-2.736 3.589-5.606 5.218-8.533.205-.254.408-.51.603-.77a.65.65 0 00.23.157 54.768 54.768 0 01-.29 1.834c-.745 1.776-1.63 3.513-2.588 5.214l.225-1.027c.097-.444-.584-.634-.684-.188a116.506 116.506 0 01-.825 3.415c-1.588 2.629-3.283 5.17-4.822 7.632-2.503 4.003-5.011 8.006-7.756 11.849-2.894 4.05-6.182 7.758-9.324 11.606-.264.323.09.93.49.635 7.923-5.847 13.078-15.338 18.168-23.548.552-.89 1.117-1.786 1.683-2.687-1.18 3.754-2.575 7.448-4.233 10.938-2.697 5.679-6.446 10.361-10.482 15.112-.197.232.055.628.344.446 5.212-3.292 8.774-9.044 11.326-14.504 2.245-4.802 3.626-9.762 4.806-14.83a92.969 92.969 0 002.327-4.011 132.856 132.856 0 01-2.09 7.357 147.482 147.482 0 01-4.38 12.074c-1.605 3.881-3.246 7.902-5.543 11.434-4.365 6.71-12.483 10.143-19.176 14.054-6.292 3.676-12.508 7.501-18.245 12.013-2.524 1.985-4.946 4.11-7.183 6.403 4.038-5.348 9.086-10.151 14.07-14.486 5.855-5.092 12.331-9.431 18.164-14.535.366-.322-.106-.914-.516-.67zm1.973-16.068C53.679 72.922 59.16 67.207 64.6 61.46c.998-1.054 2.094-2.117 3.198-3.208-2.813 3.828-5.956 7.477-9.155 10.848-3.262 3.437-6.81 6.531-10.43 9.553zM27.56 48.733c-2.832 3.725-5.53 7.538-8.258 11.34-2.67 3.72-5.784 7.437-7.854 11.532a.275.275 0 00-.028.148c-1.209 1.29-2.376 2.676-3.401 4.148.95-2.576 1.851-5.169 2.988-7.678.852-1.883 2.064-3.491 3.316-5.12 1.669-2.172 3.211-4.42 4.917-6.565.286-.359-.218-.874-.511-.51-2.935 3.63-6.715 6.927-8.765 11.184-1.493 3.1-2.704 6.428-3.715 9.776.07-.534.15-1.068.257-1.603a32.588 32.588 0 013.787-10.063c2.9-4.974 7.1-9.012 11.488-12.67 8.614-7.182 18.732-13.453 23.923-23.793a33.133 33.133 0 002.527-6.796c-.418 3.907-2.019 7.631-4.157 10.92-2.56 3.94-6.002 7.119-8.894 10.787-.258.328.094.958.498.646.275-.213.55-.431.824-.652l-1.153 1.24c-.23.25.063.661.37.48 3.067-1.826 5.493-4.37 7.628-7.2 2.283-3.027 3.667-6.213 5.08-9.69.069-.168-.031-.314-.172-.39.865-2.597 1.258-5.33.995-8.157a.468.468 0 00-.509-.431c.37-2.217.497-4.47.334-6.697.166.53.317 1.062.44 1.602.488 2.133.624 4.333.556 6.521-.475 4.948-1.736 9.849-3.958 14.298-2.517 5.038-6.15 9.055-10.034 13.047-.26.268.073.72.403.523 2.671-1.592 5.019-3.735 7.012-6.23-1.697 2.453-3.873 4.439-6.163 6.407-2.93 2.517-5.867 5.028-8.8 7.542-4.12 3.532-8.437 6.95-12.475 10.62 1.54-2.002 2.965-4.111 4.376-6.1 2.772-3.906 5.443-7.85 7.874-11.978.291-.495-.42-.868-.746-.438zm.212-41.578c2.515-2.19 5.636-4.218 9.026-4.623-2 3.252-4.226 6.274-6.557 9.313-.112.146.126.317.25.193 2.754-2.72 4.986-6.066 6.692-9.545.177-.015.353-.029.532-.034a9.74 9.74 0 011.273.047c-.189 1.58-.317 3.164-.695 4.73-.586 2.43-1.493 4.773-2.616 7.003-2.035 4.038-4.724 7.72-7.27 11.443-.19.278.242.612.467.36 3.28-3.659 6.165-7.636 8.236-12.115 1.51-3.267 3.06-7.444 2.907-11.254 1.252.274 2.403.8 3.42 1.54-.013 8.014-5.642 14.056-8.315 21.355-.07.193.233.317.33.139 3.483-6.376 9.032-13.405 8.573-21.03.86.736 1.607 1.631 2.211 2.664.059.1.134.18.216.245.055.325.11.65.157.974-.392 3.956-2.43 7.694-4.227 11.163-1.924 3.715-4.157 7.209-6.383 10.743-.147.232.2.414.358.21 2.803-3.641 5.167-7.715 7.191-11.835 1.464-2.977 2.834-5.983 3.202-9.227.825 6.666.097 13.054-3.214 19.175-2.727 5.041-6.781 9.146-11.113 12.83-8.476 7.208-18.584 13.292-24.14 23.28a37.253 37.253 0 00-2.437 5.358c.023-3.19.112-6.38.303-9.56 1.741-5.442 4.826-10.468 7.633-15.612.165-.303-.252-.524-.45-.263-2.678 3.526-5.152 7.499-6.874 11.723.155-1.724.345-3.444.573-5.16.67-1.47 1.505-2.889 2.197-4.21 1.475-2.816 3.01-5.602 4.495-8.413.146-.278-.234-.486-.413-.242-2.166 2.962-3.976 6.115-5.592 9.406-.084.173-.17.346-.257.52.398-2.48.883-4.947 1.475-7.399 3.035-12.578 8.921-25.258 18.836-33.892zM6.698 126.083c.312-3.099.942-6.155 1.968-9.103 1.221-3.51 3.051-6.672 4.875-9.889.133-.233-.198-.514-.384-.296-3.976 4.659-6.138 10.973-6.82 17.142a213.92 213.92 0 01-.563-3.681 101.431 101.431 0 01-.734-6.661c1.106-3.752 2.565-7.394 3.676-11.142.067-.224-.264-.366-.378-.16-1.719 3.088-2.693 6.49-3.393 9.933a99.545 99.545 0 01-.122-10.813c3.017-9.127 6.407-18.99 13.66-25.538.18-.163-.06-.487-.265-.342-4.126 2.926-6.735 7.095-8.817 11.634-1.737 3.786-3.198 7.72-4.44 11.708.135-2.025.322-4.048.563-6.064.49-4.108 1.394-8.141 1.854-12.245 1.771-3.734 4.734-6.88 7.866-9.774 5.49-5.073 11.358-9.774 17.039-14.632 5.464-4.674 11.687-8.967 14.864-15.618 2.575-5.39 4.409-11.314 5.031-17.264.335-3.2.217-6.483-.563-9.615-.258-1.037-.607-2.247-1.093-3.407.426.286.85.572 1.264.862 1.145.806 2.276 1.63 3.39 2.476 3.027 9.275-1.272 18.428-5.023 26.982-.09.208.197.391.313.183 4.343-7.825 8.47-17.725 5.469-26.586.58.449 1.155.901 1.723 1.364a64.584 64.584 0 013.663 3.214c.738 8.847-1.55 17.252-6.3 24.727-.13.204.187.46.343.264 5.416-6.803 7.679-15.876 6.52-24.452 2.079 2.033 3.983 4.24 5.558 6.691 2.522 3.922 4.195 8.338 4.987 12.93.128.742.227 1.49.303 2.24-3.946 6.942-8.625 13.374-13.86 19.425-.168.195.097.469.287.286 5.637-5.436 10.207-11.91 13.643-18.939.107 1.362.134 2.73.084 4.092-.05 1.355-.355 2.745-.507 4.12-2.516 4.117-6.68 7.506-9.857 10.843l-17.937 18.85c-11.105 11.67-23.5 23.035-31.707 37.048-2.017 3.443-3.756 7.063-5.094 10.825-.174.491-.346.984-.51 1.481a134.205 134.205 0 01-.576-3.099zm-2.291 44.726c.559-2.183 1.87-4.343 2.783-6.196a114.167 114.167 0 013.941-7.272c2.85-4.856 6.18-9.369 9.461-13.934.185-.256-.22-.56-.434-.335-4.254 4.508-7.755 9.765-10.799 15.15a96.624 96.624 0 00-4.178 8.272c-.34.764-.697 1.542-1.008 2.333-.447-4.059-.68-8.138-.458-12.268.07-1.295.176-2.588.314-3.878 3.67-6.666 8.426-12.592 13.935-17.864.116-.11-.054-.271-.173-.172-5.664 4.672-10.224 10.508-13.643 16.977a73.673 73.673 0 011.61-8.807 40.22 40.22 0 01.676-2.384c.458-.518.95-1.013 1.432-1.509a232.337 232.337 0 014.303-4.307c2.903-2.833 5.9-5.568 8.814-8.389.194-.188-.071-.556-.296-.384-3.638 2.781-6.969 5.876-10.202 9.115-.992.993-2.188 2.052-3.295 3.202.36-1.035.728-2.067 1.081-3.103 8.277-12.073 20.515-20.043 33.06-27.289 6.646-3.839 14.448-7.221 19.124-13.558 2.437-3.301 4.068-7.18 5.688-10.927a152.031 152.031 0 004.475-11.588 122.772 122.772 0 003.955-14.462c.585-2.823 1.314-5.916 1.519-8.947.291.74.583 1.478.877 2.216 1.56 7.342 1.105 14.77-.786 22.058-.072.28.34.39.43.119 2.192-6.54 2.41-13.569 1.106-20.302 2.376 5.94 4.787 11.865 7.044 17.85a.276.276 0 00-.08.26c1.498 7.673-3.285 14.227-5.426 21.231-.064.209.24.334.35.148 1.962-3.371 3.58-7.154 4.844-10.845.942-2.75 1.5-5.552 1.207-8.382.63 1.75 1.228 3.508 1.817 5.27-.956 5.32-3.2 9.884-5.924 14.497-.095.163.137.355.267.206 3.282-3.736 5.172-8.665 6.044-13.54.444 1.338.886 2.676 1.335 4.013a.18.18 0 00-.037.087c-.515 3.783-2.09 7.182-4.245 10.305-.1.145.124.315.242.187 2.505-2.7 3.86-6.044 4.357-9.643.062.183.123.367.186.55.21.615.467 1.198.75 1.767a.463.463 0 00-.038.14c-.457 5.262-3.392 9.937-6.664 13.933-2.824 3.448-5.884 6.696-9.109 9.772-6.61 6.307-13.87 11.888-21.213 17.307-14.218 10.491-29.213 20.552-40.681 34.185-3.275 3.893-6.274 8.255-7.336 13.315a29.55 29.55 0 00-.231 1.249 201.165 201.165 0 01-.771-5.429zm-1.24 42.718c.428-1.79 1.271-3.556 1.946-5.123a72.469 72.469 0 013.574-7.2c2.71-4.761 6.03-9.024 9.567-13.191.21-.247-.12-.59-.361-.361-4.272 4.083-7.748 9.074-10.527 14.271a62.034 62.034 0 00-3.468 7.712c-.287.774-.587 1.559-.839 2.353a71.926 71.926 0 01-.11-6.881c.03-.829.081-1.656.147-2.481 2.4-4.225 5.26-8.066 8.385-11.831.146-.176-.086-.421-.256-.256-3.286 3.188-5.945 7.042-8.043 11.13.12-1.232.277-2.46.477-3.681a52.532 52.532 0 015.342-10.766 51.689 51.689 0 015.75-7.359c2.029-2.157 4.354-3.962 6.478-6.013.18-.173-.05-.465-.264-.342-5.1 2.923-9.32 8.203-12.455 13.085a47.693 47.693 0 00-2.47 4.34c.334-1.136.539-2.296.668-3.47 7.318-16.081 24.463-23.97 39.203-32.228 8.14-4.56 15.955-9.71 22.2-16.728 5.973-6.711 10.368-14.575 13.164-23.099 1.73-5.276 3.293-10.46 6.748-14.911 1.636-2.108 3.467-4.147 4.593-6.474.034.01.066.019.097.024-1.418 6.81-4.24 12.856-7.957 18.727-.171.271.236.599.451.348 4.549-5.312 7.311-12.202 8.36-19.082.126-.015.25-.03.372-.043.708-.076.798-.302 1.187.254.05.07.091.184.127.322-.137-.022-.3.063-.289.23.319 4.579-1.02 8.986-2.217 13.355-1.172 4.278-2.486 8.515-3.656 12.793-.088.324.374.433.493.135 1.782-4.476 3.14-9.091 4.372-13.745.853-3.221 1.79-6.546 1.747-9.887l.336 1.844c.637 3.53 1.206 7.075 1.572 10.644a.23.23 0 00-.162.179c-3.065 16.27-14.673 28.402-25.745 39.882-.138.143.074.355.218.218 11.21-10.698 23.178-22.655 25.856-38.521.322 3.855.394 7.745.043 11.593-.773 2.15-1.836 4.142-2.905 6.166-.129.244.203.538.4.309.876-1.013 1.566-2.138 2.12-3.331a44.52 44.52 0 01-.662 3.394 39.73 39.73 0 01-1.977 6.14 8.879 8.879 0 00-1.068 1.493.494.494 0 00-.149.173c-8.187 15.074-22.626 25.211-36.27 34.933-3.892 2.773-7.838 5.494-11.907 8.004-4.074 2.512-8.352 4.648-12.506 7.02-7.85 4.484-14.113 10.609-20.263 17.153-3.19 3.395-5.879 6.995-7.34 11.477a30.124 30.124 0 00-1.14 4.952c-.252-1.438-.51-2.864-.665-4.25a100.03 100.03 0 01-.323-3.399zm10.735 46.718c.83-3.989 2.966-7.543 5.665-10.549 5.807-6.47 13.744-10.954 21.238-15.173 12.256-6.9 25.268-13.087 36.202-22.012-4.084 3.796-8.504 7.255-12.905 10.507-.437.322-.053 1.04.437.746 8.125-4.872 15.783-10.884 21.584-18.312-.364.61-.716 1.229-1.05 1.86-1.048 1.976-1.965 4.018-2.916 6.044a5.1 5.1 0 00.05-.975c-.033-.688-.968-1-1.334-.361-1.449 2.525-2.867 4.597-5.023 6.605a65.69 65.69 0 01-6.72 5.455c-4.622 3.288-9.572 6.093-14.21 9.357-.583.41-.089 1.22.551.942 5.823-2.526 11.349-5.676 16.434-9.477 1.897-1.417 3.725-2.919 5.436-4.552-6.91 8.051-16.755 13.654-25.735 18.971-.44.261-.055.88.394.673 2.236-1.029 4.487-2.088 6.703-3.219-3.015 1.692-6.097 3.274-9.156 4.856-7.391 3.823-15.251 7.694-21.161 13.686-2.954 2.995-5.492 6.361-8.121 9.635-.578.721-1.162 1.453-1.762 2.178 1.197-3.826 3.22-7.247 5.643-10.524.268-.363-.288-.714-.59-.455-3.891 3.339-6.11 8.195-6.98 13.179a24.83 24.83 0 01-2.546 2.388l-.03-.268c.702-3.059 1.695-6.024 2.732-8.985.254.05.537-.046.68-.384.61-1.446.842-3.09 1.31-4.596.47-1.521 1.07-2.965 1.624-4.453.156-.418-.488-.808-.77-.449-1.71 2.185-3.346 5.557-3.358 8.495-1.118 2.36-1.92 4.865-2.53 7.416-.254-2.766-.349-5.539.214-8.249zm80.908-69.762c-.876 2.536-2.16 4.856-3.588 7.115a47.968 47.968 0 001.949-4.19 45.512 45.512 0 001.643-3.559 29.17 29.17 0 00-.004.634zM79.32 218.83c-.028.047-.06.093-.089.141a.561.561 0 00-.314-.199c.415-.438.837-.907 1.236-1.402a38.33 38.33 0 01-.832 1.46zm10.264 1.133c-2.55 8.744-6.256 17.178-11.193 24.844-.185.286-.373.57-.561.853-.073-.064-.18-.08-.27.016-4.451 4.715-9.317 8.803-14.319 12.905-.245.201.07.593.335.434 4.818-2.906 9.102-6.857 12.753-11.166-8.618 12.154-20.557 21.984-34.64 27.061 4.46-3.404 8.928-6.945 12.752-10.976.242-.255-.085-.737-.393-.509-5.034 3.726-9.677 8.069-14.416 12.191-3.154 1.02-6.405 1.784-9.7 2.025a143.93 143.93 0 005.826-3.154c2.607-1.499 5.392-3.028 7.62-5.065.203-.186-.055-.463-.277-.36-2.82 1.321-5.425 3.233-8.078 4.858a181.564 181.564 0 01-6.477 3.794c-.998.026-2 .002-3.004-.082-2.37-.198-4.757-.771-6.928-1.753-1.36-.616-2.563-1.437-3.736-2.311 5.133-3.804 8.682-9.756 12.875-14.443 5.956-6.659 13.894-10.855 21.738-14.901 7.712-3.979 15.542-7.853 22.293-13.383 3.1-2.539 5.919-5.424 8.273-8.672 2.695-3.719 4.533-7.944 6.612-12.016 2.02-3.955 4.67-7.424 7.063-11.129-.94 7.059-2.153 14.103-4.148 20.939zm8.571-78.128c-.1 2.479-.217 4.957-.34 7.436a876.546 876.546 0 01-.816 14.49c-.32 4.827-.683 9.652-1.095 14.472l-.03.316c-.102-.11-.287-.136-.372.038-4.894 10.061-13.77 16.773-22.124 23.798-.16.135.054.416.225.292 8.767-6.312 17.59-13.654 22.227-23.645-.17 1.74-.405 3.514-.608 5.296-5.204 16.196-18.824 27.499-33.006 35.866-7.882 4.65-16.155 8.587-24.123 13.085-7.342 4.144-15.074 8.665-20.655 15.117-2.786 3.221-5.025 6.99-5.904 11.196-.844 4.041-.539 8.135.3 12.12-.036.009-.073.018-.108.03-1.319-2.548-2.177-5.441-2.7-8.221-.347-1.85-.74-3.694-1.12-5.539 2.18-8.625 7.02-15.738 13.422-21.995.176-.172-.063-.507-.27-.351-6.747 5.121-11.281 13.093-13.364 21.31-.201-.993-.396-1.987-.576-2.983.685-4.329 3.563-8.184 6.022-11.71 3.054-4.379 6.39-8.559 9.733-12.718.16-.198-.102-.478-.285-.286-3.88 4.084-7.293 8.548-10.456 13.206-2.1 3.093-4.388 6.39-5.268 10.041l-.019-.106a93.376 93.376 0 01-.467-3.244c2.461-8.398 6.638-15.298 13.03-21.349.15-.141-.055-.423-.225-.292-6.293 4.852-11.14 12.389-12.977 20.204a113.687 113.687 0 01-.531-6.475c.003-.006.008-.01.01-.017 3.612-10.549 10.563-19.129 19.36-25.84.19-.144.022-.464-.194-.33-9.109 5.653-15.742 14.894-19.238 24.952l-.007-.133a186.02 186.02 0 01-.137-4.68c2.254-7.253 5.967-13.712 10.848-19.502a80.756 80.756 0 014.218-2.503c7.875-4.394 15.388-9.401 22.956-14.299 15.717-10.173 30.68-21.498 41.888-36.695 3.049-4.133 5.793-8.512 7.988-13.161 1.788-3.786 4.108-8.568 3.86-12.888.156-.107.321-.205.486-.302.688 1.901.523 3.992.442 5.999z" fill="#000"/><path d="M39.987 31.861c3.183-4.31 5.958-9.036 6.5-14.463.013-.136-.222-.169-.24-.032-.747 5.367-3.821 9.79-6.526 14.34-.103.174.151.312.266.155zM25.403 45.749c2.432-2.276 4.225-4.903 5.686-7.892.047-.097-.093-.182-.147-.085-1.597 2.8-3.581 5.39-5.697 7.82-.094.107.052.256.158.157zM8.22 62.322c3.228-4.851 6.358-9.766 9.682-14.554.105-.152-.143-.347-.26-.2-3.616 4.59-6.936 9.439-9.597 14.652-.06.116.102.21.175.102zm52.64-20.153c2.76-3.516 4.66-7.54 5.863-11.833.03-.105-.133-.15-.164-.045-1.25 4.27-3.264 8.155-5.815 11.787-.048.07.064.158.116.09zm3.321 4.828c3.024-3.02 5.055-7.082 6.48-11.065.057-.157-.186-.217-.245-.068-1.615 4.053-3.972 7.42-6.485 10.94-.107.15.125.318.25.193zm-1.193 12.475c3.553-2.726 6.495-6.316 9.19-9.864.142-.185-.178-.435-.325-.25-2.802 3.514-6.03 6.544-9.11 9.797-.15.158.055.462.245.317zm-28.52 11.97c2.487-2.588 5.214-4.876 8.051-7.068.067-.051-.02-.164-.09-.117-2.965 2.028-5.615 4.46-8.066 7.08-.065.07.039.174.105.105zm15.868-11.043c2.367-1.721 4.295-3.876 6.009-6.236.194-.267-.247-.515-.44-.257-1.709 2.275-3.704 4.294-5.743 6.267-.114.11.04.324.174.226zM15.895 98.48c3.79-4.258 6.732-9.158 9.755-13.967.114-.182-.165-.339-.285-.166-3.234 4.647-6.84 9.041-9.837 13.85-.139.222.189.484.367.283zm-6.257-4.97c-2.744 3.634-5.037 9.255-4.634 13.885.021.243.365.313.439.06.653-2.232.882-4.556 1.6-6.784.773-2.398 1.86-4.688 2.925-6.967.106-.227-.183-.389-.33-.194zm7.867 9.722c-.117.265.272.499.395.23 4.65-10.215 12.138-18.45 21.012-25.175.254-.192.03-.618-.257-.44a47.198 47.198 0 00-5.83 4.273 183.65 183.65 0 015.046-5.246c2.65-2.642 5.492-5.103 8.054-7.83.165-.175-.06-.51-.27-.35-5.925 4.471-11.025 10.39-15.805 16.034a.215.215 0 00-.048.188c-5.214 5.237-9.343 11.581-12.298 18.315zm51.482-6.371c3.61-5.682 6.817-11.885 9.157-18.203 2.224-6.004 4.236-13.15 2.172-19.456-.066-.201-.366-.12-.318.087 1.546 6.56-.6 13.639-2.96 19.76-2.353 6.103-5.657 11.686-8.474 17.566-.134.281.252.515.423.246zM55.41 121.924c7.123-5.462 13.842-11.587 20.553-17.543.233-.207-.105-.532-.338-.338-6.894 5.714-13.96 11.408-20.427 17.606-.14.133.051.398.212.275zm-3.853-.628c2.247-1.678 4.356-3.533 6.358-5.495.078-.077-.042-.198-.12-.12-1.989 1.976-4.098 3.802-6.29 5.549-.037.029.013.095.052.066zm-20.88 11.617c5.125-5.527 10.775-10.351 16.505-15.225.114-.096-.037-.295-.161-.208-6.119 4.295-11.59 9.65-16.645 15.133-.185.2.114.501.3.3zm4.693-13.962c4.266-3.668 8.9-6.645 13.539-9.792.232-.158.032-.502-.22-.377-5 2.49-9.555 6.079-13.763 9.725-.305.265.14.706.444.444zm-20.62 40.002a67.903 67.903 0 019.176-11.443c3.354-3.365 7.14-6.078 10.883-8.973.216-.168-.06-.488-.284-.368-8.378 4.507-15.285 12.535-20.189 20.542-.16.264.249.501.414.242zm3.357-20.476c-4.808 4.435-8.534 10.34-11.272 16.232-.09.195.191.368.294.171 3.085-5.929 6.993-11.022 11.211-16.17.132-.161-.074-.379-.233-.233zm61.614-3.154c2.327-2.998 4.361-6.218 6.606-9.278.099-.135-.129-.313-.234-.18-2.35 2.966-4.785 5.925-6.73 9.181-.13.216.196.486.358.277zm1.181 12.54c4.489-4.403 8.161-9.686 11.663-14.881.163-.242-.22-.453-.386-.225-3.709 5.081-7.887 9.785-11.677 14.797-.179.236.2.506.4.309zM66.22 162.945c2.991-2.094 5.619-4.646 8.046-7.362.068-.076-.042-.187-.113-.112-2.503 2.647-5.25 4.999-8.049 7.323-.082.069.028.213.117.151zm-9.689 1.557c-6.245 4.149-12.059 8.977-18.179 13.313-.088.063-.006.209.086.147 6.21-4.166 12.665-8.253 18.305-13.185.15-.13-.046-.386-.212-.275zm-27.048 12.295a437.585 437.585 0 0117.228-13.004c5.674-4.073 11.587-7.837 17.198-11.99.204-.151.028-.479-.204-.349-6.254 3.521-12.168 7.866-17.949 12.105-5.657 4.148-11.169 8.47-16.589 12.922-.223.184.094.492.316.316zm-4.043 12.595c3.167-3.028 6.648-5.536 10.105-8.205.157-.121.023-.382-.161-.276-3.748 2.175-7.13 5.196-10.238 8.188-.192.185.1.477.294.293zm-1.658 45.053c3.289-3.766 6.989-6.996 10.782-10.233.132-.113-.043-.341-.187-.242-4.097 2.818-7.65 6.43-10.865 10.204-.159.186.108.457.27.271zm.563-10.786c2.277-2.431 4.698-4.788 6.82-7.355.09-.109-.052-.258-.158-.158-2.412 2.296-4.593 4.877-6.858 7.317-.12.13.074.326.196.196zm12.502 4.565c-9.485 6.335-17.791 14.481-24.76 23.481-.061.08.049.193.113.112 7.177-8.947 15.554-16.587 24.77-23.382.124-.091.01-.3-.123-.211zm60.756-89.099c1.216 7.241-3.56 14.043-7.454 19.71-3.916 5.698-8.445 10.939-13.253 15.898-.134.138.07.339.21.21 5.487-4.993 10.237-10.727 14.355-16.891 3.67-5.491 7.91-12.065 6.275-18.964-.02-.088-.147-.049-.133.037zm-2.511 18.162a43.62 43.62 0 01-11.215 21.026c-.071.074.04.185.113.113 5.89-5.745 9.741-13.018 11.174-21.119.008-.047-.061-.067-.072-.02zm-1.834 17.463c-2.64 4.729-5.938 9.002-9.573 13.007-.161.177.087.427.263.263 4.01-3.742 7.178-8.183 9.742-13.018.15-.284-.274-.534-.431-.252zm-8.595-2.324c-3.33 5.389-7.328 10.244-11.663 14.851-.136.145.072.352.219.218 4.696-4.298 8.574-9.389 11.848-14.833.156-.259-.246-.492-.404-.236zM76.99 205.41c6.864-3.523 12.439-9.542 16.309-16.125.133-.227-.204-.416-.35-.204-4.393 6.414-9.959 11.373-16.206 15.907-.252.182-.038.568.247.422zm-20.41 9.611c-4.233 2.559-7.797 6.329-10.843 10.18-.167.211.125.513.3.3 3.2-3.881 6.931-6.977 10.768-10.187.164-.137-.047-.4-.225-.293zm-3.876-5.516c.005-.004-.002-.012-.007-.008l-2.85 2.248c-.006.004.002.012.007.007l2.85-2.247zm11.26-17.691c-3.192 1.55-6.025 3.741-8.517 6.253-.082.083.046.21.128.128 2.524-2.512 5.375-4.502 8.469-6.244.09-.051.011-.182-.08-.137zm-31.842 68.433c-5.844 3.479-11.359 8.209-15.43 13.679-.193.26.224.567.442.342 4.8-4.962 9.664-9.503 15.213-13.635.224-.167.028-.537-.225-.386zm6.744.034c-5.575 4.984-10.926 10.255-16.26 15.494-.206.202.105.51.315.316 5.493-5.073 11.018-10.161 16.268-15.487.208-.211-.105-.518-.323-.323zm12.586-13.528c-3.086 2.172-6.04 4.55-9.045 6.833-.08.061-.001.2.08.138 3.017-2.279 6.11-4.484 9.042-6.871.056-.045-.018-.142-.077-.1zm4.018 4.593c-2.486 1.473-4.404 3.695-5.846 6.177-.135.231.22.439.357.209 1.467-2.455 3.432-4.399 5.657-6.169.124-.099-.035-.296-.167-.217zm21.473-20.495c-2.556 1.974-4.974 4.123-7.427 6.223-.177.152.08.404.256.256 2.458-2.073 4.962-4.1 7.313-6.295.095-.089-.035-.266-.142-.184zm14.771-24.233c-3.047 7.516-6.656 14.774-10.415 21.953-.13.249.223.454.377.22 4.488-6.845 7.847-14.314 10.417-22.068.081-.246-.287-.333-.38-.105zm-4.654 18.604c-4.408 8.66-10.386 16.092-17.126 23.035-.268.276.127.648.413.414 7.505-6.133 13.173-14.422 17.127-23.208.124-.275-.272-.519-.413-.241z" fill="#000"/></svg>