<svg width="103" height="86" fill="none" xmlns="http://www.w3.org/2000/svg"><path d="M91.822 27.304c-3.884-6.261-10.043-10.802-17.008-13.073-3.882-1.265-7.965-1.933-12.016-2.378-4.175-.46-8.406-.605-12.584-.095-4.253.52-8.299 1.795-12.236 3.457-3.564 1.505-7.104 3.126-10.518 4.948-6.228 3.325-12.272 7.769-15.354 14.32-3.23 6.866-3.023 15.086-1.963 22.437.605 4.188 1.922 8.09 4.816 11.257 2.529 2.766 5.811 4.87 8.98 6.829 3.062 1.894 6.43 3.604 10.05 4.05 3.93.485 7.737-.657 10.958-2.922 5.548-3.901 9.335-10.554 9.303-17.395 1.712 2.705 4.18 4.94 7.093 6.25 6.795 3.056 14.761 1.225 21.163-1.947 6.416-3.18 10.901-8.918 12.602-15.866 1.666-6.806.395-13.937-3.286-19.872zm-.409 23.825c-2.846 6.001-8.047 9.702-14.242 11.79-5.815 1.96-12.77 2.387-17.82-1.675-4.506-3.622-6.79-9.885-4.697-15.428 2.009-5.318 7.392-9.325 13.205-8.633 5.673.676 11.409 5.553 10.947 11.68-.442 5.852-8.936 10.493-13.14 5.285-1.653-2.048-2.345-4.61-.818-6.958.276-.424-.442-.918-.74-.502-1.574 2.198-1.48 5.048-.377 7.437 1.26 2.728 4.272 4.163 7.19 4.066a9.722 9.722 0 002.358-.378l.007.002c2.765.675 5.459-.379 7.708-1.978 2.236-1.59 4.673-3.58 6.229-5.861C88.57 48 89.21 45.67 89.399 43.305c.19-2.384.15-5.38-.87-7.595-.213-.462-.828-.35-.862.159-.146 2.138.379 4.334.326 6.49-.055 2.205-.475 4.43-1.594 6.357-1.248 2.15-3.373 3.9-5.266 5.468-1.8 1.49-3.884 2.746-6.203 2.998a10.96 10.96 0 004.257-3.61c2.13-3.086 2.152-6.894.605-10.245-2.705-5.86-9.572-9.33-15.898-8.113-6.524 1.255-11.627 7.274-12.152 13.839-.017.206-.03.413-.037.62-1.983-3.317-5.028-5.967-8.79-7.147-6.107-1.915-13.62.43-16.626 6.31-2.67 5.221-1.545 12.2 2.758 16.219 2.42 2.26 5.987 3.535 9.268 2.735 3.213-.784 5.452-3.845 5.384-7.13-.068-3.285-2.623-6.054-5.77-6.73-1.38-.297-1.838 1.844-.46 2.14 2.996.645 4.86 3.78 3.66 6.682-1.296 3.13-4.897 3.661-7.766 2.5-4.933-1.995-7.142-7.883-6.039-12.862 1.26-5.68 6.968-8.87 12.555-8.264 6.082.659 10.597 5.693 11.853 11.495 1.29 5.959-1.208 12.216-5.382 16.464-2.481 2.526-5.763 4.554-9.353 4.865-3.177.276-6.249-.755-9.046-2.18-2.893-1.474-5.681-3.304-8.256-5.279-2.839-2.176-5.153-4.743-6.324-8.18-1.159-3.4-1.43-7.101-1.606-10.67-.161-3.277-.084-6.58.564-9.805 1.278-6.356 5.059-11.357 10.252-15.105a53.134 53.134 0 013.923-2.565c-1.312 1.248-2.528 2.622-3.719 3.965-1.553 1.752-3.015 3.583-4.318 5.53-2.463 3.682-4.326 7.767-4.969 12.173-.03.212.29.284.328.07.76-4.33 2.598-8.372 5.057-11.998 1.295-1.911 2.75-3.713 4.277-5.443 1.544-1.747 3.273-3.337 4.771-5.121 3.905-2.189 8.065-4 12.164-5.637 3.495-1.395 7.086-2.427 10.835-2.83 3.515-.376 7.074-.315 10.589.032 6.795.67 13.792 1.95 19.635 5.674 5.26 3.352 9.491 8.495 11.413 14.458 1.801 5.585 1.36 11.79-1.154 17.09z" fill="#DEDEDE"/><path d="M26.369 32.387c2.52-3.044 5.584-5.23 9.004-7.146.285-.16.052-.599-.245-.506-6.007 1.881-10.564 7.507-13.386 12.881-1.558 2.967-2.88 6.223-3.287 9.57-.392 3.232.24 6.366 1.772 9.23 1.908 3.57 4.806 6.242 8.003 8.634.126.094.29-.084.165-.187-3.205-2.636-6.305-5.973-7.944-9.833-1.755-4.134-1.379-8.442.16-12.575 1.35-3.63 3.285-7.083 5.758-10.068z" fill="#DEDEDE"/><path d="M25.07 40.81c-.073.156.156.271.238.12 3.014-5.54 8.285-9.466 14.1-11.708 6.342-2.445 13.254-2.694 19.969-2.277 4.092.255 8.158 1.027 12.256 1.052.388.002.404-.562.054-.654-3.612-.944-7.397-1.238-11.117-1.506-3.803-.274-7.632-.324-11.424.126-6.363.756-12.8 2.859-17.817 6.956-2.65 2.164-4.796 4.794-6.259 7.892z" fill="#DEDEDE"/><path d="M74.56 23.922c-6.431-3.762-13.934-5.284-21.303-5.655-4.505-.228-8.926.15-13.406.554-.176.016-.164.285.013.275 13.992-.826 29.74.414 40.346 10.661 2.686 2.596 5.088 5.89 6.71 9.259.138.289.589.166.489-.161-1.01-3.296-2.563-5.988-4.877-8.547-2.294-2.537-5.025-4.662-7.972-6.386z" fill="#DEDEDE"/><path d="M70.94 30.73c-3.814-.708-7.835-.701-11.689-.398a55.559 55.559 0 00-6.01.81c-1.944.37-3.999.747-5.766 1.667-.37.192-.146.816.253.77 1.71-.193 3.388-.742 5.07-1.104a53.126 53.126 0 015.67-.897c3.676-.384 7.442-.433 11.12-.035 3.625.391 6.687 1.76 8.763 4.86 2.121 3.168 2.82 7.098 3.186 10.822.022.225.37.21.352-.017-.322-3.884-.788-7.844-2.953-11.193-1.875-2.899-4.62-4.657-7.995-5.284z" fill="#DEDEDE"/><path d="M58.239 34.53c-3.08-.202-6.316.429-9.326 1.045-3.188.652-6.293 1.611-9.321 2.794-.245.096-.124.48.129.392a69.954 69.954 0 018.977-2.463c3.171-.648 6.383-.802 9.561-1.347.268-.046.252-.402-.02-.42zm-20.297 1.212c-3.123 1.464-5.946 3.72-8.524 5.987a51.56 51.56 0 00-3.828 3.742c-.885.959-2.28 2.101-2.375 3.49-.015.223.32.226.374.03.391-1.454 2.127-2.822 3.162-3.867a59.218 59.218 0 013.715-3.447c2.42-2.058 5.083-3.732 7.636-5.606.158-.115.038-.422-.16-.329zM21.247 63.7c-1.56-1.613-2.827-3.532-3.656-5.62-1.127-2.837-1.472-5.896-2.021-8.88-.063-.337-.553-.338-.55.027.06 5.553 1.57 10.987 5.475 15.073 3.353 3.508 7.716 5.476 12.546 5.612.178.005.206-.294.026-.314-4.392-.503-8.76-2.731-11.82-5.897z" fill="#DEDEDE"/></svg>