<svg width="88" height="83" fill="none" xmlns="http://www.w3.org/2000/svg"><path d="M85.705 32.652a13.963 13.963 0 00-.732-3.108c-.672-1.846-1.658-3.535-2.827-5.097-1.6-3.855-2.948-8.074-6.58-10.361a20.006 20.006 0 00-.83-.865c-1.268-1.983-2.727-3.841-4.407-5.507-3.851-3.82-8.79-6.585-14.2-7.376-5.544-.81-11.403-.048-16.86 1.06-10.14 2.062-19.94 6.46-27.695 13.357-3.865 3.437-7.606 7.678-9.675 12.454C.775 29.802.465 32.36.769 35.125a60.75 60.75 0 00-.48 3.428 44.326 44.326 0 00-.104 9.104c.24 7.037 1.843 13.986 5.499 20.069 2.62 4.358 6.18 8.206 10.513 10.915 5.138 3.214 11.106 4.321 17.106 4.358 12.116.074 24.27-3.311 34.637-9.542 9.974-5.994 18.86-15.327 19.963-27.382.426-4.653-.597-9.126-2.198-13.423zm-2.956 8.122C81.663 46.7 79.92 52.41 76.212 57.26c-6.797 8.89-17.79 14.763-28.408 17.792-11.413 3.255-24.864 2.622-34.306-5.284-7.514-6.291-11.085-15.73-11.338-25.28C3.356 49.65 5.6 54.64 8.297 59.183c.084.142.181.255.288.346 5.031 8.289 14.241 13.28 23.84 14.61 11.094 1.536 22.748-1.524 31.682-8.242a43.477 43.477 0 009.218-9.467c1.92-2.194 3.523-4.66 4.708-7.389 2.584-5.953 3.978-12.928 3.562-19.485a86.838 86.838 0 011.778 4.338c.15 2.29-.208 4.616-.624 6.881zM5.388 27.812c1.499-2.586 3.626-4.735 5.768-6.797 3.326-3.203 6.892-6.027 10.938-8.118-4.054 2.589-7.644 5.882-10.397 9.512a25.513 25.513 0 00-2.046 3.178 31.837 31.837 0 00-4.629 15.54 31.95 31.95 0 00-.007 1.495 38.65 38.65 0 00-.124 2.14c-.03-.113-.061-.227-.09-.341-.587-2.326-.745-4.68-1.104-7.043-.198-1.303-.387-2.571-.43-3.834.455-2.004 1.098-3.968 2.12-5.732zm66.894-13.477c.24.363.476.73.702 1.102 2.535 4.183 4.364 8.953 5.219 13.767.898 5.06.055 10.288-1.557 15.12a40.701 40.701 0 01-6.319 11.86c-2.347 2.345-5.112 4.281-8.06 5.823-5.483 2.865-11.613 4.304-17.729 5.035-5.936.71-12.194 1.22-18.169.725-2.763-.23-5.565-.84-7.976-2.25-2.516-1.47-4.379-3.784-5.926-6.203C9.42 54.547 7.62 48.997 7.385 43.347c.075-1.055.195-2.11.354-3.158.762-5.04 1.953-10.248 4.702-14.612 2.992-4.38 7.123-7.669 11.927-9.99 5.31-2.567 11.25-4.269 17.182-4.267 6.236.002 11.634 2.249 16.287 6.325 2.157 1.89 4.32 3.907 6.157 6.112 1.359 1.632 2.289 3.48 2.867 5.46a23.48 23.48 0 01.466 4.883 48.697 48.697 0 01-.632 7.652 26.11 26.11 0 01-2.126 5.3c-2.565 4.794-6.45 8.539-11.3 11.01-2.902 1.48-6.039 2.638-9.18 3.508-3.027.839-6.236 1.305-9.344.62-5.51-1.214-9.862-5.347-12.215-10.34-2.51-5.325-3.342-12.285-1.464-17.922 1.72-5.162 6.16-8.925 10.785-11.513 5.142-2.877 11.436-4.742 17.298-3.17 1.867.5 3.597 1.371 5.114 2.52a17.469 17.469 0 011.932 1.822c3.241 3.572 4.827 8.761 3.747 13.497-.86 3.768-3.275 7.036-6.39 9.295-1.565 1.027-3.307 1.774-5.122 2.33-1.425.436-2.9.818-4.392 1.094-5.869.444-11.856-1.816-14.886-7.265-2.18-3.923-2.13-8.79.741-12.358 3.134-3.894 8.084-4.343 12.605-2.762 4.365 1.527 7.286 5.675 5.058 10.202-2.092 4.25-7.812 5.33-11.734 2.991-1.915-1.142-3.568-3.524-2.351-5.761.637-1.173 1.921-1.533 3.17-1.624.747-.055 2.409-.155 3.23.388.055.09.11.178.156.272.15.31.237.648.262.989-.005.02-.008.038-.014.057a.708.708 0 00.004.467c-.102.85-.619 1.61-1.58 1.793-.993.188-.552 1.623.41 1.485 2.54-.364 3.46-3.357 2.57-5.484-.878-2.094-3.192-3.491-5.457-3.436-5.38.13-7.104 7.069-4.408 10.885 3.808 5.392 11.23 4.544 16.293 1.62 1.214-.7 2.46-1.531 3.194-2.756.815-1.362.903-2.996.743-4.536-.296-2.854-1.185-5.763-2.909-8.093-3.792-5.126-10.655-5.367-16.152-3.075-2.647 1.103-5.146 2.748-6.82 5.107-1.826 2.572-2.27 5.81-1.894 8.88.684 5.596 3.962 11.248 9.34 13.504 2.514 1.055 5.233 1.216 7.916.973a19.82 19.82 0 007.225-.795c9.417-2.889 16.093-12.371 13.24-22.2-.054-.185-.117-.364-.176-.546l-.031-.095c-.09-.27-.184-.536-.285-.798-.032-.085-.064-.17-.098-.253-.121-.302-.25-.599-.385-.89l-.006-.013c-4.36-9.38-16.122-13.58-25.91-10.142-5.008 1.76-10.319 5.025-13.61 9.236-3.476 4.449-4.568 10.591-4.562 16.109.006 5.541 2.154 10.576 5.594 14.865 3.233 4.03 7.69 7.973 12.703 9.56 5.548 1.758 11.61.208 16.773-2.044 4.671-2.038 8.99-5.078 12.104-9.135 2.851-3.714 4.15-8.061 4.933-12.565a28.08 28.08 0 001.043-6.112c.12-2.119.002-4.313-.433-6.422-.301-2.215-.897-4.38-1.925-6.416-2.53-5.01-7.53-8.43-12.14-11.385-2.821-1.808-5.778-3.26-8.907-4.138 4.64-.038 9.348.204 13.873 1.078 4.27.825 8.463 2.353 11.737 5.17zM59.947 65.683l-.082.052c-8.286 5.176-18.512 7.37-28.185 5.734a35.615 35.615 0 01-5.442-1.367c3.047.266 6.12.134 9.17-.004 3.693-.167 7.382-.436 11.044-.946 4.609-.644 9.19-1.716 13.495-3.47zm-2.626-7.33c-4.108 3.142-9.157 5.23-13.976 6.019a18.535 18.535 0 01-3.952.237c2.684-.166 5.392-.804 8.049-1.71 3.48-1.188 6.848-2.616 9.879-4.546zm-15.394-33.71c1.284.245 2.502.725 3.585 1.49a15.694 15.694 0 00-3.585-1.49zm6.29-21.833c5.16-.373 10.18.072 14.758 2.639 1.546.866 2.976 1.9 4.29 3.06-3.78-1.485-7.91-2.146-11.948-2.47-11.062-.886-23.103-.385-33.26 4.452.105-.059.207-.122.313-.18 7.887-4.381 16.855-6.85 25.846-7.501zM69.12 69.684c-9.298 6.31-20.293 10.127-31.518 10.936-5.833.42-11.98.243-17.403-2.17-4.486-1.997-8.317-5.281-11.235-9.196a34.296 34.296 0 01-2.692-4.233c.575.846 1.185 1.67 1.838 2.464 4.16 5.059 9.924 8.568 16.23 10.308 13.456 3.714 27.966-.536 39.683-7.376 5.24-3.06 10.091-6.895 13.79-11.725 4.107-5.36 6.109-11.588 7.346-18.124.086.601.156 1.208.196 1.825.749 11.546-7.162 21.136-16.235 27.291z" fill="#DEDEDE"/></svg>