<svg width="112" height="124" fill="none" xmlns="http://www.w3.org/2000/svg"><path d="M104.512 36.254c-1.501-1.95-3.389-3.56-5.514-4.796-1.849-1.075-4.337-2.361-6.532-1.79a29.418 29.418 0 00-4.653-9.48c-2.123-2.845-4.858-5.557-8.226-6.846-3.482-1.333-7.658-1.252-11.257-.443a.83.83 0 00-.368.184c-3.018-3.142-6.48-5.968-10.45-7.809-7.954-3.689-17.724-3.582-24.683 2.173-3.026 2.501-5.867 6.292-6.396 10.313a25.024 25.024 0 00-4.804 2.898C16.19 24.85 12.66 31.4 10.922 37.97a18.394 18.394 0 00-3.477 2.51C-.391 47.676.717 61.383 9.992 66.856c1.632.963 3.688 1.72 5.84 2.104 1.08 11.38 3.045 22.697 5.273 33.907.9 4.523 1.508 9.951 5.282 13.111 3.633 3.041 9.126 4.243 13.679 5.043 10.133 1.78 20.64.634 30.424-2.385 4.642-1.432 9.538-3.15 13.628-5.826 1.84-1.204 3.491-2.701 4.685-4.561 1.285-2.004 1.87-4.362 2.39-6.657a238.587 238.587 0 005.38-37.317 15.632 15.632 0 001.873-1.27c3.837-3.051 6.985-7.909 8.57-12.513 1.663-4.828.593-10.215-2.504-14.24zm-80.773 67.979c-2.588-11.654-4.663-23.399-6.898-35.12a15.65 15.65 0 003.85.012c.479 1.98 1.522 3.667 2.899 5.094-.249 2.634.266 5.437.512 8.053a962.415 962.415 0 011.468 17.57c.205 2.805.132 5.756.872 8.478.125.461.893.445.96-.044.385-2.789-.08-5.707-.288-8.505a634.207 634.207 0 00-1.535-17.567c-.224-2.227-.296-4.653-.807-6.885a20.07 20.07 0 003.16 2.147c.335.185.673.363 1.015.535.212 5.586.499 11.168.718 16.754.11 2.798.21 5.596.285 8.396.038 1.413.075 2.827.109 4.241.034 1.446-.2 3.134.422 4.468.232.498 1.063.753 1.331.112.54-1.291.324-2.687.284-4.064-.043-1.415-.09-2.83-.147-4.245a489.63 489.63 0 00-.425-8.694c-.322-5.48-.744-10.938-1.37-16.39 1.672.76 3.418 1.38 5.205 1.853-.088 6.588-.064 13.127.315 19.711.189 3.276.422 6.549.7 9.819.14 1.634.293 3.267.435 4.901.08.918.07 1.917.163 2.883a38.324 38.324 0 01-4.212-1.273c.05-.407-.037-.817-.107-1.227a20.54 20.54 0 01-.217-1.707c-.055-.646-.942-.575-.985.045-.048.712-.105 1.654.132 2.427a28.661 28.661 0 01-1.122-.489c-4.684-2.177-5.693-6.655-6.722-11.289zm65.929-9.083c-.73 3.725-1.149 8.146-3.175 11.509.169-.879.332-1.759.484-2.64.31-1.802 1.116-4.401.133-6.086-.329-.563-1.043-.177-1.087.349-.177 2.129-.808 4.327-1.218 6.43-.329 1.69-.693 3.373-1.082 5.05-1.204.969-2.56 1.778-3.982 2.484.885-3.656 1.19-7.558 1.721-11.234.302-2.09.663-4.149 1.206-6.19.498-1.88 1.098-3.88.786-5.837-.187-1.169-1.844-1.138-1.864.087-.035 2.138-.489 4.051-.987 6.118-.5 2.073-.77 4.184-1.048 6.296-.492 3.739-1.264 7.649-1.3 11.455-.695.306-1.397.594-2.099.866-.034-1.406-.184-2.866-.746-4.016-.267-.546-1.082-.29-1.21.215-.231.917-.111 1.903-.074 2.841.022.568.035 1.135.046 1.703l-1.147.416a77.469 77.469 0 01-6.123 1.927c.095-2.862-.205-5.771-.25-8.622-.055-3.571-.013-7.143.094-10.713.105-3.47.255-6.94.44-10.409.196-3.681.103-7.307.104-10.985 0-.36-.593-.423-.64-.057-.438 3.416-.996 6.759-1.192 10.206-.209 3.671-.39 7.345-.485 11.021a236.054 236.054 0 00-.048 10.71c.06 3.022-.014 6.216.537 9.223a71.053 71.053 0 01-4.7 1.006c-.155-2.817-.271-5.64-.418-8.456a221.648 221.648 0 01-.196-4.832c-.048-1.591.156-3.455-.464-4.947-.14-.337-.72-.496-.883-.074-.511 1.322-.346 2.792-.307 4.189.051 1.812.163 3.625.287 5.433.202 2.982.582 5.904 1.046 8.84a63.5 63.5 0 01-6.775.738c.072-1.116-.053-2.266-.087-3.364-.053-1.746-.092-3.492-.137-5.238-.043-1.643-.09-3.287-.123-4.93-.034-1.688.117-3.473-.237-5.129-.161-.754-1.353-.646-1.485.069-.29 1.568-.085 3.245-.046 4.833.043 1.746.088 3.492.153 5.237.06 1.643.143 3.284.227 4.926.06 1.184.025 2.458.22 3.661a55.893 55.893 0 01-6.404-.187 22.258 22.258 0 01-.14-4.132c.037-.603-.977-.693-1.065-.094a21.756 21.756 0 00-.24 4.088 56.618 56.618 0 01-5.019-.78c-.081-1.01-.316-2.031-.431-3.02-.191-1.63-.352-3.263-.5-4.898a362.26 362.26 0 01-.782-10.123c-.408-6.483-.802-13-.977-19.495a33.3 33.3 0 006.497.925c-.227 2.26-.106 4.563-.065 6.828.046 2.535.096 5.07.162 7.605l.198 7.603.096 3.65c.033 1.254-.132 2.666.347 3.836.29.706 1.192.629 1.43-.067.379-1.111.161-2.389.123-3.552l-.13-3.953-.25-7.6c-.154-4.697.044-9.665-.739-14.323 2.513.004 5.02-.342 7.407-1.07a264.348 264.348 0 00.24 11.436c.054 1.322-.079 2.776.488 3.996.16.347.598.33.725-.034.417-1.186.193-2.484.15-3.724-.05-1.504-.09-3.01-.12-4.515a413.952 413.952 0 01-.078-7.64 21.688 21.688 0 004.508-2.317c.36-.243.712-.501 1.06-.766-.01.03-.02.06-.022.095-.066 3.16-.26 6.31-.302 9.471l-.062 4.579c-.018 1.419-.303 3.06.185 4.406.194.537.865.434 1.038-.048.483-1.343.19-3.007.172-4.422l-.06-4.573c-.041-3.153-.233-6.294-.3-9.444-.004-.216-.168-.316-.333-.308a19.845 19.845 0 003.42-3.454c.95-1.24 2.12-2.82 2.493-4.454a15.19 15.19 0 001.24.565c-.067 1.028-.135 2.217.372 2.984a.375.375 0 00.64-.03c.368-.688.296-1.64.167-2.535 2.711.851 5.593.968 8.4.474-.58 1.076-.426 2.492-.436 3.684-.013 1.41.004 2.819.012 4.23.018 3.02.008 6.04-.066 9.059-.073 3.02-.2 6.038-.384 9.053-.172 2.828-.738 5.813-.2 8.611.116.603 1.145.69 1.362.114.974-2.572.87-5.504 1.002-8.224.151-3.113.236-6.23.266-9.348.03-3.017.013-6.036-.087-9.052a89.876 89.876 0 00-.242-4.52c-.1-1.211-.072-2.673-.801-3.69.369-.073.736-.153 1.101-.247 3.17-.813 6.289-2.386 8.788-4.577.1.062.2.122.301.178-1.064 2.604-1.508 5.47-1.923 8.234a95.214 95.214 0 00-.922 9.172c-.014.276.406.292.47.042 1.424-5.607 2.025-11.35 3.731-16.883.985.295 2.035.385 3.1.316-.729 3.496-1.16 7.036-1.684 10.57-.52 3.513-1.432 7.082-1.316 10.64.015.451.708.644.896.2 1.418-3.355 1.732-7.152 2.204-10.745.471-3.577.866-7.15.8-10.76a14.2 14.2 0 002.825-.726 288.463 288.463 0 01-4.205 29.607zm15.071-45.716c-1.237 4.07-3.926 8.266-7.002 11.19a17.165 17.165 0 01-2.214 1.791c-.527-.008-1.095.268-1.35.803-.617.318-1.26.591-1.936.796-1.978.6-3.802.49-5.739.235.253-.263.5-.53.735-.806 2.304-2.716 4.735-7.816 2.483-11.208-.2-.3-.586-.425-.932-.373.177-.282.32-.588.419-.913.745-2.465-1.438-5.12-4.018-4.046-1.202.5-2.165 1.684-2.156 3.025.002.327.075.65.203.95.064.57.248 1.101.557 1.47.725.87 1.937 1.192 3.026.953.481-.106.905-.33 1.265-.63-.136 1.154-.082 2.3-.191 3.442-.024-.126-.224-.16-.243-.014-.184 1.419-.657 2.695-1.237 3.995-.032.071.033.124.09.109-.41.693-.89 1.348-1.427 1.954-2.387 2.693-5.728 4.6-9.178 5.551-6.409 1.765-14.077-.459-17.494-6.481-.233-.41-.95-.082-.757.361 1.087 2.497 2.636 4.515 4.737 6.026-.857 1.275-1.379 2.809-2.311 4.048a18.264 18.264 0 01-4.34 4.1c-3.621 2.46-7.896 3.604-12.253 3.638-4.71.037-9.606-1.135-13.87-3.127-3.307-1.545-6.607-3.881-8.152-7.27 1.683-.32 3.242-.98 4.499-2.077.408-.357.309-.828.006-1.14.93-.07 1.859-.219 2.78-.457.109-.028.053-.19-.054-.165-1.001.222-2.005.36-3.005.412a.927.927 0 00-.664-.1c-.15.038-.298.08-.446.12a16.603 16.603 0 01-7.715-1.976c-.08-.043-.143.08-.065.123a16.656 16.656 0 007.05 2.06c-1.59.468-3.12.992-4.833 1.067a14.45 14.45 0 01-6.43-1.193C8.494 63.874 5.67 60.25 4.71 55.91c-2.022-9.144 5.055-17.66 14.263-18.142 2.972-.156 5.881.648 8.651 1.65 2.349.849 5.826 1.715 6.673 4.381.247.778 1.337.38 1.18-.384-.488-2.36-2.57-3.803-4.641-4.746-2.85-1.298-5.908-2.44-9.029-2.839a17.59 17.59 0 00-8.49 1.02c.09-.29.187-.58.285-.868 2.83-.738 5.622-.762 8.586-.545.15.011.162-.224.023-.257-2.77-.656-5.724-.382-8.468.386a34.436 34.436 0 012.707-5.874c1.59-.605 3.489-.105 5.123.111 1.423.189 2.845.4 4.279.494.201.014.225-.314.03-.352-2.034-.396-4.117-.612-6.175-.85-1.033-.12-2.015-.185-2.954.096 1.6-2.624 3.58-4.995 5.957-6.863.301-.236.612-.46.925-.681 2.941-.325 5.771.271 8.5 1.514.107.049.186-.102.084-.162-2.449-1.446-5.246-1.962-8.03-1.725 4.771-3.152 10.784-4.549 16.517-4.48 1.877 1.112 3.757 2.23 5.675 3.262.491.357.983.714 1.407 1.132.878.866 1.447 2.137 2.465 2.829.22.15.513-.082.5-.32-.073-1.337-1.405-2.596-2.327-3.459-.958-.897-2.206-1.936-3.569-2.035-.242-.018-.278.292-.156.433.057.065.12.126.18.188-1.202-.686-2.42-1.35-3.635-2.013.697.019 1.39.053 2.075.116.526.048.733-.69.187-.826a25.264 25.264 0 00-4.839-.707l-.088-.049c-.05-.028-.096-.001-.114.039a26.3 26.3 0 00-9.544 1.383c.61-1.719 1.305-3.33 2.487-4.851a18.35 18.35 0 015.113-4.5C41.071 4.704 46.6 4.256 51.698 5.41c5.264 1.19 9.874 4.092 13.788 7.739.23.214.452.438.678.658-1.836-.892-3.685-1.762-5.523-2.647-.03-.015-.054.031-.024.046 1.925.936 3.843 1.892 5.774 2.82a69.167 69.167 0 014.479 4.867c1.665 1.977 3.46 3.833 5.142 5.79.196.229.552-.091.395-.334-1.285-1.988-2.418-4.053-3.88-5.928a93.482 93.482 0 00-.998-1.26c2.639 1.019 5.052 2.43 7.347 4.079.106.076.245-.066.14-.154-2.227-1.876-4.782-3.201-7.528-4.146-.045-.016-.082.01-.102.048a69.075 69.075 0 00-1.91-2.262c3.38-.368 6.73-.901 9.987.528 3.051 1.34 5.552 3.988 7.435 6.679a26.621 26.621 0 013.93 8.54c.855 3.275.848 6.486.878 9.837.006.664.973.713 1.133.1.745-2.859.682-5.948.057-8.973 1.358.885 3.08 1.314 4.481 2.085 1.71.942 3.282 2.157 4.56 3.639 2.879 3.34 4.096 8.016 2.802 12.273zm-17.09 8.064c.017-.071.035-.142.05-.213-.012.052-.02.103-.033.154l-.017.059zm.081-.357zm-2.06-7.31l.001-.003c-.008.06-.188.178-.001.003z" fill="#000"/><path d="M38.502 45.365c-.206-.174-.469.117-.28.308.67.684 1.334 1.375 1.844 2.192.542.87.579 1.722.909 2.647.069.194.39.26.479.04.821-2.017-1.629-4.071-2.952-5.187zm24.126-9.862c1-.188 2.162-.159 3.092-.577.23-.104.218-.398-.022-.48-1.747-.597-4.317.282-6 .846a24.257 24.257 0 00-5.988 2.99c-3.692 2.533-6.417 6.002-8 10.172-.05.13.133.234.195.103 1.805-3.85 4.743-7.204 8.253-9.584a22.038 22.038 0 015.605-2.75 23.312 23.312 0 012.865-.72zm14.329 4.053c.133.02.297-.075.276-.23-.203-1.517-2.042-2.262-3.315-2.734-1.747-.647-3.419-.628-5.243-.777-.259-.022-.298.42-.04.457 1.585.23 3.242.78 4.718 1.398 1.224.512 2.297 1.69 3.604 1.886zm22.235-2.441c-.912-.93-1.87-1.815-3.051-2.388-.248-.12-.597.183-.393.431.783.952 1.711 1.756 2.56 2.646.823.866 1.499 2.023 2.544 2.635.276.161.551-.138.484-.41-.287-1.156-1.334-2.09-2.144-2.914zm1.149 10.585c.079 2.74-.856 5.692-2.548 7.867-.18.23.081.602.35.412 1.383-.98 2.306-1.896 2.898-3.532.599-1.653.665-3.225.261-4.923-.132-.553-.976-.364-.961.176zM76.839 24.97c-.96.543-1.687 1.864-1.879 3.183-.441 1.155-.195 2.574.902 3.598 2.243 2.092 5.708.38 6.24-2.416a4.087 4.087 0 00-.288-2.387c2.109 2.222 3.712 4.667 5.4 7.24.052.08.198.018.155-.074-1.353-2.938-3.61-5.574-5.912-7.827-.973-1.49-2.805-2.341-4.618-1.316zm-22.202-9.475c-1.187 1.19-1.043 2.615-.248 3.649.39.89 1.24 1.652 2.232 1.87 2.532.556 5.949-1.432 5.202-4.362-.352-1.383-1.533-2.032-2.876-2.16-1.503-.14-3.167-.142-4.31 1.003zm2.29 2.197a1.252 1.252 0 00-.432.138c-.122-.13-.166-.244-.154-.344.158.11.356.18.585.206zm2.298 26.592c-.91 1.093-1.199 3.181-.652 4.498.232.558.638.944 1.125 1.172.179.255.378.458.592.588 1.256.762 2.966.07 3.987-.79 1.1-.925 1.799-2.331 1.717-3.788-.19-3.389-4.829-4.01-6.769-1.68zm1.91 2.986c0-.067-.002-.133 0-.2.006-.174.02-.34.049-.496.012.059.02.117.024.178.011.162-.007.327-.036.49l-.036.028zM40.866 60.458a3.348 3.348 0 002.248 3.157 3.02 3.02 0 001.401.117c.249-.016.49-.052.71-.103 1.33-.307 2.636-1.232 3.115-2.546.513-1.409-.018-3.014-1.374-3.718-2.485-1.288-6.086.003-6.1 3.093zm-2.973-31.542c-.96 1.075-.755 3.042.099 4.409a3.37 3.37 0 001.354 1.354 3.004 3.004 0 003.373-.375c1.004-.874 1.224-2.35.94-3.598-.582-2.567-3.862-3.92-5.766-1.79zm-10.92 14.599c-1.449-.707-3.907-.42-5.173.547-.922.705-1.299 1.85-1.24 3.005-.44 1.34.586 2.892 1.46 3.83 2.696 2.892 6.305-.544 6.729-3.492.218-1.516-.321-3.181-1.776-3.89zM25.97 26.094l1.55.833c.005.003.008-.005.003-.008l-1.545-.84c-.01-.006-.018.01-.008.015zm17.106-2.635c-2.874-1.983-6.003-3.502-9.3-4.64-.064-.022-.087.08-.024.101 3.291 1.152 6.362 2.718 9.288 4.608.043.028.077-.041.036-.07zM53.6 24.588c2.045 2.209 3.497 4.777 4.672 7.535.05.117.226.064.19-.062-.834-2.964-2.515-5.506-4.656-7.698-.138-.141-.337.083-.205.225zm-.024 8.777c.075.116.282.028.225-.107-1.194-2.833-3.197-5.29-5.337-7.468-.17-.173-.416.103-.251.276 2.113 2.233 3.697 4.737 5.363 7.3zm-2.852 5.777c.06.1.228.022.187-.09-.871-2.365-2.425-4.506-4.001-6.451-.1-.124-.313.008-.212.137 1.569 2.02 2.718 4.22 4.026 6.404zm-4.377 5.954c.06.15.297.12.288-.052-.063-1.39-.726-2.752-1.426-3.927-.122-.206-.41-.007-.306.198.624 1.225.944 2.513 1.444 3.781zm-2.304 5.2c-.012-1.105-.088-2.211-.136-3.315-.003-.056-.09-.052-.087.004.054 1.103.081 2.212.17 3.314.004.033.053.031.053-.003z" fill="#000"/><path d="M49.17 45.18c-1.335 1.38-2.557 2.87-3.81 4.322-.125.144.093.344.218.2 1.254-1.454 2.55-2.882 3.72-4.405.068-.087-.05-.198-.128-.117zm30.23.184c.016.016.04-.01.024-.025l-2.66-2.725c2.03 1.474 3.599 3.377 4.999 5.614.088.142.343.031.272-.13-1.45-3.288-4.449-5.834-7.665-7.306-.208-.095-.374.219-.165.316.851.396 1.63.849 2.353 1.355l2.842 2.901zm3.467 10.092c.22 3.811-1.552 7.036-4.437 9.414-.177.146-.008.43.199.307 3.324-1.974 4.968-5.978 4.63-9.739-.023-.25-.406-.235-.392.018zm7.097-10.695c2.665 3.262 4.135 6.984 5.086 11.048.033.14.257.096.246-.044-.326-4.19-2.338-8.093-5.075-11.22-.126-.144-.379.067-.257.216zm2.078-1.965c2.421 3.484 3.379 7.276 3.715 11.455.013.16.233.142.243-.01.283-4.143-1.284-8.299-3.652-11.644-.135-.19-.44.005-.306.199zm6.738 6.478c-.127-3.014-1.423-5.936-3.164-8.357-.09-.127-.296.004-.204.132 1.814 2.534 2.663 5.224 3.215 8.252.016.09.156.058.152-.027zM83.86 20.846c-2.426-2.691-5.692-4.744-8.905-6.36-.125-.063-.224.127-.1.192 3.289 1.719 6.033 3.963 8.865 6.323.105.087.23-.056.14-.155zM90.5 33.92c-.548-2.84-1.94-5.434-3.677-7.722-.114-.15-.36.005-.249.16 1.695 2.359 2.752 4.91 3.652 7.65.06.181.308.088.273-.088zM38.782 8.813c-2.528.816-4.921 3.247-5.941 5.667-.062.147.138.324.247.173.768-1.059 1.51-2.115 2.46-3.023 1.035-.99 2.221-1.69 3.382-2.506.158-.112.044-.374-.148-.311zM50.508 7.77c.056.001.05-.082-.005-.086-1.777-.118-3.45.172-5.107.82-.104.04-.051.206.054.165 1.622-.634 3.318-.914 5.057-.898zm9.552 3.05c-3.064-1.53-6.714-1.933-10.096-1.754-.201.011-.188.323.014.313 3.535-.17 6.673.591 10.004 1.652.123.04.19-.154.078-.21zm12.238 13.132c.05.116.23.063.19-.062-.957-3.013-2.844-5.587-5.212-7.653-.118-.103-.28.075-.164.18 2.339 2.107 3.959 4.656 5.186 7.535zm-1.902 3.395c-.734-2.303-1.505-4.594-2.268-6.888-.026-.08-.15-.039-.124.04.763 2.295 1.518 4.59 2.309 6.875.019.053.1.027.083-.027zm-50.18 36.261c-6.292-1.622-11.288-6.928-12.03-13.456-.013-.122-.201-.115-.19.008.549 6.611 5.552 12.53 12.166 13.685.154.027.207-.198.054-.237zm12.207-3.062c2.407-.852 4.666-2.131 6.459-3.967.072-.074-.042-.169-.116-.105-1.95 1.663-3.982 3.005-6.402 3.89-.115.042-.058.224.059.182zm7.852 12.687c.12-.038.059-.208-.06-.182-4.774 1.043-9.922-.817-12.695-4.889-.11-.161-.36 0-.256.166 2.727 4.317 8.104 6.474 13.011 4.904zm14.058-10.971c.14-.17-.092-.377-.25-.228-3.716 3.497-8.43 8.387-13.984 5.372-.099-.053-.178.1-.08.154 5.314 3.002 11.002-1.286 14.314-5.298zm1.617 7.287c-2.44 2.281-5.382 3.822-8.742 4.077-.178.014-.166.284.013.278 3.461-.103 6.73-1.45 8.942-4.162.117-.144-.078-.319-.212-.193zm-8.899 7.306c-4.058.491-7.91 1.063-12.017.675-.2-.019-.28.285-.071.314 3.958.548 8.324.648 12.144-.684.16-.056.126-.327-.056-.305zm-14.174-8.713c-.169-.102-.304.166-.14.27 3.493 2.222 7.923 3.186 11.95 1.961.142-.043.105-.286-.048-.262-4.136.644-8.121.223-11.762-1.969zm36.227-4.89c-4.736-.75-8.976-3.463-11.4-7.632-.085-.146-.3-.004-.22.142 2.375 4.333 6.65 7.292 11.6 7.722.13.01.15-.212.02-.232zm6.106-5.239c-2.878.652-5.917-.324-7.524-2.877-.11-.175-.376-.002-.27.175 1.587 2.669 4.9 4.09 7.856 2.892.12-.05.063-.219-.063-.19zm-2.68-17.451c.068.068.194-.034.131-.112-1.898-2.39-4.803-3.57-7.822-3.548-.118.001-.108.18.009.183 3.009.051 5.587 1.361 7.682 3.477zm-19.09.658c-2.891 2.175-4.988 5.501-6.372 8.796-.088.21.219.376.315.166 1.546-3.379 3.764-6.027 6.242-8.745.107-.117-.05-.317-.184-.217z" fill="#000"/></svg>