<svg width="96" height="82" fill="none" xmlns="http://www.w3.org/2000/svg"><path d="M93.515 30.992c-1.072-2.018-2.162-4.028-3.362-5.973-2.35-3.813-5.082-7.352-8.415-10.358-3.319-2.993-7.026-5.515-10.709-8.03L64.69 2.3C62.97 1.126 61.28-.055 59.105 0c-2.262.06-4.44 1.144-6.496 1.98a336.898 336.898 0 00-6.41 2.694c-4.412 1.898-8.8 3.852-13.253 5.65-4.448 1.794-8.961 3.337-13.546 4.74-3.655 1.118-7.075 2.56-10.58 4.053-2.422 1.031-5.085 2.397-6.415 4.434C-.48 26.036-.168 30.378.314 33.862c.833 6.03 2.516 11.87 4.345 17.663.816 2.584 1.394 5.71 2.851 8.021 1.316 2.087 3.73 3.508 5.707 4.893 4.889 3.42 10.143 6.056 15.35 8.93 2.604 1.437 4.92 3.13 7.27 4.94 1.82 1.401 3.816 2.631 6.174 2.736 2.726.122 5.569-1.004 8.145-1.76 2.82-.83 5.626-1.714 8.405-2.673a201.621 201.621 0 0016.39-6.49c4.793-2.138 9.984-4.247 13.916-7.823 3.497-3.181 4.92-7.566 5.731-12.105.752-4.204 1.12-8.465.902-12.72a4.15 4.15 0 00.135-.677c.234-2.061-1.198-4.068-2.12-5.805zm-89.18-6.476c1.069-1.533 3.06-2.347 4.714-3.063 2.764-1.197 5.474-2.452 8.344-3.39 4.014-1.311 8.066-2.464 12.026-3.942 7.97-2.977 15.664-6.628 23.54-9.834 1.847-.752 3.865-1.821 5.884-1.959 2.325-.159 4.332 1.753 6.133 2.982.674.46 1.35.918 2.028 1.376-1.432.22-2.906 1.028-4.15 2.046a1.34 1.34 0 00-.488-.323c.459-.927.94-1.834.976-2.894.008-.228-.273-.398-.468-.269-1.08.721-1.57 1.902-2.083 3.056-.14.317-.286.639-.426.965-.607-1.292-1.635-2.41-2.836-2.748-.453-.127-.734.355-.563.733.422.937 1.14 1.655 1.676 2.525.311.508.553 1.054.81 1.59-1.77 2.138-4.759 3.119-7.44 3.709-3.708.815-7.371 1.517-10.958 2.807a57.02 57.02 0 00-9.968 4.705c-2.606 1.558-5.175 3.709-8.16 4.508-.049-.282-.358-.49-.662-.322-.076.041-.147.094-.22.142-.64-.553-1.225-1.135-1.656-1.937-.726-1.349-1.049-2.86-1.757-4.223-.198-.38-.729-.17-.755.205-.125 1.825.6 4.774 2.192 6.32-1.102.25-2.176.763-3 1.314-1.42.948-3.69 3.002-3.193 4.92.079.3.485.5.758.307.574-.405.813-.925 1.19-1.513a8.055 8.055 0 012.032-2.175c.697-.513 1.46-.883 2.273-1.165.013.087.034.171.063.252-.742 1.634-.9 3.629-.114 4.985.298.515.993.243 1.044-.283.112-1.167-.079-2.278.241-3.435.058-.209.13-.408.208-.603.819-.089 1.6-.26 2.353-.496 3.113 1.603 5.733 4.748 7.841 7.17 2.984 3.43 5.597 7.124 7.94 11.01-.766.483-1.506 1.022-2.349 1.384-1.434.617-2.938.709-4.435 1.079-.574.141-.545.976 0 1.133 2.048.59 5.177-.2 7.11-1.798-.031.54-.008 1.086.002 1.58.027 1.337.161 2.49.71 3.712.177.394.7.144.734-.2.13-1.368-.056-2.687-.097-4.056-.011-.386.003-.778.002-1.167.288.66.776 1.267 1.258 1.692 1.268 1.12 3.14 1.746 4.82 1.718.372-.006.588-.58.203-.754-1.165-.526-2.475-.67-3.593-1.313-1.042-.6-1.453-1.354-1.772-2.275.713-1.503 2.826-2.082 4.266-2.566 1.508-.506 3.054-.895 4.609-1.233 3.353-.73 6.76-1.21 10.088-2.056 3.107-.79 6.169-1.932 8.807-3.785 2.265-1.592 4.543-4.043 7.395-4.385.303.011.611.004.924-.025.279.728.553 1.457.747 2.217.318 1.247.429 2.504.857 3.721.114.326.519.303.641 0 .634-1.568.391-3.52-.34-5.206.219.05.439.095.66.135 1.727.312 3.173.758 4.822 1.319.31.105.6-.223.519-.519-.407-1.483-2.112-1.93-3.448-2.15-.718-.117-1.438-.19-2.141-.308 1.984-.537 3.798-1.574 4.852-3.22.222-.347-.153-.892-.564-.734-1.63.627-3.034 1.672-4.678 2.284-.37.137-.75.263-1.131.38a1.06 1.06 0 00-.695-.265 7.908 7.908 0 00-.832.04c-4.844-.12-6.16-7.06-8.245-10.377-1.28-2.035-3.136-3.484-4.77-5.209-1.296-1.366-2.546-3.33-2.08-5.214.132-.26.249-.53.357-.808a26.739 26.739 0 011.757-1.106c1.139-.646 2.443-1.01 3.526-1.74 2.516 1.702 5.029 3.411 7.468 5.217 3.282 2.431 6.358 5.133 8.917 8.33 2.566 3.208 4.632 6.803 6.606 10.394.767 1.397 2.801 4 2.187 5.643-.542 1.452-2.583 2.187-3.838 2.85-3.207 1.697-5.851 4.186-8.613 6.498-3.056 2.557-6.306 4.395-10.09 5.66-3.673 1.227-7.474 2.038-11.111 3.375-3.672 1.35-6.722 3.526-10.075 5.472-3.441 1.998-8.116 3.565-11.528.627-1.548-1.333-2.636-3.14-3.905-4.72a60.442 60.442 0 00-4.26-4.742c-3.007-3.03-6.276-5.789-9.6-8.463-3.349-2.694-6.784-5.277-10.114-7.997-1.036-.846-2.382-1.852-3.64-2.995.076-.3.033-.638-.202-.939-1.436-1.83-3.714-4.825-2.067-7.188zm60.033 7.87c.033.116.075.23.132.338.13.251.443.446.632.679-.237.214-.49.42-.738.63a1.113 1.113 0 00-.651.033 2.177 2.177 0 01-.012-.441c.035-.436.171-.834.382-1.184a8.13 8.13 0 01.255-.054zm7.218-1.347c.029.036.055.073.085.11a9.4 9.4 0 002.276 2.03c-.764.429-1.495.933-2.213 1.468.283-1.187.282-2.524-.148-3.608zm-6.423-2.42a5.781 5.781 0 00-1.988.994c-.37.201-.723.429-1.045.677a1.502 1.502 0 00-.521.709c-1.669 1.793-2.372 4.365-.506 6.358.907.97 2.17 1.535 3.51 1.72-1.705.69-3.488 1.2-5.312 1.619-2.629.601-5.295 1.032-7.935 1.587.194-.284.37-.59.525-.915 1.643-3.426.576-8.446-3.702-9.166-4.101-.691-7.7 3.323-7.315 7.257.196 2.014 1.424 4.11 3.406 4.815-1.14.483-2.197 1.11-2.992 1.977a77.482 77.482 0 00-9.012-11.7c-2.018-2.16-4.2-4.438-6.798-5.75 2.09-.92 4.001-2.256 5.985-3.499a53.87 53.87 0 0111.738-5.526c2.982-.983 6.096-1.454 9.136-2.182-1.175 1.38-1.846 3.21-1.67 5.024.202 2.063 1.484 4.216 3.552 4.868.642.202 1.538.218 2.41.043.213.02.426.032.637.034 2.087.02 3.548-1.22 4.42-3.036 1.597-3.332.632-8.168-3.355-9.096a12.23 12.23 0 001.923-1.363c.221.719.543 1.415.943 2.058 1.657 2.655 4.517 4.268 6.148 6.94 1.287 2.109 2.028 4.502 3.296 6.607-1.409-1.28-3.712-1.545-5.478-1.055zm-19.09 8.133c-.224.837-.542 1.81-1.254 2.15a3.372 3.372 0 01-.274-.801c-.145-.774-.006-1.415.769-1.801.055-.018.113-.028.169-.044.225.117.423.287.59.495zm9.793-16.841c-.224.837-.541 1.81-1.253 2.15a3.366 3.366 0 01-.274-.801c-.146-.774-.007-1.415.768-1.801.056-.018.113-.028.17-.044.224.118.422.287.589.496zm33.753 38.245c-2.452 3.88-6.976 6.04-10.966 7.966a197.747 197.747 0 01-15.19 6.56 211.838 211.838 0 01-15.398 5.24c-2.574.765-5.373 1.889-8.02.855-2.198-.858-3.93-2.606-5.808-3.978-4.292-3.133-9.285-5.163-13.862-7.828a102.2 102.2 0 01-6.762-4.301c-1.09-.754-2.208-1.503-3.22-2.36-1.243-1.056-1.906-2.288-2.44-3.816-2.03-5.794-4.02-11.626-5.503-17.588-.967-3.885-2.671-9.155-.87-13.061-.089.867.039 1.825.452 2.89.652 1.678 1.739 3.08 2.934 4.404.302.335.651.39.954.284l.134.131c3.088 2.97 6.412 5.681 9.723 8.396 6.675 5.474 13.38 10.86 18.578 17.827 2.382 3.192 5.099 5.422 9.301 5.063 4.153-.355 7.522-2.806 10.975-4.897 7.393-4.476 16.533-4.603 23.81-9.277 3.51-2.255 6.399-5.326 9.87-7.63 1.448-.961 3.566-1.732 5.158-2.905-.163 2.39-.335 4.782-.65 7.152-.484 3.664-1.194 7.698-3.2 10.873z" fill="#DEDEDE"/><path d="M40.35 65.208c.074-.368-.466-.525-.566-.156-.529 1.945-.126 3.857.204 5.803.399 2.353.613 4.984 1.471 7.216.13.34.664.316.665-.09.004-1.978-.576-3.995-.943-5.93-.413-2.185-1.275-4.622-.83-6.843zm41.095-7.688c-2.389.497-4.74 1.706-7.006 2.598-2.235.88-4.472 1.755-6.717 2.609-2.246.854-4.491 1.711-6.737 2.566-2.42.922-4.801 2.127-7.425 2.287-.092.006-.093.141 0 .145 2.453.09 4.802-.661 7.113-1.401a215.14 215.14 0 007.078-2.413 427.57 427.57 0 007.022-2.58c2.32-.878 4.929-1.624 7.035-2.948.461-.29.158-.97-.363-.862zM54.35 63.827c8.119-2.539 16.66-4.708 24.178-8.795.213-.116.069-.472-.166-.395-8.141 2.646-15.861 6.502-24.047 9.061-.082.026-.047.154.035.129zm2.126 6.858c-3.164.933-6.267 2.124-9.434 3.078-.165.05-.144.339.043.316 3.228-.381 6.755-1.299 9.566-2.978.218-.13.077-.49-.175-.416zm24.066-9.692c-3.276 1.21-6.378 2.835-9.687 3.987-.153.053-.092.29.068.246 3.302-.94 6.856-2.003 9.777-3.858.186-.119.07-.46-.158-.375zm-59.263-6.859c.143.104.315-.125.188-.244-5.278-4.95-10.407-9.875-14.693-15.745-.054-.074-.177-.005-.124.072 4.036 5.917 8.808 11.67 14.629 15.917zm-.497 4.756c-3.183-2.503-6.214-5.221-8.947-8.21-.15-.165-.388.077-.244.242 2.839 3.247 5.867 6.292 9.25 8.974 3.093 2.45 6.45 5.02 10.148 6.468.264.103.377-.283.18-.426-3.398-2.457-7.077-4.446-10.387-7.049zm7.154 8.664c-2.275-1.591-4.836-2.81-7.164-4.337-.06-.04-.113.054-.056.095 2.216 1.598 4.557 3.405 7.085 4.472.156.066.278-.13.135-.23zm1.428-7.737c.189.162.518-.047.366-.283-1.113-1.71-2.506-3.203-3.847-4.734-.386-.441-1.027.204-.643.643 1.322 1.51 2.598 3.064 4.124 4.374zM41.307 21.73c-4.1-.691-7.699 3.323-7.315 7.257.201 2.063 1.483 4.216 3.552 4.868.642.202 1.538.219 2.41.043.213.02.425.032.636.034 2.088.02 3.548-1.22 4.42-3.036 1.642-3.426.576-8.446-3.703-9.167zm-2.117 4.55c-.223.838-.54 1.81-1.252 2.15a3.361 3.361 0 01-.275-.801c-.145-.774-.006-1.415.769-1.8.056-.019.113-.03.17-.045.224.118.422.287.588.496z" fill="#DEDEDE"/></svg>