<svg width="97" height="98" fill="none" xmlns="http://www.w3.org/2000/svg"><path d="M91.754 36.546a1.48 1.48 0 00-.34-.313 22.773 22.773 0 00-2.747-13.701c-2.569-4.589-6.488-8.297-10.765-11.4-.678-.762-1.493-1.362-2.446-1.688a80.63 80.63 0 00-2.028-1.293 1.547 1.547 0 00-.17-.09c-.524-.657-1.19-1.192-2.103-1.734-4.274-2.534-9.348-3.994-14.172-5.018-6.2-1.315-12.75-1.864-19.002-.578-3.258.67-6.442 1.926-9.108 3.941-2.716 2.053-5.481 5.185-5.939 8.656a.944.944 0 00.04.44c-4.052.084-8.013 1.591-11.325 4.167-5.528 4.299-8.67 10.707-10.136 17.442C.623 39.464.27 43.654.074 47.826c-.157 3.332-.341 7.323 2.622 9.527.036.026.07.043.105.064-.147.969-.228 1.95-.231 2.937-.012 4.111 1.454 7.958 3.151 11.64 1.636 3.549 3.307 7.188 5.618 10.358 2.49 3.414 5.749 6.096 9.91 7.157 2.132.544 4.371.688 6.562.57 2.206-.118 4.89-.196 6.713-1.525a.744.744 0 00.072-.06l.018.013c.272.19.649-.188.46-.46l-.163-.239a.935.935 0 00-.002-.136 15.519 15.519 0 002.827 3.585c2.424 2.283 5.393 3.944 8.558 4.952 6.47 2.06 13.676 1.392 19.993-.89 5.931-2.143 13.93-6.686 13.595-13.833.43-.06.855-.14 1.272-.243 3.27-.805 5.224-3.717 7.124-6.269 3.98-5.345 7.29-11.494 8.346-18.144 1.138-7.155-.258-14.58-4.87-20.284zm-.022 5.125c-.173 1.103-.34 2.208-.495 3.318-.155 1.108-.302 2.263-.902 3.234-.559.905-1.428 1.592-2.231 2.267-3.025 2.54-6.109 5.095-9.655 6.882-3.773 1.902-7.91 2.41-12.025 1.401-.276-.068-.55-.14-.823-.218 4.855-.367 9.612-2.193 13.796-4.624 5.447-3.164 9.545-7.866 11.287-13.982.384.564.734 1.138 1.048 1.722zm-3.27-12.357c-.55 4.418-2.907 7.735-6.182 10.634-.192.17.058.49.274.355 3.482-2.174 5.539-6.29 6.062-10.298.383 1.944.469 4.008.184 6.205-.004.028-.01.055-.013.083-1.513 2.668-3.703 4.917-6.296 6.59-.197.127-.024.425.185.315a15.693 15.693 0 005.822-5.274 20.369 20.369 0 01-7.6 11.942c-4.908 3.721-11.3 6.423-17.518 6.422-1.55 0-3.074-.195-4.538-.57-1.365-.721-2.704-1.491-4.031-2.255-.433-.25-.853-.214-1.186-.025a16.907 16.907 0 01-3.827-3.4l.008-.066c3.065-2.25 6.051-4.627 8.99-7.053 1.55-.402 3.084-1.219 4.505-1.836 1.99-.863 3.947-1.812 5.798-2.944 3.646-2.23 6.8-5.195 8.818-8.998 1.98-3.733 2.954-8.115 2.413-12.33-.006-.05-.014-.099-.021-.148 3.86 3.537 6.978 7.693 8.152 12.65zm-13.21 52.143c-3.445 1.044-6.96 1.467-10.588.56-4.129-1.034-7.694-3.62-10.239-7-3.797-5.045-5.062-10.904-5.132-16.904 1.644 3.958 3.934 7.7 6.473 11.026 3.966 5.197 9.232 9.544 15.563 11.462a24.76 24.76 0 003.923.856zm-32.437-53.67c-2.773-5.77-7.549-10.755-13.633-12.984a16.964 16.964 0 00-4.244-.96c.662-.928 1.157-1.948 1.74-2.923 6.164.644 12.354 3.546 15.584 9.076 1.936 3.314 1.992 7.011 1.817 10.748-.382-1.002-.8-1.99-1.264-2.958zm4.55 20.725c.068-.013.136-.023.203-.035l.058.173-.033.181-.088.013c-.048-.064-.099-.125-.147-.189l.008-.143zm27.645-36.09a62.418 62.418 0 013.129 2.374c1.642 4.79-.471 11.444-3.156 15.263-2.053 2.92-4.95 5.129-8.041 6.854-.846.473-1.712.91-2.588 1.326 3.76-3.325 7.016-7.03 8.967-11.75 1.784-4.315 2.662-9.413 1.69-14.067zM30.03 7.087c1.736-1.42 3.774-2.423 5.901-3.118C38 5.503 40.056 7.068 42.28 8.375c.132.078.292-.114.168-.218-1.897-1.593-3.965-2.963-6.02-4.344.229-.07.456-.139.685-.2 2.168-.588 4.404-.899 6.658-1.005 1.904 1.469 3.43 3.19 4.922 5.069.052.066.16-.02.116-.09-1.234-1.93-2.94-3.586-4.745-4.991a40.959 40.959 0 013.61.02c2.89 1.712 4.971 4.6 6.153 7.759.838 2.237 1.244 4.629 1.46 6.999.19 2.093.068 4.236.391 6.31.038.241.371.152.393-.052.264-2.42-.03-5.056-.343-7.463-.313-2.415-.858-4.812-1.876-7.034-1.21-2.645-3.053-4.971-5.479-6.478a54.4 54.4 0 015.741.69c.19.032.38.067.569.101a20.813 20.813 0 015.037 7.665c1.255 3.372 1.238 6.574 1.279 10.102.003.261.377.312.452.061.999-3.346.149-7.458-1.15-10.609a20.046 20.046 0 00-4.893-7.085c4.108.78 8.24 1.925 12.05 3.646 1.984 2.633 2.865 5.848 2.725 9.195-.005.126.176.118.191 0 .423-3.211-.493-6.363-2.349-8.932.062.03.125.057.187.087 1.16.554 2.54 1.214 3.246 2.018l.025.028.059.103c.038.122.096.24.176.351.074.17.14.344.207.511.548 1.373.865 2.84.985 4.313.211 2.617-.083 5.266-.755 7.8-1.547 5.84-5.158 10.342-9.616 14.277a308.426 308.426 0 01-4.505 3.88 6.94 6.94 0 00-.882.539 1.016 1.016 0 00-.352.51c-2.268 1.925-4.53 3.858-6.723 5.868-.053-.942-1.156-1.447-1.797-1.014a.95.95 0 00-.686-.152c-.074.01-.146.026-.22.038-.1-2.815-.658-5.702-1.176-8.392-.07-.363-.147-.725-.225-1.088-.011-3.089.142-6.174.038-9.264-.121-3.62-.903-7.11-3.162-10.02-3.374-4.346-9.65-8.018-15.47-8.013a15.348 15.348 0 012.651-2.784zM12.042 20.93c4.256-3.862 10.006-5.7 15.61-3.98 5.504 1.688 9.921 6.113 12.589 11.101 1.727 3.231 2.808 6.73 3.65 10.282.016.065.03.13.044.194.036.42.083.838.146 1.252.027.18.1.32.2.429l.061.33a13.611 13.611 0 00-1.915-1.967c-3.053-2.556-6.945-3.544-10.846-3.815-4.447-.31-9.264.068-13.45 1.674-3.861 1.481-7.54 4.019-10.638 6.74-2.462 2.164-4.35 4.772-4.89 7.812-.065-1.229.027-2.49.088-3.71.034-.684.074-1.368.119-2.053 2.728-4.507 7.36-7.202 11.663-10.316.219-.158.031-.5-.215-.368-4.235 2.26-8.78 5.49-11.38 9.736.16-2.138.396-4.27.768-6.382 2.388-2.008 4.93-3.762 7.462-5.617.2-.147.03-.459-.197-.338-2.577 1.362-4.952 3.243-7.138 5.242l.006-.033a38.59 38.59 0 011.703-6.164c3.04-1.774 6.185-3.317 9.325-4.928.112-.058.034-.252-.087-.207-3.167 1.17-6.17 2.81-9.043 4.609 1.405-3.583 3.444-6.873 6.365-9.523zM3.065 53.58c.007-4.816 3.742-8.638 7.416-11.275 4.13-2.966 8.414-5.284 13.53-5.909 4.701-.574 9.864-.536 14.241 1.476 3.346 1.538 5.96 4.382 6.64 7.927-3.704-3.752-8.361-6.381-13.695-7.48-6.905-1.421-14.069.038-19.631 4.425-3.775 2.978-6.709 7.142-8.104 11.76a6.759 6.759 0 01-.397-.923zm20.377 33.801c-3.602-.529-6.635-2.327-9.009-5.053-.26-.3-.51-.606-.752-.92-.053-3.76.784-7.235 2.938-10.372.12-.175-.152-.385-.294-.227-2.36 2.625-3.663 6.162-3.318 9.685-.851-1.211-1.601-2.496-2.296-3.809.037-2.619 1.662-4.992 2.878-7.238a370.991 370.991 0 003.896-7.356c.063-.124-.118-.232-.188-.11-1.572 2.753-3.087 5.535-4.597 8.323-1.01 1.865-2.123 3.75-2.265 5.857-.426-.825-.836-1.657-1.238-2.485l-.722-1.489c.548-1.389.996-2.817 1.277-4.281.026-.136-.17-.195-.21-.058A63.44 63.44 0 018.3 71.826c-.713-1.486-1.406-2.998-1.975-4.548.066.031.16.01.18-.076.68-2.923 1.254-5.81 2.316-8.63 1.114-2.962 2.614-5.702 4.33-8.352.066-.1-.088-.184-.157-.092-3.565 4.734-6.408 10.992-6.732 16.98-.538-1.495-.957-3.024-1.158-4.6a16.278 16.278 0 01-.094-.997c.541-1.994 1.262-3.918 2.04-5.863.057-.14-.164-.224-.238-.1-.777 1.3-1.37 2.695-1.824 4.137.216-5.083 2.686-9.956 6.29-13.525 4.619-4.571 10.946-6.63 17.38-5.915 5.69.633 11.328 3.29 15.71 7.129-7.779 2.549-13.18 9.756-15.2 17.645-1.762 6.876-1.655 16.468 3.599 21.906-.34.016-.677.052-1.015.098-.998-.857-2.037-1.64-2.906-2.667a16.252 16.252 0 01-2.89-4.985c-.06-.166-.324-.099-.268.073.904 2.767 2.726 5.987 5.307 7.695-.52.085-1.047.176-1.595.24-1.967.228-3.993.291-5.958.002zm10.954-.345c-1.909-2.924-3.408-6.041-4.042-9.518-.725-3.974-.419-8.114.602-12.006 2.01-7.66 7.255-14.546 14.976-16.666l.024.025.084.27c-5.32 1.392-9.866 5.949-12.327 10.673-3.617 6.942-2.54 14.523-.989 21.895.408 1.936 1.01 3.754 1.89 5.423a.726.726 0 00-.218-.096zm41.105-.874a.124.124 0 00-.055-.029c-1.31-.28-2.798-.06-4.128-.027-.219.006-.219.334 0 .34 1.275.031 2.695.23 3.963 0-.814 1.008-1.857 1.911-2.999 2.707-1.832-.233-3.523-.055-5.335-.72a11.225 11.225 0 01-5.288-4c-.106-.147-.352-.01-.247.145a11.671 11.671 0 004.918 4.177c1.379.62 3.392 1.204 5.053.993-1.989 1.245-4.153 2.186-5.855 2.809-3.116 1.14-6.442 1.882-9.783 2.049-1.09-2.258-1.885-4.604-2.723-6.996-.053-.15-.26-.09-.235.064.386 2.432 1.392 4.784 2.628 6.945-.59.023-1.179.028-1.767.013-.717-.889-1.423-1.783-2.043-2.761a27.69 27.69 0 01-2.708-5.614c-.026-.073-.14-.044-.117.032.878 2.841 2.213 5.89 4.14 8.317a24.718 24.718 0 01-4.04-.546c-2.145-4.49-3.435-9.164-3.46-14.26 0-.117-.18-.117-.182 0-.083 4.832.9 9.822 3.14 14.147a20.87 20.87 0 01-5.2-2.02c-.302-3.923-.264-7.855.005-11.785.01-.164-.265-.205-.29-.04-.606 3.84-.64 7.693-.214 11.537a17.178 17.178 0 01-3.185-2.44c-2.139-5.8-2.403-11.758-1.48-17.889.027-.177-.23-.26-.277-.076-1.473 5.7-.811 11.914 1.23 17.422a14.638 14.638 0 01-3.47-6.256c-.538-2.021-1.044-4.129-1.405-6.267.284-1.948.76-3.828 1.648-5.759.082-.18-.165-.334-.27-.158a16.111 16.111 0 00-1.672 3.89c-.475-3.952-.341-7.946 1.106-11.634 1.144-2.916 2.995-5.563 5.263-7.716 2.037-1.933 4.403-3.265 6.869-4.512.054.354.11.708.178 1.06-1.158 9.015.09 18.667 5.981 25.825 5.522 6.71 16.105 10.064 23.788 5.116-.047 1.44-.606 2.746-1.482 3.917zm12.138-15.206a60.276 60.276 0 01-2.71 3.755c-.173.22-.347.448-.523.678-4.142-.16-7.818-.993-11.2-3.628-.142-.112-.347.086-.202.203 2.995 2.429 7.076 4.152 11.02 3.917-.62.783-1.295 1.544-2.115 2.052-2.382 1.476-6.003.99-8.63.365-3.244-2.609-6.67-4.914-9.722-7.773-.061-.058-.15.032-.092.092 2.502 2.583 5.234 5.275 8.3 7.266-5.412-1.678-9.977-5.302-13.563-9.644-2.143-2.595-4.001-5.379-5.644-8.313-1.077-1.923-2.202-3.936-3.136-6.009.039-.568.086-1.135.14-1.702 1.724 2.24 4.154 3.944 6.805 5.018 3.302 1.812 6.751 3.44 10.456 4.118 4.362.797 8.562 0 12.487-2.015 3.871-1.988 7.309-4.903 10.49-7.842 1.46-1.35 2.533-2.764 2.824-4.778.12-.832.195-1.67.248-2.51 1.48 4.053 1.564 8.433.723 12.729-1.974 1.049-3.723 2.143-5.959 2.63-.176.038-.1.3.074.268 1.98-.36 4.222-1.051 5.783-2.416a35.517 35.517 0 01-1.72 5.658c-1.066.422-2.141.817-3.296 1.054-2.482.51-5.065.545-7.565.148-.259-.041-.378.341-.11.403 2.442.56 4.89.68 7.37.285 1.002-.16 2.08-.392 3.124-.733a42.123 42.123 0 01-1.79 3.642c-3.637.76-7.26.966-10.963.092-.223-.052-.316.28-.095.344 3.451 1 7.171 1.238 10.634.315-.462.8-.943 1.579-1.443 2.331z" fill="#DEDEDE"/><path d="M15.085 58.67c-1.184 1.9-2.332 3.825-3.497 5.738-.017.028.028.055.046.026 1.166-1.912 2.35-3.815 3.496-5.738.017-.029-.027-.055-.045-.026zm7.013 4.002c-1.7 2.246-2.876 4.882-3.758 7.543-.062.187.23.265.293.08.93-2.687 2.248-5.057 3.72-7.474.101-.167-.144-.297-.256-.15zm-3.647 18.492c-.029 1.25-.03 2.499-.035 3.748 0 .112.175.113.175 0-.004-1.25-.006-2.498-.035-3.748-.002-.067-.103-.067-.105 0zm.276-6.85c-.934 2.54-1.43 5.184-1.668 7.874-.011.128.188.127.2 0 .247-2.68.832-5.263 1.586-7.842.022-.076-.091-.105-.118-.032zm2.983-1.367c-.713 4.202-.678 8.407-.128 12.63.02.152.261.157.244 0-.462-4.194-.364-8.412.055-12.607.01-.096-.154-.12-.17-.023zm4.61 9.287c-.54-1.561-.845-3.192-1.032-4.83-.363-3.171-.222-6.356-.018-9.533.011-.162-.24-.16-.252 0-.249 3.557-.494 7.186.01 10.731.4 2.821 1.282 6.294 3.403 8.349.128.124.333-.033.246-.19-.842-1.519-1.78-2.862-2.357-4.527zm11.514-20.887a270.936 270.936 0 00-3.44 5.434c-.076.123.119.237.196.114a271.395 271.395 0 003.341-5.491c.038-.063-.058-.118-.097-.057zM54.266 86.96c-.042-.052-.115.023-.074.075 1.536 1.941 3.231 3.85 5.17 5.4.068.056.165-.035.098-.097-1.835-1.717-3.612-3.417-5.194-5.377zm-3.697-7.84c.004-.044-.065-.044-.07 0-.143 1.291.045 2.623.68 3.768.025.045.088.006.068-.04-.543-1.207-.813-2.4-.678-3.728zm5.219 4.693c-.062-.127-.247-.016-.188.11 1.72 3.637 5.12 7.15 9.18 8.029.153.033.276-.2.114-.27-3.962-1.709-7.15-3.884-9.106-7.87zm-4.862-29.262c-.063-.125-.246-.015-.188.11 1.575 3.36 3.467 6.686 5.936 9.476.083.095.252-.031.177-.137-2.157-3.064-4.246-6.085-5.925-9.449zm8.197 7.835c-.025-.05-.097-.006-.075.044 1.666 3.853 4.247 7.311 7.797 9.609.09.058.2-.08.117-.15-3.231-2.668-5.977-5.718-7.839-9.503zm19.783 7.874c-2.025-.854-3.84-1.614-5.486-3.123-.136-.124-.336.074-.203.203 1.518 1.468 3.492 2.84 5.622 3.163.162.025.217-.18.067-.243zm10.209-15.2c1.633-1.122 3.368-2.477 4.45-4.162.067-.105-.084-.216-.17-.131-1.457 1.422-2.734 2.879-4.412 4.068-.135.096-.007.321.132.225zm-11.35 6.082c2.298.482 4.718.19 6.622-1.248.11-.083.018-.251-.11-.188-2.047 1.018-4.15 1.551-6.431 1.143-.19-.034-.274.253-.08.294zm5.106-27.698c1.915-2.022 2.975-4.695 3.343-7.43.023-.168-.235-.243-.26-.071-.403 2.787-1.586 5.131-3.254 7.369-.074.1.087.22.171.132zm-.909-7.058c.925-1.116 1.584-2.441 2.077-3.797.055-.153-.188-.219-.243-.067-.495 1.361-1.195 2.541-1.997 3.738-.066.097.087.217.163.126zm1.74 7.607c1.96-1.267 3.26-3.484 4.074-5.62.061-.159-.21-.275-.278-.116-.937 2.178-2.418 3.749-4.022 5.443-.141.149.042.412.226.293zm-3.996 6.84c-2.012 1.962-3.886 3.994-6.138 5.698-.2.152-.01.497.202.346 2.302-1.636 4.574-3.51 6.162-5.87.092-.138-.112-.286-.226-.174zm-3.139-.762c.914-1.023 1.915-2.013 2.691-3.148.096-.14-.11-.28-.225-.173-1.002.92-1.831 2.042-2.706 3.082-.138.164.093.404.24.24zm-12.41 14.725c-3.461.234-6.765-.32-9.839-1.977-.098-.053-.185.095-.087.15 3.023 1.725 6.484 2.527 9.95 2.006.101-.015.078-.186-.024-.18zm14.618-6.146c-2.47.945-4.84 2.218-7.228 3.352-.197.094-.025.383.172.292 2.39-1.094 4.876-2.087 7.173-3.366.146-.081.047-.34-.117-.278zm-7.865-.306c-2.054 1.305-4.317 2.164-6.743 2.408-.187.02-.191.312 0 .296 2.521-.217 4.814-1.01 6.848-2.524.106-.078.011-.254-.105-.18zm-7.313-19.072c-.073.11.1.246.185.142 2.712-3.288 5.277-7.24 4.587-11.693-.042-.27-.45-.154-.41.114.648 4.35-2.076 8.017-4.362 11.437zm-5.721 8.047c1.013-1.707 2.076-3.394 2.975-5.165.046-.09-.08-.163-.135-.079-1.093 1.658-2.031 3.418-3.013 5.143-.063.112.108.212.173.1zm7.731-23.209c.088.25.44.15.394-.11-.543-3.042-1.835-5.916-3.407-8.556-.073-.123-.243-.016-.188.11 1.246 2.798 2.176 5.676 3.2 8.556zm-.974 8.789c.216-2.026.086-4.1.061-6.134-.003-.246-.38-.246-.383 0-.024 2.034-.154 4.107.061 6.134a.13.13 0 00.261 0zm-6.237-1.971c.06.193.382.17.367-.05-.111-1.646-.716-3.293-1.29-4.827-.07-.19-.373-.115-.31.086.495 1.577.747 3.217 1.233 4.791zm-5.842.605c.017.135.213.143.218 0 .14-3.717-1.1-7.363-2.905-10.573-.075-.132-.271-.015-.203.119 1.708 3.325 2.424 6.776 2.89 10.454zM31.038 7.006c2.586 1.511 5.14 3.13 7.861 4.389.162.075.29-.138.14-.24-2.466-1.705-5.157-3.081-7.773-4.54-.254-.142-.48.244-.228.39zm18.957 16.967c.056.206.382.168.376-.05-.114-4.409-2.77-8.711-5.895-11.658-.24-.227-.598.13-.362.362 3.26 3.23 4.708 7.016 5.881 11.346zm-40.996 1.03c3.94-1.893 8.005-3.108 12.253-4.073.133-.03.075-.222-.055-.201-4.268.696-8.413 2.225-12.282 4.131-.095.047-.012.189.084.143zm9.145 5.664c-1.614.26-3.214.86-4.785 1.311-.198.057-.114.366.086.31 1.573-.44 3.251-.77 4.761-1.395.14-.058.09-.25-.062-.226zm7.858-5.367c-1.377.237-2.695.361-4.087.19-.133-.017-.132.192 0 .209 1.371.169 2.795.145 4.126-.256.093-.027.053-.158-.04-.142z" fill="#DEDEDE"/><path d="M16.897 20.583c6.434-1.229 12.305.797 17.504 4.535.135.097.287-.113.174-.225-4.502-4.497-11.684-5.875-17.76-4.603-.192.04-.11.33.082.293zm25.56 14.691c.051.107.226.032.191-.08-.958-3.05-2.738-5.695-4.91-8.018-.166-.177-.424.086-.264.265 2.096 2.341 3.633 5.01 4.983 7.833z" fill="#DEDEDE"/></svg>