<svg width="129" height="149" fill="none" xmlns="http://www.w3.org/2000/svg"><path d="M123.686 68.334c1.777-3.18 1.232-7.865.581-11.28-.759-3.989-2.376-7.786-4.54-11.208-2.123-3.359-4.598-6.49-7.31-9.392-2.644-2.828-5.565-5.479-9.193-6.963a19.693 19.693 0 00-5.519-1.356c-.099-.529-.332-1.07-.536-1.592a38.524 38.524 0 00-1.988-4.323c-1.444-2.67-3.223-5.18-5.213-7.471-4.044-4.656-9.248-8.416-15.016-10.627-1.17-.448-2.314-.682-3.433-.707-3.001-1.35-6.208-2.358-9.484-2.917-.054-.08-.153-.124-.261-.057l-.017.01C56.83-.348 51.754-.13 46.995 1.47c-3.65 1.228-7.68 3.326-9.897 6.59-2.289 3.37-1.716 7.915.235 11.297 1.175 2.036 2.907 3.692 4.773 5.092 1.892 1.42 4.06 2.859 6.294 3.706-.187.754-.34 1.52-.45 2.302-1.13 7.941 2.831 14.819 8.535 20.037.09.082.182.139.275.185a33.96 33.96 0 00-2.476 5.032c-1.314 3.362-2.303 7.32-1.886 10.995l-.523.48c-1.792 1.313-3.326 2.873-4.68 4.609l-.231.238a.17.17 0 00-.052.125c-1.34 1.775-2.506 3.72-3.579 5.764a65.961 65.961 0 00-3.857 8.892c-.284.813-.473 1.833-.923 2.575-.202.334-.53.574-.732.905-.23.376-.29.733-.253 1.09-6.116 4.48-10.749 11.068-9.324 18.756-.669.18-1.333.377-1.989.597-.691.109-1.38.24-2.062.389-.229.05-.22.309-.083.429-1.034.443-2.04.95-3.004 1.535-1.893 1.148-3.342 2.593-4.99 4.036-1.086.953-1.865 1.487-2.187 2.715-2.145.916-4.085 2.342-5.849 3.856-5.077 4.358-11.38 11.463-6.059 18.113 4.23 5.286 11.627 6.363 17.977 5.719 3.229-.327 6.739-.579 9.848-1.547 1.885-.587 3.77-1.722 4.604-3.443 5.75 4.215 13.078 6.891 20.13 4.751 3.247-.986 6.181-2.964 8.123-5.769a14.063 14.063 0 001.644-3.251c.295-.024.58-.176.772-.514.047-.083.09-.167.135-.25 4.57-.133 9.228-1.545 13.422-3.251 4.465-1.816 8.703-4.19 12.513-7.148 3.83-2.974 7.515-6.502 10.221-10.553a11.458 11.458 0 001.326-2.627c9.295-1.342 16.607-9.358 21.04-17.128 4.911-8.605 8.331-21.002-.09-28.465zM60.887 48.066c4.499-5.588 10.565-9.668 16.959-12.794 4.404-2.153 9.27-4.217 14.238-4.857-4.341.901-8.604 2.69-12.409 4.575-8.307 4.116-15.778 10.258-21.392 17.64a38.73 38.73 0 00-1.743 2.478 32.784 32.784 0 014.347-7.042zm12.75 7.976c5.55-1.317 11.31-1.258 16.971-.958 5.406.287 11.245.343 16.243 2.664 1.923.893 3.668 2.095 5.362 3.363a51.573 51.573 0 00-3.627-1.526c-5.748-2.158-11.94-2.495-18.016-2.115-6.136.384-12.27 1.28-18.28 2.57-5.218 1.119-10.643 2.365-15.59 4.48 5.155-3.799 10.724-7.003 16.938-8.478zm37.539-17.73c-9.031-2.45-19.196-1.853-27.624 2.36-.17.084-.051.377.13.31 8.887-3.263 18.096-4.271 27.386-2.157.199.045.326-.119.323-.274 1.714 1.926 3.239 3.995 4.574 5.982.08.119.158.24.237.36-3.08-1.517-6.425-2.65-9.799-2.736-.305-.007-.355.438-.071.523 3.642 1.093 7.21 1.967 10.658 3.457 1.482 2.434 2.726 5.04 3.6 7.749-3.026-3.056-6.883-5.449-11.202-5.904-.338-.036-.357.456-.076.558 4.368 1.584 8.415 3.445 11.695 6.753.024.089.05.177.073.265.546 2.094.868 4.242.893 6.407.01.824-.066 1.642-.151 2.458-4.72-5.005-10.236-9.273-16.767-11.685-.267-.099-.43.316-.191.453 5.955 3.404 11.827 7.036 16.909 11.693-.039.358-.075.716-.105 1.074l-6.119-4.585c-2.191-1.642-4.367-3.38-6.823-4.618-4.839-2.441-10.391-2.639-15.693-2.951-5.892-.347-11.854-.567-17.69.5-3.162.577-6.205 1.592-9.106 2.929a55.743 55.743 0 016.519-4.198c3.188-1.748 6.544-3.007 9.905-4.364.256-.104.165-.495-.117-.425-6.801 1.694-13.246 5.684-18.618 10.133a49.07 49.07 0 00-3.293 1.924c-2.15 1.369-4.151 2.881-6.061 4.494l.036-.31c2.636-2.984 5.392-5.855 8.332-8.544 3.402-3.11 7.059-5.842 10.71-8.644.276-.212.034-.678-.282-.483-6.983 4.317-13.295 10.24-18.591 16.564.032-.171.069-.342.11-.513.364-1.498.94-2.934 1.645-4.303a26.82 26.82 0 01.888-1.579c1.946-2.748 4.289-5.104 6.895-7.359.137-.118-.043-.355-.194-.252a22.895 22.895 0 00-2.573 2.064A58.759 58.759 0 0173.63 40.855c4.558-2.997 9.483-5.43 14.674-7.116 5.896-1.916 11.735-2.536 17.422.36.348.178.684.171.968.055 1.613 1.212 3.107 2.637 4.482 4.158zM47.519 25.137c.553-2.8 1.547-5.379 2.53-8.085.092-.256-.293-.398-.428-.18-1.468 2.37-2.198 5.213-2.55 7.998l-.24-.143c-.032-.698-.051-1.395.008-2.093.087-1.022.4-1.989.522-3 .038-.32-.408-.37-.555-.15-.856 1.27-1.089 3.095-.86 4.72-.767-.458-1.524-.929-2.237-1.463a21.233 21.233 0 01-1.03-.827c.61-1.304 1.218-2.61 1.774-3.936.03-.072-.09-.122-.125-.053a106.553 106.553 0 00-1.807 3.853 17.27 17.27 0 01-1.068-1.01c.404-2.129 1.153-4.08 2.013-6.11.067-.16-.138-.292-.238-.14-1.151 1.77-1.782 3.834-2.09 5.922-.815-.889-1.523-1.87-2.054-2.96-.6-1.229-.999-2.63-1.05-4.027a15.792 15.792 0 011.816-2.723c.06-.072-.037-.173-.103-.104a12.557 12.557 0 00-1.711 2.241c.03-.87.203-1.727.56-2.53.954-2.147 3.139-3.619 5.107-4.748 3.223-1.849 6.792-2.809 10.44-3.059a15.097 15.097 0 00-2.503 3.63c-.055.11.1.204.166.097a20.464 20.464 0 012.955-3.761 30.038 30.038 0 013.99.082c-1.663 1.323-3.175 2.815-4.483 4.535-.087.113.098.247.194.15 1.603-1.623 3.262-3.184 5.033-4.61 1.392.153 2.776.399 4.138.725-3.02 1.277-5.905 3.532-6.968 6.53-.074.209.23.386.376.219 1.299-1.502 2.347-3.065 3.936-4.302a15.71 15.71 0 013.778-2.162c.83.228 1.651.487 2.459.772-.446.229-.888.491-1.324.797-2.801 1.96-5.278 4.557-7.654 7-2.375 2.443-4.616 5.107-6.415 8.013 1.124-3.475 2.886-6.596 5.168-9.487.032-.041-.023-.1-.058-.059-2.466 2.868-4.224 6.27-5.314 9.878-1.055 1.75-1.947 3.589-2.61 5.519a26.655 26.655 0 00-1.488-.958zm9.345 22.668c1.623-3.212 3.547-6.232 5.534-9.236.074-.11-.102-.25-.187-.144-2.247 2.808-4.006 5.942-5.501 9.202a37.77 37.77 0 01-.415-.483c.992-3.883 2.83-7.242 5.16-10.526.08-.114-.102-.254-.195-.15-2.609 2.921-4.262 6.678-5.123 10.49-1.048-1.245-2.035-2.536-2.896-3.891 1.165-3.079 2.756-5.919 4.62-8.651.066-.098-.091-.222-.166-.128-2.037 2.565-3.53 5.47-4.602 8.547a23.425 23.425 0 01-1.114-2c1.298-4.054 3.138-7.673 5.339-11.36.093-.157-.136-.347-.26-.2-2.595 3.072-4.394 7.024-5.353 10.98a17.407 17.407 0 01-1.213-3.667c.83-5.13 3.143-9.398 6.455-13.447.122-.15-.067-.346-.214-.214-3.055 2.731-5.097 6.62-6.064 10.663.82-5.75 3.974-11.23 7.659-15.525 2.301-2.683 4.866-5.24 7.601-7.484 3.12-2.558 6.93-4.356 10.888-2.617.308.136.607.134.863.043a54.008 54.008 0 013.12 1.934c-1.787.229-3.406 1.649-4.846 2.63-2.465 1.68-4.914 3.363-7.25 5.222-.15.119.042.35.2.26 2.103-1.22 4.127-2.546 6.133-3.918 1.744-1.192 4.384-3.775 6.688-3.545a36.683 36.683 0 014.094 3.446c-4.609 3.563-9.306 7.04-13.757 10.796-.11.093.037.287.155.202 4.752-3.402 9.293-7.111 13.894-10.713l.07.069c2.12 2.118 3.97 4.468 5.485 7.056a37.155 37.155 0 011.997 3.92c.137.314.267.632.393.951-3.957-.58-7.945.011-11.52 1.926-.197.106-.024.378.171.293 3.68-1.59 7.634-2.202 11.582-1.606.075.2.151.397.223.598.059.169.115.338.171.508-4.94.156-9.892 1.785-14.391 3.76-5.617 2.465-11.09 5.598-15.733 9.66 2.352-2.754 4.832-5.391 7.403-7.989.055-.054-.028-.135-.084-.084-2.995 2.726-5.737 5.753-8.276 8.934a41.551 41.551 0 00-2.87 2.926 36.557 36.557 0 00-2.865 3.685 80.287 80.287 0 01-1.003-1.123zm-.7 95.937c-.157.079-.316.156-.479.229-4.192 1.867-8.42 1.494-12.39.024 2.636-2.949 4.55-6.875 5.279-10.69.057-.3-.34-.402-.451-.124-.836 2.094-1.665 4.197-2.732 6.188-.816 1.523-1.79 2.942-2.755 4.371-1.486-.6-2.933-1.347-4.326-2.18 3.028-2.742 4.718-7.776 4.393-11.648-.021-.257-.433-.36-.486-.065-.392 2.168-.83 4.321-1.686 6.362-.764 1.821-1.906 3.291-2.964 4.896a46.248 46.248 0 01-2.205-1.477c1.396-1.844 1.842-4.328 2.159-6.663.541-3.988.101-7.778-2.682-10.857-2.494-2.758-6.066-4.165-9.716-4.482-2.093-.182-4.215.001-6.275.403-.73.143-1.463.306-2.057.629 2.416-2.415 5.7-3.442 9.156-3.278.143.007.178-.225.034-.252-2.236-.417-4.465.019-6.4 1.053a16.335 16.335 0 012.395-1.602 24.422 24.422 0 012.714-1.245c.98-.261 1.969-.509 2.975-.774.11-.029.128-.166.07-.24 1.191-.33 2.4-.6 3.61-.83 6.733-1.278 14.545-1.82 20.95 1.067 5.967 2.69 9.633 8.441 10.533 14.817.548 3.882.173 8.069-1.614 11.411-1.462 1.93-3.135 3.612-5.05 4.957zm-21.01-6.805a21.76 21.76 0 00-1.396-6.341c-1.318-3.401-3.645-5.895-6.511-8.082-1.687-1.287-3.48-2.452-5.43-3.114a18.78 18.78 0 014.044.072c3.019.396 5.903 1.702 7.93 4.019 2.219 2.535 2.535 5.64 2.202 8.877-.154 1.51-.367 3.094-.838 4.569zm30.33-7.733c-.423-6.707-3.6-13.33-9.313-17.071-6.672-4.369-15.266-4.164-22.845-3.031-.297.044-.594.092-.89.141 7.68-3.938 17.21-2.595 24.282 2.365 5.728 4.016 9.184 10.837 8.766 17.596zm-62.943 6.098c.677-.902 1.34-1.817 2.128-2.639a30.66 30.66 0 014.607-3.966c.11-.077.014-.249-.107-.183-2.074 1.138-4.322 2.735-6.026 4.678.657-1.524 1.705-2.86 2.863-4.084 2.325-1.64 4.767-3.094 7.267-4.472.1-.056.013-.195-.088-.151-2.067.915-4.013 2.041-5.867 3.309.254-.243.507-.484.758-.721 1.74-1.648 3.637-3.318 5.793-4.445.351-.16.7-.324 1.047-.493.204-.085.408-.166.616-.241 3.18-1.135 6.03-.378 8.78 1.437 2.978 1.966 5.715 4.338 7.198 7.654.671 1.5 1.009 3.022 1.216 4.565-.286 1.691-.984 3.261-1.992 4.655.022-.066.05-.131.071-.198.074-.228-.271-.315-.353-.098a9.072 9.072 0 01-.807 1.61c-.07.074-.138.15-.21.222a.138.138 0 00-.028.146 9.895 9.895 0 01-2.002 2.114c-1.804.382-3.657.545-5.479.801-.424.059-.853.114-1.285.164a14.98 14.98 0 003.838-2.8c.091-.094-.046-.227-.143-.143a14.772 14.772 0 01-5.719 3.131c-2.889.196-5.853.064-8.575-.806 5.816-1.482 10.993-5.866 14.481-10.587.1-.134-.12-.3-.23-.177-2.07 2.28-4.41 4.33-6.906 6.134a31.078 31.078 0 01-2.91 1.841c-2.524.552-5.33 1.019-7.802.04-2.2-.871-3.92-2.896-3.873-5.334.002-.096-.14-.093-.147 0-.185 2.336 1.188 4.333 3.212 5.42 2.404 1.291 5.163 1.026 7.717.369-1.266.686-2.554 1.333-3.833 2.029a.149.149 0 00-.082.14 13.749 13.749 0 01-3.416-1.734c-2.45-1.725-4.109-4.224-3.712-7.187zm26.196 8.37a10.18 10.18 0 001.473-2.202 8.814 8.814 0 002.686-4.392c.058.628.106 1.259.156 1.893-.547.366-.894 1.094-.678 1.71-.657 1.635-1.788 2.452-3.637 2.991zm67.768-25.392c-.587-6.774-4.496-14.008-10.812-16.78-.143-.063-.27.144-.124.214 3.138 1.506 5.6 4.055 7.277 7.085 1.77 3.197 2.306 6.574 3.18 10.023-1.588 1.762-3.364 3.384-5.05 4.84a53.374 53.374 0 01-2.196 1.785c.272-1.179.455-2.391.48-3.571.005-.289-.373-.296-.47-.063-.58 1.409-.932 2.967-1.153 4.497a54.02 54.02 0 01-1.551 1.095c1.071-2.995 1.26-6.242.139-9.302-.088-.238-.43-.146-.38.105.627 3.232.66 6.477-.335 9.584a53.7 53.7 0 01-2.97 1.826c.906-4.527-1.575-9.752-4.353-13.078-.066-.079-.207.028-.144.111 1.494 1.986 2.543 4.232 3.185 6.633.604 2.261.513 4.437.657 6.709a53.973 53.973 0 01-3.21 1.636 44.434 44.434 0 01-4.91 1.925c.493-.811.699-1.812.954-2.72.268-.952.476-1.913.53-2.903.013-.228-.331-.322-.435-.118-.448.88-.752 1.817-.998 2.772-.24.936-.578 1.931-.541 2.903h.001a.215.215 0 00.104.193 87.65 87.65 0 01-4.322 1.254c1.063-3.388 1.648-6.81 1.693-10.386.002-.234-.335-.224-.358 0-.363 3.55-.986 7.093-1.917 10.54-.781.206-1.567.408-2.354.61 2.78-6.739 1.486-14.822-2.943-20.614-4.936-6.455-13.189-9.959-21.228-9.916-3.984.021-8.445.913-11.442 3.693-.04-.337-.066-.673-.076-1.009 5.605-3.752 11.594-6.286 18.018-8.322.233-.074.137-.408-.1-.363-6.462 1.23-12.676 4.337-17.921 8.283.002-.264.014-.528.033-.791.297-.709.695-1.387 1.146-2.038 3.901-2.378 7.951-4.352 12.148-6.18.114-.05.033-.242-.085-.202-4.182 1.443-8.165 3.566-11.831 6.055.66-.909 1.405-1.769 2.093-2.593 1.15-1.377 2.384-2.658 3.762-3.763 2.477-1.516 5.182-2.486 8.066-3.1.08-.017.063-.155-.02-.144-2.168.272-4.235.943-6.163 1.913.377-.233.763-.456 1.163-.66 2.664-1.357 5.633-2.175 8.518-2.911 3.063-.781 6.177-1.331 9.339-1.484 11.087-.537 22.242 3.461 30.824 10.432 1.16.943 2.302 1.936 3.333 3.023a.276.276 0 00.046.291c2.194 2.581 3.53 5.621 4.207 8.886a21.927 21.927 0 01-.018 3.516c-.16.195-.321.388-.486.579zm3.049-4.364c-.03.058-.064.114-.094.171-.44-4.381-2.804-8.555-5.989-11.553-4.522-4.256-9.969-7.568-15.74-9.827-5.804-2.273-12.104-3.435-18.342-3.204-3.39.126-6.752.694-10.034 1.54-3.234.833-6.55 1.796-9.52 3.353-3.242 1.7-5.718 4.32-7.943 7.179.875-1.816 2.073-3.496 3.408-4.94 2.959-3.198 6.755-5.58 10.811-7.133 8.473-3.242 18.169-3.567 27.032-1.956 9.076 1.65 17.862 5.914 23.22 13.672 2.308 3.344 5.292 8.685 3.19 12.698zm23.413-21.265a40.748 40.748 0 01-4.637 7.411c-1.016-6.283-6.199-11.192-10.635-15.366-.129-.122-.323.072-.195.194 4.715 4.464 9.178 9.08 10.571 15.509a38.79 38.79 0 01-3.806 4.092 26.36 26.36 0 01-.856.758c.582-5.683-3.392-11.705-8.05-14.489-.203-.121-.388.195-.185.317a16.02 16.02 0 016.086 6.57c1.315 2.62 1.576 5.185 1.674 8-1.837 1.5-3.817 2.724-5.904 3.776.803-4.327.325-8.88-1.78-12.803-.099-.183-.423-.056-.344.145 1.645 4.19 2.321 8.55 1.566 12.934a50.715 50.715 0 01-3.241 1.43 8.894 8.894 0 00-.111-1.521c-.375-2.354-1.412-4.724-2.529-6.818-4.786-8.97-14-14.65-23.66-17.055-9.653-2.403-20.607-2.478-30.077.78a35.367 35.367 0 00-6.44 2.994 9.89 9.89 0 00.31-.78c2.529-2.385 5.1-4.648 8.056-6.512 3.066-1.933 6.378-3.395 9.772-4.646.25-.092.155-.477-.112-.407-6.473 1.712-12.932 5.572-17.42 10.65.116-.371.23-.74.36-1.087a65.898 65.898 0 012.919-6.664c5.868-3.552 11.985-6.56 18.257-9.362.098-.044.027-.216-.075-.176-6.257 2.418-12.252 5.58-17.967 9.105.044-.085.085-.172.13-.258 2.123-4.104 4.598-8.11 8.409-10.776.33.074.74-.143.814-.536.119-.073.234-.15.355-.221 4.506-2.633 9.884-3.839 14.92-5.01a132.824 132.824 0 0116.8-2.801c5.484-.55 11.115-.85 16.558.206 5.285 1.024 9.996 3.497 14.491 6.376 4.315 2.763 8.072 5.616 9.055 10.946.626 3.394.059 6.862-1.035 10.148-1.075-3.259-3.524-6.072-6.237-8.067-.206-.152-.395.189-.198.34 2.962 2.283 4.711 5.184 6.168 8.499a42.316 42.316 0 01-1.777 4.175z" fill="#000"/><path d="M50.38 10.542c-2.032 1.879-3.364 4.406-4.132 7.042-.045.154.192.218.238.066.82-2.675 2.24-4.845 4.057-6.945.096-.111-.053-.264-.162-.163zm9.673 12.364c-1.54 1.837-2.957 3.781-4.418 5.68-.087.113.104.222.19.112 1.456-1.892 2.967-3.753 4.343-5.703.048-.068-.061-.153-.115-.09zm1.381 8.738c-2.904 3.62-5.074 7.788-6.774 12.093-.061.154.186.218.248.068 1.768-4.286 4.112-8.193 6.699-12.027.068-.102-.095-.231-.173-.134zm3.265-13.851A32.505 32.505 0 0175.283 9.64c.309-.149.039-.605-.268-.46-4.179 1.99-7.645 4.828-10.446 8.513-.056.074.069.171.13.1zm16.39 8.111c2.634-1.94 5.427-3.567 8.572-4.52.36-.11.209-.67-.156-.567-3.24.918-6.223 2.429-8.622 4.82-.132.131.047.384.206.267zm-6.403-.028c2.85-1.668 5.67-3.369 8.637-4.827.186-.092.023-.363-.162-.278-2.998 1.39-5.932 2.93-8.604 4.883-.13.096-.017.307.13.222zm-2.735-4.824c2.33-2.459 4.953-4.386 7.662-6.393.106-.079.015-.25-.106-.182-2.901 1.612-5.462 4.01-7.698 6.432-.088.096.052.238.142.143zm-4.007-9.302c2.32-1.623 4.809-2.828 7.368-4.017.123-.058.035-.257-.092-.218-2.707.822-5.181 2.257-7.48 3.886-.21.149-.01.498.204.348zm11.26 31.855c-5.105 1.389-9.913 3.69-14.453 6.384-.213.126-.02.457.195.332 4.565-2.634 9.394-4.635 14.329-6.46.158-.058.098-.302-.07-.256zm26.851-8.477c-6.042-.72-12.204-.22-18.132 1.083-.058.013-.033.101.025.089 6-1.28 12.002-1.509 18.107-1.09.054.004.051-.076 0-.082zM68.492 65.097c-6.748 1.034-13.194 3.885-18.86 7.633-.089.058-.009.199.083.143 5.864-3.601 12.192-5.88 18.847-7.52.17-.042.094-.281-.07-.256zm-6.31 10.963c-5.757.483-11.242 2.69-15.952 5.988-.105.073-.008.246.101.174 4.838-3.17 10.192-5.04 15.873-5.992.097-.016.076-.179-.022-.17zm15.728-4.224c-4.9-.457-9.92-.01-14.775.697-.198.03-.113.328.083.3 4.9-.68 9.758-.726 14.693-.777.143-.001.138-.207 0-.22zm2.07-3.192c-3.532-.808-7.193-1.153-10.781-1.628-.224-.03-.278.36-.054.397 3.574.576 7.177 1.296 10.794 1.537.175.012.212-.267.041-.306zM67.521 81.2c-3.959-.077-7.87.307-11.769.977-.174.03-.1.294.073.266 3.87-.623 7.78-.916 11.696-1.051.124-.005.124-.19 0-.193zm33.051 1.346c4.536 2.616 8.268 6.1 11.513 10.184.052.065.163-.02.116-.09-2.951-4.285-7.012-7.72-11.531-10.26-.109-.061-.205.104-.098.166zm-3.282 4.88c-.076-.064-.186.045-.11.11 3.556 3.05 6.763 6.395 9.958 9.812.062.066.152-.03.097-.097-2.939-3.613-6.385-6.834-9.945-9.825zm.147 4.514c3.627 4.075 6.482 8.666 8.837 13.576.067.138.311.039.252-.106-2.069-5.093-5.129-9.68-8.797-13.761-.178-.199-.468.094-.292.291zm6.297-20.683c-.18-.083-.339.181-.157.27a42.095 42.095 0 0110.062 6.83c3.048 2.796 5.382 6.014 7.749 9.377.146.206.457.03.341-.199-3.665-7.215-10.779-12.913-17.995-16.278zm2.522-5.105c6.114 2.672 11.998 5.527 16.683 10.32a24.027 24.027 0 011.572 3.26c.114.29.585.173.477-.132-2.195-6.227-6.941-11.787-13.233-14.102-.245-.09-.404.297-.177.418 4.147 2.226 7.73 5.169 10.329 8.935-4.232-4.224-10.141-6.653-15.551-8.934-.133-.056-.233.177-.1.235zm3.587 15.668c-.29-.184-.554.274-.269.46 4.312 2.82 7.603 6.577 10.476 10.817.103.152.326.02.245-.144-2.277-4.655-6.111-8.371-10.452-11.132zM53.49 104.267c-2.91-1.05-6.052-1.178-9.105-.868-.352.036-.362.586 0 .56 3.064-.226 5.975.196 8.975.777a.243.243 0 00.13-.469zm7.024-7.002c-1.343-.323-2.69-.624-4.037-.931-.08-.019-.115.106-.035.123 1.35.297 2.7.599 4.052.879.046.009.066-.06.02-.071zm11.05-1.612c-2.77-1.074-5.563-2.081-8.353-3.1-.123-.044-.175.151-.054.195 2.787 1.022 5.569 2.053 8.375 3.02.074.025.102-.088.032-.115zm-2.209 21.28c2.275 4.678 2.937 9.515 2.939 14.667 0 .145.203.137.22 0 .608-5.045-.762-10.259-3.032-14.741-.043-.084-.168-.01-.127.074zm5.819-.337c1.557 4.878 3.444 10.256 1.625 15.325-.067.189.242.322.327.138 2.406-5.182.572-10.679-1.566-15.625-.095-.22-.458-.064-.386.162zm-1.595-10.521c-.092-.084-.227.049-.137.136 5.843 5.596 11.136 11.511 11.35 20.025.005.182.254.17.276 0 1.065-8.311-5.934-15.077-11.49-20.161zm5.863-2.127c3.254 1.945 6.424 4.166 8.874 7.095 2.65 3.166 3.944 6.738 4.15 10.838.007.162.23.156.247 0 .882-8.291-6.857-14.403-13.202-18.052-.076-.044-.145.074-.069.119zm-27.105 26.617c-.258-3.983-2.294-7.798-4.899-10.741-.071-.08-.184.036-.117.117 2.633 3.16 3.91 6.695 4.79 10.655.028.125.234.099.226-.031zm4.413-6.666c3.742 5.769 2.577 12.958-1.603 18.107-.125.154.068.356.22.22 5.126-4.561 5.306-13.009 1.564-18.433-.076-.111-.256-.009-.182.106zm-3.97 10.703c.068 4.359-2.304 7.305-5.532 9.892-.178.142.014.46.223.383 4.002-1.459 6.127-6.264 5.988-10.275-.015-.435-.685-.438-.678 0zm-10.083-11.186c1.556 2.537 2.076 5.226 2.148 8.17.006.232.38.306.423.057.533-3.032-.305-6.031-1.89-8.625-.264-.432-.947-.036-.68.398zm.073 14.464c-.428 1.336-.943 2.682-1.186 4.065-.039.223.277.402.394.166.637-1.279 1.027-2.689 1.482-4.041.146-.437-.55-.629-.69-.19zm-3.601-9.978c.152 1.681.038 3.338-.19 5.008-.018.124.16.183.194.053.444-1.668.504-3.346.344-5.061-.02-.221-.369-.224-.348 0zM30.69 115.37c-2.111-.344-4.362-.079-6.461.255-.24.038-.136.397.1.362 2.122-.314 4.192-.236 6.322-.32.161-.006.216-.268.04-.297zm7.366-2.326c-1.651-.548-3.31-1.03-4.985-1.493-.388-.108-.556.508-.166.601 1.694.405 3.38.785 5.092 1.104.138.026.194-.167.059-.212zM15.91 137.763c3.11-.052 6.063-2.32 6.292-5.533.009-.117-.165-.132-.198-.027-.855 2.776-3.108 5.034-6.095 5.248-.198.014-.203.315 0 .312zm11.352-5.505c-.001.078.113.075.12 0 .217-2.632-1.035-5.109-3.117-6.686-.032-.025-.077.032-.044.058 2.09 1.635 3.082 4.001 3.04 6.628zm-1.942 10.206c4.078-2.366 8.304-8.286 4.296-12.62-.15-.162-.38.075-.24.24 1.733 2.038 1.58 4.893.371 7.16-1.087 2.039-2.977 3.419-4.599 4.997-.116.113.032.305.172.223zm-.21-2.678a24.97 24.97 0 01-3.297 2.255c2.524-1.754 4.416-4.399 5.37-7.38.105-.323-.39-.451-.503-.138-1.6 4.413-5.18 7.56-9.5 9.228a.14.14 0 00-.08.078 12.4 12.4 0 01-4.185.075c-.165-.026-.242.22-.071.256 4.493.946 9.848-.145 12.632-4.09.166-.235-.177-.436-.367-.284z" fill="#000"/></svg>