<svg width="897" height="225" fill="none" xmlns="http://www.w3.org/2000/svg"><path d="M710.075 193.895c-7.406 4.821-14.921 9.264-22.551 13.185-1.521.166-2.758.087-3.588-.23-.133-.306.285-1.618.624-2.673 1.116-3.477 2.982-9.295 1.31-18.148-2.364-12.468-9.467-19.206-11.588-20.975-5.643-4.704-11.17-8.282-22.551-8.282-3.819 0-8.297.403-13.661 1.301 5.4-7.983 9.976-12.9 15.679-18.206 5.339-4.974 24.333-20.362 44.49-9.552 14.8 7.94 18.848 24.926 19.897 31.86 2.285 15.053-2.727 25.33-8.061 31.72zm-12.987 10.145c1.703-.97 3.399-1.964 5.09-2.981a41.086 41.086 0 01-5.09 2.981zm-25.921 10.517c.478-.598.921-1.231 1.321-1.897 7.788-12.942 5.267-30.45-1.873-38.066-5-5.339-14.139-9.052-21.763-9.052-.818 0-1.618.043-2.394.132-6.406.727-11.091 2.467-17.479 9.57a23.478 23.478 0 00-3.103 4.361c1.388-3.346 3.461-7.43 7.049-13.416a188.385 188.385 0 013.715-5.964c21.933-4.005 28.86-.043 36.442 6.275 2 1.668 8.697 8.027 10.939 19.879 1.588 8.383-.188 13.916-1.248 17.223-.74 2.297-1.376 4.284.545 5.019.218.084.455.156.703.216a183.444 183.444 0 01-12.854 5.72zm-43.939-7.97c.279-.182.57-.345.867-.488 2.672-1.301 10.812-1.631 14.896 1.335 1.934 1.403 2.709 3.302 2.37 5.803-.091.712-.564 1.268-1.436 1.702-2.855 1.418-8.57.777-11.249-.741-1.739-.985-3.824-3.722-5.448-7.611zm39.43 9.695a147.588 147.588 0 01-15.976 4.853c-6.466.249-13.351-1-19.266-3.489-3.8-1.598-6.303-4.007-7.885-6.814a11.189 11.189 0 012.182-3.03c1.66 3.801 3.824 6.782 6.036 8.033 3.158 1.788 9.527 2.522 13.012.791 1.43-.714 2.285-1.798 2.467-3.136.424-3.163-.661-5.784-3.134-7.581-4.878-3.539-13.787-2.976-16.824-1.503-.248.12-.491.251-.733.395a36.727 36.727 0 01-1.552-6.14c-.824-5.117-1.23-14.8 5.388-22.158 5.988-6.656 10.346-8.285 16.297-8.959 7.351-.83 17.485 2.905 22.576 8.338 6.66 7.112 8.781 23.935 1.636 35.805-1.085 1.8-2.521 3.328-4.224 4.595zm-38.909 5.422c-3.315-1.294-5.133-3.52-5.248-6.434a8.002 8.002 0 01.206-2.137c1.769 2.537 4.339 4.714 7.981 6.247 3.819 1.608 8.031 2.734 12.297 3.3-4.012.548-10.345.931-15.236-.976zm-5.085-31.84l.261-.975c-.515 3.928-.2 7.531.206 10.073.4 2.433 1.03 4.807 1.836 6.985a13.155 13.155 0 00-2.412 2.835c-2.46-6.248-1.26-13.826.109-18.918zm6.031-29.92c-.219.052-.843.156-1.503-1.245-3.419-7.227.181-39.83 20.69-55.835 6.236-4.863 17.733-13.837 33.442-13.837.297 0 .594.004.897.01 12.63.274 25.2 6.5 35.394 17.529 10.939 11.835 17.551 27.742 16.842 40.527-.327 5.878-2.037 10.66-2.855 11.236-.448-.564-.927-2.963-1.345-5.089-1.231-6.171-3.085-15.496-9.552-23.132-8.309-9.816-20.563-12.126-25.799-13.113-18.855-3.553-39.751 2.866-51.981 15.976-7.746 8.293-9.709 15.882-11.012 20.904-.976 3.775-1.528 5.616-3.218 6.069zm-23.115-51.766c2.309-8.511 8.594-24.403 24.811-35.215 4.055-2.703 14.825-9.884 29.406-9.577 17.273.368 31.369 10.518 35.085 15.871 1.224 1.768 1.084 2.573 1.012 2.777-.297.862-3.146.599-6.437.292-5.981-.556-15.024-1.394-26.327 1.759-20.145 5.622-25.314 14.001-28.405 19.007-5.94 9.616-8.073 17-9.485 21.886-1.558 5.39-2.23 7.279-4.964 7.784-4.254.787-8.763-2.65-12.387-5.408-1.673-1.278-3.043-2.318-4.2-2.807-.164-7.731 1.206-13.825 1.891-16.369zm-11.824 30.536c-.588.357-1.025.55-1.758.567-2.212-.807-4.576-2.098-6.467-3.831-1.69-1.549-2.999-3.384-3.993-5.685 3.872-6.01 5.866-14.989 6.436-22.978.697-9.688-.527-20.644-4.394-27.728a28.58 28.58 0 015.103-6.339c9.279-8.689 23.903-11.36 32.945-9.462 2.939.616 4.939 1.699 5.479 2.97.836 1.94-2.303 4.476-6.649 7.986-6.581 5.315-16.521 13.345-20.745 26.818-3.606 11.507-3.376 20.155-3.212 26.467.158 5.846.249 9.375-2.745 11.215zm-7.661-.413c-2.721-.564-6.388-1.325-11.733-2.285.23-.077.461-.166.685-.267 1.994-.876 3.733-2.341 5.23-4.222a17.88 17.88 0 003.988 5.31 17.03 17.03 0 001.848 1.468l-.018-.004zm-18.054-4.225c-1.891-1.048-3.291-2.464-4.758-4.303-2.2-2.763-2.551-5.29-3.078-9.117-.303-2.188-.679-4.91-1.51-8.266-2.066-8.371-3.969-13.232-8.666-16.56-8.673-6.149-14.333-5.099-19.806-4.082a68.96 68.96 0 01-2.812.483c-1.188.172-1.624.045-1.751-.008-.061-1.189 4.024-5.269 5.575-6.82.503-.509.97-.97 1.346-1.364 5.369-5.586 13.042-9.427 22.799-11.415 9.285-1.892 16.685-1.173 21.994 2.14 1.576.98 2.915 2.44 4.048 4.249-5.878 10.671-5.078 24.06-4.242 38.066.303 5.161 1.006 9.185 2.224 12.431-1.521 2.148-3.248 3.696-5.109 4.516-1.927.845-3.988.628-6.254.05zm14.478-53.067c3.231 6.69 4.225 16.706 3.582 25.643-.606 8.482-2.57 15.787-5.406 20.813-.866-2.819-1.388-6.244-1.642-10.499-.788-13.216-1.54-25.869 3.466-35.957zm-66.102 30.284c2.564-3.834 7.006-6.568 12.17-7.501 5.097-.919 10.06.023 13.624 2.588 6.048 4.35 9.157 9.17 9.242 14.326.103 6.408-4.454 11.387-6.06 12.624a4.788 4.788 0 01-.328.231c-.078-.344-.145-.89-.2-1.355-.375-3.169-1.078-9.064-9.109-10.833a6.161 6.161 0 00-1.321-.147c-1.594 0-3.157.638-4.575 1.884-1.013.883-1.897 2.035-2.588 3.243a34.096 34.096 0 00-8.909-2.207c-1.279-.136-2.673.058-4.107.389-.985-5.121-.267-9.62 2.161-13.242zm18.473 23.306c.085.284-.158.878-.788 1.468-.927.861-2.539 1.548-3.885 1.025-1.503-.582-2.43-2.522-2.685-5.61-.048-.554.176-1.555.637-2.683 3.624 1.727 6.145 3.925 6.721 5.8zM55.844 115.355c-9.001 2.658-18.134 2.424-28.516-3.932-4.764-2.917-7.32-8.607-6.362-14.158 1.077-6.238 6.12-10.742 13.838-12.359a16.528 16.528 0 013.402-.349c3.777 0 7.662 1.25 11.222 3.654 4.567 3.08 7.89 7.687 8.672 12.02.908 5.027.117 10.155-2.256 15.124zm166.849-8.934c2.904-5.661 7.278-10.747 12.172-15.101 1.355 1.254 2.75 2.433 4.097 3.567.86.727 1.698 1.433 2.487 2.13.318.279.63.549.941.813-6.023 4.896-12.995 9.735-21.171 11.792.439-1.073.931-2.14 1.474-3.201zm66.147-57.448c1.326-2.381 2.643-4.529 3.886-5.916 14.882-16.622 50.232-21.414 78.36-20.343 29.288 1.107 53.118 8.21 60.709 18.095 3.136 4.082 3.752 8.222 1.786 11.972-5.007 9.562-27.908 18.873-77.159 16.333-43.227-2.23-60.761-13.228-67.582-20.141zm67.485 22.02c21.912 1.129 40.844-.064 54.751-3.451 12.67-3.087 21.028-7.889 24.171-13.885 2.33-4.45 1.651-9.29-1.963-13.994-7.917-10.311-32.303-17.701-62.128-18.83-28.55-1.08-64.511 3.86-79.829 20.966-1.257 1.405-2.543 3.45-3.825 5.718-.963-1.127-1.613-2.09-2.034-2.815-2.289-3.91-2.591-7.81-.88-11.28 3.54-7.168 12.684-13.262 26.443-17.625 32.752-10.382 90.306-9.484 126.18 10.074 8.49 4.629 12.476 10.551 11.528 17.13-1.547 10.72-15.651 20.733-35.098 24.917-25.331 5.449-50.613 6.337-79.564 2.794-22.651-2.773-38.473-9.143-48.292-16.047.296-.553.595-1.116.895-1.684.393-.74.789-1.488 1.185-2.224 11.204 11.134 35.973 18.56 68.46 20.236zm-127.866 7.619l-.049-.19c-.82-3.065-2.998-11.21 3.605-19.268 4.799-5.858 13.494-9.432 21.642-8.902 5.747.377 13.892 2.912 20.062 12.843.915 1.475 2.014 2.21 3.242 2.16 2.688-.093 5.187-3.918 7.912-8.9 11.344 7.864 28.708 13.743 48.976 16.223 29.164 3.57 54.643 2.674 80.186-2.82 20.211-4.35 34.906-14.992 36.562-26.489 1.056-7.318-3.379-14.085-12.488-19.05-36.305-19.795-94.526-20.717-127.645-10.215-14.258 4.518-23.787 10.946-27.558 18.583-1.979 4.007-1.645 8.646.941 13.067a23.62 23.62 0 002.661 3.661c-.497.919-.994 1.855-1.486 2.784-.251.472-.509.958-.771 1.445-4.018-3.045-6.89-6.162-8.692-9.093-2.646-4.309-3.298-8.661-1.886-12.588 2.495-6.928 11.967-19.581 47.39-26.482C346.111.5 424.359-5.111 454.359 31.844c5.66 6.973-.175 40.533-9.176 65.877l-.29.822c-9.164 25.82-23.01 64.844-80.203 64.844-55.565 0-71.984-39.453-80.805-60.647-1.222-2.934-2.277-5.468-3.265-7.462-1.775-3.58-3.205-6.627-4.467-9.315-4.143-8.824-6.034-12.851-9.885-13.063a4.879 4.879 0 00-.318-.009c-.308 0-.647.021-1.02.064-3.109-6.197-5.727-9.464-10.209-11.428-3.949-1.73-8.087-1.886-11.649-.431-3.095 1.26-5.558 3.681-6.758 6.643-1.375 3.39-.135 7.831 3.581 12.837a40.35 40.35 0 002.217 2.719 81.553 81.553 0 00-7.207 5.455c-2.878-2.855-5.378-6.123-6.446-10.138zm25.393 12.073a52.678 52.678 0 012.34-1.755c2.331-1.639 4.426-2.053 5.746-1.13.842.584 1.225 1.67.955 2.7-.338 1.29-1.559 2.125-3.347 2.294-1.242.117-3.31-.686-5.694-2.109zm14.513-5.671c1.305 2.97 2.784 6.337 4.502 10.136 6.246 13.803 8.624 19.608 6.978 21.442-2.201 2.456-14.827-5.773-23.181-11.218-1.851-1.206-3.653-2.381-5.343-3.452-2.193-1.392-4.082-2.656-5.958-4.106 1.14-.953 2.245-1.898 3.317-2.814a286.93 286.93 0 013.602-3.045c2.943 1.821 5.636 2.878 7.439 2.71 2.581-.242 4.446-1.62 4.988-3.687.471-1.792-.212-3.69-1.698-4.726-.948-.662-3.619-1.876-7.9 1.136a57.81 57.81 0 00-2.936 2.227c-2.342-1.584-4.86-3.65-7.14-5.96 7.433-4.76 14.644-7.796 18.821-8.642 1.305 2.708 2.75 5.994 4.509 9.999zm-26.962-5.56c-3.258-4.389-4.447-8.298-3.349-11.009 1.011-2.493 3.098-4.537 5.725-5.608a11.705 11.705 0 014.428-.848c1.889 0 3.845.422 5.761 1.262 3.886 1.702 6.213 4.494 9.041 10.049-4.589 1.062-11.876 4.163-19.307 8.946a38.05 38.05 0 01-2.299-2.792zm2.465 17.159a46.42 46.42 0 01-1.175-1.008c-.802-.706-1.65-1.423-2.521-2.157-1.275-1.074-2.595-2.188-3.875-3.369a81.627 81.627 0 017.13-5.366c2.256 2.335 4.775 4.472 7.212 6.162a350.12 350.12 0 00-3.178 2.695 348.86 348.86 0 01-3.593 3.043zm258.583 29.455c-3.528-2.187-5.916-6.419-8.023-10.152-.762-1.35-1.481-2.625-2.195-3.685-9.383-13.935-20.662-18.454-28.125-21.447-4.223-1.692-7.012-2.809-7.065-4.662-.007-.246.053-.567.575-.88.685-.41 1.85-.636 3.39-.636 4.414 0 11.903 1.848 19.958 6.495 8.573 4.944 22.367 15.837 24.699 35.552-1.233.097-2.332-.04-3.214-.585zm382.046-48.71c-5.951-.648-14.042-1.228-21.636-1.551a351.82 351.82 0 00-29.769 0 .944.944 0 00-.903.98c.024.518.46.913.982.9a349.87 349.87 0 0129.605 0c9.418.4 18.182 1.098 24.248 1.862-36.957 1.289-74.162 32.412-113.392 65.236-19.23 16.088-38.769 32.438-59.054 46.125 4.243-6.71 7.358-16.219 5.418-29.019-2.315-15.248-9.921-27.36-20.872-33.235-21.254-11.397-41.084 4.644-46.654 9.833-6.158 5.732-11.024 11.011-16.963 20.037-1.085.202-2.2.423-3.352.662.649-1.271 1.079-2.923 1.576-4.84 1.327-5.127 3.151-12.148 10.563-20.093 11.812-12.658 32.012-18.851 50.266-15.411 5.467 1.031 16.836 3.174 24.715 12.482 6.146 7.263 7.945 16.301 9.133 22.28.855 4.277 1.328 6.646 3.121 6.644h.037c3.06-.054 4.533-8.818 4.763-13.053.74-13.268-6.066-29.719-17.333-41.909-10.545-11.407-23.587-17.846-36.739-18.132-16.824-.387-28.993 9.125-35.526 14.223-20.194 15.753-25.4 49.324-21.236 58.126.091.188.181.36.272.519-7.509-1.297-16.721-12.764-17.357-14.154-3.042-6.67-4.303-13.305-4.642-19.16.897.552 2.012 1.4 2.987 2.141 3.709 2.828 8.8 6.699 13.861 5.762 4.012-.741 4.921-3.892 6.43-9.112 1.467-5.074 3.473-12.021 9.279-21.42 2.945-4.772 7.872-12.76 27.315-18.183 10.969-3.06 19.799-2.24 25.642-1.697 4.739.438 7.6.705 8.387-1.548.412-1.178-.012-2.682-1.248-4.468-4.691-6.767-20.012-16.328-36.581-16.68-15.164-.336-26.297 7.1-30.491 9.893-16.727 11.152-23.206 27.521-25.581 36.287-.703 2.597-2.091 8.77-1.964 16.622-2.794.582-2.442 3.979-2.103 7.267.309 3.035.661 6.474-1.079 8.186-.545.531-1.872.639-3.569.353 3.6-2.446 3.484-6.759 3.327-12.663-.164-6.181-.388-14.646 3.127-25.854 4.055-12.93 13.345-20.435 20.127-25.916 4.994-4.033 8.6-6.944 7.2-10.196-.812-1.896-3.17-3.302-6.824-4.068-9.509-1.993-24.873.807-34.612 9.929a31.02 31.02 0 00-4.927 5.902c-1.17-1.706-2.533-3.1-4.103-4.082-5.733-3.574-13.588-4.378-23.363-2.386-10.14 2.068-18.14 6.09-23.776 11.955-.37.385-.824.838-1.321 1.336-4.079 4.073-6.885 7.106-5.933 9.022.642 1.283 2.418 1.186 3.703 1.003.982-.142 1.951-.323 2.891-.496 5.327-.991 10.351-1.922 18.375 3.767 3.77 2.675 5.697 6.435 7.927 15.476.806 3.26 1.164 5.816 1.473 8.073.552 3.986.945 6.865 3.473 10.032.491.617.982 1.196 1.491 1.734-3.806-1.091-8.006-1.851-12.485.462-.776.401-1.564.825-2.37 1.259-5.818 3.135-12.412 6.684-21.412 4.848-5.787-1.18-9.521-5.375-10.624-7.908a35.21 35.21 0 01-1.743-4.971c1.265-.293 2.464-.462 3.489-.355a31.768 31.768 0 018.272 2.032c-.563 1.36-.848 2.659-.775 3.588.4 4.872 2.333 6.61 3.878 7.211 2.115.821 4.461-.113 5.843-1.403 1.139-1.066 1.63-2.335 1.303-3.396-.776-2.542-3.709-5.057-7.679-6.94.552-.934 1.255-1.851 2.085-2.582 1.369-1.196 2.806-1.639 4.26-1.315 6.728 1.483 7.285 6.138 7.655 9.217.182 1.528.309 2.633 1.266 3.035.819.344 1.643-.161 2.267-.641 1.8-1.388 6.915-6.967 6.794-14.148-.097-5.783-3.467-11.105-10.024-15.822-3.976-2.86-9.461-3.921-15.055-2.911-5.666 1.023-10.551 4.049-13.398 8.303-2.035 3.039-3.793 7.845-2.425 14.768-.466.133-.932.272-1.395.409-1.177.349-2.371.703-3.51.946-2.435-20.473-16.732-31.77-25.623-36.898-11.01-6.35-21.681-7.98-25.247-5.842-.991.592-1.52 1.496-1.49 2.549.088 3.087 3.509 4.46 8.244 6.357 7.25 2.904 18.206 7.296 27.266 20.75.674.999 1.374 2.242 2.117 3.558 2.109 3.737 4.732 8.386 8.672 10.826 1.295.802 2.792.992 4.384.862.12 1.502.172 3.054.152 4.655-.101 8.137-4.598 32.221-23.922 45.777l-.109.093c-14.623 14.025-44.737 24.736-80.553 28.649-37.587 4.106-76.702.308-107.313-10.423-27.608-9.675-62.088-32.053-72.557-58.317-3.739-9.382-4.113-18.512-1.124-27.22 9.223-1.974 16.901-7.341 23.458-12.7 2.037 1.602 4.064 2.964 6.437 4.468a530.81 530.81 0 015.323 3.44c13.485 8.79 22.554 14.296 25.602 10.9 2.372-2.645.75-7.09-6.664-23.477a1021.33 1021.33 0 01-4.493-10.118c-1.628-3.702-3.003-6.831-4.266-9.484.119-.004.236 0 .345.006 2.732.15 4.472 3.86 8.288 11.986a457.34 457.34 0 004.487 9.353c.959 1.936 2.003 4.443 3.212 7.347 4.28 10.286 10.749 25.831 23.191 38.676 14.863 15.347 34.832 23.129 59.348 23.129 58.518 0 72.632-39.776 81.973-66.097l.29-.82c8.143-22.929 15.751-59.211 8.863-67.695-13.939-17.171-38.656-27.25-73.465-29.96-26.621-2.07-51.963.95-61.647 2.836-36.333 7.08-46.168 20.389-48.797 27.692-1.614 4.484-.905 9.397 2.051 14.212 2.146 3.492 5.326 6.786 9.376 9.81-2.257 4.122-4.698 8.068-6.438 8.127-.525.026-1.047-.41-1.582-1.272-6.59-10.611-15.348-13.32-21.534-13.728-8.717-.571-18.052 3.282-23.218 9.585-7.213 8.806-4.77 17.947-3.967 20.95l.049.186c1.168 4.391 3.812 7.88 6.837 10.898-4.988 4.463-9.447 9.694-12.458 15.569a43.117 43.117 0 00-2.011 4.54c-1.299.24-2.629.406-3.988.49-12.821.788-32.73.463-57.479-11.407-36.871-17.687-60.1-4.923-80.597 6.337-6.454 3.547-12.568 6.905-18.698 9.054 1.985-4.826 2.582-9.789 1.699-14.68-.883-4.888-4.424-9.84-9.47-13.247-5.069-3.42-10.772-4.692-16.06-3.585-8.511 1.784-14.09 6.843-15.304 13.88-1.088 6.305 1.819 12.77 7.234 16.084 10.336 6.328 19.407 6.925 28.258 4.658-2.134 3.655-5.134 7.196-8.95 10.515-18.374 15.982-57.01 26.929-98.422 13.192a.94.94 0 00-.59 1.786c42.107 13.969 81.48 2.763 100.244-13.556 4.552-3.961 7.998-8.238 10.262-12.665 6.816-2.157 13.558-5.861 20.7-9.784 20.1-11.045 42.883-23.561 78.881-6.293 25.144 12.061 45.375 12.392 58.406 11.589a35.642 35.642 0 003.177-.34c-2.781 8.834-2.287 18.064 1.487 27.531 10.686 26.81 45.684 49.582 73.681 59.395 30.866 10.819 70.279 14.652 108.136 10.518 36.171-3.954 66.665-14.833 81.596-29.112 19.923-14.018 24.559-38.857 24.664-47.254a52.738 52.738 0 00-.166-4.957c1.267-.259 2.57-.646 3.855-1.025a99.46 99.46 0 011.288-.378 36.611 36.611 0 001.844 5.247c1.257 2.893 5.481 7.676 11.966 8.998 9.672 1.974 16.581-1.748 22.678-5.033a171.03 171.03 0 012.339-1.245c4.552-2.349 8.825-1.037 12.958.233.915.28 1.812.555 2.697.788 1.551.828 3.4 1.448 5.745 1.863a403.657 403.657 0 0112.63 2.445c2.982.619 4.74.984 6.031 1.016 3.399 1.184 6.702 1.411 8.193-.057 2.388-2.347 1.982-6.264 1.631-9.72-.309-2.996-.34-4.552.303-5.069.303 6.179 1.588 13.236 4.83 20.339.848 1.864 11.672 15.365 20.478 15.363a7.81 7.81 0 001.964-.243c1.721-.394 3.376-.746 4.945-1.061-.89 1.41-1.818 2.909-2.775 4.509-7.273 12.144-8.527 16.856-10.109 22.823l-.358 1.331c-1.557 5.805-2.891 14.632.582 21.604-.564 1.43-.861 2.93-.806 4.366.145 3.667 2.436 6.549 6.448 8.114 3 1.168 6.461 1.543 9.667 1.541 4.333 0 8.194-.682 9.794-1.009 1.375-.284 2.745-.589 4.115-.912 6.436-.207 12.515-1.834 17.012-5.159 6.903-2.539 13.696-5.566 20.387-8.991 4.94-.612 11.824-3.432 17.83-8.276a40.691 40.691 0 005.461-5.331c21.897-14.284 42.878-31.84 63.502-49.093 40.654-34.014 79.12-66.199 116.944-64.798a57.13 57.13 0 00-5.382 1.537c-8.303 2.826-14.842 6.715-19.424 11.558-7.448 7.871-9.339 17.86-9.612 24.854a.936.936 0 00.903.977c.012.002.024.001.037.001a.947.947 0 00.939-.903c.261-6.672 2.048-16.188 9.097-23.634 4.375-4.62 10.654-8.344 18.66-11.072 2.655-.904 4.83-1.403 6.412-1.766 2.394-.549 3.594-.824 3.588-2.041-.012-1.216-.958-2.324-12.503-3.584z" fill="#000"/><path d="M412.702 102.729c-.3-.451-.693-.971-1.201-1.536a13.163 13.163 0 00-1.64-1.57c-.589-.474-1.108-.728-1.536-.752-1.709-.046-3.649.012-5.82.185-2.171.174-4.457.404-6.859.716-2.402.312-4.862.67-7.356 1.074a186.79 186.79 0 00-7.276 1.317c-2.344.462-4.55.935-6.628 1.42-2.067.474-3.88.935-5.428 1.363-.161.046-.092.254.185.612.289.369.647.762 1.097 1.178.439.427.889.796 1.328 1.108.439.324.762.439.935.381.324-.138.832-.3 1.559-.473a61.422 61.422 0 012.645-.612c1.051-.231 2.229-.462 3.534-.716 1.305-.254 2.702-.497 4.18-.751a193.93 193.93 0 00-3.002 6.248 61.792 61.792 0 00-2.529 6.317 37.472 37.472 0 00-.578 1.859c-.069.046-.208.242-.416.589-.242.392-.554.9-.923 1.512-.37.613-.774 1.282-1.201 2.01-.439.727-.843 1.42-1.248 2.067-.392.647-.75 1.212-1.051 1.686-.311.473-.508.762-.612.866-.046.046-.011-.254.116-.901a43.24 43.24 0 01.589-2.506c.265-1.016.589-2.159.958-3.429.37-1.259.751-2.483 1.144-3.65a37.018 37.018 0 011.201-3.152c.404-.936.785-1.594 1.143-1.975.023-.023-.046-.081-.208-.173-.162-.092-.404-.173-.704-.266l-1.051-.311c-.393-.116-.809-.231-1.247-.358a87.764 87.764 0 00-3.488-.878c-.208.081-.45.381-.728.901a13.59 13.59 0 00-.843 2.009 72.14 72.14 0 00-.866 2.771 50.375 50.375 0 00-.785 3.199 158.88 158.88 0 00-1.363 2.067c-.6.924-1.201 1.848-1.813 2.795a142.39 142.39 0 01-1.686 2.541c-.508.75-.843 1.189-.993 1.316-.046.046-.011-.254.116-.901a43.24 43.24 0 01.589-2.506c.265-1.016.589-2.159.958-3.429.37-1.259.751-2.483 1.143-3.65a37.706 37.706 0 011.201-3.152c.405-.936.786-1.594 1.144-1.975.023-.023-.047-.081-.208-.173-.162-.092-.404-.173-.705-.266-.311-.092-.658-.196-1.05-.311-.393-.116-.809-.231-1.248-.358a87.245 87.245 0 00-3.487-.878c-.254.081-.566.508-.924 1.282-.15.323-.3.681-.45 1.085-.127.208-.254.439-.358.612-.289.531-.578 1.097-1.005 1.825-.427.716-1.051 1.64-1.548 2.425a52.768 52.768 0 01-2.425 3.453c-.923 1.212-1.847 2.402-2.817 3.395-.97.993-1.779 1.755-2.703 2.425-.831.612-2.217 1.132-3.302.935-1.652-.288-3.465-2.078-4.562-3.695-1.131-1.674-1.801-3.464-2.021-5.37-.219-1.905-.081-3.868.416-5.878a30.158 30.158 0 012.113-5.855 37.824 37.824 0 013.107-5.323c1.155-1.652 2.275-3.084 3.36-4.285 1.086-1.2 1.317-1.524 2.148-2.136.82-.612 1.732-1.444 2.391-1.213.023.012.034.024.057.035.451.347.324.947.197 2.01-.127 1.085-.462 2.182-.774 3.73-.312 1.558-.889 3.406-1.547 5.138a171.422 171.422 0 01-1.733 4.412c-.473 1.166-.958 2.067-1.616 3.545-.278.624 3.476.612 4.573.069 1.362-.681 2.032-1.778 2.956-3.21a40.02 40.02 0 002.506-4.469 46.035 46.035 0 001.848-4.354c.485-1.351.843-2.483.993-3.43.231-1.455.138-2.159-.012-2.979-.358-1.963-1.79-3.915-2.783-4.885-2.725-2.667-5.046-2.621-7.622-2.46-.704.047-2.771.393-3.811 1.051-1.039.659-2.147 1.606-3.325 2.841-1.178 1.236-2.356 2.702-3.569 4.4a44.653 44.653 0 00-3.326 5.543 44.201 44.201 0 00-2.598 6.271 31.015 31.015 0 00-1.409 6.594 22.502 22.502 0 00.289 6.536c.416 2.136 1.051 3.984 1.952 5.647a17.782 17.782 0 004.411 5 12.45 12.45 0 004.123 2.09c1.328.393 2.702.531 3.822.462.831-.058 1.963-.3 2.748-.67.982-.462 1.698-.947 2.622-1.628 1.305-.97 2.067-1.79 2.945-2.783a58.877 58.877 0 002.367-2.818l.139-.173-.035.52c-.046 1.074.023 1.847.231 2.332.254.589.693 1.109 1.316 1.571a9.96 9.96 0 001.975 1.132c.693.288 1.328.508 1.929.646.6.139 1.016.197 1.247.174.127-.024.323-.174.577-.439.254-.266.554-.635.901-1.086.346-.462.716-.981 1.132-1.57.404-.589.819-1.201 1.224-1.836.046.635.138 1.108.265 1.42.254.589.693 1.109 1.317 1.571a9.948 9.948 0 001.974 1.131c.693.289 1.34.508 1.952.647.612.138 1.016.196 1.224.173.173-.023.508-.323.982-.878a32.53 32.53 0 001.605-2.124c.242-.347.485-.705.739-1.074.035.519.092 1.039.173 1.559 0 .069.093.15.277.254.185.104.416.219.716.358.301.138.624.277.97.427.358.15.728.289 1.109.427.889.347 1.894.705 3.002 1.097.047-1.87.301-3.903.774-6.097.462-2.194 1.097-4.469 1.883-6.836a82.525 82.525 0 012.806-7.23 101.038 101.038 0 013.568-7.275c.046-.046-.139-.127-.543-.254s-.912-.265-1.501-.427c2.113-.3 4.261-.578 6.421-.832 2.159-.265 4.238-.462 6.236-.6a80.286 80.286 0 015.554-.208c1.709 0 3.164.104 4.377.312.173-.012.092-.231-.208-.681z" fill="#000"/><path d="M404.18 117.88a10.73 10.73 0 00-.439-1.629c-.162-.439-.335-.727-.52-.877a7.86 7.86 0 00-1.362-.82 11.367 11.367 0 00-1.363-.578 5.462 5.462 0 00-1.016-.254c-.266-.023-.381.023-.324.15.151.509.243 1.178.266 1.987.023.82 0 1.709-.081 2.679-.081.97-.219 1.975-.416 3.002a20.415 20.415 0 01-.808 2.933c-.993-.277-1.732-.9-2.206-1.859-.473-.958-.496-2.24-.057-3.845.358-.97.762-1.883 1.201-2.737.45-.855.958-1.605 1.547-2.24.104-.104-.011-.266-.323-.474a8.675 8.675 0 00-1.247-.67 14.866 14.866 0 00-1.698-.646 19.657 19.657 0 00-1.744-.497c-.358-.081-.82.219-1.397.901-.577.681-1.143 1.57-1.721 2.679-.577 1.109-1.097 2.356-1.57 3.753a21.83 21.83 0 00-.993 4.111c-.197 1.351-.174 2.598.057 3.73.231 1.132.751 2.01 1.571 2.622a23.11 23.11 0 001.952 1.362c.716.451 1.42.843 2.124 1.19.705.346 1.375.612 2.01.785.635.173 1.189.231 1.64.15.889-.15 1.686-.404 2.39-.762a7.483 7.483 0 001.859-1.34 8.05 8.05 0 001.363-1.801c.196-.347.901-2.16 1.27-4.284.335-1.917.335-4.158.3-4.539a13.107 13.107 0 00-.265-2.182zm-8.222 10.404c-.589.578-1.248.89-1.987.936-.046.046-.08-.046-.092-.312-.012-.254 0-.624.035-1.109a20.42 20.42 0 01.208-1.72c.103-.659.23-1.375.381-2.148.404.439.866.831 1.362 1.189.497.358 1.04.682 1.629.959-.439.9-.947 1.639-1.536 2.205z" fill="#000"/></svg>