<svg width="27" height="26" fill="none" xmlns="http://www.w3.org/2000/svg"><path d="M21.455 6.834c.041-.763.102-1.868-.123-2.084-1.745-1.677-6.48-.647-7.373 1.633-.565 1.44-.79 3.408-.676 5.903-1.782 0-2.781.108-2.997.325-.202.201-.23 3.563 0 3.563.94 0 2.708.216 2.708.216s.068 8.677 0 8.748c-.315.323-10.51 0-11.882 0-.74 0 0-11.117 0-12.323 0-.861-.09-10.612 0-10.702.377-.38 3.993-.296 4.543-.296 3.257 0 17.32-1.63 19.54-.286.944.571.797 4.255.797 5.134 0 1.288-.048 17.865-.442 18.473-.354.546-7.998.247-8.489 0-.15-.076-.15-2.898 0-8.466 2.426.286 3.64.12 3.64-.498v-3.16c0-.269-1.125-.403-3.372-.403-.07-1.912.065-3.207.404-3.885.546-1.091 1.115-.907 2.554-.71" stroke="#C18539" stroke-linecap="round" stroke-linejoin="round"/></svg>