<svg width="317" height="317" fill="none" xmlns="http://www.w3.org/2000/svg"><path d="M89.902 162.97h2.155v19.464h-2.155v-11.095h-3.329v11.095h-2.155V162.97h2.155v6.181h3.329v-6.181zm17.593 15.723h-3.836l-.443 3.741h-2.156l2.219-19.464h4.597l2.25 19.464h-2.187l-.444-3.741zm-.222-1.965l-1.331-11.603h-.729l-1.332 11.603h3.392zm17.055 5.706v-12.363l-3.202 3.233v9.13h-2.155V162.97h2.155v7.703l3.202-3.328v-4.375h2.156v19.464h-2.156zm.476-21.493h-4.09v-1.426h4.09v1.426zm15.469 8.21c.539 0 1.014.095 1.394.254.381.158.698.38.92.634.222.285.412.602.507.951.127.349.158.761.158 1.173v7.291c0 .539-.095 1.014-.253 1.395a2.5 2.5 0 01-.634.919c-.285.222-.602.412-.951.507-.349.127-.761.159-1.173.159h-4.216V162.97h6.657v2.155h-4.502v3.995h2.093v.031zm.824 2.98a1.04 1.04 0 00-.19-.602c-.127-.159-.349-.254-.666-.254h-2.061v8.971h2.061c.254 0 .444-.063.602-.19.159-.127.254-.349.254-.666v-7.259zm19.052-9.161v19.464h-2.156v-17.277h-2.472l-.634 14.614c-.032.887-.222 1.585-.571 2.029-.349.443-.983.665-1.87.665h-1.173v-2.155h.888c.221 0 .38-.032.443-.095.064-.064.095-.222.127-.444l.729-16.77h6.689v-.031zm14.899 19.464v-12.363l-3.202 3.233v9.13h-2.156V162.97h2.156v7.703l3.202-3.329v-4.374h2.155v19.464h-2.155zm13.377-12.173l-2.441-7.291h2.283l2.123 6.371h1.649v-6.371h2.155v6.371h1.617l2.124-6.371h2.282l-2.44 7.291 2.599 12.173h-2.219l-2.409-11.254h-1.585v11.254h-2.156V171.18h-1.585l-2.409 11.254h-2.219l2.631-12.173zm27.484-7.291v19.464h-2.187v-6.182h-2.188c-.412 0-.792-.063-1.172-.158-.349-.127-.698-.286-.951-.508-.286-.222-.476-.539-.634-.919a3.643 3.643 0 01-.254-1.395v-10.271h2.156v10.271c0 .317.095.539.253.666.159.127.349.19.602.19h2.188v-11.127h2.187v-.031zm15.533 15.723h-3.836l-.444 3.741h-2.155l2.219-19.464h4.596l2.251 19.464h-2.187l-.444-3.741zm-.222-1.965l-1.331-11.603h-.729l-1.332 11.603h3.392zM99.348 188.647v39.277h-4.343v-34.902H88.76v34.902h-4.343v-39.277h14.931zm20.986 0v4.343h-8.718v8.084h6.562v4.406h-6.562v18.037h8.718v4.407h-13.061v-39.277h13.061zm6.942 0h4.343v12.839h3.74l4.312-12.839h4.628l-4.914 14.709 5.262 24.536h-4.469l-4.85-22.729h-3.678v22.761h-4.342v-39.277h-.032zm35.187 31.732h-7.767l-.919 7.513h-4.343l4.47-39.245h9.288l4.533 39.277h-4.406l-.856-7.545zm-.476-3.962l-2.726-23.427h-1.458l-2.663 23.427h6.847zm26.819-7.006c0 1.109-.159 2.029-.476 2.79-.317.76-.761 1.394-1.331 1.87a5.345 5.345 0 01-1.966 1.046 8.063 8.063 0 01-2.345.349h-4.026v12.458h-4.343v-39.277h8.369c1.077 0 2.028.159 2.789.476a5.474 5.474 0 011.902 1.3 5.015 5.015 0 011.078 1.933c.222.761.349 1.522.349 2.346v14.709zm-4.407-14.709c0-.444-.126-.856-.38-1.173-.254-.348-.697-.507-1.331-.507h-4.026v18.101h4.026c.475 0 .887-.127 1.204-.381.317-.253.476-.697.476-1.331v-14.709h.031zm22.666-6.055h4.374v39.277h-4.343v-22.412h-6.752v22.412h-4.343v-39.277h4.343v12.49h6.721v-12.49zm26.723 0v39.277h-4.343v-18.767h-2.504l-4.312 18.767h-4.469l4.343-19.052a5.445 5.445 0 01-2.727-1.87c-.729-.92-1.077-2.219-1.077-3.899v-8.369c0-.824.126-1.617.348-2.346a5.469 5.469 0 011.046-1.934 4.821 4.821 0 011.871-1.299c.76-.317 1.711-.476 2.789-.476h9.035v-.032zm-4.375 4.375h-4.628c-.634 0-1.078.159-1.331.507a1.922 1.922 0 00-.381 1.173v8.369c0 .602.159 1.046.507 1.3.349.253.729.38 1.173.38h4.628v-11.729h.032zm40.703-142.555a37.298 37.298 0 00-3.297-4.216 36.221 36.221 0 00-4.501-4.312c-1.617-1.3-3.044-1.997-4.216-2.06-4.692-.127-10.018.032-15.977.507-5.96.476-12.236 1.11-18.83 1.965a647.461 647.461 0 00-20.193 2.949 515.676 515.676 0 00-19.971 3.613 537.164 537.164 0 00-18.196 3.9 349.117 349.117 0 00-14.899 3.74c-.444.127-.253.698.507 1.68.793 1.015 1.776 2.092 3.012 3.234a30.98 30.98 0 003.645 3.043c1.205.887 2.093 1.204 2.568 1.046.888-.38 2.283-.824 4.28-1.3a170.658 170.658 0 017.259-1.68c2.885-.634 6.118-1.268 9.7-1.965 3.582-.698 7.418-1.363 11.476-2.06a532.61 532.61 0 00-8.242 17.149 170.387 170.387 0 00-6.943 17.34 106.063 106.063 0 00-1.585 5.103c-.19.127-.57.666-1.141 1.617a462.931 462.931 0 00-2.536 4.153c-1.014 1.68-2.124 3.519-3.297 5.516-1.204 1.997-2.314 3.899-3.423 5.674a271.918 271.918 0 01-2.885 4.628c-.856 1.3-1.395 2.092-1.68 2.378-.127.127-.032-.698.317-2.473s.887-4.089 1.617-6.879c.729-2.789 1.616-5.928 2.631-9.415a268.448 268.448 0 013.138-10.017c1.078-3.233 2.187-6.118 3.297-8.654 1.109-2.568 2.155-4.375 3.138-5.42.063-.064-.127-.223-.571-.476-.443-.254-1.109-.476-1.933-.73-.856-.253-1.807-.538-2.885-.855-1.078-.317-2.219-.634-3.424-.983a245.128 245.128 0 00-9.573-2.41c-.571.223-1.236 1.047-1.997 2.474-.761 1.426-1.553 3.265-2.314 5.515a193.522 193.522 0 00-2.378 7.608 137.1 137.1 0 00-2.155 8.781 418.21 418.21 0 00-3.741 5.675c-1.648 2.536-3.297 5.072-4.977 7.671a387.997 387.997 0 01-4.628 6.974c-1.395 2.06-2.314 3.265-2.726 3.614-.127.127-.032-.698.317-2.473s.887-4.089 1.617-6.879c.729-2.789 1.616-5.928 2.631-9.415a268.448 268.448 0 013.138-10.017c1.078-3.233 2.187-6.118 3.297-8.654 1.109-2.568 2.155-4.375 3.138-5.42.063-.064-.127-.223-.571-.476-.443-.254-1.109-.476-1.933-.73-.856-.253-1.807-.538-2.885-.855-1.078-.317-2.219-.634-3.424-.983a245.128 245.128 0 00-9.573-2.41c-.697.223-1.553 1.396-2.536 3.52-.412.887-.824 1.87-1.236 2.98-.349.57-.698 1.204-.983 1.68-.792 1.458-1.585 3.011-2.758 5.008-1.173 1.966-2.885 4.502-4.248 6.657a144.746 144.746 0 01-6.657 9.478c-2.536 3.329-5.072 6.594-7.734 9.32-2.663 2.726-4.882 4.819-7.418 6.657-2.283 1.68-6.087 3.107-9.066 2.568-4.534-.793-9.51-5.706-12.522-10.144-3.106-4.597-4.945-9.51-5.547-14.74-.603-5.231-.222-10.62 1.14-16.136a82.622 82.622 0 015.802-16.072c2.504-5.199 5.326-10.049 8.527-14.613 3.17-4.534 6.245-8.464 9.225-11.761 2.98-3.297 3.614-4.185 5.896-5.865 2.25-1.68 4.755-3.962 6.562-3.328.063.032.095.063.158.095 1.237.95.888 2.6.539 5.516-.348 2.98-1.268 5.991-2.124 10.239-.855 4.28-2.44 9.351-4.247 14.106a465.58 465.58 0 01-4.755 12.11c-1.3 3.201-2.631 5.674-4.438 9.732-.761 1.711 9.541 1.68 12.553.19 3.74-1.87 5.579-4.882 8.115-8.813a109.892 109.892 0 006.879-12.268c2.06-4.28 3.741-8.242 5.072-11.95 1.331-3.71 2.314-6.816 2.726-9.416.634-3.994.381-5.927-.032-8.178-.982-5.39-4.913-10.746-7.639-13.41-7.481-7.322-13.853-7.195-20.922-6.751-1.934.127-7.608 1.078-10.461 2.884-2.853 1.807-5.896 4.407-9.13 7.799-3.233 3.392-6.467 7.417-9.795 12.077-3.297 4.66-6.34 9.732-9.13 15.216a121.275 121.275 0 00-7.132 17.213c-1.966 5.992-3.265 12.046-3.868 18.101-.602 6.087-.348 12.046.793 17.942 1.141 5.865 2.885 10.937 5.357 15.502 2.06 3.55 6.055 9.066 12.11 13.726 3.011 2.346 6.878 4.438 11.316 5.737 3.646 1.078 7.418 1.459 10.493 1.268 2.283-.158 5.39-.824 7.545-1.838 2.694-1.268 4.66-2.6 7.196-4.47 3.582-2.663 5.674-4.913 8.083-7.64 2.473-2.789 4.248-4.881 6.499-7.734l.38-.476-.095 1.427c-.127 2.948.063 5.072.634 6.403.697 1.617 1.902 3.043 3.614 4.311a27.21 27.21 0 005.42 3.107c1.902.792 3.646 1.395 5.294 1.775 1.649.38 2.79.539 3.424.476.349-.064.888-.476 1.585-1.205.697-.729 1.522-1.744 2.473-2.98a188.181 188.181 0 003.106-4.311 172.915 172.915 0 003.36-5.04c.127 1.743.381 3.043.729 3.899.698 1.616 1.902 3.043 3.614 4.311a27.267 27.267 0 005.421 3.107c1.902.792 3.677 1.394 5.357 1.775 1.68.38 2.79.539 3.36.475.476-.063 1.395-.887 2.695-2.409 1.3-1.553 2.758-3.487 4.406-5.833.666-.951 1.332-1.933 2.029-2.948.095 1.427.254 2.853.476 4.28 0 .19.253.412.76.697.508.285 1.142.602 1.966.983.824.38 1.712.761 2.663 1.173.982.412 1.997.792 3.043 1.173 2.441.951 5.199 1.933 8.242 3.011.127-5.135.824-10.715 2.124-16.738 1.268-6.023 3.011-12.267 5.167-18.766 2.155-6.467 4.723-13.092 7.703-19.844a277.059 277.059 0 019.795-19.971c.127-.127-.38-.349-1.49-.698-1.109-.348-2.504-.729-4.121-1.172a741.8 741.8 0 0117.625-2.283 323.627 323.627 0 0117.118-1.648c5.485-.38 10.557-.57 15.248-.57 4.692 0 8.686.284 12.014.855.476-.032.254-.634-.57-1.87z" fill="#fff"/><path d="M246.721 92.057c-.348-1.775-.761-3.265-1.204-4.47-.444-1.204-.92-1.997-1.427-2.409-1.109-.856-2.377-1.585-3.74-2.25-1.364-.666-2.6-1.205-3.741-1.585-1.11-.38-2.061-.603-2.79-.698-.729-.063-1.046.064-.887.412.412 1.395.665 3.234.729 5.453.063 2.25 0 4.691-.222 7.354a78.988 78.988 0 01-1.141 8.242c-.571 2.821-1.3 5.516-2.219 8.052-2.726-.761-4.755-2.473-6.055-5.104-1.3-2.631-1.363-6.15-.158-10.556a67.892 67.892 0 013.296-7.513c1.237-2.346 2.631-4.406 4.248-6.15.285-.285-.032-.729-.887-1.3-.888-.602-2.029-1.204-3.424-1.838a41.066 41.066 0 00-4.66-1.775 54.044 54.044 0 00-4.787-1.363c-.982-.222-2.25.602-3.835 2.472s-3.139 4.311-4.724 7.355c-1.585 3.043-3.011 6.467-4.311 10.302-1.3 3.804-2.219 7.577-2.726 11.285-.539 3.709-.476 7.133.158 10.24.634 3.106 2.061 5.515 4.312 7.195a62.936 62.936 0 005.357 3.741 63.797 63.797 0 005.833 3.265c1.933.951 3.772 1.68 5.516 2.156 1.743.475 3.265.634 4.501.412 2.441-.412 4.628-1.11 6.562-2.092a20.55 20.55 0 005.104-3.678 22.052 22.052 0 003.74-4.945c.539-.951 2.473-5.928 3.487-11.76.919-5.263.919-11.413.824-12.459-.095-2.219-.348-4.216-.729-5.99zm-22.57 28.562c-1.617 1.585-3.424 2.441-5.453 2.568-.126.126-.221-.127-.253-.856-.032-.698 0-1.712.095-3.044.095-1.331.285-2.916.571-4.723a171.26 171.26 0 011.046-5.896c1.109 1.205 2.377 2.282 3.74 3.265a28.063 28.063 0 004.47 2.631c-1.205 2.473-2.599 4.502-4.216 6.055zM88.856 266.565c.855 0 .855-1.299 0-1.299-.825 0-.825 1.299 0 1.299zm-4.439-25.106c.856 0 .856-1.3 0-1.3s-.856 1.3 0 1.3zm2.822-1.427c.856 0 .856-1.3 0-1.3-.824 0-.824 1.3 0 1.3zm8.908 20.067c.855 0 .855-1.3 0-1.3-.825 0-.825 1.3 0 1.3zm8.305-3.139c.856 0 .856-1.3 0-1.3-.825 0-.825 1.3 0 1.3zm9.637 9.605c.856 0 .856-1.299 0-1.299s-.856 1.299 0 1.299zm9.922-6.055c.855 0 .855-1.299 0-1.299-.856-.032-.856 1.299 0 1.299zm4.247-.507c.856 0 .856-1.299 0-1.299-.824-.032-.824 1.299 0 1.299zm3.963-17.435c.856 0 .856-1.299 0-1.299s-.856 1.299 0 1.299zm-.222-2.44c.856 0 .856-1.3 0-1.3-.824 0-.824 1.3 0 1.3zm-1.902.316c.856 0 .856-1.299 0-1.299s-.856 1.299 0 1.299zm-1.743 1.934c.855 0 .855-1.299 0-1.299-.825-.032-.825 1.299 0 1.299zm-9.32-2.124c.856 0 .856-1.299 0-1.299-.825-.032-.825 1.299 0 1.299zm4.787 3.139c.856 0 .856-1.3 0-1.3-.856-.031-.856 1.3 0 1.3zm-14.805-3.773c.856 0 .856-1.3 0-1.3-.824 0-.856 1.3 0 1.3zm-14.074-2.219c.856 0 .856-1.299 0-1.299s-.856 1.299 0 1.299zm111.013 1.205c.856 0 .856-1.299 0-1.299s-.856 1.299 0 1.299zm4.343-.507c.856 0 .856-1.3 0-1.3-.824 0-.824 1.3 0 1.3zm10.556.317c.856 0 .856-1.3 0-1.3s-.856 1.3 0 1.3zm.792 29.893c.856 0 .856-1.3 0-1.3-.824-.031-.824 1.3 0 1.3zm-11.031 0c.856 0 .856-1.3 0-1.3-.856-.031-.856 1.3 0 1.3zm-3.36 0c.856 0 .856-1.3 0-1.3-.824-.031-.824 1.3 0 1.3zm-6.182-7.925c.856 0 .856-1.3 0-1.3-.824 0-.824 1.3 0 1.3zm-7.386-2.409c.856 0 .856-1.3 0-1.3-.824-.031-.824 1.3 0 1.3zm2.631-13.377c.856 0 .856-1.3 0-1.3-.824 0-.824 1.3 0 1.3zm-5.262.823c.856 0 .856-1.299 0-1.299-.824-.032-.824 1.299 0 1.299zm10.747 0c.855 0 .855-1.299 0-1.299-.856-.032-.856 1.299 0 1.299zm-14.582.19c.855 0 .855-1.299 0-1.299-.856 0-.856 1.299 0 1.299zm-11.761-6.18c.856 0 .856-1.3 0-1.3-.824 0-.824 1.3 0 1.3zm3.36-1.015c.856 0 .856-1.3 0-1.3s-.856 1.3 0 1.3zm2.504-.824c.856 0 .856-1.3 0-1.3-.824 0-.824 1.3 0 1.3zm-24.694 8.939c.856 0 .856-1.3 0-1.3-.856-.032-.856 1.3 0 1.3zm6.467 10.017c.856 0 .856-1.3 0-1.3-.825 0-.825 1.3 0 1.3zm15.818 11.444c.856 0 .856-1.3 0-1.3s-.856 1.3 0 1.3zm18.323 6.499c.855 0 .855-1.3 0-1.3-.825-.032-.856 1.3 0 1.3zm-28.245 9.415c.856 0 .856-1.3 0-1.3-.856-.032-.856 1.3 0 1.3zm-10.334.094c.855 0 .855-1.3 0-1.3-.856 0-.856 1.3 0 1.3zm-4.058-.412c.856 0 .856-1.3 0-1.3s-.856 1.3 0 1.3zm-9.922 5.992c.856 0 .856-1.3 0-1.3-.856-.032-.856 1.3 0 1.3zm-9.922 3.233c.856 0 .856-1.299 0-1.299s-.856 1.299 0 1.299zm-8.306-9.225c.856 0 .856-1.3 0-1.3-.855 0-.855 1.3 0 1.3zm8.401-3.043c.856 0 .856-1.3 0-1.3s-.856 1.3 0 1.3zm3.043-5.96c.856 0 .856-1.299 0-1.299-.856-.032-.856 1.299 0 1.299zm9.827-1.838c.856 0 .856-1.3 0-1.3s-.856 1.3 0 1.3zm-8.622-9.731c.856 0 .856-1.3 0-1.3s-.856 1.3 0 1.3z" fill="#fff"/><path d="M137.769 263.427c.855 0 .855-1.3 0-1.3-.825 0-.825 1.3 0 1.3zm-6.055-11.032c.856 0 .856-1.299 0-1.299s-.856 1.299 0 1.299zm-3.138 1.332c.855 0 .855-1.3 0-1.3-.856-.031-.856 1.3 0 1.3zm-10.335-5.072c.856 0 .856-1.3 0-1.3s-.856 1.3 0 1.3zm.412 4.057c.856 0 .856-1.299 0-1.299-.856-.032-.856 1.299 0 1.299zm-9.732-1.521c.856 0 .856-1.3 0-1.3-.856-.032-.856 1.3 0 1.3zm-8.305-8.432c.856 0 .856-1.3 0-1.3s-.856 1.3 0 1.3zm-5.166 5.991c.855 0 .855-1.3 0-1.3-.857 0-.857 1.3 0 1.3zm9.224 20.256c.856 0 .856-1.3 0-1.3s-.856 1.3 0 1.3zm44.063 6.594c.856 0 .856-1.3 0-1.3-.856-.031-.856 1.3 0 1.3zm38.991 1.109c.856 0 .856-1.3 0-1.3s-.856 1.3 0 1.3zm-15.407-9.732c.856 0 .856-1.299 0-1.299-.824 0-.855 1.299 0 1.299zm-3.328-3.138c.856 0 .856-1.3 0-1.3s-.856 1.3 0 1.3zm-7.608 2.822c.856 0 .856-1.3 0-1.3s-.856 1.3 0 1.3zm-2.219-.096c.856 0 .856-1.299 0-1.299s-.856 1.299 0 1.299zm-1.522-.602c.856 0 .856-1.3 0-1.3s-.856 1.3 0 1.3zm-6.593-7.101c.855 0 .855-1.3 0-1.3-.825 0-.856 1.3 0 1.3zm.095-1.3c.856 0 .856-1.299 0-1.299-.824 0-.824 1.299 0 1.299zm1.617-.919c.856 0 .856-1.299 0-1.299-.825 0-.825 1.299 0 1.299zm7.1-2.219c.856 0 .856-1.3 0-1.3-.824 0-.855 1.3 0 1.3zm-.412-9.225c.856 0 .856-1.3 0-1.3-.824 0-.824 1.3 0 1.3zm1.744-3.74c.856 0 .856-1.3 0-1.3s-.856 1.3 0 1.3zm6.783.697c.856 0 .856-1.3 0-1.3s-.856 1.3 0 1.3zm-12.965 1.332c.856 0 .856-1.3 0-1.3s-.856 1.3 0 1.3zm-11.761-1.236c.856 0 .856-1.3 0-1.3s-.856 1.3 0 1.3zm78.394 25.931c.856 0 .856-1.3 0-1.3-.824 0-.824 1.3 0 1.3zm-34.235-2.823c.856 0 .856-1.299 0-1.299-.825 0-.825 1.299 0 1.299zm-60.579 1.998c.412 0 .412-.666 0-.666-.412.032-.412.666 0 .666zm-2.917 17.087c.634 0 .634-.983 0-.983s-.634.983 0 .983zm52.369-15.565c.412 0 .412-.666 0-.666-.444 0-.444.666 0 .666zm-8.939-15.185c.412 0 .412-.666 0-.666s-.412.666 0 .666zm5.579-4.058c.412 0 .412-.665 0-.665s-.412.665 0 .665zm-55.095 7.798c.412 0 .412-.665 0-.665s-.412.665 0 .665zm-24.504 3.551c.412 0 .412-.666 0-.666s-.412.666 0 .666zm4.153-17.53c.412 0 .412-.666 0-.666-.413 0-.413.666 0 .666zm81.12 14.138c.634 0 .634-.983 0-.983s-.634.983 0 .983z" fill="#fff"/><path d="M167.345 254.202c.856 0 .856-1.3 0-1.3-.824 0-.824 1.3 0 1.3zm-40.291-9.065c1.68 0 1.68-2.6 0-2.6s-1.68 2.6 0 2.6zm17.118 21.999c1.68 0 1.68-2.6 0-2.6-1.68-.031-1.68 2.6 0 2.6zm-9.13-10.556c1.68 0 1.68-2.6 0-2.6s-1.68 2.6 0 2.6zm15.407-10.43c1.68 0 1.68-2.599 0-2.599-1.681 0-1.681 2.599 0 2.599zm-2.853-7.291c1.68 0 1.68-2.599 0-2.599-1.681 0-1.681 2.599 0 2.599zm21.682.508c1.68 0 1.68-2.599 0-2.599s-1.68 2.599 0 2.599zm-6.784-.286c1.681 0 1.681-2.599 0-2.599-1.68-.032-1.68 2.599 0 2.599zm30.084-.507c1.68 0 1.68-2.599 0-2.599-1.68-.032-1.68 2.599 0 2.599zm12.458 3.234c1.68 0 1.68-2.6 0-2.6-1.68-.031-1.68 2.6 0 2.6zm-7.386-.413c1.68 0 1.68-2.599 0-2.599s-1.68 2.599 0 2.599zm8.083 30.179c1.68 0 1.68-2.599 0-2.599s-1.68 2.599 0 2.599zm-6.783-.603c1.68 0 1.68-2.599 0-2.599-1.681 0-1.681 2.599 0 2.599zm-5.041-2.821c1.68 0 1.68-2.599 0-2.599-1.68-.032-1.712 2.599 0 2.599zm-16.23-7.196c1.68 0 1.68-2.599 0-2.599-1.681-.032-1.681 2.599 0 2.599zm-6.657 0c1.68 0 1.68-2.599 0-2.599-1.712-.032-1.712 2.599 0 2.599zm-6.087-3.359c1.68 0 1.68-2.6 0-2.6s-1.68 2.6 0 2.6zm14.17-9.099c1.68 0 1.68-2.599 0-2.599-1.68-.032-1.68 2.599 0 2.599zm-5.864-2.947c1.68 0 1.68-2.6 0-2.6-1.681 0-1.681 2.6 0 2.6zm12.648 3.137c1.68 0 1.68-2.599 0-2.599s-1.68 2.599 0 2.599zm-32.81 37.882c1.681 0 1.681-2.599 0-2.599-1.68 0-1.68 2.599 0 2.599zm-7.1.413c1.68 0 1.68-2.6 0-2.6-1.68-.032-1.68 2.6 0 2.6zm-5.262-3.044c1.68 0 1.68-2.599 0-2.599s-1.68 2.599 0 2.599zm8.305-14.075c1.68 0 1.68-2.599 0-2.599s-1.68 2.599 0 2.599zm7.196-.316c1.68 0 1.68-2.6 0-2.6-1.681 0-1.681 2.6 0 2.6zm-33.412-6.15c1.68 0 1.68-2.6 0-2.6-1.68-.032-1.712 2.6 0 2.6zm-7.006.094c1.68 0 1.68-2.599 0-2.599-1.68-.032-1.68 2.599 0 2.599zm-5.452-3.137c1.68 0 1.68-2.6 0-2.6-1.68-.031-1.712 2.6 0 2.6zm96.21 4.786c1.458 0 1.489-2.283 0-2.283-1.459 0-1.459 2.283 0 2.283zm6.498 9.795c1.299 0 1.299-2.029 0-2.029-1.332 0-1.332 2.029 0 2.029zm5.769.507c1.3 0 1.3-2.029 0-2.029s-1.331 2.029 0 2.029zm-3.55-22.475c1.3 0 1.3-2.028 0-2.028s-1.3 2.028 0 2.028zm2.916-7.291c1.3 0 1.3-2.029 0-2.029s-1.3 2.029 0 2.029zm15.724-.221c1.299 0 1.299-2.029 0-2.029-1.3 0-1.3 2.029 0 2.029zm-22 .316c1.299 0 1.299-2.029 0-2.029-1.3 0-1.3 2.029 0 2.029zm-19.147 6.688c1.299 0 1.299-2.028 0-2.028-1.3 0-1.3 2.028 0 2.028zm6.403.096c1.3 0 1.3-2.029 0-2.029s-1.3 2.029 0 2.029z" fill="#fff"/><path d="M197.84 254.488c1.3 0 1.3-2.029 0-2.029s-1.3 2.029 0 2.029zm-4.565-8.813c1.3 0 1.3-2.029 0-2.029s-1.3 2.029 0 2.029zm4.787-2.441c1.3 0 1.3-2.029 0-2.029-1.331 0-1.331 2.029 0 2.029zm5.96 20.764c1.299 0 1.299-2.029 0-2.029-1.3 0-1.3 2.029 0 2.029zm-10.113 11.348c1.3 0 1.3-2.029 0-2.029-1.331 0-1.331 2.029 0 2.029zm8.084-.095c1.3 0 1.3-2.028 0-2.028s-1.3 2.028 0 2.028zm-3.329 8.908c1.3 0 1.3-2.029 0-2.029-1.299 0-1.299 2.029 0 2.029zm-13.694-10.525c1.3 0 1.3-2.029 0-2.029s-1.3 2.029 0 2.029zm-.888-3.264c1.3 0 1.3-2.029 0-2.029s-1.331 2.029 0 2.029zm6.784-5.263c1.3 0 1.3-2.029 0-2.029s-1.3 2.029 0 2.029zm-6.087.223c1.3 0 1.3-2.029 0-2.029-1.299 0-1.299 2.029 0 2.029zm-1.711-7.197c1.299 0 1.299-2.029 0-2.029-1.3 0-1.3 2.029 0 2.029zm-4.47 3.836c1.3 0 1.3-2.029 0-2.029s-1.3 2.029 0 2.029zm3.455-9.224c1.3 0 1.3-2.029 0-2.029-1.299 0-1.299 2.029 0 2.029zm-5.674 1.013c1.3 0 1.3-2.029 0-2.029s-1.3 2.029 0 2.029zm-1.839-1.204c1.3 0 1.3-2.029 0-2.029-1.299 0-1.299 2.029 0 2.029zm7.703-9.32c1.3 0 1.3-2.029 0-2.029-1.299 0-1.299 2.029 0 2.029zm2.346-1.838c1.3 0 1.3-2.029 0-2.029-1.299.032-1.331 2.029 0 2.029z" fill="#fff"/><path d="M183.068 240.793c1.299 0 1.299-2.028 0-2.028-1.3 0-1.3 2.028 0 2.028zm-18.545 7.513c1.3 0 1.3-2.029 0-2.029s-1.3 2.029 0 2.029zm-1.331 2.409c1.299 0 1.299-2.028 0-2.028-1.3 0-1.3 2.028 0 2.028z" fill="#fff"/><path d="M161.797 252.142c1.3 0 1.3-2.029 0-2.029s-1.3 2.029 0 2.029zm2.536-9.32c1.3 0 1.3-2.029 0-2.029-1.331 0-1.331 2.029 0 2.029zm11.539.602c1.299 0 1.299-2.028 0-2.028-1.3 0-1.3 2.028 0 2.028zm-5.357 2.251c1.299 0 1.299-2.029 0-2.029-1.332 0-1.332 2.029 0 2.029zm8.59 5.167c1.3 0 1.3-2.029 0-2.029s-1.3 2.029 0 2.029zm21.588-5.072c1.3 0 1.3-2.029 0-2.029s-1.3 2.029 0 2.029zm-29.988 28.245c1.299 0 1.299-2.029 0-2.029-1.3 0-1.3 2.029 0 2.029z" fill="#fff"/><path d="M169.278 273.73c1.3 0 1.3-2.029 0-2.029s-1.3 2.029 0 2.029zm2.441 1.807c1.3 0 1.3-2.029 0-2.029s-1.3 2.029 0 2.029zm9.827 15.311c1.3 0 1.3-2.029 0-2.029s-1.3 2.029 0 2.029zm2.821-2.949c1.3 0 1.3-2.029 0-2.029-1.299 0-1.299 2.029 0 2.029zm-28.054-9.732c1.3 0 1.3-2.028 0-2.028s-1.3 2.028 0 2.028zm6.879-4.342c1.299 0 1.299-2.029 0-2.029-1.3 0-1.3 2.029 0 2.029zm1.141-8.21c1.3 0 1.3-2.029 0-2.029-1.331 0-1.331 2.029 0 2.029z" fill="#fff"/><path d="M165.632 265.107c1.3 0 1.3-2.029 0-2.029-1.299 0-1.299 2.029 0 2.029zm11.032-1.616c1.3 0 1.3-2.029 0-2.029-1.299 0-1.299 2.029 0 2.029zm-2.726 1.331c1.3 0 1.3-2.029 0-2.029s-1.3 2.029 0 2.029zm-19.527-.824c1.3 0 1.3-2.029 0-2.029-1.331 0-1.331 2.029 0 2.029zm-.222-2.029c1.3 0 1.3-2.029 0-2.029s-1.3 2.029 0 2.029zm2.124-1.712c1.3 0 1.3-2.028 0-2.028s-1.3 2.028 0 2.028zm4.469 3.328c1.3 0 1.3-2.028 0-2.028-1.299 0-1.299 2.028 0 2.028zm-9.319 3.963c1.299 0 1.299-2.028 0-2.028-1.3 0-1.3 2.028 0 2.028zm.793 5.959c1.299 0 1.299-2.028 0-2.028-1.3 0-1.3 2.028 0 2.028zm-1.015 6.182c1.3 0 1.3-2.029 0-2.029s-1.3 2.029 0 2.029zm-2.124 3.139c1.3 0 1.3-2.029 0-2.029s-1.3 2.029 0 2.029zm-.285 8.304c1.299 0 1.299-2.028 0-2.028-1.3 0-1.3 2.028 0 2.028zm-7.894-.189c1.3 0 1.3-2.029 0-2.029-1.331 0-1.331 2.029 0 2.029zm5.041 10.968c1.299 0 1.299-2.029 0-2.029-1.3 0-1.3 2.029 0 2.029zm-14.772 5.041c1.299 0 1.299-2.029 0-2.029-1.3 0-1.3 2.029 0 2.029zm29.069-15.914c1.299 0 1.299-2.029 0-2.029-1.3 0-1.3 2.029 0 2.029zm5.864.412c1.3 0 1.3-2.029 0-2.029s-1.3 2.029 0 2.029zm-31.89-4.755c1.3 0 1.3-2.029 0-2.029s-1.332 2.029 0 2.029zm-2.441-.412c1.299 0 1.299-2.029 0-2.029-1.3 0-1.3 2.029 0 2.029zm-12.553 4.66c1.299 0 1.299-2.029 0-2.029-1.3 0-1.3 2.029 0 2.029zm-3.234-14.677c1.3 0 1.3-2.029 0-2.029-1.331 0-1.331 2.029 0 2.029zm5.96-2.441c1.299 0 1.299-2.029 0-2.029-1.3 0-1.3 2.029 0 2.029zm4.152 2.536c1.3 0 1.3-2.029 0-2.029-1.299 0-1.299 2.029 0 2.029zm-25.328 3.836c1.3 0 1.3-2.029 0-2.029s-1.3 2.029 0 2.029zm35.06-12.554c1.3 0 1.3-2.029 0-2.029-1.299 0-1.299 2.029 0 2.029z" fill="#fff"/><path d="M134.63 269.165c1.3 0 1.3-2.029 0-2.029s-1.3 2.029 0 2.029zm5.991 3.456c1.3 0 1.3-2.029 0-2.029-1.299 0-1.299 2.029 0 2.029zm3.836 1.013c1.3 0 1.3-2.029 0-2.029s-1.3 2.029 0 2.029zm-1.712-13.789c1.3 0 1.3-2.029 0-2.029-1.299 0-1.299 2.029 0 2.029zm.603 3.962c1.3 0 1.3-2.029 0-2.029s-1.3 2.029 0 2.029z" fill="#fff"/><path d="M144.679 264.822c1.3 0 1.3-2.029 0-2.029s-1.3 2.029 0 2.029zm2.916-9.13c1.3 0 1.3-2.029 0-2.029-1.299 0-1.299 2.029 0 2.029zm4.882-3.138c1.3 0 1.3-2.029 0-2.029-1.299 0-1.299 2.029 0 2.029zm-6.181-2.029c1.299 0 1.299-2.029 0-2.029-1.3 0-1.3 2.029 0 2.029z" fill="#fff"/><path d="M145.883 252.364c1.3 0 1.3-2.029 0-2.029-1.299 0-1.299 2.029 0 2.029zm9.511-2.536c1.299 0 1.299-2.029 0-2.029-1.3 0-1.3 2.029 0 2.029z" fill="#fff"/><path d="M157.232 250.43c1.3 0 1.3-2.029 0-2.029s-1.3 2.029 0 2.029zm0-7.196c1.3 0 1.3-2.029 0-2.029s-1.3 2.029 0 2.029zm-22.285.19c1.3 0 1.3-2.028 0-2.028s-1.3 2.028 0 2.028zm-6.276 2.758c1.299 0 1.299-2.029 0-2.029-1.3 0-1.3 2.029 0 2.029zm-2.124 1.712c1.299 0 1.299-2.029 0-2.029-1.3 0-1.3 2.029 0 2.029zm-5.77-.316c1.3 0 1.3-2.029 0-2.029-1.299 0-1.331 2.029 0 2.029zm-5.674-5.548c1.299 0 1.299-2.029 0-2.029-1.3 0-1.3 2.029 0 2.029zm-22.887 1.3c1.3 0 1.3-2.029 0-2.029s-1.332 2.029 0 2.029zm.38 6.592c1.3 0 1.3-2.028 0-2.028s-1.3 2.028 0 2.028zm.126 10.114c1.3 0 1.3-2.029 0-2.029s-1.33 2.029 0 2.029zm8.496 2.535c1.3 0 1.3-2.029 0-2.029s-1.3 2.029 0 2.029zm4.47-.411c1.3 0 1.3-2.029 0-2.029-1.331.032-1.331 2.029 0 2.029zm4.343-14.678c1.3 0 1.3-2.029 0-2.029s-1.3 2.029 0 2.029zm-8.115.507c1.299 0 1.299-2.029 0-2.029-1.3 0-1.3 2.029 0 2.029zm3.36-2.822c1.3 0 1.3-2.028 0-2.028s-1.3 2.028 0 2.028zm7.988 18.736c1.3 0 1.3-2.029 0-2.029-1.299 0-1.299 2.029 0 2.029zm-2.219 3.645c1.3 0 1.3-2.028 0-2.028s-1.3 2.028 0 2.028zm7.894 0c1.299 0 1.299-2.028 0-2.028-1.3 0-1.3 2.028 0 2.028zm9.636-4.248c1.3 0 1.3-2.029 0-2.029-1.299 0-1.299 2.029 0 2.029zm1.522 4.439c1.3 0 1.3-2.029 0-2.029s-1.331 2.029 0 2.029zm-8.717-12.142c1.299 0 1.299-2.029 0-2.029-1.3 0-1.3 2.029 0 2.029zm-1.332 3.138c1.3 0 1.3-2.029 0-2.029s-1.3 2.029 0 2.029zm5.991.413c1.3 0 1.3-2.029 0-2.029-1.299 0-1.299 2.029 0 2.029zm8.306-9.226c1.3 0 1.3-2.028 0-2.028s-1.3 2.028 0 2.028zm4.057.699c1.3 0 1.3-2.029 0-2.029-1.299 0-1.331 2.029 0 2.029z" fill="#fff"/><path d="M139.924 249.701c1.3 0 1.3-2.029 0-2.029-1.332.032-1.332 2.029 0 2.029zm25.708-6.055c1.3 0 1.3-2.029 0-2.029-1.299 0-1.299 2.029 0 2.029zm-29.861 20.035c1.3 0 1.3-2.029 0-2.029-1.331 0-1.331 2.029 0 2.029zm-18.861-12.744c1.3 0 1.3-2.029 0-2.029s-1.3 2.029 0 2.029zm-1.902-1.616c1.3 0 1.3-2.029 0-2.029-1.332 0-1.332 2.029 0 2.029zm7.893.601c1.3 0 1.3-2.028 0-2.028s-1.3 2.028 0 2.028zm-16.198 6.594c1.299 0 1.299-2.029 0-2.029-1.332 0-1.332 2.029 0 2.029zm.507-12.902c1.68 0 1.68-2.599 0-2.599-1.712 0-1.712 2.599 0 2.599zm-5.389-3.423c1.68 0 1.68-2.6 0-2.6-1.68-.032-1.68 2.6 0 2.6zm12.362 3.328c1.681 0 1.681-2.599 0-2.599-1.68 0-1.68 2.599 0 2.599zm6.087 1.839c1.68 0 1.68-2.599 0-2.599-1.68-.032-1.68 2.599 0 2.599zm23.173 1.522c1.68 0 1.68-2.599 0-2.599-1.68-.032-1.68 2.599 0 2.599zm-5.263-2.949c1.681 0 1.681-2.599 0-2.599-1.68 0-1.68 2.599 0 2.599zm9.225 15.788c1.68 0 1.68-2.6 0-2.6s-1.68 2.6 0 2.6zm-7.196-.286c1.68 0 1.68-2.6 0-2.6-1.68-.031-1.68 2.6 0 2.6zm2.853-10.937c.634 0 .634-.982 0-.982s-.634.982 0 .982z" fill="#fff"/><path d="M141.953 247.165c.634 0 .634-.982 0-.982s-.634.982 0 .982zm-.634 2.346c.634 0 .634-.983 0-.983s-.634.983 0 .983zm-15.882-11.666c.634 0 .634-.983 0-.983s-.634.983 0 .983zm-19.654 8.623c.634 0 .634-.983 0-.983s-.634.983 0 .983zm23.49 18.925c.634 0 .634-.983 0-.983s-.634.983 0 .983zm9.51-4.945c.634 0 .634-.983 0-.983-.603 0-.603.983 0 .983zm9.732-3.869c.634 0 .634-.982 0-.982s-.634.982 0 .982zm29.291-4.754c.634 0 .634-.983 0-.983s-.634.983 0 .983zM89.68 266.597c.221 0 .221-.317 0-.317-.222-.031-.222.317 0 .317zm9.32 6.974c.221 0 .221-.317 0-.317-.222 0-.222.317 0 .317zm34.616.602c.222 0 .222-.317 0-.317-.19 0-.19.317 0 .317zm46.599 8.21c.222 0 .222-.317 0-.317-.19 0-.19.317 0 .317z" fill="#fff"/><path d="M233.915 233.091H84.417v3.804h149.498v-3.804zm1.584 41.97c.856 0 .856-1.299 0-1.299-.824 0-.824 1.299 0 1.299zm-4.311-2.79c1.68 0 1.68-2.599 0-2.599s-1.68 2.599 0 2.599zm-2.884-15.121c.856 0 .856-1.299 0-1.299-.825 0-.825 1.299 0 1.299zm-3.139-1.457c.634 0 .634-.983 0-.983s-.634.983 0 .983z" fill="#fff"/></svg>