<svg width="109" height="107" fill="none" xmlns="http://www.w3.org/2000/svg"><path d="M4.419 2.493h1.554v14.04H4.42V8.53H2.018v8.003H.463V2.493h1.555v4.459h2.4V2.493zm12.69 11.342h-2.767l-.32 2.698h-1.555l1.6-14.04h3.316l1.624 14.04h-1.578l-.32-2.699zm-.16-1.418l-.96-8.369h-.526l-.96 8.369h2.446zm12.301 4.115V7.614l-2.309 2.333v6.585h-1.555V2.492h1.555V8.05l2.31-2.401V2.492h1.554v14.04H29.25zm.343-15.503h-2.95V0h2.95v1.029zm11.159 5.923c.389 0 .732.069 1.006.183a1.8 1.8 0 01.663.457c.16.206.297.435.366.686.092.252.114.549.114.846v5.26c0 .388-.068.73-.183 1.005a1.8 1.8 0 01-.457.663 1.98 1.98 0 01-.686.366c-.251.092-.549.115-.846.115h-3.041V2.493h4.802v1.555h-3.247v2.881h1.509v.023zm.594 2.15a.753.753 0 00-.137-.435c-.091-.114-.251-.183-.48-.183h-1.486v6.47h1.486a.66.66 0 00.434-.136c.115-.092.184-.252.184-.48V9.1zm13.743-6.609v14.04h-1.555V4.07h-1.783l-.458 10.54c-.023.641-.16 1.144-.411 1.464-.252.32-.71.48-1.35.48h-.845V15h.64c.16 0 .274-.023.32-.069.046-.046.069-.16.091-.32l.526-12.096h4.825v-.023zm10.746 14.04V7.615l-2.309 2.332v6.586h-1.555V2.493h1.555V8.05l2.31-2.4V2.493h1.554v14.04h-1.555zm9.65-8.781l-1.76-5.259h1.645l1.532 4.596h1.19V2.493h1.554V7.09h1.166l1.532-4.596h1.647l-1.76 5.26 1.874 8.78h-1.6l-1.738-8.118h-1.144v8.118H78.07V8.415h-1.144l-1.737 8.118h-1.601l1.898-8.78zM95.31 2.493v14.04h-1.58v-4.46h-1.577c-.298 0-.572-.045-.846-.114-.252-.091-.503-.205-.686-.365-.206-.16-.343-.39-.458-.663a2.634 2.634 0 01-.183-1.007V2.516h1.555v7.408c0 .23.069.39.183.48a.66.66 0 00.435.138h1.577V2.516h1.578v-.023zm11.203 11.342h-2.766l-.321 2.698h-1.554l1.6-14.04h3.316l1.623 14.04h-1.578l-.32-2.699zm-.16-1.418l-.96-8.369h-.526l-.96 8.369h2.446zm-95.12 8.597v28.33H8.1V24.17H3.595v25.175H.463v-28.33h10.77zm15.137 0v3.132h-6.29v5.831h4.733v3.178H20.08v13.01h6.288v3.18h-9.42V21.013h9.42zm5.007 0h3.133v9.26h2.698l3.11-9.26h3.338l-3.544 10.61 3.795 17.697h-3.224l-3.498-16.394h-2.653v16.417H31.4v-28.33h-.023zm25.381 22.888h-5.602l-.663 5.42H47.36l3.224-28.308h6.7l3.27 28.33h-3.178l-.618-5.442zm-.343-2.858L54.45 24.146h-1.052l-1.92 16.898h4.938zM75.76 35.99c0 .8-.115 1.464-.344 2.013-.228.548-.549 1.006-.96 1.349a3.847 3.847 0 01-1.418.754 5.82 5.82 0 01-1.692.252h-2.904v8.986H65.31v-28.33h6.036c.778 0 1.463.114 2.012.343a3.95 3.95 0 011.372.937c.343.389.617.846.778 1.395a5.94 5.94 0 01.251 1.692v10.61zm-3.18-10.609c0-.32-.09-.617-.274-.846-.182-.252-.503-.366-.96-.366h-2.904v13.056h2.904c.343 0 .64-.091.869-.274.229-.183.343-.503.343-.96V25.38h.023zm16.35-4.367h3.155v28.33h-3.132V33.178h-4.87v16.166H80.95v-28.33h3.132v9.009h4.848v-9.01zm19.275 0v28.33h-3.132V35.808h-1.807l-3.109 13.536h-3.224l3.132-13.742a3.925 3.925 0 01-1.966-1.35c-.526-.662-.778-1.6-.778-2.812v-6.036c0-.595.092-1.166.252-1.692s.411-.983.754-1.395a3.478 3.478 0 011.35-.938c.548-.228 1.234-.343 2.012-.343h6.516v-.022zm-3.155 3.155h-3.338c-.458 0-.778.114-.961.366a1.387 1.387 0 00-.274.846v6.037c0 .434.114.754.366.937.251.183.526.274.846.274h3.338v-8.46h.023zM3.664 77.218c.618 0 .618-.938 0-.938-.594 0-.594.938 0 .938zM.463 59.108c.617 0 .617-.937 0-.937s-.617.937 0 .937zm2.035-1.028c.617 0 .617-.938 0-.938-.594 0-.594.937 0 .937zm6.425 14.472c.618 0 .618-.938 0-.938-.594 0-.594.938 0 .938zm5.991-2.264c.617 0 .617-.937 0-.937-.594 0-.594.937 0 .937zm6.951 6.93c.618 0 .618-.938 0-.938-.617 0-.617.938 0 .938zm7.157-4.369c.618 0 .618-.938 0-.938-.617-.022-.617.938 0 .938zm3.064-.365c.617 0 .617-.938 0-.938-.595-.023-.595.938 0 .938zm2.858-12.577c.618 0 .618-.937 0-.937-.617 0-.617.937 0 .937zm-.16-1.759c.618 0 .618-.937 0-.937-.594 0-.594.937 0 .937zm-1.372.228c.618 0 .618-.938 0-.938-.617 0-.617.938 0 .938zm-1.257 1.394c.617 0 .617-.937 0-.937-.595-.023-.595.938 0 .938zm-6.723-1.532c.618 0 .618-.938 0-.938-.594-.023-.594.938 0 .938zm3.453 2.263c.617 0 .617-.937 0-.937-.618-.023-.618.937 0 .937zm-10.679-2.72c.618 0 .618-.937 0-.937-.594 0-.617.937 0 .937zM8.054 56.18c.618 0 .618-.937 0-.937-.617 0-.617.938 0 .938zm80.076.87c.617 0 .617-.938 0-.938-.618 0-.618.938 0 .938zm3.132-.367c.618 0 .618-.938 0-.938-.594 0-.594.938 0 .938zm7.614.229c.617 0 .617-.937 0-.937s-.617.937 0 .937zm.572 21.563c.617 0 .617-.938 0-.938-.595-.022-.595.938 0 .938zm-7.958 0c.618 0 .618-.938 0-.938-.616-.022-.616.938 0 .938zm-2.423 0c.617 0 .617-.938 0-.938-.594-.022-.594.938 0 .938zm-4.459-5.717c.617 0 .617-.938 0-.938-.595 0-.595.938 0 .938zM79.28 71.02c.618 0 .618-.937 0-.937-.594-.022-.594.938 0 .938zm1.898-9.649c.618 0 .618-.937 0-.937-.594 0-.594.937 0 .937zm-3.795.594c.617 0 .617-.937 0-.937-.595-.023-.595.937 0 .937zm7.751 0c.617 0 .617-.937 0-.937-.617-.023-.617.937 0 .937zm-10.518.138c.617 0 .617-.937 0-.937s-.617.938 0 .938zm-8.483-4.459c.617 0 .617-.938 0-.938-.595 0-.595.938 0 .938zm2.424-.732c.617 0 .617-.937 0-.937-.618 0-.618.937 0 .937zm1.806-.595c.617 0 .617-.937 0-.937-.595 0-.595.937 0 .937zM52.55 62.766c.618 0 .618-.938 0-.938-.616-.022-.616.938 0 .938zm4.665 7.225c.618 0 .618-.937 0-.937-.594 0-.594.937 0 .937zm11.41 8.254c.618 0 .618-.937 0-.937-.617 0-.617.937 0 .937zm13.217 4.689c.617 0 .617-.938 0-.938-.595-.022-.618.938 0 .938zm-20.374 6.791c.618 0 .618-.938 0-.938-.617-.022-.617.938 0 .938zm-7.454.068c.618 0 .618-.938 0-.938-.617 0-.617.938 0 .938zm-2.927-.296c.618 0 .618-.937 0-.937-.617 0-.617.937 0 .937zm-7.157 4.32c.618 0 .618-.938 0-.938-.617-.023-.617.938 0 .938zm-7.156 2.333c.617 0 .617-.938 0-.938-.618 0-.618.937 0 .937zm-5.991-6.653c.617 0 .617-.937 0-.937s-.617.937 0 .937zm6.059-2.197c.617 0 .617-.937 0-.937s-.617.938 0 .938zm2.195-4.298c.618 0 .618-.937 0-.937-.617-.023-.617.937 0 .937zm7.089-1.326c.617 0 .617-.938 0-.938-.618 0-.618.938 0 .938zm-6.22-7.019c.617 0 .617-.937 0-.937s-.617.937 0 .937z" fill="#000"/><path d="M38.946 74.953c.617 0 .617-.937 0-.937-.595 0-.595.937 0 .937zm-4.368-7.958c.618 0 .618-.937 0-.937-.617 0-.617.937 0 .937zm-2.263.961c.617 0 .617-.938 0-.938-.618-.023-.618.938 0 .938zm-7.455-3.658c.618 0 .618-.938 0-.938-.617 0-.617.938 0 .938zm.298 2.926c.617 0 .617-.938 0-.938-.617-.022-.617.938 0 .938zm-7.02-1.097c.618 0 .618-.937 0-.937-.617-.023-.617.937 0 .937zm-5.991-6.082c.617 0 .617-.938 0-.938s-.617.938 0 .938zM8.42 64.366c.617 0 .617-.937 0-.937s-.617.937 0 .937zm6.654 14.611c.617 0 .617-.938 0-.938s-.617.938 0 .938zm31.783 4.756c.617 0 .617-.938 0-.938-.617-.023-.617.938 0 .938zm28.125.801c.617 0 .617-.937 0-.937-.618 0-.618.937 0 .937zm-11.113-7.019c.617 0 .617-.938 0-.938-.594 0-.617.938 0 .938zm-2.401-2.264c.618 0 .618-.938 0-.938-.617 0-.617.938 0 .938zm-5.488 2.034c.618 0 .618-.937 0-.937-.617 0-.617.937 0 .937zm-1.6-.067c.617 0 .617-.938 0-.938s-.617.938 0 .938zm-1.098-.435c.618 0 .618-.937 0-.937-.617 0-.617.937 0 .937zm-4.756-5.122c.618 0 .618-.937 0-.937-.594 0-.617.937 0 .937zm.069-.937c.617 0 .617-.938 0-.938-.595 0-.595.938 0 .938zm1.166-.664c.618 0 .618-.937 0-.937-.594 0-.594.938 0 .938zm5.122-1.6c.618 0 .618-.938 0-.938-.594 0-.617.938 0 .938zm-.297-6.654c.617 0 .617-.938 0-.938-.595 0-.595.938 0 .938zm1.257-2.698c.618 0 .618-.937 0-.937-.617 0-.617.937 0 .937zm4.893.502c.618 0 .618-.937 0-.937-.617 0-.617.937 0 .937zm-9.352.96c.618 0 .618-.937 0-.937-.617 0-.617.937 0 .937zm-8.483-.89c.618 0 .618-.938 0-.938-.617 0-.617.938 0 .938zm56.547 18.703c.617 0 .617-.938 0-.938-.595 0-.595.938 0 .938zm-24.695-2.035c.617 0 .617-.938 0-.938-.594 0-.594.938 0 .938zm-43.696 1.44c.297 0 .297-.48 0-.48-.297.022-.297.48 0 .48zm-2.104 12.324c.458 0 .458-.709 0-.709-.457 0-.457.71 0 .71zm37.774-11.227c.298 0 .298-.48 0-.48-.32 0-.32.48 0 .48zM60.28 67.934c.296 0 .296-.48 0-.48-.298 0-.298.48 0 .48zm4.023-2.927c.298 0 .298-.48 0-.48-.297 0-.297.48 0 .48zm-39.74 5.625c.297 0 .297-.48 0-.48s-.297.48 0 .48zM6.888 73.193c.298 0 .298-.48 0-.48-.297 0-.297.48 0 .48zm2.996-12.645c.297 0 .297-.48 0-.48-.298 0-.298.48 0 .48zm58.513 10.199c.457 0 .457-.709 0-.709-.458 0-.458.709 0 .709z" fill="#000"/><path d="M60.28 68.299c.617 0 .617-.938 0-.938-.595 0-.595.938 0 .938zM31.217 61.76c1.212 0 1.212-1.875 0-1.875s-1.212 1.875 0 1.875zm12.348 15.868c1.212 0 1.212-1.875 0-1.875-1.212-.023-1.212 1.875 0 1.875zm-6.585-7.613c1.211 0 1.211-1.875 0-1.875-1.213 0-1.213 1.875 0 1.875zm11.112-7.524c1.212 0 1.212-1.875 0-1.875s-1.212 1.875 0 1.875zm-2.058-5.259c1.212 0 1.212-1.875 0-1.875s-1.212 1.875 0 1.875zm15.64.367c1.212 0 1.212-1.875 0-1.875s-1.212 1.875 0 1.875zm-4.893-.206c1.212 0 1.212-1.875 0-1.875-1.212-.023-1.212 1.875 0 1.875zm21.699-.367c1.212 0 1.212-1.874 0-1.874-1.212-.023-1.212 1.874 0 1.874zm8.986 2.334c1.212 0 1.212-1.875 0-1.875-1.211-.023-1.211 1.875 0 1.875zm-5.327-.298c1.212 0 1.212-1.875 0-1.875s-1.212 1.875 0 1.875zM87.97 80.83c1.211 0 1.211-1.876 0-1.876-1.212 0-1.212 1.875 0 1.875zm-4.894-.435c1.212 0 1.212-1.874 0-1.874-1.211 0-1.211 1.874 0 1.874zM79.44 78.36c1.212 0 1.212-1.874 0-1.874-1.211-.023-1.234 1.874 0 1.874zm-11.706-5.19c1.212 0 1.212-1.876 0-1.876-1.212-.023-1.212 1.875 0 1.875zm-4.803 0c1.212 0 1.212-1.876 0-1.876-1.234-.023-1.234 1.875 0 1.875zm-4.389-2.424c1.212 0 1.212-1.875 0-1.875s-1.212 1.875 0 1.875zm10.22-6.562c1.212 0 1.212-1.875 0-1.875-1.212-.023-1.212 1.875 0 1.875zm-4.23-2.127c1.212 0 1.212-1.875 0-1.875-1.211 0-1.211 1.875 0 1.875zm9.124 2.264c1.211 0 1.211-1.875 0-1.875-1.212 0-1.212 1.875 0 1.875zM49.99 91.645c1.212 0 1.212-1.874 0-1.874s-1.212 1.874 0 1.874zm-5.122.298c1.212 0 1.212-1.875 0-1.875-1.212-.023-1.212 1.875 0 1.875zm-3.796-2.196c1.212 0 1.212-1.875 0-1.875s-1.212 1.875 0 1.875zm5.991-10.152c1.212 0 1.212-1.875 0-1.875s-1.212 1.875 0 1.875zm5.191-.229c1.212 0 1.212-1.875 0-1.875s-1.212 1.875 0 1.875zm-24.101-4.434c1.212 0 1.212-1.875 0-1.875-1.211-.023-1.234 1.875 0 1.875zm-5.053.066c1.212 0 1.212-1.875 0-1.875-1.212-.023-1.212 1.875 0 1.875zm-3.933-2.262c1.212 0 1.212-1.875 0-1.875-1.212-.023-1.235 1.874 0 1.874zm69.397 3.451c1.052 0 1.074-1.646 0-1.646-1.052 0-1.052 1.646 0 1.646zm4.687 7.067c.938 0 .938-1.463 0-1.463-.96 0-.96 1.463 0 1.463zm4.162.365c.937 0 .937-1.464 0-1.464-.938 0-.96 1.464 0 1.464zm-2.561-16.211c.938 0 .938-1.464 0-1.464-.937 0-.937 1.464 0 1.464zm2.104-5.259c.937 0 .937-1.464 0-1.464-.938 0-.938 1.464 0 1.464zm11.341-.161c.937 0 .937-1.464 0-1.464-.938 0-.938 1.464 0 1.464zm-15.869.229c.938 0 .938-1.463 0-1.463-.937 0-.937 1.463 0 1.463zm-13.811 4.826c.938 0 .938-1.464 0-1.464-.937 0-.937 1.464 0 1.464zm4.619.069c.938 0 .938-1.464 0-1.464-.937 0-.937 1.464 0 1.464z" fill="#000"/><path d="M82.276 68.504c.937 0 .937-1.463 0-1.463-.938 0-.938 1.463 0 1.463zm-3.293-6.355c.938 0 .938-1.464 0-1.464-.937 0-.937 1.464 0 1.464zm3.453-1.762c.938 0 .938-1.463 0-1.463-.96 0-.96 1.463 0 1.463zm4.299 14.978c.937 0 .937-1.464 0-1.464-.938 0-.938 1.464 0 1.464zM79.44 83.55c.938 0 .938-1.463 0-1.463-.96 0-.96 1.463 0 1.463zm5.832-.067c.937 0 .937-1.464 0-1.464-.938 0-.938 1.464 0 1.464zm-2.402 6.424c.938 0 .938-1.464 0-1.464-.937 0-.937 1.464 0 1.464zm-9.877-7.591c.937 0 .937-1.463 0-1.463-.938 0-.938 1.463 0 1.463zm-.641-2.356c.938 0 .938-1.463 0-1.463-.937 0-.96 1.463 0 1.463zm4.894-3.795c.937 0 .937-1.463 0-1.463-.938 0-.938 1.463 0 1.463zm-4.39.16c.937 0 .937-1.464 0-1.464-.938 0-.938 1.464 0 1.464zm-1.236-5.191c.938 0 .938-1.463 0-1.463-.937 0-.937 1.463 0 1.463zm-3.223 2.769c.937 0 .937-1.464 0-1.464-.938 0-.938 1.464 0 1.464zm2.492-6.656c.937 0 .937-1.464 0-1.464-.938 0-.938 1.464 0 1.464zm-4.093.733c.937 0 .937-1.463 0-1.463-.938 0-.938 1.463 0 1.463zm-1.326-.868c.937 0 .937-1.464 0-1.464-.938 0-.938 1.464 0 1.464zm5.556-6.725c.937 0 .937-1.463 0-1.463-.938 0-.938 1.463 0 1.463zm1.692-1.325c.938 0 .938-1.463 0-1.463-.937.023-.96 1.463 0 1.463z" fill="#000"/><path d="M71.62 58.627c.938 0 .938-1.463 0-1.463-.937 0-.937 1.463 0 1.463zm-13.376 5.419c.938 0 .938-1.463 0-1.463-.937 0-.937 1.463 0 1.463zm-.96 1.74c.937 0 .937-1.464 0-1.464-.938 0-.938 1.464 0 1.464z" fill="#000"/><path d="M56.278 66.813c.937 0 .937-1.463 0-1.463-.938 0-.938 1.463 0 1.463zm1.829-6.723c.938 0 .938-1.463 0-1.463-.96 0-.96 1.463 0 1.463zm8.323.435c.938 0 .938-1.463 0-1.463-.937 0-.937 1.463 0 1.463zm-3.864 1.624c.938 0 .938-1.464 0-1.464-.96 0-.96 1.464 0 1.464zm6.196 3.727c.938 0 .938-1.464 0-1.464-.937 0-.937 1.463 0 1.463zm15.572-3.659c.938 0 .938-1.463 0-1.463s-.938 1.463 0 1.463zM62.703 82.59c.938 0 .938-1.463 0-1.463-.937 0-.937 1.463 0 1.463z" fill="#000"/><path d="M61.674 82.384c.937 0 .937-1.463 0-1.463-.938 0-.938 1.463 0 1.463zm1.761 1.304c.937 0 .937-1.463 0-1.463-.938 0-.938 1.463 0 1.463zm7.088 11.044c.937 0 .937-1.463 0-1.463-.938 0-.938 1.463 0 1.463zm2.035-2.126c.938 0 .938-1.463 0-1.463-.937 0-.937 1.463 0 1.463zm-20.236-7.021c.938 0 .938-1.463 0-1.463-.937 0-.937 1.463 0 1.463zm4.962-3.132c.937 0 .937-1.464 0-1.464-.938 0-.938 1.464 0 1.464zm.823-5.923c.938 0 .938-1.463 0-1.463-.96 0-.96 1.464 0 1.464z" fill="#000"/><path d="M59.044 76.165c.938 0 .938-1.463 0-1.463-.937 0-.937 1.463 0 1.463zm7.958-1.166c.937 0 .937-1.464 0-1.464-.938 0-.938 1.464 0 1.464zm-1.967.96c.938 0 .938-1.464 0-1.464-.937 0-.937 1.463 0 1.463zm-14.085-.594c.938 0 .938-1.464 0-1.464-.96 0-.96 1.464 0 1.464z" fill="#000"/><path d="M50.79 73.903c.938 0 .938-1.464 0-1.464s-.938 1.464 0 1.464zm1.532-1.237c.938 0 .938-1.463 0-1.463-.937 0-.937 1.463 0 1.463zm3.224 2.402c.937 0 .937-1.463 0-1.463-.938 0-.938 1.463 0 1.463zm-6.722 2.857c.937 0 .937-1.463 0-1.463-.938 0-.938 1.463 0 1.463zm.571 4.3c.938 0 .938-1.463 0-1.463-.937 0-.937 1.463 0 1.463zm-.731 4.458c.937 0 .937-1.463 0-1.463-.938 0-.938 1.463 0 1.463zm-1.532 2.264c.937 0 .937-1.464 0-1.464-.938 0-.938 1.464 0 1.464zm-.206 5.99c.937 0 .937-1.463 0-1.463-.938 0-.938 1.463 0 1.463zm-5.693-.136c.937 0 .937-1.463 0-1.463-.96 0-.96 1.463 0 1.463zm3.635 7.91c.937 0 .937-1.463 0-1.463-.938 0-.938 1.463 0 1.463zm-10.656 3.636c.938 0 .938-1.463 0-1.463-.937 0-.937 1.463 0 1.463zM55.18 94.87c.938 0 .938-1.464 0-1.464-.937 0-.937 1.464 0 1.464zm4.23.296c.938 0 .938-1.463 0-1.463-.937 0-.937 1.463 0 1.463zm-23.003-3.43c.938 0 .938-1.464 0-1.464-.937 0-.96 1.464 0 1.464zm-1.76-.297c.937 0 .937-1.463 0-1.463-.938 0-.938 1.463 0 1.463zm-9.055 3.362c.938 0 .938-1.463 0-1.463-.937 0-.937 1.463 0 1.463zM23.26 84.215c.937 0 .937-1.463 0-1.463-.96 0-.96 1.463 0 1.463zm4.299-1.762c.937 0 .937-1.464 0-1.464-.938 0-.938 1.464 0 1.464zm2.995 1.83c.938 0 .938-1.464 0-1.464-.937 0-.937 1.464 0 1.464zM12.285 87.05c.937 0 .937-1.464 0-1.464-.938 0-.938 1.463 0 1.463zm25.289-9.055c.937 0 .937-1.464 0-1.464-.938 0-.938 1.464 0 1.464z" fill="#000"/><path d="M36.682 79.091c.938 0 .938-1.463 0-1.463-.937 0-.937 1.463 0 1.463zm4.321 2.494c.938 0 .938-1.464 0-1.464-.937 0-.937 1.464 0 1.464zm2.767.731c.938 0 .938-1.463 0-1.463-.937 0-.937 1.463 0 1.463zm-1.234-9.947c.937 0 .937-1.464 0-1.464-.938 0-.938 1.464 0 1.464zm.434 2.858c.938 0 .938-1.463 0-1.463-.937 0-.937 1.463 0 1.463z" fill="#000"/><path d="M43.93 75.959c.938 0 .938-1.464 0-1.464-.937 0-.937 1.463 0 1.463zm2.104-6.585c.938 0 .938-1.463 0-1.463-.937 0-.937 1.463 0 1.463zm3.521-2.262c.938 0 .938-1.464 0-1.464-.937 0-.937 1.464 0 1.464zm-4.458-1.466c.937 0 .937-1.463 0-1.463-.938 0-.938 1.463 0 1.463z" fill="#000"/><path d="M44.8 66.973c.937 0 .937-1.463 0-1.463-.938 0-.938 1.463 0 1.463zm6.86-1.829c.937 0 .937-1.463 0-1.463-.938 0-.938 1.463 0 1.463z" fill="#000"/><path d="M52.985 65.579c.938 0 .938-1.464 0-1.464-.937 0-.937 1.464 0 1.464zm0-5.192c.938 0 .938-1.463 0-1.463-.937 0-.937 1.463 0 1.463zm-16.075.138c.938 0 .938-1.463 0-1.463-.937 0-.937 1.463 0 1.463zm-4.527 1.99c.938 0 .938-1.463 0-1.463-.937 0-.937 1.463 0 1.463zm-1.531 1.235c.937 0 .937-1.464 0-1.464-.938 0-.938 1.463 0 1.463zm-4.162-.228c.937 0 .937-1.463 0-1.463-.938 0-.96 1.463 0 1.463zm-4.093-4.002c.937 0 .937-1.464 0-1.464-.938 0-.938 1.463 0 1.463zm-16.509.936c.938 0 .938-1.463 0-1.463-.937 0-.96 1.463 0 1.463zm.274 4.756c.938 0 .938-1.463 0-1.463-.937 0-.937 1.463 0 1.463zm.092 7.295c.937 0 .937-1.463 0-1.463-.938 0-.96 1.463 0 1.463zm6.128 1.828c.937 0 .937-1.463 0-1.463-.938 0-.938 1.463 0 1.463zm3.224-.297c.937 0 .937-1.464 0-1.464-.96.023-.96 1.464 0 1.464zm3.133-10.586c.937 0 .937-1.464 0-1.464-.938 0-.938 1.464 0 1.464zm-5.854.366c.937 0 .937-1.463 0-1.463-.938 0-.938 1.463 0 1.463zm2.424-2.035c.937 0 .937-1.464 0-1.464-.938 0-.938 1.464 0 1.464zm5.761 13.513c.938 0 .938-1.463 0-1.463-.937 0-.937 1.463 0 1.463zm-1.6 2.629c.937 0 .937-1.463 0-1.463-.938 0-.938 1.463 0 1.463zm5.694 0c.937 0 .937-1.463 0-1.463-.938 0-.938 1.463 0 1.463zm6.951-3.065c.937 0 .937-1.463 0-1.463-.938 0-.938 1.464 0 1.464zm1.097 3.204c.938 0 .938-1.463 0-1.463-.937 0-.96 1.463 0 1.463zm-6.288-8.758c.938 0 .938-1.463 0-1.463s-.938 1.463 0 1.463zm-.96 2.263c.938 0 .938-1.463 0-1.463-.937 0-.937 1.463 0 1.463zm4.321.298c.938 0 .938-1.464 0-1.464-.937 0-.937 1.464 0 1.464zm5.991-6.655c.938 0 .938-1.463 0-1.463-.937 0-.937 1.463 0 1.463zm2.927.504c.938 0 .938-1.463 0-1.463-.937 0-.96 1.463 0 1.463z" fill="#000"/><path d="M40.5 65.052c.938 0 .938-1.463 0-1.463-.96.023-.96 1.463 0 1.463zm18.544-4.367c.938 0 .938-1.463 0-1.463-.937 0-.937 1.463 0 1.463zM37.505 75.136c.938 0 .938-1.463 0-1.463-.96 0-.96 1.463 0 1.463zM23.9 65.944c.938 0 .938-1.463 0-1.463-.937 0-.937 1.463 0 1.463zm-1.372-1.166c.938 0 .938-1.464 0-1.464-.96 0-.96 1.464 0 1.464zm5.694.434c.937 0 .937-1.463 0-1.463-.938 0-.938 1.463 0 1.463zm-11.684 4.756c.937 0 .937-1.463 0-1.463-.96 0-.96 1.463 0 1.463zm.365-9.306c1.212 0 1.212-1.875 0-1.875-1.235 0-1.235 1.875 0 1.875zm-3.887-2.469c1.212 0 1.212-1.875 0-1.875-1.211-.023-1.211 1.875 0 1.875zm8.918 2.401c1.212 0 1.212-1.875 0-1.875s-1.212 1.875 0 1.875zm4.39 1.326c1.212 0 1.212-1.875 0-1.875-1.212-.023-1.212 1.875 0 1.875zm16.715 1.097c1.212 0 1.212-1.875 0-1.875-1.212-.023-1.212 1.875 0 1.875zm-3.796-2.127c1.212 0 1.212-1.874 0-1.874s-1.212 1.875 0 1.875zm6.654 11.388c1.212 0 1.212-1.875 0-1.875s-1.212 1.875 0 1.875zm-5.191-.206c1.212 0 1.212-1.876 0-1.876-1.212-.022-1.212 1.876 0 1.876zm2.058-7.889c.458 0 .458-.708 0-.708-.457 0-.457.708 0 .708z" fill="#000"/><path d="M41.964 63.224c.457 0 .457-.71 0-.71s-.457.71 0 .71zm-.457 1.692c.457 0 .457-.709 0-.709-.458 0-.458.709 0 .709zM30.051 56.5c.457 0 .457-.708 0-.708s-.457.709 0 .709zm-14.177 6.22c.457 0 .457-.708 0-.708s-.457.709 0 .709zm16.944 13.65c.457 0 .457-.708 0-.708-.458 0-.458.709 0 .709zm6.859-3.565c.458 0 .458-.708 0-.708-.434 0-.434.709 0 .709zm7.02-2.792c.457 0 .457-.708 0-.708s-.457.708 0 .708zm21.128-3.428c.457 0 .457-.709 0-.709s-.457.709 0 .709zM4.259 77.239c.16 0 .16-.229 0-.229-.16-.023-.16.229 0 .229zm6.722 5.033c.16 0 .16-.229 0-.229s-.16.229 0 .229zm24.969.432c.16 0 .16-.228 0-.228-.137 0-.137.228 0 .228zm33.613 5.922c.16 0 .16-.229 0-.229-.137 0-.137.23 0 .23z" fill="#000"/><path d="M108.297 53.071H.463v2.744h107.834v-2.744z" fill="#000"/></svg>