<svg width="26" height="25" fill="none" xmlns="http://www.w3.org/2000/svg"><path d="M1.738 19.977c-.558-1.823-.295-3.743-.53-5.608-.2-1.585-.57-10.126.707-11.39C4.19.724 21.104-.523 23.489 2.629c1.732 2.288 1.415 6.774 1.415 9.462 0 2.904.679 7.388-1.592 9.638-3.417 3.387-15.733 3.068-20.336 1.928" stroke="#C18539" stroke-linecap="round" stroke-linejoin="round"/><path d="M1.143 10.21c1.731-.601 6.67.37 6.862-.035.483-1.019 1.724-3.144 4.762-3.728 2.133-.41 5.31 0 6.332 2.088 5.022 10.25-5.594 13.268-8.625 11.64-2.682-1.44-2.47-3.39-2.47-4.915" stroke="#C18539" stroke-linecap="round" stroke-linejoin="round"/><path d="M11.942 11.011c.571-.628 1.745-1.467 2.657-1.24 2.872.719 2.824 6.309-.178 6.91-2.819.563-4.944-3.552-2.48-4.784m8.915-1.735c.743-.102 3.134-.014 3.857-.143M21.785 5.9v-.19" stroke="#C18539" stroke-linecap="round" stroke-linejoin="round"/></svg>