<svg width="109" height="107" fill="none" xmlns="http://www.w3.org/2000/svg"><path d="M4.419 2.493h1.554v14.04H4.42V8.53H2.018v8.003H.463V2.493h1.555v4.459h2.4V2.493zm12.689 11.342h-2.766l-.32 2.698h-1.555l1.6-14.04h3.316l1.623 14.04H17.43l-.32-2.699zm-.16-1.418l-.96-8.369h-.526l-.96 8.369h2.446zm12.303 4.115V7.614l-2.31 2.333v6.585h-1.554V2.492h1.555V8.05l2.309-2.401V2.492h1.555v14.04H29.25zm.343-15.503h-2.95V0h2.95v1.029zm11.158 5.923c.388 0 .731.069 1.006.183.274.114.503.274.663.457.16.206.297.435.365.686.092.252.115.549.115.846v5.26c0 .388-.069.73-.183 1.005a1.8 1.8 0 01-.457.663c-.206.16-.435.298-.686.366-.252.092-.55.115-.846.115h-3.041V2.493h4.801v1.555h-3.247v2.881h1.51v.023zm.594 2.15a.753.753 0 00-.137-.435c-.092-.114-.252-.183-.48-.183h-1.487v6.47h1.487a.66.66 0 00.434-.136c.114-.092.183-.252.183-.48V9.1zM55.09 2.493v14.04h-1.555V4.07h-1.783l-.458 10.54c-.023.641-.16 1.144-.411 1.464-.252.32-.71.48-1.35.48h-.846V15h.64c.16 0 .275-.023.32-.069.047-.046.07-.16.092-.32l.526-12.096h4.825v-.023zm10.745 14.04V7.615l-2.31 2.332v6.586h-1.554V2.493h1.555V8.05l2.309-2.4V2.493h1.555v14.04h-1.555zm9.649-8.781l-1.76-5.259h1.645l1.532 4.596h1.19V2.493h1.554V7.09h1.166l1.532-4.596h1.647l-1.76 5.26 1.874 8.78h-1.6l-1.738-8.118h-1.144v8.118h-1.554V8.415h-1.144l-1.738 8.118h-1.6l1.898-8.78zm19.824-5.259v14.04H93.73v-4.46h-1.577c-.298 0-.572-.045-.846-.114-.252-.091-.503-.205-.686-.365-.206-.16-.343-.39-.458-.663a2.636 2.636 0 01-.182-1.007V2.516h1.554v7.408c0 .23.069.39.183.48a.659.659 0 00.435.138h1.577V2.516h1.578v-.023zm11.205 11.342h-2.767l-.32 2.698h-1.555l1.601-14.04h3.315l1.624 14.04h-1.578l-.32-2.699zm-.16-1.418l-.961-8.369h-.526l-.96 8.369h2.447zm-95.12 8.597v28.33H8.1V24.169H3.595v25.175H.463v-28.33h10.77zm15.137 0v3.132h-6.288v5.831h4.733v3.178h-4.733v13.01h6.288v3.18h-9.42V21.013h9.42zm5.007 0h3.133v9.26h2.698l3.11-9.26h3.338l-3.544 10.61 3.795 17.697h-3.224l-3.498-16.394h-2.653v16.417H31.4v-28.33h-.023zm25.38 22.888h-5.602l-.663 5.42h-3.133l3.224-28.308h6.7l3.27 28.33h-3.178l-.618-5.442zm-.343-2.858l-1.966-16.898h-1.052l-1.92 16.898h4.938zm19.344-5.054c0 .8-.114 1.464-.343 2.013-.229.548-.549 1.006-.96 1.349a3.847 3.847 0 01-1.418.754 5.823 5.823 0 01-1.692.252h-2.904v8.986H65.31v-28.33h6.036c.778 0 1.463.114 2.012.343a3.954 3.954 0 011.372.937c.343.389.618.846.778 1.395a5.94 5.94 0 01.251 1.692v10.61zM72.58 25.382c0-.32-.092-.617-.275-.846-.183-.252-.503-.366-.96-.366h-2.904v13.056h2.904c.343 0 .64-.091.869-.274.229-.183.343-.503.343-.96V25.38h.023zm16.35-4.368h3.155v28.33h-3.133V33.178h-4.87v16.166h-3.133v-28.33h3.133v9.009h4.847v-9.01zm19.274 0v28.33h-3.132V35.808h-1.807l-3.109 13.536h-3.224l3.132-13.742a3.926 3.926 0 01-1.966-1.35c-.526-.662-.778-1.6-.778-2.812v-6.036c0-.595.092-1.166.252-1.692s.411-.983.754-1.395a3.479 3.479 0 011.35-.938c.548-.228 1.234-.343 2.012-.343h6.516v-.022zm-3.155 3.155h-3.338c-.458 0-.778.114-.961.366a1.387 1.387 0 00-.274.846v6.037c0 .434.114.754.366.937.251.183.526.274.846.274h3.338v-8.46h.023zM3.665 77.218c.617 0 .617-.938 0-.938-.595 0-.595.938 0 .938zM.463 59.108c.617 0 .617-.937 0-.937s-.617.937 0 .937zm2.034-1.028c.617 0 .617-.938 0-.938-.595 0-.595.937 0 .937zm6.425 14.472c.618 0 .618-.938 0-.938-.594 0-.594.938 0 .938zm5.993-2.264c.617 0 .617-.937 0-.937-.595 0-.595.937 0 .937zm6.95 6.93c.618 0 .618-.938 0-.938-.617 0-.617.938 0 .938zm7.157-4.369c.617 0 .617-.938 0-.938-.618-.022-.618.938 0 .938zm3.065-.365c.617 0 .617-.938 0-.938-.595-.023-.595.938 0 .938zm2.857-12.577c.617 0 .617-.937 0-.937-.618 0-.618.937 0 .937zm-.16-1.759c.617 0 .617-.937 0-.937-.595 0-.595.937 0 .937zm-1.372.228c.618 0 .618-.938 0-.938-.617 0-.617.938 0 .938zm-1.257 1.395c.617 0 .617-.937 0-.937-.595-.023-.595.937 0 .937zm-6.723-1.533c.618 0 .618-.938 0-.938-.594-.023-.594.938 0 .938zm3.453 2.264c.617 0 .617-.938 0-.938-.618-.023-.618.938 0 .938zm-10.679-2.721c.618 0 .618-.937 0-.937-.594 0-.617.937 0 .937zM8.055 56.18c.617 0 .617-.937 0-.937-.618 0-.618.938 0 .938zm80.074.87c.617 0 .617-.938 0-.938s-.617.938 0 .938zm3.133-.367c.618 0 .618-.938 0-.938-.594 0-.594.938 0 .938zm7.615.229c.618 0 .618-.938 0-.938-.617 0-.617.938 0 .938zm.571 21.563c.617 0 .617-.937 0-.937-.595-.023-.595.937 0 .937zm-7.958 0c.618 0 .618-.938 0-.938-.617-.022-.617.938 0 .938zm-2.423 0c.617 0 .617-.937 0-.937-.594-.023-.594.937 0 .937zm-4.459-5.717c.617 0 .617-.938 0-.938-.595 0-.595.938 0 .938zM79.28 71.02c.617 0 .617-.937 0-.937-.595-.022-.595.938 0 .938zm1.898-9.649c.618 0 .618-.937 0-.937-.594 0-.594.937 0 .937zm-3.795.594c.618 0 .618-.937 0-.937-.594-.023-.594.937 0 .937zm7.752 0c.617 0 .617-.937 0-.937-.618-.023-.618.937 0 .937zm-10.52.138c.618 0 .618-.937 0-.937-.617 0-.617.938 0 .938zm-8.482-4.459c.618 0 .618-.938 0-.938-.594 0-.594.938 0 .938zm2.424-.732c.617 0 .617-.938 0-.938-.618 0-.618.938 0 .938zm1.807-.595c.617 0 .617-.937 0-.937-.595 0-.595.937 0 .937zM52.55 62.766c.618 0 .618-.938 0-.938-.616-.022-.616.938 0 .938zm4.665 7.225c.618 0 .618-.937 0-.937-.594 0-.594.937 0 .937zm11.41 8.254c.618 0 .618-.938 0-.938-.617 0-.617.938 0 .938zm13.216 4.689c.618 0 .618-.938 0-.938-.594-.022-.617.938 0 .938zm-20.374 6.791c.617 0 .617-.938 0-.938-.617-.022-.617.938 0 .938zm-7.453.068c.617 0 .617-.938 0-.938-.618 0-.618.938 0 .938zm-2.926-.296c.617 0 .617-.937 0-.937s-.617.937 0 .937zm-7.156 4.32c.617 0 .617-.938 0-.938-.618-.023-.618.938 0 .938zm-7.158 2.333c.617 0 .617-.938 0-.938-.618 0-.618.937 0 .937zm-5.991-6.653c.618 0 .618-.937 0-.937-.617 0-.617.937 0 .937zm6.059-2.196c.617 0 .617-.938 0-.938s-.617.938 0 .938zm2.195-4.299c.618 0 .618-.937 0-.937-.617-.023-.617.937 0 .937zm7.088-1.326c.617 0 .617-.938 0-.938s-.617.938 0 .938zm-6.219-7.019c.618 0 .618-.937 0-.937-.617 0-.617.937 0 .937z" fill="#fff"/><path d="M38.946 74.953c.617 0 .617-.937 0-.937-.595 0-.595.937 0 .937zm-4.368-7.958c.618 0 .618-.937 0-.937-.617 0-.617.937 0 .937zm-2.263.961c.617 0 .617-.938 0-.938-.618-.023-.618.938 0 .938zm-7.454-3.658c.618 0 .618-.938 0-.938-.617 0-.617.938 0 .938zm.297 2.926c.618 0 .618-.938 0-.938-.617-.022-.617.938 0 .938zm-7.019-1.097c.617 0 .617-.937 0-.937-.618-.023-.618.937 0 .937zm-5.992-6.082c.617 0 .617-.938 0-.938-.618 0-.618.938 0 .938zM8.42 64.366c.617 0 .617-.937 0-.937s-.617.937 0 .937zm6.654 14.611c.618 0 .618-.938 0-.938-.617 0-.617.938 0 .938zm31.784 4.756c.617 0 .617-.938 0-.938-.618-.023-.618.938 0 .938zm28.125.801c.617 0 .617-.937 0-.937-.618 0-.618.937 0 .937zm-11.114-7.019c.617 0 .617-.938 0-.938-.595 0-.618.938 0 .938zm-2.4-2.264c.617 0 .617-.938 0-.938s-.617.938 0 .938zm-5.489 2.034c.618 0 .618-.937 0-.937-.617 0-.617.937 0 .937zm-1.599-.067c.617 0 .617-.938 0-.938s-.617.938 0 .938zm-1.098-.435c.618 0 .618-.937 0-.937-.617 0-.617.937 0 .937zm-4.756-5.122c.617 0 .617-.937 0-.937-.595 0-.618.937 0 .937zm.067-.937c.618 0 .618-.938 0-.938-.594 0-.594.938 0 .938zm1.168-.664c.618 0 .618-.937 0-.937-.594 0-.594.938 0 .938zm5.122-1.6c.617 0 .617-.938 0-.938-.594 0-.617.938 0 .938zm-.297-6.654c.617 0 .617-.938 0-.938-.595 0-.595.938 0 .938zm1.257-2.698c.617 0 .617-.937 0-.937s-.617.937 0 .937zm4.892.502c.618 0 .618-.937 0-.937-.617 0-.617.938 0 .938zm-9.351.96c.617 0 .617-.937 0-.937s-.617.937 0 .937zm-8.485-.89c.618 0 .618-.938 0-.938-.617 0-.617.938 0 .938zm56.548 18.703c.617 0 .617-.938 0-.938-.595 0-.595.938 0 .938zm-24.696-2.035c.618 0 .618-.938 0-.938-.594 0-.594.938 0 .938zm-43.695 1.44c.297 0 .297-.48 0-.48-.297.022-.297.48 0 .48zm-2.105 12.324c.458 0 .458-.709 0-.709-.457 0-.457.71 0 .71zm37.776-11.227c.298 0 .298-.48 0-.48-.32 0-.32.48 0 .48zM60.28 67.934c.297 0 .297-.48 0-.48-.298 0-.298.48 0 .48zm4.025-2.927c.297 0 .297-.48 0-.48s-.297.48 0 .48zm-39.742 5.625c.297 0 .297-.48 0-.48s-.297.48 0 .48zM6.889 73.193c.297 0 .297-.48 0-.48s-.297.48 0 .48zm2.994-12.645c.297 0 .297-.48 0-.48s-.297.48 0 .48zm58.513 10.199c.457 0 .457-.709 0-.709-.458 0-.458.709 0 .709z" fill="#fff"/><path d="M60.28 68.299c.617 0 .617-.938 0-.938-.595 0-.595.938 0 .938zM31.218 61.76c1.211 0 1.211-1.875 0-1.875-1.212 0-1.212 1.875 0 1.875zm12.347 15.868c1.212 0 1.212-1.875 0-1.875-1.212-.023-1.212 1.875 0 1.875zm-6.585-7.613c1.211 0 1.211-1.875 0-1.875-1.213 0-1.213 1.875 0 1.875zm11.113-7.524c1.211 0 1.211-1.875 0-1.875-1.212 0-1.212 1.875 0 1.875zm-2.059-5.259c1.212 0 1.212-1.875 0-1.875s-1.212 1.875 0 1.875zm15.641.367c1.211 0 1.211-1.875 0-1.875-1.212 0-1.212 1.875 0 1.875zm-4.895-.206c1.212 0 1.212-1.875 0-1.875-1.212-.023-1.212 1.875 0 1.875zm21.701-.367c1.212 0 1.212-1.874 0-1.874-1.212-.023-1.212 1.874 0 1.874zm8.987 2.334c1.211 0 1.211-1.875 0-1.875-1.212-.023-1.212 1.875 0 1.875zm-5.328-.298c1.211 0 1.211-1.875 0-1.875-1.213 0-1.213 1.875 0 1.875zm5.83 21.767c1.211 0 1.211-1.875 0-1.875-1.212 0-1.212 1.875 0 1.875zm-4.893-.434c1.212 0 1.212-1.874 0-1.874s-1.212 1.874 0 1.874zM79.44 78.36c1.213 0 1.213-1.874 0-1.874-1.21-.023-1.234 1.874 0 1.874zm-11.707-5.19c1.212 0 1.212-1.876 0-1.876-1.212-.023-1.212 1.875 0 1.875zm-4.801 0c1.212 0 1.212-1.876 0-1.876-1.235-.023-1.235 1.875 0 1.875zm-4.39-2.424c1.212 0 1.212-1.875 0-1.875s-1.212 1.875 0 1.875zm10.22-6.562c1.212 0 1.212-1.875 0-1.875-1.212-.023-1.212 1.875 0 1.875zm-4.23-2.127c1.212 0 1.212-1.875 0-1.875s-1.212 1.875 0 1.875zm9.123 2.264c1.212 0 1.212-1.875 0-1.875s-1.212 1.875 0 1.875zM49.989 91.646c1.212 0 1.212-1.875 0-1.875s-1.212 1.875 0 1.875zm-5.121.296c1.212 0 1.212-1.874 0-1.874-1.212-.023-1.212 1.874 0 1.874zm-3.795-2.195c1.212 0 1.212-1.875 0-1.875s-1.212 1.875 0 1.875zm5.99-10.152c1.212 0 1.212-1.875 0-1.875s-1.212 1.875 0 1.875zm5.19-.229c1.212 0 1.212-1.875 0-1.875s-1.212 1.875 0 1.875zm-24.099-4.434c1.212 0 1.212-1.875 0-1.875-1.212-.023-1.235 1.875 0 1.875zm-5.054.066c1.212 0 1.212-1.875 0-1.875-1.212-.023-1.212 1.875 0 1.875zm-3.932-2.262c1.211 0 1.211-1.875 0-1.875-1.212-.023-1.235 1.874 0 1.874zm69.396 3.451c1.052 0 1.075-1.646 0-1.646-1.052 0-1.052 1.646 0 1.646zm4.687 7.067c.938 0 .938-1.463 0-1.463-.96 0-.96 1.463 0 1.463zm4.162.364c.937 0 .937-1.463 0-1.463-.938 0-.96 1.463 0 1.463zm-2.561-16.21c.937 0 .937-1.464 0-1.464-.938 0-.938 1.464 0 1.464zm2.105-5.259c.938 0 .938-1.464 0-1.464s-.938 1.464 0 1.464zm11.34-.161c.937 0 .937-1.464 0-1.464-.938 0-.938 1.464 0 1.464zm-15.869.229c.937 0 .937-1.463 0-1.463-.938 0-.938 1.463 0 1.463zm-13.811 4.826c.938 0 .938-1.464 0-1.464-.937 0-.937 1.464 0 1.464zm4.619.069c.938 0 .938-1.464 0-1.464-.937 0-.937 1.464 0 1.464z" fill="#fff"/><path d="M82.277 68.504c.938 0 .938-1.463 0-1.463-.937 0-.937 1.463 0 1.463zm-3.295-6.354c.938 0 .938-1.464 0-1.464-.937 0-.937 1.463 0 1.463zm3.453-1.763c.938 0 .938-1.463 0-1.463-.96 0-.96 1.463 0 1.463zm4.299 14.978c.938 0 .938-1.464 0-1.464-.937 0-.937 1.464 0 1.464zm-7.293 8.185c.938 0 .938-1.463 0-1.463-.96 0-.96 1.463 0 1.463zm5.831-.067c.937 0 .937-1.464 0-1.464-.938 0-.938 1.464 0 1.464zm-2.401 6.424c.938 0 .938-1.464 0-1.464-.937 0-.937 1.464 0 1.464zm-9.879-7.591c.938 0 .938-1.463 0-1.463-.937 0-.937 1.463 0 1.463zm-.64-2.356c.938 0 .938-1.463 0-1.463-.937 0-.96 1.464 0 1.464zm4.894-3.795c.938 0 .938-1.463 0-1.463-.937 0-.937 1.463 0 1.463zm-4.39.16c.937 0 .937-1.464 0-1.464-.938 0-.938 1.464 0 1.464zm-1.235-5.191c.938 0 .938-1.463 0-1.463-.937 0-.937 1.463 0 1.463zm-3.224 2.769c.937 0 .937-1.464 0-1.464-.938 0-.938 1.464 0 1.464zm2.492-6.656c.937 0 .937-1.464 0-1.464-.938 0-.938 1.464 0 1.464zm-4.092.733c.937 0 .937-1.463 0-1.463-.938 0-.938 1.463 0 1.463zm-1.328-.868c.937 0 .937-1.464 0-1.464-.938 0-.938 1.464 0 1.464zm5.558-6.725c.938 0 .938-1.463 0-1.463-.937 0-.937 1.463 0 1.463zm1.693-1.325c.937 0 .937-1.463 0-1.463-.938.023-.96 1.463 0 1.463z" fill="#fff"/><path d="M71.621 58.627c.938 0 .938-1.463 0-1.463-.937 0-.937 1.463 0 1.463zm-13.377 5.419c.938 0 .938-1.463 0-1.463-.937 0-.937 1.463 0 1.463zm-.961 1.74c.938 0 .938-1.464 0-1.464-.937 0-.937 1.464 0 1.464z" fill="#fff"/><path d="M56.277 66.813c.938 0 .938-1.463 0-1.463-.937 0-.937 1.463 0 1.463zm1.83-6.723c.938 0 .938-1.463 0-1.463-.96 0-.96 1.463 0 1.463zm8.323.435c.937 0 .937-1.463 0-1.463-.938 0-.938 1.463 0 1.463zm-3.864 1.625c.938 0 .938-1.464 0-1.464-.96 0-.96 1.463 0 1.463zm6.196 3.726c.937 0 .937-1.464 0-1.464-.938 0-.938 1.463 0 1.463zm15.572-3.659c.938 0 .938-1.463 0-1.463s-.938 1.463 0 1.463zM62.703 82.59c.938 0 .938-1.463 0-1.463-.937 0-.937 1.464 0 1.464z" fill="#fff"/><path d="M61.674 82.384c.937 0 .937-1.463 0-1.463-.938 0-.938 1.463 0 1.463zm1.76 1.304c.937 0 .937-1.463 0-1.463-.938 0-.938 1.463 0 1.463zm7.089 11.044c.938 0 .938-1.463 0-1.463-.937 0-.937 1.463 0 1.463zm2.036-2.126c.937 0 .937-1.463 0-1.463-.938 0-.938 1.463 0 1.463zm-20.237-7.021c.938 0 .938-1.463 0-1.463-.937 0-.937 1.463 0 1.463zm4.961-3.132c.938 0 .938-1.464 0-1.464-.937 0-.937 1.464 0 1.464zm.824-5.923c.938 0 .938-1.463 0-1.463-.96 0-.96 1.464 0 1.464z" fill="#fff"/><path d="M59.045 76.165c.937 0 .937-1.463 0-1.463-.938 0-.938 1.463 0 1.463zm7.957-1.166c.937 0 .937-1.464 0-1.464-.938 0-.938 1.464 0 1.464zm-1.967.96c.938 0 .938-1.464 0-1.464-.937 0-.937 1.463 0 1.463zm-14.085-.594c.938 0 .938-1.464 0-1.464-.96 0-.96 1.464 0 1.464z" fill="#fff"/><path d="M50.79 73.903c.937 0 .937-1.464 0-1.464-.938 0-.938 1.464 0 1.464zm1.532-1.237c.938 0 .938-1.463 0-1.463-.937 0-.937 1.463 0 1.463zm3.225 2.402c.937 0 .937-1.463 0-1.463-.938 0-.938 1.463 0 1.463zm-6.723 2.857c.938 0 .938-1.463 0-1.463-.937 0-.937 1.463 0 1.463zm.571 4.3c.937 0 .937-1.463 0-1.463-.938 0-.938 1.463 0 1.463zm-.731 4.458c.938 0 .938-1.463 0-1.463-.937 0-.937 1.463 0 1.463zm-1.531 2.264c.937 0 .937-1.464 0-1.464-.938 0-.938 1.464 0 1.464zm-.207 5.99c.937 0 .937-1.464 0-1.464-.938 0-.938 1.464 0 1.464zm-5.694-.136c.938 0 .938-1.463 0-1.463-.96 0-.96 1.463 0 1.463zm3.635 7.91c.938 0 .938-1.463 0-1.463-.937 0-.937 1.463 0 1.463zm-10.654 3.636c.937 0 .937-1.463 0-1.463-.938 0-.938 1.463 0 1.463zM55.18 94.87c.937 0 .937-1.464 0-1.464-.938 0-.938 1.464 0 1.464zm4.23.296c.938 0 .938-1.463 0-1.463-.937 0-.937 1.463 0 1.463zm-23.003-3.43c.938 0 .938-1.464 0-1.464s-.96 1.464 0 1.464zm-1.76-.297c.937 0 .937-1.463 0-1.463-.938 0-.938 1.463 0 1.463zm-9.055 3.362c.937 0 .937-1.463 0-1.463-.938 0-.938 1.463 0 1.463zM23.26 84.215c.937 0 .937-1.463 0-1.463-.961 0-.961 1.463 0 1.463zm4.299-1.762c.937 0 .937-1.464 0-1.464-.938 0-.938 1.464 0 1.464zm2.996 1.83c.937 0 .937-1.464 0-1.464-.938 0-.938 1.464 0 1.464zm-18.27 2.767c.938 0 .938-1.464 0-1.464-.937 0-.937 1.463 0 1.463zm25.289-9.055c.938 0 .938-1.464 0-1.464-.937 0-.937 1.464 0 1.464z" fill="#fff"/><path d="M36.682 79.091c.937 0 .937-1.463 0-1.463-.938 0-.938 1.463 0 1.463zm4.322 2.494c.937 0 .937-1.464 0-1.464-.938 0-.938 1.464 0 1.464zm2.766.731c.937 0 .937-1.463 0-1.463-.938 0-.938 1.463 0 1.463zm-1.235-9.947c.938 0 .938-1.464 0-1.464-.937 0-.937 1.464 0 1.464zm.434 2.858c.937 0 .937-1.463 0-1.463-.938 0-.938 1.463 0 1.463z" fill="#fff"/><path d="M43.93 75.959c.937 0 .937-1.464 0-1.464-.938 0-.938 1.463 0 1.463zm2.103-6.584c.938 0 .938-1.464 0-1.464-.937 0-.937 1.464 0 1.464zm3.522-2.263c.937 0 .937-1.464 0-1.464-.938 0-.938 1.464 0 1.464zm-4.457-1.466c.937 0 .937-1.463 0-1.463-.938 0-.938 1.463 0 1.463z" fill="#fff"/><path d="M44.799 66.973c.937 0 .937-1.463 0-1.463-.938 0-.938 1.463 0 1.463zm6.859-1.829c.938 0 .938-1.463 0-1.463-.937 0-.937 1.463 0 1.463z" fill="#fff"/><path d="M52.984 65.579c.938 0 .938-1.464 0-1.464-.937 0-.937 1.464 0 1.464zm0-5.192c.938 0 .938-1.463 0-1.463-.937 0-.937 1.463 0 1.463zm-16.074.138c.938 0 .938-1.463 0-1.463-.937 0-.937 1.463 0 1.463zm-4.527 1.99c.937 0 .937-1.463 0-1.463-.938 0-.938 1.463 0 1.463zm-1.531 1.235c.937 0 .937-1.464 0-1.464-.938 0-.938 1.464 0 1.464zm-4.162-.228c.938 0 .938-1.463 0-1.463-.937 0-.96 1.463 0 1.463zm-4.092-4.003c.937 0 .937-1.463 0-1.463-.938 0-.938 1.463 0 1.463zm-16.511.937c.937 0 .937-1.463 0-1.463-.938 0-.96 1.463 0 1.463zm.276 4.756c.938 0 .938-1.463 0-1.463-.937 0-.937 1.463 0 1.463zm.091 7.295c.937 0 .937-1.463 0-1.463-.938 0-.96 1.463 0 1.463zm6.128 1.828c.938 0 .938-1.463 0-1.463s-.938 1.463 0 1.463zm3.224-.297c.938 0 .938-1.464 0-1.464-.96.023-.96 1.464 0 1.464zm3.132-10.586c.937 0 .937-1.464 0-1.464-.938 0-.938 1.464 0 1.464zm-5.854.366c.938 0 .938-1.463 0-1.463s-.938 1.463 0 1.463zm2.424-2.035c.937 0 .937-1.464 0-1.464-.938 0-.938 1.464 0 1.464zm5.762 13.513c.937 0 .937-1.463 0-1.463-.938 0-.938 1.463 0 1.463zm-1.6 2.629c.937 0 .937-1.463 0-1.463-.938 0-.938 1.463 0 1.463zm5.693 0c.938 0 .938-1.463 0-1.463-.937 0-.937 1.463 0 1.463zm6.951-3.065c.938 0 .938-1.463 0-1.463-.937 0-.937 1.464 0 1.464zm1.099 3.204c.937 0 .937-1.463 0-1.463-.938 0-.96 1.463 0 1.463zm-6.288-8.758c.938 0 .938-1.463 0-1.463s-.938 1.463 0 1.463zm-.961 2.263c.938 0 .938-1.463 0-1.463-.937 0-.937 1.463 0 1.463zm4.32.298c.938 0 .938-1.464 0-1.464-.937 0-.937 1.464 0 1.464zm5.993-6.655c.937 0 .937-1.463 0-1.463-.938 0-.938 1.463 0 1.463zm2.926.504c.938 0 .938-1.463 0-1.463-.937 0-.96 1.463 0 1.463z" fill="#fff"/><path d="M40.502 65.052c.937 0 .937-1.463 0-1.463-.96.023-.96 1.463 0 1.463zm18.543-4.367c.937 0 .937-1.463 0-1.463-.938 0-.938 1.463 0 1.463zm-21.54 14.451c.938 0 .938-1.463 0-1.463-.96 0-.96 1.463 0 1.463zM23.9 65.944c.938 0 .938-1.463 0-1.463-.937 0-.937 1.463 0 1.463zm-1.371-1.166c.937 0 .937-1.464 0-1.464-.96 0-.96 1.464 0 1.464zm5.694.434c.937 0 .937-1.463 0-1.463-.938 0-.938 1.463 0 1.463zm-11.686 4.756c.937 0 .937-1.463 0-1.463-.96 0-.96 1.463 0 1.463zm.366-9.306c1.212 0 1.212-1.875 0-1.875-1.235 0-1.235 1.875 0 1.875zm-3.887-2.469c1.212 0 1.212-1.875 0-1.875-1.211-.023-1.211 1.875 0 1.875zm8.918 2.401c1.212 0 1.212-1.875 0-1.875s-1.212 1.875 0 1.875zm4.389 1.326c1.212 0 1.212-1.875 0-1.875-1.212-.023-1.212 1.875 0 1.875zm16.715 1.097c1.212 0 1.212-1.875 0-1.875-1.212-.023-1.212 1.875 0 1.875zm-3.795-2.127c1.212 0 1.212-1.874 0-1.874s-1.212 1.875 0 1.875zm6.654 11.388c1.212 0 1.212-1.875 0-1.875s-1.212 1.875 0 1.875zm-5.191-.206c1.212 0 1.212-1.876 0-1.876-1.212-.022-1.212 1.876 0 1.876zm2.059-7.889c.457 0 .457-.708 0-.708-.458 0-.458.708 0 .708z" fill="#fff"/><path d="M41.964 63.224c.457 0 .457-.71 0-.71s-.457.71 0 .71zm-.457 1.692c.457 0 .457-.709 0-.709s-.457.709 0 .709zM30.052 56.5c.457 0 .457-.708 0-.708s-.457.709 0 .709zm-14.178 6.22c.457 0 .457-.708 0-.708s-.457.709 0 .709zm16.944 13.651c.457 0 .457-.709 0-.709-.458 0-.458.71 0 .71zm6.859-3.566c.458 0 .458-.708 0-.708-.434 0-.434.709 0 .709zm7.022-2.792c.457 0 .457-.708 0-.708-.458 0-.458.708 0 .708zm21.126-3.428c.458 0 .458-.709 0-.709-.457 0-.457.709 0 .709zM4.259 77.24c.16 0 .16-.23 0-.23-.16-.022-.16.23 0 .23zm6.722 5.032c.16 0 .16-.229 0-.229s-.16.229 0 .229zm24.969.432c.16 0 .16-.228 0-.228-.137 0-.137.228 0 .228zm33.612 5.922c.16 0 .16-.228 0-.228-.137 0-.137.228 0 .228z" fill="#fff"/><path d="M108.297 53.071H.463v2.744h107.834v-2.744z" fill="#fff"/></svg>