<svg width="128" height="73" fill="none" xmlns="http://www.w3.org/2000/svg"><path d="M127.535 22.99a21.28 21.28 0 00-1.875-2.397 20.585 20.585 0 00-2.559-2.451c-.92-.74-1.731-1.136-2.398-1.172-2.668-.072-5.696.018-9.085.289-3.389.27-6.958.63-10.708 1.117a368.76 368.76 0 00-11.482 1.677c-3.912.63-7.697 1.316-11.357 2.055-3.66.72-7.102 1.46-10.347 2.217a198.4 198.4 0 00-8.472 2.127c-.253.072-.144.396.288.955.45.577 1.01 1.19 1.713 1.839a17.58 17.58 0 002.073 1.73c.685.505 1.19.685 1.46.595.505-.216 1.298-.468 2.433-.739a97.166 97.166 0 014.128-.955c1.64-.36 3.48-.721 5.516-1.118a306.96 306.96 0 016.526-1.172 304.813 304.813 0 00-4.687 9.753 96.924 96.924 0 00-3.948 9.86c-.324.973-.63 1.929-.901 2.902-.108.072-.324.379-.649.92-.378.613-.865 1.406-1.442 2.361-.577.955-1.208 2-1.875 3.137-.685 1.135-1.316 2.217-1.947 3.226a154.748 154.748 0 01-1.64 2.632c-.487.74-.793 1.19-.955 1.352-.072.072-.018-.396.18-1.406a67.61 67.61 0 01.92-3.912c.414-1.586.919-3.37 1.496-5.353a153.302 153.302 0 011.784-5.697 58.342 58.342 0 011.875-4.92c.63-1.461 1.226-2.489 1.784-3.083.036-.036-.072-.127-.324-.27-.252-.145-.631-.271-1.1-.415-.486-.145-1.027-.307-1.64-.487s-1.262-.36-1.947-.559a139.65 139.65 0 00-5.444-1.37c-.324.126-.703.595-1.136 1.406-.432.811-.883 1.857-1.315 3.137a107.98 107.98 0 00-1.352 4.326A77.786 77.786 0 0057.9 50.12c-.487.721-1.19 1.785-2.127 3.227-.938 1.442-1.875 2.884-2.83 4.362a219.644 219.644 0 01-2.632 3.966c-.793 1.172-1.316 1.857-1.55 2.055-.073.072-.018-.396.18-1.406a67.61 67.61 0 01.92-3.912c.414-1.586.919-3.37 1.495-5.353a153.488 153.488 0 011.785-5.697 58.376 58.376 0 011.875-4.92c.63-1.461 1.226-2.489 1.784-3.083.036-.036-.072-.127-.324-.27-.253-.145-.631-.271-1.1-.415-.486-.145-1.027-.307-1.64-.487s-1.262-.36-1.947-.559a139.65 139.65 0 00-5.444-1.37c-.396.126-.883.793-1.442 2.001a23.17 23.17 0 00-.703 1.694c-.198.325-.397.685-.559.956-.45.83-.901 1.712-1.568 2.848-.667 1.118-1.64 2.56-2.416 3.785a82.411 82.411 0 01-3.785 5.39c-1.442 1.893-2.884 3.75-4.398 5.3-1.515 1.55-2.777 2.74-4.219 3.786-1.298.955-3.46 1.766-5.155 1.46-2.578-.451-5.408-3.245-7.12-5.769-1.767-2.614-2.813-5.408-3.155-8.382-.343-2.974-.126-6.039.649-9.175a46.991 46.991 0 013.299-9.14 58.955 58.955 0 014.849-8.31c1.802-2.577 3.55-4.813 5.245-6.687 1.695-1.875 2.055-2.38 3.353-3.335 1.28-.955 2.704-2.253 3.732-1.893.036.018.054.036.09.054.703.541.505 1.478.306 3.137-.198 1.694-.72 3.407-1.208 5.822-.486 2.434-1.388 5.318-2.415 8.022a264.717 264.717 0 01-2.704 6.886c-.74 1.82-1.496 3.227-2.524 5.534-.432.973 5.426.955 7.139.108 2.127-1.064 3.172-2.776 4.614-5.011a62.474 62.474 0 003.912-6.976c1.172-2.434 2.127-4.687 2.884-6.796.757-2.11 1.316-3.876 1.55-5.354.361-2.271.217-3.37-.017-4.65-.56-3.065-2.795-6.112-4.345-7.626C35.98-.227 32.357-.155 28.337.097c-1.1.073-4.326.613-5.949 1.641-1.622 1.027-3.353 2.506-5.191 4.434-1.839 1.93-3.678 4.218-5.57 6.868-1.875 2.65-3.606 5.534-5.192 8.653a68.959 68.959 0 00-4.056 9.788A48.375 48.375 0 00.18 41.774a35.136 35.136 0 00.45 10.203c.65 3.335 1.641 6.219 3.047 8.815 1.172 2.019 3.443 5.155 6.886 7.805 1.713 1.334 3.912 2.524 6.435 3.263 2.073.613 4.219.83 5.967.72 1.298-.09 3.064-.468 4.29-1.045 1.533-.72 2.65-1.478 4.092-2.541 2.037-1.514 3.227-2.794 4.597-4.345a91.854 91.854 0 003.695-4.398l.217-.27-.054.81c-.072 1.677.036 2.885.36 3.642.397.92 1.082 1.73 2.055 2.452a15.55 15.55 0 003.083 1.766c1.081.45 2.073.793 3.01 1.01.937.216 1.586.306 1.947.27.198-.036.505-.27.901-.685.397-.414.865-.991 1.406-1.694.54-.721 1.118-1.533 1.767-2.452a99.09 99.09 0 001.91-2.866c.073.991.217 1.73.415 2.217.397.92 1.082 1.73 2.055 2.452.973.72 2 1.297 3.083 1.766 1.081.45 2.09.793 3.046 1.01.955.216 1.586.306 1.91.27.271-.036.794-.505 1.533-1.37.739-.883 1.568-1.983 2.506-3.317.378-.54.757-1.1 1.153-1.676.054.811.145 1.622.27 2.433 0 .108.145.235.433.397.289.162.65.343 1.118.559.469.216.973.432 1.514.667.559.234 1.136.45 1.73.667 1.389.54 2.957 1.1 4.687 1.712.072-2.92.47-6.093 1.208-9.518.721-3.425 1.713-6.976 2.939-10.671a129.136 129.136 0 014.38-11.285 157.43 157.43 0 015.57-11.356c.072-.072-.216-.198-.847-.397-.631-.198-1.424-.414-2.344-.667 3.3-.468 6.652-.9 10.023-1.297 3.371-.415 6.615-.721 9.734-.938a125.95 125.95 0 018.671-.324c2.667 0 4.939.162 6.832.486.27-.018.144-.36-.325-1.063z" fill="#000"/><path d="M114.232 46.641c-.199-1.01-.433-1.856-.685-2.541-.253-.686-.523-1.136-.811-1.37-.631-.487-1.352-.902-2.128-1.28-.775-.379-1.478-.685-2.127-.902a8.389 8.389 0 00-1.586-.396c-.415-.036-.595.036-.505.234.235.793.379 1.839.415 3.1.036 1.28 0 2.669-.126 4.183a44.987 44.987 0 01-.649 4.687 32.17 32.17 0 01-1.262 4.578c-1.55-.432-2.704-1.406-3.443-2.902-.739-1.496-.775-3.497-.09-6.003a38.65 38.65 0 011.875-4.272c.703-1.334 1.496-2.506 2.415-3.497.162-.162-.018-.415-.505-.74-.504-.342-1.153-.684-1.947-1.045a23.35 23.35 0 00-2.649-1.01 30.765 30.765 0 00-2.722-.774c-.56-.127-1.28.342-2.181 1.406-.902 1.063-1.785 2.451-2.686 4.182-.902 1.73-1.713 3.677-2.452 5.858-.74 2.163-1.262 4.309-1.55 6.418-.307 2.109-.27 4.056.09 5.822.36 1.767 1.172 3.137 2.451 4.092.92.721 1.93 1.424 3.047 2.127a36.295 36.295 0 003.317 1.857c1.1.54 2.145.955 3.136 1.226.992.27 1.857.36 2.56.234 1.388-.234 2.632-.63 3.731-1.19a11.703 11.703 0 002.903-2.09c.829-.83 1.55-1.767 2.127-2.813.306-.54 1.406-3.37 1.983-6.688.522-2.992.522-6.489.468-7.084a20.512 20.512 0 00-.414-3.407zm-12.835 16.242c-.919.901-1.947 1.388-3.1 1.46-.073.072-.127-.072-.145-.487-.018-.396 0-.973.054-1.73s.163-1.659.325-2.686c.162-1.028.36-2.145.595-3.353.63.685 1.352 1.298 2.127 1.857a15.938 15.938 0 002.542 1.496c-.685 1.406-1.479 2.56-2.398 3.443z" fill="#000"/></svg>