<svg width="128" height="89" fill="none" xmlns="http://www.w3.org/2000/svg"><path d="M126.515 59.47c-1.506-12.433-6.431-24.022-14.048-33.954-3.812-4.969-8.174-9.61-13.313-13.225A42.258 42.258 0 0094.97 9.7a.589.589 0 00-.376-.198c-4.123-2.183-8.56-3.69-13.175-4.63-14.124-2.879-29.39-.977-42.549 5.167a.4.4 0 00-.145.07c-9.472 4.449-17.844 11.1-23.9 19.751-4.061 5.803-6.787 12.356-8.466 19.22-1.72 7.026-2.727 14.616-2.4 21.857.015.344.302.547.599.58 5.797 4.972 13.487 8.074 20.725 10.196 7.653 2.243 15.62 3.296 23.587 3.396 17.132.215 34.245-4.28 50.039-10.653 9.331-3.764 18.328-8.31 27.075-13.273.73-.415.81-1.13.531-1.714zM86.205 8.23c-.109.084-.219.166-.328.253-.218.174.044.481.254.29.156-.14.306-.281.453-.426.862.28 1.716.588 2.56.918-.232.102-.456.22-.664.317a21.3 21.3 0 00-1.85.975c-.397.235 0 .788.394.586.636-.326 1.287-.62 1.956-.873.435-.166.938-.255 1.306-.539.698.297 1.388.611 2.069.946-.026.012-.055.023-.08.036a11.36 11.36 0 00-1.407.84c-.496.347-.986.723-1.41 1.158-.47-.434-1.169-.221-1.446.205-2.07-2.421-5.091-4.048-7.544-6.144 1.938.384 3.856.865 5.738 1.458zM76.148 6.073a.391.391 0 00.127.266c1.642 1.576 3.283 3.153 4.95 4.704.232.216.471.424.709.634-2.68-2.025-5.5-3.888-8.202-5.87.742.067 1.482.146 2.221.24l.195.026zm-8.403-.522c.423.43.909.798 1.362 1.212.758.692 1.47 1.42 2.253 2.087.59.502 1.4 1.412 2.257 1.943-2.01 1.273-3.854 2.968-5.514 4.612-1.042 1.033-1.999 2.13-2.954 3.242-.69.802-1.474 1.626-2.022 2.554-2.55-1.414-4.85-3.24-7.397-4.667-1.86-1.042-4.142-2.095-6.269-2.56.825-.459 1.504-1.161 2.25-1.741.945-.734 1.89-1.47 2.838-2.2 1.895-1.456 3.836-2.908 5.938-4.055a66.201 66.201 0 017.258-.427zm-9.786.765c-1.34.938-2.672 1.883-3.949 2.913-1.584 1.278-3.867 2.867-4.932 4.66-.006 0-.012-.002-.018-.004-.23-.042-.358.196-.258.383.426.81 1.235 1.126 2.056 1.42 3.36 2.547 6.804 5.05 10.492 7.072.266.146.533-.245.298-.44-2.123-1.756-4.401-3.336-6.733-4.832l.008.005c2.731 1.583 5.237 3.535 7.882 5.255.543.354 1.063-.181 1.067-.706.863-.716 1.569-1.655 2.326-2.47.194-.208.397-.408.595-.612.063.04.144.048.226-.015 1.937-1.49 4.297-3.023 5.811-4.962a.218.218 0 00-.12-.348c.947-.734 1.905-1.455 2.86-2.202.579-.455.314-1.18-.213-1.353-.192-.352-.547-.579-.957-.904-.8-.633-1.595-1.272-2.406-1.889-.688-.523-1.435-1.155-2.22-1.71 1.196.033 2.392.1 3.585.2 4.433 3.66 8.592 7.76 13.54 10.72.224.133.41-.193.244-.36a38.61 38.61 0 00-.967-.932c.05-.05.073-.129.027-.2-2.18-3.465-5.712-6.089-8.814-8.76a62.53 62.53 0 012.504.418c1.077 1.133 2.247 2.146 3.48 3.132 1.63 1.303 3.156 2.723 4.76 4.048 2.303 2.729 4.332 5.663 5.909 8.872.885 1.801 1.642 3.663 2.343 5.542.37.996.727 1.997 1.09 2.996-.48-.567-.968-1.116-1.392-1.657a852.701 852.701 0 00-4.233-5.342c-2.3-2.881-4.72-5.82-7.942-7.67.062-.601-.647-1.279-1.358-.873a59.27 59.27 0 00-7.37 4.98c-2.147 1.7-4.672 3.447-6.416 5.56-.343.414.049.907.492.834 2.39 2.33 4.81 4.644 7.1 7.073-.097-.076-.191-.155-.289-.23-2.821-2.152-5.996-4.258-9.573-4.689-.087-.598-.82-1.043-1.469-.466-3.104 2.752-6.06 5.679-8.89 8.716 2.669-3.534 5.704-6.712 8.826-9.89.924.626 1.864 1.225 2.844 1.75.146.078.287-.132.162-.24a31.828 31.828 0 00-2.563-1.96l.726-.738c1.101.945 2.298 1.754 3.666 2.36.14.062.284-.125.155-.23-1.838-1.488-3.714-2.964-5.327-4.702-.346-.374-.863.222-.523.593.54.587 1.096 1.143 1.675 1.665-.313.217-.623.44-.927.668-.894-.611-1.8-1.206-2.687-1.816-.306-.211-.696.226-.386.438.854.584 1.7 1.19 2.554 1.782-1.855 1.452-3.551 3.109-5.109 4.898-.043-.146-.217-.258-.366-.147-1.628 1.216-3.067 2.654-4.405 4.18.572-.938 1.15-1.872 1.745-2.795 1.351-2.1 3.013-4.002 4.312-6.129.337-.551-.19-1.099-.72-1.104-2.102-1.673-5.511-2.398-7.993-2.993A98.85 98.85 0 0046.9 22.05c-.782-.146-1.564-.296-2.349-.425-.267-.043-.902-.048-1.421-.109-.137-.442-.759-.752-1.151-.292-3.79 4.436-7.706 8.79-11.273 13.413-1.663 2.155-3.245 4.354-4.69 6.661a40.772 40.772 0 00-1.223 2.05c.067-.338.137-.674.215-1.01 2.412-4.437 5.143-8.69 7.6-13.098.079-.142-.143-.3-.24-.162-2.827 3.968-5.09 8.368-7.235 12.74.238-.965.514-1.92.82-2.864 1.13-3.488 2.558-6.89 3.941-10.282 1.274-3.124 2.597-6.231 4.124-9.24 1.21-2.386 2.657-4.581 4.08-6.814a64.211 64.211 0 011.79-.865 67.141 67.141 0 0118.069-5.437zm-6.421 34.653c.585-.77 1.144-1.568 1.75-2.33 1.505-1.895 3.198-3.595 4.88-5.32-1.869 2.308-3.53 4.792-5.016 7.31a.3.3 0 00-.045.198c-1.568 1.77-3.17 3.527-4.605 5.41.964-1.78 2-3.526 3.036-5.268zm-22.49 39.467a76.273 76.273 0 01-12.488-4.044c-3.924-1.654-7.552-3.733-11.304-5.71.607-6.103.89-12.176 2.149-18.206 1.262-6.052 3.268-11.962 6.316-17.356 5.09-9.005 13.009-16.26 22.039-21.268-1.063 1.625-1.998 3.35-2.88 5.005-1.72 3.224-3.199 6.569-4.606 9.94-1.354 3.245-2.749 6.49-3.835 9.838-.993 3.057-2.43 7.329-1.367 10.516.163.49.849.406.971-.061.296-1.127.344-2.303.437-3.471.806-1.655 1.668-3.246 2.782-4.786 1.595-2.205 3.225-4.386 4.93-6.506 3.382-4.203 6.991-8.176 10.682-12.102.725.204 1.633.261 2.191.374 1.69.34 3.38.686 5.054 1.101 1.724.428 3.436.935 5.099 1.563 1.217.46 2.334 1.136 3.499 1.687-3.134 3.78-5.66 8.168-8.083 12.407-1.29 2.256-2.55 4.537-3.706 6.865-1.006 2.024-2.213 4.53-1.976 6.844.035.34.527.53.73.247a.527.527 0 00.293-.242c1.238-2.126 2.268-4.223 3.833-6.159 1.587-1.962 3.348-3.777 5.07-5.62 3.627-3.882 7.277-7.724 11.275-11.232a1.24 1.24 0 00.162-.174c3.33 1.767 6.591 3.406 9.547 5.826 1.474 1.207 2.877 2.5 4.253 3.816 1.25 1.195 2.497 2.851 4.252 3.238.173.039.293-.13.252-.285a4.005 4.005 0 00-.35-.873c-.313-1.433-1.67-2.664-2.57-3.734a82.937 82.937 0 00-3.734-4.15c-2.485-2.58-5.126-4.934-8.073-6.96 2.27-1.337 4.329-3.34 6.437-4.893 2.286-1.684 4.61-3.28 7.087-4.671 1.182 1.116 2.494 2.079 3.598 3.29 1.572 1.721 2.847 3.696 4.246 5.555 1.312 1.743 2.657 3.461 3.997 5.183 1.164 1.498 2.215 3.384 3.946 4.271.314.16.585-.152.518-.452a5.453 5.453 0 00-.394-1.126c-.124-.92-.265-1.803-.536-2.767a62.038 62.038 0 00-1.057-3.362c-.672-1.956-1.416-3.891-2.288-5.767-1.45-3.118-3.282-5.966-5.426-8.64.408-.31.813-.627 1.248-.901.483-.304 1.445-.963 2.265-1.2.263.14.525.28.785.427 5.29 2.994 9.806 7.19 13.667 11.85 8.41 10.152 14.294 22.386 15.685 35.564-28.123 16.123-61.906 28.867-94.622 21.311z" fill="#000"/><path d="M45.586 14.945c-3.418 2.872-6.121 6.616-9.135 9.886-.059.064.041.15.1.089 3.07-3.199 6.636-6.117 9.282-9.694.117-.158-.07-.429-.247-.281zM31.681 28.48c-.05.097.102.173.152.076 2.704-5.188 6.71-9.459 10.514-13.828.14-.161-.076-.432-.254-.29-4.652 3.711-7.71 8.857-10.412 14.042zm14.034-15.256c1.653-1.592 3.621-2.74 5.313-4.265.158-.143-.041-.376-.216-.323-2.21.674-4.038 2.517-5.48 4.25-.213.256.149.564.383.338zm-3.828.686c.457-.613.945-1.2 1.476-1.75.528-.546 1.152-1.015 1.602-1.629.157-.213-.066-.45-.294-.335-1.338.67-2.37 2.23-3.184 3.444-.152.227.235.49.4.27zm11.963 8.735c-2.64-1.079-5.577-1.569-8.344-2.223-.255-.06-.328.322-.083.393 2.714.79 5.497 1.811 8.307 2.172.191.025.324-.258.12-.341zm-5.9-5.226c2.874 1.814 5.643 3.832 8.642 5.44.118.064.25-.118.135-.2-2.781-1.972-5.823-3.558-8.733-5.328-.054-.032-.096.054-.044.088zm21.893 6.634c-.208.417.413.722.641.323 1.191-2.087 3.417-3.41 5.315-4.797 1.783-1.302 3.647-2.519 5.204-4.094.203-.205-.048-.602-.32-.48-2.384 1.079-4.458 2.78-6.506 4.387-1.713 1.343-3.343 2.677-4.334 4.662zm-2.264-.077a184.34 184.34 0 014.763-4.377c1.59-1.398 3.484-2.598 4.918-4.15.223-.24-.097-.526-.35-.399-1.813.912-3.395 2.516-4.894 3.873a45.343 45.343 0 00-4.638 4.876c-.11.135.077.294.2.177zm25.27.129c.187.178.563-.044.44-.295-1.271-2.596-3.506-4.868-5.352-7.074-.291-.349-.886.035-.595.4 1.815 2.274 3.399 4.964 5.507 6.969zM75.931 13.574c.325-.059.606-.24.885-.41.133-.082.262-.167.383-.265.163-.132.205-.253.268-.447.066-.2-.14-.366-.317-.366-.359.002-.575.192-.837.42-.233.204-.491.402-.637.68-.087.165.051.425.255.388zm-45.972 64.42c-8.46-1.827-16.342-4.908-23.22-10.273-.1-.08-.232.066-.132.15 6.526 5.51 14.693 9.607 23.267 10.525.258.028.348-.345.085-.402zM13.517 64.81c8.263 5.443 18.54 8.556 28.466 7.634.181-.017.165-.287-.018-.282-10.123.282-19.833-1.922-28.37-7.507-.094-.06-.17.095-.079.155zm54.025 11.756C59.098 78.3 50.726 79.36 42.093 78.64c-.23-.019-.31.332-.075.358 8.51.928 17.46.606 25.669-2.01.282-.09.128-.478-.145-.422zm-4.66-4.429c6.09-.602 12.056-1.829 17.955-3.44 6.032-1.648 12.2-3.444 17.99-5.818.299-.123.148-.56-.164-.475-5.875 1.604-11.584 3.824-17.444 5.503-6.017 1.724-12.143 3.134-18.356 3.92-.197.025-.181.33.019.31zm38.524-6.565c-5.813 2.397-11.492 4.822-17.611 6.37-.127.033-.059.218.065.19 6.066-1.318 12.28-3.155 17.695-6.26.165-.095.028-.373-.149-.3zm13.527-2.864c-2.063.948-4.1 1.96-6.145 2.947-.078.037-.035.168.044.13 2.048-.997 4.109-1.97 6.137-3.004.041-.021.007-.093-.036-.073zm3.07-6.593c-2.688 1.194-5.211 2.751-7.748 4.23-.266.155 0 .535.265.393 2.575-1.373 5.211-2.69 7.624-4.34.144-.098.03-.359-.141-.283zm-94.378 6.997c.093.066.212-.06.12-.137-3.823-3.246-6.992-7.09-9.083-11.669-.075-.163-.341-.076-.267.092 2.033 4.64 5.094 8.75 9.23 11.714zm-.272 2.794c.146.062.248-.139.11-.22-3.943-2.33-7.645-4.707-10.896-7.972-.12-.121-.292.077-.175.199 3.11 3.22 6.805 6.239 10.96 7.993zm2.167 6.891c.087.019.113-.112.029-.134-5.757-1.52-11.024-4.466-15.197-8.726-.108-.11-.262.07-.157.178 4.174 4.352 9.422 7.403 15.325 8.682zm26.525 3.325a.182.182 0 00-.022-.364c-4.229-.197-8.455.07-12.69-.225-.172-.012-.195.286-.021.306 4.15.499 8.582.937 12.733.283zm6.741-3.802l-1.58.1c-.006 0-.005.01 0 .009l1.58-.1c.006 0 .006-.009 0-.008zm23.674 3.279c-1.676.466-3.33 1.017-4.99 1.537-.123.039-.058.23.065.19 1.657-.527 3.328-1.025 4.967-1.606.078-.028.037-.143-.042-.121zm16.826-14.778c5.297-1.212 10.434-2.704 15.304-5.163.098-.049.016-.207-.085-.17-5.037 1.854-10.064 3.834-15.24 5.273-.04.011-.018.07.02.06zm20.223-11.116c-2.033 1-3.941 2.301-5.878 3.473-.156.094.001.327.158.235 1.937-1.144 3.985-2.203 5.816-3.513.096-.069.019-.252-.096-.195z" fill="#000"/></svg>