<svg width="77" height="93" fill="none" xmlns="http://www.w3.org/2000/svg"><path d="M76.271 79.202c-5.377-8.595-4.124-19.095-3.727-28.725.218-5.298.036-10.561-1.088-15.759-1.058-4.883-3.162-9.46-4.215-14.34-.637-2.957-.685-5.912.062-8.854.725-2.858 1.982-5.533 3.239-8.187.263-.557.09-1.39-.621-1.526C52.008-1.643 33.939.324 16.176 3.7 11.036 4.678 5.918 5.76.801 6.852c-1.403.3-.809 2.449.593 2.15l.007-.001c2.973 3.92 3.16 9.219 2.419 13.962C2.95 28.518 1.24 33.86.78 39.492.343 44.859.573 50.325 1.844 55.569c1.313 5.416 3.886 10.157 6.398 15.08 2.744 5.381 5.217 11.98 2.31 17.82-.271.546-.043 1.164.551 1.354 8.923 2.853 18.367 3.583 27.68 2.912 8.66-.624 17.67-2.06 25.774-5.285 4.237-1.686 8.18-3.95 11.558-7.034.317-.29.383-.851.156-1.214zm-23.06 9.455c-2.269.486-4.557.908-6.857 1.258-.222-2.433-.59-4.84-1.275-7.192-.066-.228-.374-.126-.345.095.326 2.397.727 4.783 1.045 7.181-6.294.924-12.674 1.293-19.018.865-.287-.02-.572-.047-.858-.07a.111.111 0 00.015-.065c-.11-1.416-.176-2.845-.375-4.252-.012-.086-.15-.063-.15.02.016 1.412.169 2.825.274 4.232a.126.126 0 00.014.047 65.04 65.04 0 01-13.066-2.427c4.297-10.593-5.19-20.651-8.285-30.265-1.796-5.58-2.538-11.551-2.225-17.4.331-6.193 2.267-12.021 3.091-18.127.64-4.74.116-9.949-2.9-13.747.914-.194 1.829-.388 2.744-.58.854 2.951 1.855 5.938 3.123 8.716.07.153.301.042.264-.112-.705-2.94-1.752-5.884-2.887-8.71 16.044-3.37 32.233-6.385 48.698-5.963 3.077.08 6.144.305 9.193.69-1.326 4.586-2.133 9.675-1.258 14.33.037.195.33.14.336-.046.092-2.643-.058-5.266.194-7.908a49.917 49.917 0 011.008-6.342c1.482.192 2.958.427 4.43.698-1.942 4.178-3.698 8.526-3.47 13.22.259 5.312 2.52 10.2 3.97 15.242 1.56 5.422 2.054 10.967 1.907 16.59-.142 5.428-.701 10.858-.379 16.289.204 3.427.757 6.848 1.883 10.07a33.855 33.855 0 01-1.475-5.2c-.022-.107-.208-.085-.194.026.428 3.456 1.63 6.63 3.494 9.562.044.07.13.05.163-.005.027.047.056.092.083.138a30.768 30.768 0 01-3.942 2.9c-1.325-1.978-2.665-3.841-3.525-6.1-.886-2.327-1.39-4.8-1.39-7.292 0-.123-.184-.122-.19 0-.214 4.712 1.124 10.31 4.758 13.608-5.044 3.06-10.858 4.792-16.622 6.026z" fill="#DEDEDE"/><path d="M16.942 21.086c-.312-1.075-1.99-.619-1.681.464.141.494.278.989.414 1.484.172 3.7-2.897 7.096-4.518 10.19-1.733 3.31-2.634 7.019-2.895 10.732-.56 7.978 1.926 15.797 5.65 22.766 2.232 4.177 4.927 8.08 7.731 11.89.467.634 1.62.491 1.596-.432-.255-9.687-.35-19.401-1.159-29.062-.795-9.495-2.486-18.879-5.138-28.032zm-5.836 35.092c-2.34-7.76-2.165-16.291 1.789-23.49 1.334-2.43 2.944-4.887 3.339-7.558l.225.893c-.298 1.46-.971 2.89-1.649 4.204-1.208 2.344-2.21 4.719-2.817 7.294a29.41 29.41 0 00-.78 7.588c.068 2.34.212 5.283 1.333 7.383.222.416.935.236.906-.246-.075-1.278-.482-2.55-.67-3.819a28.063 28.063 0 01-.296-4.253 28.886 28.886 0 011.33-8.573c.42-1.334 1.14-2.78 1.83-4.273-.215 1.04-.41 2.085-.598 3.13-.552 3.079-.99 6.177-1.207 9.298-.214 3.09-.219 6.202.114 9.284.308 2.847.65 6.312 2.2 8.78.234.373.966.265.907-.245-.157-1.348-.611-2.62-.924-3.937a37.89 37.89 0 01-.821-4.84c-.314-3.003-.311-6.032-.109-9.042.208-3.083.617-6.155 1.12-9.203.256-1.561.547-3.117.815-4.676.031-.183.067-.368.104-.554a144.06 144.06 0 011.463 7.344c.05.524.116 1.045.217 1.559a.2.2 0 00.06.108 145.38 145.38 0 011.362 11.31c.635 7.858.821 15.753 1.036 23.638-.49-3.273-.798-6.596-1.017-9.875-.287-4.304.014-8.655-.406-12.94-.029-.296-.51-.425-.567-.077-.71 4.334-.225 8.93.18 13.28.229 2.465.577 4.89.988 7.308-.712-1.921-1.614-3.762-2.584-5.564-2.162-4.019-4.72-7.923-6.157-12.28-.087-.264-.5-.154-.42.117 1.225 4.15 3.262 7.89 5.256 11.703 1.019 1.95 2.016 3.929 2.791 5.991.372.991.693 2.002.94 3.032-3.864-5.503-7.338-11.346-9.283-17.799z" fill="#DEDEDE"/><path d="M17.535 53.67c.408-3.44.148-6.99.1-10.448-.048-3.49-.19-6.963-.33-10.449-.01-.266-.408-.268-.415 0-.091 3.486-.187 6.96-.187 10.449 0 3.459-.21 7.014.245 10.448.049.374.542.38.587 0zM42.08 33.154a73.405 73.405 0 00-2.689-6.731 78.775 78.775 0 00-1.691-3.471c-.539-1.042-1.012-2.283-1.944-3.028-.463-.37-1.026-.02-.949.552.09.667.387 1.296.723 1.907.17 3.806-2.833 7.335-3.89 10.94-1.44 4.918-1.772 10.114-1.13 15.19.607 4.814 2.034 9.483 3.879 13.962a97.897 97.897 0 003.063 6.669c1.036 2.062 2.013 4.712 3.678 6.34.385.377 1-.004.881-.512-.005-.022-.012-.042-.018-.064 2.026-4.207 2.702-9.244 3.199-13.837.512-4.732.526-9.517-.02-14.248a65.437 65.437 0 00-3.091-13.67zm1.558 27.688c-.34 3.349-1.146 6.612-1.789 9.898a325.97 325.97 0 00-.158-7.784c-.07-1.98-.14-3.96-.208-5.94-.066-1.928-.037-3.906-.431-5.799-.077-.366-.558-.23-.598.08-.242 1.884-.082 3.824-.031 5.719.055 2.063.097 4.126.139 6.189.064 3.127.209 6.246.391 9.366-.147-.258-.295-.515-.437-.774a183.946 183.946 0 01-1.818-3.381c-1.223-2.345-2.377-4.73-3.39-7.172-1.9-4.586-3.31-9.417-3.762-14.374-.47-5.17.027-10.63 1.877-15.51.849-2.238 2.085-4.27 2.575-6.411.355 3.305.202 6.658-.02 9.984-.31 4.65-.744 9.552.798 14.036.15.437.935.404.866-.118-.337-2.535-.671-5.072-.69-7.633-.019-2.321.16-4.634.285-6.95.123-2.277.143-4.486-.045-6.665a186.93 186.93 0 011.491 5.296c.516 1.972.96 3.97 1.242 5.99.326 2.336.132 4.692.403 7.014.053.457.76.654.876.118.463-2.16.136-4.65-.148-6.82a45.46 45.46 0 00-1.199-5.922c-.571-2.12-1.258-4.202-1.975-6.274a70.61 70.61 0 012.637 6.58c1.518 4.43 2.584 9.026 3.09 13.685.49 4.507.487 9.062.029 13.572z" fill="#DEDEDE"/><path d="M37.213 58.676c-.891-2.599-1.703-5.227-2.36-7.894-1.316-5.33-2.006-10.944-1.45-16.426.023-.226-.356-.278-.399-.053-1.037 5.478-.635 10.883.6 16.293.63 2.761 1.45 5.475 2.353 8.158.903 2.68 1.696 5.59 3.197 8 .218.35.704.111.639-.27-.46-2.684-1.699-5.237-2.58-7.808zm2.104-11.133c-.055-.273-.506-.28-.557 0-.38 2.093-.093 4.363.08 6.469.18 2.16.494 4.276.784 6.417.025.18.333.139.319-.043-.168-2.2-.216-4.433-.288-6.64-.068-2.04.072-4.198-.338-6.203zM59.441 73.23c4.265-8.421 6.838-17.932 4.503-27.293-1.205-4.834-2.924-9.566-4.435-14.31-.801-2.515-1.548-5.055-2.403-7.552a17.465 17.465 0 00-1.046-2.413c-.463-.892-.807-1.887-1.369-2.716-.398-.587-1.234-.341-1.293.35a3.44 3.44 0 00.021.747c-.906 1.63-1.752 3.242-2.352 5.034a43.039 43.039 0 00-1.731 6.97c-.718 4.553-.377 9.168.583 13.66 1.009 4.72 2.647 9.277 4.234 13.826.805 2.308 1.593 4.623 2.278 6.97.66 2.262 1.074 4.525 2.172 6.613.01.034.024.066.042.096.03 1.25.596 2.382 1.148 3.532.962 2.002 1.91 3.997 3.07 5.893.06.098.24.034.195-.082-.607-1.596-1.326-3.126-2.089-4.654-.685-1.373-1.711-2.873-1.923-4.443a.394.394 0 00.395-.228zm-4.3-49.088c.848 2.28 1.492 4.66 2.23 6.979.774 2.436 1.584 4.868 2.368 7.307a74.024 74.024 0 011.553 9.244c.307 2.992.659 6.53.142 9.774-.06-1.914-.31-3.837-.547-5.59a61.947 61.947 0 00-2.782-11.768.422.422 0 00-.496-.286c-.975-5.688-2.695-11.328-3.138-17.079.248.472.492.942.67 1.419zm1.05 35.3c-1.531-4.26-3.18-8.489-4.314-12.878-1.135-4.39-1.745-8.95-1.26-13.48.246-2.305.733-4.586 1.367-6.814l.061-.215c-.369 2.628-.479 5.311-.508 7.83-.028 2.55.11 5.096.42 7.629.29 2.389.534 5.021 1.582 7.215.234.49.994.233.992-.268-.01-2.39-.706-4.83-.972-7.203a65.217 65.217 0 01-.41-7.374c.005-2.378.154-4.756.395-7.121.072-.711.164-1.421.26-2.13.487 8.369 3.071 16.609 3.823 24.956a.274.274 0 00.548 0c.179-1.945.142-3.873-.03-5.793a68.215 68.215 0 011.314 8.254c.177 1.846.294 3.69.352 5.543.045 1.425.017 2.837.168 4.241-.15.264-.31.521-.484.772-.139.199.16.41.326.252.09-.087.177-.173.262-.26.034.209.07.418.115.626.062.291.464.248.547 0 .224-.663.385-1.356.496-2.067.772-1.206 1.175-2.54 1.377-4.158.353-2.833.157-5.751-.113-8.582-.004-.042-.01-.083-.013-.125.65 3.655.65 7.323-.06 11.051-.695 3.652-1.926 7.138-3.008 10.674-.017-.11-.036-.22-.056-.33-.048-6.174-.798-12.526-2.728-18.333a.231.231 0 00-.051-.085c-.098-1.91-.287-3.812-.664-5.671-.074-.363-.598-.255-.617.083-.232 4 .398 8.065.95 12.017.036.253.44.186.438-.059-.002-.884-.003-1.774-.01-2.667.324 2.81.595 5.627.885 8.44-.443-1.33-.907-2.651-1.38-3.97zM10.778 20.038c-.007.076.121.094.135.018.688-3.787-.086-7.596-1.964-10.936-.055-.099-.203-.011-.15.088 1.771 3.36 2.356 7.066 1.98 10.83zM7.562 18.73c.212 2.422-.03 4.733-.397 7.126-.02.128.16.185.197.055.672-2.323.736-4.786.52-7.18-.019-.203-.338-.206-.32 0zm3.173 8.751c.51-2.193.92-4.4 1.337-6.614.02-.104-.14-.15-.161-.044-.462 2.205-.926 4.403-1.294 6.626-.012.075.1.11.117.032zm-5.782 7.882c-.516 2.193-.696 4.416-.398 6.655.01.075.127.08.122 0-.154-2.236-.045-4.412.474-6.6.03-.128-.168-.183-.198-.055zm8.783 36.358c1.38 4.847 2.538 9.726 1.6 14.772-.039.21.256.295.323.088 1.61-4.96-.019-10.198-1.593-14.95-.069-.208-.39-.123-.33.09zm3.154 8.533c.764 2.854.549 5.487.318 8.382-.016.2.267.208.329.044 1.02-2.703.675-5.857-.111-8.574-.1-.342-.628-.198-.535.148zm5.63 2.786c-.864 2.099-1.36 4.399-1.99 6.578-.072.25.314.355.389.107.652-2.172 1.483-4.373 1.895-6.605.035-.195-.22-.26-.294-.08zm4.93-1.32c1.53 2.537 2.319 5.338 2.775 8.247.023.148.25.106.254-.034.093-3.063-.906-5.933-2.498-8.523-.207-.337-.737-.03-.531.31zm5.442-3.364c.502 2.782.773 5.774 1.704 8.449.058.168.342.155.328-.045-.187-2.844-1.104-5.712-1.731-8.486-.044-.198-.335-.112-.3.082zm4.096 1.564c.502 1.652.78 3.329 1.183 5.002.021.09.17.073.164-.022-.119-1.704-.607-3.42-1.098-5.048-.048-.16-.298-.091-.25.068zm11.658-11.955c.004-.151-.232-.151-.235 0-.07 3.055.224 6.084 1.015 9.04.016.062.108.035.095-.026-.612-2.978-.948-5.971-.875-9.014zm3.154 2.687c.89 5.066 2.179 10.133 4.235 14.858.026.06.125.017.104-.044-1.687-4.89-3.195-9.775-4.111-14.877-.027-.148-.253-.085-.227.063zm.01 9.188c-.034-.216-.364-.125-.33.09.313 1.965 1.031 3.743 2.284 5.294.051.064.157-.019.113-.087-1.034-1.629-1.77-3.386-2.067-5.297zm15.078-19.85c-.137 7.194 2.378 14.067 5.541 20.432.06.122.27.036.223-.094-2.445-6.608-5.563-13.14-5.597-20.338 0-.107-.165-.107-.167 0zm-.449-29.136c-.66-2.373-1.566-4.652-2.115-7.06a47.368 47.368 0 01-1.124-7.71c-.015-.267-.423-.272-.418 0 .096 4.956.825 10.538 3.33 14.907.1.176.382.059.327-.137zm2.776 8.51c-.864-3.223-2.19-6.193-3.892-9.06-.11-.185-.397-.018-.29.169 1.635 2.831 2.95 5.85 4.035 8.932.032.091.172.055.147-.04zM58.072 18.471c.143-2.566 0-5.136.161-7.704.162-2.566.577-5.086.843-7.638.015-.148-.215-.17-.254-.034-.715 2.463-1.007 5.119-1.185 7.672-.178 2.56-.3 5.204.151 7.742.03.168.275.116.284-.038zm.84-.528c.45 4.46 1.537 9.109 3.803 13.019.05.086.207.028.167-.07-1.737-4.238-3.213-8.371-3.757-12.95-.016-.133-.227-.136-.213 0zm-5.966-5.305c.012.14.215.144.22 0 .122-3.087-.576-6.14-1.632-9.025-.055-.15-.294-.089-.242.066.973 2.922 1.378 5.903 1.654 8.96zm-6.121-5.265c.936 3.91 1.281 7.873 1.39 11.884.003.088.134.088.137 0 .167-4.023-.43-8.021-1.424-11.913-.017-.066-.118-.038-.103.029zm-3.283 13.719c-.605-4.179-1.475-8.32-2.276-12.465-.035-.178-.303-.102-.271.075.74 4.154 1.413 8.33 2.35 12.445.03.131.215.072.197-.055zm1.848 15.891c-.556-2.117-1.107-4.225-1.48-6.384-.034-.193-.326-.111-.294.08.37 2.158.846 4.294 1.599 6.352.04.109.206.067.176-.048zM34.587 14.756c-.135-2.39-.29-4.75-.184-7.146.01-.21-.317-.21-.326 0-.104 2.39-.086 4.81.33 7.17.019.101.186.078.18-.024zm-3.053 4.752c-.195-3.797-.598-7.58-.949-11.366-.012-.135-.224-.137-.213 0 .308 3.792.564 7.59 1.026 11.366.01.085.141.09.136 0zm-3.969 3.188c.124-5.43-.895-10.933-2.212-16.182-.058-.228-.406-.132-.352.097 1.244 5.317 1.726 10.665 2.252 16.085.02.196.308.204.312 0zm-5.209 1.309c-.652-4.453-1.612-8.856-2.495-13.267-.032-.163-.278-.093-.249.069.793 4.427 1.508 8.876 2.531 13.256.033.142.233.078.213-.058zm2.231 8.752c.005-.21-.322-.21-.327 0-.087 3.475.19 6.996 1.145 10.35.041.142.248.081.22-.061-.656-3.416-1.108-6.804-1.038-10.289z" fill="#DEDEDE"/></svg>