<svg width="42" height="42" fill="none" xmlns="http://www.w3.org/2000/svg"><circle cx="21" cy="21" r="20" fill="#000" stroke="#fff" stroke-width="2" stroke-linecap="round" stroke-linejoin="round"/><path d="M28.942 18.874a2.648 2.648 0 00-.235-.3 2.576 2.576 0 00-.32-.306c-.114-.093-.216-.142-.3-.147-.333-.009-.711.003-1.135.036-.423.034-.87.08-1.338.14-.469.06-.949.13-1.436.21-.489.078-.962.164-1.42.256a37.84 37.84 0 00-2.351.543c-.032.01-.018.05.035.12.057.072.127.149.215.23a2.2 2.2 0 00.259.216c.085.063.148.086.182.074a1.99 1.99 0 01.304-.092c.14-.036.314-.077.516-.12a38.284 38.284 0 011.505-.286c-.2.4-.396.807-.585 1.22-.192.412-.356.824-.494 1.232a7.41 7.41 0 00-.112.363.504.504 0 00-.081.115 34.81 34.81 0 00-.415.687c-.086.142-.165.277-.243.403-.077.127-.147.237-.205.33-.061.092-.1.148-.12.168-.009.01-.002-.05.023-.175a8.48 8.48 0 01.114-.49c.052-.198.116-.42.188-.669.072-.245.146-.484.223-.712.076-.23.155-.435.234-.615a1.41 1.41 0 01.223-.385c.005-.005-.009-.016-.04-.034a.745.745 0 00-.138-.052l-.205-.06-.243-.07a17.407 17.407 0 00-.68-.172c-.041.016-.089.075-.143.176-.054.101-.11.232-.164.392a9.7 9.7 0 00-.322 1.165 58.201 58.201 0 00-.62.949c-.12.184-.23.349-.33.495a1.65 1.65 0 01-.193.257c-.009.01-.002-.05.023-.175a8.48 8.48 0 01.115-.49 20.822 20.822 0 01.41-1.381c.076-.23.155-.435.234-.615a1.41 1.41 0 01.223-.385c.005-.005-.009-.016-.04-.034a.745.745 0 00-.138-.052l-.205-.06-.243-.07a17.407 17.407 0 00-.68-.172c-.05.016-.111.1-.181.25-.03.064-.059.133-.088.212-.025.04-.05.086-.07.12-.056.103-.112.214-.196.356-.083.14-.205.32-.302.473-.149.23-.293.437-.473.673-.18.237-.36.47-.55.663-.19.194-.347.343-.527.473-.162.12-.433.221-.645.183-.322-.057-.676-.406-.89-.721a2.324 2.324 0 01-.394-1.048 3.22 3.22 0 01.081-1.147c.097-.392.235-.773.413-1.142.178-.37.378-.715.606-1.04a8.62 8.62 0 01.655-.835c.212-.235.257-.298.42-.417.16-.12.338-.282.466-.237l.011.007c.088.068.063.185.039.392-.025.212-.09.426-.151.728a6.65 6.65 0 01-.302 1.003 34.77 34.77 0 01-.338.86c-.093.228-.187.404-.316.692-.054.122.678.12.892.014.266-.133.397-.347.577-.627.18-.277.343-.568.49-.872.146-.304.265-.586.36-.85.094-.263.164-.484.194-.668a1.483 1.483 0 00-.003-.582c-.07-.383-.349-.764-.543-.953-.532-.52-.984-.511-1.487-.48-.137.01-.54.077-.744.205a3.583 3.583 0 00-.648.555 7.9 7.9 0 00-.697.858 8.707 8.707 0 00-1.156 2.305c-.14.426-.232.856-.274 1.287a4.39 4.39 0 00.056 1.275c.08.417.205.777.38 1.102.147.252.431.644.861.976.214.166.49.315.805.408.259.076.527.103.746.09a1.67 1.67 0 00.536-.131 2.86 2.86 0 00.511-.318c.255-.19.404-.349.575-.543a11.526 11.526 0 00.489-.583l-.007.101c-.009.21.005.36.045.455a.76.76 0 00.257.307c.122.09.25.162.385.22.136.057.26.1.377.127a.9.9 0 00.243.033c.025-.004.063-.033.113-.085.05-.052.108-.124.175-.212.068-.09.14-.192.221-.306.08-.115.16-.235.24-.359a.959.959 0 00.051.277.76.76 0 00.257.307c.122.09.25.162.385.22.135.057.262.1.381.127a.9.9 0 00.239.034c.034-.005.099-.064.191-.172a6.15 6.15 0 00.314-.414l.144-.21c.007.102.018.203.034.304 0 .014.018.03.054.05.036.02.08.043.14.07a4.884 4.884 0 00.406.167c.172.067.369.137.585.214a6.41 6.41 0 01.15-1.19c.09-.428.215-.872.368-1.334.153-.46.336-.93.548-1.41.211-.48.444-.954.696-1.42.009-.01-.027-.025-.106-.05a9.966 9.966 0 00-.293-.083 48.06 48.06 0 011.253-.162c.421-.052.827-.09 1.217-.117.39-.027.75-.041 1.083-.041.334 0 .618.02.854.06.034-.002.018-.044-.04-.132z" fill="#fff"/><path d="M27.279 21.83a2.107 2.107 0 00-.086-.317.401.401 0 00-.101-.172 2.198 2.198 0 00-.532-.273 1.058 1.058 0 00-.198-.049c-.052-.004-.074.005-.063.03.029.099.047.23.052.387.004.16 0 .334-.016.523s-.043.385-.081.586c-.04.2-.093.392-.158.572a.663.663 0 01-.43-.363c-.093-.187-.097-.437-.012-.75.07-.19.149-.367.235-.534.088-.167.187-.313.302-.437.02-.02-.003-.052-.063-.093a1.66 1.66 0 00-.244-.13 3.835 3.835 0 00-.672-.223c-.07-.016-.16.042-.272.175a2.842 2.842 0 00-.336.523 5.19 5.19 0 00-.306.732c-.093.27-.158.539-.194.803a2.12 2.12 0 00.011.727.816.816 0 00.307.512 4.524 4.524 0 00.795.498c.138.067.268.12.392.153a.749.749 0 00.32.03 1.62 1.62 0 00.467-.15 1.483 1.483 0 00.628-.612 3.51 3.51 0 00.248-.836c.066-.374.066-.811.059-.886a2.558 2.558 0 00-.052-.426zm-1.604 2.03a.595.595 0 01-.388.183c-.009.009-.016-.009-.018-.06-.002-.05 0-.123.007-.217a3.84 3.84 0 01.04-.336c.02-.128.045-.268.075-.419a1.992 1.992 0 00.584.42 1.53 1.53 0 01-.3.43z" fill="#fff"/></svg>