<svg width="160" height="152" fill="none" xmlns="http://www.w3.org/2000/svg"><path d="M69.531.906C52.625 1.938 37.656 6.531 26.187 14.188c-6.937 4.624-12.281 10.124-16.125 16.687-1.5 2.531-1.625 3.344-.53 4.063 1.155.75 1.874.312 3.218-2.032C20.937 18.688 39.25 8.22 61.718 4.844c5.407-.813 21.407-.813 27.188 0 14.813 2.094 28.469 6.437 36.719 11.656 6.125 3.875 11.906 9.25 16.344 15.188 8.968 11.968 13.968 25.593 14.5 39.468.5 13.5-3.407 27.188-11.407 39.938-11.968 19.062-32.687 32.125-57.094 35.906-5.843.906-18.187 1-23.406.156-8.437-1.343-14.5-3.187-21.375-6.5-7.593-3.625-12.562-7.187-19.375-13.843-13.531-13.25-20.375-28.688-20.375-45.97 0-12.156 2.563-24.03 7.125-33.124 1.875-3.782 3.469-6.032 6.219-8.907 2.438-2.562 2.719-3.374 1.844-5l-.438-.75-2.875 2.782C8.406 42.562 5.22 48.906 2.375 61.625-1.75 80.063-.375 95.25 6.625 109.25c5.25 10.5 14.437 21.188 24.625 28.656 7.125 5.219 13.843 8.375 22.187 10.375C71.281 152.625 88.406 152 103.5 146.5c6.562-2.375 18.75-8.094 23.312-10.937 9-5.594 16.188-13.75 23.813-27.063 3.156-5.562 4.844-9.125 6.25-13.344 3.875-11.75 4.094-25.156.594-39.156-5.188-20.844-19.657-38.531-38.375-46.875C113.25 6.5 104.969 4.094 97.187 2.75 89.062 1.344 76.22.5 69.531.906z" fill="#C18539"/></svg>