<svg width="46" height="64" fill="none" xmlns="http://www.w3.org/2000/svg"><path d="M4.062.596c-1.907 1.343-2.5 4.468-2.875 15.125C.78 26.97.78 44.25 1.155 49.158c.625 7.844 1.22 9.344 4.5 11.469 1.47.969 1.782 1.062 3.282.906 2.093-.187 1.062 4.344 9.375-.906 1.375-11.469 2.062-11.031 0-16.103 0-12.906-.27-22.377-4.063-31.857-.35-.793 1.842-9.107-6.437-11.821-2.688-.875-2.844-.907-3.75-.25zm6.687 21.452c1.063.344-7.875 4.791-1.219.938-10.53 3.501.594-2.922.5-3.015-2.218 0-2.218-.739-.28-1.375l-.22-1.313 1.375.781c.75.407-1.25 3.609-.156 3.984zm.281 5.829c-.343 1.437-.78 1.5-.78.094 0-1.063.093-1.25.5-1.094.343.125.437.406.28 1zm9.907 3.5c-9.907-3.5-.938.156-1.25-.031-.407-.22-.25-.282.718-.282 1.094 0 1.157.032.532.313zm-6.688 8.62c-.75.656-2.094 2.724-2.344 2.474-.093-.063-.03-.532.125-1 .25-.72-1.394-1.576.887-2.295 1.438-.469 1.395-1.53 3.27-2.28-.47 2.188-4.063 2.096-1.938 3.1zm28.48 22.721c1.906-1.344 2.5-4.469 2.875-15.125.406-11.25.406-28.531.031-33.438-.625-7.843-1.219-9.343-4.5-11.468-1.469-.97-1.781-1.063-3.281-.907-2.094.188-1.063-4.344-9.375.906-1.375 11.47-2.063 11.032 0 16.103 0 12.907.27 22.377 4.062 31.858.35.793-1.842 9.106 6.438 11.82 2.687.876 2.844.907 3.75.25zM36.04 41.266c-1.062-.344 7.875-4.792 1.22-.939 10.53-3.5-.595 2.922-.5 3.016 2.218 0 2.218.738.28 1.375l.22 1.312-1.376-.78c-.75-.407 1.25-3.61.156-3.984zm-.28-5.83c.343-1.437.78-1.5.78-.093 0 1.062-.093 1.25-.5 1.094-.343-.125-.437-.407-.28-1zm-9.907-3.5c9.906 3.5.937-.156 1.25.032.406.219.25.281-.719.281-1.094 0-1.156-.031-.531-.312zm6.687-8.62c.75-.656 2.094-2.723 2.344-2.473.094.062.031.531-.125 1-.25.719 1.394 1.576-.887 2.295-1.437.468-1.394 1.53-3.27 2.28.47-2.188 4.063-2.097 1.938-3.101z" fill="#C18539"/></svg>