<svg width="60" height="62" fill="none" xmlns="http://www.w3.org/2000/svg"><path d="M3.625.687C1.718 2.031 1.125 5.157.75 15.812.343 27.062.343 44.344.718 49.25c.625 7.844 1.22 9.344 4.5 11.469 1.47.968 1.782 1.062 3.282.906 2.093-.188 3.312-.813 11.625-6.063C34.593 46.47 48.28 36.844 54.75 31.22c2.343-2.032 5.062-4.907 5.062-5.375 0-.157-.219-.782-.469-1.407-.468-1.062-.937-1.343-8.375-5C37.25 12.687 16.906 4.062 7.375.937 4.687.062 4.53.031 3.625.687zM20.968 17.5c2.844.875 8.625 3.156 9.75 3.812 1 .594.844.532-4.656-1.375-2.5-.875-6.187-2.03-8.187-2.593-4.594-1.22-6-2.063-2.063-1.22 1.531.345 3.844.938 5.156 1.376zm-7.156 2.094c1.063.343 1.938.656 1.938.687 0 .094-6.063-.125-6.157-.219-.03-.03-.156-.656-.28-1.375l-.22-1.312 1.375.781c.75.406 2.25 1.063 3.344 1.438zm-3.219 8.375c-.343 1.437-.78 1.5-.78.093 0-1.062.093-1.25.5-1.093.343.125.437.406.28 1zM26 27.28a3.212 3.212 0 01-1.094 0c-.313-.094-.063-.156.531-.156.594 0 .844.062.563.156zm2.812.313a3.212 3.212 0 01-1.094 0c-.312-.094-.062-.157.532-.157.593 0 .843.063.562.157zM20.5 31.469c-.47.187-.938.156-1.25-.032-.407-.218-.25-.28.718-.28 1.094 0 1.157.03.532.312zm10.843 2.906c-.75.656-19.625 8.437-19.875 8.187-.093-.062-.03-.53.125-1 .25-.718.657-.968 2.938-1.687 1.437-.469 4.187-1.438 6.062-2.188 4.688-1.843 11.438-3.906 10.75-3.312z" fill="#C18539"/></svg>