<svg width="258" height="59" fill="none" xmlns="http://www.w3.org/2000/svg"><path fill-rule="evenodd" clip-rule="evenodd" d="M256.484 26.201c-3.641-.523-7.209-1.196-10.85-1.495-6.615-.448-13.229-.747-19.844-.971-3.196-.15-6.391-.15-9.587.074-2.081.15-4.088-.074-6.02-.747-5.202-1.72-10.405-3.364-15.83-4.26-1.115-.15-2.23-.449-3.345-.823-3.567-1.27-7.283-1.868-10.999-2.317-1.486-.15-2.973-.299-4.385-.673-4.756-1.27-9.736-1.42-14.418-2.915-.743-.224-1.561-.224-2.378-.298-5.946-.225-11.817-.598-17.688.299-1.858-1.42-3.865-2.392-6.095-3.214-5.499-1.944-11.296-2.691-16.945-4.037-4.979-1.196-10.107-1.719-15.161-2.466-2.898-.449-5.871-.748-8.844-1.121C90.676.863 87.332.34 83.913.04c-1.412-.15-2.898.15-4.385.299-.297 0-.594.448-1.338 1.046a20.45 20.45 0 001.859.075c1.04 0 2.08-.224 3.047-.075 6.911.748 13.823 1.57 20.735 2.467 4.088.523 8.101 1.196 12.114 2.018 4.459.897 8.844 2.167 13.378 2.915 2.675.448 5.276 1.42 8.249 3.214-.966.448-1.486.672-2.006.822-3.493.972-7.061 1.72-10.554 2.766-5.648 1.719-11.371 3.363-15.979 7.474-1.189 1.046-2.527 1.345-4.087.972-1.561-.374-3.196-.449-4.682-.972-2.379-.822-4.906-1.121-7.358-1.346-3.642-.224-7.284-.373-10.925-.597-3.196-.225-6.243-.748-9.216-2.392-1.858-1.047-4.013-1.72-6.094-2.243-6.763-1.644-13.526-3.288-20.364-4.708C40.584 10.58 34.862 9.757 29.14 8.86c-2.006-.3-4.087-.15-6.168-.075-.298 0-.595.374-1.413.971 1.413.075 2.156.15 2.973.15 1.115 0 2.304-.075 3.42.075 3.492.523 6.985.971 10.478 1.719 9.216 2.018 18.506 4.11 27.722 6.278 1.858.449 3.641 1.196 5.5 1.869.445.15.817.523 1.709 1.121-1.264.224-2.007.448-2.75.523-1.784.224-3.642.374-5.425.748-7.358 1.345-14.27 4.036-21.033 7.175-2.304 1.047-4.46 2.317-6.763 3.364-.67.299-1.561.597-2.23.448-3.939-.598-7.878-1.42-11.742-2.093-2.007-.373-4.014-.747-6.095-1.046-3.27-.449-6.54-.972-9.81-1.346-2.155-.224-4.31-.373-6.466-.523-.446 0-1.115.075-1.04.972l1.337.224c2.75.3 5.5.449 8.176.897 7.729 1.27 15.533 2.766 23.262 4.111 5.202.897 10.182 2.392 15.31 3.513 5.277 1.121 10.182 3.289 15.087 5.382.371.149.594.523 1.115 1.046-1.04.448-1.858.822-2.676 1.196-.966.373-1.932.747-2.898 1.046-.818.3-1.784.3-2.379 1.346.52.15.818.448 1.04.373 2.75-1.196 5.798-1.345 8.622-2.018 1.115-.299 2.23-.299 3.419-.373 6.168-.3 12.262.747 18.431.897.446 0 .892.149 1.338.224 3.939.822 7.803 1.644 11.742 2.466 3.122.673 6.243 1.42 9.365 2.018 4.831.972 9.587 1.869 14.418 2.915 2.304.449 4.682 1.047 6.986 1.645 3.567.822 7.06 1.719 10.628 2.541 1.04.224 2.155.598 3.27.15-.223-.972-.966-.972-1.635-1.122-4.013-.971-7.952-2.093-11.966-2.99-6.094-1.42-12.263-2.69-18.357-4.036-1.412-.299-2.898-.448-4.013-1.644.892-1.345 2.23-1.72 3.493-2.242.966-.374 1.932-.673 2.898-1.047 3.27-1.27 6.541-2.69 9.885-3.812 4.311-1.42 8.695-2.765 13.229-3.363 2.676-.374 5.351-.972 8.101-1.495.966-.15 2.007-.299 3.047-.224 3.79.15 7.506.299 11.297.598 5.499.373 10.925-.075 16.424.672 4.757.598 9.513.823 14.196 2.093 2.749.748 5.574 1.196 8.398 1.645 1.04.15 2.006.299 3.047.299.297 0 .594-.449 1.115-.823-1.264-.298-2.156-.448-2.973-.672-.743-.224-1.561-.449-2.304-.673-.892-.15-1.784-.299-2.676-.374l-2.675-.448c-.818-.15-1.561-.224-2.378-.374-.892-.15-1.784-.299-2.676-.523-.892-.224-1.784-.449-2.675-.598-.818-.15-1.561-.299-2.379-.374-.817-.075-1.709.075-2.675-.747 1.189-.673 2.229-1.121 3.121-1.794 3.493-2.541 7.507-3.812 11.371-5.382 4.459-1.793 9.216-2.54 13.972-3.288 3.27-.524 6.541-.822 9.885-.822 2.155.074 4.311-.075 6.466 0 10.256.299 20.512.373 30.694 2.317.297.074.669-.075.966-.15.149-.075.223-.523.149-.523-.669-.224-1.041-.598-1.487-.673zm-118.02 10.913c-6.837 1.046-13.303 3.139-19.62 5.98-3.939 1.793-7.953 3.288-11.966 5.007-1.561.673-2.973.822-4.608.3-4.459-1.346-9.141-2.094-13.749-2.766-1.56-.225-3.196-.225-4.757-.3-1.04-.074-2.08-.074-3.047-.224-3.195-.448-6.317-.897-9.513-.373-.891.15-1.858 0-2.75-.075-1.04-.075-2.006-.3-2.75-1.121-1.114-1.27-2.6-1.794-4.087-2.392-6.094-2.69-12.411-4.485-18.877-5.98-.966-.224-1.933-.598-3.568-1.12.967-.823 1.487-1.271 2.007-1.57 4.31-2.317 8.77-4.41 13.526-5.756 2.007-.598 3.94-1.12 5.872-1.868 2.155-.822 4.385-1.196 6.688-1.42 2.75-.225 5.426-.524 8.176-.524 3.195 0 6.317-.299 9.513.225 3.047.523 6.168-.075 9.215.598 1.635.373 3.345.523 5.054.896 7.06 1.346 14.121 2.691 21.181 4.186 5.054 1.047 9.959 2.616 14.716 4.56 1.858.747 3.641 1.793 5.945 2.915-1.189.299-1.858.672-2.601.822zm67.037-11.81c-7.358 1.27-14.344 3.737-20.884 7.475-.966.523-2.081.897-3.122 1.42-.594.299-1.337.523-1.709 1.046-.966 1.27-2.304 1.42-3.716 1.27-4.31-.223-8.621-.522-13.006-.747-4.088-.15-8.249 0-12.337-.523-1.412-.15-2.973.075-4.459.224-1.189.075-2.23-.224-3.27-.672-4.46-1.869-8.844-3.812-13.378-5.307-3.79-1.27-7.581-2.467-11.594-2.99-2.378-.299-4.682-.972-6.986-1.57-.297-.074-.52-.373-.892-.598 1.115-1.42 2.378-2.54 4.013-3.213 3.27-1.346 6.541-2.691 9.885-3.812 5.425-1.794 10.999-3.14 16.722-3.588 2.378-.224 4.757-.15 7.135-.224 1.709 0 3.419 0 5.128-.075 4.236-.224 8.472-.075 12.486 1.42.52.224 1.114.224 1.709.299 2.601.374 5.202.598 7.729 1.42 1.933.598 4.088.598 6.095.897 1.932.3 3.79.673 5.722 1.121 4.459 1.047 8.919 2.018 13.303 3.14 2.453.672 4.98 1.345 7.73 2.69-1.041.449-1.635.823-2.304.897z" fill="#000"/></svg>