<svg width="176" height="39" fill="none" xmlns="http://www.w3.org/2000/svg"><path fill-rule="evenodd" clip-rule="evenodd" d="M16.29 18.992c-.372.366-1.041.658-1.487.658-2.827-.146-5.654.293-8.48-.512-1.786-.512-3.794-.805-6.323 0 .818.439 1.041.659 1.339.732 3.72.365 7.513.658 11.232 1.024.372 0 .67 0 1.041.073 7.364 1.025 14.654 2.122 22.018 3.147 2.009.292 4.091.585 6.1.878 2.454.366 4.983.585 7.438 1.024 5.728 1.025 11.455 2.122 17.109 3.22.669.146 1.338.22 2.008.146 3.57-.22 6.918 1.244 10.786 1.61-.521.585-.744 1.024-1.042 1.244-1.041.658-2.157 1.244-3.273 1.902-.297.22-.446.586-1.041 1.464 2.232-1.025 3.868-1.756 5.504-2.488 2.827-1.171 5.803-2.195 8.852-2.415 2.604-.146 5.207-.439 7.885-.22 5.43.586 10.935.879 16.365 1.757 3.793.585 7.512 1.829 11.38 2.268 2.678.366 5.356.951 8.108 1.464 6.025 1.17 12.274 1.316 18.225 3 .074 0 .223.073.297 0 .223-.147.521-.366.67-.586.074-.073-.075-.512-.224-.585-.967-.366-1.934-.732-2.901-.878-4.016-.732-8.108-1.317-12.124-1.976a627.807 627.807 0 01-11.456-2.122c-.595-.146-1.413-.146-1.487-1.17 2.008-1.83 4.314-3.147 6.992-3.879 2.157-.658 4.463-1.024 6.62-1.756 1.562-.512 3.124-.658 4.686-.585 6.026.292 12.125.439 18.15.95 3.05.22 6.025.952 9.075 1.538 1.041.22 1.413-.147 1.562-1.098-.967-1.024-2.083-1.024-3.198-1.17-3.05-.44-6.1-1.025-9.15-1.245-5.727-.292-11.38-.512-17.108-.512-1.785 0-3.645.659-5.058-1.024-.223-.293-.818-.293-1.265-.366a2295.63 2295.63 0 00-10.414-2.195c-1.934-.366-3.793-.659-5.727-1.025-.447-.073-.893-.439-1.637-.878 1.191-.658 2.083-1.244 2.976-1.683 4.835-2.049 9.893-3.366 15.249-3.512 2.305-.073 4.537-.293 6.843-.366 3.645-.073 7.29-.22 10.934-.073 3.273.146 6.546.732 9.819 1.098 3.273.365 6.546.731 9.893 1.097.893.073 1.786.293 2.678.366.744.073 1.339-.366 1.265-.805-.075-.658-.67-.878-1.19-.951-.298-.073-.67-.073-1.042-.073-4.389-.512-8.852-.951-13.24-1.464-6.174-.658-12.274-1.024-18.448-.731-1.487.073-2.975.146-4.463.073-.52 0-1.19-.073-1.636-.366-2.157-1.61-4.538-2.488-7.29-2.342-.223 0-.446-.073-.669-.146-5.654-1.317-11.381-2.268-17.183-2.707-8.331-.659-16.588-.805-25.068-.22C84.65 4.357 83.088 3.7 81.377 3.26c-1.786-.44-3.57-.952-5.356-1.244C72.525 1.43 69.029.99 65.533.333c-2.306-.44-4.538-.366-6.844-.22-.446 0-.818.512-1.636 1.025 2.38.146 4.166.22 5.95.366 4.315.292 8.555 1.317 12.795 2.195 2.008.366 3.942 1.024 5.95 1.536.521.147 1.042.44.819 1.317-.744.293-1.637.586-2.455.805-4.24 1.39-8.48 2.708-12.05 5.415-.67.512-1.413.512-2.306.366-2.455-.366-4.984-.805-7.438-1.025-6.918-.585-13.91-1.097-20.828-1.61-1.265-.072-2.232-.438-2.901-1.463-.818-1.244-2.009-1.83-3.422-2.049-1.934-.292-3.794-.804-5.728-.95-2.38-.22-4.76-.147-7.215-.22-.892 0-1.86 0-2.752.146-.372.073-.744.512-1.562 1.098h2.678c3.421.22 6.843.439 10.265.585 1.86.073 3.57.732 5.207 1.61.297.146.52.658.892 1.17-1.785.513-3.273.879-4.76 1.39-4.315 1.83-8.48 3.879-11.902 7.172zm105.552 2.56c1.487.22 2.826.732 4.314 1.098 2.455.586 4.835 1.025 7.29 1.61.297.659-.223.805-.595.951-1.339.512-2.753 1.098-4.166 1.537-2.901 1.024-5.727 2.195-8.033 4.317-.893.878-1.934 1.098-3.124.805-.447-.146-.893-.073-1.339-.22-3.645-1.17-7.364-1.39-11.084-1.756-1.785-.146-3.645-.512-5.43-.732-4.76-.585-9.521-.512-14.282.293-.892.147-1.785.22-2.677.073-6.323-.805-12.646-1.756-18.968-2.634-.298-.073-.596-.22-1.042-.366 0-1.317.818-1.536 1.488-1.902 4.24-2.488 8.852-4.025 13.612-5.268 5.282-1.318 10.563-1.39 15.919-1.025 4.463.293 8.851.659 13.314 1.098 2.604.292 5.207.731 7.736 1.097 2.381.366 4.761.586 7.067 1.025zm-50.284-9.146a39.767 39.767 0 018.182-3.293c3.273-.95 6.546-1.902 10.042-2.122 1.562-.146 3.199-.292 4.76-.365 7.439-.366 14.803.878 22.167 1.317.447 0 .893.073 1.339.146 4.389.878 8.703 1.756 13.092 2.707.297.074.595.293 1.562.878-7.141.805-13.092 3-18.745 5.927-.967.512-1.86.805-2.901.659-1.934-.22-3.868-.44-5.802-.586-4.984-.365-10.042-.731-15.026-1.097-.446 0-.892.073-1.338 0-2.976-.512-5.877-.22-8.778.512-2.9-1.902-6.248-2.268-9.298-3.512-.297-.732.298-.878.744-1.17zM40.54 12.26c6.843.512 13.612 1.024 20.38 1.756 3.72.366 7.44 1.17 11.084 1.83 1.413.219 2.901.658 4.389 1.902-.744.365-1.116.658-1.488.804-3.57 1.098-7.066 2.562-10.414 4.245-1.19.585-2.454 1.097-3.273 2.268-.743 1.097-1.785 1.097-3.05.878-3.793-.732-7.587-1.463-11.454-1.976-8.108-1.024-16.216-2.56-24.399-3.146-1.487-.073-2.9-.512-4.24-.732-.372-.878.15-1.17.596-1.463 6.62-4.61 13.76-6.952 21.869-6.366z" fill="#000"/></svg>