<svg width="353" height="99" fill="none" xmlns="http://www.w3.org/2000/svg"><path fill-rule="evenodd" clip-rule="evenodd" d="M338.4 17.845c-8.044-.97-16.015-2.535-24.208-2.46-.596 0-1.118-.15-1.714-.224-2.83-.373-5.661-.895-8.491-.97-4.47-.075-8.939.224-13.334.447-1.341.075-2.383-.074-3.426-.969-3.427-2.76-7.3-4.624-11.62-5.668-4.693-1.118-9.237-2.535-13.855-3.803-2.086-.597-4.171-1.193-6.332-1.566-6.331-.97-12.663-1.79-18.994-2.61-.745-.075-1.49 0-2.086.969 1.266.224 2.384.373 3.501.522 5.661.895 11.322 1.79 16.909 2.685 2.16.373 4.246.746 6.331 1.268 4.842 1.267 9.684 2.684 14.526 4.027 3.128.895 6.033 2.088 8.566 4.176.372.373.968.671.596 1.342-4.246.746-8.566 1.194-12.514 3.282-.596.298-1.341.447-1.937.671-4.097 1.417-8.194 2.909-12.291 4.326-2.979 1.044-5.586 2.61-8.044 4.549-.82.596-1.565 1.267-2.384 1.939-3.352-.672-6.704-1.417-10.13-1.94-4.544-.67-9.088-.969-13.632-1.566-6.927-.969-13.855-1.491-20.856-2.013-2.608-.224-5.289-.373-7.896-.224-3.427.224-6.779.895-9.982 1.268-1.713-.82-3.203-1.64-4.767-2.312-1.639-.746-3.352-1.417-5.065-2.088-5.065-2.088-10.13-4.102-15.568-5.295-3.65-.82-7.3-1.939-10.95-2.834-4.991-1.193-10.13-1.864-15.195-2.685-6.109-.97-12.291-.895-18.474-1.417-3.203-.223-6.406.075-9.534.82-.224.075-.447 0-.67 0C99.963 6.66 94.75 4.795 89.162 3.75c-2.607-.447-5.214-.895-7.746-1.268-2.607-.447-5.215-.894-7.747-1.267C66.295.17 58.846-.053 51.397.096c-.447 0-.82.15-1.713.298.745.448 1.117.82 1.49.82 1.042.15 2.085.15 3.053.15 7.45-.224 14.898.596 22.198 1.715 5.885.895 11.62 2.387 17.43 3.729 2.086.522 4.097 1.492 6.108 2.312.447.224.82.671 1.192 1.044-.298.298-.447.522-.596.597-3.575 1.267-7.076 2.684-10.652 3.803-3.277 1.119-6.108 3.058-9.162 4.55-.074.074-.149.148-.223.297-.075.299-.298.672-.15.895.075.224.597.373.82.299.82-.373 1.565-.895 2.384-1.268 7.523-4.176 15.642-6.414 23.836-8.427 2.458-.597 4.991-.671 7.523-.448 2.831.15 5.662.522 8.567.522 7.895.15 15.717 1.417 23.463 3.058 3.129.671 6.108 1.864 9.311 2.46 6.257 1.12 12.068 3.58 17.878 5.818 1.936.746 3.799 1.566 5.661 2.386.596.224 1.341.523.968 1.567-1.341.447-2.682 1.118-4.097 1.491-5.288 1.193-10.205 3.43-15.195 5.444-1.341.522-2.756 1.193-4.023 2.014-4.469 2.908-9.311 5.295-13.035 8.874-6.108-.67-11.844-1.342-17.654-1.864-4.469-.373-8.939-.522-13.333-.597-3.278-.074-6.63.075-9.982.15-1.117 0-1.936-.299-2.756-1.044-1.043-.895-2.16-1.79-3.426-2.238-3.576-1.118-7.226-2.088-10.95-2.983-2.011-.522-4.022-.746-6.034-1.119-4.841-.97-9.609-2.013-14.376-3.057-4.916-1.044-9.832-2.163-14.748-3.282-3.65-.82-7.375-1.79-11.025-2.46-5.66-.97-11.248-1.94-17.058-1.865-1.564 0-3.203-.224-4.767-.373-.894-.075-1.862-.15-2.682.373-.372.224-.819.373-.52 1.119.819-.075 1.712-.224 2.606-.224 8.715.522 17.282 1.491 25.848 3.356 2.756.596 5.512 1.342 8.342 1.864 4.917 1.044 9.982 1.715 14.749 2.983 4.842 1.343 9.907 1.865 14.749 3.133 2.98.82 6.033 1.267 9.013 2.013 2.085.522 4.171 1.268 6.182 2.014.82.298 1.788.67 1.862 1.864-1.042.746-2.309.671-3.575.97-4.47 1.044-8.938 1.939-13.333 3.281s-8.566 3.132-12.887 4.698c-1.415.522-2.83 1.044-4.097 1.641-4.32 2.088-8.64 4.25-12.44 7.16-1.34.969-2.606 1.043-4.17.82-5.513-.597-10.727-2.238-16.164-3.282-6.406-1.267-12.738-2.61-19.293-2.834-2.83-.074-5.661.15-8.492-.447-.968-.224-2.085-.075-3.054-.075-.372 0-.968-.149-.968.597.298.15.521.373.82.447 3.5.373 7.076.746 10.577.97 4.022.224 7.97.522 11.918 1.268 5.512 1.118 10.95 2.312 16.462 3.505 1.117.224 2.234.373 3.352.596 2.234.448 4.469.82 6.704 1.268 1.192.299 2.383.82 3.65.97 5.512.522 10.875 1.566 16.164 2.834a1034.84 1034.84 0 0114.6 3.729c.968.223 2.01.372 2.68 1.566-.744.298-1.34.596-1.936.82-2.98 1.119-6.033 2.088-9.013 3.281-1.788.672-3.575 1.417-4.767 3.058.968.447 1.564-.298 2.309-.597 2.011-.82 3.948-1.79 6.034-2.46 2.607-.895 5.214-1.716 7.82-2.536.746-.224 1.565-.597 2.31-.522 3.054.224 6.108-.224 9.162.149 2.16.298 4.32.149 6.48.373 7.375.671 14.675 2.162 22.049 2.834.894.074 1.788.373 2.682.596 2.979.97 5.959 1.417 9.087 1.865 3.054.373 6.108.895 9.162 1.417 1.341.223 2.607.745 4.023.97 2.83.447 5.661.67 8.491 1.192 5.065.895 10.131 1.865 15.196 2.76.596.149 1.415.149 1.49 1.118-1.714.597-3.427 1.12-5.215 1.716-4.767 1.64-9.385 3.728-13.482 6.712-.67.447-.894.97-.298 1.864.447-.15.968-.298 1.415-.596 2.384-1.343 4.619-2.984 7.151-4.102 6.779-3.207 14.004-4.922 21.453-5.444 5.065-.299 10.056-.15 14.972 1.118 2.756.746 5.587 1.119 8.417 1.566 4.023.672 8.119 1.268 12.216 1.865 4.097.596 8.119 1.118 12.216 1.715 3.278.448 6.63.82 9.833 1.492 8.417 1.79 16.909 2.759 25.4 3.952 2.16.298 4.246.895 6.332 1.268.298.075.596-.15.968-.224-.447-1.268-1.564-1.417-2.532-1.566-3.129-.522-6.332-.97-9.46-1.417-5.215-.746-10.429-1.417-15.643-2.237-1.937-.298-3.799-.895-5.736-1.119-7.97-.97-15.791-2.535-23.687-3.729-.521-.074-.968-.447-1.639-.745.671-.597 1.043-1.044 1.565-1.268 2.681-1.566 5.288-3.132 8.119-4.475 2.235-1.118 4.618-1.864 7.002-2.834 2.234-.895 4.32-2.088 6.629-2.834 5.363-1.715 10.652-3.43 16.313-3.729.819-.074 1.639-.149 2.384-.447 2.607-.895 5.437-.15 8.044-1.268.298-.149.671-.074 1.043 0 2.98.597 5.959.298 8.864.373 5.513.224 10.95.373 16.388.97 4.097.447 8.119.894 12.216 1.416 5.587.672 11.099 1.268 16.685 1.865 2.756.298 5.438.522 8.194.82 1.49.15 2.98.299 4.395.448 2.979.373 5.884.82 8.789 1.268.522.074 1.192.074 1.416-.895-.745-.224-1.49-.448-2.235-.597-7.821-.97-15.642-2.013-23.464-2.908-5.437-.597-10.95-1.12-16.387-1.641-5.214-.522-10.429-1.343-15.643-1.715-6.48-.448-13.035-.597-19.516-.671-1.862 0-3.277-.523-4.767-1.343-3.501-1.939-6.927-4.027-10.875-4.997-3.65-.894-7.3-1.939-10.95-2.908-.596-.15-1.117-.522-1.862-.82.372-.597.596-.97.968-1.268.596-.522 1.266-.97 1.937-1.417 6.629-4.326 13.557-8.054 21.229-10.292 3.054-.895 6.108-1.939 9.237-2.685 4.767-1.044 9.683-1.715 14.599-2.162 5.289-.522 10.503-.522 15.792-.299 1.937.075 3.873.522 5.81.522 5.512.075 10.95.895 16.313 2.089 5.81 1.342 11.62 2.61 17.356 4.027 1.415.373 2.83.895 4.245 1.267.596.15 1.118 0 1.118-.969-.671-.298-1.341-.746-2.086-.97-3.054-.82-6.182-1.715-9.311-2.46-4.097-.97-8.268-1.79-12.365-2.685-1.788-.373-3.575-.746-5.363-.97-3.725-.373-7.523-.596-11.248-.895-10.13-.745-20.335-.82-30.391.895-.894.15-1.713.075-2.533-.522-1.192-.82-2.532-1.64-3.873-2.088-6.779-2.461-13.482-4.997-20.41-7.01-1.043-.299-2.235-.448-2.83-1.566.372-1.343 1.34-1.865 2.309-2.536 3.65-2.535 7.747-3.878 11.843-5.295 2.682-.97 5.438-1.715 8.12-2.685 3.798-1.491 7.672-2.386 11.62-2.834 1.713-.223 3.426-.149 5.139-.372 3.948-.523 7.971-.523 11.993-.672 4.693-.149 9.386.224 14.078.671 5.214.523 10.503.97 15.717 1.716 6.555.895 13.11 2.088 19.665 3.207.373.074.82-.075 1.788-.15-.745-.522-1.043-.895-1.415-.97-4.693-.82-8.864-2.087-13.185-2.535zM133.334 74.524c-.596.67-1.266.97-2.16.895-.82-.075-1.639-.075-2.384-.299-5.586-1.342-11.247-1.939-16.909-2.684-4.99-.672-9.981-1.12-15.046-1.194-3.203-.074-6.406 0-9.237-1.79-10.205-2.684-20.26-5.593-30.689-7.084-1.266-.15-2.533-.224-3.948-1.268 2.235-1.79 4.47-2.909 6.63-4.176 3.947-2.312 7.97-4.4 12.514-5.52 2.532-.67 4.916-1.789 7.374-2.684 1.415-.522 2.756-1.044 4.246-1.417 7.449-2.013 14.898-3.505 22.644-3.952 4.693-.224 9.386-.448 14.004.149 1.043.149 2.086.224 3.054.224 5.065-.224 9.982.82 14.972 1.416 8.119.97 15.866 3.282 23.688 5.445 3.277.895 6.629 1.79 9.906 2.684 1.192.299 2.384.672 3.352 1.492 0 .82-.595.671-.968.746-1.937.074-3.799.596-5.661 1.193-2.682.895-5.512 1.491-8.268 2.312-6.704 2.013-12.961 5.22-18.92 8.949-2.905 1.79-5.885 3.803-8.194 6.563zm120.075-9.472c.522.224 1.043.373 1.639.522 3.277.672 5.959 2.685 8.938 4.252.149.074.224.372.447.745-.893.224-1.787.522-2.607.671-8.119.97-15.94 2.909-23.463 6.116-3.576 1.566-7.226 2.908-10.727 4.549-2.681 1.268-5.288 2.76-7.523 4.698-1.49 1.268-3.054 1.715-5.065 1.343-3.129-.672-6.332-.895-9.46-1.716-5.736-1.491-11.472-1.939-17.356-1.64-3.576.223-7.076-.299-10.577-.97-7.3-1.417-14.6-2.834-21.974-3.58-2.459-.223-4.917-.97-7.375-1.416a116.11 116.11 0 00-7.076-1.12c-2.384-.223-4.693-.82-6.928-1.714.298-1.641 1.416-2.163 2.384-2.909 6.778-5.146 14.302-8.875 22.272-11.858 4.693-1.79 9.683-2.61 14.525-3.952.745-.224 1.564-.298 2.384-.298 2.532.074 4.991 0 7.523-.523.671-.149 1.341-.149 2.086-.074 4.246.224 8.491.149 12.663.671 5.661.746 11.397.746 17.058 1.268 3.054.298 6.108.746 9.162 1.193 2.681.373 5.437.746 8.119 1.193 2.16.373 4.246.746 6.406 1.119.67.15 1.341.298 2.011.373 4.32.298 8.492 1.342 12.514 3.057zm5.065-30.054c4.321 1.417 8.566 3.207 12.812 4.922 1.192.522 2.682.746 3.501 2.237-1.713 1.044-3.575 1.492-5.363 2.163-3.65 1.417-7.374 2.536-10.95 3.878-2.756 1.044-5.288 2.685-7.895 4.027-.969.522-1.937 1.119-2.98 1.715-2.905 1.79-5.884 3.431-8.417 5.967-1.415-.224-2.756-.522-4.097-.746-6.331-.97-12.663-1.94-18.92-2.909-.596-.074-1.117 0-1.713 0-6.406-.298-12.738-.596-19.144-1.342-4.171-.447-8.417-.447-12.663-.447-1.787 0-3.426-.224-4.916-1.044-2.16-1.194-4.469-1.716-6.778-2.312-6.406-1.641-12.812-3.356-19.218-4.997-1.192-.298-2.384-.746-4.023-1.343.671-.894 1.043-1.491 1.49-1.938 1.937-1.567 3.799-3.282 6.183-4.326 1.489-.671 2.83-1.492 4.171-2.312 3.277-1.939 6.704-3.43 10.279-4.624 5.363-1.864 10.801-3.878 16.388-4.922 4.022-.745 8.193-1.118 12.29-.97 7.151.3 14.377 1.12 21.527 1.716.373 0 .671.15 1.043.15 4.023-.299 7.97.67 11.918.969 2.831.224 5.661.596 8.418 1.342 5.661 1.64 11.396 3.282 17.057 5.146z" fill="#000"/></svg>