<svg width="101" height="73" fill="none" xmlns="http://www.w3.org/2000/svg"><path d="M100.993 39.064c-.292-13.133-9.04-24.152-20.408-29.976-14.573-7.466-32.074-6.856-47.709-3.63a1.52 1.52 0 00-.248.075C28.294 3.491 23.685 1.976 19.07.863c-1.505-.362-3.152-.904-4.713-.86-1.514.041-2.69.85-3.688 1.93-2.227 2.408-3.888 5.265-5.123 8.289-.546 1.337 1.346 1.99 2.173 1.046a64.657 64.657 0 019.716 3.09C12.354 16.791 8.3 21.542 5.549 26.294 2.11 32.23.255 39.062.022 45.905c-.246 7.192 1.56 14.568 6.475 20.005 5.139 5.684 12.343 6.784 19.65 6.915 6.869.124 16.002-.37 20.775-6.118l.008-.012c4.56 1.854 9.653 2.654 14.453 3.012 6.882.515 13.942-.313 20.33-3.008 11.099-4.683 19.556-15.263 19.28-27.635zM12.291 3.89c1.032-1.147 1.876-1.5 3.408-1.207.406.078.811.165 1.216.255a.577.577 0 00.411.536c.13.042.261.087.393.124.158.046.322.044.485.05a.47.47 0 00.432-.302c.411.104.822.208 1.232.314C25.036 5 30.102 6.808 34.777 9.41c3.988 2.221 7.716 5.097 10.782 8.526-.398.133-.711.598-.422 1.011.288.412.569.829.874 1.227.292.382.685.865 1.219.819a.511.511 0 00.471-.36c.005-.015.006-.03.01-.047 2.324 3.17 4.086 6.727 5.031 10.61 1.539 6.323.768 12.898.114 19.287-2.32-.788-4.397-2-5.814-4.058.015-.048.032-.092.041-.145 1.42-8.106-4.099-15.388-9.486-20.82-5.414-5.457-11.903-9.586-19.05-12.38-3.373-1.32-6.8-2.244-10.35-2.753C9.22 7.997 10.59 5.78 12.291 3.89zm52.928 16.986c.291.291.85.329 1.137 0a1.62 1.62 0 01.593-.463c.274-.143.53-.256.709-.542a46.987 46.987 0 017.257 4.38c-3.508-.038-7.27 1.059-10.245 2.125-3.075 1.102-7.2 2.43-9.532 5.074-.637-3.26-1.868-6.37-3.519-9.242l.008-.006c1.354-1.209 2.57-2.318 4.229-3.118 1.634-.788 3.377-1.265 5.095-1.828.019-.006.034-.016.053-.023 1.68.523 3.33 1.138 4.942 1.845-.291.19-.55.434-.727.662-.268.34-.333.803 0 1.136zm-10.852 29.96c.884-5.292 1.689-10.689 1.232-16.047.091-.085.177-.187.248-.322 1.88-3.536 6.613-4.99 10.167-6.208 1.99-.681 4.041-1.252 6.12-1.585 1.859-.299 3.676-.235 5.517-.251a45.28 45.28 0 012.62 2.433c4.12 4.145 10.698 11.909 6.83 18.06-1.642 2.609-4.737 3.83-7.608 4.517-3.568.854-7.334 1.076-10.993 1.091-4.46.018-8.992-.386-13.342-1.392a28.221 28.221 0 01-.817-.203c.01-.03.02-.06.026-.094zm-3.65-30.117a37.182 37.182 0 00-4.41-5.593 46.02 46.02 0 0111.328 1.191c-2.658.902-5.436 2.218-6.919 4.402zM35.021 49.958c.082 2.407.382 4.85 1.239 7.099a12.06 12.06 0 01-10.066 2.865c-4.273-.746-7.256-3.688-8.83-7.647-2.931-7.373-1.72-16.005 2.204-22.771 2.213-3.818 5.217-6.705 8.76-9.24a53.573 53.573 0 012.381 1.753c3.182 2.489 6.127 5.322 8.664 8.474-3.436 5.607-4.572 13.042-4.352 19.467zm8.922 16.153l-.01-.008c-1.885-1.133-4.432.603-5.778 1.9-.363.35.127 1.029.553.716a8.086 8.086 0 012.736-1.296c.215-.058.428-.104.638-.146a19.608 19.608 0 01-4.454 1.877c-2.77.773-5.635 1.067-8.502 1.158.128-.097.053-.337-.127-.35-1.763-.12-3.574.13-5.334.245a.313.313 0 00-.2.089c-5.017-.246-9.98-1.301-13.842-4.755C-.323 56.643.951 40.26 6.245 29.207c1.451-3.03 3.291-5.88 5.567-8.356 2.129-2.316 4.603-4.108 7.202-5.822A56.305 56.305 0 0127 19.37c-7.384 4.044-12.161 12.675-13.255 20.785-1.147 8.509 1.608 19.654 11.05 21.988 4.318 1.068 9.241.185 12.563-2.848 1.408 2.298 3.463 4.122 5.757 5.507.492.297.998.572 1.51.835-.226.164-.453.32-.68.475zm51.822-15.766c-2.416 4.847-6.322 8.835-10.924 11.65-10.415 6.374-24.43 6.69-35.822 2.862-2.743-.922-5.457-2.235-7.586-4.228-2.542-2.378-3.717-5.464-4.083-8.883-.395-3.685-.212-7.459.458-11.1.56-3.05 1.59-5.919 2.61-8.817 1.274 1.711 2.464 3.6 3.329 5.603-.18-.086-.42-.067-.532.136-.536.982-1.262 2.372-.831 3.5.086.227.388.293.526.069.3-.488.37-1.012.486-1.562a9.298 9.298 0 01.54-1.691c.364.904.659 1.83.863 2.77a.249.249 0 00-.185.152c-.552 1.178-.802 2.32-.85 3.617-.004.127.198.157.225.03.211-.992.557-2.002.97-2.942a12.468 12.468 0 01-.034 4.174c-.126.688.327 1.18.851 1.343 1.19 2.44 3.647 3.973 6.135 4.978 3.819 1.543 8.12 2.19 12.2 2.545 4.462.39 8.952.276 13.387-.348 3.273-.461 6.653-1.358 9.298-3.428 6.681-5.227 3.226-13.884-1.059-19.423-4.478-5.79-10.348-10.486-16.917-13.702-7.533-3.686-15.934-5.485-24.316-4.986a1.292 1.292 0 00-.58.171c-2.273-2.01-4.763-3.755-7.397-5.27C48.876 5.33 62.12 4.968 74.014 9.237 85.056 13.2 94.744 21.682 97.501 33.42c1.327 5.65.87 11.7-1.735 16.926z" fill="#DEDEDE"/><path d="M47.048 8.822c-.918-.449-2.073-.08-3.025.092-.405.073-.625.56-.528.928.114.43.529.592.93.528.887-.144 2.04-.183 2.711-.866.184-.187.169-.556-.088-.682zm14.299-1.098a11.624 11.624 0 00-2.39-.204c-.753.011-.742 1.115 0 1.162.787.05 1.546.187 2.302.41.624.183 1.11.45 1.732.185.245-.104.25-.422.164-.624-.281-.654-1.171-.805-1.808-.929zM53.42 9.79c-.487-.165-.683.59-.21.765.705.26 1.518.708 2.283.671.23-.01.392-.31.2-.482-.6-.535-1.524-.7-2.272-.954zm24.15 6.844c-.741-.508-1.484-1.013-2.225-1.52-.37-.251-.693.335-.346.591.684.507 1.369 1.012 2.053 1.518.597.442 1.227 1.05 1.954 1.238.226.059.461-.203.32-.415-.41-.612-1.157-1.002-1.757-1.412zm-9.207-2.687l-1.553-.85c-.565-.31-1.055.527-.504.862l1.511.92c.458.28.893.59 1.445.591a.384.384 0 00.328-.572c-.275-.475-.76-.695-1.227-.951zm8.509-.662c-1.073-1.273-2.482-2.206-3.804-3.2-.43-.323-1.005.414-.58.75 1.298 1.027 2.557 2.154 4.061 2.868a.267.267 0 00.323-.418zM91.063 28.62c-.286-1.582-1.222-2.824-2.371-3.913-.431-.408-1.075.232-.653.653 1.021 1.017 1.757 2.264 2.538 3.466.17.26.54.089.486-.206zm-10.955-6.16c-.386-.242-.845.33-.493.639a7.055 7.055 0 011.475 1.807c.346.607.545 1.315 1.042 1.822a.361.361 0 00.599-.158c.433-1.658-1.374-3.332-2.623-4.11zm1.901-3.244c.753.909 1.181 2 1.86 2.95.186.26.645.192.638-.173-.024-1.353-.876-2.562-1.723-3.553-.46-.54-1.221.237-.775.776zm10.184 17.177c-.165-.788-1.362-.453-1.204.332l.446 2.217c.13.646.218 1.241.637 1.763.212.264.645.096.726-.192.181-.643-.007-1.268-.141-1.908l-.464-2.212zm1.583 1.829c.826 2.235 1.03 4.631 1.209 6.989a.284.284 0 00.554.075c.88-2.525.472-4.977-.527-7.404-.307-.744-1.527-.445-1.236.34zm-9.051 15.083c-.36.666-.774 1.288-1.27 1.862-.45.523-.98 1.038-1.303 1.651-.162.308.105.682.453.59 1.52-.398 2.604-2.117 3.292-3.418.408-.771-.756-1.456-1.172-.685zm-7.941 3.289c-1.376.424-2.81.779-3.979 1.663-.208.157-.15.494.137.506 1.459.059 2.827-.463 4.192-.901.8-.258.463-1.518-.35-1.268zm-6.907 6.346c-1.283.317-2.596.435-3.913.492-.175.008-.231.28-.043.32 1.398.294 2.756.174 4.12-.216.384-.11.224-.693-.164-.597zm-8.36-2.68c-1.11-.684-2.522-.795-3.725-1.294-.427-.178-.716.53-.313.744 1.174.627 2.61 1.386 3.973 1.056.238-.057.262-.385.065-.506zm7.381-3.02c.218-.037.173-.337 0-.398-.487-.172-1.005-.386-1.515-.474-.556-.097-1.142-.1-1.704-.148-.71-.06-.706 1.048 0 1.108.55.046 1.152.166 1.704.14.502-.024 1.022-.143 1.515-.228zm-20.554-.182c-.637-.354-1.211-.818-1.848-1.164-.505-.273-1.15.293-.818.818.448.704 1.178 1.255 1.896 1.663.675.383 1.477.808 2.24.462.243-.11.287-.45.174-.661-.324-.6-1.08-.804-1.644-1.118zm7.672-2.085c-1.322-.928-3.004-1.27-4.452-1.966-.473-.228-.878.436-.416.712 1.416.85 3.03 1.842 4.739 1.73.26-.017.338-.33.129-.476zm-13.645-8.801c.044-.524-.857-.654-.928-.125-.205 1.512-.136 3.273 1.054 4.377.21.195.498-.002.454-.264-.23-1.36-.7-2.58-.58-3.987zm1.447-18.717c.178.159.45-.04.332-.257-.62-1.15-1.604-2.145-2.417-3.163-.219-.274-.595.113-.384.384.784 1.009 1.515 2.182 2.469 3.036zm5.692 11.901c.153.2.53.227.595-.078.23-1.087-.328-2.43-.577-3.483-.15-.633-1.115-.365-.974.269.227 1.02.302 2.447.955 3.292zm1.212-6.748c.162.158.404-.005.363-.212-.225-1.134-.99-2.164-1.547-3.16-.225-.404-.833-.046-.618.362.53 1.009.975 2.204 1.802 3.01zm1.91 12.311c.26-.486.199-1.1.167-1.634-.02-.351-.285-.652-.652-.652a.66.66 0 00-.651.652c.01.522-.016 1.18.273 1.634.194.303.68.344.863 0zm8.018-18.197c-.623.116-1.174.452-1.74.73-.386.19-.049.75.334.573.574-.266 1.16-.483 1.644-.895.203-.172-.02-.449-.238-.408zm3.631-3.12c.677-.02 1.682.131 2.215-.362.133-.124.153-.402 0-.522-.586-.46-1.517-.246-2.215-.212-.702.032-.71 1.117 0 1.096zm-3.046-2.997c-.643-.023-1.097.224-1.655.513l-1.839.951c-.5.259-.06.957.433.741 1.084-.475 2.56-.824 3.295-1.796.132-.174-.05-.402-.234-.409zm-3.023 3.621c-.262-.04-.453.035-.674.165-.29.17-.532.402-.785.62-.221.19-.218.562-.047.777.19.24.493.288.764.153.265-.133.532-.251.77-.43.207-.157.37-.281.44-.545.049-.182.041-.375-.078-.527a.583.583 0 00-.39-.213zm-1.918-4.422c-.531 0-.532.825 0 .825.531 0 .532-.825 0-.825zm-18.206-3.086c.458.52.932 1.096 1.597 1.345.3.112.577-.173.591-.45.08-1.555-1.742-2.92-2.838-3.751-.706-.536-1.608.642-.948 1.228.57.506 1.095 1.056 1.598 1.628zm6.43 7.301c.357.386.744.864 1.319.833.266-.014.44-.2.462-.461.05-.57-.434-.983-.803-1.35L44.31 21.86c-.602-.6-1.502.31-.929.929l1.138 1.23zM24.28 7.71c.533.215 1.117.354 1.678.475.499.106 1.059.239 1.51-.061.22-.147.314-.429.175-.669-.282-.49-.867-.639-1.388-.758-.59-.134-1.19-.274-1.794-.32-.827-.063-.832 1.07-.18 1.333zm-6.588 1.66l1.93.71c.553.203 1.138.46 1.727.28.23-.07.385-.363.237-.581-.351-.518-.932-.693-1.504-.888l-2.064-.705c-.753-.256-1.059.915-.326 1.184zM12.83 6.148c.654.146 1.461.478 2.107.177.23-.107.225-.426.076-.589-.44-.478-1.31-.48-1.91-.583-.642-.11-.93.848-.273.995zm-1.02 2.124l1.102.406c.377.139.67.247 1.072.148.216-.053.377-.363.227-.558-.473-.615-1.418-.75-2.127-.991-.634-.216-.89.768-.274.995zm18.655 6.387c.04.035.083.07.128.104-.173.195-.245.471-.075.723.433.639.921 1.242 1.48 1.776.396.379 1.249 1.15 1.823.656.606-.522-.295-1.255-.682-1.565a9.988 9.988 0 01-1.523-1.533.545.545 0 00.06-.417c-.066-.288-.361-.535-.574-.723-.104-.092-.205-.187-.312-.277.036-.61-.995-.863-1.183-.181-.153.559.485 1.113.858 1.437zm-14.653 6.029c1.394-.208 2.922-1.602 3.562-2.817.298-.569-.34-1.36-.944-.944-.611.42-1.146.981-1.691 1.484-.51.471-1.08 1.036-1.405 1.655-.185.352.118.676.478.622zm-5.434 4.106c-.519.825-1.036 1.65-1.476 2.522-.408.805-.623 1.66-.872 2.524-.062.218.243.42.4.232.568-.679 1.161-1.324 1.595-2.1.479-.854.876-1.747 1.272-2.641.272-.614-.545-1.13-.919-.537zM5.57 43.62c.95-2.669 1.584-5.43 2.365-8.15.13-.455-.521-.605-.691-.19-1.091 2.668-1.966 5.384-2.164 8.274-.02.296.401.317.49.066zm8.204-13.096c1.302-1.53 2.581-3.025 3.73-4.674.212-.305-.29-.7-.52-.402-1.232 1.591-2.284 3.262-3.355 4.964-.055.087.076.193.145.112zm7.778-9.402c.526.012.913-.36 1.304-.668.431-.34.862-.68 1.293-1.018.49-.385-.166-1.246-.671-.87l-1.32.982c-.397.295-.858.573-.983 1.08a.396.396 0 00.377.494zm-9.155 18.446c-.437 2.115-.654 4.128-.272 6.272.034.19.357.193.388 0 .314-1.994.494-4.015.89-5.995.13-.654-.87-.936-1.006-.277zm-3.579 6.897c-.017 2.474.16 4.854 1.224 7.123.133.284.584.138.576-.156-.057-2.328-.43-4.635-.454-6.967-.008-.866-1.34-.868-1.346 0zM5.91 55.056c-.404-.626-1.41-.044-1.004.586.845 1.31 1.65 2.655 2.807 3.72.17.157.49.006.409-.237-.492-1.486-1.371-2.766-2.212-4.07zm8.767 6.112c-.723-.517-1.382.663-.69 1.182 1.085.815 2.186 1.773 3.537 2.1.252.061.485-.213.344-.446-.745-1.232-2.048-2.019-3.19-2.836zm6.697.091c-1.178-.694-2.305-1.372-3.317-2.312-.558-.519-1.4.322-.837.837 1.108 1.012 2.514 1.791 4.034 1.92.244.021.313-.331.12-.445zm16.854 4.038c-2.122-.007-4.193.529-6.321.569-.812.015-.81 1.23 0 1.26 2.212.08 4.57-.005 6.477-1.252.25-.165.161-.576-.156-.577zm.041-4.073c-.683.2-1.277.584-1.856.989-.363.254-.497.719-.209 1.093.258.334.808.41 1.11.075.486-.537.968-1.091 1.261-1.758.09-.203-.059-.472-.306-.399z" fill="#DEDEDE"/></svg>