<svg width="29" height="33" fill="none" xmlns="http://www.w3.org/2000/svg"><path d="M26.971 14.928c.384-.688.267-1.7.126-2.439a7.02 7.02 0 00-.981-2.422 13.714 13.714 0 00-1.58-2.03c-.572-.612-1.204-1.184-1.988-1.505-.39-.16-.79-.253-1.192-.293-.022-.115-.072-.231-.116-.345a8.304 8.304 0 00-.43-.934 9.022 9.022 0 00-1.127-1.615 8.27 8.27 0 00-3.246-2.297 2.202 2.202 0 00-.742-.153 8.503 8.503 0 00-2.05-.63c-.011-.017-.033-.027-.056-.012l-.004.002c-1.065-.173-2.162-.126-3.19.22-.79.265-1.66.719-2.14 1.424-.495.729-.37 1.711.05 2.442.255.44.63.798 1.033 1.1.409.308.877.619 1.36.802-.04.163-.073.329-.097.497-.244 1.717.612 3.204 1.845 4.332.019.017.039.03.06.04a7.34 7.34 0 00-.536 1.087c-.284.727-.498 1.583-.408 2.377l-.113.104a5.132 5.132 0 00-1.011.996l-.05.051a.037.037 0 00-.011.027c-.29.384-.542.804-.774 1.246a14.262 14.262 0 00-.834 1.922c-.061.176-.102.396-.2.557-.043.072-.114.124-.158.195a.363.363 0 00-.054.236c-1.322.968-2.324 2.392-2.016 4.054a7.256 7.256 0 00-.43.13 7.415 7.415 0 00-.445.083c-.05.011-.048.067-.018.093a5.197 5.197 0 00-.65.332c-.409.248-.722.56-1.078.872-.235.206-.403.322-.473.587-.463.198-.883.506-1.264.834-1.098.942-2.46 2.477-1.31 3.915.915 1.142 2.513 1.375 3.886 1.236.698-.07 1.457-.125 2.129-.334.407-.127.814-.373.995-.745 1.242.911 2.827 1.49 4.35 1.027.703-.213 1.337-.64 1.757-1.247.149-.215.265-.453.355-.702a.207.207 0 00.167-.112l.03-.054c.987-.028 1.994-.334 2.9-.702a11.417 11.417 0 002.705-1.545c.828-.643 1.624-1.406 2.21-2.281.122-.183.218-.372.286-.568 2.01-.29 3.59-2.023 4.548-3.703 1.061-1.86 1.8-4.54-.02-6.152zm-13.574-4.381c.973-1.208 2.284-2.09 3.666-2.766.952-.465 2.004-.911 3.078-1.05-.939.195-1.86.582-2.683.99a13.256 13.256 0 00-4.624 3.812 8.4 8.4 0 00-.377.536 7.086 7.086 0 01.94-1.522zm2.756 1.724c1.2-.285 2.445-.272 3.669-.207 1.168.062 2.43.074 3.51.576.416.193.793.452 1.16.726-.26-.12-.523-.231-.785-.33-1.242-.466-2.58-.538-3.894-.456a26.87 26.87 0 00-3.951.555c-1.128.242-2.3.511-3.37.968 1.114-.82 2.318-1.513 3.661-1.832zm8.114-3.832c-1.952-.53-4.149-.401-5.97.51-.038.018-.012.081.027.067 1.921-.706 3.912-.924 5.92-.467.043.01.07-.025.07-.059.37.416.7.864.988 1.293l.052.078c-.666-.328-1.39-.573-2.119-.591-.065-.002-.076.094-.015.113.788.236 1.559.425 2.304.747.32.526.59 1.09.778 1.675-.654-.66-1.488-1.178-2.421-1.276-.073-.008-.077.098-.017.12.945.343 1.82.745 2.528 1.46l.016.057c.118.453.188.917.193 1.385.002.178-.014.355-.033.531-1.02-1.081-2.212-2.004-3.624-2.525-.057-.022-.093.068-.041.098 1.287.735 2.556 1.52 3.655 2.527-.009.077-.016.155-.023.232l-1.322-.99c-.474-.356-.945-.731-1.475-1-1.046-.527-2.246-.57-3.392-.637-1.274-.075-2.563-.122-3.824.108a8.242 8.242 0 00-1.968.633c.448-.334.917-.638 1.409-.907.689-.378 1.414-.65 2.14-.944.056-.022.037-.106-.025-.091-1.47.366-2.863 1.228-4.024 2.19-.242.13-.48.268-.712.416-.464.296-.897.623-1.31.971l.008-.067a24.18 24.18 0 011.8-1.847c.736-.672 1.527-1.262 2.316-1.868.06-.046.007-.147-.061-.104-1.51.933-2.874 2.213-4.018 3.58a4.204 4.204 0 01.38-1.041c.059-.116.123-.23.19-.341.421-.594.928-1.104 1.491-1.591.03-.026-.01-.077-.042-.055a4.95 4.95 0 00-.556.447 12.699 12.699 0 012.612-2.288 13.228 13.228 0 013.171-1.538c1.275-.414 2.537-.548 3.766.078a.245.245 0 00.21.012c.348.262.671.57.968.899zM10.507 5.59c.12-.606.335-1.163.547-1.748.02-.055-.063-.086-.092-.039-.317.513-.475 1.127-.551 1.729l-.052-.031a3.45 3.45 0 01.002-.452c.019-.221.086-.43.112-.649.009-.069-.088-.08-.12-.032-.184.274-.235.669-.185 1.02a5.36 5.36 0 01-.484-.316 4.587 4.587 0 01-.222-.179c.131-.282.263-.564.383-.85.007-.016-.02-.027-.027-.012a23.02 23.02 0 00-.39.833 3.77 3.77 0 01-.232-.219c.088-.46.25-.882.436-1.32.014-.035-.03-.064-.052-.03-.249.382-.385.828-.452 1.28a2.702 2.702 0 01-.444-.64 2.202 2.202 0 01-.227-.87c.11-.209.24-.406.393-.59.013-.015-.008-.037-.022-.022-.144.15-.267.313-.37.484a1.47 1.47 0 01.121-.547c.206-.464.678-.782 1.104-1.026a5.222 5.222 0 012.256-.66c-.217.232-.395.49-.54.783-.012.024.021.045.035.021.18-.293.395-.568.64-.812a6.35 6.35 0 01.861.017 5.55 5.55 0 00-.969.98c-.018.025.022.054.042.033.347-.35.706-.688 1.088-.997.301.034.6.087.895.157-.653.276-1.277.764-1.506 1.412-.016.045.05.083.08.047.282-.325.508-.662.852-.93.249-.194.525-.35.816-.467.18.05.357.105.532.167-.097.05-.192.106-.286.172-.606.424-1.141.985-1.655 1.513-.513.528-.998 1.104-1.386 1.732a6.54 6.54 0 011.117-2.05c.007-.01-.005-.022-.013-.013a5.864 5.864 0 00-1.149 2.135c-.228.378-.42.775-.564 1.193a5.772 5.772 0 00-.321-.207zm2.02 4.9c.352-.695.767-1.348 1.197-1.997.016-.024-.022-.054-.04-.031-.486.607-.866 1.284-1.19 1.989a9.86 9.86 0 01-.09-.104c.215-.84.612-1.566 1.116-2.276.017-.024-.022-.055-.042-.032-.564.631-.921 1.443-1.107 2.267a7.867 7.867 0 01-.627-.84c.252-.666.596-1.28.999-1.87.014-.022-.02-.049-.036-.028a6.258 6.258 0 00-.994 1.847 5.046 5.046 0 01-.241-.432c.28-.876.678-1.659 1.154-2.456.02-.034-.03-.075-.056-.043-.561.664-.95 1.518-1.158 2.373a3.76 3.76 0 01-.262-.792c.18-1.11.68-2.032 1.396-2.907.026-.032-.015-.075-.047-.046-.66.59-1.101 1.431-1.31 2.305.177-1.243.859-2.428 1.655-3.356a13.28 13.28 0 011.643-1.618c.675-.553 1.498-.941 2.353-.565a.25.25 0 00.187.009 11.723 11.723 0 01.674.418c-.386.05-.736.356-1.047.569-.533.363-1.062.726-1.567 1.128-.032.026.009.076.043.056.455-.263.892-.55 1.326-.846.377-.258.947-.816 1.445-.767.313.226.608.476.885.745-.996.77-2.011 1.522-2.973 2.334-.024.02.008.062.033.043 1.027-.735 2.009-1.537 3.003-2.315l.016.015a7.555 7.555 0 011.702 2.578 3.997 3.997 0 00-2.49.416c-.043.023-.005.082.037.063a4.562 4.562 0 012.503-.347c.016.043.033.086.048.13a5.4 5.4 0 01.037.11c-1.068.033-2.138.385-3.11.812-1.214.533-2.398 1.21-3.401 2.088a31.926 31.926 0 011.6-1.727c.012-.012-.006-.029-.018-.018-.647.59-1.24 1.244-1.789 1.931-.216.2-.424.411-.62.633-.224.252-.43.518-.62.796-.072-.08-.145-.16-.216-.243zm-.15 20.736a2.47 2.47 0 01-.104.05c-.906.403-1.82.323-2.678.005a4.976 4.976 0 001.14-2.31c.013-.066-.073-.088-.097-.027-.18.452-.36.907-.59 1.337-.177.33-.387.636-.596.945a6.752 6.752 0 01-.935-.471c.655-.593 1.02-1.681.95-2.518-.005-.055-.094-.078-.105-.014-.085.468-.18.934-.365 1.375-.165.394-.412.712-.64 1.058a9.893 9.893 0 01-.477-.319c.302-.398.398-.935.467-1.44.117-.862.021-1.681-.58-2.347-.54-.596-1.311-.9-2.1-.969a4.89 4.89 0 00-1.357.087 1.61 1.61 0 00-.444.136c.522-.522 1.232-.744 1.979-.708.03.001.038-.049.007-.055a2.106 2.106 0 00-1.383.228 3.54 3.54 0 01.518-.346c.19-.103.386-.19.586-.27l.643-.167c.024-.006.028-.035.015-.051.258-.072.519-.13.78-.18 1.456-.276 3.145-.393 4.529.23 1.29.582 2.082 1.825 2.277 3.203.118.84.037 1.745-.35 2.467-.315.417-.677.78-1.09 1.071zm-4.542-1.47a4.703 4.703 0 00-.302-1.371c-.285-.735-.788-1.274-1.407-1.747-.365-.278-.752-.53-1.174-.673.291-.025.585-.022.874.015.653.086 1.276.368 1.715.87.479.547.547 1.218.475 1.918a4.945 4.945 0 01-.18.988zm6.556-1.672c-.092-1.45-.778-2.881-2.013-3.69-1.442-.944-3.3-.9-4.938-.655l-.193.03c1.66-.85 3.72-.56 5.25.512 1.237.868 1.984 2.342 1.894 3.803zM.786 29.403c.146-.195.29-.393.46-.57a6.63 6.63 0 01.995-.858c.024-.016.003-.053-.023-.04-.448.247-.934.592-1.302 1.012.142-.33.368-.618.619-.883.502-.354 1.03-.669 1.57-.966.022-.012.003-.043-.019-.033a7.937 7.937 0 00-1.268.715l.164-.156c.376-.356.786-.717 1.252-.96.076-.035.151-.07.226-.107.044-.018.089-.036.134-.052.687-.245 1.303-.082 1.897.31.644.425 1.236.938 1.556 1.655.145.324.218.653.263.987a2.397 2.397 0 01-.43 1.006l.015-.043c.016-.05-.059-.068-.076-.021a1.97 1.97 0 01-.175.348l-.045.048a.03.03 0 00-.006.031 2.136 2.136 0 01-.433.457c-.39.083-.79.118-1.184.173-.092.013-.185.025-.278.036.313-.16.598-.369.83-.605.02-.02-.01-.05-.031-.031-.388.338-.8.55-1.237.676-.624.043-1.265.014-1.853-.174 1.257-.32 2.376-1.268 3.13-2.288.021-.029-.026-.065-.05-.038a9.64 9.64 0 01-1.492 1.326 6.696 6.696 0 01-.63.398c-.545.119-1.151.22-1.686.008-.476-.188-.847-.626-.837-1.153 0-.02-.03-.02-.032 0-.04.505.257.937.695 1.172.52.279 1.116.222 1.667.08-.273.148-.551.288-.828.438a.032.032 0 00-.018.03 2.97 2.97 0 01-.738-.375c-.53-.372-.888-.912-.802-1.553zm5.662 1.81a2.18 2.18 0 00.318-.477c.291-.258.485-.586.58-.949.013.136.024.272.035.41-.119.078-.194.236-.147.369-.142.353-.386.53-.786.646zm14.648-5.49c-.127-1.463-.972-3.027-2.337-3.626-.03-.014-.058.03-.027.046.678.325 1.21.876 1.573 1.531.383.691.499 1.421.688 2.167a12.55 12.55 0 01-1.567 1.432 3.79 3.79 0 00.104-.772c.001-.063-.08-.064-.101-.014a4.117 4.117 0 00-.25.972c-.11.081-.222.16-.335.237.232-.647.273-1.35.03-2.01-.019-.052-.093-.032-.082.022.135.699.142 1.4-.072 2.072-.21.138-.424.27-.642.394.195-.978-.34-2.107-.941-2.826-.015-.017-.045.006-.032.024.323.429.55.914.689 1.433.13.489.11.96.142 1.45a9.58 9.58 0 01-1.755.77c.106-.175.15-.391.206-.588a2.91 2.91 0 00.115-.627c.002-.05-.072-.07-.095-.026-.096.19-.162.393-.215.6-.052.202-.125.417-.117.627a.05.05 0 00.023.042c-.309.1-.62.187-.934.27a7.75 7.75 0 00.365-2.244c0-.05-.072-.049-.077 0a14.36 14.36 0 01-.414 2.278l-.51.132c.602-1.457.322-3.204-.635-4.456-1.067-1.395-2.851-2.152-4.589-2.143-.861.004-1.825.197-2.473.798a2.397 2.397 0 01-.016-.218c1.211-.811 2.506-1.359 3.894-1.799.05-.016.03-.088-.021-.078-1.397.265-2.74.937-3.874 1.79 0-.057.003-.114.007-.17.064-.154.15-.3.248-.442.843-.514 1.718-.94 2.626-1.335.024-.011.007-.053-.019-.044a10.96 10.96 0 00-2.557 1.309c.143-.197.303-.383.452-.56.249-.298.515-.575.813-.814a5.488 5.488 0 011.744-.67c.017-.004.014-.034-.004-.031a4.105 4.105 0 00-1.333.413c.082-.05.165-.098.252-.142.576-.294 1.217-.47 1.841-.63a10.157 10.157 0 012.018-.32c2.397-.116 4.808.748 6.663 2.255a7.3 7.3 0 01.72.653.06.06 0 00.01.063c.475.558.764 1.215.91 1.92.02.25.016.503-.004.76-.034.043-.07.084-.105.126zm.66-.942l-.021.036c-.095-.947-.606-1.849-1.295-2.497-.977-.92-2.155-1.636-3.402-2.124a9.934 9.934 0 00-3.965-.693c-.732.028-1.459.15-2.168.333-.7.18-1.416.389-2.058.725-.701.368-1.236.934-1.717 1.552.189-.393.448-.756.737-1.068.64-.691 1.46-1.206 2.336-1.542 1.832-.7 3.928-.77 5.843-.423 1.962.357 3.861 1.279 5.02 2.956.498.723 1.143 1.877.69 2.745zm5.06-4.597a8.812 8.812 0 01-1.002 1.602c-.22-1.358-1.34-2.42-2.3-3.322-.027-.026-.07.016-.041.043 1.019.964 1.984 1.962 2.285 3.352a8.386 8.386 0 01-1.008 1.048c.126-1.228-.733-2.53-1.74-3.132-.044-.026-.084.042-.04.069.566.34 1.019.829 1.316 1.42.284.566.34 1.12.361 1.73a6.956 6.956 0 01-1.276.815c.174-.935.07-1.92-.385-2.767-.021-.04-.091-.012-.074.031.356.906.502 1.848.339 2.796-.229.11-.463.213-.701.309a1.936 1.936 0 00-.024-.329c-.081-.509-.305-1.02-.547-1.473-1.034-1.94-3.026-3.167-5.114-3.687-2.086-.52-4.454-.536-6.501.169a7.65 7.65 0 00-1.392.647c.025-.055.047-.111.067-.169.547-.515 1.102-1.005 1.741-1.407.663-.418 1.379-.734 2.112-1.005.055-.02.034-.103-.024-.088-1.399.37-2.795 1.205-3.765 2.302.025-.08.05-.16.078-.235.182-.491.395-.972.63-1.44 1.27-.768 2.591-1.418 3.947-2.024.021-.01.006-.046-.016-.038-1.353.523-2.649 1.207-3.884 1.968l.028-.055c.46-.887.994-1.753 1.818-2.33a.15.15 0 00.176-.115c.025-.016.05-.033.077-.048.974-.57 2.136-.83 3.224-1.083a28.713 28.713 0 013.632-.606c1.185-.119 2.402-.183 3.579.045 1.142.221 2.16.756 3.132 1.378.933.597 1.745 1.214 1.957 2.366.136.734.013 1.483-.223 2.194-.233-.705-.762-1.313-1.348-1.744-.045-.033-.086.04-.043.074.64.493 1.018 1.12 1.333 1.836a9.211 9.211 0 01-.384.903z" fill="#231F20"/><path d="M11.126 2.436c-.44.406-.727.952-.893 1.522-.01.033.041.047.051.014.178-.578.485-1.047.877-1.5.021-.025-.011-.058-.035-.036zm2.091 2.672c-.333.397-.639.818-.955 1.228-.019.025.023.048.041.024.315-.408.642-.81.939-1.232.01-.015-.013-.033-.025-.02zm.299 1.889c-.628.783-1.097 1.684-1.465 2.614-.013.033.04.047.054.015.382-.927.889-1.771 1.448-2.6.015-.022-.02-.05-.037-.029zm.705-2.994a7.027 7.027 0 012.288-1.762c.067-.032.008-.13-.058-.1a6.078 6.078 0 00-2.258 1.84c-.012.017.015.038.028.022zm3.543 1.753c.57-.419 1.173-.77 1.853-.977.078-.023.045-.144-.034-.122-.7.199-1.345.525-1.864 1.042-.028.028.01.083.045.057zM16.38 5.75c.616-.36 1.226-.728 1.867-1.043.04-.02.005-.078-.035-.06-.648.3-1.282.633-1.86 1.055-.028.021-.004.067.028.048zm-.591-1.042c.503-.532 1.07-.948 1.656-1.382.023-.017.003-.054-.023-.04-.627.349-1.18.867-1.664 1.39-.02.021.011.052.03.032zm-.866-2.011c.5-.35 1.04-.611 1.592-.868.027-.013.008-.056-.02-.047-.585.177-1.12.488-1.616.84-.046.032-.003.107.044.075zm2.434 6.885c-1.104.3-2.143.798-3.124 1.38-.046.028-.005.1.042.072.986-.57 2.03-1.002 3.097-1.396.034-.013.021-.065-.015-.056zM23.16 7.75c-1.305-.155-2.637-.047-3.919.234-.012.003-.007.022.006.02 1.297-.277 2.594-.326 3.913-.236.012 0 .012-.016 0-.018zm-8.12 6.478c-1.457.224-2.85.84-4.076 1.65-.019.013-.002.043.018.031 1.268-.779 2.636-1.271 4.074-1.625.037-.01.02-.061-.015-.056zm-1.363 2.37c-1.244.104-2.43.581-3.448 1.294-.023.016-.002.053.022.038 1.046-.685 2.203-1.09 3.431-1.295.02-.004.016-.039-.005-.037zm3.4-.913c-1.06-.099-2.144-.003-3.194.15-.043.007-.024.071.018.065 1.06-.147 2.11-.157 3.176-.168.031 0 .03-.044 0-.047zm.447-.69c-.763-.175-1.554-.25-2.33-.352-.048-.006-.06.078-.012.086.773.124 1.552.28 2.333.332.038.003.046-.058.01-.066zm-2.693 2.714a13.444 13.444 0 00-2.544.211c-.037.007-.021.063.016.057a20.324 20.324 0 012.528-.227c.027 0 .027-.04 0-.041zm7.144.291c.98.565 1.787 1.318 2.489 2.201.011.014.035-.004.025-.02-.638-.926-1.516-1.668-2.493-2.217-.023-.013-.044.023-.02.036zm-.709 1.055c-.016-.014-.04.01-.024.024.769.659 1.462 1.382 2.153 2.12.013.014.032-.006.02-.02-.635-.781-1.38-1.478-2.149-2.124zm.032.975c.784.881 1.4 1.873 1.91 2.935.014.03.067.008.054-.023-.447-1.101-1.108-2.093-1.901-2.975-.039-.043-.101.02-.063.063zm1.361-4.47c-.04-.018-.073.039-.034.058.793.386 1.524.88 2.175 1.476.659.605 1.163 1.3 1.675 2.027.031.045.098.007.073-.043-.792-1.56-2.33-2.79-3.89-3.518zm.545-1.104c1.322.578 2.593 1.195 3.606 2.231.129.223.243.457.34.704.024.063.126.038.103-.028-.474-1.346-1.5-2.548-2.86-3.048-.053-.02-.088.064-.039.09.897.481 1.671 1.117 2.233 1.932-.915-.913-2.192-1.439-3.361-1.932-.03-.012-.05.039-.022.051zm.776 3.387c-.064-.04-.12.059-.059.1.932.609 1.643 1.421 2.264 2.337.023.033.07.005.053-.03-.492-1.007-1.32-1.81-2.259-2.407zm-12.182 4.852c-.629-.227-1.308-.255-1.968-.188-.076.008-.078.127 0 .121.663-.049 1.292.043 1.94.168a.052.052 0 00.028-.101zm1.519-1.514c-.29-.07-.582-.135-.873-.201-.017-.004-.025.023-.007.027.292.064.583.13.876.19.01.002.014-.013.004-.016zm2.388-.348c-.599-.232-1.202-.45-1.806-.67-.026-.01-.037.032-.011.042.602.22 1.204.444 1.81.653.016.005.022-.02.007-.025zm-.477 4.6c.491 1.01.634 2.056.635 3.17 0 .031.044.03.047 0 .132-1.09-.164-2.218-.655-3.186-.01-.019-.036-.003-.027.016zm1.257-.073c.337 1.054.745 2.217.352 3.312-.015.041.052.07.07.03.52-1.12.124-2.308-.338-3.377-.02-.048-.1-.014-.084.035zm-.345-2.275c-.02-.018-.048.011-.029.03 1.263 1.21 2.407 2.488 2.454 4.328 0 .04.054.037.06 0 .23-1.796-1.284-3.259-2.484-4.358zm1.268-.459c.703.42 1.388.9 1.918 1.533.573.685.853 1.457.897 2.343.002.035.05.034.053 0 .191-1.792-1.482-3.113-2.853-3.902-.017-.01-.031.016-.015.026zM11.55 28.38c-.057-.862-.497-1.686-1.06-2.322-.015-.018-.04.007-.025.025.57.683.845 1.447 1.036 2.303.006.027.05.021.048-.007zm.953-1.442c.809 1.247.557 2.801-.347 3.914-.027.034.015.077.048.048 1.108-.986 1.147-2.812.338-3.984-.016-.024-.055-.002-.04.022zm-.858 2.314c.015.942-.498 1.579-1.196 2.138-.038.03.003.1.048.083.866-.316 1.325-1.354 1.295-2.221-.003-.094-.148-.095-.147 0zm-2.18-2.418c.337.548.45 1.13.465 1.766.001.05.082.066.091.012.115-.655-.066-1.303-.408-1.864-.057-.094-.205-.008-.148.086zm.016 3.126c-.092.289-.204.58-.256.88-.008.047.06.086.085.035.138-.276.222-.581.32-.874.032-.094-.118-.135-.149-.04zm-.778-2.156a4.76 4.76 0 01-.041 1.082c-.004.027.034.04.042.012.096-.361.109-.724.074-1.094-.004-.048-.08-.049-.075 0zM6.87 25.095c-.456-.075-.943-.017-1.396.055-.052.008-.03.086.021.078.459-.068.906-.051 1.367-.069.034-.001.046-.058.008-.064zm1.592-.503a22.296 22.296 0 00-1.077-.323c-.084-.023-.12.11-.036.13.366.088.73.17 1.1.239.03.005.043-.036.013-.046zm-4.787 5.343c.673-.011 1.31-.501 1.36-1.196.002-.025-.035-.028-.043-.006-.184.6-.671 1.088-1.317 1.135-.043.003-.044.068 0 .067zm2.454-1.19c0 .017.024.017.026 0 .047-.569-.224-1.104-.674-1.445-.007-.005-.016.007-.01.012.453.354.667.865.658 1.433zm-.419 2.206c.88-.511 1.794-1.79.928-2.728-.033-.035-.082.017-.052.052.375.44.342 1.058.08 1.548-.235.44-.643.739-.994 1.08-.025.024.007.066.037.048zm-.046-.579a5.405 5.405 0 01-.713.488c.546-.38.955-.951 1.161-1.595.023-.07-.084-.098-.109-.03-.345.954-1.12 1.634-2.053 1.995a.03.03 0 00-.018.016c-.288.055-.59.064-.904.016-.036-.005-.052.048-.015.056.97.204 2.128-.032 2.73-.884.036-.051-.038-.094-.08-.062z" fill="#231F20"/></svg>