<svg width="136" height="100" fill="none" xmlns="http://www.w3.org/2000/svg"><path d="M3.208 88.62h1.257v11.358H3.208v-6.481h-1.95v6.481H0V88.62h1.257v3.62h1.951v-3.62zm8.649 9.19H9.603l-.26 2.19H8.086l1.3-11.359h2.688l1.3 11.359h-1.278l-.239-2.19zm-.13-1.148l-.78-6.785h-.434l-.78 6.785h1.994zM20.073 100v-7.219l-1.864 1.886V100h-1.28V88.62h1.258v4.508l1.864-1.95V88.62h1.258v11.358h-1.236V100zm.26-12.573H17.95v-.845h2.384v.845zm7.392 4.791c.325 0 .585.043.802.13.217.087.412.217.542.368.13.152.239.347.303.564.066.217.109.434.109.672v4.249c0 .325-.044.585-.13.802a1.413 1.413 0 01-.369.542c-.151.13-.346.238-.563.303a2.293 2.293 0 01-.672.109h-2.471V88.62h3.901v1.257h-2.644v2.34h1.192zm.499 1.756a.655.655 0 00-.109-.347c-.065-.108-.195-.152-.39-.152h-1.214v5.246h1.214c.152 0 .26-.043.347-.108.087-.065.13-.195.13-.39v-4.25h.022zm9.494-5.354v11.358h-1.257V89.877h-1.453l-.368 8.54c-.022.52-.13.911-.325 1.171s-.564.39-1.084.39h-.694v-1.257h.52c.13 0 .217-.022.26-.065.044-.043.066-.13.066-.26l.433-9.798h3.902v.022zM44.785 100v-7.219l-1.864 1.886V100h-1.258V88.62h1.258v4.508l1.864-1.95V88.62h1.257v11.358h-1.257V100zm6.2-7.11l-1.431-4.249h1.322l1.236 3.729h.975v-3.75h1.257v3.728h.954l1.236-3.728h1.344l-1.43 4.248 1.517 7.11h-1.301l-1.409-6.59h-.932v6.59h-1.257v-6.59h-.933l-1.409 6.59h-1.3l1.56-7.088zM65.4 88.62v11.358h-1.28V96.38h-1.278a2.18 2.18 0 01-.672-.108 1.768 1.768 0 01-.564-.304 1.412 1.412 0 01-.368-.542 2.22 2.22 0 01-.13-.802V88.62h1.257v6.004c0 .195.043.303.152.39a.655.655 0 00.347.109h1.279v-6.504H65.4zm7.457 9.19h-2.255l-.26 2.19h-1.257l1.3-11.359h2.689l1.3 11.359h-1.279l-.238-2.19zm-.13-1.148l-.78-6.785h-.434l-.78 6.785h1.994zm14.025-8.042v11.358h-1.257V89.877h-1.8v10.101h-1.257V88.62h4.314zm7.717 0v1.257h-2.515v2.34h1.908v1.28h-1.908v5.224h2.515v1.257h-3.794V88.62h3.794zm3.663 0h1.258v3.728h1.083l1.236-3.728h1.344l-1.431 4.248 1.518 7.11h-1.301l-1.409-6.59h-1.062v6.59H98.11V88.62h.021zm11.814 9.19h-2.254l-.26 2.19h-1.257l1.3-11.359h2.688L111.464 100h-1.279l-.239-2.19zm-.13-1.148l-.78-6.785h-.434l-.78 6.785h1.994zm9.408-2.038c0 .325-.043.585-.13.802a1.255 1.255 0 01-.39.542c-.173.13-.347.239-.564.303a2.29 2.29 0 01-.672.109h-1.17v3.598h-1.257V88.62h2.427c.326 0 .586.043.802.13a1.4 1.4 0 01.542.368c.152.152.239.347.304.564.065.216.108.433.108.672v4.27zm-1.279-4.249a.655.655 0 00-.108-.347c-.065-.108-.195-.151-.39-.151h-1.171v5.246h1.171c.151 0 .26-.044.347-.109.086-.065.13-.195.13-.39v-4.249h.021zm8.216-1.755h1.257v11.358h-1.257v-6.481h-1.951v6.481h-1.257V88.62h1.257v3.62h1.951v-3.62zm9.364 0v11.358h-1.257v-5.44h-.715l-1.236 5.44h-1.301l1.258-5.527a1.552 1.552 0 01-.781-.542c-.216-.26-.303-.629-.303-1.128v-2.427c0-.239.043-.477.108-.672.065-.217.174-.39.304-.564a1.4 1.4 0 01.542-.368 2.21 2.21 0 01.802-.13h2.579zm-1.257 1.257h-1.344c-.195 0-.303.043-.39.151a.656.656 0 00-.109.347v2.428c0 .174.044.304.152.369a.512.512 0 00.347.108h1.344v-3.403zm.759-65.595c-.499-.759-1.149-1.604-1.973-2.536a23.668 23.668 0 00-2.71-2.602c-.975-.78-1.82-1.214-2.536-1.235-2.818-.065-6.026.021-9.624.303a218.64 218.64 0 00-11.359 1.192 344.484 344.484 0 00-12.183 1.778 378.03 378.03 0 00-12.03 2.168c-3.88.78-7.544 1.56-10.97 2.34-3.424.781-6.416 1.54-8.973 2.255-.26.087-.152.412.303 1.02.477.606 1.084 1.256 1.8 1.95a23.7 23.7 0 002.21 1.843c.737.52 1.258.737 1.561.628.52-.217 1.387-.498 2.58-.78a112.47 112.47 0 014.378-1.019c1.734-.369 3.685-.78 5.853-1.192 2.168-.412 4.466-.824 6.915-1.236a326.14 326.14 0 00-4.964 10.34 103.94 103.94 0 00-4.184 10.448c-.346 1.02-.65 2.06-.953 3.057-.109.065-.347.39-.694.976-.412.65-.91 1.495-1.517 2.492-.607 1.02-1.28 2.125-1.995 3.317-.715 1.192-1.409 2.341-2.06 3.425-.65 1.084-1.235 1.994-1.733 2.775-.499.78-.846 1.257-1.019 1.43-.087.087-.022-.412.195-1.495.217-1.084.542-2.45.975-4.14.434-1.692.976-3.578 1.583-5.658a132.687 132.687 0 011.907-6.048 62.27 62.27 0 011.995-5.225c.672-1.539 1.3-2.623 1.907-3.251.044-.043-.065-.13-.346-.282a5.38 5.38 0 00-1.171-.434 51.251 51.251 0 00-1.734-.498c-.65-.195-1.344-.39-2.06-.607-1.69-.455-3.598-.954-5.766-1.452-.346.13-.737.628-1.192 1.495-.455.867-.932 1.973-1.387 3.317a113.045 113.045 0 00-1.43 4.596 89.847 89.847 0 00-1.301 5.289c-.5.758-1.258 1.907-2.255 3.425-.997 1.517-1.994 3.056-3.013 4.617a518.986 518.986 0 01-2.775 4.205c-.845 1.236-1.387 1.973-1.647 2.19-.087.086-.022-.412.195-1.496s.542-2.45.975-4.14c.434-1.691.976-3.577 1.583-5.658a132.606 132.606 0 011.907-6.048 62.219 62.219 0 011.995-5.224c.672-1.54 1.3-2.623 1.907-3.252.044-.043-.065-.13-.347-.282a5.374 5.374 0 00-1.17-.433 51.03 51.03 0 00-1.734-.499c-.65-.195-1.344-.39-2.06-.607a157.67 157.67 0 00-5.766-1.452c-.412.13-.932.824-1.517 2.124-.239.542-.499 1.127-.737 1.778-.217.347-.434.715-.585 1.019-.477.867-.954 1.82-1.648 3.013-.694 1.192-1.734 2.71-2.558 4.01a92.586 92.586 0 01-4.01 5.723c-1.517 2.016-3.056 3.967-4.66 5.614-1.605 1.648-2.927 2.905-4.466 4.01-1.366.998-3.663 1.886-5.463 1.561-2.731-.477-5.744-3.447-7.543-6.113-1.865-2.774-2.992-5.722-3.339-8.887-.368-3.144-.13-6.395.694-9.712a50.568 50.568 0 013.49-9.668 60.726 60.726 0 015.138-8.8c1.907-2.732 3.771-5.116 5.57-7.089 1.8-1.994 2.168-2.515 3.556-3.533 1.365-.998 2.861-2.385 3.966-2.016.044.021.066.021.087.043.737.585.542 1.56.325 3.338-.216 1.8-.78 3.599-1.279 6.178-.52 2.58-1.474 5.636-2.557 8.498a439.428 439.428 0 01-2.862 7.305c-.78 1.93-1.582 3.425-2.666 5.874-.455 1.04 5.766 1.02 7.565.109 2.255-1.127 3.36-2.948 4.9-5.311a68.078 68.078 0 004.14-7.392c1.235-2.58 2.254-4.964 3.056-7.197.802-2.233 1.387-4.118 1.648-5.68.368-2.405.238-3.576-.022-4.92-.607-3.252-2.948-6.46-4.596-8.086C38.238-.257 34.401-.17 30.131.112c-1.17.065-4.595.65-6.308 1.756-1.712 1.084-3.555 2.666-5.484 4.704-1.951 2.037-3.902 4.465-5.896 7.283-1.995 2.818-3.816 5.875-5.485 9.17a75.417 75.417 0 00-4.292 10.361C1.474 37.006.694 40.648.346 44.311a37.616 37.616 0 00.478 10.817c.672 3.534 1.734 6.59 3.23 9.343 1.235 2.146 3.641 5.463 7.305 8.28 1.82 1.41 4.14 2.667 6.806 3.47 2.211.65 4.488.888 6.33.758 1.366-.087 3.23-.499 4.552-1.106 1.626-.78 2.797-1.56 4.336-2.688 2.167-1.604 3.425-2.97 4.877-4.617a109.013 109.013 0 003.924-4.66c.086-.087.151-.196.216-.304a11.98 11.98 0 00-.043.867c-.087 1.778.043 3.057.39 3.859.412.975 1.15 1.842 2.19 2.601a16.334 16.334 0 003.251 1.864c1.15.477 2.211.846 3.187 1.084.997.239 1.669.325 2.059.282.217-.043.52-.282.954-.737.412-.434.91-1.04 1.496-1.8a89.137 89.137 0 001.864-2.6 92.221 92.221 0 002.016-3.035c.086 1.062.238 1.842.433 2.34.412.976 1.15 1.843 2.19 2.602a16.334 16.334 0 003.251 1.864c1.15.477 2.211.846 3.23 1.084 1.019.239 1.691.325 2.016.282.304-.043.824-.52 1.604-1.453.78-.932 1.67-2.102 2.666-3.511.412-.585.803-1.17 1.214-1.778.066.867.152 1.713.282 2.58 0 .108.152.26.456.433.303.174.693.369 1.192.586.498.216 1.019.455 1.604.715.585.239 1.192.477 1.842.715 1.474.564 3.122 1.17 4.964 1.8.066-3.079.499-6.46 1.28-10.08.78-3.642 1.799-7.392 3.1-11.294 1.3-3.902 2.839-7.89 4.638-11.944 1.8-4.075 3.75-8.086 5.896-12.03.065-.066-.216-.218-.91-.434-.672-.217-1.518-.434-2.493-.716 3.512-.498 7.045-.954 10.622-1.387a214.2 214.2 0 0110.318-.997c3.295-.217 6.351-.347 9.191-.347 2.818 0 5.246.173 7.24.498.065-.13-.086-.476-.563-1.235z" fill="#000"/><path d="M120.937 49.34c-.217-1.083-.456-1.972-.737-2.687-.282-.716-.564-1.193-.846-1.453a15.211 15.211 0 00-2.254-1.365 24.717 24.717 0 00-2.255-.954c-.672-.239-1.235-.369-1.669-.412-.433-.043-.629.043-.542.26.26.845.39 1.951.434 3.295a39.42 39.42 0 01-.13 4.422 47.028 47.028 0 01-.694 4.964 34.978 34.978 0 01-1.322 4.834c-1.648-.455-2.862-1.496-3.642-3.078-.78-1.582-.824-3.707-.087-6.351a37.544 37.544 0 011.995-4.53c.737-1.41 1.582-2.645 2.557-3.708.174-.173-.021-.433-.542-.802-.52-.368-1.213-.737-2.059-1.105-.845-.39-1.777-.737-2.818-1.084a35.786 35.786 0 00-2.883-.824c-.585-.13-1.366.369-2.319 1.496-.954 1.127-1.908 2.601-2.84 4.422-.954 1.843-1.82 3.902-2.601 6.2a38.343 38.343 0 00-1.648 6.806c-.325 2.233-.282 4.292.087 6.178.39 1.886 1.236 3.317 2.601 4.336a36.426 36.426 0 003.23 2.254 41.103 41.103 0 003.512 1.973c1.17.563 2.276.997 3.316 1.3 1.063.304 1.973.39 2.732.26 1.474-.26 2.796-.671 3.967-1.257a11.74 11.74 0 003.078-2.21 14.315 14.315 0 002.254-2.97c.325-.586 1.496-3.577 2.103-7.09.542-3.164.542-6.87.498-7.5-.108-1.343-.26-2.536-.476-3.62zm-13.614 17.212c-.975.954-2.059 1.474-3.295 1.56-.086.088-.13-.086-.151-.498-.022-.412 0-1.04.065-1.842s.173-1.756.346-2.84c.174-1.105.391-2.276.629-3.555a16.509 16.509 0 002.255 1.973 17.124 17.124 0 002.688 1.582c-.716 1.474-1.561 2.666-2.537 3.62z" fill="#000"/></svg>