<svg width="52" height="52" fill="none" xmlns="http://www.w3.org/2000/svg"><path d="M25.962 51.925c-6.904 0-13.466-2.682-18.373-7.589C2.682 39.429 0 32.924 0 25.963c0-6.905 2.682-13.467 7.589-18.374C12.496 2.682 19.001 0 25.962 0c6.905 0 13.467 2.682 18.374 7.589 4.907 4.907 7.589 11.412 7.589 18.373 0 6.905-2.682 13.467-7.589 18.374-4.964 4.907-11.47 7.589-18.373 7.589zm0-50.955C19.286.97 13.01 3.595 8.274 8.274 3.538 13.01.97 19.286.97 25.963c0 6.676 2.625 12.952 7.304 17.688 4.736 4.736 11.012 7.304 17.689 7.304 6.676 0 12.952-2.625 17.688-7.304 4.736-4.736 7.304-11.012 7.304-17.689 0-6.676-2.625-12.952-7.304-17.688C38.915 3.538 32.64.97 25.962.97z" fill="#000"/><path d="M25.702 51.092L.767 26.157l-.645.646 24.934 24.934.646-.645zm7.701-1.05L1.932 18.572l-.646.645 31.471 31.47.646-.645zm5.83-2.443l-34.82-34.82-.645.646 34.82 34.82.645-.646zm4.908-3.778L8.111 7.791l-.646.645 36.03 36.03.646-.645zm7.328-18.441L26.534.447l-.645.646 24.934 24.934.646-.645zm-1.054 7.679L18.945 1.588l-.646.645 31.47 31.471.646-.645zm-2.455 5.804L13.14 4.043l-.645.646 34.82 34.82.646-.646zm2.285-21.783L34.833 1.668l-.646.645L49.6 17.726l.645-.645zM17.68 49.717L2.268 34.304l-.646.645 15.413 15.413.645-.645z" fill="#000"/><path d="M25.805.908l-.646-.646L.224 25.197l.646.645L25.805.908zm7.627 1.125l-.646-.646-31.47 31.471.645.646L33.43 2.033zm5.751 2.52l-.645-.645-34.82 34.82.645.645 34.82-34.82zm5.069 3.699l-.646-.646-36.03 36.03.646.646 36.03-36.03zm7.345 18.423l-.646-.646-24.935 24.935.646.645 24.935-24.934zm-1.182-7.63l-.645-.646L18.297 49.87l.646.646 31.471-31.471zm-2.496-5.763l-.646-.646-34.82 34.82.646.646 34.82-34.82zm2.294 21.852l-.645-.646-15.09 15.09.645.645 15.09-15.09zM17.658 2.409l-.645-.646L1.6 17.176l.646.645L17.658 2.408z" fill="#000"/></svg>