<svg width="186" height="79" fill="none" xmlns="http://www.w3.org/2000/svg"><path d="M185.812 49.496c-.516-5.062-2.123-9.926-4.448-14.439-4.135-8.026-11.348-17.891-21.155-18.722a14.135 14.135 0 00-3.829.186c-4.118-5.983-13.059-8.56-19.971-8.078-.121-1.484-.286-3.038-1.013-4.352-1.576-2.853-4.851-3.15-7.773-3.322-8.395-.496-16.811-.731-25.221-.767-2.951-.013-6.335-.016-8.633 2.144-.891.836-1.471 1.852-1.869 2.951-.028-.01-.052-.025-.082-.034-3.972-1.231-8.238-.659-12.208.293-3.072.736-6.655 1.373-9.15 3.456a151.28 151.28 0 01-1.116-2.156c-.204-.401-.71-.679-1.155-.662-10.728.4-21.2 4.088-29.734 10.588-.13-.065-.335.007-.32.182l.008.06c-.418.323-.834.651-1.242.989-.563.465-1.078.95-1.512 1.467-.044-.117-.254-.091-.238.046.007.072.02.143.028.215-.72.938-1.152 1.986-1.087 3.216-3.41.902-7.01 2.401-9.165 5.205-.89-.783-1.803-1.611-2.861-2.156-2.748-1.413-4.579.541-6.466 2.397-2.982 2.933-5.62 6.254-8.01 9.68-3.19 4.574-5.962 9.555-7.5 14.942-.148.52.002.947.293 1.24-1.095 6.497-.058 13.548 5.957 17.26 4.544 2.804 10.338 3.893 15.494 4.952a117.987 117.987 0 0017.69 2.263c12.38.633 24.897-.093 37.27-.654a940.969 940.969 0 0037.263-2.439c11.718-.998 23.487-2.013 35.097-3.937 5.616-.93 11.197-2.112 16.66-3.721 5.131-1.511 10.533-3.268 15.197-5.934 1.973-1.128 3.589-2.686 4.354-4.868.824-2.354.695-5.05.447-7.491zm-49.12-34.788a83.554 83.554 0 00-.192-5.054c6.24 1.175 13.214 2.57 17.502 7.538-6.876 2.596-11.489 10.2-16.379 15.372-.217.23-.438.457-.661.68.825-1.524 1.719-3.024 2.726-4.427 1.317-1.834 2.897-3.468 4.283-5.247.157-.202-.046-.568-.302-.392-3.622 2.479-6.404 6.528-8.419 10.364-.22.42.023.814.357.966a23.32 23.32 0 01-1.145.932c1.517-6.801 2.295-13.759 2.23-20.732zM80.097 7.123c3.769-.807 7.432-1.192 11.194-.147.033.009.064.01.096.016-.22 1.12-.331 2.269-.44 3.368a350.411 350.411 0 00-1.579 25.716c-7.087-7.866-13.136-16.608-18.18-25.914 2.542-1.826 5.916-2.397 8.909-3.039zm-51.818 20.58a40.461 40.461 0 012.814 2.693c.834.869 1.617 1.836 2.636 2.493.313.202.757-.134.64-.491-.772-2.348-3.144-4.195-5.026-5.668 1.635-.862 3.367-1.465 5.195-2.068.327.858.774 1.697 1.282 2.518-.489-.187-1.124.297-.761.838 1.883 2.808 3.524 5.731 5.736 8.3.164.19.514-.01.428-.248a21.722 21.722 0 00-1.31-2.879l7.003 10.74c-3.58-2.55-7.1-5.184-10.64-7.79a305.507 305.507 0 00-7.843-5.6c-.772-.531-1.546-1.048-2.293-1.604a15.353 15.353 0 011.949-1.477.72.72 0 00.19.243zm-8.04.238l-.027.003a.023.023 0 01.003-.002l.024-.001zm79.693 45.884c-1.908.14-3.816.274-5.724.403.491-.095.982-.193 1.47-.294 1.418-.05 2.835-.086 4.254-.109zm-11.577.781a1004.684 1004.684 0 01-9.025.52 474.38 474.38 0 013.217-.329c3.058-.3 6.116-.524 9.177-.687-1.123.17-2.246.337-3.369.496zm92.643-16.073c-1.927 1.578-4.586 2.496-6.868 3.416a96.816 96.816 0 01-7.285 2.596c-5.035 1.576-10.183 2.77-15.37 3.72-10.683 1.958-21.539 2.962-32.345 3.969-5.328.497-10.661.945-15.996 1.352a.17.17 0 00-.16-.138 82.04 82.04 0 00-4.605-.183c.022-.093-.054-.213-.18-.192l-1.122.186c-8.852.007-17.724 1.245-26.499 2.302-1.673.075-3.345.145-5.019.211 1.202-.176 2.4-.363 3.598-.568.012-.002.007-.02-.005-.018a153.53 153.53 0 01-3.807.594c-4.996.195-9.993.344-14.99.425-.442.008-.885.01-1.327.015a181.941 181.941 0 01-16.257-1.815 184.876 184.876 0 01-17.93-3.733c-.06-.016-.085.076-.026.093a183.788 183.788 0 0029.602 5.445c-6.318-.093-12.598-.533-18.823-1.507a58.816 58.816 0 01-7.68-2.686c-.038-.017-.073.04-.033.058a59.493 59.493 0 006.829 2.49 102.08 102.08 0 01-8.39-1.739c-4.423-1.116-9.715-2.39-12.487-6.361-2.267-3.25-2.448-7.567-1.926-11.367.033-.241.07-.482.109-.723.309-.14.567-.41.688-.833.036-.127.08-.254.118-.382 2.282 2.578 6.214 4.361 9.504 5.089.195.043.346-.249.144-.342-1.638-.754-3.292-1.488-4.879-2.347-1.595-.864-3.006-2.036-4.6-2.882l-.018-.006C5 46.168 8.91 40.047 13.355 34.758c.654-.683 1.31-1.366 1.957-2.056a69.38 69.38 0 002.482-2.794l.004-.004c3.152 2.464 6.309 4.927 9.633 7.157.135.09.3-.12.175-.226-3.01-2.592-6.196-4.965-9.384-7.331.338-.314.68-.62 1.039-.906.268-.214.544-.422.844-.59.1.02.262.04.313.066.288.141.565.286.836.458.976.621 1.803 1.473 2.705 2.193.985.786 2.072 1.434 3.116 2.14 2.485 1.679 4.914 3.442 7.332 5.216 5.515 4.048 10.962 8.188 16.667 11.97 1.112.736 2.56-.727 1.836-1.836L42.869 32.82c-1.611-2.47-3.256-4.921-4.834-7.411-.631-.995-1.596-2.28-1.227-3.527.247-.834 1.12-1.572 1.939-2.19.92 2.807 2.758 5.394 5.237 6.905.161.098.346-.134.204-.264-2.284-2.089-3.93-4.303-4.921-7.027.147-.109.288-.213.415-.313a48.097 48.097 0 016.395-4.209 305.647 305.647 0 003.605 5.547c.045.067.15.007.108-.063a304.154 304.154 0 00-3.535-5.58 49.902 49.902 0 0121.147-5.975c4.677 9.066 10.43 17.501 17.022 25.26-.093.028-.165.113-.128.232.542 1.731 1.36 3.354 2.6 4.69.098.106.289-.035.203-.157-.959-1.363-1.777-2.772-2.322-4.346a147.825 147.825 0 004.866 5.408c.707.748 1.965.16 1.981-.82.121-7.335.459-14.665 1.034-21.978.263-3.347.282-6.922 1.107-10.187.892-3.525 3.618-4.447 6.952-4.526 4.469-.105 8.958-.002 13.439.185.576 2.738 1.109 5.5 1.907 8.178.054.182.306.103.278-.076-.424-2.72-1.114-5.404-1.76-8.083 2.584.111 5.164.248 7.737.389l.291.016c.132 3.11-.177 6.142-.468 9.24-.017.186.275.219.321.044.792-3.01.856-6.16.659-9.254 1.501.084 3.002.175 4.502.276.238.016.485.03.734.045-.021 2.114-.048 4.227.041 6.34.005.123.187.123.192 0 .089-2.108.063-4.215.042-6.324 1.16.074 2.38.204 3.355.788 1.5.896 1.692 2.614 1.81 4.21.143 1.929.222 3.865.245 5.798a92.495 92.495 0 01-2.858 23.912c-.282 1.108.91 2.016 1.906 1.465 8.124-4.491 11.631-14.024 19.604-18.64 3.18-1.84 6.263-2.116 9.147-1.39-3.351 3.72-6.838 7.019-10.854 10.082-.171.131-.023.415.174.299 4.303-2.534 8.333-6.144 11.287-10.215 4.34 1.313 8.203 4.853 11.234 8.652-2.926 4.295-6.718 7.897-11.067 10.756-.165.109-.02.36.155.265 4.642-2.522 8.422-6.19 11.233-10.613.659.845 1.276 1.7 1.848 2.543 1.682 2.482 3.166 5.105 4.357 7.853a.255.255 0 00-.251.107c-2.875 4.028-6.531 6.977-10.596 9.729-.202.136-.029.425.189.323 4.452-2.075 8.085-5.755 10.828-9.77a38.434 38.434 0 011.811 5.337c1.02 3.964 2.492 10.762-1.191 13.776z" fill="#231F20"/><path d="M37.695 34.02c-.947-2.924-3.344-5.262-5.717-7.078-.6-.46-1.408.575-.815 1.055 2.305 1.864 4.057 4.174 6.125 6.259.167.168.483-.002.407-.237zM76.89 9.768c-.456-.566-1.46.198-1.016.783a55.984 55.984 0 013.668 5.42c1.008 1.706 1.776 3.732 3.119 5.2.33.362.793-.036.738-.43-.288-2.05-1.67-4.042-2.755-5.759a56.634 56.634 0 00-3.755-5.214zm8.63 8.898c.2.285.788.23.74-.2-.293-2.616-1.573-5.035-2.494-7.47-.309-.817-1.633-.463-1.32.363.921 2.437 1.56 5.152 3.075 7.307zm2.562-2.382c.185.343.827.209.775-.21-.276-2.244-1.036-4.443-1.534-6.645-.19-.842-1.493-.486-1.295.357.51 2.177.988 4.511 2.054 6.498zm-1.138 9.403c-.439-1.224-2.408-.693-1.962.541.903 2.497 1.666 4.983 3.311 7.11.184.238.587.034.58-.24-.08-2.627-1.055-4.968-1.93-7.41zm52.304-3.311c1.821-3.01 2.191-7.231 2.697-10.65.161-1.093-1.438-1.604-1.703-.47a229.49 229.49 0 01-1.367 5.54c-.441 1.7-1.033 3.423-1.069 5.189-.017.783 1.053 1.035 1.442.391zm1.947 2.397c2.821-2.424 4.587-6.552 6.269-9.797.519-1-.916-1.848-1.514-.885-1.064 1.716-2.146 3.42-3.19 5.15-.944 1.564-2.046 3.19-2.548 4.96-.17.597.557.939.983.572zm21.693.78c1.111-1.107 2.118-2.327 3.154-3.504.118-.134-.079-.332-.197-.197-1.038 1.188-2.12 2.354-3.078 3.608-.054.07.06.153.121.093zm-12.316 14.303c3.28-2.834 6.183-6.116 9.198-9.227.095-.097-.052-.243-.15-.149-3.121 3.004-6.413 5.895-9.259 9.165-.126.145.065.336.211.21zm20.407-2.616c1.946-1.076 3.265-2.931 3.829-5.062.034-.126-.154-.177-.194-.054-.658 2.064-1.979 3.704-3.737 4.942-.105.073-.014.237.102.174zm10.585 11.495c-2.604 1.843-5.28 3.618-7.649 5.763-.155.14.044.391.22.287 2.732-1.616 5.201-3.634 7.714-5.561.282-.216.017-.703-.285-.49zm-2.558 6.252c-1.675 1.51-3.58 2.535-5.589 3.523-.197.097-.058.407.148.35 2.212-.612 4.151-1.947 5.821-3.492.256-.237-.123-.612-.38-.38zM125.935 3.994c.044 0 .044-.067 0-.067-.043 0-.043.067 0 .067zm1.719 16.452c1.451-2.135 1.983-4.714 1.919-7.267-.006-.252-.398-.254-.393 0 .047 2.579-.65 4.832-1.742 7.14-.068.146.124.26.216.127zm-19.53-11.879c.119-1.698.045-3.417.043-5.118 0-.185-.288-.185-.288 0-.002 1.701-.076 3.42.043 5.118.009.13.193.13.202 0zm-5.714 4.086c-.424-2.361-.583-4.762-.373-7.152.013-.15-.213-.145-.23 0-.292 2.458-.191 4.804.417 7.203.031.121.207.069.186-.051zm-44.143 9.798c.07.131.304.04.246-.103-1.37-3.323-3.002-6.548-4.591-9.77-.08-.163-.313-.02-.24.14 1.465 3.267 2.903 6.57 4.585 9.733zm-3.538 8.242c.136.091.292-.114.174-.226-1.366-1.295-2.43-2.731-2.953-4.561-.08-.279-.516-.16-.435.12.531 1.858 1.587 3.582 3.214 4.667zm9.151-11.259c.064.07.156-.031.101-.102-1.773-2.28-3.319-4.582-4.476-7.24-.049-.112-.214-.015-.166.098 1.13 2.612 2.597 5.148 4.54 7.244zm13.35 17.879c.098.093.286-.035.196-.152-1.407-1.825-3.022-3.492-4.566-5.202-.178-.198-.468.094-.291.292 1.528 1.705 3.005 3.48 4.662 5.062zm28.388-1.622c.185-2.73.202-5.453.211-8.188.002-.47-.731-.47-.729 0 .01 2.735.026 5.458.211 8.188.013.197.294.198.307 0zm-92.372.679c2.54 1.557 5.052 3.193 7.684 4.593.159.085.288-.14.14-.24-2.466-1.673-5.086-3.132-7.65-4.651-.192-.114-.364.182-.174.298zm.24 11.865c-2.112-1.233-4.355-1.859-6.795-1.987-.222-.012-.22.332 0 .346 2.337.141 4.595.781 6.693 1.815.115.057.215-.108.102-.174zM7.75 62.174c-1.326-.454-2.734-.687-4.102-.99-.186-.041-.265.24-.079.287 1.359.342 2.723.764 4.112.953.161.022.231-.195.069-.25zm14.772-9.978c2.053.83 4.095 1.701 6.181 2.445.107.038.182-.137.078-.184-2.03-.918-4.115-1.714-6.18-2.548-.177-.071-.255.217-.08.287zm38.434 18.879c-13.748 1.313-27.418.732-40.922-2.274-.054-.012-.077.07-.022.083 13.355 2.986 27.334 3.963 40.944 2.344.096-.011.1-.163 0-.153zm23.012-1.591c12.79-1.442 25.704-2.457 38.432-4.37.127-.02.098-.238-.031-.227-12.824 1.045-25.625 3.01-38.402 4.53-.042.005-.042.072 0 .067zm51.739-3.428c-10.191 2.343-20.316 4.364-30.768 5.142-.104.008-.106.168 0 .163 10.354-.47 20.939-1.88 30.837-5.055.158-.05.094-.287-.069-.25zm-57.879 3.538c.16-.008.16-.241 0-.25-3.398-.175-6.833-.041-10.236-.033-.203 0-.204.316 0 .316 3.403.008 6.838.142 10.236-.033zm87.445-10.075c-8.782 2.872-17.49 5.564-26.57 7.359-.265.052-.146.434.11.397 9.061-1.296 18.259-3.596 26.593-7.44.178-.082.052-.377-.133-.316zm2.578-4.068c-4.13 1.273-8.262 2.51-12.295 4.07-.238.09-.15.455.107.388 4.182-1.088 8.256-2.498 12.349-3.875.365-.123.214-.698-.161-.583zM53.265 68.144c14.982-.237 30.121-.621 45.013-2.379.144-.017.151-.239 0-.23-15.013.89-29.967 2.128-45.013 2.465-.092.002-.093.145 0 .144zm66.014-.361c-8.178.934-16.315 2.307-24.463 3.468-8.567 1.222-17.137 2.446-25.716 3.58-.047.006-.049.082 0 .076 8.3-.912 16.584-1.87 24.859-2.986 8.46-1.142 16.98-2.215 25.355-3.884.141-.028.111-.27-.035-.254zm9.806-4.645c4.292-.831 8.574-1.696 12.838-2.658 4.241-.957 8.575-1.831 12.68-3.278.206-.073.122-.358-.09-.324-4.304.693-8.54 1.909-12.777 2.921-4.245 1.014-8.49 2.03-12.745 2.997-.224.051-.128.386.094.342zM40.008 66.66c-6.701-1.01-13.389-1.825-20.036-3.19-.156-.031-.223.205-.066.241 6.562 1.515 13.325 2.859 20.061 3.25.17.01.214-.275.04-.301zm-20.522-.925c-2.813-.207-5.478-.62-8.108-1.667-.321-.128-.46.39-.143.518 2.62 1.055 5.415 1.704 8.25 1.514.236-.016.235-.348 0-.365z" fill="#231F20"/></svg>