<svg width="58" height="10" fill="none" xmlns="http://www.w3.org/2000/svg"><path fill-rule="evenodd" clip-rule="evenodd" d="M18.071 4.997v.01c-.124.056-.235.113-.346.17a9.289 9.289 0 01-2.03.846 5.49 5.49 0 01-1.143.126 4.449 4.449 0 01-.656-.09c-.865-.225-1.655-.667-2.451-1.049V5c.796-.395 1.576-.814 2.431-1.05.38-.08.732-.113 1.11-.093.467.047.911.173 1.355.32.49.192.953.404 1.41.667.111.046.222.103.323.16l-.003-.007zm3.117.475L20.347 6.7a7.372 7.372 0 01-.698.837c-.278.25-.565.442-.901.621-.699.362-1.453.542-2.23.688-.267.037-.532.08-.81.113.01-.023.01-.023.931-1.389.176-.226.346-.461.522-.69.232-.27.477-.509.764-.722.255-.136.255-.136.588-.319.855-.325 1.776-.362 2.673-.372l.004.004zm0-.937c-.434.01-.887-.037-1.331-.07-.457-.056-.901-.136-1.332-.305-.19-.103-.19-.103-.565-.296-.48-.349-.832-.778-1.178-1.243-.356-.508-.356-.508-1.074-1.58.698.066 1.374.202 2.04.394.434.147.832.306 1.244.532.078.056.166.113.254.17.379.272.676.6.954.96.267.385.267.385.989 1.435v.003zm4.198.937c-.688.01-1.387.043-2.063.18-.1.022-.189.042-.287.076-.467.146-.81.338-1.188.654a5.228 5.228 0 00-.444.452c-.542.678-1.009 1.402-1.498 2.113.235-.01.466-.057.698-.09.61-.103 1.211-.236 1.79-.452.12-.043.24-.103.365-.146a4.87 4.87 0 001.354-.983c.134-.17.268-.34.389-.509.3-.438.597-.87.888-1.299l-.004.004zm0-.95v.01a14.15 14.15 0 01-1.83-.137c-.477-.103-.879-.226-1.3-.461-.154-.103-.154-.103-.287-.203a7.071 7.071 0 01-.777-.824c-.444-.611-.865-1.242-1.286-1.864.933.08 1.864.306 2.732.645.356.156.689.349.999.588.078.07.153.136.232.203.208.225.41.441.59.687.31.452.62.904.934 1.356h-.007zm4.286.95c-.643.01-1.266.033-1.9.146a5.106 5.106 0 00-.786.226c-.19.08-.356.17-.532.282-.3.216-.555.452-.787.734-.532.668-.999 1.389-1.475 2.09.222-.01.466-.056.689-.09.143-.023.287-.043.43-.066.712-.16 1.388-.352 2.03-.691a5.42 5.42 0 00.889-.665c.143-.159.287-.318.41-.488.344-.498.69-.993 1.032-1.478zm0-.937h-.143c-.61-.023-1.221-.057-1.822-.16a7.096 7.096 0 01-.852-.272C26.653 4 26.653 4 26.49 3.9c-.111-.07-.212-.16-.31-.235-.412-.376-.745-.804-1.068-1.253-.31-.455-.623-.904-.92-1.369.023 0 .045.01.065.01.568.07 1.123.17 1.678.306.444.126.875.272 1.299.475.166.103.333.193.5.306.074.07.166.136.254.206.245.226.467.461.666.724.209.282.209.282 1.022 1.468l-.004-.003zm4.198.937c-.199 0-.401 0-.6.01-.754.046-1.554.103-2.253.442-.088.033-.166.08-.254.126-.389.259-.676.551-.976.903-.177.24-.346.462-.523.701-.874 1.29-.874 1.29-.874 1.313 1.031-.113 2.095-.326 3.029-.801.467-.25.832-.532 1.188-.904.13-.172.13-.172.255-.329.277-.385.277-.385 1.012-1.455l-.004-.006zm0-.937a12.222 12.222 0 01-1.942-.16c-.176-.033-.176-.033-.454-.112a3.355 3.355 0 01-1.165-.655c-.209-.203-.209-.203-.31-.319-.111-.123-.212-.249-.313-.359-.454-.61-.875-1.252-1.3-1.887.745.1 1.453.213 2.174.442.144.043.278.103.421.146.121.057.255.113.389.18.166.09.346.192.51.292.332.24.6.508.864.814.389.518.758 1.073 1.123 1.615l.003.003zm4.208.937c-.721 1.05-.721 1.05-.999 1.445a4.499 4.499 0 01-1.077 1.026c-.222.137-.454.27-.689.372-.865.353-1.785.542-2.719.645.01-.023.01-.023.888-1.322.343-.475.676-.927 1.12-1.322.078-.07.166-.127.254-.193A4.09 4.09 0 0136 5.65c.688-.136 1.377-.173 2.076-.18h.003zm0-.95v.01c-.61-.024-1.208-.047-1.808-.137-.167-.033-.337-.066-.5-.113l-.434-.146c-.2-.103-.2-.103-.379-.206a4.44 4.44 0 01-.822-.71c-.565-.692-1.045-1.446-1.541-2.18.656.08 1.286.193 1.92.362.156.043.313.103.466.146.134.057.255.103.389.156.245.113.48.246.711.386.222.17.421.339.62.531.513.598.934 1.253 1.378 1.897v.004zm4.198.95c-.333.485-.676.97-1.009 1.468-.134.156-.268.326-.411.485a5.534 5.534 0 01-.699.555c-.277.17-.564.306-.878.428-.754.273-1.53.42-2.33.532-.043 0-.102.01-.154.01.434-.635.855-1.266 1.3-1.874.388-.461.734-.824 1.253-1.12.166-.079.166-.079.346-.159.842-.282 1.71-.319 2.585-.325h-.003zm0-.937c-.986-.01-1.985-.057-2.899-.475a3.355 3.355 0 01-.476-.306c-.076-.056-.154-.123-.222-.18l-.314-.318c-.574-.701-1.064-1.468-1.576-2.213.042 0 .042 0 .41.044a12.61 12.61 0 011.966.465c.356.136.689.282.999.471.241.17.241.17.277.193.389.25.69.668.957 1.027.287.428.587.857.875 1.289l.003.003zm4.23.937c-.365.528-.721 1.073-1.11 1.591a4.52 4.52 0 01-1.155 1.007l-.333.17c-.9.404-1.9.607-2.876.72 0-.023 0-.023.888-1.322.333-.475.68-.927 1.11-1.322.088-.07.176-.127.255-.193.277-.17.555-.292.868-.395.098-.034.19-.057.287-.077.676-.136 1.378-.173 2.066-.18zm0-.95v.01a12.126 12.126 0 01-1.932-.16 4.18 4.18 0 01-1.11-.395c-.078-.047-.157-.09-.235-.146-.01-.01-.075-.057-.088-.067-.144-.08-.277-.239-.398-.352-.656-.724-1.179-1.571-1.71-2.372.841.09 1.677.26 2.477.542.19.08.365.156.542.235.17.103.346.203.5.306l.267.203.32.292c.512.598.933 1.252 1.364 1.897l.003.007zM29.03 4.15c-1.044-1.426-2.464-2.396-4.341-2.828 1.864.18 3.352 1.05 4.341 2.828zm16.9 0c-1.035-1.426-2.455-2.396-4.342-2.828 1.874.18 3.362 1.05 4.342 2.828zm-.023 1.704c-.976 1.774-2.465 2.644-4.329 2.837 1.877-.442 3.297-1.412 4.329-2.837zM41.72 4.15c-1.045-1.426-2.455-2.396-4.342-2.828 1.874.18 3.363 1.05 4.342 2.828zm-.023 1.704c-.976 1.774-2.464 2.644-4.328 2.837 1.877-.442 3.297-1.412 4.328-2.837zM37.481 4.15c-1.042-1.426-2.452-2.396-4.342-2.828 1.864.18 3.353 1.05 4.342 2.828zm-.033 1.704c-.966 1.774-2.455 2.644-4.319 2.837 1.877-.442 3.288-1.412 4.319-2.837zm-4.23-1.704c-1.042-1.426-2.452-2.396-4.342-2.828 1.877.18 3.365 1.05 4.341 2.828zm-.023 1.704c-1.032 1.422-2.455 2.395-4.332 2.837 1.864-.193 3.352-1.063 4.332-2.837zM24.747 4.15c-1.032-1.426-2.452-2.396-4.332-2.828 1.867.18 3.352 1.05 4.332 2.828zm-.023 1.704c-1.032 1.422-2.455 2.395-4.332 2.837 1.864-.193 3.352-1.063 4.332-2.837zM20.536 4.15c-1.032-1.426-2.452-2.396-4.342-2.828 1.877.18 3.366 1.05 4.342 2.828zm-.023 1.704c-.976 1.774-2.465 2.644-4.332 2.837 1.877-.442 3.297-1.412 4.332-2.837zm-3.134-.824c-1.776.993-3.496.95-5.184.136 1.832.611 3.555.522 5.184-.136zM1.57 9.99l12.303.01c.389-.023.787-.057 1.189-.08l.434-.033c.763-.09 1.511-.193 2.242-.386.287-.08.578-.169.865-.272-.19.26-.365.508-.545.757 1.642-.08 3.297-.192 4.841-.8-.19.272-.379.541-.565.8 1.596-.08 3.242-.179 4.74-.757-.176.26-.522.724-.532.767.388-.033.79-.056 1.188-.08a19.96 19.96 0 001.62-.189c.456-.08.897-.17 1.331-.295.203-.067.402-.137.61-.203-.189.25-.365.508-.545.757h.069c1.443-.09 2.83-.179 4.22-.598.223-.08.432-.146.454-.159-.189.26-.365.508-.545.757h.144c1.276-.08 2.53-.169 3.773-.485.265-.08.265-.08.5-.159.222-.066.346-.123.366-.123-.19.26-.366.508-.555.767h.078c1.387-.08 2.742-.179 4.097-.564.199-.057.401-.123.6-.203.376-.17.376-.17.588-.26.346-.202.346-.202.5-.305.267-.202.267-.202.388-.305a7.14 7.14 0 00.79-.847c.666-.97 1.077-1.559 1.322-1.92h10.459V4.418h-10.46c-.388-.565-.776-1.143-1.165-1.708-.166-.226-.342-.508-.555-.7-.43-.496-1.021-.858-1.609-1.13a10.12 10.12 0 00-1.387-.452 16.642 16.642 0 00-2.266-.34c-.43-.036-.865-.056-1.299-.089h-.078c.19.26.365.518.555.78a7.065 7.065 0 00-.421-.145C38.222.295 37.122.15 36.002.07c-.908-.056-.908-.056-1.055-.07.177.26.356.509.546.758a4.203 4.203 0 01-.421-.146 14.123 14.123 0 00-2.53-.489C31.964.08 31.399.033 30.822 0h-.07c.177.26.357.509.546.768a7.114 7.114 0 00-.421-.147C29.924.33 28.954.183 27.968.093c-1.12-.08-1.12-.08-1.42-.09 0 .01.01.024.01.037.177.25.346.485.523.721a5.278 5.278 0 01-.421-.146c-.967-.296-1.943-.429-2.942-.522-.434-.036-.868-.056-1.299-.09h-.078c.19.273.375.542.565.801-1.11-.428-2.276-.608-3.464-.71-.434-.037-.868-.057-1.299-.09h-.078c.176.259.355.508.545.757a15.022 15.022 0 00-1.632-.442 17.865 17.865 0 00-1.744-.226C14.8.057 14.37.037 13.936.003c-6.819 0-10.403.01-12.414.01a8.32 8.32 0 00-.49.814L14.5.917c.333.475.666.95.99 1.422H.401c-.092.26-.157.542-.222.814H13.19c-.999.352-1.92.89-2.899 1.309l-.388.136H0v.362c0 .146 0 .302.01.452h9.982c.222.09.277.113.568.24.888.394 1.74.866 2.654 1.195H.199c.069.282.134.555.222.824h15.055c-.111.18-.277.405-.545.8l-.036.037-.398.575-13.436.076c.153.283.333.555.51.824v.007zm27.424-4.136c-.977 1.774-2.452 2.644-4.329 2.837 1.887-.442 3.297-1.412 4.329-2.837z" fill="#C18439"/></svg>