<svg width="241" height="193" viewBox="0 0 241 193" fill="none" xmlns="http://www.w3.org/2000/svg">
<path d="M195.311 189.876C183.978 188.409 173.978 186.676 173.045 186.009C170.645 184.009 169.845 179.609 171.711 178.276C172.511 177.476 178.378 177.742 185.845 178.676C192.778 179.609 203.045 180.809 208.511 181.209L218.511 182.142L198.511 174.276C135.311 149.342 94.1113 124.542 58.778 90.1425C36.1113 68.1424 21.0446 47.6091 7.84464 20.6758C-0.155364 4.27578 -0.955364 0.675781 3.17797 0.675781C5.17797 0.675781 7.44464 4.14245 13.178 16.2758C44.378 82.0091 109.178 132.809 206.245 168.009C220.778 173.209 221.311 172.542 211.311 162.676C205.845 157.476 203.978 151.342 207.711 151.342C210.378 151.342 236.511 178.942 238.645 184.142C242.111 192.409 241.845 192.676 228.245 192.542C221.445 192.409 206.645 191.209 195.311 189.876Z" fill="black"/>
</svg>
