<svg width="42" height="42" viewBox="0 0 42 42" fill="none" xmlns="http://www.w3.org/2000/svg">
<path d="M7.4577 24.2925C8.44613 29.8779 10.9855 33.7551 16.3037 35.4058C30.6079 39.8462 43.3267 18.952 29.9542 8.98147C22.6728 3.55281 8.3109 5.1993 7.89846 19.062" stroke="#BB8D54" stroke-width="2.4" stroke-linecap="round" stroke-linejoin="round"/>
<path d="M21.9443 15.8847C22.3348 15.4942 22.968 15.4942 23.3585 15.8847C23.749 16.2752 23.749 16.9084 23.3585 17.2989L19.0656 21.5918L23.3585 25.8847C23.749 26.2752 23.749 26.9084 23.3585 27.2989C22.968 27.6894 22.3348 27.6894 21.9443 27.2989L16.9443 22.2989C16.5537 21.9084 16.5537 21.2752 16.9443 20.8847L21.9443 15.8847Z" fill="#BB8D54"/>
</svg>
