<svg width="101" height="281" viewBox="0 0 101 281" fill="none" xmlns="http://www.w3.org/2000/svg">
<path d="M44.4508 88.083C40.8883 90.2966 38.3221 94.067 35.5881 97.1751C35.1689 97.6513 35.8258 98.3245 36.2895 97.8766C39.2669 95.0001 42.9197 92.26 44.9648 88.5966C45.1428 88.278 44.7785 87.8797 44.4508 88.083Z" fill="black"/>
<path d="M48.6716 136.763C60.0594 130.661 71.3844 124.128 78.3771 112.845C78.5944 112.495 78.0479 112.18 77.8264 112.523C70.8968 123.258 59.26 130.118 48.5715 136.592C48.4619 136.658 48.559 136.823 48.6716 136.763Z" fill="black"/>
<path d="M76.1287 119.712C76.3426 119.253 75.6638 118.849 75.4435 119.311C73.1441 124.14 68.9493 128.031 64.9904 131.522C60.4989 135.482 55.7172 139.163 51.4922 143.415C51.1305 143.779 51.6154 144.469 52.0591 144.15C57.0328 140.572 61.697 136.426 66.2735 132.358C70.4127 128.678 73.7764 124.758 76.1287 119.712Z" fill="black"/>
<path d="M17.6725 164.905C13.9033 169.779 10.859 175.174 7.56787 180.372C7.30331 180.79 7.96131 181.17 8.22889 180.758C11.5672 175.621 15.197 170.625 18.0399 165.189C18.1559 164.967 17.843 164.685 17.6725 164.905Z" fill="black"/>
<path d="M34.2647 149.229C33.3391 149.797 32.4721 150.455 31.5904 151.089C31.2673 151.321 31.5783 151.862 31.9052 151.627C32.8081 150.979 33.7284 150.353 34.5826 149.641C34.8127 149.449 34.5149 149.076 34.2647 149.229Z" fill="black"/>
<path d="M27.4611 156.212C25.1311 156.74 23.1125 159.068 21.7641 160.906C21.391 161.414 22.238 162.074 22.6431 161.584C23.4285 160.636 24.3004 159.76 25.2872 159.019C26.1648 158.361 27.1762 157.857 27.9922 157.124C28.4188 156.74 27.9623 156.098 27.4611 156.212Z" fill="black"/>
<path d="M50.5872 138.382C49.0316 138.644 47.6657 139.901 46.3868 140.779C44.9037 141.798 43.4487 142.857 41.98 143.896C41.4089 144.3 41.9157 145.221 42.5382 144.851C44.1747 143.878 45.8278 142.929 47.4446 141.923C48.744 141.115 50.3049 140.431 51.1636 139.132C51.4327 138.724 50.9894 138.314 50.5872 138.382Z" fill="black"/>
<path d="M43.8732 190.616C36.8926 193.323 31.1267 198.546 26.6311 204.435C26.3223 204.839 26.9909 205.342 27.3322 204.975C32.3305 199.616 38.1742 195.457 44.1623 191.302C44.4858 191.077 44.2972 190.451 43.8732 190.616Z" fill="black"/>
<path d="M27.0974 253.142C31.0881 250.209 35.1797 247.395 39.368 244.751C43.3769 242.22 47.843 240.109 51.5453 237.141C52.0635 236.726 51.5026 235.868 50.9111 236.052C46.3006 237.485 42.0147 240.485 38.0003 243.097C33.8641 245.788 29.8847 248.679 26.024 251.752C25.2451 252.371 26.286 253.739 27.0974 253.142Z" fill="black"/>
<path d="M28.3972 245.903C35.7845 241.178 43.3376 236.774 50.2271 231.307C50.4705 231.114 50.1587 230.734 49.9006 230.884C42.3448 235.278 35.3407 240.503 27.989 245.206C27.5529 245.485 27.9577 246.184 28.3972 245.903Z" fill="black"/>
<path d="M98.9392 134.118C98.7374 133.755 98.3386 133.632 97.9637 133.705C99.6006 128.492 100.23 122.979 100.132 117.529C100.017 111.115 98.932 104.743 97.6818 98.4665C97.373 96.9154 97.0688 95.3564 96.6935 93.8193C96.5222 93.1182 96.4591 92.5623 95.7267 92.3159C95.4379 92.2187 94.8854 92.2509 94.281 92.3597C95.1189 90.8109 94.5222 88.9363 93.4462 87.1638C90.8871 82.949 89.8504 77.7776 88.1112 73.1754C84.3401 63.1955 79.903 53.4888 75.9743 43.5735C75.8303 43.2103 75.4244 42.9291 75.0465 42.982C74.975 41.7352 74.8424 40.4914 74.653 39.2551C73.9066 34.3835 72.179 29.6388 69.5667 25.4554C66.988 21.3256 63.5468 17.8115 59.8079 14.7226C57.9522 13.1893 56.0122 11.7622 54.0352 10.3899C52.1122 9.05535 50.1231 7.55643 47.9881 6.54317C45.6177 0.820379 38.7176 -0.920042 33.2616 1.14201C26.8676 3.55819 21.9124 9.31046 18.0461 14.7354C9.21094 27.1323 5.40469 42.2953 4.10458 57.2671C3.26177 66.9734 3.44582 76.7311 3.76745 86.457C3.77879 86.8021 3.91296 87.0655 4.10722 87.2552C3.83737 88.7451 3.62157 90.2504 3.42201 91.7645C2.79387 96.5318 2.54368 101.346 2.60604 106.153C2.665 110.703 3.03311 115.244 3.67864 119.748C4.02785 122.184 4.45833 124.611 4.9882 127.015C5.36085 128.706 5.89904 130.293 6.4565 131.893C6.1961 132.871 5.97652 133.858 5.81514 134.852C4.91602 137.152 4.26785 139.577 3.65596 141.884C2.44239 146.46 1.68462 151.158 1.39549 155.883C0.850121 164.797 2.20693 173.428 4.62538 181.922C4.54752 183.432 4.49461 184.945 4.40806 186.455C3.45262 188.605 2.89705 191.014 2.36983 193.185C1.4518 196.963 0.958214 200.852 0.846721 204.738C0.726158 208.935 1.03645 213.133 1.56405 217.295C2.01607 220.861 2.26816 224.955 3.65445 228.333C2.93825 230.002 3.2474 231.96 3.27008 233.751C3.29918 236.029 3.35436 238.307 3.46434 240.583C3.66994 244.846 4.05053 249.119 4.82682 253.319C5.52374 257.09 6.43988 260.84 7.24451 264.592C7.58693 266.189 8.01362 267.76 8.65915 269.263C9.25932 270.661 9.99404 271.507 10.9895 272.395C10.8055 272.742 10.7726 273.161 11.0077 273.519C13.3237 277.049 17.8545 279.011 21.8591 279.877C26.481 280.876 31.2325 280.477 35.8003 279.385C44.4143 277.327 52.6428 273.053 59.7565 267.833C74.2615 257.191 84.6311 241.977 90.3471 225.002C92.1173 219.745 93.4866 214.332 94.4043 208.861C94.8245 206.355 95.1567 203.832 95.4164 201.304C95.6084 199.434 95.6564 197.626 95.6447 195.799C96.8635 193.447 97.6882 190.945 97.4599 188.325C97.9112 184.974 97.9679 181.496 98.2317 178.233C98.6516 173.042 99.0151 167.846 99.3198 162.647C99.6168 157.572 99.8727 152.493 100.041 147.412C100.181 143.155 101.104 138.015 98.9392 134.118ZM90.7299 148.448C90.7363 147.702 89.7182 147.204 89.2673 147.997C84.5404 156.31 77.9695 162.963 70.8612 169.26C66.8943 172.774 62.8866 176.242 58.8963 179.729C54.7416 183.36 50.4308 186.901 46.7693 191.045C46.4567 191.399 46.8638 192.027 47.3018 191.735C51.9542 188.632 56.0908 184.796 60.2962 181.129C64.3708 177.576 68.4654 174.045 72.5131 170.462C77.7567 165.82 83.1057 160.862 87.1096 155.031C86.2131 156.483 85.2713 157.907 84.2924 159.303C79.0409 166.793 72.704 173.542 65.827 179.558C58.4061 186.051 50.2633 191.666 42.0597 197.113C34.4903 202.139 26.9693 207.229 19.093 211.762C16.4965 213.256 13.8279 214.796 11.4797 216.699C11.8713 216.216 12.2711 215.739 12.6801 215.27C16.2032 211.231 20.2854 207.715 23.8377 203.712C24.1566 203.352 23.7197 202.668 23.2881 202.999C19.6153 205.822 16.046 208.937 12.8675 212.349C14.5596 210.023 16.7327 207.938 18.5744 205.945C21.779 202.476 25.1385 199.188 28.4516 195.828C28.6364 195.641 28.3835 195.279 28.1598 195.45C24.1359 198.524 20.3587 202.076 16.9062 205.776C14.1125 208.771 11.4877 211.74 10.0689 215.556C8.93353 216.961 7.86925 218.429 6.93045 219.972C7.01473 219.403 7.11639 218.838 7.2532 218.284C8.28461 214.101 10.6158 210.55 13.4972 207.412C19.7914 200.558 26.2629 194.119 34.3996 189.474C36.3169 188.379 38.258 187.33 40.1919 186.267C37.128 188.507 34.1222 190.881 31.5518 193.631C31.2257 193.981 31.6444 194.576 32.0757 194.31C36.589 191.526 40.8174 188.214 45.1392 185.139C49.4976 182.037 53.9158 179.02 58.2609 175.901C66.2718 170.151 74.0933 164.087 80.6506 156.7C83.8695 153.664 86.8447 150.429 89.3928 146.879C89.5522 146.948 89.7367 146.945 89.9083 146.819C90.9083 146.083 91.7519 145.29 92.5062 144.417C92.0686 145.524 91.5965 146.618 91.0927 147.696C90.9752 147.949 90.8509 148.198 90.7299 148.448ZM5.44097 233.75C5.41792 232.012 5.69798 230.121 5.05699 228.488C5.48595 227.65 5.84348 226.775 6.18438 225.889C8.29557 221.876 11.4778 218.946 15.1643 216.444C10.601 221.457 7.3133 227.575 5.4474 234.082C5.44589 233.971 5.44249 233.861 5.44097 233.75ZM92.0281 89.2013C91.5296 90.9455 90.697 92.5279 89.7099 94.0245C90.5568 92.0615 91.1094 89.9919 91.2341 87.7919C91.4329 88.1415 91.6358 88.4911 91.8384 88.8437C91.9099 88.9684 91.9714 89.0864 92.0281 89.2013ZM63.9599 139.327C63.8012 139.322 63.6364 139.367 63.4856 139.487C59.4016 142.74 55.1289 145.744 51.1957 149.182C51.1481 149.223 51.1228 149.27 51.1065 149.317C44.4147 153.558 37.2648 157.164 30.4418 161.272C31.9577 159.964 33.437 158.615 34.9216 157.328C38.5313 154.199 41.8946 150.814 45.4673 147.652C45.8573 147.307 45.2843 146.737 44.8962 147.081C41.41 150.167 37.6699 152.989 34.1271 156.015C30.6293 159.003 26.7705 161.833 23.7258 165.296C23.6253 165.411 23.6067 165.549 23.6362 165.674C22.6604 166.361 21.6978 167.068 20.7514 167.799C15.3381 171.983 10.3274 177.154 7.05819 183.226C7.02153 183.206 6.98524 183.189 6.94518 183.176C6.98562 181.428 7.00792 179.677 7.18593 177.958C7.72752 172.724 10.2129 168.253 13.453 164.2C17.1129 159.621 21.2737 155.44 25.6597 151.522C23.5009 153.741 21.4498 156.067 19.5367 158.5C15.6344 163.464 12.2485 168.826 9.5885 174.555C9.41465 174.929 9.95284 175.26 10.1516 174.884C13.1124 169.279 16.4727 163.903 20.4252 158.941C22.2786 156.615 24.2413 154.376 26.3147 152.243C28.5306 149.963 31.1149 148.012 33.2783 145.703C33.4495 145.52 33.3988 145.264 33.2529 145.114C47.2897 133.827 62.6919 124.211 75.7011 111.671C78.0798 109.378 80.3962 106.994 82.5664 104.489C81.4617 106.765 80.5931 109.156 79.7946 111.607C76.8391 120.678 73.0729 129.015 66.7839 136.307C65.8757 137.36 64.9309 138.362 63.9599 139.327ZM5.07853 192.954C4.79016 193.599 4.51313 194.248 4.25159 194.904C4.33436 194.527 4.41789 194.15 4.50784 193.774C4.56982 193.515 4.63823 193.257 4.70928 192.998C4.83627 193.017 4.96212 193.003 5.07853 192.954ZM46.2424 94.7207C39.4829 98.756 33.1222 103.807 27.2165 108.997C21.1898 114.294 16.2335 120.082 11.8187 126.755C11.6823 126.962 11.7575 127.161 11.9079 127.277C11.2352 128.068 10.5863 128.878 9.9638 129.709C10.5428 127.567 11.742 125.804 13.1102 123.917C14.8733 121.486 16.6001 119.029 18.3152 116.563C21.7144 111.677 25.5887 106.92 28.4629 101.702C28.6776 101.312 28.1477 100.863 27.8283 101.213C23.4382 106.02 19.8783 111.718 16.0154 116.952C14.8056 118.591 13.583 120.232 12.3981 121.897C12.982 120.726 13.5988 119.571 14.25 118.435C18.3205 111.34 23.5939 105.049 29.0971 99.0326C33.8104 93.8798 38.5925 88.7867 43.3999 83.7166C43.4623 83.7135 43.5254 83.6984 43.5874 83.6655C49.8824 80.2977 55.3648 75.4166 60.204 70.2188C62.5306 67.7198 64.7196 65.0992 66.7253 62.3357C68.7103 59.6005 70.3139 56.73 71.9432 53.8032C72.1484 53.5493 72.3506 53.2934 72.5456 53.0338C72.6103 53.1025 72.6889 53.1539 72.7758 53.1902C72.6885 53.8051 72.594 54.4174 72.4867 55.0244C71.7414 56.7999 70.8562 58.537 69.8982 60.2381C69.973 59.896 70.0474 59.554 70.1227 59.2108C70.2198 58.7668 69.5391 58.5766 69.4393 59.0226C69.185 60.158 68.9053 61.2975 68.6135 62.4377C67.0258 65.067 65.3307 67.6087 63.7917 70.0699C61.289 74.0726 58.7806 78.0758 56.0356 81.9187C53.1421 85.9698 49.8544 89.6767 46.7118 93.5253C46.448 93.8484 46.8014 94.4546 47.2012 94.1599C55.1248 88.3131 60.2795 78.8215 65.37 70.6122C65.9218 69.7222 66.4865 68.8264 67.0526 67.9247C65.8738 71.6787 64.4781 75.3727 62.8204 78.863C60.1231 84.542 56.3739 89.2243 52.3382 93.9754C52.1413 94.2071 52.3927 94.6032 52.6818 94.4206C57.8943 91.1288 61.4557 85.3769 64.0083 79.9167C66.2533 75.1146 67.6335 70.1549 68.8142 65.0878C69.6185 63.7684 70.4042 62.4324 71.1408 61.076C70.5168 63.5477 69.8165 66.0006 69.0512 68.4326C67.7658 72.5185 66.3066 76.5489 64.6705 80.5075C63.0665 84.3885 61.4255 88.4087 59.1283 91.9406C54.7631 98.6517 46.6453 102.084 39.952 105.995C33.6596 109.671 27.4436 113.496 21.7072 118.008C19.1829 119.993 16.7611 122.118 14.5244 124.411C18.5623 119.063 23.6098 114.26 28.5933 109.925C34.4487 104.833 40.9255 100.494 46.7583 95.3897C47.1245 95.0677 46.6521 94.4762 46.2424 94.7207ZM48.2149 78.6529C53.6788 72.9218 59.1597 67.2066 64.6009 61.46C65.5994 60.4055 66.6955 59.3431 67.7987 58.252C64.9857 62.0802 61.8427 65.7292 58.6438 69.1001C55.3822 72.5371 51.8337 75.6313 48.2149 78.6529ZM27.56 48.7332C24.7277 52.4582 22.0307 56.2712 19.3024 60.0725C16.6322 63.7922 13.518 67.5101 11.448 71.6054C11.4223 71.6564 11.417 71.706 11.4204 71.7532C10.2114 73.0439 9.04427 74.429 8.01891 75.9007C8.96982 73.3251 9.87045 70.7324 11.0069 68.2225C11.8592 66.3396 13.0709 64.7318 14.3226 63.1025C15.992 60.9308 17.5343 58.6832 19.24 56.5384C19.5257 56.179 19.0223 55.6642 18.7286 56.0274C15.7936 59.6579 12.0141 62.9551 9.96418 67.2119C8.47093 70.3129 7.26039 73.6403 6.24864 76.9881C6.31856 76.454 6.39982 75.92 6.50602 75.3845C7.20861 71.8473 8.47698 68.4383 10.2934 65.3218C13.1922 60.3477 17.3938 56.3098 21.7813 52.6517C30.3949 45.4696 40.5128 39.1992 45.7042 28.8595C46.7806 26.7158 47.64 24.4236 48.2311 22.0626C47.8128 25.9697 46.2122 29.694 44.0745 32.9832C41.514 36.9229 38.0721 40.1017 35.1801 43.77C34.9219 44.0977 35.2738 44.7281 35.6782 44.4156C35.9533 44.2028 36.2281 43.9847 36.5017 43.764C36.1162 44.1786 35.7315 44.5924 35.349 45.0048C35.1185 45.2531 35.4121 45.6654 35.7183 45.4832C38.7856 43.6585 41.2124 41.1131 43.3474 38.2831C45.6298 35.2573 47.0138 32.0705 48.4269 28.5945C48.4957 28.4256 48.3959 28.2797 48.2549 28.2038C49.1204 25.6069 49.5131 22.8736 49.2501 20.047C49.2221 19.7462 48.9719 19.6018 48.7414 19.6158C49.1114 17.3992 49.2376 15.1466 49.0751 12.9194C49.2406 13.4482 49.3918 13.9814 49.515 14.5208C50.0033 16.6539 50.139 18.8539 50.0706 21.0425C49.5955 25.9905 48.3351 30.8909 46.1128 35.3404C43.5964 40.3784 39.9633 44.3948 36.0788 48.3873C35.8184 48.6553 36.1521 49.1073 36.4824 48.9104C39.153 47.3178 41.5008 45.1748 43.4944 42.6797C41.7974 45.1329 39.6213 47.119 37.3305 49.0873C34.4007 51.6044 31.4645 54.1151 28.5317 56.6287C24.4106 60.161 20.0938 63.5787 16.0558 67.2485C17.5952 65.2466 19.0208 63.1376 20.4324 61.1485C23.2038 57.2433 25.8751 53.2987 28.3064 49.1712C28.5971 48.6757 27.8869 48.3031 27.56 48.7332ZM27.772 7.15543C30.2869 4.96564 33.4079 2.93685 36.7984 2.53208C34.7972 5.78389 32.5723 8.80553 30.2411 11.8449C30.1289 11.9912 30.3666 12.1616 30.4917 12.0381C33.245 9.31877 35.4767 5.9721 37.1828 2.49277C37.3597 2.47841 37.5365 2.46405 37.7149 2.45876C38.148 2.44591 38.5725 2.46367 38.9882 2.50638C38.7992 4.08655 38.6707 5.67012 38.2928 7.23631C37.7066 9.6661 36.8003 12.009 35.6767 14.2392C33.6422 18.2775 30.9535 21.9594 28.4066 25.6821C28.2165 25.9599 28.6489 26.294 28.8741 26.0427C32.1535 22.3831 35.0391 18.4064 37.1098 13.9274C38.6201 10.6601 40.1693 6.48308 40.0166 2.67343C41.2687 2.94668 42.4203 3.47277 43.4362 4.2124C43.4241 12.2267 37.7947 18.2692 35.1219 25.5676C35.0512 25.7611 35.355 25.8847 35.4522 25.7067C38.9353 19.3308 44.4835 12.3022 44.025 4.67727C44.8845 5.41312 45.632 6.30847 46.236 7.34063C46.2949 7.44192 46.3698 7.52128 46.4522 7.58629C46.5066 7.91132 46.5618 8.23635 46.6094 8.56024C46.2171 12.5158 44.1788 16.2536 42.3821 19.7231C40.4584 23.4375 38.2255 26.9316 35.9987 30.4661C35.8524 30.6985 36.1994 30.88 36.3566 30.6755C39.1602 27.0348 41.5242 22.9606 43.5484 18.8414C45.0118 15.864 46.3823 12.8582 46.7504 9.61395C47.5747 16.2797 46.8475 22.6684 43.536 28.7892C40.8087 33.8302 36.7546 37.9346 32.4226 41.6188C23.9473 48.8269 13.8392 54.9106 8.28385 64.8981C7.36772 66.5452 6.53663 68.3559 5.84613 70.2569C5.86918 67.0664 5.95838 63.8773 6.14924 60.6973C7.89042 55.2553 10.9748 50.2287 13.7818 45.0849C13.9469 44.7825 13.5297 44.5614 13.332 44.8218C10.6543 48.3484 8.17992 52.3206 6.45802 56.5448C6.6126 54.821 6.80308 53.101 7.0306 51.3859C7.70182 49.9142 8.53632 48.4962 9.22795 47.1753C10.7031 44.3585 12.2371 41.5727 13.7228 38.7619C13.8695 38.4845 13.4889 38.2755 13.3097 38.5204C11.1437 41.4824 9.33415 44.6348 7.71845 47.9263C7.63379 48.0986 7.54762 48.2721 7.46107 48.4459C7.85905 45.9666 8.34395 43.4987 8.9358 41.047C11.9711 28.4691 17.8571 15.7891 27.772 7.15543ZM6.69763 126.083C7.01019 122.984 7.64022 119.928 8.66595 116.98C9.88708 113.47 11.7174 110.308 13.5414 107.091C13.6737 106.858 13.343 106.577 13.1574 106.795C9.18146 111.454 7.01926 117.768 6.33669 123.937C6.13752 122.704 5.95006 121.475 5.77432 120.256C5.45534 118.045 5.2127 115.823 5.04036 113.595C6.14584 109.843 7.60507 106.201 8.71622 102.453C8.78273 102.229 8.45204 102.087 8.33752 102.293C6.6194 105.381 5.64544 108.783 4.94512 112.226C4.81586 110.204 4.74254 108.178 4.73196 106.153C4.72364 104.571 4.75577 102.991 4.82266 101.413C7.83977 92.286 11.2303 82.4236 18.4822 75.875C18.6629 75.7118 18.4221 75.3882 18.2184 75.5326C14.0924 78.4586 11.4835 82.6281 9.40104 87.1672C7.66403 90.953 6.20253 94.8863 4.96175 98.8751C5.09554 96.8497 5.28338 94.8273 5.52375 92.8106C6.01318 88.7031 6.9176 84.6697 7.37831 80.566C9.14934 76.832 12.1116 73.6856 15.244 70.7921C20.7348 65.7194 26.6023 61.0178 32.2828 56.1597C37.7474 51.4857 43.9702 47.1934 47.1472 40.542C49.7221 35.1511 51.5555 29.2276 52.1784 23.2777C52.5132 20.0773 52.3945 16.7948 51.6148 13.6632C51.3567 12.6261 51.0079 11.4156 50.5222 10.2564C50.9482 10.5422 51.3718 10.8275 51.7861 11.1185C52.9312 11.9235 54.0616 12.7482 55.1766 13.5937C58.2028 22.8691 53.904 32.0221 50.1534 40.5764C50.0623 40.7839 50.3499 40.9672 50.4655 40.759C54.8088 32.9345 58.9367 23.0339 55.9347 14.1734C56.5141 14.6217 57.0897 15.0744 57.6578 15.5374C58.9148 16.5613 60.1416 17.632 61.3215 18.7514C62.0593 27.5983 59.7701 36.0026 55.0216 43.4779C54.8916 43.6824 55.2076 43.9378 55.364 43.7421C60.7803 36.9387 63.043 27.8655 61.8831 19.2896C63.9626 21.323 65.867 23.5301 67.4423 25.9811C69.9635 29.9034 71.6367 34.3189 72.4292 38.9105C72.5574 39.6531 72.656 40.4007 72.7323 41.1505C68.7859 48.0933 64.107 54.5251 58.8728 60.5763C58.7043 60.7714 58.9692 61.0446 59.1586 60.8621C64.7963 55.4258 69.366 48.952 72.8023 41.9234C72.9088 43.2848 72.9364 44.6521 72.8858 46.0154C72.8355 47.3699 72.5305 48.7596 72.3793 50.135C69.863 54.2519 65.6985 57.6405 62.5219 60.9785C56.5428 67.2617 50.5638 73.545 44.5848 79.8283C33.4805 91.4976 21.0855 102.863 12.8777 116.876C10.8607 120.319 9.12212 123.939 7.78421 127.701C7.6096 128.192 7.4384 128.685 7.27361 129.182C7.06915 128.153 6.87829 127.119 6.69763 126.083ZM4.40693 170.809C4.96591 168.626 6.27623 166.466 7.19047 164.613C8.41122 162.14 9.73477 159.719 11.1313 157.341C13.9817 152.485 17.3106 147.972 20.5923 143.407C20.7767 143.151 20.3712 142.847 20.1584 143.072C15.9039 147.58 12.403 152.837 9.35947 158.222C7.84052 160.91 6.43534 163.673 5.18133 166.494C4.84194 167.258 4.4844 168.036 4.17336 168.827C3.72587 164.768 3.49269 160.689 3.71454 156.559C3.78408 155.264 3.89141 153.971 4.02861 152.681C7.69955 146.015 12.4548 140.089 17.9641 134.817C18.0797 134.707 17.9104 134.546 17.791 134.645C12.1271 139.317 7.56652 145.153 4.14766 151.622C4.5067 148.658 5.04263 145.714 5.75882 142.815C5.95687 142.014 6.18666 141.22 6.43421 140.431C6.89189 139.913 7.38435 139.418 7.86585 138.922C9.27973 137.467 10.7174 136.033 12.1695 134.615C15.0724 131.782 18.0688 129.047 20.9831 126.226C21.1766 126.038 20.912 125.67 20.6868 125.842C17.0494 128.623 13.7183 131.718 10.4846 134.957C9.49289 135.95 8.2967 137.009 7.19009 138.159C7.54951 137.124 7.91838 136.092 8.271 135.056C16.5479 122.983 28.7857 115.013 41.3303 107.767C47.9772 103.928 55.779 100.546 60.4553 94.2094C62.8919 90.9077 64.5231 87.0292 66.1429 83.2823C67.787 79.4806 69.2897 75.6177 70.6181 71.6939C72.2214 66.9586 73.5593 62.1282 74.5733 57.2319C75.158 54.4087 75.8874 51.316 76.0915 48.2853C76.3832 49.0242 76.675 49.7627 76.9691 50.5008C78.5296 57.8431 78.0742 65.2711 76.1833 72.5594C76.1108 72.8394 76.5231 72.949 76.6138 72.678C78.8055 66.1378 79.0232 59.1095 77.7185 52.3761C80.0954 58.3151 82.5063 64.2409 84.7626 70.2263C84.7002 70.2879 84.6609 70.3752 84.6828 70.486C86.1806 78.1586 81.3982 84.7128 79.2567 91.7172C79.1929 91.9258 79.4979 92.0509 79.6063 91.8646C81.5694 88.4938 83.1866 84.7109 84.4512 81.0196C85.393 78.2704 85.9508 75.4676 85.6576 72.6383C86.288 74.3882 86.8863 76.1464 87.4747 77.9084C86.5189 83.2271 84.2743 87.7923 81.5512 92.4054C81.4556 92.568 81.6884 92.7596 81.8184 92.6114C85.0997 88.8747 86.9902 83.946 87.8621 79.0717C88.3062 80.4088 88.7484 81.7471 89.1974 83.0839C89.1792 83.1073 89.1652 83.1357 89.1603 83.1712C88.6448 86.9544 87.0696 90.3532 84.9153 93.4762C84.8159 93.6205 85.0392 93.7906 85.1575 93.6629C87.6625 90.9625 89.0171 87.6192 89.5137 84.0197C89.5761 84.2034 89.6373 84.387 89.7 84.5707C89.9098 85.1852 90.1672 85.7684 90.4506 86.3372C90.4332 86.3799 90.4162 86.4238 90.4117 86.4767C89.9551 91.7391 87.0204 96.4143 83.7482 100.41C80.9242 103.858 77.8637 107.106 74.6394 110.182C68.0289 116.489 60.7693 122.07 53.4259 127.489C39.2082 137.98 24.2126 148.041 12.7447 161.674C9.46983 165.567 6.47125 169.929 5.40885 174.989C5.32155 175.404 5.24709 175.821 5.17793 176.238C4.89938 174.429 4.63558 172.621 4.40693 170.809ZM3.16615 213.527C3.59511 211.737 4.4383 209.971 5.11292 208.404C6.17192 205.943 7.36243 203.532 8.68749 201.204C11.3973 196.443 14.7179 192.18 18.2536 188.013C18.4637 187.766 18.1338 187.423 17.8926 187.652C13.6208 191.735 10.1448 196.726 7.36621 201.923C6.03397 204.414 4.87936 206.986 3.89784 209.635C3.61098 210.409 3.31052 211.194 3.05919 211.988C2.91973 209.697 2.86946 207.401 2.94959 205.107C2.97831 204.278 3.03009 203.451 3.09623 202.626C5.49653 198.401 8.35642 194.56 11.4809 190.795C11.6271 190.619 11.3954 190.374 11.2254 190.539C7.93879 193.727 5.27959 197.581 3.1824 201.669C3.30258 200.437 3.45905 199.209 3.65898 197.988C5.01315 194.215 6.8095 190.614 9.00118 187.222C10.6932 184.604 12.6147 182.134 14.7508 179.863C16.7796 177.706 19.1055 175.901 21.2291 173.85C21.4082 173.677 21.1792 173.385 20.9649 173.508C15.8657 176.431 11.6441 181.711 8.50986 186.593C7.60922 187.995 6.78758 189.446 6.03926 190.933C6.37449 189.797 6.57896 188.637 6.70821 187.463C14.0259 171.382 31.1709 163.493 45.9113 155.235C54.0518 150.675 61.8661 145.525 68.1116 138.507C74.0839 131.796 78.4793 123.932 81.2746 115.408C83.0048 110.132 84.5683 104.948 88.0235 100.497C89.6592 98.3894 91.49 96.3504 92.6162 94.0234C92.6495 94.0329 92.6824 94.0415 92.713 94.0472C91.2946 100.857 88.4725 106.903 84.7562 112.774C84.5846 113.045 84.9924 113.373 85.2071 113.122C89.7556 107.81 92.518 100.92 93.5679 94.0397C93.693 94.0253 93.8173 94.0098 93.9386 93.997C94.6473 93.9214 94.7369 93.6954 95.1261 94.2509C95.1753 94.3212 95.2172 94.4346 95.2535 94.5729C95.1156 94.5514 94.9527 94.636 94.964 94.8027C95.2826 99.3819 93.9432 103.789 92.7466 108.158C91.575 112.436 90.2613 116.673 89.0915 120.951C89.0027 121.275 89.4649 121.384 89.5836 121.086C91.366 116.61 92.7243 111.995 93.9564 107.341C94.809 104.12 95.746 100.795 95.7029 97.454C95.8151 98.0685 95.9277 98.6831 96.0389 99.2976C96.6761 102.828 97.2449 106.373 97.6111 109.942C97.5329 109.969 97.4675 110.025 97.4493 110.121C94.3842 126.391 82.7761 138.523 71.704 150.003C71.566 150.146 71.7784 150.358 71.922 150.221C83.1314 139.523 95.0997 127.566 97.7778 111.7C98.0998 115.555 98.172 119.445 97.8212 123.293C97.0483 125.443 95.9848 127.435 94.916 129.459C94.7871 129.703 95.1186 129.997 95.3166 129.768C96.1916 128.755 96.8824 127.63 97.4353 126.437C97.2577 127.574 97.0408 128.706 96.7743 129.831C96.2781 131.925 95.6254 133.985 94.7966 135.971C94.3914 136.428 94.0354 136.927 93.7289 137.464C93.6729 137.504 93.6219 137.559 93.58 137.637C85.3926 152.711 70.9545 162.848 57.3104 172.57C53.418 175.343 49.4723 178.064 45.4034 180.574C41.3292 183.086 37.0509 185.222 32.8973 187.594C25.0463 192.078 18.7842 198.203 12.6343 204.747C9.44489 208.142 6.75508 211.742 5.29358 216.224C4.80225 217.731 4.40542 219.438 4.15446 221.176C3.90238 219.738 3.64348 218.312 3.48928 216.926C3.36192 215.796 3.25496 214.662 3.16615 213.527ZM13.9023 260.245C14.7315 256.256 16.8684 252.702 19.5673 249.696C25.374 243.226 33.3111 238.742 40.805 234.523C53.0609 227.623 66.073 221.436 77.0065 212.511C72.9228 216.307 68.5028 219.766 64.102 223.018C63.6655 223.34 64.0495 224.058 64.5386 223.764C72.6636 218.892 80.3222 212.88 86.1228 205.452C85.7592 206.062 85.4074 206.681 85.0729 207.312C84.0249 209.288 83.1076 211.33 82.1567 213.356C82.2036 213.036 82.2221 212.711 82.2066 212.381C82.1741 211.693 81.2394 211.381 80.8728 212.02C79.4245 214.545 78.0058 216.617 75.85 218.625C73.7373 220.593 71.4817 222.408 69.1298 224.08C64.5083 227.368 59.558 230.173 54.9203 233.437C54.3372 233.847 54.8315 234.657 55.4714 234.379C61.2939 231.853 66.8198 228.703 71.9054 224.902C73.8015 223.485 75.6304 221.983 77.341 220.35C70.431 228.401 60.5857 234.004 51.6062 239.321C51.1666 239.582 51.5514 240.201 51.9996 239.994C54.2359 238.965 56.4873 237.906 58.7031 236.775C55.6879 238.467 52.6058 240.049 49.5468 241.631C42.1557 245.454 34.2957 249.325 28.3858 255.317C25.4318 258.312 22.8939 261.678 20.265 264.952C19.6867 265.673 19.1028 266.405 18.5026 267.13C19.6996 263.304 21.7231 259.883 24.1457 256.606C24.414 256.243 23.8584 255.892 23.5557 256.151C19.6648 259.49 17.4463 264.346 16.5766 269.33C15.7762 270.183 14.9341 270.992 14.0297 271.718C14.0199 271.629 14.0097 271.539 13.9998 271.45C14.7024 268.391 15.6949 265.426 16.7324 262.465C16.9856 262.515 17.2694 262.419 17.4119 262.081C18.0211 260.635 18.2543 258.991 18.7211 257.485C19.1924 255.964 19.7925 254.52 20.3462 253.032C20.5019 252.614 19.8583 252.224 19.5764 252.583C17.8662 254.768 16.2301 258.14 16.2176 261.078C15.1004 263.438 14.2977 265.943 13.6888 268.494C13.4344 265.728 13.3392 262.955 13.9023 260.245ZM94.8102 190.483C93.9345 193.019 92.6491 195.339 91.2224 197.598C91.9352 196.241 92.5852 194.844 93.171 193.408C93.7705 192.247 94.3162 191.059 94.8143 189.849C94.8109 190.061 94.809 190.272 94.8102 190.483ZM79.3206 218.83C79.2919 218.877 79.2601 218.923 79.2314 218.971C79.1509 218.871 79.0372 218.797 78.917 218.772C79.3316 218.334 79.7541 217.865 80.1532 217.37C79.8856 217.862 79.6097 218.349 79.3206 218.83ZM89.5844 219.963C87.0333 228.707 83.3279 237.141 78.3909 244.807C78.2064 245.093 78.0178 245.377 77.8296 245.66C77.7574 245.596 77.6505 245.58 77.5598 245.676C73.1088 250.391 68.2431 254.479 63.2411 258.581C62.9958 258.782 63.3118 259.174 63.576 259.015C68.394 256.109 72.6779 252.158 76.3292 247.849C67.7114 260.003 55.7718 269.833 41.6894 274.91C46.1491 271.506 50.6167 267.965 54.4415 263.934C54.683 263.679 54.3561 263.197 54.0484 263.425C49.0139 267.151 44.3712 271.494 39.6315 275.616C36.4775 276.636 33.2272 277.4 29.9312 277.641C31.895 276.629 33.8437 275.588 35.7583 274.487C38.3646 272.988 41.1497 271.459 43.378 269.422C43.5813 269.236 43.3232 268.959 43.101 269.062C40.2804 270.383 37.676 272.295 35.0225 273.92C32.8875 275.227 30.7324 276.497 28.5464 277.714C27.5479 277.74 26.546 277.716 25.5422 277.632C23.1729 277.434 20.7846 276.861 18.6141 275.879C17.2539 275.263 16.0513 274.442 14.8778 273.568C20.0106 269.764 23.5602 263.812 27.7528 259.125C33.7091 252.466 41.6474 248.27 49.4912 244.224C57.2031 240.245 65.0329 236.371 71.7841 230.841C74.8843 228.302 77.7026 225.417 80.0568 222.169C82.7516 218.45 84.5902 214.225 86.6689 210.153C88.6883 206.198 91.3395 202.729 93.7315 199.024C92.792 206.083 91.5788 213.127 89.5844 219.963ZM98.1553 141.835C98.0559 144.314 97.9384 146.792 97.8156 149.271C97.5763 154.103 97.3182 158.933 96.9985 163.761C96.6787 168.588 96.3155 173.413 95.9043 178.233C95.8952 178.338 95.8847 178.444 95.8748 178.549C95.7717 178.439 95.5865 178.413 95.5018 178.587C90.6082 188.648 81.7326 195.36 73.3782 202.385C73.2184 202.52 73.4319 202.801 73.6035 202.677C82.3695 196.365 91.1937 189.023 95.8302 179.032C95.6602 180.772 95.4247 182.546 95.2217 184.328C90.0182 200.524 76.3976 211.827 62.2161 220.194C54.3341 224.844 46.0606 228.781 38.0929 233.279C30.7506 237.423 23.019 241.944 17.4384 248.396C14.6518 251.617 12.4125 255.386 11.5342 259.592C10.6898 263.633 10.9952 267.727 11.8346 271.712C11.798 271.721 11.7613 271.73 11.7258 271.742C10.4071 269.194 9.54882 266.301 9.02651 263.521C8.6788 261.671 8.28688 259.827 7.90591 257.982C10.0851 249.357 14.9254 242.244 21.3285 235.987C21.5042 235.815 21.2646 235.48 21.0579 235.636C14.3113 240.757 9.77672 248.729 7.69426 256.946C7.49282 255.953 7.2978 254.959 7.11753 253.963C7.80273 249.634 10.6811 245.779 13.1404 242.253C16.1942 237.874 19.5295 233.694 22.8735 229.535C23.0326 229.337 22.7711 229.057 22.5878 229.249C18.7071 233.333 15.2947 237.797 12.1321 242.455C10.0322 245.548 7.74415 248.845 6.86355 252.496C6.85788 252.46 6.85108 252.425 6.84541 252.39C6.67004 251.311 6.51509 250.229 6.37789 249.146C8.83943 240.748 13.0161 233.848 19.4086 227.797C19.5582 227.656 19.3534 227.374 19.1833 227.505C12.8898 232.357 8.04273 239.894 6.20593 247.709C5.9648 245.557 5.79284 243.398 5.67492 241.234C5.67795 241.228 5.68286 241.224 5.68512 241.217C9.29673 230.668 16.2478 222.088 25.0444 215.377C25.2342 215.233 25.0667 214.913 24.8513 215.047C15.7422 220.7 9.10852 229.941 5.61294 239.999C5.61105 239.955 5.6084 239.91 5.60613 239.866C5.53735 238.306 5.49804 236.746 5.46856 235.186C7.72299 227.933 11.4363 221.474 16.3174 215.684C17.6757 214.814 19.0881 213.988 20.5348 213.181C28.4096 208.787 35.9231 203.78 43.4914 198.882C59.2077 188.709 74.1704 177.384 85.379 162.187C88.4279 158.054 91.1717 153.675 93.3672 149.026C95.1552 145.24 97.475 140.458 97.2267 136.138C97.3828 136.031 97.548 135.933 97.7128 135.836C98.4006 137.737 98.2358 139.828 98.1553 141.835Z" fill="black"/>
<path d="M39.9871 31.8615C43.1697 27.5515 45.9446 22.825 46.4862 17.3981C46.4998 17.2624 46.2651 17.2292 46.2462 17.3656C45.5001 22.7327 42.4256 27.1565 39.721 31.7062C39.6175 31.8804 39.8722 32.0176 39.9871 31.8615Z" fill="black"/>
<path d="M25.4029 45.749C27.8346 43.4731 29.6279 40.8464 31.0886 37.8572C31.1363 37.7597 30.9964 37.6751 30.9416 37.7715C29.3448 40.5724 27.361 43.1628 25.2449 45.5911C25.1512 45.6988 25.2971 45.8481 25.4029 45.749Z" fill="black"/>
<path d="M8.21966 62.3217C11.4484 57.4708 14.5778 52.556 17.9018 47.7683C18.0072 47.6163 17.7593 47.4213 17.6429 47.5687C14.026 52.1584 10.7058 57.0067 8.04505 62.22C7.98572 62.3357 8.14748 62.4298 8.21966 62.3217Z" fill="black"/>
<path d="M60.8604 42.1688C63.6205 38.6532 65.5208 34.6292 66.7234 30.3362C66.7529 30.2307 66.59 30.1861 66.5593 30.2908C65.3084 34.5612 63.2947 38.4464 60.7436 42.0785C60.6956 42.1472 60.8082 42.2357 60.8604 42.1688Z" fill="black"/>
<path d="M64.1813 46.9972C67.2048 43.9767 69.2355 39.9154 70.6618 35.9319C70.7178 35.7754 70.4755 35.7146 70.4158 35.8642C68.8005 39.9165 66.444 43.2847 63.9307 46.8041C63.8237 46.9538 64.0562 47.1223 64.1813 46.9972Z" fill="black"/>
<path d="M62.9879 59.4717C66.5409 56.746 69.4828 53.1559 72.1786 49.6085C72.3196 49.423 71.9999 49.1731 71.8532 49.3572C69.0512 52.8724 65.8236 55.9016 62.7433 59.1546C62.5929 59.3126 62.7985 59.6168 62.9879 59.4717Z" fill="black"/>
<path d="M34.4683 71.4422C36.9552 68.8541 39.682 66.5664 42.5192 64.3743C42.5857 64.3229 42.4988 64.2099 42.4289 64.2575C39.4639 66.2852 36.8138 68.7173 34.3629 71.3372C34.2979 71.4067 34.4018 71.5114 34.4683 71.4422Z" fill="black"/>
<path d="M50.3358 60.3988C52.7033 58.678 54.6312 56.5234 56.3447 54.1635C56.539 53.8959 56.0983 53.6476 55.9041 53.9061C54.1965 56.1809 52.2014 58.1995 50.1616 60.1735C50.0482 60.2839 50.2013 60.4967 50.3358 60.3988Z" fill="black"/>
<path d="M15.895 98.48C19.685 94.2225 22.6273 89.3217 25.65 84.5128C25.7642 84.331 25.4849 84.1745 25.3654 84.3465C22.1314 88.9937 18.5258 93.388 15.528 98.1966C15.3893 98.4188 15.7166 98.6807 15.895 98.48Z" fill="black"/>
<path d="M9.63779 93.5105C6.89393 97.1436 4.60097 102.765 5.00423 107.395C5.02539 107.638 5.36856 107.708 5.44264 107.455C6.09572 105.223 6.32513 102.899 7.04322 100.671C7.81573 98.2733 8.90269 95.9826 9.96849 93.7036C10.0739 93.4772 9.78519 93.3151 9.63779 93.5105Z" fill="black"/>
<path d="M17.505 103.232C17.3882 103.497 17.7771 103.731 17.8996 103.462C22.5498 93.2475 30.0379 85.0129 38.912 78.287C39.1656 78.0947 38.9418 77.6691 38.6546 77.8464C36.5956 79.1178 34.656 80.5566 32.8241 82.1198C34.4746 80.3404 36.1523 78.5868 37.8711 76.8735C40.5213 74.2321 43.3626 71.771 45.9251 69.0441C46.0902 68.8687 45.8654 68.5343 45.6545 68.6934C39.7295 73.1656 34.6299 79.0853 29.8512 84.7294C29.8006 84.7895 29.7908 84.8561 29.8032 84.9173C24.5891 90.1537 20.4605 96.4982 17.505 103.232Z" fill="black"/>
<path d="M68.9871 96.8613C72.5964 91.1793 75.8036 84.9758 78.1438 78.6581C80.3684 72.6538 82.3802 65.5088 80.3163 59.2017C80.2505 59.0006 79.9497 59.0819 79.9984 59.2894C81.5442 65.8489 79.3986 72.9278 77.0384 79.0482C74.6845 85.1523 71.3806 90.7349 68.5645 96.6145C68.43 96.8961 68.8162 97.13 68.9871 96.8613Z" fill="black"/>
<path d="M55.4103 121.924C62.5326 116.462 69.252 110.337 75.9627 104.381C76.1956 104.174 75.8581 103.849 75.6245 104.043C68.7312 109.757 61.6641 115.451 55.1979 121.649C55.0581 121.782 55.2493 122.047 55.4103 121.924Z" fill="black"/>
<path d="M51.5568 121.296C53.8044 119.618 55.9126 117.763 57.9153 115.801C57.9935 115.724 57.8726 115.603 57.7951 115.681C55.8064 117.657 53.6975 119.483 51.5054 121.23C51.468 121.259 51.5179 121.325 51.5568 121.296Z" fill="black"/>
<path d="M30.6768 132.913C35.802 127.386 41.4522 122.562 47.1818 117.688C47.2956 117.592 47.1448 117.393 47.0208 117.48C40.9023 121.775 35.4305 127.13 30.3759 132.613C30.1911 132.813 30.4904 133.114 30.6768 132.913Z" fill="black"/>
<path d="M35.3702 118.951C39.6357 115.283 44.2703 112.306 48.9088 109.159C49.1413 109.001 48.941 108.657 48.6889 108.782C43.6883 111.272 39.1337 114.861 34.9265 118.507C34.6207 118.772 35.0656 119.213 35.3702 118.951Z" fill="black"/>
<path d="M14.7496 158.953C17.3884 154.813 20.4603 150.988 23.926 147.51C27.2799 144.145 31.0661 141.432 34.8085 138.537C35.025 138.369 34.7491 138.049 34.525 138.169C26.1472 142.676 19.2399 150.704 14.3361 158.711C14.1751 158.975 14.5848 159.212 14.7496 158.953Z" fill="black"/>
<path d="M18.1068 138.477C13.299 142.912 9.57329 148.817 6.8351 154.709C6.7444 154.904 7.02634 155.077 7.12877 154.88C10.2135 148.951 14.1222 143.858 18.34 138.71C18.4723 138.549 18.2656 138.331 18.1068 138.477Z" fill="black"/>
<path d="M79.7213 135.323C82.0476 132.325 84.0824 129.105 86.327 126.045C86.426 125.91 86.1985 125.732 86.0934 125.865C83.7426 128.831 81.3075 131.79 79.3627 135.046C79.2334 135.262 79.5588 135.532 79.7213 135.323Z" fill="black"/>
<path d="M80.9022 147.863C85.391 143.46 89.0631 138.177 92.5647 132.982C92.7276 132.74 92.3455 132.529 92.1792 132.757C88.4701 137.838 84.292 142.542 80.5016 147.554C80.3232 147.79 80.7015 148.06 80.9022 147.863Z" fill="black"/>
<path d="M66.2205 162.945C69.2112 160.851 71.839 158.299 74.2661 155.583C74.3342 155.507 74.2242 155.396 74.1535 155.471C71.6504 158.118 68.9031 160.47 66.1045 162.794C66.0217 162.863 66.1317 163.007 66.2205 162.945Z" fill="black"/>
<path d="M56.5311 164.502C50.286 168.651 44.4721 173.479 38.3521 177.815C38.2641 177.878 38.3461 178.024 38.4379 177.962C44.6475 173.796 51.1031 169.709 56.7435 164.777C56.8924 164.647 56.6974 164.391 56.5311 164.502Z" fill="black"/>
<path d="M29.4826 176.797C35.1113 172.318 40.8684 167.989 46.7114 163.793C52.3847 159.72 58.298 155.956 63.9089 151.803C64.113 151.652 63.9372 151.324 63.7052 151.454C57.451 154.975 51.5373 159.32 45.756 163.559C40.0986 167.707 34.5874 172.029 29.167 176.481C28.9436 176.665 29.2611 176.973 29.4826 176.797Z" fill="black"/>
<path d="M25.4396 189.392C28.6072 186.364 32.0876 183.856 35.545 181.187C35.7022 181.066 35.5677 180.805 35.384 180.911C31.6364 183.086 28.2542 186.107 25.1463 189.099C24.954 189.284 25.2469 189.576 25.4396 189.392Z" fill="black"/>
<path d="M23.7825 234.445C27.0706 230.679 30.771 227.449 34.5636 224.212C34.6955 224.099 34.5213 223.871 34.3769 223.97C30.2797 226.788 26.7274 230.4 23.5119 234.174C23.3535 234.36 23.62 234.631 23.7825 234.445Z" fill="black"/>
<path d="M24.3451 223.659C26.6218 221.228 29.0425 218.871 31.165 216.304C31.2554 216.195 31.1133 216.046 31.0071 216.146C28.5954 218.442 26.4143 221.023 24.1493 223.463C24.0287 223.593 24.223 223.789 24.3451 223.659Z" fill="black"/>
<path d="M36.8468 228.224C27.3624 234.559 19.056 242.705 12.0875 251.705C12.0259 251.785 12.1355 251.898 12.2001 251.817C19.3772 242.87 27.7536 235.23 36.97 228.435C37.0944 228.344 36.9799 228.135 36.8468 228.224Z" fill="black"/>
<path d="M97.603 139.125C98.8192 146.366 94.0439 153.168 90.1488 158.835C86.2334 164.533 81.7041 169.774 76.8959 174.733C76.7618 174.871 76.9651 175.072 77.1064 174.943C82.5934 169.95 87.3434 164.216 91.4614 158.052C95.1301 152.561 99.3717 145.987 97.736 139.088C97.7156 139 97.5886 139.039 97.603 139.125Z" fill="black"/>
<path d="M95.0921 157.287C93.3898 165.174 89.4819 172.509 83.8771 178.313C83.8056 178.387 83.9164 178.498 83.9897 178.426C89.8791 172.681 93.7311 165.408 95.1639 157.307C95.1722 157.26 95.1027 157.24 95.0921 157.287Z" fill="black"/>
<path d="M93.2585 174.75C90.6178 179.479 87.3195 183.752 83.6848 187.757C83.5238 187.934 83.7721 188.184 83.9479 188.02C87.9586 184.278 91.1261 179.837 93.6897 175.002C93.8401 174.718 93.4157 174.468 93.2585 174.75Z" fill="black"/>
<path d="M84.6633 172.426C81.3333 177.815 77.3347 182.67 73.0004 187.277C72.864 187.422 73.0723 187.629 73.2185 187.495C77.9148 183.197 81.7929 178.106 85.0674 172.662C85.2227 172.403 84.8213 172.17 84.6633 172.426Z" fill="black"/>
<path d="M76.9898 205.41C83.8536 201.887 89.4289 195.868 93.2987 189.285C93.4321 189.058 93.0954 188.869 92.9499 189.081C88.5563 195.495 82.9903 200.454 76.743 204.988C76.4913 205.17 76.7052 205.556 76.9898 205.41Z" fill="black"/>
<path d="M56.5797 215.021C52.3475 217.58 48.7828 221.35 45.7373 225.201C45.5703 225.412 45.8624 225.714 46.0378 225.501C49.2367 221.62 52.9681 218.524 56.805 215.314C56.9686 215.177 56.7577 214.914 56.5797 215.021Z" fill="black"/>
<path d="M52.7041 209.505C52.7094 209.501 52.7019 209.493 52.6966 209.497C51.7464 210.246 50.7967 210.996 49.8465 211.745C49.8412 211.749 49.8488 211.757 49.8541 211.752C50.8042 211.003 51.7544 210.254 52.7041 209.505Z" fill="black"/>
<path d="M63.9635 191.814C60.7722 193.364 57.9387 195.555 55.4474 198.067C55.3653 198.15 55.4927 198.277 55.5751 198.195C58.0986 195.683 60.9498 193.693 64.044 191.951C64.1343 191.9 64.055 191.769 63.9635 191.814Z" fill="black"/>
<path d="M32.1216 260.247C26.2779 263.726 20.763 268.456 16.6918 273.926C16.4986 274.186 16.9159 274.493 17.1343 274.268C21.9331 269.306 26.7983 264.765 32.3472 260.633C32.5714 260.466 32.3752 260.096 32.1216 260.247Z" fill="black"/>
<path d="M38.8659 260.281C33.2912 265.265 27.9396 270.536 22.6057 275.775C22.3997 275.977 22.7107 276.285 22.9213 276.091C28.4143 271.018 33.9394 265.93 39.189 260.604C39.3972 260.393 39.0843 260.086 38.8659 260.281Z" fill="black"/>
<path d="M51.4517 246.753C48.3662 248.925 45.4114 251.303 42.4072 253.586C42.3267 253.647 42.4056 253.786 42.4877 253.724C45.5044 251.445 48.5975 249.24 51.5292 246.853C51.5847 246.808 51.511 246.711 51.4517 246.753Z" fill="black"/>
<path d="M55.4706 251.346C52.9838 252.819 51.0661 255.041 49.6235 257.523C49.4893 257.754 49.8446 257.962 49.9814 257.732C51.4478 255.277 53.4135 253.333 55.6384 251.563C55.7624 251.464 55.6025 251.267 55.4706 251.346Z" fill="black"/>
<path d="M76.9429 230.851C74.3865 232.825 71.9692 234.974 69.5164 237.074C69.3391 237.226 69.5953 237.478 69.7718 237.33C72.2304 235.257 74.7335 233.23 77.0846 231.035C77.1795 230.946 77.0495 230.769 76.9429 230.851Z" fill="black"/>
<path d="M91.7139 206.618C88.6673 214.134 85.058 221.392 81.2993 228.571C81.169 228.82 81.522 229.025 81.6758 228.791C86.1638 221.946 89.5234 214.477 92.093 206.723C92.1742 206.477 91.8065 206.39 91.7139 206.618Z" fill="black"/>
<path d="M87.0608 225.222C82.6517 233.882 76.6738 241.314 69.9336 248.257C69.666 248.533 70.061 248.905 70.3471 248.671C77.8519 242.538 83.5199 234.249 87.4739 225.463C87.5979 225.188 87.2025 224.944 87.0608 225.222Z" fill="black"/>
</svg>
