<svg width="103" height="86" viewBox="0 0 103 86" fill="none" xmlns="http://www.w3.org/2000/svg">
    <path d="M91.8217 27.3037C87.9382 21.0425 81.7787 16.5018 74.8139 14.2311C70.9318 12.9655 66.8485 12.2983 62.7981 11.8528C58.6226 11.3937 54.392 11.2476 50.2137 11.7585C45.9605 12.2787 41.9152 13.5527 37.9782 15.215C34.4142 16.7197 30.8737 18.3407 27.4598 20.1633C21.2319 23.4884 15.1885 27.9319 12.1057 34.4834C8.87517 41.3489 9.08267 49.5691 10.1434 56.9198C10.748 61.108 12.0655 65.0091 14.9595 68.1765C17.4875 70.9435 20.7705 73.0465 23.9387 75.006C27.0014 76.9004 30.3692 78.61 33.9882 79.0562C37.9184 79.5409 41.7261 78.3991 44.9468 76.1342C50.4948 72.2325 54.2821 65.5804 54.2504 58.7393C55.9615 61.4444 58.4291 63.6783 61.3433 64.9889C68.1384 68.0454 76.1044 66.2137 82.5058 63.042C88.9224 59.8629 93.4075 54.124 95.1083 47.176C96.7745 40.3699 95.5032 33.239 91.8217 27.3037ZM91.4133 51.1292C88.5674 57.1303 83.366 60.8307 77.171 62.9189C71.3562 64.8793 64.401 65.3056 59.3505 61.2444C54.8454 57.6218 52.5609 51.3591 54.654 45.8165C56.6626 40.4978 62.0462 36.4908 67.8586 37.1833C73.5322 37.8592 79.2676 42.7365 78.8056 48.8626C78.3642 54.7154 69.8704 59.3556 65.6667 54.1482C64.0129 52.0999 63.3205 49.5374 64.848 47.1905C65.1243 46.7661 64.4065 46.2717 64.1082 46.6884C62.5342 48.8864 62.6289 51.736 63.7315 54.1246C64.9914 56.8535 68.0031 58.288 70.9205 58.1913C71.7195 58.1649 72.5114 58.0333 73.2795 57.8129C73.2816 57.8134 73.2834 57.8145 73.2858 57.8149C76.0514 58.4897 78.7448 57.4362 80.9938 55.8368C83.2299 54.2465 85.6671 52.2566 87.2228 49.9757C88.5704 47.9998 89.2106 45.6703 89.3987 43.3049C89.5883 40.921 89.5481 37.9241 88.5282 35.7096C88.3159 35.2485 87.7011 35.3605 87.6666 35.8689C87.5206 38.0069 88.0459 40.2026 87.9926 42.3587C87.938 44.5643 87.5182 46.7893 86.3994 48.7164C85.1515 50.8659 83.0258 52.6164 81.133 54.1839C79.3336 55.674 77.2488 56.9296 74.9304 57.1824C76.6304 56.3671 78.1258 55.1079 79.1868 53.5711C81.3169 50.486 81.3386 46.6779 79.7922 43.3274C77.0867 37.4661 70.2205 33.997 63.8943 35.2137C57.3698 36.4687 52.2675 42.4876 51.7415 49.0528C51.725 49.2594 51.7128 49.466 51.7054 49.6723C49.7223 46.356 46.6772 43.7058 42.9149 42.5259C36.8078 40.6109 29.2957 42.9567 26.2893 48.8354C23.6189 54.0574 24.7445 61.0367 29.0474 65.0549C31.4675 67.315 35.0344 68.5903 38.3145 67.7899C41.5276 67.0058 43.7671 63.9447 43.6991 60.6606C43.631 57.3745 41.0756 54.6064 37.9296 53.9297C36.5495 53.6327 36.0913 55.774 37.4696 56.0704C40.4653 56.7147 42.3292 59.8501 41.1287 62.7518C39.8333 65.8826 36.2321 66.413 33.363 65.2522C28.4304 63.2566 26.2208 57.3686 27.3242 52.3902C28.5831 46.7104 34.2916 43.5204 39.8795 44.1259C45.9614 44.7849 50.4759 49.8189 51.7322 55.6213C53.0223 61.5798 50.524 67.8367 46.3499 72.0853C43.8689 74.6105 40.587 76.6389 36.9974 76.9503C33.8198 77.2259 30.7482 76.1947 27.9511 74.7695C25.0583 73.2955 22.2699 71.4655 19.6953 69.4914C16.8564 67.3146 14.5416 64.7477 13.3713 61.3118C12.2124 57.9101 11.9411 54.2098 11.7654 50.6415C11.604 47.3642 11.6809 44.0614 12.3293 40.8357C13.607 34.4801 17.3877 29.4793 22.5805 25.7309C23.8426 24.8199 25.1559 23.9689 26.5044 23.1662C25.1924 24.4138 23.9757 25.7882 22.7851 27.1312C21.2321 28.883 19.7695 30.7143 18.4671 32.6612C16.0035 36.3431 14.1414 40.428 13.4981 44.8343C13.4671 45.046 13.788 45.1184 13.8255 44.9047C14.5865 40.5734 16.4245 36.5323 18.8827 32.9062C20.1783 30.995 21.6327 29.1929 23.1603 27.4631C24.7037 25.7157 26.4335 24.1258 27.931 22.3418C31.8363 20.1533 35.9958 18.3415 40.0949 16.7053C43.5899 15.3103 47.1808 14.2775 50.9301 13.8756C54.4449 13.4989 58.0041 13.5604 61.5187 13.9071C68.3144 14.5775 75.3111 15.8572 81.154 19.5809C86.4145 22.9334 90.6452 28.0763 92.5675 34.0388C94.368 39.6244 93.9264 45.8296 91.4133 51.1292Z"
          fill="#DEDEDE"/>
    <path d="M26.3688 32.3871C28.8897 29.3433 31.9525 27.1577 35.3731 25.2406C35.6578 25.081 35.4253 24.6422 35.1279 24.7353C29.1214 26.6161 24.5638 32.2419 21.7422 37.6161C20.1843 40.583 18.8615 43.8388 18.4551 47.1862C18.0628 50.4176 18.6944 53.5519 20.2266 56.4167C22.1354 59.9854 25.0332 62.6582 28.2295 65.0496C28.356 65.1443 28.52 64.9663 28.3945 64.8632C25.1899 62.2275 22.0896 58.8896 20.4507 55.0297C18.6959 50.8962 19.072 46.5877 20.6103 42.4552C21.9618 38.8252 23.8963 35.3724 26.3688 32.3871Z"
          fill="#DEDEDE"/>
    <path d="M25.0705 40.8107C24.9973 40.9658 25.2262 41.0815 25.308 40.9308C28.3222 35.3908 33.5929 31.4641 39.4075 29.2221C45.7496 26.7768 52.6624 26.5283 59.3769 26.9453C63.469 27.1995 67.5355 27.9723 71.6331 27.9965C72.0208 27.9988 72.0367 27.4346 71.6867 27.343C68.0745 26.3994 64.2897 26.1045 60.57 25.8367C56.7668 25.5628 52.9384 25.5126 49.1458 25.9632C42.7829 26.7189 36.3458 28.8219 31.329 32.9192C28.6795 35.0831 26.5331 37.7129 25.0705 40.8107Z"
          fill="#DEDEDE"/>
    <path d="M74.5597 23.9215C68.1285 20.1604 60.6264 18.6384 53.2567 18.2667C48.7519 18.0393 44.3314 18.417 39.8507 18.8214C39.6752 18.8373 39.6867 19.1064 39.864 19.0959C53.8562 18.2705 69.6044 19.5096 80.2097 29.757C82.8963 32.3529 85.2982 35.6461 86.9193 39.0155C87.0584 39.305 87.5089 39.1822 87.4087 38.8548C86.3993 35.559 84.8458 32.8665 82.5317 30.3076C80.2382 27.7714 77.5075 25.6457 74.5597 23.9215Z"
          fill="#DEDEDE"/>
    <path d="M70.9406 30.7309C67.1263 30.0223 63.1051 30.0289 59.251 30.3325C57.2345 30.4912 55.2287 30.765 53.2416 31.1425C51.2974 31.5119 49.2422 31.8891 47.4746 32.8088C47.1058 33.0007 47.3294 33.6246 47.7277 33.5797C49.4386 33.3861 51.1162 32.8365 52.7973 32.4746C54.6691 32.0716 56.5634 31.7763 58.4674 31.5777C62.1442 31.1938 65.9096 31.1452 69.5881 31.5427C73.2125 31.9343 76.2747 33.3023 78.3513 36.4029C80.4725 39.5705 81.1711 43.5011 81.5371 47.2255C81.5592 47.45 81.9075 47.4349 81.8889 47.2085C81.5673 43.3238 81.1012 39.3636 78.9357 36.0149C77.0611 33.1164 74.3164 31.3581 70.9406 30.7309Z"
          fill="#DEDEDE"/>
    <path d="M58.2389 34.5307C55.1582 34.3283 51.9228 34.9588 48.9128 35.5748C45.7255 36.2269 42.6203 37.1864 39.5919 38.3694C39.3467 38.4651 39.4681 38.8486 39.7205 38.761C42.6535 37.741 45.655 36.9192 48.6975 36.2978C51.8691 35.6501 55.0814 35.4961 58.2593 34.951C58.5266 34.9052 58.5113 34.5487 58.2389 34.5307Z"
          fill="#DEDEDE"/>
    <path d="M37.9423 35.7423C34.8187 37.2064 31.9959 39.4617 29.4183 41.7292C28.0769 42.9094 26.8014 44.1583 25.5896 45.4711C24.7046 46.4299 23.3103 47.572 23.2152 48.9608C23.1999 49.1837 23.5358 49.1874 23.5886 48.9915C23.9803 47.5373 25.7157 46.1687 26.7507 45.1238C27.9391 43.9238 29.1788 42.7707 30.4656 41.6767C32.8858 39.6189 35.5489 37.9447 38.1023 36.0711C38.2598 35.9556 38.1404 35.6492 37.9423 35.7423Z"
          fill="#DEDEDE"/>
    <path d="M21.2469 63.7008C19.6871 62.0869 18.4201 60.1685 17.5913 58.0809C16.4644 55.2425 16.1195 52.1842 15.5698 49.2006C15.5074 48.8626 15.017 48.8622 15.0209 49.2271C15.0797 54.7798 16.5893 60.214 20.4948 64.2996C23.8483 67.8076 28.2112 69.7758 33.0415 69.9117C33.2195 69.9166 33.2466 69.6181 33.0671 69.5977C28.6752 69.0952 24.3074 66.867 21.2469 63.7008Z"
          fill="#DEDEDE"/>
</svg>
