<svg width="88" height="83" viewBox="0 0 88 83" fill="none" xmlns="http://www.w3.org/2000/svg">
<path d="M85.7051 32.6519C85.5779 31.6044 85.3449 30.5657 84.9728 29.5437C84.3007 27.698 83.3146 26.0092 82.1458 24.4473C80.5468 20.5916 79.1981 16.3727 75.5665 14.0857C75.2991 13.79 75.0228 13.5013 74.7366 13.2206C73.4679 11.2378 72.0091 9.37994 70.3293 7.71381C66.4778 3.89407 61.5399 1.1289 56.1283 0.338047C50.5853 -0.472072 44.7256 0.289892 39.269 1.39885C29.1295 3.45955 19.3286 7.85884 11.574 14.7548C7.70935 18.1915 3.96818 22.4331 1.89886 27.2091C0.775288 29.8023 0.465161 32.3604 0.769599 35.1253C0.572141 36.2702 0.418788 37.4194 0.289331 38.5527C-0.0563625 41.5779 -0.0939165 44.6292 0.185483 47.6572C0.425619 54.6936 2.02775 61.6431 5.68356 67.7258C8.30315 72.0843 11.8637 75.9315 16.1969 78.6414C21.3354 81.855 27.3026 82.962 33.3026 82.9988C45.4192 83.073 57.5728 79.6878 67.9402 73.4572C77.9141 67.4632 86.8003 58.1304 87.9033 46.0749C88.3287 41.4219 87.3058 36.9489 85.7051 32.6519ZM82.7495 40.7743C81.6632 46.6987 79.9191 52.4094 76.2112 57.2588C69.414 66.1492 58.421 72.0225 47.8032 75.0508C36.3902 78.3058 22.9392 77.6733 13.4968 69.767C5.98345 63.4758 2.41186 54.0371 2.15949 44.4876C3.35647 49.6494 5.59906 54.6398 8.29689 59.1824C8.38082 59.3238 8.47841 59.4374 8.58511 59.528C13.616 67.817 22.826 72.8088 32.4243 74.1379C43.5192 75.6743 55.1735 72.6137 64.1074 65.8959C67.6443 63.2364 70.7561 60.0243 73.3253 56.4286C75.2459 54.2351 76.8483 51.769 78.0327 49.0404C80.6173 43.0866 82.0115 36.1122 81.5947 29.5547C82.2206 30.9937 82.8301 32.4338 83.3729 33.8934C83.5231 36.1838 83.1649 38.5088 82.7495 40.7743ZM5.38767 27.8124C6.88681 25.226 9.01418 23.0772 11.1558 21.0151C14.4818 17.8123 18.0477 14.9876 22.0939 12.8966C18.04 15.4859 14.4505 18.7785 11.6969 22.409C10.9267 23.4245 10.2524 24.4884 9.65093 25.5871C6.79747 30.2538 5.19163 35.6675 5.02234 41.127C5.00698 41.6252 5.00698 42.1237 5.01495 42.6223C4.95406 43.3367 4.91223 44.0505 4.89118 44.7629C4.8613 44.6487 4.82972 44.5351 4.8007 44.4207C4.21402 42.0946 4.05553 39.7407 3.69704 37.3783C3.49901 36.0748 3.3101 34.8066 3.26628 33.5444C3.72151 31.5401 4.36538 29.576 5.38767 27.8124ZM72.2823 14.3347C72.5224 14.6978 72.758 15.0644 72.9836 15.4366C75.5193 19.6203 77.3479 24.3895 78.2026 29.2043C79.1006 34.2639 78.2584 39.492 76.6463 44.3249C75.2237 48.5888 73.0693 52.6114 70.3273 56.1847C67.98 58.5292 65.2151 60.4653 62.2663 62.0065C56.7836 64.8723 50.6536 66.3112 44.5381 67.0423C38.6015 67.7521 32.3438 68.2617 26.3694 67.7666C23.6061 67.5377 20.8044 66.9264 18.3926 65.5167C15.8771 64.0463 14.0141 61.7329 12.4674 59.3142C9.41905 54.5472 7.61859 48.9968 7.38472 43.3469C7.4604 42.2917 7.58018 41.2372 7.73894 40.1888C8.50146 35.1494 9.69219 29.9411 12.4407 25.5769C15.433 21.1978 19.5637 17.908 24.3681 15.5861C29.6781 13.0201 35.6172 11.318 41.5497 11.3197C47.7859 11.3217 53.1835 13.5688 57.8369 17.6451C59.9944 19.535 62.1576 21.5521 63.9939 23.7573C65.3528 25.3888 66.2829 27.2366 66.8607 29.2177C67.1874 30.7937 67.335 32.4293 67.3268 34.0999C67.3145 36.5796 67.1194 39.1878 66.6946 41.7521C66.1827 43.5891 65.4683 45.3708 64.5689 47.0522C62.0042 51.846 58.1183 55.5907 53.2694 58.0619C50.3665 59.5413 47.2302 60.6995 44.0899 61.5697C41.0618 62.409 37.8535 62.8747 34.7451 62.1898C29.2348 60.9757 24.8833 56.8427 22.5301 51.8492C20.0209 46.5248 19.1881 39.5654 21.0662 33.9282C22.7861 28.7661 27.2266 25.0028 31.8507 22.4152C36.9925 19.5382 43.2873 17.6732 49.1493 19.245C51.016 19.7455 52.7465 20.6162 54.2633 21.7643C54.9504 22.3215 55.5974 22.9293 56.1949 23.5873C59.4364 27.1587 61.0218 32.3482 59.942 37.0835C59.0828 40.8525 56.6669 44.1196 53.5525 46.3789C51.9874 47.406 50.2453 48.1532 48.4303 48.7087C47.0051 49.1449 45.5305 49.527 44.0376 49.8035C38.1693 50.247 32.1822 47.9869 29.1523 42.5376C26.9714 38.615 27.0218 33.7475 29.8935 30.1796C33.0272 26.2859 37.9773 25.837 42.4978 27.4181C46.8634 28.9452 49.7841 33.0935 47.5557 37.6197C45.4639 41.8691 39.7444 42.9509 35.822 40.6112C33.9066 39.4685 32.2544 37.0871 33.4708 34.8497C34.1081 33.6773 35.3921 33.3172 36.6409 33.2258C37.3878 33.1711 39.0496 33.0708 39.8711 33.6135C39.926 33.7031 39.9815 33.792 40.0267 33.886C40.1761 34.1951 40.2637 34.5344 40.2893 34.8746C40.2839 34.8942 40.2805 34.9126 40.2745 34.9324C40.2202 35.1103 40.2284 35.2672 40.2785 35.3989C40.1766 36.2498 39.6605 37.0093 38.6983 37.192C37.7059 37.38 38.1471 38.815 39.1097 38.6771C41.6487 38.3134 42.5697 35.3196 41.6783 33.1926C40.8009 31.0988 38.4869 29.7015 36.2218 29.7567C30.8429 29.8876 29.1184 36.826 31.814 40.6423C35.6223 46.0338 43.044 45.1861 48.1074 42.2628C49.3206 41.5626 50.5668 40.7307 51.3006 39.5056C52.1163 38.144 52.2042 36.5102 52.0443 34.9701C51.7475 32.1157 50.8587 29.2066 49.1351 26.8768C45.3433 21.7507 38.4798 21.5099 32.9825 23.8015C30.3359 24.9048 27.8367 26.5497 26.1623 28.9092C24.3368 31.4812 23.8935 34.7197 24.2688 37.7888C24.9533 43.3851 28.2313 49.0375 33.6085 51.2934C36.1231 52.3483 38.8422 52.5091 41.5247 52.2661C43.9471 52.4414 46.4133 52.1882 48.7501 51.4713C58.1672 48.5823 64.8429 39.0997 61.9895 29.2709C61.9357 29.0859 61.8725 28.9072 61.8136 28.7253C61.8034 28.6936 61.7934 28.6622 61.7829 28.6305C61.6938 28.3605 61.5988 28.0943 61.4981 27.8317C61.4657 27.7473 61.4335 27.6628 61.3999 27.579C61.279 27.2771 61.1504 26.9805 61.015 26.6884C61.013 26.6842 61.0113 26.6799 61.0093 26.676C56.6481 17.2959 44.8869 13.096 35.0994 16.5339C30.0906 18.2932 24.7801 21.5589 21.4896 25.7698C18.0133 30.2187 16.921 36.3612 16.927 41.879C16.9327 47.4201 19.0805 52.4548 22.5212 56.7444C25.7537 60.7746 30.2116 64.717 35.2243 66.3047C40.7724 68.062 46.8336 66.5123 51.9965 64.2601C56.668 62.2224 60.9877 59.1816 64.1012 55.1253C66.9524 51.4109 68.2515 47.0638 69.0339 42.56C69.6024 40.5695 69.9592 38.5187 70.077 36.4481C70.1976 34.329 70.0795 32.1352 69.6439 30.0264C69.3426 27.8113 68.7474 25.6466 67.7186 23.6097C65.1886 18.5997 60.1881 15.1794 55.5789 12.225C52.7579 10.417 49.8014 8.96412 46.672 8.08687C51.3119 8.0492 56.0199 8.29081 60.5455 9.16466C64.8159 9.9898 69.008 11.5177 72.2823 14.3347ZM59.9466 65.6826C59.9193 65.6996 59.8925 65.7178 59.8652 65.7348C51.5794 70.9113 41.3534 73.1043 31.6797 71.469C29.8312 71.1566 28.0077 70.6989 26.2382 70.1021C29.2849 70.3677 32.3583 70.2357 35.4083 70.0981C39.1014 69.9312 42.7897 69.6624 46.4523 69.1517C51.0607 68.5084 55.6426 67.4363 59.9466 65.6826ZM57.3207 58.3533C53.2128 61.4955 48.164 63.5826 43.3448 64.372C42.0365 64.5864 40.709 64.6777 39.3933 64.6094C42.0767 64.4426 44.7853 63.8049 47.4416 62.8982C50.9216 61.7108 54.2897 60.2826 57.3207 58.3533ZM41.927 24.6433C43.2105 24.8881 44.4291 25.3682 45.512 26.1333C44.4106 25.5013 43.1963 24.9971 41.927 24.6433ZM48.2163 2.81004C53.3761 2.43699 58.3979 2.88199 62.9748 5.44859C64.5206 6.31536 65.9508 7.34813 67.2656 8.50977C63.4846 7.02351 59.3545 6.36267 55.3166 6.03919C44.2552 5.15316 32.2135 5.65424 22.0566 10.4912C22.1616 10.432 22.2643 10.3694 22.3699 10.311C30.2571 5.92985 39.2246 3.46012 48.2163 2.81004ZM69.1213 69.6842C59.8228 75.9933 48.8278 79.8113 37.6029 80.6203C31.7696 81.0406 25.6222 80.863 20.2001 78.4499C15.7138 76.4533 11.883 73.1686 8.96523 69.2545C7.94863 67.8909 7.05695 66.4758 6.27252 65.0207C6.84811 65.8665 7.45784 66.6908 8.11054 67.4847C12.2702 72.544 18.0349 76.053 24.3405 77.7934C37.7975 81.5074 52.3075 77.2574 64.0243 70.417C69.2646 67.3575 74.1152 63.5217 77.8148 58.6924C81.9213 53.332 83.9226 47.104 85.1597 40.5678C85.2462 41.1692 85.3159 41.7762 85.3558 42.3931C86.1049 53.9393 78.1938 63.5285 69.1213 69.6842Z" fill="#DEDEDE"/>
</svg>
