<svg width="112" height="124" viewBox="0 0 112 124" fill="none" xmlns="http://www.w3.org/2000/svg">
<path d="M104.512 36.2537C103.011 34.3034 101.123 32.6943 98.9978 31.458C97.1494 30.3827 94.6606 29.0969 92.4656 29.6677C91.4899 26.1838 89.8124 22.8668 87.8131 20.1877C85.6898 17.3425 82.9554 14.631 79.5874 13.3419C76.1054 12.0092 71.9288 12.0902 68.3297 12.8986C68.1793 12.9325 68.0592 12.9983 67.9619 13.0827C64.9443 9.94091 61.4821 7.11489 57.5128 5.27401C49.5583 1.58526 39.7883 1.6917 32.8287 7.44657C29.8033 9.94825 26.9618 13.7389 26.4331 17.7596C24.7362 18.5416 23.1208 19.5087 21.6292 20.6581C16.19 24.8491 12.6583 31.4005 10.9221 37.9698C9.68109 38.663 8.51113 39.5 7.44492 40.4794C-0.391135 47.6771 0.716916 61.3844 9.99248 66.8572C11.6244 67.8202 13.6805 68.5774 15.8324 68.9613C16.9122 80.3417 18.8773 91.6575 21.1052 102.868C22.0043 107.391 22.6125 112.819 26.3875 115.979C30.0202 119.02 35.5125 120.222 40.0656 121.022C50.1993 122.802 60.7051 121.656 70.4905 118.637C75.1323 117.205 80.0283 115.487 84.1178 112.811C85.9587 111.607 87.6093 110.11 88.8026 108.25C90.0882 106.246 90.6732 103.888 91.1935 101.593C93.9735 89.3338 95.7624 76.8208 96.5739 64.2758C97.2562 63.8798 97.8877 63.4502 98.4461 63.0063C102.283 59.9548 105.431 55.0973 107.016 50.4934C108.679 45.6652 107.609 40.2783 104.512 36.2537ZM23.7387 104.233C21.1512 92.5788 19.0762 80.8343 16.8407 69.1127C18.1315 69.2694 19.4374 69.2858 20.6912 69.1254C21.1698 71.105 22.2126 72.7924 23.5896 74.2193C23.3412 76.8529 23.8563 79.656 24.1015 82.2718C24.376 85.1974 24.6294 88.125 24.8771 91.0531C25.1247 93.9816 25.3557 96.9115 25.57 99.8424C25.7751 102.647 25.702 105.598 26.442 108.32C26.567 108.781 27.3349 108.765 27.4023 108.276C27.7871 105.487 27.3227 102.569 27.1139 99.771C26.8949 96.8403 26.6602 93.9106 26.407 90.9824C26.1541 88.0542 25.8726 85.128 25.579 82.2035C25.3554 79.9767 25.2826 77.551 24.7723 75.3188C25.7405 76.1303 26.8117 76.8448 27.9327 77.4663C28.2665 77.6514 28.6054 77.8285 28.947 78.0015C29.159 83.5874 29.4457 89.1693 29.6645 94.7552C29.7743 97.5533 29.8745 100.351 29.95 103.151C29.9881 104.564 30.0247 105.978 30.0588 107.392C30.0934 108.838 29.8598 110.526 30.4812 111.86C30.7131 112.358 31.5442 112.613 31.812 111.972C32.3511 110.681 32.1365 109.285 32.0955 107.908C32.0533 106.493 32.0064 105.078 31.9488 103.663C31.83 100.764 31.6948 97.8652 31.5245 94.9691C31.2019 89.4888 30.7796 84.0308 30.1545 78.5794C31.8261 79.3385 33.5725 79.9599 35.3587 80.4322C35.2711 87.0203 35.2947 93.559 35.6741 100.143C35.8629 103.419 36.0962 106.692 36.3741 109.962C36.5131 111.596 36.6672 113.229 36.8089 114.863C36.8884 115.781 36.8786 116.78 36.9721 117.746C35.5391 117.397 34.1267 116.978 32.7601 116.473C32.8097 116.066 32.7233 115.656 32.6533 115.246C32.5567 114.682 32.4847 114.109 32.4358 113.539C32.3806 112.893 31.4942 112.964 31.4514 113.584C31.4026 114.296 31.3465 115.238 31.5831 116.011C31.2051 115.855 30.8298 115.693 30.461 115.522C25.7772 113.345 24.7676 108.867 23.7387 104.233ZM89.6676 95.1499C88.9372 98.8755 88.5195 103.296 86.4931 106.659C86.662 105.78 86.8252 104.9 86.9767 104.019C87.2861 102.217 88.093 99.6175 87.1101 97.9329C86.7814 97.3698 86.0675 97.7558 86.0234 98.2817C85.8455 100.411 85.2146 102.609 84.8055 104.712C84.4764 106.402 84.112 108.085 83.7226 109.762C82.5191 110.731 81.1622 111.54 79.7408 112.246C80.6264 108.59 80.9301 104.688 81.462 101.012C81.7643 98.9219 82.1255 96.8633 82.6677 94.8211C83.1663 92.9427 83.7664 90.9423 83.4541 88.9854C83.2673 87.8163 81.6096 87.8474 81.5897 89.0715C81.5555 91.2097 81.1015 93.1232 80.6035 95.19C80.1037 97.2634 79.8324 99.3745 79.5546 101.486C79.0627 105.225 78.2913 109.135 78.2543 112.941C77.5595 113.247 76.8577 113.535 76.1564 113.807C76.1221 112.401 75.9717 110.941 75.4098 109.791C75.1433 109.245 74.3277 109.501 74.2003 110.006C73.9688 110.923 74.0887 111.909 74.1258 112.847C74.1483 113.415 74.161 113.982 74.1717 114.55C73.7858 114.69 73.4024 114.829 73.025 114.966C71.0178 115.691 68.9725 116.334 66.9019 116.893C66.9974 114.031 66.6974 111.122 66.6527 108.271C66.5966 104.7 66.6388 101.128 66.7465 97.5581C66.851 94.0871 67.001 90.6173 67.1861 87.1493C67.3823 83.4676 67.2888 79.8424 67.2905 76.1641C67.2906 75.8045 66.6967 75.7407 66.6495 76.1074C66.212 79.5233 65.6536 82.8659 65.458 86.3133C65.2495 89.9844 65.0674 93.658 64.9733 97.3341C64.882 100.903 64.8543 104.475 64.9252 108.044C64.9853 111.066 64.911 114.26 65.4621 117.267C63.9068 117.653 62.3395 117.993 60.7613 118.273C60.6073 115.456 60.4908 112.633 60.3436 109.817C60.2596 108.206 60.1973 106.596 60.1485 104.985C60.1004 103.394 60.3042 101.53 59.6842 100.038C59.5442 99.7015 58.9638 99.5417 58.8007 99.9638C58.2897 101.286 58.4547 102.756 58.4943 104.153C58.5452 105.965 58.6574 107.778 58.7806 109.586C58.9834 112.568 59.3628 115.49 59.8271 118.426C57.5817 118.791 55.3196 119.042 53.0516 119.164C53.1238 118.048 52.9992 116.898 52.9654 115.8C52.912 114.054 52.8734 112.308 52.8277 110.562C52.7848 108.919 52.7389 107.275 52.7054 105.632C52.671 103.944 52.8215 102.159 52.4678 100.503C52.3067 99.7487 51.1148 99.8567 50.9829 100.572C50.6933 102.14 50.898 103.817 50.937 105.405C50.98 107.151 51.0254 108.897 51.0899 110.642C51.1509 112.285 51.233 113.926 51.3166 115.568C51.3766 116.752 51.342 118.026 51.5378 119.229C49.4021 119.289 47.2641 119.227 45.1332 119.042C44.9609 117.671 44.9076 116.269 44.9924 114.91C45.0301 114.307 44.0163 114.217 43.9282 114.816C43.7224 116.213 43.6345 117.546 43.6889 118.904C42.0292 118.719 40.3429 118.465 38.6692 118.124C38.5878 117.114 38.3534 116.093 38.2375 115.104C38.0465 113.474 37.8865 111.841 37.7373 110.206C37.4297 106.835 37.1694 103.461 36.9564 100.083C36.5476 93.5998 36.1543 87.0828 35.9786 80.5883C38.1171 81.1108 40.3034 81.4226 42.4757 81.5134C42.2485 83.7735 42.37 86.0765 42.4109 88.3409C42.4569 90.8761 42.5066 93.4111 42.5727 95.946C42.639 98.4806 42.7051 101.015 42.7714 103.549C42.8032 104.766 42.835 105.983 42.8668 107.199C42.8996 108.453 42.735 109.865 43.2139 111.035C43.5033 111.741 44.4058 111.664 44.6432 110.968C45.0225 109.857 44.805 108.579 44.7668 107.416C44.7235 106.098 44.6803 104.781 44.637 103.463C44.554 100.929 44.4707 98.396 44.3876 95.8622C44.2334 91.1662 44.4315 86.1975 43.6482 81.5403C46.1612 81.5442 48.6671 81.1982 51.0547 80.47C51.0565 82.8779 51.0802 85.2863 51.1478 87.6933C51.1873 89.0979 51.2361 90.502 51.2941 91.9057C51.3488 93.2281 51.2161 94.6824 51.7826 95.9016C51.9438 96.2485 52.3806 96.2317 52.5083 95.8681C52.9253 94.682 52.701 93.3835 52.6589 92.1443C52.6083 90.6397 52.5681 89.1346 52.5388 87.6294C52.4892 85.0829 52.4622 82.5363 52.4602 79.9895C54.0381 79.3948 55.5535 78.6283 56.968 77.6721C57.3284 77.4286 57.6803 77.1707 58.0273 76.9056C58.0182 76.936 58.0072 76.9653 58.0064 77.0015C57.9395 80.1605 57.7462 83.3108 57.7039 86.4723C57.6834 87.9984 57.663 89.5249 57.6425 91.051C57.6236 92.47 57.3392 94.1104 57.8266 95.4568C58.0213 95.9943 58.6917 95.8912 58.865 95.4089C59.3478 94.0656 59.0559 92.4023 59.0372 90.9866C59.0172 89.4623 58.9972 87.9377 58.9772 86.4135C58.9358 83.2611 58.7437 80.1199 58.6777 76.9705C58.6732 76.7535 58.5086 76.654 58.3438 76.662C59.6162 75.6511 60.7803 74.4944 61.7646 73.2082C62.7136 71.968 63.8838 70.3879 64.257 68.7539C64.4287 68.8412 64.602 68.9276 64.78 69.0097C65.0168 69.1192 65.2558 69.2223 65.4964 69.3192C65.43 70.3467 65.3624 71.5359 65.8688 72.3028C66.0232 72.5361 66.3767 72.5198 66.5089 72.2732C66.8772 71.5854 66.8047 70.6323 66.6761 69.7378C69.3871 70.5894 72.2689 70.7059 75.0752 70.2121C74.4956 71.2881 74.6504 72.7037 74.6399 73.8958C74.6274 75.3065 74.6436 76.7149 74.6518 78.1252C74.6701 81.1453 74.6598 84.1652 74.5865 87.1846C74.5134 90.2043 74.3853 93.2228 74.2019 96.238C74.0296 99.0664 73.4636 102.051 74.0019 104.849C74.118 105.452 75.1466 105.539 75.3644 104.963C76.3381 102.391 76.2339 99.4594 76.366 96.7392C76.517 93.6256 76.6022 90.5085 76.6324 87.3914C76.6613 84.3744 76.645 81.3554 76.5446 78.3394C76.4943 76.8295 76.4297 75.3241 76.3035 73.8186C76.2021 72.6076 76.2308 71.1457 75.5018 70.1292C75.8707 70.0562 76.2383 69.976 76.6034 69.8821C79.7721 69.0689 82.8919 67.4961 85.3907 65.305C85.4902 65.3669 85.5904 65.4272 85.6923 65.4832C84.6278 68.087 84.1844 70.953 83.7691 73.7166C83.3099 76.7711 83.0099 79.8078 82.8472 82.8892C82.8327 83.165 83.2527 83.1811 83.3164 82.9306C84.7409 77.3239 85.3416 71.5816 87.0484 66.0484C88.033 66.3432 89.083 66.4333 90.1489 66.3637C89.4193 69.8605 88.9872 73.4005 88.4639 76.9334C87.9433 80.4472 87.0323 84.0159 87.1482 87.5748C87.1628 88.025 87.8559 88.2182 88.0439 87.7736C89.4623 84.4191 89.7758 80.6221 90.2484 77.0294C90.719 73.452 91.114 69.8797 91.0477 66.2692C92.0009 66.1314 92.954 65.8785 93.8733 65.5433C92.9764 75.4831 91.5886 85.3531 89.6676 95.1499ZM104.739 49.4339C103.502 53.5046 100.813 57.6995 97.737 60.624C97.0449 61.2823 96.3069 61.8857 95.5232 62.4152C94.9959 62.4074 94.4284 62.6827 94.1731 63.2177C93.5556 63.5362 92.9132 63.8094 92.2366 64.0142C90.2589 64.6131 88.4353 64.5033 86.498 64.2488C86.7507 63.9864 86.998 63.7197 87.2328 63.4428C89.5369 60.7266 91.9676 55.6266 89.7157 52.2353C89.5159 51.9345 89.1298 51.8097 88.7835 51.8625C88.9608 51.5798 89.1047 51.2737 89.203 50.9486C89.9483 48.4835 87.7649 45.8299 85.185 46.9031C83.9831 47.4033 83.0203 48.5871 83.0288 49.9284C83.0309 50.2553 83.104 50.5787 83.2324 50.8788C83.2955 51.4471 83.4803 51.9794 83.7886 52.3489C84.5145 53.2189 85.7259 53.5404 86.8152 53.3007C87.2964 53.1946 87.7199 52.9711 88.0804 52.6717C87.9443 53.8247 87.9982 54.9702 87.8889 56.1127C87.8651 55.9869 87.6649 55.9532 87.6459 56.0989C87.4615 57.5178 86.9888 58.7937 86.4087 60.0945C86.377 60.1652 86.442 60.2179 86.4988 60.2026C86.0881 60.8962 85.6093 61.5508 85.072 62.1567C82.6854 64.8495 79.3444 66.7574 75.894 67.7081C69.4853 69.4734 61.8169 67.2492 58.4001 61.2266C58.1673 60.8162 57.4494 61.1445 57.6426 61.588C58.7302 64.085 60.2793 66.1027 62.3799 67.6143C61.5235 68.8888 61.0012 70.4227 60.069 71.6623C58.867 73.2598 57.3818 74.6413 55.7299 75.7629C52.1075 78.2219 47.8333 79.3656 43.4759 79.4002C38.7656 79.4375 33.8695 78.2648 29.6067 76.2734C26.2986 74.7282 22.9986 72.3916 21.4542 69.0032C23.137 68.6835 24.6957 68.0223 25.9526 66.9258C26.3613 66.5693 26.2616 66.098 25.9594 65.7852C26.8888 65.7157 27.8179 65.5675 28.7386 65.3288C28.8478 65.3006 28.7924 65.1394 28.6846 65.1636C27.6836 65.3856 26.6797 65.5233 25.6796 65.576C25.4765 65.4669 25.2416 65.4192 25.0162 65.4761C24.866 65.5139 24.7181 65.5554 24.5699 65.596C21.9025 65.5664 19.2834 64.9222 16.8546 63.6197C16.7756 63.5773 16.7116 63.6997 16.79 63.7431C18.9891 64.9538 21.3925 65.6577 23.8409 65.8023C22.2504 66.271 20.72 66.7953 19.0071 66.8698C16.8151 66.9652 14.5851 66.5645 12.5765 65.6771C8.49467 63.8736 5.67109 60.2504 4.71114 55.9089C2.68948 46.7649 9.76626 38.2494 18.9742 37.7667C21.9459 37.6108 24.8552 38.4155 27.6251 39.4166C29.9736 40.2655 33.4511 41.1324 34.2978 43.7983C34.5447 44.5756 35.635 44.1778 35.4772 43.4136C34.99 41.0539 32.9071 39.6113 30.8368 38.6682C27.9863 37.37 24.929 36.2284 21.8085 35.8293C18.8969 35.457 15.992 35.8332 13.3179 36.8494C13.4087 36.5593 13.5049 36.2699 13.6033 35.9807C16.4339 35.2434 19.2247 35.2187 22.1892 35.4363C22.3392 35.4473 22.3506 35.2116 22.212 35.1787C19.4423 34.5233 16.4879 34.7975 13.7437 35.5654C14.4583 33.5443 15.3598 31.5585 16.4508 29.6905C18.0418 29.0857 19.9398 29.5856 21.5737 29.8022C22.9974 29.9908 24.4188 30.2026 25.8527 30.2964C26.0544 30.3096 26.0783 29.9824 25.8838 29.9443C23.8495 29.5476 21.7658 29.3323 19.7078 29.0932C18.6753 28.9732 17.6927 28.909 16.7538 29.1898C18.3537 26.5661 20.3331 24.1954 22.7113 22.327C23.0123 22.0906 23.3228 21.8665 23.636 21.6459C26.577 21.3213 29.4074 21.9174 32.1355 23.1599C32.2426 23.2088 32.3217 23.0582 32.2202 22.9982C29.7714 21.5518 26.9744 21.0365 24.1894 21.2732C28.9615 18.1214 34.9735 16.7241 40.7074 16.7934C42.5844 17.9047 44.4642 19.0234 46.3824 20.0555C46.8732 20.4116 47.3647 20.7686 47.7894 21.1874C48.667 22.0532 49.236 23.324 50.2541 24.0156C50.4748 24.1653 50.7674 23.934 50.7545 23.6969C50.6813 22.3589 49.3485 21.0999 48.4271 20.2374C47.4688 19.3404 46.2215 18.3011 44.8585 18.2016C44.616 18.184 44.5799 18.4939 44.7021 18.6346C44.7593 18.7003 44.8224 18.7606 44.8829 18.8234C43.68 18.1372 42.4629 17.4725 41.2472 16.8096C41.9443 16.829 42.6374 16.8635 43.322 16.926C43.8478 16.9738 44.0547 16.2358 43.5091 16.1004C41.9218 15.7065 40.2995 15.4733 38.67 15.3929C38.6405 15.3767 38.611 15.3604 38.5818 15.3441C38.5316 15.3158 38.4864 15.3426 38.4675 15.3828C35.2396 15.2492 31.988 15.7224 28.9243 16.766C29.5346 15.0474 30.2294 13.4369 31.4107 11.9147C32.8145 10.1052 34.5579 8.58583 36.524 7.41414C41.0705 4.70417 46.5998 4.25681 51.6977 5.40996C56.9623 6.6006 61.5723 9.50201 65.4855 13.1485C65.7161 13.3634 65.9381 13.5874 66.1645 13.8066C64.328 12.9149 62.4792 12.0454 60.6411 11.1596C60.611 11.1449 60.5865 11.1913 60.6169 11.2059C62.5424 12.1415 64.4602 13.0981 66.3906 14.026C67.9654 15.5694 69.4512 17.2076 70.8698 18.8928C72.5347 20.8704 74.3309 22.7257 76.0122 24.6838C76.2081 24.912 76.5637 24.5918 76.4067 24.3493C75.1217 22.3606 73.9885 20.2964 72.5273 18.421C72.1981 17.9984 71.8652 17.5781 71.5287 17.1608C74.1676 18.1797 76.5805 19.5915 78.8756 21.2396C78.9818 21.3158 79.1213 21.1741 79.016 21.0855C76.789 19.2099 74.2341 17.8845 71.4876 16.9399C71.4426 16.9243 71.4058 16.9508 71.3864 16.9876C70.765 16.221 70.1301 15.4653 69.4764 14.726C72.8566 14.3578 76.2051 13.8247 79.4629 15.2544C82.5142 16.5937 85.0152 19.2417 86.898 21.9328C88.7079 24.5195 90.032 27.4196 90.8288 30.4733C91.6832 33.7478 91.6762 36.9591 91.7061 40.3104C91.7119 40.9736 92.6793 41.0232 92.8389 40.4106C93.584 37.5514 93.5213 34.4615 92.8964 31.437C94.2542 32.3223 95.9759 32.7508 97.3774 33.5225C99.0875 34.4639 100.659 35.6785 101.937 37.1605C104.816 40.5008 106.033 45.177 104.739 49.4339ZM87.649 57.4977C87.6658 57.4269 87.6836 57.3565 87.6992 57.2852C87.687 57.3366 87.6795 57.388 87.6664 57.439C87.6611 57.459 87.6543 57.4782 87.649 57.4977ZM87.73 57.1406C87.7688 56.9503 87.8024 56.7594 87.8322 56.5677C87.8055 56.7589 87.7707 56.9499 87.73 57.1406ZM85.6696 49.8308C85.6702 49.8301 85.6705 49.8292 85.6713 49.8285C85.6626 49.8874 85.4834 50.0059 85.6696 49.8308Z" fill="black"/>
<path d="M38.5023 45.3647C38.2959 45.1907 38.0331 45.4817 38.2211 45.6732C38.8922 46.3567 39.5563 47.0476 40.0657 47.8647C40.6077 48.7343 40.645 49.5872 40.9746 50.5123C41.0436 50.7062 41.3647 50.7715 41.4536 50.5527C42.275 48.5347 39.825 46.481 38.5023 45.3647Z" fill="black"/>
<path d="M62.628 35.5026C63.6272 35.3154 64.7895 35.344 65.7198 34.9256C65.9502 34.8219 65.9375 34.5275 65.6976 34.4455C63.9508 33.8486 61.3814 34.7276 59.6982 35.2918C57.582 36.0013 55.549 37.0186 53.7096 38.2813C50.0179 40.8153 47.2934 44.2836 45.7097 48.4543C45.6605 48.5831 45.843 48.6879 45.9047 48.5567C47.7096 44.7072 50.6483 41.353 54.1581 38.9732C55.891 37.798 57.7689 36.8662 59.7626 36.223C60.7019 35.9203 61.6583 35.6845 62.628 35.5026Z" fill="black"/>
<path d="M76.957 39.5563C77.0897 39.5762 77.2537 39.4813 77.2329 39.3254C77.0303 37.809 75.1913 37.064 73.9182 36.5922C72.1713 35.9448 70.4993 35.9636 68.6755 35.8146C68.4164 35.7934 68.3774 36.2349 68.6351 36.2722C70.2201 36.5029 71.8768 37.0517 73.3534 37.6697C74.5768 38.1816 75.6502 39.3608 76.957 39.5563Z" fill="black"/>
<path d="M99.1924 37.1147C98.2796 36.1852 97.3215 35.2997 96.1409 34.7273C95.8928 34.607 95.5441 34.9102 95.7481 35.1583C96.531 36.1098 97.4593 36.9138 98.3074 37.8044C99.1309 38.6696 99.8069 39.8266 100.852 40.4386C101.128 40.6004 101.403 40.3008 101.336 40.0298C101.049 38.8731 100.002 37.9393 99.1924 37.1147Z" fill="black"/>
<path d="M100.341 47.6999C100.42 50.4405 99.4847 53.3921 97.7927 55.567C97.6133 55.7975 97.8743 56.1691 98.1422 55.9791C99.5258 54.9986 100.449 54.0825 101.041 52.4467C101.64 50.7936 101.706 49.2223 101.302 47.5243C101.17 46.9709 100.326 47.16 100.341 47.6999Z" fill="black"/>
<path d="M76.8388 24.9705C75.8787 25.513 75.1519 26.8344 74.9604 28.1531C74.5186 29.3082 74.7649 30.7273 75.8624 31.7513C78.1047 33.8427 81.5701 32.1302 82.1022 29.3353C82.2576 28.5202 82.1346 27.6873 81.8136 26.9484C83.923 29.1704 85.5264 31.6148 87.2136 34.1883C87.2655 34.2676 87.4118 34.2064 87.3692 34.114C86.0158 31.1763 83.7586 28.5396 81.4566 26.2869C80.4839 24.7968 78.6524 23.9457 76.8388 24.9705Z" fill="black"/>
<path d="M54.6369 15.4954C53.4501 16.6846 53.5936 18.1103 54.3889 19.1436C54.7782 20.0338 55.6291 20.7962 56.621 21.014C59.1533 21.57 62.5698 19.5824 61.8233 16.652C61.471 15.269 60.2899 14.6196 58.9473 14.4929C57.4437 14.3511 55.7796 14.3503 54.6369 15.4954ZM56.9264 17.6924C56.7644 17.7159 56.6188 17.7607 56.4952 17.8296C56.3731 17.7 56.3286 17.586 56.3413 17.4858C56.4995 17.5958 56.6968 17.6661 56.9264 17.6924Z" fill="black"/>
<path d="M59.2251 44.2844C58.3152 45.3775 58.0261 47.465 58.5731 48.7823C58.8049 49.3404 59.2114 49.7263 59.6978 49.9542C59.8767 50.2086 60.0761 50.4117 60.29 50.5416C61.5456 51.3042 63.2564 50.6116 64.2774 49.7525C65.377 48.8269 66.0757 47.421 65.9942 45.9637C65.8042 42.5752 61.165 41.9545 59.2251 44.2844ZM61.1355 47.2696C61.1355 47.2034 61.1331 47.137 61.1347 47.0707C61.1414 46.8956 61.1548 46.7294 61.1835 46.5743C61.1955 46.6325 61.2044 46.6915 61.2084 46.7523C61.219 46.914 61.2013 47.0788 61.1723 47.2423C61.16 47.2512 61.1478 47.2604 61.1355 47.2696Z" fill="black"/>
<path d="M40.8663 60.4576C40.8599 61.8664 41.7811 63.1646 43.1142 63.6145C43.5721 63.7691 44.0488 63.7987 44.5154 63.732C44.7637 63.7156 45.0041 63.6797 45.2248 63.6286C46.5548 63.3218 47.8612 62.3969 48.3401 61.0829C48.8533 59.6742 48.3221 58.0686 46.9656 57.3652C44.4813 56.0767 40.8804 57.3679 40.8663 60.4576Z" fill="black"/>
<path d="M37.8929 28.9164C36.9329 29.9912 37.138 31.9584 37.992 33.325C38.302 33.8862 38.7579 34.3636 39.3455 34.679C40.4326 35.2628 41.7909 35.1124 42.7187 34.3044C43.7229 33.4296 43.9431 31.9543 43.6598 30.7061C43.0774 28.1388 39.7965 26.7856 37.8929 28.9164Z" fill="black"/>
<path d="M26.9729 43.5147C25.524 42.8084 23.0664 43.0946 21.8004 44.0619C20.878 44.7667 20.5012 45.912 20.5607 47.0668C20.1196 48.4078 21.1458 49.9589 22.02 50.8967C24.716 53.789 28.3246 50.3535 28.7487 47.4045C28.9667 45.889 28.4278 44.2238 26.9729 43.5147Z" fill="black"/>
<path d="M25.9703 26.0939C26.4865 26.3717 27.0031 26.6496 27.5194 26.9271C27.5245 26.9296 27.5284 26.922 27.5234 26.9195C27.0082 26.6391 26.4934 26.3587 25.9782 26.0784C25.9684 26.0729 25.9604 26.0885 25.9703 26.0939Z" fill="black"/>
<path d="M43.0763 23.4589C40.2022 21.4755 37.073 19.9569 33.7751 18.8184C33.7116 18.7966 33.6894 18.8982 33.752 18.92C37.043 20.0716 40.1138 21.638 43.0398 23.528C43.0829 23.5558 43.1168 23.4867 43.0763 23.4589Z" fill="black"/>
<path d="M53.6009 24.5879C55.6455 26.7969 57.0966 29.3649 58.2724 32.1233C58.3224 32.2401 58.4978 32.1872 58.4626 32.0613C57.6282 29.0972 55.9466 26.5555 53.8058 24.3631C53.6678 24.2216 53.4693 24.4458 53.6009 24.5879Z" fill="black"/>
<path d="M53.5756 33.3654C53.6509 33.4813 53.8582 33.3932 53.8012 33.2578C52.6071 30.4248 50.6045 27.9685 48.4644 25.79C48.2946 25.6174 48.0483 25.8928 48.2126 26.0662C50.3261 28.2992 51.9101 30.8026 53.5756 33.3654Z" fill="black"/>
<path d="M50.724 39.1419C50.7843 39.2424 50.9518 39.1644 50.9108 39.0528C50.0399 36.6866 48.4857 34.546 46.9097 32.601C46.8093 32.4769 46.5975 32.6086 46.6982 32.7382C48.2669 34.7587 49.4163 36.9583 50.724 39.1419Z" fill="black"/>
<path d="M46.3474 45.0961C46.4069 45.2468 46.6435 45.2164 46.6355 45.0435C46.5719 43.6549 45.909 42.2922 45.2092 41.1165C45.0871 40.9111 44.7983 41.1098 44.9027 41.3151C45.5266 42.5404 45.8469 43.8283 46.3474 45.0961Z" fill="black"/>
<path d="M44.0429 50.2963C44.0305 49.1913 43.9549 48.0846 43.907 46.9806C43.9044 46.9247 43.8173 46.9287 43.8202 46.9846C43.8743 48.0883 43.9011 49.1973 43.9907 50.2987C43.9938 50.3323 44.0435 50.33 44.0429 50.2963Z" fill="black"/>
<path d="M49.1698 45.1801C47.8349 46.5594 46.6128 48.0497 45.3593 49.5023C45.235 49.6463 45.4531 49.8457 45.5776 49.7013C46.8321 48.2482 48.1282 46.8203 49.2983 45.2974C49.3657 45.2095 49.2489 45.0985 49.1698 45.1801Z" fill="black"/>
<path d="M79.4005 45.3644C79.4161 45.3803 79.4397 45.3545 79.4241 45.3385C78.5377 44.4301 77.651 43.5218 76.7646 42.6137C78.7948 44.0884 80.363 45.991 81.7626 48.2279C81.8515 48.3698 82.106 48.2591 82.0351 48.098C80.5842 44.8105 77.5861 42.2642 74.3702 40.7923C74.1622 40.697 73.9963 41.011 74.2047 41.1081C75.056 41.5035 75.8356 41.9567 76.5577 42.463C77.505 43.4298 78.4526 44.3972 79.4005 45.3644Z" fill="black"/>
<path d="M82.8674 55.4563C83.0861 59.267 81.3151 62.4917 78.4304 64.8703C78.253 65.0165 78.4218 65.2998 78.629 65.1767C81.9529 63.2027 83.5973 59.1992 83.2583 55.4382C83.2356 55.1886 82.8529 55.2035 82.8674 55.4563Z" fill="black"/>
<path d="M89.9642 44.7615C92.6287 48.0227 94.0994 51.7455 95.0502 55.8093C95.0826 55.9483 95.3068 55.9048 95.296 55.7645C94.9697 51.575 92.9578 47.672 90.2206 44.5442C90.0951 44.4009 89.8422 44.6125 89.9642 44.7615Z" fill="black"/>
<path d="M92.042 42.7959C94.4634 46.2802 95.4209 50.0717 95.7569 54.2514C95.7699 54.4111 95.9897 54.3932 95.9999 54.2402C96.2832 50.0984 94.7164 45.9421 92.3482 42.5973C92.2131 42.4062 91.9071 42.6019 92.042 42.7959Z" fill="black"/>
<path d="M98.7791 49.2737C98.6528 46.2601 97.3574 43.338 95.6164 40.917C95.5254 40.7903 95.3205 40.9214 95.4121 41.0493C97.2258 43.5833 98.0751 46.2726 98.6266 49.3015C98.6427 49.3901 98.7827 49.3595 98.7791 49.2737Z" fill="black"/>
<path d="M83.8608 20.8465C81.434 18.1548 78.1684 16.102 74.9554 14.4855C74.8303 14.4226 74.7305 14.6131 74.8545 14.678C78.1436 16.3968 80.8883 18.6414 83.7203 21.0006C83.8249 21.0879 83.9495 20.9451 83.8608 20.8465Z" fill="black"/>
<path d="M90.4995 33.9198C89.9518 31.0795 88.5592 28.4858 86.8225 26.198C86.7088 26.0482 86.4623 26.2029 86.5744 26.3589C88.2685 28.7168 89.3265 31.2681 90.2264 34.0089C90.2861 34.189 90.5337 34.0962 90.4995 33.9198Z" fill="black"/>
<path d="M38.7815 8.8126C36.2544 9.62931 33.8606 12.0597 32.8406 14.4805C32.7787 14.6272 32.9793 14.8036 33.0877 14.6535C33.8557 13.5944 34.5972 12.5378 35.5472 11.6296C36.5826 10.6396 37.7692 9.94082 38.9299 9.12383C39.0884 9.01222 38.9742 8.75017 38.7815 8.8126Z" fill="black"/>
<path d="M50.5075 7.77074C50.5644 7.7712 50.5581 7.68764 50.5035 7.68397C48.7262 7.56589 47.0532 7.8561 45.3958 8.50389C45.2922 8.54426 45.345 8.71015 45.4499 8.6691C47.072 8.035 48.7678 7.7552 50.5075 7.77074Z" fill="black"/>
<path d="M60.0596 10.8207C56.9964 9.2904 53.3457 8.88696 49.9635 9.06645C49.7626 9.07697 49.7764 9.38886 49.978 9.37924C53.5125 9.20972 56.6506 9.97042 59.9821 11.0313C60.1055 11.0702 60.1727 10.8771 60.0596 10.8207Z" fill="black"/>
<path d="M72.2978 23.9519C72.3474 24.0685 72.5275 24.0147 72.488 23.8899C71.5312 20.877 69.6439 18.3034 67.2763 16.2369C67.1583 16.134 66.9957 16.3117 67.1123 16.4168C69.4508 18.524 71.0709 21.0727 72.2978 23.9519Z" fill="black"/>
<path d="M70.3958 27.3472C69.6619 25.0443 68.891 22.7533 68.1281 20.4594C68.1018 20.3799 67.9775 20.42 68.004 20.4998C68.767 22.7937 69.5216 25.0897 70.3129 27.3739C70.3317 27.4269 70.4131 27.4005 70.3958 27.3472Z" fill="black"/>
<path d="M20.216 63.6076C13.9243 61.9855 8.92757 56.6803 8.18619 50.1516C8.17254 50.0303 7.98471 50.0368 7.99506 50.1604C8.54499 56.7713 13.5484 62.6904 20.1623 63.845C20.3164 63.8719 20.3685 63.647 20.216 63.6076Z" fill="black"/>
<path d="M32.423 60.5462C34.83 59.6945 37.0888 58.4149 38.8816 56.5794C38.954 56.5052 38.8404 56.4105 38.7659 56.474C36.8154 58.137 34.7838 59.4788 32.3635 60.3645C32.2485 60.4063 32.3064 60.5875 32.423 60.5462Z" fill="black"/>
<path d="M40.2751 73.2325C40.3943 73.1945 40.3339 73.025 40.2156 73.0506C35.441 74.094 30.2931 72.2339 27.5197 68.1625C27.4095 68.0008 27.1595 68.1618 27.2643 68.328C29.9906 72.6452 35.3682 74.8019 40.2751 73.2325Z" fill="black"/>
<path d="M54.3334 62.2622C54.4738 62.0924 54.2411 61.885 54.0831 62.0337C50.3672 65.5305 45.6537 70.421 40.0991 67.4061C40.0004 67.3525 39.9211 67.5053 40.0183 67.5602C45.3332 70.5618 51.0213 66.2736 54.3334 62.2622Z" fill="black"/>
<path d="M55.9506 69.5487C53.5103 71.8305 50.5682 73.3707 47.2082 73.6262C47.03 73.6397 47.0415 73.9096 47.221 73.9041C50.6822 73.8005 53.9504 72.4541 56.1625 69.7419C56.2802 69.5978 56.0849 69.423 55.9506 69.5487Z" fill="black"/>
<path d="M47.0515 76.855C42.9935 77.3464 39.1418 77.918 35.0339 77.5304C34.8331 77.5115 34.7543 77.8153 34.9626 77.8444C38.9211 78.3923 43.2871 78.4916 47.1071 77.1603C47.2676 77.1043 47.2331 76.833 47.0515 76.855Z" fill="black"/>
<path d="M32.8775 68.142C32.7085 68.0403 32.5729 68.3077 32.7362 68.4115C36.2305 70.6336 40.66 71.5983 44.6873 70.3734C44.8286 70.3304 44.7925 70.0866 44.6392 70.1107C40.5035 70.7552 36.5177 70.3341 32.8775 68.142Z" fill="black"/>
<path d="M69.104 63.2518C64.3676 62.5028 60.1283 59.7891 57.7037 55.6202C57.619 55.4743 57.4046 55.616 57.4847 55.7621C59.8593 60.0949 64.1347 63.0541 69.0834 63.4836C69.2148 63.4949 69.234 63.2724 69.104 63.2518Z" fill="black"/>
<path d="M75.2093 58.0125C72.3323 58.6647 69.2932 57.689 67.686 55.1365C67.5754 54.9609 67.3102 55.1338 67.4162 55.3114C69.0034 57.9799 72.3162 59.4006 75.2716 58.2027C75.3916 58.1539 75.3345 57.9841 75.2093 58.0125Z" fill="black"/>
<path d="M72.5297 40.5615C72.5979 40.6304 72.7235 40.5281 72.6614 40.4499C70.7625 38.0606 67.8578 36.8804 64.8394 36.9023C64.7212 36.9031 64.731 37.0827 64.8478 37.0848C67.8566 37.136 70.4346 38.4462 72.5297 40.5615Z" fill="black"/>
<path d="M53.4407 41.22C50.5487 43.395 48.4516 46.7211 47.0676 50.0164C46.9798 50.2256 47.287 50.3924 47.3834 50.1819C48.9292 46.8033 51.1467 44.1548 53.625 41.4371C53.7316 41.3201 53.5741 41.1198 53.4407 41.22Z" fill="black"/>
</svg>
