<svg width="96" height="82" viewBox="0 0 96 82" fill="none" xmlns="http://www.w3.org/2000/svg">
<path d="M93.5149 30.9919C92.4431 28.9745 91.3526 26.9636 90.1533 25.0187C87.8026 21.2061 85.071 17.667 81.7378 14.6606C78.4193 11.6676 74.7123 9.14561 71.0292 6.63047C68.9157 5.18716 66.8019 3.74386 64.6881 2.30026C62.9701 1.12698 61.2807 -0.0539893 59.1057 0.00190931C56.8437 0.0601739 54.6669 1.14533 52.6099 1.98085C50.4624 2.85304 48.3282 3.75866 46.1993 4.67493C41.7884 6.57341 37.4005 8.52718 32.9469 10.3242C28.4993 12.1189 23.986 13.6619 19.4014 15.065C15.7464 16.1835 12.326 17.6259 8.82032 19.1183C6.39864 20.1494 3.73592 21.5152 2.40589 23.5523C-0.48013 26.0364 -0.168096 30.3776 0.313697 33.8628C1.14715 39.8913 2.83031 45.7329 4.65929 51.5253C5.47529 54.1094 6.05322 57.2358 7.51013 59.5463C8.82626 61.6332 11.2391 63.0537 13.2174 64.4385C18.1057 67.8598 23.3596 70.495 28.567 73.3689C31.1709 74.806 33.4867 76.499 35.8368 78.3084C37.6572 79.71 39.653 80.9401 42.0111 81.0451C44.7368 81.1666 47.5799 80.0415 50.1563 79.2841C52.9766 78.4551 55.7822 77.5708 58.5609 76.6119C64.1164 74.6951 69.5847 72.5174 74.951 70.1227C79.7435 67.984 84.9349 65.875 88.8665 62.2989C92.3638 59.118 93.7864 54.7325 94.598 50.1938C95.3495 45.9904 95.7172 41.7286 95.5001 37.4735C95.5619 37.2579 95.6086 37.0331 95.6355 36.7965C95.8695 34.7359 94.4374 32.7286 93.5149 30.9919ZM4.33483 24.5162C5.404 22.9827 7.39449 22.1694 9.04897 21.4527C11.8125 20.2558 14.5232 19.0012 17.3929 18.0636C21.4073 16.7519 25.4595 15.5994 29.4191 14.1206C37.3895 11.1437 45.0828 7.49289 52.9595 4.28656C54.8056 3.53504 56.8245 2.46588 58.843 2.32806C61.1683 2.16923 63.175 4.08103 64.9762 5.3102C65.6505 5.7704 66.3269 6.22824 67.0036 6.68578C65.5716 6.90523 64.0984 7.71413 62.8532 8.73155C62.7193 8.59106 62.5525 8.48046 62.3658 8.40918C62.8246 7.48168 63.3055 6.57518 63.3418 5.51458C63.3495 5.28714 63.0692 5.11679 62.8745 5.24634C61.7938 5.9671 61.3035 7.14804 60.7906 8.30239C60.6501 8.61855 60.5046 8.94066 60.3653 9.26718C59.7581 7.97471 58.7298 6.85644 57.5293 6.51898C57.0759 6.39151 56.7952 6.87419 56.9656 7.25217C57.3882 8.18884 58.1069 8.90664 58.6416 9.77736C58.9531 10.2846 59.1953 10.8311 59.4523 11.3676C57.6825 13.5048 54.6932 14.4858 52.0122 15.0756C48.3036 15.8913 44.6407 16.5925 41.0543 17.8829C37.5924 19.1284 34.2429 20.6986 31.0857 22.5876C28.4803 24.1462 25.9108 26.297 22.9254 27.0959C22.8772 26.814 22.5681 26.6055 22.2641 26.7738C22.1884 26.8155 22.1171 26.8681 22.0438 26.916C21.4046 26.363 20.8193 25.7809 20.3881 24.9794C19.662 23.6304 19.339 22.1191 18.631 20.7562C18.4331 20.3759 17.9022 20.5868 17.8765 20.9606C17.7511 22.7858 18.4766 25.7351 20.0681 27.281C18.9661 27.5303 17.8916 28.0441 17.0679 28.5945C15.6479 29.5433 13.3789 31.597 13.8755 33.5141C13.9535 33.8152 14.3599 34.0154 14.6332 33.8223C15.2073 33.4168 15.4462 32.8972 15.8224 32.3089C16.3658 31.4586 17.0412 30.7319 17.8552 30.1339C18.552 29.6213 19.3154 29.2514 20.1281 28.9689C20.1411 29.0559 20.1615 29.1404 20.1905 29.2212C19.449 30.8555 19.2908 32.8496 20.077 34.2062C20.3751 34.7206 21.0701 34.4487 21.1207 33.9235C21.2333 32.7561 21.0423 31.6452 21.362 30.4885C21.42 30.2794 21.4922 30.0801 21.5699 29.8846C22.3889 29.7964 23.1703 29.6252 23.9227 29.3889C27.0356 30.9919 29.6557 34.1367 31.7642 36.5599C34.7478 39.9889 37.3611 43.6832 39.7036 47.5683C38.9378 48.0522 38.1978 48.5911 37.3555 48.9531C35.9205 49.5697 34.4165 49.662 32.9197 50.0317C32.3456 50.1734 32.3749 51.0083 32.9197 51.1654C34.9684 51.7557 38.097 50.9651 40.0292 49.3668C39.999 49.9072 40.0224 50.4532 40.0321 50.9471C40.0588 52.2836 40.1933 53.4365 40.742 54.6586C40.9188 55.0525 41.4429 54.8026 41.4757 54.4598C41.6065 53.0908 41.4201 51.7725 41.3793 50.4035C41.3678 50.0172 41.382 49.6253 41.3808 49.2364C41.6689 49.8963 42.1575 50.5029 42.6387 50.9279C43.9072 52.0482 45.7785 52.674 47.4581 52.6462C47.8307 52.64 48.0469 52.0657 47.6625 51.8918C46.4969 51.3656 45.1866 51.2215 44.069 50.5786C43.0267 49.9788 42.6165 49.2249 42.297 48.3045C43.0104 46.8011 45.1231 46.2217 46.5625 45.7385C48.0709 45.2318 49.6174 44.8426 51.1716 44.5046C54.5253 43.7749 57.9318 43.2958 61.2603 42.4493C64.3669 41.6594 67.4286 40.5168 70.0668 38.6636C72.3317 37.0724 74.6097 34.6215 77.462 34.279C77.7654 34.2905 78.0733 34.2831 78.3865 34.2538C78.6646 34.9823 78.9387 35.711 79.1327 36.4714C79.4507 37.7175 79.5616 38.9747 79.9896 40.1921C80.104 40.518 80.5086 40.4952 80.6313 40.1921C81.2652 38.624 81.0221 36.672 80.2918 34.9861C80.5095 35.0364 80.7295 35.0811 80.9502 35.1207C82.678 35.4327 84.1243 35.8787 85.7734 36.4398C86.0834 36.5451 86.3729 36.2171 86.2919 35.9213C85.8846 34.4375 84.1805 33.9915 82.8436 33.7718C82.1261 33.6537 81.4062 33.581 80.7026 33.463C82.6866 32.9265 84.5008 31.8889 85.5552 30.2424C85.777 29.8961 85.4025 29.3513 84.9914 29.5092C83.3615 30.1362 81.9566 31.1815 80.3125 31.7925C79.9422 31.9301 79.5639 32.0563 79.1818 32.1737C78.9982 32.0152 78.766 31.9108 78.4874 31.9079C78.2031 31.9049 77.9272 31.9218 77.6554 31.9475C72.8115 31.8286 71.4948 24.8874 69.41 21.5713C68.1299 19.5356 66.2743 18.087 64.6396 16.3624C63.3442 14.9957 62.094 13.0325 62.5602 11.1479C62.6918 10.8885 62.8086 10.6176 62.9168 10.3402C63.4918 9.95214 64.0732 9.57504 64.6739 9.23432C65.8126 8.58838 67.1166 8.22313 68.2003 7.49468C70.7163 9.19589 73.2288 10.9051 75.6676 12.7113C78.9503 15.1424 82.0265 17.8439 84.5848 21.0416C87.1505 24.2491 89.2167 27.8441 91.1906 31.4352C91.9581 32.8318 93.992 35.4342 93.3783 37.078C92.8362 38.5302 90.7948 39.2646 89.5399 39.9286C86.333 41.6253 83.6889 44.1142 80.9271 46.4255C77.871 48.9829 74.6215 50.8205 70.8367 52.0855C67.1642 53.3126 63.3629 54.1239 59.7256 55.461C56.0543 56.8108 53.0039 58.987 49.6511 60.9334C46.21 62.9313 41.5349 64.4976 38.123 61.5601C36.5747 60.2271 35.4866 58.4209 34.2175 56.8392C32.8872 55.1815 31.4563 53.6062 29.9589 52.0979C26.9513 49.0684 23.6816 46.309 20.3582 43.6353C17.009 40.941 13.5741 38.3575 10.2441 35.638C9.20835 34.7924 7.86176 33.7856 6.6039 32.6425C6.67991 32.3423 6.63703 32.0046 6.40161 31.7044C4.96629 29.8733 2.68804 26.8788 4.33483 24.5162ZM64.3675 32.3867C64.4012 32.5023 64.443 32.6156 64.4995 32.7245C64.6293 32.975 64.9431 33.1699 65.1318 33.4026C64.8955 33.6168 64.642 33.8235 64.3936 34.0335C64.1714 33.9767 63.9493 33.9932 63.7429 34.0657C63.7255 33.9235 63.7189 33.7774 63.7311 33.6247C63.7657 33.1888 63.902 32.7913 64.1126 32.4408C64.196 32.4225 64.2812 32.4044 64.3675 32.3867ZM71.5855 31.0389C71.6145 31.0753 71.6411 31.1125 71.6707 31.1483C72.3391 31.9623 73.104 32.6532 73.9475 33.1784C73.1835 33.6076 72.4524 34.1122 71.7343 34.6472C72.017 33.46 72.0165 32.1232 71.5855 31.0389ZM65.1631 28.6184C64.4338 28.8213 63.7586 29.162 63.1753 29.6134C62.805 29.8142 62.4522 30.0416 62.1301 30.2895C61.8625 30.4956 61.6956 30.7431 61.609 30.9987C59.94 32.7919 59.237 35.3638 61.1027 37.3569C62.01 38.3261 63.2729 38.8916 64.6133 39.0765C62.9083 39.7662 61.1251 40.2778 59.3015 40.6955C56.6721 41.2973 54.0056 41.7283 51.3662 42.2825C51.56 41.9986 51.7354 41.6931 51.8909 41.3683C53.5339 37.9419 52.4673 32.922 48.1889 32.2015C44.0876 31.5109 40.4897 35.5247 40.8736 39.4589C41.0699 41.473 42.2985 43.5682 44.2801 44.2736C43.1391 44.7571 42.0835 45.3836 41.2879 46.2513C38.6704 42.0764 35.6363 38.1493 32.2756 34.5508C30.2582 32.3908 28.0755 30.1132 25.4778 28.8018C27.5676 27.8814 29.4794 26.5454 31.4631 25.3021C35.1394 22.9978 39.0798 21.1345 43.2009 19.7761C46.1833 18.793 49.2971 18.3219 52.3375 17.5943C51.1618 18.9734 50.4908 20.8036 50.6676 22.6178C50.869 24.6813 52.1512 26.8341 54.2191 27.4857C54.8615 27.6883 55.7574 27.7045 56.6287 27.5294C56.8422 27.5487 57.0552 27.5608 57.2658 27.5629C59.3535 27.5839 60.8143 26.3434 61.6853 24.5269C63.2827 21.1954 62.3179 16.3592 58.3311 15.4311C59.0187 15.0339 59.6653 14.5811 60.2544 14.0676C60.4753 14.7869 60.7965 15.4834 61.1973 16.1258C62.8538 18.7809 65.7138 20.3945 67.3447 23.0664C68.6318 25.1749 69.373 27.5679 70.6409 29.6734C69.2325 28.3922 66.9291 28.1275 65.1631 28.6184ZM46.0721 36.7515C45.8485 37.5894 45.5312 38.5618 44.8193 38.9026C44.6907 38.6334 44.5925 38.3525 44.5451 38.1008C44.3996 37.3265 44.5389 36.6862 45.3138 36.2999C45.3694 36.2822 45.4268 36.2715 45.483 36.2558C45.7081 36.3735 45.9059 36.543 46.0721 36.7515ZM55.8656 19.9107C55.6417 20.7485 55.3247 21.721 54.6128 22.0617C54.4841 21.7926 54.386 21.5116 54.3386 21.2599C54.1931 20.4856 54.3321 19.8453 55.1073 19.459C55.1629 19.4413 55.2203 19.4306 55.2765 19.415C55.5015 19.5327 55.6994 19.7021 55.8656 19.9107ZM89.6189 58.1562C87.1674 62.0357 82.6428 64.1968 78.6527 66.1219C73.6837 68.5193 68.6152 70.7083 63.4631 72.6819C58.4 74.6215 53.2618 76.3759 48.0647 77.9212C45.491 78.6867 42.6919 79.8106 40.0446 78.7772C37.8471 77.9195 36.1151 76.1707 34.2367 74.7992C29.945 71.6659 24.9519 69.6356 20.3751 66.9713C18.0661 65.6274 15.8091 64.1906 13.6125 62.6698C12.5238 61.9159 11.4047 61.1668 10.3938 60.3091C9.15041 59.2541 8.48732 58.0217 7.95229 56.4944C5.92249 50.7001 3.93292 44.8677 2.44969 38.9058C1.48285 35.0207 -0.221324 29.7512 1.57956 25.8448C1.49142 26.7117 1.6186 27.6696 2.03237 28.735C2.68422 30.4128 3.77082 31.8144 4.96599 33.1394C5.26796 33.4742 5.61725 33.5295 5.91952 33.4227C5.96447 33.4668 6.00974 33.5112 6.0544 33.5543C9.14243 36.5241 12.4664 39.2353 15.7769 41.9498C22.4522 47.4237 29.1574 52.8101 34.3553 59.777C36.7368 62.9688 39.4536 65.1994 43.6561 64.8401C47.8086 64.4849 51.1781 62.0339 54.6314 59.9432C62.0242 55.4669 71.1638 55.34 78.4412 50.6661C81.9516 48.4115 84.84 45.3401 88.3113 43.0358C89.7591 42.0749 91.8773 41.3044 93.4694 40.1309C93.3064 42.5209 93.1337 44.9127 92.8199 47.2829C92.3349 50.9471 91.6253 54.9812 89.6189 58.1562Z" fill="#DEDEDE"/>
<path d="M40.3507 65.2077C40.4244 64.8404 39.8843 64.6825 39.7838 65.0516C39.255 66.9974 39.6578 68.9086 39.9878 70.8547C40.3868 73.2083 40.6013 75.8388 41.4593 78.0712C41.5897 78.4108 42.1229 78.3865 42.1238 77.9813C42.1283 76.0033 41.5477 73.9862 41.1815 72.0501C40.7684 69.866 39.9062 67.4289 40.3507 65.2077Z" fill="#DEDEDE"/>
<path d="M81.4449 57.5208C79.056 58.0168 76.7056 59.2262 74.4389 60.1182C72.2039 60.9978 69.9674 61.8733 67.7222 62.7268C65.476 63.5807 63.2305 64.4381 60.9848 65.2934C58.5649 66.215 56.1835 67.4199 53.5604 67.5802C53.4681 67.5858 53.4669 67.721 53.5604 67.7246C56.0134 67.8151 58.3617 67.0638 60.6728 66.3235C63.0474 65.5628 65.4047 64.7539 67.7512 63.9113C70.0981 63.0687 72.4417 62.2149 74.7734 61.3314C77.0922 60.453 79.702 59.7068 81.8084 58.3827C82.2692 58.0922 81.9663 57.4126 81.4449 57.5208Z" fill="#DEDEDE"/>
<path d="M54.3502 63.8265C62.4688 61.288 71.0095 59.1192 78.5283 55.0318C78.7409 54.9161 78.5969 54.5601 78.3618 54.6367C70.2207 57.2834 62.5005 61.1389 54.315 63.6981C54.2334 63.7236 54.2683 63.8522 54.3502 63.8265Z" fill="#DEDEDE"/>
<path d="M56.4761 70.6853C53.312 71.6181 50.2092 72.8094 47.0425 73.7635C46.8772 73.8132 46.8982 74.1016 47.0854 74.0794C50.3133 73.6979 53.8397 72.7802 56.6512 71.1008C56.8691 70.9707 56.7277 70.611 56.4761 70.6853Z" fill="#DEDEDE"/>
<path d="M80.5417 60.9927C77.2664 62.2039 74.1636 63.8276 70.8549 64.9796C70.7017 65.0328 70.763 65.2709 70.9227 65.2257C74.2254 64.2851 77.7787 63.2231 80.6999 61.3678C80.8865 61.2492 80.7694 60.9085 80.5417 60.9927Z" fill="#DEDEDE"/>
<path d="M21.2785 54.134C21.4216 54.2384 21.5938 54.0092 21.4666 53.8901C16.1888 48.9405 11.06 44.0149 6.77414 38.1447C6.72031 38.071 6.59668 38.14 6.64962 38.2175C10.6864 44.1341 15.4582 49.8863 21.2785 54.134Z" fill="#DEDEDE"/>
<path d="M20.7818 58.8893C17.5991 56.3869 14.5676 53.6686 11.8345 50.6793C11.6842 50.5149 11.4467 50.7571 11.5914 50.9224C14.4295 54.1693 17.4577 57.2144 20.8418 59.8958C23.9337 62.3456 27.2915 64.9151 30.9894 66.3641C31.2529 66.4673 31.3658 66.081 31.1689 65.9384C27.7715 63.4807 24.0916 61.4917 20.7818 58.8893Z" fill="#DEDEDE"/>
<path d="M27.9358 67.5539C25.6611 65.963 23.0998 64.7441 20.7719 63.2165C20.7113 63.1769 20.6589 63.2713 20.716 63.3124C22.9318 64.9101 25.2727 66.7166 27.8015 67.7837C27.9571 67.8496 28.0792 67.6544 27.9358 67.5539Z" fill="#DEDEDE"/>
<path d="M29.3636 59.8166C29.5529 59.9789 29.8824 59.7698 29.7295 59.5344C28.6174 57.8237 27.2241 56.3313 25.8834 54.8002C25.4971 54.3589 24.8563 55.0043 25.2404 55.4432C26.5616 56.9524 27.8378 58.5072 29.3636 59.8166Z" fill="#DEDEDE"/>
<path d="M41.3073 21.7294C37.2061 21.0388 33.6081 25.0526 33.992 28.9867C34.1931 31.0503 35.4755 33.2031 37.5435 33.8546C38.1859 34.0572 39.0818 34.0735 39.9531 33.8984C40.1666 33.9177 40.3795 33.9298 40.5898 33.9319C42.6776 33.9529 44.1384 32.7125 45.0094 30.8959C46.6523 27.4698 45.5855 22.4502 41.3073 21.7294ZM39.1903 26.2797C38.9667 27.1176 38.6493 28.09 37.9375 28.4307C37.8088 28.1616 37.7106 27.8806 37.6633 27.6289C37.5178 26.8546 37.6571 26.2143 38.432 25.8281C38.4876 25.8103 38.5449 25.7996 38.6011 25.784C38.8262 25.9017 39.0241 26.0712 39.1903 26.2797Z" fill="#DEDEDE"/>
</svg>
