<svg width="97" height="98" viewBox="0 0 97 98" fill="none" xmlns="http://www.w3.org/2000/svg">
<path d="M91.7536 36.5456C91.6466 36.4133 91.5319 36.3106 91.4135 36.2333C91.9478 31.519 91.0161 26.7283 88.667 22.5318C86.0983 17.943 82.1787 14.2346 77.9022 11.1328C77.2244 10.37 76.4089 9.76979 75.4556 9.44449C74.7825 9.00107 74.1059 8.5694 73.4281 8.15134C73.3706 8.11578 73.3137 8.08702 73.2571 8.06105C72.7342 7.40396 72.0688 6.86868 71.1553 6.32724C66.8813 3.7932 61.807 2.33275 56.9826 1.30923C50.7837 -0.00618201 44.2326 -0.555036 37.9814 0.730695C34.7226 1.40108 31.5386 2.65681 28.8728 4.67199C26.1566 6.7252 23.3919 9.85666 22.9342 13.3283C22.9117 13.498 22.9302 13.6431 22.9738 13.7689C18.9215 13.8524 14.961 15.3592 11.6487 17.935C6.12079 22.2337 2.97975 28.642 1.51282 35.3768C0.62258 39.464 0.270703 43.6542 0.0740404 47.8256C-0.0830426 51.1577 -0.267034 55.1488 2.69621 57.3526C2.73177 57.3789 2.76639 57.3956 2.80133 57.417C2.65352 58.3857 2.57313 59.3663 2.57004 60.3536C2.55798 64.4653 4.0243 68.3123 5.72098 71.9938C7.35674 75.5427 9.02776 79.1819 11.3395 82.3517C13.8296 85.7658 17.0879 88.4483 21.2484 89.5095C23.3805 90.0531 25.6204 90.1972 27.8112 90.0794C30.0172 89.9606 32.7018 89.8833 34.5244 88.5537C34.5497 88.5355 34.5726 88.5144 34.5955 88.4931C34.602 88.4977 34.6079 88.5024 34.6141 88.507C34.8859 88.6978 35.2625 88.3187 35.0742 88.0469C35.0191 87.9677 34.9656 87.8876 34.9112 87.8082C34.914 87.7624 34.9131 87.717 34.9093 87.6721C35.6558 88.9687 36.5816 90.1703 37.7362 91.2575C40.1602 93.5399 43.1287 95.2007 46.2938 96.2087C52.7636 98.2697 59.9703 97.6014 66.287 95.3191C72.2181 93.1759 80.2179 88.6332 79.8824 81.4859C80.3122 81.4253 80.7368 81.3461 81.1542 81.2432C84.4245 80.438 86.3775 77.5263 88.2783 74.9741C92.2589 69.6292 95.5688 63.4798 96.6244 56.83C97.7617 49.6747 96.3659 42.2507 91.7536 36.5456ZM91.7317 41.6709C91.5591 42.7742 91.3918 43.8787 91.2366 44.9894C91.082 46.0974 90.9345 47.2517 90.3346 48.2233C89.7762 49.1277 88.9072 49.8148 88.1036 50.4898C85.0794 53.0304 81.995 55.5851 78.4489 57.3724C74.6755 59.2741 70.5387 59.7812 66.4243 58.7732C66.1482 58.7055 65.8739 58.6322 65.6012 58.5546C70.4556 58.1881 75.2135 56.3616 79.3972 53.9311C84.8435 50.7669 88.9422 46.0646 90.6843 39.9492C91.0678 40.5129 91.4175 41.0868 91.7317 41.6709ZM88.4614 29.3136C87.9122 33.7321 85.5547 37.0493 82.2804 39.948C82.0881 40.1183 82.3376 40.4384 82.5544 40.3029C86.0362 38.1288 88.0928 34.0137 88.6157 30.005C88.9988 31.9488 89.0848 34.0128 88.7997 36.2098C88.7959 36.238 88.7904 36.2652 88.7867 36.2933C87.2743 38.9613 85.0844 41.2102 82.4913 42.8827C82.2937 43.0101 82.4668 43.3079 82.6756 43.1982C85.0955 41.9263 87.0433 40.119 88.4982 37.9238C87.4697 42.6722 84.7984 46.9078 80.8973 49.8658C75.9903 53.587 69.5984 56.2889 63.3797 56.288C61.8305 56.2877 60.3064 56.0932 58.8419 55.7178C57.4774 54.9967 56.1381 54.2268 54.8107 53.463C54.3778 53.2138 53.9581 53.249 53.6254 53.4385C52.1956 52.5115 50.9031 51.3711 49.7985 50.0378C49.8013 50.0161 49.8038 49.9945 49.8063 49.9725C52.8712 47.7214 55.8574 45.3451 58.7968 42.9195C60.3457 42.5173 61.8803 41.7003 63.3015 41.0834C65.2904 40.2198 67.248 39.2707 69.0993 38.1387C72.7447 35.9092 75.8997 32.9439 77.917 29.1411C79.8979 25.4076 80.8713 21.0257 80.3302 16.811C80.3237 16.7618 80.3159 16.712 80.3088 16.6625C84.1682 20.2003 87.2866 24.3559 88.4614 29.3136ZM75.2534 81.4575C71.8084 82.5011 68.2923 82.9238 64.6655 82.0165C60.5362 80.9834 56.9706 78.3965 54.426 75.0161C50.6294 69.9718 49.3638 64.1128 49.2939 58.1127C50.9383 62.0707 53.2284 65.8138 55.7668 69.1394C59.7328 74.3361 64.9988 78.6835 71.3303 80.6006C72.5756 80.9779 73.904 81.28 75.2534 81.4575ZM42.8158 27.7864C40.0433 22.0176 35.2671 17.0315 29.1833 14.8029C27.784 14.2906 26.3616 13.9767 24.9392 13.8422C25.6009 12.9145 26.0957 11.8947 26.6789 10.9204C32.8425 11.5639 39.0334 14.4662 42.2632 19.9956C44.1992 23.3098 44.2555 27.0072 44.0802 30.7444C43.6983 29.7425 43.2808 28.7539 42.8158 27.7864ZM47.3665 48.5118C47.4336 48.4991 47.502 48.4889 47.5694 48.4765C47.5882 48.5343 47.6071 48.5922 47.6269 48.6497C47.6158 48.7103 47.6052 48.7709 47.5944 48.8315C47.565 48.8355 47.5354 48.8395 47.506 48.8438C47.458 48.7798 47.407 48.7189 47.3588 48.6552C47.3616 48.6076 47.3644 48.5597 47.3665 48.5118ZM75.0113 12.4219C76.0738 13.1792 77.1223 13.9696 78.1397 14.7961C79.7819 19.5853 77.669 26.24 74.9841 30.0588C72.9306 32.9794 70.0347 35.1878 66.9428 36.9133C66.0965 37.3857 65.2313 37.8233 64.3553 38.2392C68.1157 34.9136 71.3706 31.2088 73.322 26.4883C75.1056 22.1741 75.9838 17.0763 75.0113 12.4219ZM30.029 7.087C31.7646 5.66645 33.8033 4.66365 35.9301 3.96915C38.0003 5.50287 40.056 7.06783 42.279 8.37521C42.4113 8.45282 42.5715 8.26079 42.4475 8.15658C40.5498 6.5638 38.4824 5.19366 36.4276 3.81269C36.6555 3.74373 36.8834 3.67445 37.1125 3.61229C39.2798 3.02509 41.5158 2.71431 43.77 2.60763C45.6742 4.07673 47.2005 5.79878 48.6921 7.67698C48.7444 7.74284 48.8529 7.65748 48.8081 7.58729C47.5743 5.65622 45.8687 4.0013 44.0634 2.59559C45.2645 2.54828 46.4695 2.55632 47.6723 2.61507C50.5639 4.32752 52.6443 7.21655 53.8264 10.3746C54.6638 12.6118 55.0698 15.0036 55.2856 17.3738C55.4761 19.4669 55.3543 21.6101 55.6774 23.6849C55.7148 23.9255 56.0481 23.8364 56.0704 23.6317C56.3339 21.2115 56.0398 18.5757 55.7275 16.1687C55.4139 13.7537 54.8685 11.3573 53.8512 9.13493C52.6409 6.49049 50.7979 4.16364 48.3721 2.65682C50.3072 2.78143 52.2315 3.02292 54.1131 3.34667C54.3026 3.37914 54.4922 3.41377 54.6817 3.4481C56.8985 5.59284 58.6394 8.21565 59.7186 11.113C60.9743 14.4851 60.9567 17.6867 60.9975 21.2152C61.0006 21.4762 61.3754 21.5266 61.4502 21.2764C62.449 17.93 61.5989 13.8178 60.3005 10.6671C59.1802 7.94787 57.5293 5.55761 55.4068 3.58232C59.5148 4.36186 63.6469 5.50656 67.4565 7.22828C69.441 9.86128 70.3223 13.0756 70.1819 16.4229C70.1767 16.5494 70.3579 16.5411 70.3733 16.4229C70.796 13.2117 69.8798 10.0598 68.0242 7.49145C68.0863 7.52083 68.1491 7.54836 68.211 7.57804C69.3711 8.13247 70.7509 8.79235 71.4565 9.596C71.4683 9.6093 71.4732 9.61424 71.4819 9.62382C71.5029 9.65691 71.5208 9.69278 71.5406 9.7268C71.579 9.84894 71.6371 9.96705 71.7172 10.0781C71.7911 10.2481 71.8569 10.4222 71.9237 10.5895C72.472 11.9625 72.7895 13.4297 72.9086 14.9016C73.1201 17.5188 72.8257 20.1682 72.1544 22.7016C70.6068 28.5418 66.996 33.0444 62.538 36.9795C61.0522 38.2909 59.5442 39.5769 58.0333 40.8595C57.7232 41.0228 57.4236 41.1969 57.1515 41.3976C56.9823 41.5225 56.8648 41.7062 56.7992 41.9078C54.5311 43.8333 52.2692 45.7659 50.0762 47.7761C50.023 46.8336 48.9204 46.329 48.2787 46.7622C48.0935 46.6376 47.8622 46.5702 47.5935 46.6101C47.5193 46.6209 47.4466 46.636 47.3727 46.6478C47.2725 43.8327 46.715 40.9458 46.1971 38.2559C46.1272 37.8926 46.0502 37.5305 45.9719 37.1684C45.9605 34.079 46.1139 30.9939 46.0103 27.9045C45.8888 24.2842 45.1074 20.7943 42.8476 17.8833C39.4743 13.5379 33.1972 9.86562 27.378 9.87057C28.1365 8.83654 29.0382 7.89777 30.029 7.087ZM12.0423 20.9298C16.2978 17.0683 22.0477 15.2302 27.6517 16.9492C33.1564 18.6375 37.5733 23.0628 40.2406 28.0511C41.9682 31.2821 43.0492 34.7806 43.8918 38.3332C43.907 38.3975 43.9206 38.4625 43.9354 38.5268C43.9707 38.947 44.018 39.3651 44.0808 39.7794C44.108 39.9591 44.1819 40.0988 44.2815 40.208C44.3019 40.3181 44.3223 40.4282 44.3421 40.5389C43.7694 39.8178 43.125 39.1554 42.4274 38.5713C39.3735 36.015 35.4823 35.0271 31.5806 34.7556C27.1338 34.4463 22.317 34.8242 18.1308 36.4303C14.2696 37.9115 10.5905 40.4486 7.49342 43.1703C5.03142 45.3339 3.1424 47.9422 2.6025 50.9824C2.53818 49.7533 2.63003 48.4923 2.69094 47.2724C2.72496 46.5878 2.76516 45.9035 2.80999 45.2192C5.53823 40.7123 10.17 38.0169 14.4728 34.903C14.6917 34.7447 14.5043 34.4034 14.2576 34.5351C10.0228 36.7952 5.47793 40.0243 2.87709 44.2705C3.03788 42.1326 3.27351 40.0005 3.64581 37.8889C6.03391 35.8811 8.57662 34.1272 11.1085 32.2716C11.3083 32.125 11.1382 31.8134 10.9109 31.9336C8.33449 33.2964 5.95876 35.177 3.77321 37.1764C3.77537 37.1653 3.77693 37.1542 3.7791 37.143C4.18386 35.0422 4.74045 32.9698 5.48165 30.9788C8.52219 29.2048 11.667 27.6621 14.8071 26.0508C14.9193 25.9932 14.8414 25.7993 14.7199 25.8442C11.5535 27.0149 8.54941 28.6547 5.67708 30.4528C7.08248 26.8699 9.12145 23.5804 12.0423 20.9298ZM3.06541 53.5808C3.0719 48.7635 6.80696 44.9424 10.4808 42.3048C14.6113 39.3394 18.8949 37.0209 24.0113 36.3963C28.712 35.8223 33.875 35.8601 38.252 37.8719C41.5977 39.4096 44.2113 42.2535 44.8916 45.7993C41.1877 42.0466 36.5309 39.4177 31.1972 38.3196C24.2917 36.8978 17.1284 38.357 11.5655 42.7445C7.79089 45.7217 4.85702 49.8865 3.46244 54.5032C3.30598 54.2026 3.17363 53.8953 3.06541 53.5808ZM23.442 87.3814C19.8405 86.8521 16.8071 85.0536 14.4332 82.3276C14.1728 82.0289 13.9236 81.7215 13.6809 81.4089C13.6277 77.6473 14.4651 74.1729 16.6191 71.0356C16.7387 70.8612 16.4669 70.6515 16.3253 70.8089C13.9647 73.4338 12.662 76.9707 13.0074 80.4936C12.1555 79.283 11.406 77.9979 10.7108 76.6853C10.7476 74.0662 12.3729 71.6926 13.589 69.4474C14.9113 67.0064 16.2177 64.5608 17.4849 62.0908C17.5483 61.9668 17.3671 61.8589 17.2972 61.981C15.7248 64.734 14.21 67.516 12.7 70.3039C11.6895 72.1694 10.5766 74.0544 10.4353 76.1611C10.0089 75.3361 9.59889 74.5041 9.19721 73.6757C8.95788 73.1821 8.71576 72.6859 8.47488 72.1871C9.02312 70.7984 9.47118 69.3698 9.75226 67.9056C9.77823 67.7699 9.58126 67.7114 9.54261 67.8478C9.16104 69.1972 8.76368 70.5213 8.30047 71.8259C7.5868 70.3401 6.89354 68.828 6.32488 67.2782C6.39105 67.3095 6.48567 67.2888 6.50546 67.2025C7.1842 64.2788 7.75935 61.3923 8.8209 58.5716C9.93532 55.6102 11.4347 52.8696 13.1518 50.2199C13.2171 50.1191 13.0631 50.0362 12.9941 50.1278C9.42912 54.8616 6.58649 61.1205 6.26243 67.1073C5.72439 65.6131 5.30507 64.0843 5.10439 62.5085C5.06203 62.1758 5.03173 61.8431 5.01008 61.511C5.55121 59.5172 6.2717 57.5926 7.05031 55.6479C7.10659 55.5078 6.8855 55.424 6.8119 55.5474C6.03546 56.8486 5.44238 58.2435 4.98783 59.6854C5.20397 54.6018 7.67432 49.7288 11.2786 46.1605C15.8967 41.589 22.2237 39.5293 28.6582 40.2451C34.3481 40.8781 39.9861 43.5355 44.3686 47.3735C36.589 49.9227 31.1882 57.1303 29.1672 65.0194C27.4059 71.8955 27.5129 81.4871 32.7668 86.9248C32.4266 86.9408 32.0899 86.9773 31.7525 87.0234C30.7541 86.1656 29.7154 85.3827 28.8456 84.3564C27.5812 82.8647 26.6266 81.2064 25.9562 79.3705C25.8956 79.2048 25.6316 79.2722 25.6878 79.4444C26.592 82.2107 28.4142 85.4306 30.9946 87.1387C30.4755 87.2237 29.9482 87.3153 29.3997 87.3793C27.4331 87.6075 25.4068 87.6703 23.442 87.3814ZM34.3964 87.0358C32.4875 84.1121 30.9881 80.9946 30.3539 77.518C29.6288 73.5442 29.935 69.4041 30.956 65.512C32.9659 57.8514 38.2106 50.9657 45.9321 48.8463C45.9401 48.8547 45.9481 48.8627 45.9562 48.8708C45.9834 48.9614 46.0121 49.0513 46.0403 49.1413C40.7208 50.5334 36.174 55.0898 33.7127 59.8143C30.0964 66.7556 31.1731 74.3371 32.7244 81.7085C33.132 83.6452 33.734 85.4627 34.6137 87.1319C34.5519 87.0905 34.4792 87.058 34.3964 87.0358ZM75.5008 86.1616C75.4853 86.1486 75.468 86.1378 75.4457 86.1331C74.1368 85.8536 72.6476 86.0734 71.3177 86.1062C71.0994 86.1115 71.0991 86.4399 71.3177 86.4454C72.5932 86.477 74.0131 86.6752 75.2806 86.4458C74.4671 87.4538 73.4238 88.357 72.2824 89.153C70.45 88.9204 68.7589 89.0982 66.9472 88.4334C64.8021 87.6464 62.9988 86.285 61.6595 84.4334C61.5532 84.2862 61.3073 84.4229 61.4118 84.5784C62.6404 86.4077 64.3142 87.8487 66.3297 88.7553C67.7088 89.3756 69.7218 89.9588 71.3835 89.7476C69.3943 90.9931 67.2298 91.9338 65.5275 92.5569C62.4122 93.6969 59.0856 94.4394 55.7451 94.6057C54.6542 92.3475 53.8598 90.0021 53.0215 87.6097C52.969 87.4597 52.7624 87.5209 52.7868 87.6743C53.173 90.1063 54.1792 92.4579 55.4152 94.6193C54.8258 94.6419 54.2364 94.6471 53.648 94.6323C52.9315 93.7433 52.225 92.8488 51.6053 91.8707C50.4859 90.1038 49.5944 88.2281 48.8972 86.2565C48.8715 86.1836 48.7562 86.2132 48.7797 86.289C49.6585 89.1304 50.9927 92.1793 52.9207 94.606C51.5626 94.5346 50.212 94.3543 48.8808 94.06C46.7354 89.5698 45.4454 84.8963 45.4209 79.8C45.4203 79.6825 45.2403 79.6825 45.2382 79.8C45.1547 84.6322 46.1389 89.6221 48.3783 93.9468C46.5459 93.4984 44.7861 92.8243 43.1788 91.9279C42.8758 88.0036 42.9141 84.0722 43.1828 80.1417C43.1939 79.9778 42.9184 79.937 42.8924 80.1025C42.2867 83.9414 42.2524 87.7952 42.6791 91.6391C41.5195 90.9449 40.4478 90.1304 39.4941 89.1991C37.355 83.399 37.0912 77.4407 38.0142 71.3101C38.0408 71.1326 37.7848 71.0504 37.7375 71.2338C36.2643 76.9342 36.9258 83.148 38.9666 88.6561C37.3624 86.9316 36.1462 84.8431 35.4962 82.3996C34.9588 80.3786 34.4533 78.2713 34.0921 76.1333C34.376 74.1852 34.8521 72.3052 35.7396 70.3741C35.8222 70.1942 35.5748 70.0399 35.4693 70.2161C34.7696 71.3834 34.1889 72.7149 33.7983 74.1061C33.3234 70.1543 33.457 66.1601 34.9041 62.472C36.0485 59.5555 37.8989 56.9089 40.167 54.7561C42.2038 52.8229 44.5696 51.4911 47.0357 50.2443C47.0898 50.5981 47.1467 50.9515 47.2138 51.304C46.0555 60.3193 47.3044 69.9706 53.1953 77.129C58.7167 83.8384 69.3003 87.1935 76.9826 82.245C76.9359 83.6844 76.3774 84.9909 75.5008 86.1616ZM87.6388 70.9561C86.7842 72.2415 85.8791 73.4948 84.9282 74.7109C84.7563 74.9305 84.5825 75.159 84.4063 75.389C80.2637 75.2289 76.5877 74.3955 73.2067 71.761C73.0635 71.6493 72.8591 71.8466 73.0038 71.9638C75.9992 74.3927 80.08 76.1163 84.0231 75.881C83.4038 76.6642 82.7291 77.4249 81.909 77.9333C79.5271 79.4095 75.9065 78.9231 73.2787 78.2979C70.0353 75.6893 66.6092 73.3844 63.5572 70.5247C63.496 70.4672 63.4063 70.5566 63.4651 70.6169C65.9666 73.1998 68.6995 75.8918 71.7654 77.8826C66.3532 76.2054 61.7879 72.5813 58.2019 68.2387C56.0593 65.6437 54.2009 62.8604 52.5577 59.9256C51.4813 58.0032 50.3561 55.9896 49.4219 53.9172C49.4609 53.3495 49.5076 52.7818 49.5614 52.215C51.2856 54.4546 53.716 56.1593 56.3669 57.2326C59.6685 59.0453 63.1181 60.6739 66.8226 61.3508C71.185 62.148 75.3848 61.3508 79.31 59.3356C83.1811 57.3483 86.6187 54.433 89.7994 51.4939C91.2604 50.1438 92.3331 48.7301 92.6241 46.7161C92.744 45.884 92.8189 45.0463 92.8721 44.2065C94.3517 48.2594 94.4361 52.6395 93.595 56.9346C91.621 57.9837 89.8723 59.0781 87.6364 59.5642C87.4598 59.6025 87.5362 59.8641 87.7103 59.8326C89.6908 59.4739 91.932 58.7815 93.4933 57.4173C93.0863 59.336 92.4998 61.2336 91.7728 63.0747C90.7072 63.4971 89.6317 63.8923 88.4774 64.1295C85.995 64.6394 83.4118 64.6737 80.9121 64.277C80.653 64.2358 80.5342 64.6183 80.8011 64.6796C83.2439 65.2402 85.6917 65.3601 88.1719 64.9647C89.1741 64.8048 90.252 64.5735 91.2963 64.2321C90.757 65.4814 90.1546 66.6981 89.5062 67.8738C85.8686 68.6338 82.2461 68.8398 78.5426 67.9662C78.3196 67.9137 78.2268 68.2461 78.4479 68.3101C81.8991 69.3098 85.619 69.5476 89.0823 68.6246C88.6197 69.4242 88.1388 70.204 87.6388 70.9561Z" fill="#DEDEDE"/>
<path d="M15.0851 58.6695C13.9014 60.5709 12.7527 62.4946 11.5885 64.4077C11.5709 64.4365 11.616 64.4628 11.6336 64.434C12.8003 62.5224 13.9831 60.6192 15.1303 58.6958C15.1473 58.6671 15.1027 58.6411 15.0851 58.6695Z" fill="#DEDEDE"/>
<path d="M22.0975 62.6719C20.3984 64.9177 19.2218 67.5535 18.3396 70.2149C18.2778 70.4017 18.5697 70.4796 18.6331 70.2959C19.5629 67.6076 20.8814 65.2378 22.3526 62.8212C22.4544 62.6539 22.2092 62.5244 22.0975 62.6719Z" fill="#DEDEDE"/>
<path d="M18.4514 81.1643C18.4224 82.4139 18.4208 83.6628 18.4165 84.9124C18.4162 85.0243 18.5909 85.0246 18.5906 84.9124C18.5866 83.6625 18.5847 82.4136 18.556 81.1643C18.5541 81.0972 18.453 81.0972 18.4514 81.1643Z" fill="#DEDEDE"/>
<path d="M18.7273 74.3138C17.7932 76.8537 17.2962 79.4976 17.0591 82.1881C17.0476 82.3164 17.2474 82.3152 17.2591 82.1881C17.5062 79.5075 18.0912 76.9252 18.8448 74.346C18.8671 74.2699 18.7539 74.2415 18.7273 74.3138Z" fill="#DEDEDE"/>
<path d="M21.7102 72.9472C20.9971 77.1491 21.0321 81.3545 21.5825 85.5769C21.6023 85.729 21.8431 85.734 21.8258 85.5769C21.3642 81.3829 21.4616 77.1646 21.8809 72.9703C21.8907 72.8735 21.7266 72.8507 21.7102 72.9472Z" fill="#DEDEDE"/>
<path d="M26.3203 82.2336C25.7795 80.6726 25.4746 79.0424 25.2875 77.4045C24.9251 74.2328 25.0661 71.0482 25.2705 67.8713C25.2811 67.709 25.0296 67.7102 25.0182 67.8713C24.769 71.4276 24.5238 75.0572 25.0275 78.6021C25.4282 81.4234 26.3095 84.8959 28.4314 86.9507C28.5594 87.0747 28.7641 86.9176 28.6772 86.7611C27.8346 85.2423 26.8973 83.899 26.3203 82.2336Z" fill="#DEDEDE"/>
<path d="M37.8337 61.3466C36.6618 63.1432 35.5235 64.9567 34.3946 66.7805C34.3176 66.9045 34.513 67.018 34.5897 66.8946C35.7224 65.0742 36.8421 63.2505 37.9314 61.4038C37.9685 61.3407 37.8733 61.286 37.8337 61.3466Z" fill="#DEDEDE"/>
<path d="M54.2663 86.9606C54.2239 86.908 54.1512 86.9825 54.1924 87.0345C55.7283 88.9761 57.4231 90.8849 59.3616 92.4359C59.4299 92.4907 59.5267 92.4001 59.4599 92.3376C57.6253 90.6208 55.8482 88.921 54.2663 86.9606Z" fill="#DEDEDE"/>
<path d="M50.5685 79.1201C50.5728 79.0756 50.5039 79.0762 50.4989 79.1201C50.3558 80.4114 50.5438 81.7425 51.1792 82.8885C51.2043 82.9333 51.267 82.8941 51.2469 82.8489C50.7039 81.6411 50.434 80.4485 50.5685 79.1201Z" fill="#DEDEDE"/>
<path d="M55.7877 83.8126C55.7258 83.6864 55.5406 83.7968 55.6 83.9223C57.3195 87.56 60.7206 91.0736 64.7797 91.9518C64.9334 91.9849 65.0559 91.7514 64.8935 91.6816C60.9324 89.9731 57.7435 87.7978 55.7877 83.8126Z" fill="#DEDEDE"/>
<path d="M50.9262 54.5514C50.8634 54.4256 50.6797 54.5357 50.7385 54.6612C52.3133 58.0209 54.2051 61.3468 56.6736 64.1372C56.7574 64.2321 56.9256 64.106 56.8511 64.0002C54.694 60.9359 52.6049 57.9151 50.9262 54.5514Z" fill="#DEDEDE"/>
<path d="M59.1231 62.3863C59.098 62.3353 59.0263 62.3801 59.048 62.4302C60.7137 66.2831 63.2948 69.7414 66.8455 72.0389C66.9352 72.097 67.0459 71.9584 66.9615 71.8886C63.7308 69.2209 60.9855 66.1714 59.1231 62.3863Z" fill="#DEDEDE"/>
<path d="M78.906 70.26C76.8812 69.4057 75.0668 68.6462 73.4202 67.1375C73.2844 67.0132 73.0837 67.2114 73.2173 67.3404C74.7347 68.8076 76.7087 70.1809 78.8389 70.5031C79.0009 70.5278 79.0557 70.3231 78.906 70.26Z" fill="#DEDEDE"/>
<path d="M89.1151 55.0602C90.7475 53.938 92.4831 52.5827 93.5648 50.8984C93.6325 50.793 93.481 50.6817 93.3941 50.7667C91.9383 52.1894 90.6612 53.6458 88.9834 54.8348C88.848 54.9309 88.9757 55.1561 89.1151 55.0602Z" fill="#DEDEDE"/>
<path d="M77.7653 61.1425C80.0628 61.6239 82.483 61.3317 84.3872 59.8942C84.4973 59.811 84.4054 59.6428 84.2774 59.7065C82.2301 60.7238 80.1274 61.2572 77.846 60.8491C77.6558 60.815 77.5717 61.102 77.7653 61.1425Z" fill="#DEDEDE"/>
<path d="M82.871 33.4437C84.786 31.4217 85.8457 28.7488 86.2137 26.0147C86.2365 25.8455 85.9787 25.771 85.9536 25.943C85.5513 28.7299 84.3683 31.0744 82.7 33.3116C82.6261 33.4118 82.7875 33.5321 82.871 33.4437Z" fill="#DEDEDE"/>
<path d="M81.9622 26.386C82.8871 25.2703 83.546 23.945 84.0386 22.5887C84.0943 22.436 83.8506 22.3701 83.7956 22.5216C83.3008 23.8831 82.6014 25.0631 81.7986 26.2595C81.7331 26.3566 81.8862 26.4775 81.9622 26.386Z" fill="#DEDEDE"/>
<path d="M83.7024 33.9931C85.6626 32.7262 86.9616 30.5094 87.7764 28.3739C87.8373 28.2144 87.5664 28.0981 87.4984 28.2567C86.5612 30.4349 85.0797 32.0057 83.4761 33.6996C83.3345 33.8487 83.5181 34.1121 83.7024 33.9931Z" fill="#DEDEDE"/>
<path d="M79.7062 40.8326C77.6941 42.7955 75.8199 44.8271 73.5685 46.5312C73.3678 46.6833 73.5577 47.0278 73.7704 46.8766C76.0722 45.2408 78.3444 43.3679 79.9316 41.0064C80.024 40.8688 79.8203 40.7213 79.7062 40.8326Z" fill="#DEDEDE"/>
<path d="M76.5673 40.0712C77.4813 39.0477 78.4823 38.0576 79.2584 36.9234C79.354 36.7839 79.1486 36.6436 79.033 36.7496C78.0308 37.6692 77.2018 38.7917 76.3273 39.8316C76.1885 39.9964 76.4204 40.2357 76.5673 40.0712Z" fill="#DEDEDE"/>
<path d="M64.1568 54.7958C60.696 55.0302 57.3924 54.4758 54.3184 52.819C54.2201 52.7658 54.1332 52.9136 54.2306 52.9692C57.2535 54.6944 60.7155 55.4959 64.1809 54.9755C64.2824 54.96 64.2592 54.7887 64.1568 54.7958Z" fill="#DEDEDE"/>
<path d="M78.7746 48.6503C76.3055 49.595 73.9344 50.868 71.5475 52.0016C71.3496 52.0956 71.5222 52.3845 71.7188 52.2945C74.1082 51.1998 76.5952 50.2073 78.8918 48.9283C79.0383 48.8467 78.9388 48.5876 78.7746 48.6503Z" fill="#DEDEDE"/>
<path d="M70.9099 48.344C68.8561 49.6486 66.5926 50.5076 64.1665 50.7522C63.9797 50.7711 63.9757 51.0642 64.1665 51.0478C66.6882 50.8311 68.9813 50.0385 71.0154 48.5243C71.1205 48.4464 71.0262 48.2704 70.9099 48.344Z" fill="#DEDEDE"/>
<path d="M63.5973 29.2718C63.524 29.3812 63.6963 29.5176 63.7816 29.414C66.4941 26.1258 69.0594 22.174 68.3692 17.7215C68.3271 17.4507 67.9183 17.5666 67.9582 17.8347C68.6067 22.1845 65.8831 25.8524 63.5973 29.2718Z" fill="#DEDEDE"/>
<path d="M57.8763 37.3188C58.8887 35.6116 59.9521 33.9249 60.851 32.1543C60.8967 32.0643 60.7715 31.991 60.7158 32.0751C59.6234 33.7331 58.6849 35.4926 57.7034 37.2178C57.6397 37.33 57.8107 37.4299 57.8763 37.3188Z" fill="#DEDEDE"/>
<path d="M65.6066 14.1096C65.6954 14.3591 66.0469 14.2595 66.0009 14.0007C65.4576 10.9577 64.1663 8.08442 62.5942 5.4437C62.5209 5.32063 62.3508 5.42827 62.4065 5.5535C63.6523 8.35162 64.5825 11.2301 65.6066 14.1096Z" fill="#DEDEDE"/>
<path d="M64.6332 22.8986C64.8487 20.8726 64.7185 18.7996 64.6941 16.7653C64.691 16.5191 64.3143 16.5188 64.3113 16.7653C64.2868 18.7993 64.1567 20.8723 64.3722 22.8986C64.3898 23.0659 64.6152 23.0662 64.6332 22.8986Z" fill="#DEDEDE"/>
<path d="M58.3956 20.928C58.4553 21.1213 58.7775 21.0972 58.763 20.8782C58.652 19.232 58.0465 17.5848 57.4735 16.0513C57.4024 15.8609 57.1003 15.9363 57.1634 16.137C57.6581 17.714 57.9098 19.3538 58.3956 20.928Z" fill="#DEDEDE"/>
<path d="M52.5545 21.5327C52.5715 21.6678 52.7666 21.6764 52.7718 21.5327C52.9128 17.8162 51.6723 14.1696 49.867 10.9605C49.7925 10.8281 49.5955 10.945 49.6642 11.0789C51.3723 14.4036 52.0882 17.8551 52.5545 21.5327Z" fill="#DEDEDE"/>
<path d="M31.038 7.00556C33.624 8.51733 36.1776 10.1352 38.8993 11.3946C39.0613 11.4698 39.1884 11.257 39.0397 11.1543C36.5727 9.45024 33.8819 8.07362 31.2663 6.61534C31.0121 6.47341 30.7863 6.85868 31.038 7.00556Z" fill="#DEDEDE"/>
<path d="M49.9952 23.973C50.0509 24.1787 50.3768 24.1409 50.3709 23.9223C50.2571 19.5144 47.6019 15.2116 44.4763 12.2648C44.2364 12.0384 43.878 12.3943 44.1136 12.6275C47.374 15.8563 48.8224 19.6427 49.9952 23.973Z" fill="#DEDEDE"/>
<path d="M8.9989 25.003C12.9387 23.1096 17.0043 21.8953 21.2523 20.93C21.3853 20.8997 21.3268 20.7076 21.1969 20.7287C16.9288 21.4253 12.7837 22.9544 8.9154 24.8601C8.81954 24.9075 8.90335 25.0487 8.9989 25.003Z" fill="#DEDEDE"/>
<path d="M18.1439 30.6667C16.53 30.927 14.9302 31.5272 13.3593 31.9781C13.1608 32.035 13.2449 32.3445 13.445 32.2882C15.0183 31.8476 16.6961 31.5183 18.2063 30.8927C18.3455 30.8352 18.2951 30.6422 18.1439 30.6667Z" fill="#DEDEDE"/>
<path d="M26.0019 25.3009C24.6247 25.5368 23.3065 25.6614 21.9147 25.4898C21.7817 25.4734 21.783 25.6821 21.9147 25.6985C23.2864 25.8677 24.7097 25.8436 26.0412 25.4434C26.134 25.4156 26.0944 25.2851 26.0019 25.3009Z" fill="#DEDEDE"/>
<path d="M16.8967 20.5832C23.3312 19.3543 29.2017 21.3797 34.4012 25.1182C34.5357 25.215 34.6879 25.0053 34.575 24.8928C30.0728 20.3964 22.8912 19.0176 16.8157 20.2897C16.6233 20.3299 16.7056 20.6197 16.8967 20.5832Z" fill="#DEDEDE"/>
<path d="M42.4572 35.2742C42.5082 35.3809 42.6832 35.3061 42.648 35.1938C41.6897 32.1434 39.9101 29.4989 37.7379 27.1761C37.5725 26.9992 37.3136 27.2621 37.4735 27.4405C39.57 29.7822 41.1068 32.4517 42.4572 35.2742Z" fill="#DEDEDE"/>
</svg>
