<svg width="129" height="149" viewBox="0 0 129 149" fill="none" xmlns="http://www.w3.org/2000/svg">
<path d="M123.686 68.3339C125.463 65.1545 124.918 60.4694 124.267 57.0536C123.508 53.0653 121.891 49.2677 119.727 45.8458C117.604 42.4874 115.129 39.3553 112.417 36.4541C109.773 33.6255 106.852 30.975 103.224 29.4908C101.417 28.7516 99.5684 28.3219 97.705 28.1347C97.6062 27.6062 97.3734 27.0659 97.1689 26.5426C96.5918 25.0643 95.9361 23.6166 95.181 22.2204C93.7369 19.55 91.9579 17.0403 89.968 14.7488C85.9243 10.0927 80.7201 6.33332 74.9521 4.12233C73.7816 3.67368 72.6375 3.43957 71.5188 3.41479C68.5178 2.06459 65.3113 1.05675 62.0348 0.498214C61.9813 0.41833 61.8819 0.373664 61.7739 0.441158C61.7684 0.444744 61.7628 0.448328 61.7573 0.451914C56.8293 -0.348879 51.7539 -0.130419 46.9954 1.46986C43.3443 2.69779 39.3149 4.79596 37.0977 8.06011C34.8091 11.4296 35.3823 15.9754 37.3328 19.3566C38.5075 21.3932 40.2399 23.0486 42.1062 24.449C43.998 25.8686 46.1653 27.3078 48.4001 28.1553C48.2133 28.9091 48.0603 29.6757 47.9495 30.4566C46.82 38.3983 50.7813 45.2758 56.4853 50.4943C56.5743 50.5759 56.6669 50.6326 56.7602 50.6789C55.8025 52.2844 54.9672 53.9626 54.2838 55.7112C52.9698 59.0726 51.9805 63.0319 52.3985 66.7055C52.2237 66.8653 52.049 67.0251 51.8752 67.1861C50.0832 68.4992 48.5494 70.059 47.1953 71.7949C47.118 71.8745 47.0408 71.9534 46.9638 72.033C46.9253 72.0727 46.9107 72.1168 46.912 72.1582C45.5716 73.9326 44.4056 75.8781 43.3332 77.9219C41.8304 80.7853 40.5431 83.7612 39.4763 86.8141C39.1923 87.6266 39.0028 88.6472 38.5532 89.3889C38.351 89.7225 38.0224 89.9628 37.8205 90.2937C37.591 90.6697 37.5313 91.0267 37.5682 91.3841C31.4517 95.8641 26.8194 102.452 28.2443 110.14C27.5752 110.32 26.911 110.517 26.2553 110.737C25.5638 110.846 24.8755 110.977 24.1927 111.126C23.9645 111.176 23.9723 111.435 24.1105 111.555C23.0763 111.998 22.0704 112.505 21.1056 113.09C19.2132 114.238 17.7639 115.683 16.1166 117.126C15.0296 118.079 14.2506 118.613 13.9288 119.841C11.7843 120.757 9.84363 122.183 8.07999 123.697C3.00297 128.055 -3.30066 135.16 2.02123 141.81C6.25181 147.096 13.6481 148.173 19.9977 147.529C23.2269 147.202 26.7369 146.95 29.8465 145.982C31.7308 145.395 33.6154 144.26 34.4498 142.539C40.1991 146.754 47.5285 149.43 54.5798 147.29C57.8273 146.304 60.7615 144.326 62.7032 141.521C63.3921 140.525 63.9314 139.426 64.3472 138.27C64.6419 138.246 64.9272 138.094 65.1193 137.756C65.1662 137.673 65.2089 137.589 65.2542 137.506C69.8239 137.373 74.4816 135.961 78.6763 134.255C83.1407 132.439 87.3791 130.065 91.1891 127.107C95.0196 124.133 98.7037 120.605 101.41 116.554C101.975 115.708 102.424 114.833 102.736 113.927C112.031 112.585 119.343 104.569 123.776 96.7986C128.687 88.1939 132.107 75.797 123.686 68.3339ZM60.8874 48.0662C65.3857 42.4783 71.4522 38.3983 77.8459 35.2724C82.2499 33.1191 87.1163 31.0546 92.0841 30.4148C87.7427 31.3164 83.4798 33.1051 79.675 34.9904C71.3681 39.1062 63.8969 45.2481 58.2832 52.63C57.6718 53.4341 57.0862 54.2593 56.5398 55.1084C57.6774 52.5876 59.1586 50.2136 60.8874 48.0662ZM73.6375 56.0422C79.1876 54.7253 84.9467 54.7839 90.608 55.0842C96.0137 55.3712 101.853 55.4273 106.851 57.7478C108.774 58.6409 110.519 59.8433 112.213 61.1107C111.011 60.5515 109.798 60.0396 108.586 59.5848C102.838 57.4273 96.6469 57.0905 90.5705 57.4703C84.4338 57.8541 78.2991 58.7498 72.2892 60.0393C67.0717 61.1587 61.6471 62.4049 56.7002 64.5203C61.8548 60.7211 67.4238 57.5166 73.6375 56.0422ZM111.176 38.3122C102.145 35.8626 91.9801 36.4586 83.5519 40.6716C83.382 40.7564 83.501 41.0485 83.6826 40.9817C92.5693 37.7191 101.778 36.7107 111.068 38.8245C111.267 38.8698 111.394 38.7061 111.391 38.5512C113.105 40.4769 114.63 42.5464 115.965 44.5327C116.045 44.6517 116.123 44.7724 116.202 44.8924C113.122 43.3765 109.777 42.2432 106.403 42.1574C106.098 42.1496 106.048 42.5947 106.332 42.6798C109.974 43.7727 113.542 44.6465 116.99 46.1373C118.472 48.5706 119.716 51.1765 120.59 53.886C117.564 50.8302 113.707 48.4373 109.388 47.9818C109.05 47.9462 109.031 48.4382 109.312 48.5403C113.68 50.1236 117.727 51.9851 121.007 55.2932C121.031 55.3816 121.057 55.4696 121.08 55.5583C121.626 57.6519 121.948 59.7997 121.973 61.9647C121.983 62.7893 121.907 63.6073 121.822 64.4231C117.102 59.4185 111.586 55.1504 105.055 52.7379C104.788 52.6395 104.625 53.0539 104.864 53.1905C110.819 56.5952 116.691 60.2271 121.773 64.8839C121.734 65.2422 121.698 65.5999 121.668 65.9579C119.628 64.4293 117.589 62.9011 115.549 61.3726C113.358 59.7305 111.182 57.9936 108.726 56.7549C103.887 54.3138 98.3349 54.1162 93.0332 53.8038C87.1408 53.4566 81.1792 53.2371 75.3431 54.3033C72.1807 54.8811 69.1382 55.8958 66.237 57.2329C68.3107 55.6874 70.4829 54.2802 72.7555 53.0347C75.9437 51.2873 79.3004 50.0281 82.6611 48.6707C82.9174 48.5674 82.8264 48.1761 82.544 48.2462C75.7428 49.9401 69.298 53.93 63.9262 58.3794C62.8049 58.9767 61.7061 59.619 60.6327 60.3028C58.483 61.6719 56.482 63.1841 54.5717 64.7974C54.5837 64.6941 54.5958 64.5907 54.6085 64.4874C57.2444 61.503 59.9999 58.6317 62.9399 55.9431C66.3416 52.8322 69.999 50.1014 73.6502 47.2987C73.9264 47.0867 73.6838 46.6205 73.3678 46.8158C66.3847 51.1328 60.0729 57.0569 54.7768 63.3798C54.8094 63.2086 54.8456 63.0377 54.887 62.8675C55.2515 61.3686 55.8263 59.933 56.5323 58.5636C56.8091 58.0262 57.1084 57.502 57.4201 56.9852C59.3663 54.2365 61.7087 51.8807 64.3155 49.6261C64.4521 49.508 64.2718 49.2707 64.1212 49.374C63.2157 49.9955 62.3589 50.6893 61.548 51.4383C65.0739 47.3773 69.135 43.8099 73.63 40.8548C78.1882 37.858 83.1127 35.425 88.3035 33.7387C94.1996 31.8231 100.039 31.2032 105.726 34.0999C106.074 34.2773 106.41 34.2701 106.694 34.1544C108.307 35.3663 109.801 36.7912 111.176 38.3122ZM47.5194 25.1373C48.0721 22.3368 49.0659 19.758 50.0483 17.0524C50.1412 16.7961 49.7558 16.654 49.6208 16.8721C48.1533 19.2429 47.4232 22.0854 47.0714 24.8699C46.9915 24.8223 46.9116 24.7747 46.8314 24.7271C46.7991 24.0294 46.7799 23.3319 46.8392 22.6338C46.9263 21.6123 47.2397 20.6452 47.361 19.6335C47.3991 19.3146 46.9531 19.2644 46.8057 19.4832C45.9498 20.7531 45.717 22.5794 45.9455 24.2031C45.1793 23.7463 44.4222 23.2752 43.7091 22.7408C43.3576 22.4777 43.0156 22.1995 42.6798 21.9139C43.2892 20.6097 43.8966 19.3038 44.4535 17.9781C44.4835 17.9064 44.3625 17.8558 44.328 17.9249C43.6928 19.1923 43.1053 20.4851 42.5206 21.7783C42.1506 21.4564 41.7942 21.1196 41.4528 20.7681C41.8575 18.6393 42.6057 16.6872 43.4659 14.6575C43.5334 14.4981 43.3276 14.366 43.2282 14.5186C42.0769 16.2878 41.4456 18.3524 41.1375 20.4398C40.3227 19.5513 39.6151 18.5699 39.0837 17.4792C38.4847 16.251 38.0853 14.8499 38.0341 13.4531C38.5401 12.4919 39.1456 11.5802 39.8502 10.7299C39.9096 10.6584 39.8127 10.5567 39.7466 10.6262C39.0798 11.3236 38.5111 12.0716 38.0357 12.8671C38.0667 11.9979 38.2395 11.1397 38.5962 10.3363C39.5496 8.18955 41.7345 6.71806 43.7029 5.58893C46.9257 3.74019 50.4947 2.77996 54.1423 2.5302C53.139 3.60912 52.3128 4.79923 51.6398 6.15888C51.5853 6.26909 51.7409 6.36298 51.8061 6.25604C52.6356 4.89932 53.6336 3.62575 54.7611 2.49499C56.0872 2.43336 57.4211 2.4614 58.7511 2.57682C57.0882 3.90028 55.5763 5.39232 54.2678 7.11162C54.1814 7.22508 54.3656 7.35942 54.4621 7.2616C56.0647 5.63882 57.724 4.07831 59.4955 2.65149C60.8874 2.80506 62.2708 3.05058 63.6331 3.37664C60.6132 4.65413 57.7285 6.90914 56.665 9.90722C56.5909 10.1159 56.8958 10.2933 57.0406 10.1257C58.3399 8.62353 59.3879 7.0614 60.9771 5.82369C62.1297 4.92606 63.4055 4.2071 64.7547 3.66226C65.5855 3.8905 66.4062 4.14874 67.2139 4.43437C66.7681 4.66293 66.3263 4.92508 65.8901 5.23059C63.0886 7.19117 60.6119 9.78788 58.2362 12.2307C55.8606 14.6738 53.6199 17.3377 51.8214 20.2442C52.945 16.7687 54.7073 13.6477 56.9891 10.7566C57.0213 10.7158 56.9659 10.6571 56.9307 10.6982C54.4647 13.5656 52.707 16.968 51.617 20.5764C50.5615 22.3267 49.6704 24.1647 49.0075 26.0946C48.5253 25.7578 48.0258 25.4431 47.5194 25.1373ZM56.8642 47.8047C58.4873 44.5931 60.411 41.5728 62.3983 38.5695C62.4717 38.4583 62.2963 38.3184 62.2112 38.4251C59.9637 41.2331 58.2052 44.3665 56.7099 47.627C56.5707 47.4669 56.4325 47.3058 56.2952 47.1441C57.2874 43.2608 59.1241 39.9021 61.4544 36.6184C61.5356 36.5039 61.353 36.3641 61.2601 36.4684C58.651 39.3895 56.9982 43.1457 56.1371 46.958C55.0894 45.7134 54.1015 44.4216 53.2407 43.0668C54.4064 39.9882 55.9969 37.1482 57.8606 34.4159C57.9271 34.3184 57.77 34.1938 57.695 34.2881C55.6578 36.8531 54.1651 39.7583 53.0933 42.8346C52.689 42.1832 52.3154 41.5171 51.9792 40.8346C53.2766 36.7814 55.1165 33.1619 57.3177 29.4745C57.4113 29.3177 57.1821 29.1282 57.0585 29.2746C54.4628 32.3474 52.6643 36.2992 51.705 40.2542C51.1732 39.0837 50.7568 37.8646 50.4917 36.5884C51.3229 31.4572 53.6352 27.1898 56.9467 23.1409C57.0686 22.9915 56.8802 22.7949 56.7328 22.927C53.6776 25.6583 51.6359 29.5479 50.6691 33.5903C51.4891 27.84 54.6434 22.3603 58.3275 18.0655C60.6291 15.382 63.1939 12.8241 65.9292 10.5815C69.0499 8.02327 72.8595 6.22474 76.8165 7.96425C77.1253 8.09989 77.424 8.09761 77.6802 8.00697C78.4739 8.45758 79.2394 8.93362 79.9643 9.39401C80.2453 9.57236 80.5238 9.75494 80.7996 9.94112C79.0135 10.17 77.3936 11.59 75.9541 12.5714C73.4891 14.2516 71.0404 15.934 68.7043 17.7929C68.5549 17.9116 68.7463 18.1437 68.9045 18.0521C71.0072 16.8326 73.0313 15.5066 75.0369 14.1349C76.7807 12.9425 79.4211 10.3604 81.7246 10.5897C83.1717 11.6356 84.5375 12.7896 85.8186 14.0364C81.2101 17.5986 76.5133 21.0756 72.0616 24.8324C71.9514 24.9254 72.0985 25.1194 72.2172 25.0339C76.9691 21.6319 81.5095 17.923 86.1108 14.3207C86.1339 14.3439 86.158 14.366 86.1812 14.3895C88.3009 16.5082 90.1512 18.8584 91.6661 21.4457C92.4072 22.7114 93.0766 24.0206 93.6629 25.3652C93.8001 25.6799 93.9296 25.9978 94.0561 26.317C90.0994 25.7369 86.1114 26.3284 82.5362 28.2433C82.3393 28.3489 82.5124 28.6206 82.7074 28.5364C86.3873 26.9456 90.341 26.3339 94.2889 26.9296C94.3636 27.1292 94.4405 27.3274 94.5116 27.5283C94.5709 27.6968 94.627 27.8664 94.6831 28.0359C89.743 28.1921 84.7906 29.8214 80.292 31.7957C74.675 34.261 69.2012 37.3937 64.5594 41.4561C66.9106 38.7019 69.3913 36.0647 71.9622 33.4674C72.0167 33.4126 71.9345 33.3317 71.8781 33.3829C68.8833 36.1091 66.1408 39.1362 63.6021 42.3172C62.6008 43.2458 61.6393 44.2178 60.7322 45.2429C59.6986 46.4111 58.7409 47.642 57.8674 48.9283C57.5303 48.5573 57.1951 48.1829 56.8642 47.8047ZM56.1641 143.742C56.007 143.821 55.8485 143.898 55.6852 143.971C51.4927 145.838 47.2651 145.465 43.2947 143.995C45.9312 141.046 47.8448 137.12 48.5739 133.305C48.6313 133.005 48.2338 132.903 48.1229 133.181C47.2873 135.275 46.4578 137.378 45.3909 139.369C44.5748 140.892 43.6005 142.311 42.6361 143.74C41.1496 143.14 39.7029 142.393 38.31 141.56C41.3377 138.818 43.0283 133.784 42.7032 129.912C42.6817 129.655 42.2699 129.552 42.2168 129.847C41.8255 132.015 41.3879 134.168 40.531 136.209C39.7668 138.03 38.6249 139.5 37.5669 141.105C36.8134 140.632 36.0778 140.137 35.3618 139.628C36.7576 137.784 37.204 135.3 37.5209 132.965C38.0622 128.977 37.622 125.187 34.8391 122.108C32.3454 119.35 28.7731 117.943 25.1229 117.626C23.0297 117.444 20.9077 117.627 18.8483 118.029C18.118 118.172 17.385 118.335 16.7909 118.658C19.207 116.243 22.4917 115.216 25.9472 115.38C26.0897 115.387 26.1249 115.155 25.9811 115.128C23.7453 114.711 21.5161 115.147 19.5819 116.181C20.3286 115.589 21.1112 115.046 21.9762 114.579C22.8549 114.104 23.7636 113.697 24.6903 113.334C25.6697 113.073 26.659 112.825 27.6649 112.56C27.7751 112.531 27.7927 112.394 27.735 112.32C28.9261 111.99 30.1344 111.72 31.3454 111.49C38.0778 110.212 45.8904 109.67 52.2948 112.557C58.262 115.247 61.9282 120.998 62.8284 127.374C63.3765 131.256 63.0006 135.443 61.2141 138.785C59.7524 140.715 58.0787 142.397 56.1641 143.742ZM35.1547 136.937C35.0125 134.738 34.5055 132.525 33.7579 130.596C32.44 127.195 30.1129 124.701 27.2469 122.514C25.5602 121.227 23.7669 120.062 21.8174 119.4C23.1634 119.284 24.5246 119.297 25.8608 119.472C28.8798 119.868 31.7644 121.174 33.7918 123.491C36.01 126.026 36.3259 129.131 35.993 132.368C35.8385 133.878 35.6262 135.462 35.1547 136.937ZM65.4844 129.204C65.0606 122.497 61.8848 115.874 56.1713 112.133C49.4992 107.764 40.905 107.969 33.3259 109.102C33.0295 109.146 32.7324 109.194 32.4357 109.243C40.1157 105.305 49.6453 106.648 56.7184 111.608C62.4463 115.624 65.9018 122.445 65.4844 129.204ZM2.54096 135.302C3.21785 134.4 3.88073 133.485 4.6688 132.663C6.0741 131.198 7.60851 129.856 9.27564 128.697C9.38585 128.62 9.28999 128.448 9.16935 128.514C7.09498 129.652 4.84682 131.249 3.14252 133.192C3.79985 131.668 4.84846 130.332 6.00628 129.108C8.33074 127.468 10.7726 126.014 13.2734 124.636C13.3738 124.58 13.2858 124.441 13.1854 124.485C11.1182 125.4 9.17196 126.526 7.31833 127.794C7.57167 127.551 7.82534 127.31 8.07607 127.073C9.81656 125.425 11.7132 123.755 13.8688 122.628C14.2203 122.468 14.5692 122.304 14.9161 122.135C15.1195 122.05 15.3243 121.969 15.5323 121.894C18.7127 120.759 21.5611 121.516 24.3114 123.331C27.2896 125.297 30.0275 127.669 31.5101 130.985C32.1811 132.485 32.5186 134.007 32.7259 135.55C32.4403 137.241 31.7422 138.811 30.7337 140.205C30.7565 140.139 30.7839 140.074 30.8054 140.007C30.8788 139.779 30.5338 139.692 30.4517 139.909C30.2352 140.482 29.9603 141.016 29.6453 141.519C29.5756 141.593 29.5074 141.669 29.4357 141.741C29.3949 141.783 29.39 141.838 29.407 141.887C28.8485 142.691 28.1693 143.397 27.4047 144.001C25.6009 144.383 23.7476 144.546 21.9263 144.802C21.5021 144.861 21.073 144.916 20.641 144.966C22.0896 144.223 23.4076 143.259 24.4787 142.166C24.5703 142.072 24.433 141.939 24.3358 142.023C22.5442 143.587 20.641 144.569 18.6172 145.154C15.7283 145.35 12.7638 145.218 10.0425 144.348C15.8581 142.866 21.0345 138.482 24.523 133.761C24.6221 133.627 24.4037 133.461 24.2925 133.584C22.223 135.864 19.8822 137.914 17.3869 139.718C16.4459 140.398 15.4704 140.996 14.4762 141.559C11.9526 142.111 9.14782 142.578 6.67501 141.599C4.47413 140.728 2.7542 138.703 2.8018 136.265C2.80376 136.169 2.66257 136.172 2.65507 136.265C2.46987 138.601 3.84257 140.598 5.86737 141.685C8.27106 142.976 11.0302 142.711 13.5838 142.054C12.3181 142.74 11.0301 143.387 9.75103 144.083C9.69038 144.116 9.66757 144.17 9.6692 144.223C8.47029 143.806 7.32159 143.241 6.25277 142.489C3.80311 140.764 2.14448 138.265 2.54096 135.302ZM28.7366 143.672C29.3151 143.013 29.8133 142.273 30.2104 141.47C31.557 140.277 32.4533 138.757 32.8961 137.078C32.9538 137.706 33.0021 138.337 33.0516 138.971C32.5052 139.337 32.1576 140.065 32.3741 140.681C31.7168 142.316 30.586 143.133 28.7366 143.672ZM96.5048 118.28C95.9179 111.506 92.0088 104.272 85.6934 101.5C85.5503 101.437 85.4231 101.644 85.5685 101.714C88.7068 103.22 91.1689 105.769 92.8464 108.799C94.6159 111.996 95.152 115.373 96.0265 118.822C94.4382 120.584 92.6619 122.206 90.9755 123.662C90.2611 124.278 89.5259 124.87 88.7802 125.447C89.0515 124.268 89.2354 123.056 89.2592 121.876C89.265 121.587 88.8868 121.58 88.7909 121.813C88.2102 123.222 87.8584 124.78 87.6374 126.31C87.1268 126.684 86.6093 127.049 86.0856 127.405C87.1571 124.41 87.3468 121.163 86.2246 118.103C86.1372 117.865 85.7955 117.957 85.8444 118.208C86.4724 121.44 86.5043 124.685 85.5105 127.792C84.5405 128.433 83.5496 129.041 82.5398 129.618C83.4462 125.091 80.9649 119.866 78.1873 116.54C78.1214 116.461 77.9802 116.568 78.0431 116.651C79.5375 118.637 80.5864 120.883 81.2277 123.284C81.8316 125.545 81.741 127.721 81.8847 129.993C80.8339 130.573 79.7637 131.12 78.6757 131.629C77.0604 132.384 75.4217 133.007 73.7646 133.554C74.2583 132.743 74.464 131.742 74.7193 130.834C74.9874 129.882 75.195 128.921 75.2495 127.931C75.2622 127.703 74.9179 127.609 74.8139 127.813C74.3659 128.693 74.0617 129.63 73.8161 130.585C73.5755 131.521 73.2377 132.516 73.2746 133.488C73.2752 133.488 73.2762 133.488 73.2762 133.488C73.2733 133.573 73.3157 133.64 73.3799 133.681C71.9524 134.141 70.5106 134.548 69.0583 134.935C70.1213 131.547 70.7059 128.125 70.7506 124.549C70.7535 124.315 70.4161 124.325 70.3929 124.549C70.03 128.099 69.4069 131.642 68.4763 135.089C67.6945 135.295 66.9093 135.497 66.1216 135.699C68.9028 128.96 67.6084 120.877 63.1795 115.085C58.2431 108.63 49.9903 105.126 41.951 105.169C37.9666 105.19 33.5058 106.082 30.5094 108.862C30.469 108.525 30.4429 108.189 30.4334 107.853C36.038 104.101 42.0273 101.567 48.4513 99.5309C48.6841 99.4572 48.5876 99.1233 48.3512 99.1683C41.8891 100.398 35.6751 103.505 30.4298 107.451C30.4318 107.187 30.4435 106.923 30.4634 106.66C30.7604 105.951 31.1582 105.273 31.6092 104.622C35.5101 102.244 39.56 100.27 43.757 98.4416C43.8708 98.392 43.7897 98.1999 43.6723 98.2404C39.49 99.6828 35.5065 101.806 31.841 104.295C32.5013 103.386 33.2456 102.526 33.9336 101.702C35.0836 100.325 36.3177 99.0444 37.696 97.9388C40.173 96.4233 42.8783 95.4526 45.762 94.8386C45.8415 94.8217 45.8252 94.6841 45.7424 94.6945C43.5741 94.9671 41.5073 95.6384 39.5786 96.6075C39.9562 96.375 40.3416 96.152 40.7423 95.9479C43.4056 94.5905 46.375 93.7728 49.2599 93.0368C52.3232 92.2556 55.4373 91.7059 58.5985 91.553C69.686 91.0163 80.8414 95.0144 89.4225 101.985C90.5836 102.928 91.7254 103.921 92.7558 105.008C92.7202 105.099 92.7228 105.206 92.8021 105.299C94.9955 107.88 96.3316 110.92 97.0092 114.185C97.1037 115.341 97.0848 116.512 96.9909 117.701C96.8318 117.896 96.6698 118.089 96.5048 118.28ZM99.5537 113.916C99.5237 113.974 99.4905 114.03 99.4598 114.087C99.0209 109.706 96.6564 105.532 93.4711 102.534C88.9491 98.2785 83.502 94.9664 77.7311 92.7066C71.927 90.4336 65.6266 89.2722 59.3891 89.503C55.9982 89.6286 52.6375 90.1969 49.3548 91.0427C46.121 91.8757 42.8059 92.8389 39.8356 94.3965C36.5929 96.0969 34.1169 98.7167 31.8922 101.575C32.7667 99.7591 33.9646 98.079 35.3001 96.6355C38.2588 93.4372 42.0554 91.0547 46.1112 89.5024C54.5837 86.2601 64.28 85.9347 73.1428 87.5457C82.2186 89.1956 91.0052 93.4604 96.3626 101.218C98.6714 104.562 101.655 109.903 99.5537 113.916ZM122.967 92.6514C121.685 95.2905 120.133 97.7722 118.33 100.062C117.314 93.7786 112.131 88.8695 107.695 84.6957C107.566 84.5744 107.372 84.7681 107.5 84.8903C112.215 89.3537 116.678 93.97 118.071 100.399C116.906 101.847 115.637 103.215 114.265 104.491C113.984 104.752 113.698 105.003 113.409 105.249C113.991 99.5658 110.017 93.5439 105.359 90.7603C105.156 90.639 104.971 90.9553 105.174 91.0769C107.794 92.6521 109.887 94.912 111.26 97.6466C112.575 100.267 112.836 102.832 112.934 105.647C111.097 107.147 109.117 108.371 107.03 109.423C107.833 105.096 107.355 100.543 105.25 96.6202C105.151 96.4366 104.827 96.5638 104.906 96.765C106.551 100.955 107.227 105.315 106.472 109.699C105.416 110.212 104.335 110.685 103.231 111.129C103.237 110.632 103.203 110.125 103.12 109.608C102.745 107.254 101.708 104.884 100.591 102.79C95.8047 93.8191 86.5907 88.1405 76.9306 85.7352C67.2777 83.3315 56.3236 83.2568 46.8543 86.5154C44.729 87.2467 42.5288 88.2565 40.4133 89.5086C40.5281 89.2566 40.6302 88.9954 40.7234 88.7287C43.253 86.3445 45.8239 84.0807 48.7799 82.217C51.8455 80.2845 55.1579 78.8215 58.5518 77.571C58.8026 77.4788 58.7067 77.0937 58.4397 77.1641C51.9668 78.8759 45.5076 82.7361 41.0208 87.8138C41.1362 87.4427 41.2507 87.0749 41.3801 86.7267C42.2256 84.4524 43.2076 82.2297 44.2986 80.0627C50.1673 76.511 56.2841 73.5025 62.5555 70.7007C62.6539 70.6567 62.5832 70.4852 62.4811 70.5246C56.2238 72.943 50.2293 76.1054 44.5141 79.6304C44.5582 79.5446 44.5989 79.4576 44.6433 79.3718C46.7675 75.2684 49.2423 71.2618 53.0529 68.5957C53.3839 68.6703 53.7924 68.4532 53.8667 68.0603C53.9858 67.9869 54.1008 67.9097 54.2221 67.8386C58.7282 65.2063 64.1059 64.0002 69.1418 62.8291C74.6743 61.5424 80.291 60.5956 85.9428 60.0279C91.4258 59.4775 97.0571 59.1779 102.5 60.2336C107.785 61.2584 112.496 63.7313 116.991 66.61C121.306 69.3733 125.063 72.2257 126.046 77.556C126.672 80.9499 126.105 84.4185 125.011 87.7039C123.936 84.4453 121.487 81.6321 118.774 79.6369C118.568 79.485 118.379 79.8257 118.576 79.9773C121.538 82.2604 123.287 85.161 124.744 88.4756C124.226 89.9158 123.617 91.3156 122.967 92.6514Z" fill="black"/>
<path d="M50.3808 10.5424C48.3482 12.4205 47.016 14.9481 46.2478 17.5839C46.2031 17.7375 46.4398 17.8017 46.4864 17.6498C47.3065 14.9751 48.7264 12.8049 50.5429 10.7048C50.6391 10.5936 50.4904 10.4413 50.3808 10.5424Z" fill="black"/>
<path d="M60.0531 22.9058C58.5135 24.7425 57.0964 26.6874 55.6347 28.5864C55.5483 28.6986 55.7394 28.8081 55.8248 28.6976C57.2807 26.8065 58.7922 24.9453 60.1682 22.9949C60.2158 22.9274 60.1066 22.8419 60.0531 22.9058Z" fill="black"/>
<path d="M61.4338 31.6444C58.5296 35.2649 56.3601 39.4316 54.66 43.7365C54.599 43.8911 54.8459 43.955 54.9078 43.8047C56.6757 39.5186 59.0203 35.6118 61.6069 31.7778C61.6754 31.6757 61.5124 31.5466 61.4338 31.6444Z" fill="black"/>
<path d="M64.6986 17.7932C67.6129 14.3762 71.2389 11.592 75.283 9.64022C75.5918 9.49121 75.3218 9.03472 75.0146 9.1808C70.8362 11.1707 67.3696 14.0084 64.5688 17.6932C64.5127 17.7675 64.6379 17.8643 64.6986 17.7932Z" fill="black"/>
<path d="M81.089 25.9035C83.7226 23.9631 86.5159 22.3371 89.661 21.3834C90.0213 21.2742 89.87 20.714 89.5049 20.8173C86.2658 21.7355 83.2821 23.2458 80.8833 25.6368C80.7515 25.7682 80.9296 26.0209 81.089 25.9035Z" fill="black"/>
<path d="M74.6864 25.8758C77.5368 24.208 80.3569 22.5073 83.3227 21.0486C83.5092 20.9569 83.3461 20.6857 83.1606 20.7714C80.1635 22.1604 77.229 23.7014 74.5566 25.6538C74.4262 25.7496 74.5403 25.9612 74.6864 25.8758Z" fill="black"/>
<path d="M71.9511 21.0522C74.2811 18.5934 76.9039 16.6661 79.6128 14.6589C79.7194 14.58 79.6281 14.4091 79.5065 14.4766C76.6059 16.0893 74.0454 18.4868 71.8086 20.9094C71.7206 21.0046 71.8614 21.1468 71.9511 21.0522Z" fill="black"/>
<path d="M67.944 11.7491C70.2633 10.127 72.753 8.92224 75.3116 7.73279C75.4348 7.6754 75.3474 7.47618 75.2196 7.51498C72.513 8.33697 70.0389 9.77227 67.7402 11.4009C67.5306 11.5496 67.7301 11.8988 67.944 11.7491Z" fill="black"/>
<path d="M79.2044 43.6045C74.0993 44.9935 69.2907 47.2955 64.7513 49.9887C64.5384 50.1152 64.7305 50.4455 64.9457 50.3213C69.5111 47.6868 74.3397 45.6864 79.2748 43.8611C79.433 43.8028 79.3727 43.5589 79.2044 43.6045Z" fill="black"/>
<path d="M106.055 35.1279C100.013 34.4083 93.8508 34.9082 87.9231 36.2114C87.8654 36.2241 87.8898 36.3122 87.9475 36.2998C93.9476 35.0193 99.9503 34.7914 106.055 35.2104C106.109 35.214 106.106 35.1341 106.055 35.1279Z" fill="black"/>
<path d="M68.4915 65.0968C61.7441 66.1307 55.2979 68.9824 49.6314 72.7304C49.5434 72.7885 49.6232 72.929 49.7145 72.8729C55.5787 69.2716 61.9068 66.9928 68.5619 65.3534C68.7321 65.3113 68.6564 65.0717 68.4915 65.0968Z" fill="black"/>
<path d="M62.1816 76.0594C56.4251 76.5432 50.9398 78.7506 46.2296 82.048C46.1246 82.1214 46.2218 82.2942 46.3313 82.2221C51.169 79.0526 56.5235 77.1823 62.2044 76.2302C62.3009 76.2142 62.2797 76.0512 62.1816 76.0594Z" fill="black"/>
<path d="M77.9106 71.8361C73.0106 71.3793 67.9907 71.8253 63.1354 72.5332C62.9371 72.5622 63.0223 72.8612 63.2182 72.8338C68.1185 72.153 72.9758 72.107 77.9106 72.0562C78.0544 72.0549 78.0495 71.8491 77.9106 71.8361Z" fill="black"/>
<path d="M79.9804 68.6438C76.4485 67.8359 72.7869 67.4906 69.1987 67.0165C68.9753 66.9868 68.9206 67.3765 69.1449 67.4127C72.7191 67.9894 76.322 68.7087 79.9387 68.95C80.1141 68.9618 80.1512 68.683 79.9804 68.6438Z" fill="black"/>
<path d="M67.5211 81.1993C63.5624 81.123 59.6517 81.5068 55.7524 82.1775C55.5776 82.2075 55.6526 82.4706 55.8254 82.4429C59.6957 81.8204 63.6051 81.5273 67.5207 81.392C67.6446 81.3874 67.6453 81.2016 67.5211 81.1993Z" fill="black"/>
<path d="M100.572 82.5462C105.108 85.1622 108.84 88.6464 112.085 92.7299C112.137 92.7948 112.248 92.7094 112.201 92.6409C109.25 88.3546 105.189 84.9202 100.67 82.3796C100.561 82.319 100.465 82.4843 100.572 82.5462Z" fill="black"/>
<path d="M97.2904 87.4264C97.2141 87.3625 97.1036 87.4711 97.1802 87.5366C100.736 90.5859 103.943 93.9312 107.138 97.3477C107.2 97.4135 107.29 97.3176 107.235 97.2505C104.296 93.6384 100.85 90.417 97.2904 87.4264Z" fill="black"/>
<path d="M97.437 91.9403C101.064 96.0153 103.919 100.606 106.274 105.516C106.341 105.654 106.585 105.555 106.526 105.41C104.457 100.317 101.397 95.7297 97.7288 91.6488C97.5508 91.4502 97.261 91.7427 97.437 91.9403Z" fill="black"/>
<path d="M103.734 71.2574C103.554 71.1736 103.395 71.4383 103.577 71.5267C107.248 73.3128 110.628 75.5965 113.639 78.3576C116.687 81.1532 119.021 84.371 121.388 87.734C121.534 87.9404 121.845 87.7636 121.729 87.5351C118.064 80.3201 110.95 74.6223 103.734 71.2574Z" fill="black"/>
<path d="M106.256 66.1519C112.37 68.8236 118.254 71.6786 122.939 76.4729C123.535 77.5029 124.062 78.5877 124.511 79.7315C124.625 80.0224 125.096 79.9047 124.988 79.5998C122.793 73.3728 118.047 67.8126 111.755 65.4976C111.51 65.4076 111.351 65.7949 111.578 65.9165C115.725 68.1422 119.308 71.0845 121.907 74.8508C117.675 70.6274 111.766 68.198 106.356 65.9172C106.223 65.8611 106.123 66.0936 106.256 66.1519Z" fill="black"/>
<path d="M109.843 81.8209C109.553 81.6363 109.289 82.0935 109.574 82.2803C113.886 85.1007 117.177 88.8572 120.05 93.0965C120.153 93.2485 120.376 93.1177 120.295 92.9531C118.018 88.2976 114.184 84.5816 109.843 81.8209Z" fill="black"/>
<path d="M53.4898 104.267C50.5798 103.217 47.4385 103.089 44.3853 103.399C44.0329 103.435 44.0228 103.985 44.3853 103.959C47.4486 103.733 50.3597 104.155 53.3604 104.736C53.6685 104.796 53.7846 104.374 53.4898 104.267Z" fill="black"/>
<path d="M60.5139 97.2648C59.1712 96.942 57.8233 96.6408 56.4767 96.3336C56.3961 96.3154 56.3619 96.4396 56.4424 96.4575C57.7923 96.7536 59.1412 97.0555 60.4943 97.3359C60.5403 97.345 60.5602 97.2759 60.5139 97.2648Z" fill="black"/>
<path d="M71.5635 95.6525C68.794 94.5795 66.001 93.572 63.2106 92.5537C63.0884 92.5091 63.0359 92.704 63.1572 92.7484C65.9437 93.7699 68.7256 94.8012 71.5319 95.7677C71.6056 95.7928 71.634 95.6799 71.5635 95.6525Z" fill="black"/>
<path d="M69.3552 116.933C71.6298 121.611 72.292 126.448 72.2937 131.6C72.2937 131.745 72.4974 131.737 72.5137 131.6C73.1222 126.555 71.7517 121.341 69.4817 116.859C69.4394 116.775 69.3145 116.849 69.3552 116.933Z" fill="black"/>
<path d="M75.1744 116.596C76.7314 121.474 78.6176 126.852 76.7995 131.921C76.7317 132.11 77.0408 132.243 77.1262 132.059C79.5325 126.877 77.6984 121.38 75.5598 116.434C75.465 116.214 75.1024 116.37 75.1744 116.596Z" fill="black"/>
<path d="M73.5786 106.075C73.4873 105.991 73.3523 106.124 73.4423 106.211C79.2845 111.807 84.5777 117.722 84.7929 126.236C84.7975 126.418 85.0463 126.406 85.0681 126.236C86.1333 117.925 79.1339 111.159 73.5786 106.075Z" fill="black"/>
<path d="M79.4422 103.948C82.6963 105.893 85.8656 108.114 88.3159 111.043C90.9654 114.209 92.2599 117.781 92.4653 121.881C92.4734 122.043 92.6961 122.037 92.7127 121.881C93.595 113.59 85.8561 107.478 79.5114 103.829C79.4348 103.785 79.3663 103.903 79.4422 103.948Z" fill="black"/>
<path d="M52.3367 130.565C52.0788 126.582 50.0433 122.767 47.4381 119.824C47.367 119.744 47.2542 119.86 47.3213 119.941C49.9536 123.101 51.2317 126.636 52.1118 130.596C52.1392 130.721 52.3452 130.695 52.3367 130.565Z" fill="black"/>
<path d="M56.7493 123.899C60.4918 129.668 59.3271 136.857 55.1467 142.006C55.0215 142.16 55.2145 142.362 55.3671 142.226C60.4927 137.665 60.6734 129.217 56.9312 123.793C56.8553 123.682 56.6746 123.784 56.7493 123.899Z" fill="black"/>
<path d="M52.7806 134.602C52.8477 138.961 50.476 141.907 47.2477 144.494C47.0703 144.636 47.2617 144.954 47.4707 144.877C51.4731 143.418 53.598 138.613 53.4591 134.602C53.4441 134.167 52.7737 134.164 52.7806 134.602Z" fill="black"/>
<path d="M42.6972 123.416C44.2531 125.953 44.7728 128.642 44.8452 131.586C44.8508 131.818 45.2247 131.892 45.2684 131.643C45.8015 128.611 44.9626 125.612 43.378 123.018C43.1139 122.586 42.4311 122.982 42.6972 123.416Z" fill="black"/>
<path d="M42.7702 137.88C42.3421 139.216 41.8266 140.562 41.5843 141.945C41.5455 142.168 41.8612 142.347 41.9782 142.111C42.6147 140.832 43.0053 139.422 43.4598 138.07C43.6065 137.633 42.9107 137.441 42.7702 137.88Z" fill="black"/>
<path d="M39.1686 127.902C39.3212 129.583 39.2068 131.24 38.9782 132.91C38.9612 133.034 39.1383 133.093 39.1729 132.963C39.617 131.295 39.6773 129.617 39.5172 127.902C39.4966 127.681 39.1484 127.678 39.1686 127.902Z" fill="black"/>
<path d="M30.6908 115.37C28.5789 115.026 26.3282 115.291 24.229 115.625C23.9897 115.663 24.0927 116.022 24.3291 115.987C26.4511 115.673 28.5206 115.751 30.6507 115.667C30.8121 115.661 30.8669 115.399 30.6908 115.37Z" fill="black"/>
<path d="M38.0555 113.044C36.405 112.496 34.7466 112.014 33.0707 111.551C32.6827 111.443 32.5151 112.059 32.9048 112.152C34.5986 112.557 36.285 112.937 37.9968 113.256C38.135 113.282 38.1911 113.089 38.0555 113.044Z" fill="black"/>
<path d="M15.9091 137.763C19.0209 137.711 21.9734 135.443 22.2023 132.23C22.2108 132.113 22.0366 132.098 22.004 132.203C21.1491 134.979 18.8964 137.237 15.9091 137.451C15.7111 137.465 15.7063 137.766 15.9091 137.763Z" fill="black"/>
<path d="M27.2619 132.258C27.2606 132.336 27.3747 132.333 27.3812 132.258C27.5987 129.626 26.347 127.149 24.2654 125.572C24.2325 125.547 24.1881 125.604 24.2211 125.63C26.3114 127.265 27.3033 129.631 27.2619 132.258Z" fill="black"/>
<path d="M25.3204 142.464C29.3983 140.098 33.6243 134.178 29.6161 129.844C29.4661 129.682 29.2366 129.919 29.3762 130.084C31.1088 132.122 30.9569 134.977 29.7475 137.244C28.6598 139.283 26.77 140.663 25.1482 142.241C25.0321 142.354 25.1805 142.546 25.3204 142.464Z" fill="black"/>
<path d="M25.1091 139.786C24.055 140.629 22.9568 141.395 21.813 142.041C24.3373 140.287 26.2294 137.642 27.1838 134.661C27.2875 134.338 26.7929 134.21 26.6797 134.523C25.0807 138.936 21.4993 142.083 17.1807 143.751C17.1383 143.768 17.1126 143.796 17.0992 143.829C15.7637 144.08 14.3705 144.125 12.9146 143.904C12.7496 143.878 12.6733 144.124 12.8438 144.16C17.3366 145.106 22.6921 144.015 25.4762 140.07C25.6416 139.835 25.2992 139.634 25.1091 139.786Z" fill="black"/>
</svg>
