<svg width="897" height="225" viewBox="0 0 897 225" fill="none" xmlns="http://www.w3.org/2000/svg">
<path d="M710.075 193.895C702.669 198.716 695.154 203.159 687.524 207.08C686.003 207.246 684.766 207.167 683.936 206.85C683.803 206.544 684.221 205.232 684.56 204.177C685.676 200.7 687.542 194.882 685.87 186.029C683.506 173.561 676.403 166.823 674.282 165.054C668.639 160.35 663.112 156.772 651.731 156.772C647.912 156.772 643.434 157.175 638.07 158.073C643.47 150.09 648.046 145.173 653.749 139.867C659.088 134.893 678.082 119.505 698.239 130.315C713.039 138.255 717.087 155.241 718.136 162.175C720.421 177.228 715.409 187.505 710.075 193.895ZM697.088 204.04C698.791 203.07 700.487 202.076 702.178 201.059C700.481 202.224 698.76 203.217 697.088 204.04ZM671.167 214.557C671.645 213.959 672.088 213.326 672.488 212.66C680.276 199.718 677.755 182.21 670.615 174.594C665.615 169.255 656.476 165.542 648.852 165.542C648.034 165.542 647.234 165.585 646.458 165.674C640.052 166.401 635.367 168.141 628.979 175.244C627.725 176.636 626.707 178.104 625.876 179.605C627.264 176.259 629.337 172.175 632.925 166.189C634.222 164.025 635.452 162.049 636.64 160.225C658.573 156.22 665.5 160.182 673.082 166.5C675.082 168.168 681.779 174.527 684.021 186.379C685.609 194.762 683.833 200.295 682.773 203.602C682.033 205.899 681.397 207.886 683.318 208.621C683.536 208.705 683.773 208.777 684.021 208.837C679.779 210.917 675.494 212.833 671.167 214.557ZM627.228 206.587C627.507 206.405 627.798 206.242 628.095 206.099C630.767 204.798 638.907 204.468 642.991 207.434C644.925 208.837 645.7 210.736 645.361 213.237C645.27 213.949 644.797 214.505 643.925 214.939C641.07 216.357 635.355 215.716 632.676 214.198C630.937 213.213 628.852 210.476 627.228 206.587ZM666.658 216.282C661.397 218.202 656.07 219.835 650.682 221.135C644.216 221.384 637.331 220.135 631.416 217.646C627.616 216.048 625.113 213.639 623.531 210.832C624.082 209.713 624.828 208.669 625.713 207.802C627.373 211.603 629.537 214.584 631.749 215.835C634.907 217.623 641.276 218.357 644.761 216.626C646.191 215.912 647.046 214.828 647.228 213.49C647.652 210.327 646.567 207.706 644.094 205.909C639.216 202.37 630.307 202.933 627.27 204.406C627.022 204.526 626.779 204.657 626.537 204.801C625.889 202.945 625.349 200.88 624.985 198.661C624.161 193.544 623.755 183.861 630.373 176.503C636.361 169.847 640.719 168.218 646.67 167.544C654.021 166.714 664.155 170.449 669.246 175.882C675.906 182.994 678.027 199.817 670.882 211.687C669.797 213.487 668.361 215.015 666.658 216.282ZM627.749 221.704C624.434 220.41 622.616 218.184 622.501 215.27C622.47 214.568 622.543 213.848 622.707 213.133C624.476 215.67 627.046 217.847 630.688 219.38C634.507 220.988 638.719 222.114 642.985 222.68C638.973 223.228 632.64 223.611 627.749 221.704ZM622.664 189.864L622.925 188.889C622.41 192.817 622.725 196.42 623.131 198.962C623.531 201.395 624.161 203.769 624.967 205.947C624.046 206.755 623.228 207.721 622.555 208.782C620.095 202.534 621.295 194.956 622.664 189.864ZM628.695 159.944C628.476 159.996 627.852 160.1 627.192 158.699C623.773 151.472 627.373 118.869 647.882 102.864C654.118 98.0006 665.615 89.0273 681.324 89.0273C681.621 89.0273 681.918 89.0309 682.221 89.0376C694.851 89.3114 707.421 95.5371 717.615 106.566C728.554 118.401 735.166 134.308 734.457 147.093C734.13 152.971 732.42 157.753 731.602 158.329C731.154 157.765 730.675 155.366 730.257 153.24C729.026 147.069 727.172 137.744 720.705 130.108C712.396 120.292 700.142 117.982 694.906 116.995C676.051 113.442 655.155 119.861 642.925 132.971C635.179 141.264 633.216 148.853 631.913 153.875C630.937 157.65 630.385 159.491 628.695 159.944ZM605.58 108.178C607.889 99.6665 614.174 83.7753 630.391 72.9631C634.446 70.2603 645.216 63.0785 659.797 63.3863C677.07 63.7542 691.166 73.9041 694.882 79.2574C696.106 81.0246 695.966 81.8302 695.894 82.0336C695.597 82.8957 692.748 82.6328 689.457 82.3262C683.476 81.7701 674.433 80.9317 663.13 84.0849C642.985 89.7066 637.816 98.0862 634.725 103.092C628.785 112.708 626.652 120.092 625.24 124.978C623.682 130.368 623.01 132.257 620.276 132.762C616.022 133.549 611.513 130.112 607.889 127.354C606.216 126.076 604.846 125.036 603.689 124.547C603.525 116.816 604.895 110.722 605.58 108.178ZM593.756 138.714C593.168 139.071 592.731 139.264 591.998 139.281C589.786 138.474 587.422 137.183 585.531 135.45C583.841 133.901 582.532 132.066 581.538 129.765C585.41 123.755 587.404 114.776 587.974 106.787C588.671 97.0991 587.447 86.143 583.58 79.0589C584.925 76.792 586.598 74.669 588.683 72.7203C597.962 64.031 612.586 61.3604 621.628 63.2581C624.567 63.8737 626.567 64.9568 627.107 66.2281C627.943 68.1677 624.804 70.7035 620.458 74.2137C613.877 79.5294 603.937 87.5593 599.713 101.032C596.107 112.539 596.337 121.187 596.501 127.499C596.659 133.345 596.75 136.874 593.756 138.714ZM586.095 138.301C583.374 137.737 579.707 136.976 574.362 136.016C574.592 135.939 574.823 135.85 575.047 135.749C577.041 134.873 578.78 133.408 580.277 131.527C581.313 133.609 582.629 135.337 584.265 136.837C584.822 137.349 585.441 137.841 586.113 138.305C586.107 138.303 586.101 138.303 586.095 138.301ZM568.041 134.076C566.15 133.028 564.75 131.612 563.283 129.773C561.083 127.01 560.732 124.483 560.205 120.656C559.902 118.468 559.526 115.746 558.695 112.39C556.629 104.019 554.726 99.1584 550.029 95.8297C541.356 89.6811 535.696 90.7314 530.223 91.7476C529.308 91.9188 528.357 92.0949 527.411 92.2315C526.223 92.4027 525.787 92.2764 525.66 92.223C525.599 91.0343 529.684 86.9541 531.235 85.4023C531.738 84.8942 532.205 84.4322 532.581 84.0388C537.95 78.453 545.623 74.6125 555.38 72.6243C564.665 70.732 572.065 71.4508 577.374 74.7631C578.95 75.7448 580.289 77.2042 581.422 79.0127C575.544 89.6841 576.344 103.073 577.18 117.079C577.483 122.24 578.186 126.264 579.404 129.51C577.883 131.658 576.156 133.206 574.295 134.026C572.368 134.871 570.307 134.654 568.041 134.076ZM582.519 81.0088C585.75 87.6996 586.744 97.7147 586.101 106.652C585.495 115.134 583.531 122.439 580.695 127.465C579.829 124.646 579.307 121.221 579.053 116.966C578.265 103.75 577.513 91.0974 582.519 81.0088ZM516.417 111.293C518.981 107.459 523.423 104.725 528.587 103.792C533.684 102.873 538.647 103.815 542.211 106.38C548.259 110.73 551.368 115.55 551.453 120.706C551.556 127.114 546.999 132.093 545.393 133.33C545.259 133.432 545.15 133.507 545.065 133.561C544.987 133.217 544.92 132.671 544.865 132.206C544.49 129.037 543.787 123.142 535.756 121.373C535.314 121.276 534.872 121.226 534.435 121.226C532.841 121.226 531.278 121.864 529.86 123.11C528.847 123.993 527.963 125.145 527.272 126.353C524.563 125.27 521.496 124.482 518.363 124.146C517.084 124.01 515.69 124.204 514.256 124.535C513.271 119.414 513.989 114.915 516.417 111.293ZM534.89 134.599C534.975 134.883 534.732 135.477 534.102 136.067C533.175 136.928 531.563 137.615 530.217 137.092C528.714 136.51 527.787 134.57 527.532 131.482C527.484 130.928 527.708 129.927 528.169 128.799C531.793 130.526 534.314 132.724 534.89 134.599ZM55.8441 115.355C46.843 118.013 37.7098 117.779 27.3282 111.423C22.564 108.506 20.0077 102.816 20.9658 97.2649C22.0428 91.027 27.0863 86.523 34.8044 84.9064C35.9202 84.672 37.0583 84.5573 38.2056 84.5573C41.9831 84.5573 45.8679 85.8079 49.4285 88.2113C53.9951 91.2905 57.3175 95.8977 58.1005 100.231C59.0077 105.258 58.2168 110.386 55.8441 115.355ZM222.693 106.421C225.597 100.76 229.971 95.6737 234.865 91.3196C236.22 92.5739 237.615 93.7529 238.962 94.8869C239.822 95.6142 240.66 96.3202 241.449 97.0166C241.767 97.2958 242.079 97.566 242.39 97.8295C236.367 102.726 229.395 107.565 221.219 109.622C221.658 108.549 222.15 107.482 222.693 106.421ZM288.84 48.9728C290.166 46.5918 291.483 44.4445 292.726 43.0573C307.608 26.4352 342.958 21.6434 371.086 22.7143C400.374 23.8211 424.204 30.924 431.795 40.8092C434.931 44.8907 435.547 49.0311 433.581 52.781C428.574 62.3427 405.673 71.6542 356.422 69.1142C313.195 66.8849 295.661 55.8863 288.84 48.9728ZM356.325 70.9925C378.237 72.1217 397.169 70.9287 411.076 67.5418C423.746 64.4553 432.104 59.6533 435.247 53.657C437.577 49.2071 436.898 44.3674 433.284 39.6631C425.367 29.3517 400.981 21.9615 371.156 20.8324C342.606 19.753 306.645 24.6935 291.327 41.7994C290.07 43.2042 288.784 45.2483 287.502 47.517C286.539 46.3896 285.889 45.4261 285.468 44.7025C283.179 40.7922 282.877 36.8911 284.588 33.4222C288.128 26.2537 297.272 20.1597 311.031 15.7972C343.783 5.41473 401.337 6.31264 437.211 25.8706C445.701 30.4997 449.687 36.4224 448.739 43.0008C447.192 53.7202 433.088 63.7335 413.641 67.9182C388.31 73.3668 363.028 74.255 334.077 70.712C311.426 67.9388 295.604 61.5692 285.785 54.6648C286.081 54.1118 286.38 53.549 286.68 52.9814C287.073 52.2407 287.469 51.4928 287.865 50.757C299.069 61.891 323.838 69.3175 356.325 70.9925ZM228.459 78.612L228.41 78.422C227.59 75.3568 225.412 67.2115 232.015 59.1536C236.814 53.2958 245.509 49.7225 253.657 50.2525C259.404 50.6289 267.549 53.1641 273.719 63.0955C274.634 64.5701 275.733 65.3041 276.961 65.2543C279.649 65.162 282.148 61.3367 284.873 56.3549C296.217 64.2192 313.581 70.0976 333.849 72.5782C363.013 76.1485 388.492 75.2524 414.035 69.7571C434.246 65.4085 448.941 54.7656 450.597 43.2692C451.653 35.9507 447.218 29.1841 438.109 24.2181C401.804 4.42397 343.583 3.50179 310.464 14.0044C296.206 18.5224 286.677 24.9503 282.906 32.5868C280.927 36.5936 281.261 41.233 283.847 45.6538C284.581 46.9117 285.471 48.1331 286.508 49.3152C286.011 50.2337 285.514 51.1698 285.022 52.0987C284.771 52.571 284.513 53.0566 284.251 53.5441C280.233 50.499 277.361 47.3816 275.559 44.4512C272.913 40.1421 272.261 35.7898 273.673 31.8632C276.168 24.9345 285.64 12.2815 321.063 5.38074C346.111 0.501556 424.359 -5.11096 454.359 31.8444C460.019 38.8174 454.184 72.3766 445.183 97.7214L444.893 98.5428C435.729 124.363 421.883 163.387 364.69 163.387C309.125 163.387 292.706 123.934 283.885 102.74C282.663 99.8055 281.608 97.2715 280.62 95.2785C278.845 91.6979 277.415 88.6509 276.153 85.9633C272.01 77.1392 270.119 73.1118 266.268 72.9C266.167 72.8933 266.059 72.8914 265.95 72.8914C265.642 72.8914 265.303 72.9121 264.93 72.9546C261.821 66.758 259.203 63.4907 254.721 61.5267C250.772 59.7971 246.634 59.6411 243.072 61.0957C239.977 62.3566 237.514 64.7771 236.314 67.7385C234.939 71.1291 236.179 75.5705 239.895 80.576C240.577 81.4951 241.323 82.4051 242.112 83.2945C239.675 84.9385 237.243 86.7622 234.905 88.7504C232.027 85.8947 229.527 82.6273 228.459 78.612ZM253.852 90.6852C254.654 90.052 255.435 89.4619 256.192 88.9301C258.523 87.291 260.618 86.877 261.938 87.7991C262.78 88.3844 263.163 89.4704 262.893 90.5C262.555 91.7901 261.334 92.6249 259.546 92.7943C258.304 92.9108 256.236 92.1082 253.852 90.6852ZM268.365 85.0138C269.67 87.9837 271.149 91.3506 272.867 95.1504C279.113 108.953 281.491 114.758 279.845 116.592C277.644 119.048 265.018 110.819 256.664 105.374C254.813 104.168 253.011 102.993 251.321 101.922C249.128 100.53 247.239 99.2664 245.363 97.8155C246.503 96.8629 247.608 95.9184 248.68 95.0016C249.915 93.9459 251.119 92.9175 252.282 91.9565C255.225 93.7784 257.918 94.8353 259.721 94.6677C262.302 94.4249 264.167 93.0462 264.709 90.9797C265.18 89.1882 264.497 87.2892 263.011 86.2541C262.063 85.5923 259.392 84.3776 255.111 87.3899C254.161 88.0571 253.182 88.8087 252.175 89.6174C249.833 88.0335 247.315 85.9669 245.035 83.657C252.468 78.8962 259.679 75.8613 263.856 75.0145C265.161 77.7227 266.606 81.0089 268.365 85.0138ZM241.403 79.4541C238.145 75.0654 236.956 71.1564 238.054 68.4451C239.065 65.9524 241.152 63.9077 243.779 62.8368C245.169 62.271 246.665 61.9888 248.207 61.9888C250.096 61.9888 252.052 62.4113 253.968 63.2509C257.854 64.9532 260.181 67.7452 263.009 73.3C258.42 74.3624 251.133 77.4628 243.702 82.2461C242.882 81.3373 242.108 80.4036 241.403 79.4541ZM243.868 96.6129C243.478 96.2899 243.087 95.9542 242.693 95.6051C241.891 94.899 241.043 94.1821 240.172 93.4481C238.897 92.3735 237.577 91.2601 236.297 90.0794C238.613 88.1239 241.02 86.3294 243.427 84.7127C245.683 87.0482 248.202 89.1845 250.639 90.8752C249.606 91.7373 248.545 92.6425 247.461 93.5695C246.303 94.5603 245.106 95.5832 243.868 96.6129ZM502.451 126.068C498.923 123.881 496.535 119.649 494.428 115.916C493.666 114.566 492.947 113.291 492.233 112.231C482.85 98.2963 471.571 93.7765 464.108 90.7842C459.885 89.0922 457.096 87.9752 457.043 86.1223C457.036 85.8759 457.096 85.5547 457.618 85.2415C458.303 84.8329 459.468 84.6065 461.008 84.6065C465.422 84.6065 472.911 86.4544 480.966 91.1011C489.539 96.0452 503.333 106.938 505.665 126.653C504.432 126.75 503.333 126.613 502.451 126.068ZM884.497 77.3584C878.546 76.71 870.455 76.1297 862.861 75.8067C852.94 75.3872 842.928 75.3872 833.092 75.8067C832.571 75.8286 832.171 76.2669 832.189 76.7865C832.213 77.305 832.649 77.7002 833.171 77.6869C842.952 77.2692 852.916 77.2692 862.776 77.6869C872.194 78.0869 880.958 78.7851 887.024 79.5494C850.067 80.8376 812.862 111.961 773.632 144.785C754.402 160.873 734.863 177.223 714.578 190.91C718.821 184.2 721.936 174.691 719.996 161.891C717.681 146.643 710.075 134.531 699.124 128.656C677.87 117.259 658.04 133.3 652.47 138.489C646.312 144.221 641.446 149.5 635.507 158.526C634.422 158.728 633.307 158.949 632.155 159.188C632.804 157.917 633.234 156.265 633.731 154.348C635.058 149.221 636.882 142.2 644.294 134.255C656.106 121.597 676.306 115.404 694.56 118.844C700.027 119.875 711.396 122.018 719.275 131.326C725.421 138.589 727.22 147.627 728.408 153.606C729.263 157.883 729.736 160.252 731.529 160.25C731.542 160.25 731.554 160.25 731.566 160.25C734.626 160.196 736.099 151.432 736.329 147.197C737.069 133.929 730.263 117.478 718.996 105.288C708.451 93.8809 695.409 87.4415 682.257 87.1556C665.433 86.7689 653.264 96.2814 646.731 101.379C626.537 117.132 621.331 150.703 625.495 159.505C625.586 159.693 625.676 159.865 625.767 160.024C618.258 158.727 609.046 147.26 608.41 145.87C605.368 139.2 604.107 132.565 603.768 126.71C604.665 127.262 605.78 128.11 606.755 128.851C610.464 131.679 615.555 135.55 620.616 134.613C624.628 133.872 625.537 130.721 627.046 125.501C628.513 120.427 630.519 113.48 636.325 104.081C639.27 99.3089 644.197 91.3215 663.64 85.8983C674.609 82.838 683.439 83.6588 689.282 84.2015C694.021 84.6392 696.882 84.9063 697.669 82.6528C698.081 81.4745 697.657 79.9707 696.421 78.1847C691.73 71.418 676.409 61.857 659.84 61.5043C644.676 61.1692 633.543 68.6042 629.349 71.398C612.622 82.5502 606.143 98.9192 603.768 107.685C603.065 110.282 601.677 116.455 601.804 124.307C599.01 124.889 599.362 128.286 599.701 131.574C600.01 134.609 600.362 138.048 598.622 139.76C598.077 140.291 596.75 140.399 595.053 140.113C598.653 137.667 598.537 133.354 598.38 127.45C598.216 121.269 597.992 112.804 601.507 101.596C605.562 88.6667 614.852 81.1612 621.634 75.6798C626.628 71.6475 630.234 68.7359 628.834 65.4837C628.022 63.5878 625.664 62.1818 622.01 61.4157C612.501 59.4226 597.137 62.2231 587.398 71.3446C585.435 73.1859 583.81 75.1583 582.471 77.2467C581.301 75.5414 579.938 74.1469 578.368 73.1653C572.635 69.5913 564.78 68.7869 555.005 70.7788C544.865 72.8471 536.865 76.8691 531.229 82.7336C530.859 83.1185 530.405 83.572 529.908 84.0698C525.829 88.1427 523.023 91.1764 523.975 93.0923C524.617 94.3751 526.393 94.278 527.678 94.0947C528.66 93.9526 529.629 93.7717 530.569 93.5986C535.896 92.6079 540.92 91.6772 548.944 97.3656C552.714 100.041 554.641 103.801 556.871 112.842C557.677 116.102 558.035 118.658 558.344 120.915C558.896 124.901 559.289 127.78 561.817 130.947C562.308 131.564 562.799 132.143 563.308 132.681C559.502 131.59 555.302 130.83 550.823 133.143C550.047 133.544 549.259 133.968 548.453 134.402C542.635 137.537 536.041 141.086 527.041 139.25C521.254 138.07 517.52 133.875 516.417 131.342C515.678 129.634 515.098 127.975 514.674 126.371C515.939 126.078 517.138 125.909 518.163 126.016C521.169 126.338 523.993 127.078 526.435 128.048C525.872 129.408 525.587 130.707 525.66 131.636C526.06 136.508 527.993 138.246 529.538 138.847C531.653 139.668 533.999 138.734 535.381 137.444C536.52 136.378 537.011 135.109 536.684 134.048C535.908 131.506 532.975 128.991 529.005 127.108C529.557 126.174 530.26 125.257 531.09 124.526C532.459 123.33 533.896 122.887 535.35 123.211C542.078 124.694 542.635 129.349 543.005 132.428C543.187 133.956 543.314 135.061 544.271 135.463C545.09 135.807 545.914 135.302 546.538 134.822C548.338 133.434 553.453 127.855 553.332 120.674C553.235 114.891 549.865 109.569 543.308 104.852C539.332 101.992 533.847 100.931 528.253 101.941C522.587 102.964 517.702 105.99 514.855 110.244C512.82 113.283 511.062 118.089 512.43 125.012C511.964 125.145 511.498 125.284 511.035 125.421C509.858 125.77 508.664 126.124 507.525 126.367C505.09 105.894 490.793 94.5961 481.902 89.4686C470.892 83.1185 460.221 81.4897 456.655 83.6266C455.664 84.2185 455.135 85.1231 455.165 86.1758C455.253 89.2634 458.674 90.6355 463.409 92.5326C470.659 95.4375 481.615 99.8292 490.675 113.283C491.349 114.282 492.049 115.525 492.792 116.841C494.901 120.578 497.524 125.227 501.464 127.667C502.759 128.469 504.256 128.659 505.848 128.529C505.968 130.031 506.02 131.583 506 133.184C505.899 141.321 501.402 165.405 482.078 178.961L481.969 179.054C467.346 193.079 437.232 203.79 401.416 207.703C363.829 211.809 324.714 208.011 294.103 197.28C266.495 187.605 232.015 165.227 221.546 138.963C217.807 129.581 217.433 120.451 220.422 111.743C229.645 109.769 237.323 104.402 243.88 99.0424C245.917 100.645 247.944 102.007 250.317 103.511C251.998 104.578 253.795 105.748 255.64 106.951C269.125 115.741 278.194 121.247 281.242 117.851C283.614 115.206 281.992 110.761 274.578 94.3739C272.865 90.5826 271.388 87.2224 270.085 84.2562C268.457 80.5541 267.082 77.4246 265.819 74.7716C265.938 74.768 266.055 74.7716 266.164 74.7783C268.896 74.9288 270.636 78.6376 274.452 86.7641C275.718 89.462 277.154 92.5174 278.939 96.1168C279.898 98.0535 280.942 100.56 282.151 103.464C286.431 113.75 292.9 129.295 305.342 142.14C320.205 157.487 340.174 165.269 364.69 165.269C423.208 165.269 437.322 125.493 446.663 99.1723L446.953 98.3528C455.096 75.423 462.704 39.1409 455.816 30.6575C441.877 13.486 417.16 3.40651 382.351 0.697678C355.73 -1.37372 330.388 1.64656 320.704 3.53279C284.371 10.6121 274.536 23.9218 271.907 31.2251C270.293 35.7091 271.002 40.6223 273.958 45.4365C276.104 48.9285 279.284 52.2231 283.334 55.2464C281.077 59.3692 278.636 63.3146 276.896 63.3741C276.371 63.4002 275.849 62.9637 275.314 62.1017C268.724 51.491 259.966 48.7815 253.78 48.3742C245.063 47.8029 235.728 51.6555 230.562 57.9595C223.349 66.7653 225.792 75.9056 226.595 78.9095L226.644 79.0947C227.812 83.4864 230.456 86.9747 233.481 89.9925C228.493 94.4559 224.034 99.6871 221.023 105.562C220.253 107.063 219.584 108.577 219.012 110.102C217.713 110.342 216.383 110.508 215.024 110.592C202.203 111.38 182.294 111.055 157.545 99.1845C120.674 81.4982 97.4442 94.2622 76.9475 105.522C70.4942 109.069 64.3798 112.427 58.2502 114.576C60.235 109.75 60.832 104.787 59.9489 99.896C59.0659 95.0083 55.5254 90.0557 50.4788 86.6493C45.4103 83.2296 39.7074 81.9565 34.4196 83.0638C25.9076 84.8481 20.3295 89.907 19.1149 96.9431C18.0265 103.249 20.9337 109.714 26.3488 113.028C36.685 119.356 45.7564 119.953 54.6066 117.686C52.4727 121.341 49.4733 124.882 45.6576 128.201C27.2833 144.183 -11.3531 155.13 -52.7652 141.393C-53.2584 141.232 -53.7892 141.497 -53.9521 141.99C-54.1153 142.484 -53.8479 143.016 -53.3556 143.179C-11.2477 157.148 28.1257 145.942 46.8891 129.623C51.4412 125.662 54.8866 121.385 57.1514 116.958C63.9665 114.801 70.7088 111.097 77.8511 107.174C97.9514 96.129 120.734 83.6126 156.732 100.881C181.876 112.942 202.107 113.273 215.138 112.47C216.216 112.403 217.275 112.289 218.315 112.13C215.534 120.964 216.028 130.194 219.802 139.661C230.488 166.471 265.486 189.243 293.483 199.056C324.349 209.875 363.762 213.708 401.619 209.574C437.79 205.62 468.284 194.741 483.215 180.462C503.138 166.444 507.774 141.605 507.879 133.208C507.901 131.501 507.843 129.85 507.713 128.251C508.98 127.992 510.283 127.605 511.568 127.226C511.996 127.097 512.427 126.971 512.856 126.848C513.288 128.487 513.892 130.235 514.7 132.095C515.957 134.988 520.181 139.771 526.666 141.093C536.338 143.067 543.247 139.345 549.344 136.06C550.138 135.631 550.92 135.212 551.683 134.815C556.235 132.466 560.508 133.778 564.641 135.048C565.556 135.328 566.453 135.603 567.338 135.836C568.889 136.664 570.738 137.284 573.083 137.699C578.919 138.734 582.847 139.549 585.713 140.144C588.695 140.763 590.453 141.128 591.744 141.16C595.143 142.344 598.446 142.571 599.937 141.103C602.325 138.756 601.919 134.839 601.568 131.383C601.259 128.387 601.228 126.831 601.871 126.314C602.174 132.493 603.459 139.55 606.701 146.653C607.549 148.517 618.373 162.018 627.179 162.016C627.846 162.016 628.501 161.939 629.143 161.773C630.864 161.379 632.519 161.027 634.088 160.712C633.198 162.122 632.27 163.621 631.313 165.221C624.04 177.365 622.786 182.077 621.204 188.044L620.846 189.375C619.289 195.18 617.955 204.007 621.428 210.979C620.864 212.409 620.567 213.909 620.622 215.345C620.767 219.012 623.058 221.894 627.07 223.459C630.07 224.627 633.531 225.002 636.737 225C641.07 225 644.931 224.318 646.531 223.991C647.906 223.707 649.276 223.402 650.646 223.079C657.082 222.872 663.161 221.245 667.658 217.92C674.561 215.381 681.354 212.354 688.045 208.929C692.985 208.317 699.869 205.497 705.875 200.653C707.536 199.311 709.451 197.547 711.336 195.322C733.233 181.038 754.214 163.482 774.838 146.229C815.492 112.215 853.958 80.0302 891.782 81.4314C890.315 81.7786 888.515 82.2473 886.4 82.9679C878.097 85.7939 871.558 89.6829 866.976 94.5257C859.528 102.397 857.637 112.386 857.364 119.38C857.34 119.9 857.746 120.337 858.267 120.357C858.279 120.359 858.291 120.358 858.304 120.358C858.801 120.358 859.219 119.961 859.243 119.455C859.504 112.783 861.291 103.267 868.34 95.8206C872.715 91.2019 878.994 87.4774 887 84.7485C889.655 83.8452 891.83 83.3461 893.412 82.9831C895.806 82.4343 897.006 82.1587 897 80.942C896.988 79.726 896.042 78.6175 884.497 77.3584Z" fill="black"/>
<path d="M412.702 102.729C412.402 102.278 412.009 101.758 411.501 101.193C411.005 100.627 410.45 100.096 409.861 99.6221C409.272 99.1486 408.753 98.8946 408.325 98.8715C406.616 98.8253 404.676 98.883 402.505 99.0562C400.334 99.2295 398.048 99.4604 395.646 99.7722C393.244 100.084 390.784 100.442 388.29 100.846C385.784 101.25 383.359 101.689 381.014 102.163C378.67 102.625 376.464 103.098 374.386 103.583C372.319 104.057 370.506 104.518 368.958 104.946C368.797 104.992 368.866 105.2 369.143 105.558C369.432 105.927 369.79 106.32 370.24 106.736C370.679 107.163 371.129 107.532 371.568 107.844C372.007 108.168 372.33 108.283 372.503 108.225C372.827 108.087 373.335 107.925 374.062 107.752C374.778 107.567 375.668 107.359 376.707 107.14C377.758 106.909 378.936 106.678 380.241 106.424C381.546 106.17 382.943 105.927 384.421 105.673C383.393 107.717 382.389 109.807 381.419 111.921C380.437 114.034 379.594 116.147 378.89 118.238C378.682 118.861 378.485 119.473 378.312 120.097C378.243 120.143 378.104 120.339 377.896 120.686C377.654 121.078 377.342 121.586 376.973 122.198C376.603 122.811 376.199 123.48 375.772 124.208C375.333 124.935 374.929 125.628 374.524 126.275C374.132 126.922 373.774 127.487 373.473 127.961C373.162 128.434 372.965 128.723 372.861 128.827C372.815 128.873 372.85 128.573 372.977 127.926C373.104 127.28 373.3 126.437 373.566 125.42C373.831 124.404 374.155 123.261 374.524 121.991C374.894 120.732 375.275 119.508 375.668 118.341C376.06 117.164 376.464 116.113 376.869 115.189C377.273 114.253 377.654 113.595 378.012 113.214C378.035 113.191 377.966 113.133 377.804 113.041C377.642 112.949 377.4 112.868 377.1 112.775C376.788 112.683 376.441 112.579 376.049 112.464C375.656 112.348 375.24 112.233 374.802 112.106C373.785 111.828 372.619 111.528 371.314 111.228C371.106 111.309 370.864 111.609 370.586 112.129C370.309 112.648 370.021 113.318 369.743 114.138C369.466 114.958 369.178 115.882 368.877 116.909C368.589 117.937 368.323 119.011 368.092 120.108C367.78 120.57 367.33 121.252 366.729 122.175C366.129 123.099 365.528 124.023 364.916 124.97C364.304 125.917 363.738 126.76 363.23 127.511C362.722 128.261 362.387 128.7 362.237 128.827C362.191 128.873 362.226 128.573 362.353 127.926C362.48 127.28 362.676 126.437 362.942 125.42C363.207 124.404 363.531 123.261 363.9 121.991C364.27 120.732 364.651 119.508 365.043 118.341C365.436 117.164 365.84 116.113 366.244 115.189C366.649 114.253 367.03 113.595 367.388 113.214C367.411 113.191 367.341 113.133 367.18 113.041C367.018 112.949 366.776 112.868 366.475 112.775C366.164 112.683 365.817 112.579 365.425 112.464C365.032 112.348 364.616 112.233 364.177 112.106C363.161 111.828 361.995 111.528 360.69 111.228C360.436 111.309 360.124 111.736 359.766 112.51C359.616 112.833 359.466 113.191 359.316 113.595C359.189 113.803 359.062 114.034 358.958 114.207C358.669 114.738 358.38 115.304 357.953 116.032C357.526 116.748 356.902 117.672 356.405 118.457C355.643 119.635 354.904 120.697 353.98 121.91C353.057 123.122 352.133 124.312 351.163 125.305C350.193 126.298 349.384 127.06 348.46 127.73C347.629 128.342 346.243 128.862 345.158 128.665C343.506 128.377 341.693 126.587 340.596 124.97C339.465 123.296 338.795 121.506 338.575 119.6C338.356 117.695 338.494 115.732 338.991 113.722C339.488 111.713 340.192 109.761 341.104 107.867C342.017 105.974 343.044 104.207 344.211 102.544C345.366 100.892 346.486 99.4604 347.571 98.2594C348.657 97.0584 348.888 96.7351 349.719 96.123C350.539 95.511 351.451 94.6795 352.11 94.9105C352.133 94.922 352.144 94.9336 352.167 94.9451C352.618 95.2916 352.491 95.8921 352.364 96.9545C352.237 98.04 351.902 99.1371 351.59 100.685C351.278 102.243 350.701 104.091 350.043 105.823C349.419 107.475 348.922 108.733 348.31 110.235C347.837 111.401 347.352 112.302 346.694 113.78C346.416 114.404 350.17 114.392 351.267 113.849C352.629 113.168 353.299 112.071 354.223 110.639C355.147 109.219 355.978 107.729 356.729 106.17C357.479 104.611 358.091 103.167 358.577 101.816C359.062 100.465 359.42 99.3334 359.57 98.3865C359.801 96.9314 359.708 96.227 359.558 95.4071C359.2 93.4439 357.768 91.4923 356.775 90.5222C354.05 87.8547 351.729 87.9008 349.153 88.0625C348.449 88.1087 346.382 88.4551 345.342 89.1134C344.303 89.7716 343.195 90.7186 342.017 91.9542C340.839 93.1898 339.661 94.6564 338.448 96.354C337.247 98.0516 336.139 99.8992 335.122 101.897C334.106 103.895 333.24 105.985 332.524 108.168C331.808 110.35 331.335 112.556 331.115 114.762C330.896 116.979 330.988 119.15 331.404 121.298C331.82 123.434 332.455 125.282 333.356 126.945C334.106 128.238 335.561 130.247 337.767 131.945C338.864 132.8 340.273 133.562 341.89 134.035C343.218 134.428 344.592 134.566 345.712 134.497C346.543 134.439 347.675 134.197 348.46 133.827C349.442 133.365 350.158 132.88 351.082 132.199C352.387 131.229 353.149 130.409 354.027 129.416C354.927 128.4 355.574 127.638 356.394 126.598C356.44 126.541 356.486 126.483 356.533 126.425C356.521 126.598 356.509 126.772 356.498 126.945C356.452 128.019 356.521 128.792 356.729 129.277C356.983 129.866 357.422 130.386 358.045 130.848C358.669 131.31 359.327 131.679 360.02 131.98C360.713 132.268 361.348 132.488 361.949 132.626C362.549 132.765 362.965 132.823 363.196 132.8C363.323 132.776 363.519 132.626 363.773 132.361C364.027 132.095 364.327 131.726 364.674 131.275C365.02 130.813 365.39 130.294 365.806 129.705C366.21 129.116 366.625 128.504 367.03 127.869C367.076 128.504 367.168 128.977 367.295 129.289C367.549 129.878 367.988 130.398 368.612 130.86C369.235 131.321 369.894 131.691 370.586 131.991C371.279 132.28 371.926 132.499 372.538 132.638C373.15 132.776 373.554 132.834 373.762 132.811C373.935 132.788 374.27 132.488 374.744 131.933C375.217 131.368 375.748 130.663 376.349 129.809C376.591 129.462 376.834 129.104 377.088 128.735C377.123 129.254 377.18 129.774 377.261 130.294C377.261 130.363 377.354 130.444 377.538 130.548C377.723 130.652 377.954 130.767 378.254 130.906C378.555 131.044 378.878 131.183 379.224 131.333C379.582 131.483 379.952 131.622 380.333 131.76C381.222 132.107 382.227 132.465 383.335 132.857C383.382 130.987 383.636 128.954 384.109 126.76C384.571 124.566 385.206 122.291 385.992 119.924C386.777 117.568 387.712 115.154 388.798 112.694C389.883 110.235 391.073 107.81 392.366 105.419C392.412 105.373 392.227 105.292 391.823 105.165C391.419 105.038 390.911 104.9 390.322 104.738C392.435 104.438 394.583 104.16 396.743 103.906C398.902 103.641 400.981 103.444 402.979 103.306C404.977 103.167 406.824 103.098 408.533 103.098C410.242 103.098 411.697 103.202 412.91 103.41C413.083 103.398 413.002 103.179 412.702 102.729Z" fill="black"/>
<path d="M404.18 117.88C404.053 117.233 403.903 116.69 403.741 116.251C403.579 115.812 403.406 115.524 403.221 115.374C402.817 115.062 402.355 114.796 401.859 114.554C401.362 114.311 400.912 114.115 400.496 113.976C400.092 113.838 399.745 113.757 399.48 113.722C399.214 113.699 399.099 113.745 399.156 113.872C399.307 114.381 399.399 115.05 399.422 115.859C399.445 116.679 399.422 117.568 399.341 118.538C399.26 119.508 399.122 120.513 398.925 121.54C398.718 122.568 398.452 123.55 398.117 124.473C397.124 124.196 396.385 123.573 395.911 122.614C395.438 121.656 395.415 120.374 395.854 118.769C396.212 117.799 396.616 116.886 397.055 116.032C397.505 115.177 398.013 114.427 398.602 113.792C398.706 113.688 398.591 113.526 398.279 113.318C397.955 113.099 397.54 112.879 397.032 112.648C396.524 112.417 395.958 112.198 395.334 112.002C394.71 111.794 394.133 111.632 393.59 111.505C393.232 111.424 392.77 111.724 392.193 112.406C391.616 113.087 391.05 113.976 390.472 115.085C389.895 116.194 389.375 117.441 388.902 118.838C388.428 120.224 388.093 121.598 387.909 122.949C387.712 124.3 387.735 125.547 387.966 126.679C388.197 127.811 388.717 128.689 389.537 129.301C390.126 129.762 390.773 130.213 391.489 130.663C392.205 131.114 392.909 131.506 393.613 131.853C394.318 132.199 394.988 132.465 395.623 132.638C396.258 132.811 396.812 132.869 397.263 132.788C398.152 132.638 398.949 132.384 399.653 132.026C400.357 131.668 400.969 131.218 401.512 130.686C402.043 130.155 402.505 129.555 402.875 128.885C403.071 128.538 403.776 126.725 404.145 124.601C404.48 122.684 404.48 120.443 404.445 120.062C404.411 119.254 404.318 118.526 404.18 117.88ZM395.958 128.284C395.369 128.862 394.71 129.174 393.971 129.22C393.925 129.266 393.891 129.174 393.879 128.908C393.867 128.654 393.879 128.284 393.914 127.799C393.948 127.314 394.018 126.737 394.122 126.079C394.225 125.42 394.352 124.704 394.503 123.931C394.907 124.37 395.369 124.762 395.865 125.12C396.362 125.478 396.905 125.802 397.494 126.079C397.055 126.979 396.547 127.718 395.958 128.284Z" fill="black"/>
</svg>
