<svg width="27" height="26" viewBox="0 0 27 26" fill="none" xmlns="http://www.w3.org/2000/svg">
<path d="M21.4551 6.83432C21.496 6.071 21.5566 4.96578 21.332 4.74985C19.5874 3.07324 14.8528 4.10336 13.9592 6.38252C13.3943 7.82337 13.1688 9.79133 13.2827 12.2864C11.5007 12.2864 10.5015 12.3944 10.2855 12.6106C10.0836 12.8124 10.0561 16.1743 10.2855 16.1743C11.2265 16.1743 12.9936 16.3902 12.9936 16.3902C12.9936 16.3902 13.0622 25.0672 12.9936 25.1377C12.6792 25.4611 2.4832 25.1377 1.11247 25.1377C0.372719 25.1377 1.11247 14.0208 1.11247 12.815C1.11247 11.9535 1.02244 2.20321 1.11247 2.1128C1.48927 1.73222 5.10547 1.81733 5.65461 1.81733C8.9118 1.81733 22.9754 0.187246 25.1959 1.5312C26.1385 2.10206 25.9917 5.7858 25.9917 6.66496C25.9917 7.95253 25.9442 24.53 25.5501 25.1377C25.1959 25.6842 17.5524 25.3855 17.0611 25.1377C16.9112 25.0621 16.9112 22.2402 17.0611 16.6722C19.4872 16.9583 20.7003 16.7923 20.7003 16.1743C20.7003 14.9745 20.7003 13.5097 20.7003 13.0147C20.7003 12.7454 19.5765 12.6106 17.3289 12.6106C17.2594 10.6991 17.3942 9.40417 17.7333 8.72565C18.2787 7.63463 18.8476 7.81885 20.2873 8.01651" stroke="#C18539" stroke-linecap="round" stroke-linejoin="round"/>
</svg>
