<svg width="317" height="317" viewBox="0 0 317 317" fill="none" xmlns="http://www.w3.org/2000/svg">
<path d="M89.9016 162.97H92.0572V182.434H89.9016V171.339H86.5731V182.434H84.4175V162.97H86.5731V169.151H89.9016V162.97Z" fill="white"/>
<path d="M107.495 178.693H103.659L103.216 182.434H101.06L103.279 162.97H107.876L110.126 182.434H107.939L107.495 178.693ZM107.273 176.728L105.942 165.125H105.213L103.881 176.728H107.273Z" fill="white"/>
<path d="M124.328 182.434V170.071L121.126 173.304V182.434H118.971V162.97H121.126V170.673L124.328 167.345V162.97H126.484V182.434H124.328ZM124.804 160.941H120.714V159.515H124.804V160.941Z" fill="white"/>
<path d="M140.273 169.151C140.812 169.151 141.287 169.246 141.667 169.405C142.048 169.563 142.365 169.785 142.587 170.039C142.809 170.324 142.999 170.641 143.094 170.99C143.221 171.339 143.252 171.751 143.252 172.163V179.454C143.252 179.993 143.157 180.468 142.999 180.849C142.84 181.229 142.619 181.546 142.365 181.768C142.08 181.99 141.763 182.18 141.414 182.275C141.065 182.402 140.653 182.434 140.241 182.434H136.025V162.97H142.682V165.125H138.18V169.12H140.273V169.151ZM141.097 172.131C141.097 171.909 141.034 171.719 140.907 171.529C140.78 171.37 140.558 171.275 140.241 171.275H138.18V180.246H140.241C140.495 180.246 140.685 180.183 140.843 180.056C141.002 179.929 141.097 179.707 141.097 179.39V172.131Z" fill="white"/>
<path d="M160.149 162.97V182.434H157.993V165.157H155.521L154.887 179.771C154.855 180.658 154.665 181.356 154.316 181.8C153.967 182.243 153.333 182.465 152.446 182.465H151.273V180.31H152.161C152.382 180.31 152.541 180.278 152.604 180.215C152.668 180.151 152.699 179.993 152.731 179.771L153.46 163.001H160.149V162.97Z" fill="white"/>
<path d="M175.048 182.434V170.071L171.846 173.304V182.434H169.69V162.97H171.846V170.673L175.048 167.344V162.97H177.203V182.434H175.048Z" fill="white"/>
<path d="M188.425 170.261L185.984 162.97H188.267L190.39 169.341H192.039V162.97H194.194V169.341H195.811L197.935 162.97H200.217L197.777 170.261L200.376 182.434H198.157L195.748 171.18H194.163V182.434H192.007V171.18H190.422L188.013 182.434H185.794L188.425 170.261Z" fill="white"/>
<path d="M215.909 162.97V182.434H213.722V176.252H211.534C211.122 176.252 210.742 176.189 210.362 176.094C210.013 175.967 209.664 175.808 209.411 175.586C209.125 175.364 208.935 175.047 208.777 174.667C208.618 174.287 208.523 173.811 208.523 173.272V163.001H210.679V173.272C210.679 173.589 210.774 173.811 210.932 173.938C211.091 174.065 211.281 174.128 211.534 174.128H213.722V163.001H215.909V162.97Z" fill="white"/>
<path d="M231.442 178.693H227.606L227.162 182.434H225.007L227.226 162.97H231.822L234.073 182.434H231.886L231.442 178.693ZM231.22 176.728L229.889 165.125H229.16L227.828 176.728H231.22Z" fill="white"/>
<path d="M99.3482 188.647V227.924H95.0053V193.022H88.7604V227.924H84.4175V188.647H99.3482Z" fill="white"/>
<path d="M120.334 188.647V192.99H111.616V201.074H118.178V205.48H111.616V223.517H120.334V227.924H107.273V188.647H120.334Z" fill="white"/>
<path d="M127.276 188.647H131.619V201.486H135.359L139.671 188.647H144.299L139.385 203.356L144.647 227.892H140.178L135.328 205.163H131.65V227.924H127.308V188.647H127.276Z" fill="white"/>
<path d="M162.463 220.379H154.696L153.777 227.892H149.434L153.904 188.647H163.192L167.725 227.924H163.319L162.463 220.379ZM161.987 216.417L159.261 192.99H157.803L155.14 216.417H161.987Z" fill="white"/>
<path d="M188.806 209.411C188.806 210.52 188.647 211.44 188.33 212.201C188.013 212.961 187.569 213.595 186.999 214.071C186.428 214.546 185.794 214.895 185.033 215.117C184.304 215.339 183.512 215.466 182.688 215.466H178.662V227.924H174.319V188.647H182.688C183.765 188.647 184.716 188.806 185.477 189.123C186.238 189.44 186.872 189.884 187.379 190.423C187.855 190.962 188.235 191.596 188.457 192.356C188.679 193.117 188.806 193.878 188.806 194.702V209.411ZM184.399 194.702C184.399 194.258 184.273 193.846 184.019 193.529C183.765 193.181 183.322 193.022 182.688 193.022H178.662V211.123H182.688C183.163 211.123 183.575 210.996 183.892 210.742C184.209 210.489 184.368 210.045 184.368 209.411V194.702H184.399Z" fill="white"/>
<path d="M207.065 188.647H211.439V227.924H207.096V205.512H200.344V227.924H196.001V188.647H200.344V201.137H207.065V188.647Z" fill="white"/>
<path d="M233.788 188.647V227.924H229.445V209.157H226.941L222.629 227.924H218.16L222.503 208.872C221.393 208.523 220.505 207.921 219.776 207.002C219.047 206.082 218.699 204.783 218.699 203.103V194.734C218.699 193.91 218.825 193.117 219.047 192.388C219.269 191.659 219.618 191.025 220.093 190.454C220.569 189.915 221.171 189.472 221.964 189.155C222.724 188.838 223.675 188.679 224.753 188.679H233.788V188.647ZM229.413 193.022H224.785C224.151 193.022 223.707 193.181 223.454 193.529C223.2 193.878 223.073 194.258 223.073 194.702V203.071C223.073 203.673 223.232 204.117 223.58 204.371C223.929 204.624 224.309 204.751 224.753 204.751H229.381V193.022H229.413Z" fill="white"/>
<path d="M270.116 50.4667C269.292 49.2304 268.214 47.8039 266.819 46.2506C265.456 44.6973 263.934 43.2391 262.318 41.9394C260.701 40.6397 259.274 39.9423 258.102 39.8789C253.41 39.7521 248.084 39.9106 242.125 40.3861C236.165 40.8616 229.889 41.4956 223.295 42.3515C216.701 43.2074 209.949 44.1901 203.102 45.2996C196.223 46.4091 189.566 47.6137 183.131 48.9134C176.696 50.1814 170.641 51.4811 164.935 52.8125C159.261 54.1122 154.284 55.3802 150.036 56.5531C149.592 56.6799 149.783 57.2505 150.543 58.2332C151.336 59.2476 152.319 60.3254 153.555 61.4666C154.76 62.6395 155.996 63.6539 157.2 64.5098C158.405 65.3974 159.293 65.7144 159.768 65.5559C160.656 65.1755 162.051 64.7317 164.048 64.2562C166.013 63.749 168.454 63.1784 171.307 62.5761C174.192 61.9421 177.425 61.3081 181.007 60.6107C184.589 59.9133 188.425 59.2476 192.483 58.5502C189.661 64.1611 186.903 69.8988 184.241 75.6999C181.546 81.501 179.232 87.3021 177.298 93.0398C176.728 94.7516 176.189 96.4317 175.713 98.1435C175.523 98.2703 175.143 98.8092 174.572 99.7602C173.906 100.838 173.05 102.233 172.036 103.913C171.022 105.593 169.912 107.432 168.739 109.429C167.535 111.426 166.425 113.328 165.316 115.103C164.238 116.878 163.255 118.432 162.431 119.731C161.575 121.031 161.036 121.823 160.751 122.109C160.624 122.236 160.719 121.411 161.068 119.636C161.417 117.861 161.955 115.547 162.685 112.757C163.414 109.968 164.301 106.829 165.316 103.342C166.33 99.887 167.376 96.5268 168.454 93.3251C169.532 90.0917 170.641 87.207 171.751 84.671C172.86 82.1033 173.906 80.2964 174.889 79.2503C174.952 79.1869 174.762 79.0284 174.318 78.7748C173.875 78.5212 173.209 78.2993 172.385 78.0457C171.529 77.7921 170.578 77.5068 169.5 77.1898C168.422 76.8728 167.281 76.5558 166.076 76.2071C163.287 75.4463 160.085 74.6221 156.503 73.7979C155.932 74.0198 155.267 74.844 154.506 76.2705C153.745 77.697 152.953 79.5356 152.192 81.7863C151.431 84.037 150.639 86.573 149.814 89.3943C149.022 92.2156 148.293 95.1637 147.659 98.1752C146.803 99.4432 145.567 101.314 143.918 103.85C142.27 106.386 140.621 108.922 138.941 111.521C137.261 114.12 135.708 116.434 134.313 118.495C132.918 120.555 131.999 121.76 131.587 122.109C131.46 122.236 131.555 121.411 131.904 119.636C132.253 117.861 132.791 115.547 133.521 112.757C134.25 109.968 135.137 106.829 136.152 103.342C137.166 99.887 138.212 96.5268 139.29 93.3251C140.368 90.0917 141.477 87.207 142.587 84.671C143.696 82.1033 144.742 80.2964 145.725 79.2503C145.788 79.1869 145.598 79.0284 145.154 78.7748C144.711 78.5212 144.045 78.2993 143.221 78.0457C142.365 77.7921 141.414 77.5068 140.336 77.1898C139.258 76.8728 138.117 76.5558 136.912 76.2071C134.123 75.4463 130.921 74.6221 127.339 73.7979C126.642 74.0198 125.786 75.1927 124.803 77.3166C124.391 78.2042 123.979 79.1869 123.567 80.2964C123.218 80.867 122.869 81.501 122.584 81.9765C121.792 83.4347 120.999 84.988 119.826 86.9851C118.653 88.9505 116.941 91.4865 115.578 93.6421C113.486 96.8755 111.457 99.7919 108.921 103.12C106.385 106.449 103.849 109.714 101.187 112.44C98.5238 115.166 96.3048 117.259 93.7688 119.097C91.4864 120.777 87.6824 122.204 84.7026 121.665C80.1695 120.872 75.1926 115.959 72.1811 111.521C69.0745 106.924 67.2359 102.011 66.6336 96.7804C66.0313 91.5499 66.4117 86.1609 67.7748 80.6451C69.1379 75.1293 71.0716 69.772 73.5759 64.5732C76.0802 59.3744 78.9015 54.5243 82.1032 49.9595C85.2732 45.4264 88.3481 41.4956 91.3279 38.1988C94.3077 34.902 94.9417 34.0144 97.2241 32.3343C99.4748 30.6542 101.979 28.3718 103.786 29.0058C103.849 29.0375 103.881 29.0692 103.944 29.1009C105.181 30.0519 104.832 31.7003 104.483 34.6167C104.135 37.5965 103.215 40.608 102.359 44.8558C101.504 49.1353 99.9186 54.2073 98.1117 58.9623C96.3999 63.4954 95.0368 66.9507 93.3567 71.0717C92.057 74.2734 90.7256 76.746 88.9187 80.8036C88.1579 82.5154 98.4604 82.4837 101.472 80.9938C105.212 79.1235 107.051 76.112 109.587 72.1812C112.123 68.2821 114.405 64.1928 116.466 59.9133C118.526 55.6338 120.207 51.6713 121.538 47.9624C122.869 44.2535 123.852 41.1469 124.264 38.5475C124.898 34.5533 124.645 32.6196 124.232 30.3689C123.25 24.9799 119.319 19.6226 116.593 16.9598C109.112 9.63714 102.74 9.76394 95.6708 10.2077C93.7371 10.3345 88.0628 11.2855 85.2098 13.0924C82.3568 14.8993 79.3136 17.4987 76.0802 20.8906C72.8468 24.2825 69.6134 28.3084 66.2849 32.9683C62.9881 37.6282 59.9449 42.7002 57.1553 48.1843C54.3657 53.6684 51.9882 59.4061 50.0228 65.3974C48.0574 71.3887 46.7577 77.4434 46.1554 83.4981C45.5531 89.5845 45.8067 95.5441 46.9479 101.44C48.0891 107.305 49.8326 112.377 52.3052 116.942C54.3657 120.492 58.3599 126.008 64.4146 130.668C67.4261 133.014 71.2935 135.106 75.7315 136.405C79.377 137.483 83.1493 137.864 86.2242 137.673C88.5066 137.515 91.6132 136.849 93.7688 135.835C96.4633 134.567 98.4287 133.235 100.965 131.365C104.547 128.702 106.639 126.452 109.048 123.725C111.521 120.936 113.296 118.844 115.547 115.991C115.673 115.832 115.8 115.674 115.927 115.515C115.895 115.991 115.864 116.466 115.832 116.942C115.705 119.89 115.895 122.014 116.466 123.345C117.163 124.962 118.368 126.388 120.08 127.656C121.792 128.924 123.598 129.939 125.5 130.763C127.402 131.555 129.146 132.158 130.794 132.538C132.443 132.918 133.584 133.077 134.218 133.014C134.567 132.95 135.106 132.538 135.803 131.809C136.5 131.08 137.325 130.065 138.276 128.829C139.227 127.561 140.241 126.135 141.382 124.518C142.492 122.901 143.633 121.221 144.742 119.478C144.869 121.221 145.123 122.521 145.471 123.377C146.169 124.993 147.373 126.42 149.085 127.688C150.797 128.956 152.604 129.97 154.506 130.795C156.408 131.587 158.183 132.189 159.863 132.57C161.543 132.95 162.653 133.109 163.223 133.045C163.699 132.982 164.618 132.158 165.918 130.636C167.218 129.083 168.676 127.149 170.324 124.803C170.99 123.852 171.656 122.87 172.353 121.855C172.448 123.282 172.607 124.708 172.829 126.135C172.829 126.325 173.082 126.547 173.589 126.832C174.097 127.117 174.731 127.434 175.555 127.815C176.379 128.195 177.267 128.576 178.218 128.988C179.2 129.4 180.215 129.78 181.261 130.161C183.702 131.112 186.46 132.094 189.503 133.172C189.63 128.037 190.327 122.457 191.627 116.434C192.895 110.411 194.638 104.167 196.794 97.668C198.949 91.2012 201.517 84.5759 204.497 77.8238C207.477 71.0717 210.742 64.4147 214.292 57.8528C214.419 57.726 213.912 57.5041 212.802 57.1554C211.693 56.8067 210.298 56.4263 208.681 55.9825C214.482 55.1583 220.379 54.3975 226.306 53.7001C232.234 52.971 237.94 52.4321 243.424 52.0517C248.909 51.6713 253.981 51.4811 258.672 51.4811C263.364 51.4811 267.358 51.7664 270.686 52.337C271.162 52.3053 270.94 51.703 270.116 50.4667Z" fill="white"/>
<path d="M246.721 92.0571C246.373 90.2819 245.96 88.792 245.517 87.5874C245.073 86.3828 244.597 85.5903 244.09 85.1782C242.981 84.3223 241.713 83.5932 240.35 82.9275C238.986 82.2618 237.75 81.7229 236.609 81.3425C235.499 80.9621 234.548 80.7402 233.819 80.6451C233.09 80.5817 232.773 80.7085 232.932 81.0572C233.344 82.452 233.597 84.2906 233.661 86.5096C233.724 88.7603 233.661 91.2012 233.439 93.864C233.217 96.5268 232.837 99.2847 232.298 102.106C231.727 104.927 230.998 107.622 230.079 110.158C227.353 109.397 225.324 107.685 224.024 105.054C222.724 102.423 222.661 98.9043 223.866 94.498C224.848 91.8352 225.958 89.3309 227.162 86.9851C228.399 84.6393 229.793 82.5788 231.41 80.8353C231.695 80.55 231.378 80.1062 230.523 79.5356C229.635 78.9333 228.494 78.331 227.099 77.697C225.704 77.063 224.151 76.4607 222.439 75.9218C220.727 75.3512 219.142 74.9074 217.652 74.5587C216.67 74.3368 215.402 75.161 213.817 77.0313C212.232 78.9016 210.678 81.3425 209.093 84.3857C207.508 87.4289 206.082 90.8525 204.782 94.6882C203.482 98.4922 202.563 102.265 202.056 105.973C201.517 109.682 201.58 113.106 202.214 116.213C202.848 119.319 204.275 121.728 206.526 123.408C208.142 124.676 209.918 125.913 211.883 127.149C213.848 128.385 215.782 129.463 217.716 130.414C219.649 131.365 221.488 132.094 223.232 132.57C224.975 133.045 226.497 133.204 227.733 132.982C230.174 132.57 232.361 131.872 234.295 130.89C236.229 129.907 237.909 128.671 239.399 127.212C240.857 125.754 242.125 124.106 243.139 122.267C243.678 121.316 245.612 116.339 246.626 110.507C247.545 105.244 247.545 99.0945 247.45 98.0484C247.355 95.8294 247.102 93.8323 246.721 92.0571ZM224.151 120.619C222.534 122.204 220.727 123.06 218.698 123.187C218.572 123.313 218.477 123.06 218.445 122.331C218.413 121.633 218.445 120.619 218.54 119.287C218.635 117.956 218.825 116.371 219.111 114.564C219.396 112.757 219.745 110.792 220.157 108.668C221.266 109.873 222.534 110.95 223.897 111.933C225.26 112.916 226.75 113.803 228.367 114.564C227.162 117.037 225.768 119.066 224.151 120.619Z" fill="white"/>
<path d="M88.8555 266.565C89.7114 266.565 89.7114 265.266 88.8555 265.266C88.0313 265.266 88.0313 266.565 88.8555 266.565Z" fill="white"/>
<path d="M84.4173 241.459C85.2732 241.459 85.2732 240.159 84.4173 240.159C83.5614 240.159 83.5614 241.459 84.4173 241.459Z" fill="white"/>
<path d="M87.2388 240.032C88.0947 240.032 88.0947 238.732 87.2388 238.732C86.4146 238.732 86.4146 240.032 87.2388 240.032Z" fill="white"/>
<path d="M96.1465 260.099C97.0024 260.099 97.0024 258.799 96.1465 258.799C95.3223 258.799 95.3223 260.099 96.1465 260.099Z" fill="white"/>
<path d="M104.452 256.96C105.308 256.96 105.308 255.66 104.452 255.66C103.627 255.66 103.627 256.96 104.452 256.96Z" fill="white"/>
<path d="M114.089 266.565C114.945 266.565 114.945 265.266 114.089 265.266C113.233 265.266 113.233 266.565 114.089 266.565Z" fill="white"/>
<path d="M124.011 260.51C124.866 260.51 124.866 259.211 124.011 259.211C123.155 259.179 123.155 260.51 124.011 260.51Z" fill="white"/>
<path d="M128.258 260.003C129.114 260.003 129.114 258.704 128.258 258.704C127.434 258.672 127.434 260.003 128.258 260.003Z" fill="white"/>
<path d="M132.221 242.568C133.077 242.568 133.077 241.269 132.221 241.269C131.365 241.269 131.365 242.568 132.221 242.568Z" fill="white"/>
<path d="M131.999 240.128C132.855 240.128 132.855 238.828 131.999 238.828C131.175 238.828 131.175 240.128 131.999 240.128Z" fill="white"/>
<path d="M130.097 240.444C130.953 240.444 130.953 239.145 130.097 239.145C129.241 239.145 129.241 240.444 130.097 240.444Z" fill="white"/>
<path d="M128.354 242.378C129.209 242.378 129.209 241.079 128.354 241.079C127.529 241.047 127.529 242.378 128.354 242.378Z" fill="white"/>
<path d="M119.034 240.254C119.89 240.254 119.89 238.955 119.034 238.955C118.209 238.923 118.209 240.254 119.034 240.254Z" fill="white"/>
<path d="M123.821 243.393C124.677 243.393 124.677 242.093 123.821 242.093C122.965 242.062 122.965 243.393 123.821 243.393Z" fill="white"/>
<path d="M109.016 239.62C109.872 239.62 109.872 238.32 109.016 238.32C108.192 238.32 108.16 239.62 109.016 239.62Z" fill="white"/>
<path d="M94.9417 237.401C95.7976 237.401 95.7976 236.102 94.9417 236.102C94.0858 236.102 94.0858 237.401 94.9417 237.401Z" fill="white"/>
<path d="M205.955 238.606C206.811 238.606 206.811 237.307 205.955 237.307C205.099 237.307 205.099 238.606 205.955 238.606Z" fill="white"/>
<path d="M210.298 238.099C211.154 238.099 211.154 236.799 210.298 236.799C209.474 236.799 209.474 238.099 210.298 238.099Z" fill="white"/>
<path d="M220.854 238.416C221.71 238.416 221.71 237.116 220.854 237.116C219.998 237.116 219.998 238.416 220.854 238.416Z" fill="white"/>
<path d="M221.646 268.309C222.502 268.309 222.502 267.009 221.646 267.009C220.822 266.978 220.822 268.309 221.646 268.309Z" fill="white"/>
<path d="M210.615 268.309C211.471 268.309 211.471 267.009 210.615 267.009C209.759 266.978 209.759 268.309 210.615 268.309Z" fill="white"/>
<path d="M207.255 268.309C208.111 268.309 208.111 267.009 207.255 267.009C206.431 266.978 206.431 268.309 207.255 268.309Z" fill="white"/>
<path d="M201.073 260.384C201.929 260.384 201.929 259.084 201.073 259.084C200.249 259.084 200.249 260.384 201.073 260.384Z" fill="white"/>
<path d="M193.687 257.975C194.543 257.975 194.543 256.675 193.687 256.675C192.863 256.644 192.863 257.975 193.687 257.975Z" fill="white"/>
<path d="M196.318 244.598C197.174 244.598 197.174 243.298 196.318 243.298C195.494 243.298 195.494 244.598 196.318 244.598Z" fill="white"/>
<path d="M191.056 245.421C191.912 245.421 191.912 244.122 191.056 244.122C190.232 244.09 190.232 245.421 191.056 245.421Z" fill="white"/>
<path d="M201.803 245.421C202.658 245.421 202.658 244.122 201.803 244.122C200.947 244.09 200.947 245.421 201.803 245.421Z" fill="white"/>
<path d="M187.221 245.611C188.076 245.611 188.076 244.312 187.221 244.312C186.365 244.312 186.365 245.611 187.221 245.611Z" fill="white"/>
<path d="M175.46 239.431C176.316 239.431 176.316 238.131 175.46 238.131C174.636 238.131 174.636 239.431 175.46 239.431Z" fill="white"/>
<path d="M178.82 238.416C179.676 238.416 179.676 237.116 178.82 237.116C177.964 237.116 177.964 238.416 178.82 238.416Z" fill="white"/>
<path d="M181.324 237.592C182.18 237.592 182.18 236.292 181.324 236.292C180.5 236.292 180.5 237.592 181.324 237.592Z" fill="white"/>
<path d="M156.63 246.531C157.486 246.531 157.486 245.231 156.63 245.231C155.774 245.199 155.774 246.531 156.63 246.531Z" fill="white"/>
<path d="M163.097 256.548C163.953 256.548 163.953 255.248 163.097 255.248C162.272 255.248 162.272 256.548 163.097 256.548Z" fill="white"/>
<path d="M178.915 267.992C179.771 267.992 179.771 266.692 178.915 266.692C178.059 266.692 178.059 267.992 178.915 267.992Z" fill="white"/>
<path d="M197.238 274.491C198.093 274.491 198.093 273.191 197.238 273.191C196.413 273.159 196.382 274.491 197.238 274.491Z" fill="white"/>
<path d="M168.993 283.906C169.849 283.906 169.849 282.606 168.993 282.606C168.137 282.574 168.137 283.906 168.993 283.906Z" fill="white"/>
<path d="M158.659 284C159.514 284 159.514 282.7 158.659 282.7C157.803 282.7 157.803 284 158.659 284Z" fill="white"/>
<path d="M154.601 283.588C155.457 283.588 155.457 282.288 154.601 282.288C153.745 282.288 153.745 283.588 154.601 283.588Z" fill="white"/>
<path d="M144.679 289.58C145.535 289.58 145.535 288.28 144.679 288.28C143.823 288.248 143.823 289.58 144.679 289.58Z" fill="white"/>
<path d="M134.757 292.813C135.613 292.813 135.613 291.514 134.757 291.514C133.901 291.514 133.901 292.813 134.757 292.813Z" fill="white"/>
<path d="M126.451 283.588C127.307 283.588 127.307 282.288 126.451 282.288C125.596 282.288 125.596 283.588 126.451 283.588Z" fill="white"/>
<path d="M134.852 280.545C135.708 280.545 135.708 279.245 134.852 279.245C133.996 279.245 133.996 280.545 134.852 280.545Z" fill="white"/>
<path d="M137.895 274.585C138.751 274.585 138.751 273.286 137.895 273.286C137.039 273.254 137.039 274.585 137.895 274.585Z" fill="white"/>
<path d="M147.722 272.747C148.578 272.747 148.578 271.447 147.722 271.447C146.866 271.447 146.866 272.747 147.722 272.747Z" fill="white"/>
<path d="M139.1 263.016C139.956 263.016 139.956 261.716 139.1 261.716C138.244 261.716 138.244 263.016 139.1 263.016Z" fill="white"/>
<path d="M137.769 263.427C138.624 263.427 138.624 262.127 137.769 262.127C136.944 262.127 136.944 263.427 137.769 263.427Z" fill="white"/>
<path d="M131.714 252.395C132.57 252.395 132.57 251.096 131.714 251.096C130.858 251.096 130.858 252.395 131.714 252.395Z" fill="white"/>
<path d="M128.576 253.727C129.431 253.727 129.431 252.427 128.576 252.427C127.72 252.396 127.72 253.727 128.576 253.727Z" fill="white"/>
<path d="M118.241 248.655C119.097 248.655 119.097 247.355 118.241 247.355C117.385 247.355 117.385 248.655 118.241 248.655Z" fill="white"/>
<path d="M118.653 252.712C119.509 252.712 119.509 251.413 118.653 251.413C117.797 251.381 117.797 252.712 118.653 252.712Z" fill="white"/>
<path d="M108.921 251.191C109.777 251.191 109.777 249.891 108.921 249.891C108.065 249.859 108.065 251.191 108.921 251.191Z" fill="white"/>
<path d="M100.616 242.759C101.472 242.759 101.472 241.459 100.616 241.459C99.7601 241.459 99.7601 242.759 100.616 242.759Z" fill="white"/>
<path d="M95.4491 248.75C96.305 248.75 96.305 247.45 95.4491 247.45C94.5932 247.45 94.5932 248.75 95.4491 248.75Z" fill="white"/>
<path d="M104.674 269.006C105.53 269.006 105.53 267.706 104.674 267.706C103.818 267.706 103.818 269.006 104.674 269.006Z" fill="white"/>
<path d="M148.737 275.6C149.593 275.6 149.593 274.3 148.737 274.3C147.881 274.269 147.881 275.6 148.737 275.6Z" fill="white"/>
<path d="M187.728 276.709C188.584 276.709 188.584 275.409 187.728 275.409C186.872 275.409 186.872 276.709 187.728 276.709Z" fill="white"/>
<path d="M172.321 266.977C173.177 266.977 173.177 265.678 172.321 265.678C171.497 265.678 171.466 266.977 172.321 266.977Z" fill="white"/>
<path d="M168.993 263.839C169.849 263.839 169.849 262.539 168.993 262.539C168.137 262.539 168.137 263.839 168.993 263.839Z" fill="white"/>
<path d="M161.385 266.661C162.241 266.661 162.241 265.361 161.385 265.361C160.529 265.361 160.529 266.661 161.385 266.661Z" fill="white"/>
<path d="M159.166 266.565C160.022 266.565 160.022 265.266 159.166 265.266C158.31 265.266 158.31 266.565 159.166 266.565Z" fill="white"/>
<path d="M157.644 265.963C158.5 265.963 158.5 264.663 157.644 264.663C156.788 264.663 156.788 265.963 157.644 265.963Z" fill="white"/>
<path d="M151.051 258.862C151.906 258.862 151.906 257.562 151.051 257.562C150.226 257.562 150.195 258.862 151.051 258.862Z" fill="white"/>
<path d="M151.146 257.562C152.002 257.562 152.002 256.263 151.146 256.263C150.322 256.263 150.322 257.562 151.146 257.562Z" fill="white"/>
<path d="M152.763 256.643C153.619 256.643 153.619 255.344 152.763 255.344C151.938 255.344 151.938 256.643 152.763 256.643Z" fill="white"/>
<path d="M159.863 254.424C160.719 254.424 160.719 253.124 159.863 253.124C159.039 253.124 159.008 254.424 159.863 254.424Z" fill="white"/>
<path d="M159.451 245.199C160.307 245.199 160.307 243.899 159.451 243.899C158.627 243.899 158.627 245.199 159.451 245.199Z" fill="white"/>
<path d="M161.195 241.459C162.051 241.459 162.051 240.159 161.195 240.159C160.339 240.159 160.339 241.459 161.195 241.459Z" fill="white"/>
<path d="M167.978 242.156C168.834 242.156 168.834 240.856 167.978 240.856C167.122 240.856 167.122 242.156 167.978 242.156Z" fill="white"/>
<path d="M155.013 243.488C155.869 243.488 155.869 242.188 155.013 242.188C154.157 242.188 154.157 243.488 155.013 243.488Z" fill="white"/>
<path d="M143.252 242.252C144.108 242.252 144.108 240.952 143.252 240.952C142.396 240.952 142.396 242.252 143.252 242.252Z" fill="white"/>
<path d="M221.646 268.183C222.502 268.183 222.502 266.883 221.646 266.883C220.822 266.883 220.822 268.183 221.646 268.183Z" fill="white"/>
<path d="M187.411 265.36C188.267 265.36 188.267 264.061 187.411 264.061C186.586 264.061 186.586 265.36 187.411 265.36Z" fill="white"/>
<path d="M126.832 267.358C127.244 267.358 127.244 266.692 126.832 266.692C126.42 266.724 126.42 267.358 126.832 267.358Z" fill="white"/>
<path d="M123.915 284.445C124.549 284.445 124.549 283.462 123.915 283.462C123.281 283.462 123.281 284.445 123.915 284.445Z" fill="white"/>
<path d="M176.284 268.88C176.696 268.88 176.696 268.214 176.284 268.214C175.84 268.214 175.84 268.88 176.284 268.88Z" fill="white"/>
<path d="M167.345 253.695C167.757 253.695 167.757 253.029 167.345 253.029C166.933 253.029 166.933 253.695 167.345 253.695Z" fill="white"/>
<path d="M172.924 249.637C173.336 249.637 173.336 248.972 172.924 248.972C172.512 248.972 172.512 249.637 172.924 249.637Z" fill="white"/>
<path d="M117.829 257.435C118.241 257.435 118.241 256.77 117.829 256.77C117.417 256.77 117.417 257.435 117.829 257.435Z" fill="white"/>
<path d="M93.3252 260.986C93.7373 260.986 93.7373 260.32 93.3252 260.32C92.9131 260.32 92.9131 260.986 93.3252 260.986Z" fill="white"/>
<path d="M97.4775 243.456C97.8896 243.456 97.8896 242.79 97.4775 242.79C97.0654 242.79 97.0654 243.456 97.4775 243.456Z" fill="white"/>
<path d="M178.598 257.594C179.232 257.594 179.232 256.611 178.598 256.611C177.964 256.611 177.964 257.594 178.598 257.594Z" fill="white"/>
<path d="M167.345 254.202C168.201 254.202 168.201 252.902 167.345 252.902C166.521 252.902 166.521 254.202 167.345 254.202Z" fill="white"/>
<path d="M127.054 245.137C128.734 245.137 128.734 242.537 127.054 242.537C125.374 242.537 125.374 245.137 127.054 245.137Z" fill="white"/>
<path d="M144.172 267.136C145.852 267.136 145.852 264.536 144.172 264.536C142.492 264.505 142.492 267.136 144.172 267.136Z" fill="white"/>
<path d="M135.042 256.58C136.722 256.58 136.722 253.98 135.042 253.98C133.362 253.98 133.362 256.58 135.042 256.58Z" fill="white"/>
<path d="M150.449 246.15C152.129 246.15 152.129 243.551 150.449 243.551C148.768 243.551 148.768 246.15 150.449 246.15Z" fill="white"/>
<path d="M147.596 238.859C149.276 238.859 149.276 236.26 147.596 236.26C145.915 236.26 145.915 238.859 147.596 238.859Z" fill="white"/>
<path d="M169.278 239.367C170.958 239.367 170.958 236.768 169.278 236.768C167.598 236.768 167.598 239.367 169.278 239.367Z" fill="white"/>
<path d="M162.494 239.081C164.175 239.081 164.175 236.482 162.494 236.482C160.814 236.45 160.814 239.081 162.494 239.081Z" fill="white"/>
<path d="M192.578 238.574C194.258 238.574 194.258 235.975 192.578 235.975C190.898 235.943 190.898 238.574 192.578 238.574Z" fill="white"/>
<path d="M205.036 241.808C206.716 241.808 206.716 239.208 205.036 239.208C203.356 239.177 203.356 241.808 205.036 241.808Z" fill="white"/>
<path d="M197.65 241.395C199.33 241.395 199.33 238.796 197.65 238.796C195.97 238.796 195.97 241.395 197.65 241.395Z" fill="white"/>
<path d="M205.733 271.574C207.413 271.574 207.413 268.975 205.733 268.975C204.053 268.975 204.053 271.574 205.733 271.574Z" fill="white"/>
<path d="M198.95 270.971C200.63 270.971 200.63 268.372 198.95 268.372C197.269 268.372 197.269 270.971 198.95 270.971Z" fill="white"/>
<path d="M193.909 268.15C195.589 268.15 195.589 265.551 193.909 265.551C192.229 265.519 192.197 268.15 193.909 268.15Z" fill="white"/>
<path d="M177.679 260.954C179.359 260.954 179.359 258.355 177.679 258.355C175.998 258.323 175.998 260.954 177.679 260.954Z" fill="white"/>
<path d="M171.022 260.954C172.702 260.954 172.702 258.355 171.022 258.355C169.31 258.323 169.31 260.954 171.022 260.954Z" fill="white"/>
<path d="M164.935 257.595C166.615 257.595 166.615 254.995 164.935 254.995C163.255 254.995 163.255 257.595 164.935 257.595Z" fill="white"/>
<path d="M179.105 248.496C180.785 248.496 180.785 245.897 179.105 245.897C177.425 245.865 177.425 248.496 179.105 248.496Z" fill="white"/>
<path d="M173.241 245.549C174.921 245.549 174.921 242.949 173.241 242.949C171.56 242.949 171.56 245.549 173.241 245.549Z" fill="white"/>
<path d="M185.889 248.686C187.569 248.686 187.569 246.087 185.889 246.087C184.209 246.087 184.209 248.686 185.889 248.686Z" fill="white"/>
<path d="M153.079 286.568C154.76 286.568 154.76 283.969 153.079 283.969C151.399 283.969 151.399 286.568 153.079 286.568Z" fill="white"/>
<path d="M145.979 286.981C147.659 286.981 147.659 284.381 145.979 284.381C144.299 284.349 144.299 286.981 145.979 286.981Z" fill="white"/>
<path d="M140.717 283.937C142.397 283.937 142.397 281.338 140.717 281.338C139.037 281.338 139.037 283.937 140.717 283.937Z" fill="white"/>
<path d="M149.022 269.862C150.702 269.862 150.702 267.263 149.022 267.263C147.342 267.263 147.342 269.862 149.022 269.862Z" fill="white"/>
<path d="M156.218 269.546C157.898 269.546 157.898 266.946 156.218 266.946C154.537 266.946 154.537 269.546 156.218 269.546Z" fill="white"/>
<path d="M122.806 263.396C124.486 263.396 124.486 260.796 122.806 260.796C121.126 260.764 121.094 263.396 122.806 263.396Z" fill="white"/>
<path d="M115.8 263.49C117.48 263.49 117.48 260.891 115.8 260.891C114.12 260.859 114.12 263.49 115.8 263.49Z" fill="white"/>
<path d="M110.348 260.353C112.028 260.353 112.028 257.753 110.348 257.753C108.668 257.722 108.636 260.353 110.348 260.353Z" fill="white"/>
<path d="M206.558 265.139C208.016 265.139 208.047 262.856 206.558 262.856C205.099 262.856 205.099 265.139 206.558 265.139Z" fill="white"/>
<path d="M213.056 274.934C214.355 274.934 214.355 272.905 213.056 272.905C211.724 272.905 211.724 274.934 213.056 274.934Z" fill="white"/>
<path d="M218.825 275.441C220.125 275.441 220.125 273.412 218.825 273.412C217.525 273.412 217.494 275.441 218.825 275.441Z" fill="white"/>
<path d="M215.275 252.966C216.575 252.966 216.575 250.938 215.275 250.938C213.975 250.938 213.975 252.966 215.275 252.966Z" fill="white"/>
<path d="M218.191 245.675C219.491 245.675 219.491 243.646 218.191 243.646C216.891 243.646 216.891 245.675 218.191 245.675Z" fill="white"/>
<path d="M233.915 245.454C235.214 245.454 235.214 243.425 233.915 243.425C232.615 243.425 232.615 245.454 233.915 245.454Z" fill="white"/>
<path d="M211.915 245.77C213.214 245.77 213.214 243.741 211.915 243.741C210.615 243.741 210.615 245.77 211.915 245.77Z" fill="white"/>
<path d="M192.768 252.458C194.067 252.458 194.067 250.43 192.768 250.43C191.468 250.43 191.468 252.458 192.768 252.458Z" fill="white"/>
<path d="M199.171 252.554C200.471 252.554 200.471 250.525 199.171 250.525C197.871 250.525 197.871 252.554 199.171 252.554Z" fill="white"/>
<path d="M197.84 254.488C199.14 254.488 199.14 252.459 197.84 252.459C196.54 252.459 196.54 254.488 197.84 254.488Z" fill="white"/>
<path d="M193.275 245.675C194.575 245.675 194.575 243.646 193.275 243.646C191.975 243.646 191.975 245.675 193.275 245.675Z" fill="white"/>
<path d="M198.062 243.234C199.362 243.234 199.362 241.205 198.062 241.205C196.731 241.205 196.731 243.234 198.062 243.234Z" fill="white"/>
<path d="M204.022 263.998C205.321 263.998 205.321 261.969 204.022 261.969C202.722 261.969 202.722 263.998 204.022 263.998Z" fill="white"/>
<path d="M193.909 275.346C195.209 275.346 195.209 273.317 193.909 273.317C192.578 273.317 192.578 275.346 193.909 275.346Z" fill="white"/>
<path d="M201.993 275.251C203.293 275.251 203.293 273.223 201.993 273.223C200.693 273.223 200.693 275.251 201.993 275.251Z" fill="white"/>
<path d="M198.664 284.159C199.964 284.159 199.964 282.13 198.664 282.13C197.365 282.13 197.365 284.159 198.664 284.159Z" fill="white"/>
<path d="M184.97 273.634C186.27 273.634 186.27 271.605 184.97 271.605C183.67 271.605 183.67 273.634 184.97 273.634Z" fill="white"/>
<path d="M184.082 270.37C185.382 270.37 185.382 268.341 184.082 268.341C182.782 268.341 182.751 270.37 184.082 270.37Z" fill="white"/>
<path d="M190.866 265.107C192.166 265.107 192.166 263.078 190.866 263.078C189.566 263.078 189.566 265.107 190.866 265.107Z" fill="white"/>
<path d="M184.779 265.33C186.079 265.33 186.079 263.301 184.779 263.301C183.48 263.301 183.48 265.33 184.779 265.33Z" fill="white"/>
<path d="M183.068 258.133C184.367 258.133 184.367 256.104 183.068 256.104C181.768 256.104 181.768 258.133 183.068 258.133Z" fill="white"/>
<path d="M178.598 261.969C179.898 261.969 179.898 259.94 178.598 259.94C177.298 259.94 177.298 261.969 178.598 261.969Z" fill="white"/>
<path d="M182.053 252.745C183.353 252.745 183.353 250.716 182.053 250.716C180.754 250.716 180.754 252.745 182.053 252.745Z" fill="white"/>
<path d="M176.379 253.758C177.679 253.758 177.679 251.729 176.379 251.729C175.079 251.729 175.079 253.758 176.379 253.758Z" fill="white"/>
<path d="M174.54 252.554C175.84 252.554 175.84 250.525 174.54 250.525C173.241 250.525 173.241 252.554 174.54 252.554Z" fill="white"/>
<path d="M182.243 243.234C183.543 243.234 183.543 241.205 182.243 241.205C180.944 241.205 180.944 243.234 182.243 243.234Z" fill="white"/>
<path d="M184.589 241.396C185.889 241.396 185.889 239.367 184.589 239.367C183.29 239.399 183.258 241.396 184.589 241.396Z" fill="white"/>
<path d="M183.068 240.793C184.367 240.793 184.367 238.765 183.068 238.765C181.768 238.765 181.768 240.793 183.068 240.793Z" fill="white"/>
<path d="M164.523 248.306C165.823 248.306 165.823 246.277 164.523 246.277C163.223 246.277 163.223 248.306 164.523 248.306Z" fill="white"/>
<path d="M163.192 250.715C164.491 250.715 164.491 248.687 163.192 248.687C161.892 248.687 161.892 250.715 163.192 250.715Z" fill="white"/>
<path d="M161.797 252.142C163.097 252.142 163.097 250.113 161.797 250.113C160.497 250.113 160.497 252.142 161.797 252.142Z" fill="white"/>
<path d="M164.333 242.822C165.633 242.822 165.633 240.793 164.333 240.793C163.002 240.793 163.002 242.822 164.333 242.822Z" fill="white"/>
<path d="M175.872 243.424C177.171 243.424 177.171 241.396 175.872 241.396C174.572 241.396 174.572 243.424 175.872 243.424Z" fill="white"/>
<path d="M170.515 245.675C171.814 245.675 171.814 243.646 170.515 243.646C169.183 243.646 169.183 245.675 170.515 245.675Z" fill="white"/>
<path d="M179.105 250.842C180.405 250.842 180.405 248.813 179.105 248.813C177.805 248.813 177.805 250.842 179.105 250.842Z" fill="white"/>
<path d="M200.693 245.77C201.993 245.77 201.993 243.741 200.693 243.741C199.393 243.741 199.393 245.77 200.693 245.77Z" fill="white"/>
<path d="M170.705 274.015C172.004 274.015 172.004 271.986 170.705 271.986C169.405 271.986 169.405 274.015 170.705 274.015Z" fill="white"/>
<path d="M169.278 273.73C170.578 273.73 170.578 271.701 169.278 271.701C167.978 271.701 167.978 273.73 169.278 273.73Z" fill="white"/>
<path d="M171.719 275.537C173.019 275.537 173.019 273.508 171.719 273.508C170.419 273.508 170.419 275.537 171.719 275.537Z" fill="white"/>
<path d="M181.546 290.848C182.846 290.848 182.846 288.819 181.546 288.819C180.246 288.819 180.246 290.848 181.546 290.848Z" fill="white"/>
<path d="M184.367 287.899C185.667 287.899 185.667 285.87 184.367 285.87C183.068 285.87 183.068 287.899 184.367 287.899Z" fill="white"/>
<path d="M156.313 278.167C157.613 278.167 157.613 276.139 156.313 276.139C155.013 276.139 155.013 278.167 156.313 278.167Z" fill="white"/>
<path d="M163.192 273.825C164.491 273.825 164.491 271.796 163.192 271.796C161.892 271.796 161.892 273.825 163.192 273.825Z" fill="white"/>
<path d="M164.333 265.615C165.633 265.615 165.633 263.586 164.333 263.586C163.002 263.586 163.002 265.615 164.333 265.615Z" fill="white"/>
<path d="M165.632 265.107C166.932 265.107 166.932 263.078 165.632 263.078C164.333 263.078 164.333 265.107 165.632 265.107Z" fill="white"/>
<path d="M176.664 263.491C177.964 263.491 177.964 261.462 176.664 261.462C175.365 261.462 175.365 263.491 176.664 263.491Z" fill="white"/>
<path d="M173.938 264.822C175.238 264.822 175.238 262.793 173.938 262.793C172.638 262.793 172.638 264.822 173.938 264.822Z" fill="white"/>
<path d="M154.411 263.998C155.711 263.998 155.711 261.969 154.411 261.969C153.08 261.969 153.08 263.998 154.411 263.998Z" fill="white"/>
<path d="M154.189 261.969C155.489 261.969 155.489 259.94 154.189 259.94C152.889 259.94 152.889 261.969 154.189 261.969Z" fill="white"/>
<path d="M156.313 260.257C157.613 260.257 157.613 258.229 156.313 258.229C155.013 258.229 155.013 260.257 156.313 260.257Z" fill="white"/>
<path d="M160.782 263.585C162.082 263.585 162.082 261.557 160.782 261.557C159.483 261.557 159.483 263.585 160.782 263.585Z" fill="white"/>
<path d="M151.463 267.548C152.762 267.548 152.762 265.52 151.463 265.52C150.163 265.52 150.163 267.548 151.463 267.548Z" fill="white"/>
<path d="M152.256 273.507C153.555 273.507 153.555 271.479 152.256 271.479C150.956 271.479 150.956 273.507 152.256 273.507Z" fill="white"/>
<path d="M151.241 279.689C152.541 279.689 152.541 277.66 151.241 277.66C149.941 277.66 149.941 279.689 151.241 279.689Z" fill="white"/>
<path d="M149.117 282.828C150.417 282.828 150.417 280.799 149.117 280.799C147.817 280.799 147.817 282.828 149.117 282.828Z" fill="white"/>
<path d="M148.832 291.132C150.131 291.132 150.131 289.104 148.832 289.104C147.532 289.104 147.532 291.132 148.832 291.132Z" fill="white"/>
<path d="M140.938 290.943C142.238 290.943 142.238 288.914 140.938 288.914C139.607 288.914 139.607 290.943 140.938 290.943Z" fill="white"/>
<path d="M145.979 301.911C147.278 301.911 147.278 299.882 145.979 299.882C144.679 299.882 144.679 301.911 145.979 301.911Z" fill="white"/>
<path d="M131.207 306.952C132.506 306.952 132.506 304.923 131.207 304.923C129.907 304.923 129.907 306.952 131.207 306.952Z" fill="white"/>
<path d="M160.276 291.038C161.575 291.038 161.575 289.009 160.276 289.009C158.976 289.009 158.976 291.038 160.276 291.038Z" fill="white"/>
<path d="M166.14 291.45C167.44 291.45 167.44 289.421 166.14 289.421C164.84 289.421 164.84 291.45 166.14 291.45Z" fill="white"/>
<path d="M134.25 286.695C135.55 286.695 135.55 284.666 134.25 284.666C132.95 284.666 132.918 286.695 134.25 286.695Z" fill="white"/>
<path d="M131.809 286.283C133.108 286.283 133.108 284.254 131.809 284.254C130.509 284.254 130.509 286.283 131.809 286.283Z" fill="white"/>
<path d="M119.256 290.943C120.555 290.943 120.555 288.914 119.256 288.914C117.956 288.914 117.956 290.943 119.256 290.943Z" fill="white"/>
<path d="M116.022 276.266C117.322 276.266 117.322 274.237 116.022 274.237C114.691 274.237 114.691 276.266 116.022 276.266Z" fill="white"/>
<path d="M121.982 273.825C123.281 273.825 123.281 271.796 121.982 271.796C120.682 271.796 120.682 273.825 121.982 273.825Z" fill="white"/>
<path d="M126.134 276.361C127.434 276.361 127.434 274.332 126.134 274.332C124.835 274.332 124.835 276.361 126.134 276.361Z" fill="white"/>
<path d="M100.806 280.197C102.106 280.197 102.106 278.168 100.806 278.168C99.5066 278.168 99.5066 280.197 100.806 280.197Z" fill="white"/>
<path d="M135.866 267.643C137.166 267.643 137.166 265.614 135.866 265.614C134.567 265.614 134.567 267.643 135.866 267.643Z" fill="white"/>
<path d="M134.63 269.165C135.93 269.165 135.93 267.136 134.63 267.136C133.33 267.136 133.33 269.165 134.63 269.165Z" fill="white"/>
<path d="M140.621 272.621C141.921 272.621 141.921 270.592 140.621 270.592C139.322 270.592 139.322 272.621 140.621 272.621Z" fill="white"/>
<path d="M144.457 273.634C145.757 273.634 145.757 271.605 144.457 271.605C143.157 271.605 143.157 273.634 144.457 273.634Z" fill="white"/>
<path d="M142.745 259.845C144.045 259.845 144.045 257.816 142.745 257.816C141.446 257.816 141.446 259.845 142.745 259.845Z" fill="white"/>
<path d="M143.348 263.807C144.648 263.807 144.648 261.778 143.348 261.778C142.048 261.778 142.048 263.807 143.348 263.807Z" fill="white"/>
<path d="M144.679 264.822C145.979 264.822 145.979 262.793 144.679 262.793C143.379 262.793 143.379 264.822 144.679 264.822Z" fill="white"/>
<path d="M147.595 255.692C148.895 255.692 148.895 253.663 147.595 253.663C146.296 253.663 146.296 255.692 147.595 255.692Z" fill="white"/>
<path d="M152.477 252.554C153.777 252.554 153.777 250.525 152.477 250.525C151.178 250.525 151.178 252.554 152.477 252.554Z" fill="white"/>
<path d="M146.296 250.525C147.595 250.525 147.595 248.496 146.296 248.496C144.996 248.496 144.996 250.525 146.296 250.525Z" fill="white"/>
<path d="M145.883 252.364C147.183 252.364 147.183 250.335 145.883 250.335C144.584 250.335 144.584 252.364 145.883 252.364Z" fill="white"/>
<path d="M155.394 249.828C156.693 249.828 156.693 247.799 155.394 247.799C154.094 247.799 154.094 249.828 155.394 249.828Z" fill="white"/>
<path d="M157.232 250.43C158.532 250.43 158.532 248.401 157.232 248.401C155.932 248.401 155.932 250.43 157.232 250.43Z" fill="white"/>
<path d="M157.232 243.234C158.532 243.234 158.532 241.205 157.232 241.205C155.932 241.205 155.932 243.234 157.232 243.234Z" fill="white"/>
<path d="M134.947 243.424C136.247 243.424 136.247 241.396 134.947 241.396C133.647 241.396 133.647 243.424 134.947 243.424Z" fill="white"/>
<path d="M128.671 246.182C129.97 246.182 129.97 244.153 128.671 244.153C127.371 244.153 127.371 246.182 128.671 246.182Z" fill="white"/>
<path d="M126.547 247.894C127.846 247.894 127.846 245.865 126.547 245.865C125.247 245.865 125.247 247.894 126.547 247.894Z" fill="white"/>
<path d="M120.777 247.578C122.077 247.578 122.077 245.549 120.777 245.549C119.478 245.549 119.446 247.578 120.777 247.578Z" fill="white"/>
<path d="M115.103 242.03C116.402 242.03 116.402 240.001 115.103 240.001C113.803 240.001 113.803 242.03 115.103 242.03Z" fill="white"/>
<path d="M92.2157 243.33C93.5154 243.33 93.5154 241.301 92.2157 241.301C90.916 241.301 90.8843 243.33 92.2157 243.33Z" fill="white"/>
<path d="M92.5959 249.922C93.8956 249.922 93.8956 247.894 92.5959 247.894C91.2962 247.894 91.2962 249.922 92.5959 249.922Z" fill="white"/>
<path d="M92.7225 260.036C94.0222 260.036 94.0222 258.007 92.7225 258.007C91.4228 258.007 91.3911 260.036 92.7225 260.036Z" fill="white"/>
<path d="M101.218 262.571C102.518 262.571 102.518 260.542 101.218 260.542C99.9187 260.542 99.9187 262.571 101.218 262.571Z" fill="white"/>
<path d="M105.688 262.16C106.988 262.16 106.988 260.131 105.688 260.131C104.357 260.163 104.357 262.16 105.688 262.16Z" fill="white"/>
<path d="M110.031 247.482C111.331 247.482 111.331 245.453 110.031 245.453C108.731 245.453 108.731 247.482 110.031 247.482Z" fill="white"/>
<path d="M101.916 247.989C103.215 247.989 103.215 245.96 101.916 245.96C100.616 245.96 100.616 247.989 101.916 247.989Z" fill="white"/>
<path d="M105.276 245.167C106.576 245.167 106.576 243.139 105.276 243.139C103.976 243.139 103.976 245.167 105.276 245.167Z" fill="white"/>
<path d="M113.264 263.903C114.564 263.903 114.564 261.874 113.264 261.874C111.965 261.874 111.965 263.903 113.264 263.903Z" fill="white"/>
<path d="M111.045 267.548C112.345 267.548 112.345 265.52 111.045 265.52C109.745 265.52 109.745 267.548 111.045 267.548Z" fill="white"/>
<path d="M118.939 267.548C120.238 267.548 120.238 265.52 118.939 265.52C117.639 265.52 117.639 267.548 118.939 267.548Z" fill="white"/>
<path d="M128.575 263.3C129.875 263.3 129.875 261.271 128.575 261.271C127.276 261.271 127.276 263.3 128.575 263.3Z" fill="white"/>
<path d="M130.097 267.739C131.397 267.739 131.397 265.71 130.097 265.71C128.797 265.71 128.766 267.739 130.097 267.739Z" fill="white"/>
<path d="M121.38 255.597C122.679 255.597 122.679 253.568 121.38 253.568C120.08 253.568 120.08 255.597 121.38 255.597Z" fill="white"/>
<path d="M120.048 258.735C121.348 258.735 121.348 256.706 120.048 256.706C118.748 256.706 118.748 258.735 120.048 258.735Z" fill="white"/>
<path d="M126.039 259.148C127.339 259.148 127.339 257.119 126.039 257.119C124.74 257.119 124.74 259.148 126.039 259.148Z" fill="white"/>
<path d="M134.345 249.922C135.645 249.922 135.645 247.894 134.345 247.894C133.045 247.894 133.045 249.922 134.345 249.922Z" fill="white"/>
<path d="M138.402 250.621C139.702 250.621 139.702 248.592 138.402 248.592C137.103 248.592 137.071 250.621 138.402 250.621Z" fill="white"/>
<path d="M139.924 249.701C141.224 249.701 141.224 247.672 139.924 247.672C138.592 247.704 138.592 249.701 139.924 249.701Z" fill="white"/>
<path d="M165.632 243.646C166.932 243.646 166.932 241.617 165.632 241.617C164.333 241.617 164.333 243.646 165.632 243.646Z" fill="white"/>
<path d="M135.771 263.681C137.071 263.681 137.071 261.652 135.771 261.652C134.44 261.652 134.44 263.681 135.771 263.681Z" fill="white"/>
<path d="M116.91 250.937C118.21 250.937 118.21 248.908 116.91 248.908C115.61 248.908 115.61 250.937 116.91 250.937Z" fill="white"/>
<path d="M115.008 249.321C116.308 249.321 116.308 247.292 115.008 247.292C113.676 247.292 113.676 249.321 115.008 249.321Z" fill="white"/>
<path d="M122.901 249.922C124.201 249.922 124.201 247.894 122.901 247.894C121.601 247.894 121.601 249.922 122.901 249.922Z" fill="white"/>
<path d="M106.703 256.516C108.002 256.516 108.002 254.487 106.703 254.487C105.371 254.487 105.371 256.516 106.703 256.516Z" fill="white"/>
<path d="M107.21 243.614C108.89 243.614 108.89 241.015 107.21 241.015C105.498 241.015 105.498 243.614 107.21 243.614Z" fill="white"/>
<path d="M101.821 240.191C103.501 240.191 103.501 237.591 101.821 237.591C100.141 237.559 100.141 240.191 101.821 240.191Z" fill="white"/>
<path d="M114.183 243.519C115.864 243.519 115.864 240.92 114.183 240.92C112.503 240.92 112.503 243.519 114.183 243.519Z" fill="white"/>
<path d="M120.27 245.358C121.95 245.358 121.95 242.759 120.27 242.759C118.59 242.727 118.59 245.358 120.27 245.358Z" fill="white"/>
<path d="M143.443 246.88C145.123 246.88 145.123 244.281 143.443 244.281C141.763 244.249 141.763 246.88 143.443 246.88Z" fill="white"/>
<path d="M138.18 243.931C139.861 243.931 139.861 241.332 138.18 241.332C136.5 241.332 136.5 243.931 138.18 243.931Z" fill="white"/>
<path d="M147.405 259.719C149.085 259.719 149.085 257.119 147.405 257.119C145.725 257.119 145.725 259.719 147.405 259.719Z" fill="white"/>
<path d="M140.209 259.433C141.889 259.433 141.889 256.833 140.209 256.833C138.529 256.802 138.529 259.433 140.209 259.433Z" fill="white"/>
<path d="M143.062 248.496C143.696 248.496 143.696 247.514 143.062 247.514C142.428 247.514 142.428 248.496 143.062 248.496Z" fill="white"/>
<path d="M141.953 247.165C142.587 247.165 142.587 246.183 141.953 246.183C141.319 246.183 141.319 247.165 141.953 247.165Z" fill="white"/>
<path d="M141.319 249.511C141.953 249.511 141.953 248.528 141.319 248.528C140.685 248.528 140.685 249.511 141.319 249.511Z" fill="white"/>
<path d="M125.437 237.845C126.071 237.845 126.071 236.862 125.437 236.862C124.803 236.862 124.803 237.845 125.437 237.845Z" fill="white"/>
<path d="M105.783 246.468C106.417 246.468 106.417 245.485 105.783 245.485C105.149 245.485 105.149 246.468 105.783 246.468Z" fill="white"/>
<path d="M129.273 265.393C129.907 265.393 129.907 264.41 129.273 264.41C128.639 264.41 128.639 265.393 129.273 265.393Z" fill="white"/>
<path d="M138.783 260.448C139.417 260.448 139.417 259.465 138.783 259.465C138.18 259.465 138.18 260.448 138.783 260.448Z" fill="white"/>
<path d="M148.515 256.579C149.149 256.579 149.149 255.597 148.515 255.597C147.881 255.597 147.881 256.579 148.515 256.579Z" fill="white"/>
<path d="M177.806 251.825C178.44 251.825 178.44 250.842 177.806 250.842C177.172 250.842 177.172 251.825 177.806 251.825Z" fill="white"/>
<path d="M89.6796 266.597C89.9015 266.597 89.9015 266.28 89.6796 266.28C89.4577 266.249 89.4577 266.597 89.6796 266.597Z" fill="white"/>
<path d="M98.9994 273.571C99.2213 273.571 99.2213 273.254 98.9994 273.254C98.7775 273.254 98.7775 273.571 98.9994 273.571Z" fill="white"/>
<path d="M133.616 274.173C133.838 274.173 133.838 273.856 133.616 273.856C133.426 273.856 133.426 274.173 133.616 274.173Z" fill="white"/>
<path d="M180.215 282.383C180.437 282.383 180.437 282.066 180.215 282.066C180.025 282.066 180.025 282.383 180.215 282.383Z" fill="white"/>
<path d="M233.915 233.091H84.4175V236.895H233.915V233.091Z" fill="white"/>
<path d="M235.499 275.061C236.355 275.061 236.355 273.762 235.499 273.762C234.675 273.762 234.675 275.061 235.499 275.061Z" fill="white"/>
<path d="M231.188 272.271C232.868 272.271 232.868 269.672 231.188 269.672C229.508 269.672 229.508 272.271 231.188 272.271Z" fill="white"/>
<path d="M228.304 257.15C229.16 257.15 229.16 255.851 228.304 255.851C227.479 255.851 227.479 257.15 228.304 257.15Z" fill="white"/>
<path d="M225.165 255.693C225.799 255.693 225.799 254.71 225.165 254.71C224.531 254.71 224.531 255.693 225.165 255.693Z" fill="white"/>
</svg>
