<svg width="109" height="107" viewBox="0 0 109 107" fill="none" xmlns="http://www.w3.org/2000/svg">
<path d="M4.41863 2.49316H5.97349V16.5326H4.41863V8.52967H2.01775V16.5326H0.462891V2.49316H2.01775V6.95194H4.41863V2.49316Z" fill="black"/>
<path d="M17.109 13.8345H14.3423L14.0221 16.5326H12.4673L14.0679 2.49316H17.3834L19.0068 16.5326H17.4291L17.109 13.8345ZM16.9489 12.4168L15.9886 4.04803H15.4627L14.5023 12.4168H16.9489Z" fill="black"/>
<path d="M29.2505 16.5318V7.61422L26.9411 9.94651V16.5318H25.3862V2.49233H26.9411V8.04867L29.2505 5.64779V2.49233H30.8054V16.5318H29.2505ZM29.5935 1.02895H26.6438V0H29.5935V1.02895Z" fill="black"/>
<path d="M40.752 6.95194C41.1407 6.95194 41.4837 7.02055 41.7581 7.13488C42.0324 7.24921 42.2611 7.40927 42.4211 7.59219C42.5812 7.79798 42.7184 8.02663 42.787 8.27816C42.8785 8.52968 42.9013 8.82692 42.9013 9.12417V14.3832C42.9013 14.772 42.8327 15.1149 42.7184 15.3893C42.6041 15.6637 42.444 15.8924 42.2611 16.0524C42.0553 16.2125 41.8267 16.3497 41.5751 16.4183C41.3236 16.5097 41.0264 16.5326 40.7291 16.5326H37.688V2.49316H42.4898V4.04803H39.2428V6.92908H40.752V6.95194ZM41.3465 9.10131C41.3465 8.94125 41.3007 8.80405 41.2093 8.66686C41.1178 8.55253 40.9578 8.48394 40.7291 8.48394H39.2428V14.9549H40.7291C40.912 14.9549 41.0492 14.9092 41.1635 14.8177C41.2779 14.7262 41.3465 14.5662 41.3465 14.3375V9.10131Z" fill="black"/>
<path d="M55.0889 2.49316V16.5326H53.534V4.07089H51.7505L51.2932 14.6119C51.2703 15.2521 51.1331 15.7552 50.8816 16.0753C50.6301 16.3954 50.1728 16.5555 49.5325 16.5555H48.6865V15.0006H49.3268C49.4868 15.0006 49.6011 14.9778 49.6469 14.932C49.6926 14.8863 49.7155 14.772 49.7383 14.6119L50.2642 2.51604H55.0889V2.49316Z" fill="black"/>
<path d="M65.8355 16.5326V7.61505L63.526 9.94734V16.5326H61.9712V2.49316H63.526V8.0495L65.8355 5.64862V2.49316H67.3903V16.5326H65.8355Z" fill="black"/>
<path d="M75.4848 7.75224L73.7241 2.49316H75.3704L76.9024 7.08915H78.0914V2.49316H79.6463V7.08915H80.8124L82.3444 2.49316H83.9907L82.2301 7.75224L84.1051 16.5326H82.5045L80.7667 8.41534H79.6234V16.5326H78.0686V8.41534H76.9253L75.1875 16.5326H73.5869L75.4848 7.75224Z" fill="black"/>
<path d="M95.3091 2.49316V16.5326H93.7314V12.0738H92.1537C91.8564 12.0738 91.582 12.0281 91.3076 11.9595C91.0561 11.868 90.8046 11.7537 90.6217 11.5937C90.4159 11.4336 90.2787 11.2049 90.1644 10.9306C90.05 10.6562 89.9814 10.3132 89.9814 9.92446V2.51604H91.5363V9.92446C91.5363 10.1531 91.6049 10.3132 91.7192 10.4046C91.8336 10.4961 91.9707 10.5418 92.1537 10.5418H93.7314V2.51604H95.3091V2.49316Z" fill="black"/>
<path d="M106.513 13.8345H103.747L103.426 16.5326H101.872L103.472 2.49316H106.788L108.411 16.5326H106.833L106.513 13.8345ZM106.353 12.4168L105.393 4.04803H104.867L103.907 12.4168H106.353Z" fill="black"/>
<path d="M11.2326 21.0137V49.3441H8.09998V24.1691H3.59547V49.3441H0.462891V21.0137H11.2326Z" fill="black"/>
<path d="M26.3693 21.0137V24.1463H20.0813V29.977H24.8145V33.1553H20.0813V46.1658H26.3693V49.3441H16.9487V21.0137H26.3693Z" fill="black"/>
<path d="M31.377 21.0137H34.5095V30.2742H37.2077L40.3174 21.0137H43.6557L40.1116 31.6233L43.9073 49.3212H40.6832L37.1848 32.9266H34.5324V49.3441H31.3998V21.0137H31.377Z" fill="black"/>
<path d="M56.7581 43.9021H51.156L50.4929 49.3212H47.3604L50.5844 21.0137H57.284L60.5538 49.3441H57.3755L56.7581 43.9021ZM56.4151 41.0439L54.4487 24.1463H53.3969L51.4761 41.0439H56.4151Z" fill="black"/>
<path d="M75.7591 35.9906C75.7591 36.7909 75.6448 37.454 75.4161 38.0028C75.1875 38.5515 74.8674 39.0088 74.4558 39.3518C74.0442 39.6948 73.5869 39.9463 73.0381 40.1064C72.5122 40.2665 71.9406 40.3579 71.3461 40.3579H68.4421V49.3441H65.3096V21.0137H71.3461C72.1235 21.0137 72.8095 21.128 73.3582 21.3567C73.907 21.5853 74.3643 21.9054 74.7302 22.2942C75.0731 22.6829 75.3475 23.1402 75.5076 23.6889C75.6677 24.2377 75.7591 24.7865 75.7591 25.381V35.9906ZM72.5808 25.381C72.5808 25.0609 72.4893 24.7636 72.3064 24.535C72.1235 24.2834 71.8034 24.1691 71.3461 24.1691H68.4421V37.2253H71.3461C71.689 37.2253 71.9863 37.1339 72.215 36.951C72.4436 36.768 72.5579 36.4479 72.5579 35.9906V25.381H72.5808Z" fill="black"/>
<path d="M88.9298 21.0137H92.0852V49.3441H88.9526V33.1781H84.0823V49.3441H80.9497V21.0137H84.0823V30.0227H88.9298V21.0137Z" fill="black"/>
<path d="M108.205 21.0137V49.3441H105.073V35.8077H103.266L100.157 49.3441H96.9326L100.065 35.6019C99.2649 35.3504 98.6247 34.9159 98.0988 34.2528C97.5728 33.5897 97.3213 32.6522 97.3213 31.4404V25.4039C97.3213 24.8094 97.4128 24.2377 97.5728 23.7118C97.7329 23.1859 97.9844 22.7286 98.3274 22.317C98.6704 21.9283 99.1048 21.6082 99.6765 21.3795C100.225 21.1509 100.911 21.0365 101.689 21.0365H108.205V21.0137ZM105.05 24.1691H101.712C101.254 24.1691 100.934 24.2834 100.751 24.535C100.568 24.7865 100.477 25.0609 100.477 25.381V31.4175C100.477 31.8519 100.591 32.1721 100.843 32.355C101.094 32.5379 101.369 32.6294 101.689 32.6294H105.027V24.1691H105.05Z" fill="black"/>
<path d="M3.66414 77.2178C4.28151 77.2178 4.28151 76.2803 3.66414 76.2803C3.06964 76.2803 3.06964 77.2178 3.66414 77.2178Z" fill="black"/>
<path d="M0.463027 59.1084C1.0804 59.1084 1.0804 58.1709 0.463027 58.1709C-0.154342 58.1709 -0.154342 59.1084 0.463027 59.1084Z" fill="black"/>
<path d="M2.49812 58.0791C3.11549 58.0791 3.11549 57.1416 2.49812 57.1416C1.90362 57.1416 1.90362 58.0791 2.49812 58.0791Z" fill="black"/>
<path d="M8.92342 72.5517C9.54079 72.5517 9.54079 71.6143 8.92342 71.6143C8.32891 71.6143 8.32891 72.5517 8.92342 72.5517Z" fill="black"/>
<path d="M14.9141 70.2881C15.5315 70.2881 15.5315 69.3506 14.9141 69.3506C14.3196 69.3506 14.3196 70.2881 14.9141 70.2881Z" fill="black"/>
<path d="M21.8654 77.2178C22.4827 77.2178 22.4827 76.2803 21.8654 76.2803C21.248 76.2803 21.248 77.2178 21.8654 77.2178Z" fill="black"/>
<path d="M29.0221 72.849C29.6395 72.849 29.6395 71.9115 29.0221 71.9115C28.4047 71.8887 28.4047 72.849 29.0221 72.849Z" fill="black"/>
<path d="M32.086 72.4838C32.7034 72.4838 32.7034 71.5463 32.086 71.5463C31.4915 71.5234 31.4915 72.4838 32.086 72.4838Z" fill="black"/>
<path d="M34.9445 59.9072C35.5618 59.9072 35.5618 58.9697 34.9445 58.9697C34.3271 58.9697 34.3271 59.9072 34.9445 59.9072Z" fill="black"/>
<path d="M34.7843 58.1484C35.4016 58.1484 35.4016 57.2109 34.7843 57.2109C34.1898 57.2109 34.1898 58.1484 34.7843 58.1484Z" fill="black"/>
<path d="M33.4122 58.376C34.0296 58.376 34.0296 57.4385 33.4122 57.4385C32.7949 57.4385 32.7949 58.376 33.4122 58.376Z" fill="black"/>
<path d="M32.1549 59.7709C32.7722 59.7709 32.7722 58.8334 32.1549 58.8334C31.5604 58.8105 31.5604 59.7709 32.1549 59.7709Z" fill="black"/>
<path d="M25.4322 58.2377C26.0496 58.2377 26.0496 57.3002 25.4322 57.3002C24.8377 57.2773 24.8377 58.2377 25.4322 58.2377Z" fill="black"/>
<path d="M28.8849 60.5014C29.5023 60.5014 29.5023 59.5639 28.8849 59.5639C28.2675 59.541 28.2675 60.5014 28.8849 60.5014Z" fill="black"/>
<path d="M18.2064 57.7812C18.8238 57.7812 18.8238 56.8438 18.2064 56.8438C17.6119 56.8438 17.5891 57.7812 18.2064 57.7812Z" fill="black"/>
<path d="M8.05434 56.1807C8.67171 56.1807 8.67171 55.2432 8.05434 55.2432C7.43697 55.2432 7.43697 56.1807 8.05434 56.1807Z" fill="black"/>
<path d="M88.1295 57.0498C88.7469 57.0498 88.7469 56.1123 88.1295 56.1123C87.5122 56.1123 87.5122 57.0498 88.1295 57.0498Z" fill="black"/>
<path d="M91.2623 56.6826C91.8797 56.6826 91.8797 55.7451 91.2623 55.7451C90.6678 55.7451 90.6678 56.6826 91.2623 56.6826Z" fill="black"/>
<path d="M98.8761 56.9121C99.4935 56.9121 99.4935 55.9746 98.8761 55.9746C98.2587 55.9746 98.2587 56.9121 98.8761 56.9121Z" fill="black"/>
<path d="M99.4478 78.475C100.065 78.475 100.065 77.5375 99.4478 77.5375C98.8533 77.5146 98.8533 78.475 99.4478 78.475Z" fill="black"/>
<path d="M91.4909 78.475C92.1082 78.475 92.1082 77.5375 91.4909 77.5375C90.8735 77.5146 90.8735 78.475 91.4909 78.475Z" fill="black"/>
<path d="M89.067 78.475C89.6843 78.475 89.6843 77.5375 89.067 77.5375C88.4725 77.5146 88.4725 78.475 89.067 78.475Z" fill="black"/>
<path d="M84.608 72.7578C85.2254 72.7578 85.2254 71.8203 84.608 71.8203C84.0135 71.8203 84.0135 72.7578 84.608 72.7578Z" fill="black"/>
<path d="M79.2804 71.0209C79.8977 71.0209 79.8977 70.0834 79.2804 70.0834C78.6858 70.0605 78.6858 71.0209 79.2804 71.0209Z" fill="black"/>
<path d="M81.1783 61.3711C81.7957 61.3711 81.7957 60.4336 81.1783 60.4336C80.5838 60.4336 80.5838 61.3711 81.1783 61.3711Z" fill="black"/>
<path d="M77.3829 61.9652C78.0003 61.9652 78.0003 61.0277 77.3829 61.0277C76.7884 61.0049 76.7884 61.9652 77.3829 61.9652Z" fill="black"/>
<path d="M85.1339 61.9652C85.7513 61.9652 85.7513 61.0277 85.1339 61.0277C84.5166 61.0049 84.5166 61.9652 85.1339 61.9652Z" fill="black"/>
<path d="M74.6159 62.1035C75.2332 62.1035 75.2332 61.166 74.6159 61.166C73.9985 61.166 73.9985 62.1035 74.6159 62.1035Z" fill="black"/>
<path d="M66.1329 57.6435C66.7503 57.6435 66.7503 56.7061 66.1329 56.7061C65.5384 56.7061 65.5384 57.6435 66.1329 57.6435Z" fill="black"/>
<path d="M68.5568 56.9121C69.1741 56.9121 69.1741 55.9746 68.5568 55.9746C67.9394 55.9746 67.9394 56.9121 68.5568 56.9121Z" fill="black"/>
<path d="M70.3629 56.3174C70.9802 56.3174 70.9802 55.3799 70.3629 55.3799C69.7684 55.3799 69.7684 56.3174 70.3629 56.3174Z" fill="black"/>
<path d="M52.5509 62.766C53.1683 62.766 53.1683 61.8285 52.5509 61.8285C51.9335 61.8057 51.9335 62.766 52.5509 62.766Z" fill="black"/>
<path d="M57.2154 69.9912C57.8328 69.9912 57.8328 69.0537 57.2154 69.0537C56.6209 69.0537 56.6209 69.9912 57.2154 69.9912Z" fill="black"/>
<path d="M68.6251 78.2451C69.2425 78.2451 69.2425 77.3076 68.6251 77.3076C68.0078 77.3076 68.0078 78.2451 68.6251 78.2451Z" fill="black"/>
<path d="M81.8417 82.934C82.4591 82.934 82.4591 81.9965 81.8417 81.9965C81.2472 81.9736 81.2243 82.934 81.8417 82.934Z" fill="black"/>
<path d="M61.4684 89.725C62.0858 89.725 62.0858 88.7875 61.4684 88.7875C60.851 88.7646 60.851 89.725 61.4684 89.725Z" fill="black"/>
<path d="M54.0143 89.793C54.6317 89.793 54.6317 88.8555 54.0143 88.8555C53.3969 88.8555 53.3969 89.793 54.0143 89.793Z" fill="black"/>
<path d="M51.0875 89.4971C51.7049 89.4971 51.7049 88.5596 51.0875 88.5596C50.4702 88.5596 50.4702 89.4971 51.0875 89.4971Z" fill="black"/>
<path d="M43.9303 93.8168C44.5477 93.8168 44.5477 92.8793 43.9303 92.8793C43.3129 92.8564 43.3129 93.8168 43.9303 93.8168Z" fill="black"/>
<path d="M36.7736 96.1494C37.3909 96.1494 37.3909 95.2119 36.7736 95.2119C36.1562 95.2119 36.1562 96.1494 36.7736 96.1494Z" fill="black"/>
<path d="M30.7829 89.4971C31.4002 89.4971 31.4002 88.5596 30.7829 88.5596C30.1655 88.5596 30.1655 89.4971 30.7829 89.4971Z" fill="black"/>
<path d="M36.8419 87.3008C37.4593 87.3008 37.4593 86.3633 36.8419 86.3633C36.2246 86.3633 36.2246 87.3008 36.8419 87.3008Z" fill="black"/>
<path d="M39.0372 83.0024C39.6546 83.0024 39.6546 82.0649 39.0372 82.0649C38.4199 82.042 38.4199 83.0024 39.0372 83.0024Z" fill="black"/>
<path d="M46.1256 81.6758C46.743 81.6758 46.743 80.7383 46.1256 80.7383C45.5083 80.7383 45.5083 81.6758 46.1256 81.6758Z" fill="black"/>
<path d="M39.9059 74.6572C40.5233 74.6572 40.5233 73.7197 39.9059 73.7197C39.2885 73.7197 39.2885 74.6572 39.9059 74.6572Z" fill="black"/>
<path d="M38.9459 74.9531C39.5632 74.9531 39.5632 74.0156 38.9459 74.0156C38.3514 74.0156 38.3514 74.9531 38.9459 74.9531Z" fill="black"/>
<path d="M34.5783 66.9951C35.1956 66.9951 35.1956 66.0576 34.5783 66.0576C33.9609 66.0576 33.9609 66.9951 34.5783 66.9951Z" fill="black"/>
<path d="M32.3146 67.9555C32.932 67.9555 32.932 67.018 32.3146 67.018C31.6972 66.9951 31.6972 67.9555 32.3146 67.9555Z" fill="black"/>
<path d="M24.8605 64.2978C25.4779 64.2978 25.4779 63.3604 24.8605 63.3604C24.2431 63.3604 24.2431 64.2978 24.8605 64.2978Z" fill="black"/>
<path d="M25.1579 67.224C25.7752 67.224 25.7752 66.2865 25.1579 66.2865C24.5405 66.2637 24.5405 67.224 25.1579 67.224Z" fill="black"/>
<path d="M18.1383 66.1274C18.7557 66.1274 18.7557 65.1899 18.1383 65.1899C17.521 65.167 17.521 66.1274 18.1383 66.1274Z" fill="black"/>
<path d="M12.1471 60.0449C12.7645 60.0449 12.7645 59.1074 12.1471 59.1074C11.5297 59.1074 11.5297 60.0449 12.1471 60.0449Z" fill="black"/>
<path d="M8.42006 64.3662C9.03743 64.3662 9.03743 63.4287 8.42006 63.4287C7.80269 63.4287 7.80269 64.3662 8.42006 64.3662Z" fill="black"/>
<path d="M15.0739 78.9765C15.6912 78.9765 15.6912 78.0391 15.0739 78.0391C14.4565 78.0391 14.4565 78.9765 15.0739 78.9765Z" fill="black"/>
<path d="M46.8571 83.7328C47.4744 83.7328 47.4744 82.7953 46.8571 82.7953C46.2397 82.7725 46.2397 83.7328 46.8571 83.7328Z" fill="black"/>
<path d="M74.9816 84.5342C75.599 84.5342 75.599 83.5967 74.9816 83.5967C74.3642 83.5967 74.3642 84.5342 74.9816 84.5342Z" fill="black"/>
<path d="M63.869 77.5146C64.4864 77.5146 64.4864 76.5771 63.869 76.5771C63.2745 76.5771 63.2517 77.5146 63.869 77.5146Z" fill="black"/>
<path d="M61.4684 75.251C62.0858 75.251 62.0858 74.3135 61.4684 74.3135C60.851 74.3135 60.851 75.251 61.4684 75.251Z" fill="black"/>
<path d="M55.9806 77.2852C56.598 77.2852 56.598 76.3477 55.9806 76.3477C55.3632 76.3477 55.3632 77.2852 55.9806 77.2852Z" fill="black"/>
<path d="M54.38 77.2178C54.9974 77.2178 54.9974 76.2803 54.38 76.2803C53.7626 76.2803 53.7626 77.2178 54.38 77.2178Z" fill="black"/>
<path d="M53.2824 76.7832C53.8997 76.7832 53.8997 75.8457 53.2824 75.8457C52.665 75.8457 52.665 76.7832 53.2824 76.7832Z" fill="black"/>
<path d="M48.5263 71.6611C49.1436 71.6611 49.1436 70.7236 48.5263 70.7236C47.9318 70.7236 47.9089 71.6611 48.5263 71.6611Z" fill="black"/>
<path d="M48.5948 70.7236C49.2122 70.7236 49.2122 69.7861 48.5948 69.7861C48.0003 69.7861 48.0003 70.7236 48.5948 70.7236Z" fill="black"/>
<path d="M49.7613 70.0605C50.3787 70.0605 50.3787 69.123 49.7613 69.123C49.1668 69.123 49.1668 70.0605 49.7613 70.0605Z" fill="black"/>
<path d="M54.8832 68.4599C55.5006 68.4599 55.5006 67.5225 54.8832 67.5225C54.2887 67.5225 54.2658 68.4599 54.8832 68.4599Z" fill="black"/>
<path d="M54.5855 61.8056C55.2029 61.8056 55.2029 60.8682 54.5855 60.8682C53.991 60.8682 53.991 61.8056 54.5855 61.8056Z" fill="black"/>
<path d="M55.8434 59.1084C56.4608 59.1084 56.4608 58.1709 55.8434 58.1709C55.226 58.1709 55.226 59.1084 55.8434 59.1084Z" fill="black"/>
<path d="M60.7365 59.6103C61.3538 59.6103 61.3538 58.6729 60.7365 58.6729C60.1191 58.6729 60.1191 59.6103 60.7365 59.6103Z" fill="black"/>
<path d="M51.3844 60.5703C52.0018 60.5703 52.0018 59.6328 51.3844 59.6328C50.767 59.6328 50.767 60.5703 51.3844 60.5703Z" fill="black"/>
<path d="M42.9015 59.6797C43.5189 59.6797 43.5189 58.7422 42.9015 58.7422C42.2841 58.7422 42.2841 59.6797 42.9015 59.6797Z" fill="black"/>
<path d="M99.4478 78.3828C100.065 78.3828 100.065 77.4453 99.4478 77.4453C98.8533 77.4453 98.8533 78.3828 99.4478 78.3828Z" fill="black"/>
<path d="M74.753 76.3476C75.3704 76.3476 75.3704 75.4102 74.753 75.4102C74.1585 75.4102 74.1585 76.3476 74.753 76.3476Z" fill="black"/>
<path d="M31.0569 77.7878C31.3542 77.7878 31.3542 77.3076 31.0569 77.3076C30.7597 77.3305 30.7597 77.7878 31.0569 77.7878Z" fill="black"/>
<path d="M28.9533 90.1121C29.4106 90.1121 29.4106 89.4033 28.9533 89.4033C28.496 89.4033 28.496 90.1121 28.9533 90.1121Z" fill="black"/>
<path d="M66.7274 78.8855C67.0246 78.8855 67.0246 78.4053 66.7274 78.4053C66.4073 78.4053 66.4073 78.8855 66.7274 78.8855Z" fill="black"/>
<path d="M60.2791 67.9343C60.5763 67.9343 60.5763 67.4541 60.2791 67.4541C59.9818 67.4541 59.9818 67.9343 60.2791 67.9343Z" fill="black"/>
<path d="M64.3035 65.0075C64.6008 65.0075 64.6008 64.5273 64.3035 64.5273C64.0063 64.5273 64.0063 65.0075 64.3035 65.0075Z" fill="black"/>
<path d="M24.5633 70.6315C24.8605 70.6315 24.8605 70.1514 24.5633 70.1514C24.266 70.1514 24.266 70.6315 24.5633 70.6315Z" fill="black"/>
<path d="M6.88847 73.1931C7.18572 73.1931 7.18572 72.7129 6.88847 72.7129C6.59121 72.7129 6.59121 73.1931 6.88847 73.1931Z" fill="black"/>
<path d="M9.88358 60.5485C10.1808 60.5485 10.1808 60.0684 9.88358 60.0684C9.58633 60.0684 9.58633 60.5485 9.88358 60.5485Z" fill="black"/>
<path d="M68.3967 70.7469C68.854 70.7469 68.854 70.0381 68.3967 70.0381C67.9394 70.0381 67.9394 70.7469 68.3967 70.7469Z" fill="black"/>
<path d="M60.2794 68.2988C60.8967 68.2988 60.8967 67.3613 60.2794 67.3613C59.6849 67.3613 59.6849 68.2988 60.2794 68.2988Z" fill="black"/>
<path d="M31.217 61.7597C32.4289 61.7597 32.4289 59.8848 31.217 59.8848C30.0051 59.8848 30.0051 61.7597 31.217 61.7597Z" fill="black"/>
<path d="M43.5647 77.6281C44.7765 77.6281 44.7765 75.7531 43.5647 75.7531C42.3528 75.7303 42.3528 77.6281 43.5647 77.6281Z" fill="black"/>
<path d="M36.9792 70.0146C38.1911 70.0146 38.1911 68.1396 36.9792 68.1396C35.7673 68.1396 35.7673 70.0146 36.9792 70.0146Z" fill="black"/>
<path d="M48.092 62.4912C49.3039 62.4912 49.3039 60.6162 48.092 60.6162C46.8801 60.6162 46.8801 62.4912 48.092 62.4912Z" fill="black"/>
<path d="M46.0339 57.2324C47.2458 57.2324 47.2458 55.3574 46.0339 55.3574C44.822 55.3574 44.822 57.2324 46.0339 57.2324Z" fill="black"/>
<path d="M61.674 57.5986C62.8859 57.5986 62.8859 55.7236 61.674 55.7236C60.4622 55.7236 60.4622 57.5986 61.674 57.5986Z" fill="black"/>
<path d="M56.781 57.3928C57.9928 57.3928 57.9928 55.5178 56.781 55.5178C55.5691 55.4949 55.5691 57.3928 56.781 57.3928Z" fill="black"/>
<path d="M78.4802 57.0265C79.6921 57.0265 79.6921 55.1516 78.4802 55.1516C77.2683 55.1287 77.2683 57.0265 78.4802 57.0265Z" fill="black"/>
<path d="M87.4665 59.3596C88.6784 59.3596 88.6784 57.4846 87.4665 57.4846C86.2546 57.4617 86.2546 59.3596 87.4665 59.3596Z" fill="black"/>
<path d="M82.1389 59.0615C83.3508 59.0615 83.3508 57.1865 82.1389 57.1865C80.927 57.1865 80.927 59.0615 82.1389 59.0615Z" fill="black"/>
<path d="M87.9695 80.8291C89.1813 80.8291 89.1813 78.9541 87.9695 78.9541C86.7576 78.9541 86.7576 80.8291 87.9695 80.8291Z" fill="black"/>
<path d="M83.0764 80.3955C84.2883 80.3955 84.2883 78.5205 83.0764 78.5205C81.8645 78.5205 81.8645 80.3955 83.0764 80.3955Z" fill="black"/>
<path d="M79.4404 78.3605C80.6523 78.3605 80.6523 76.4856 79.4404 76.4856C78.2286 76.4627 78.2057 78.3605 79.4404 78.3605Z" fill="black"/>
<path d="M67.7336 73.1691C68.9455 73.1691 68.9455 71.2942 67.7336 71.2942C66.5217 71.2713 66.5217 73.1691 67.7336 73.1691Z" fill="black"/>
<path d="M62.9314 73.1691C64.1433 73.1691 64.1433 71.2942 62.9314 71.2942C61.6967 71.2713 61.6967 73.1691 62.9314 73.1691Z" fill="black"/>
<path d="M58.5417 70.7461C59.7536 70.7461 59.7536 68.8711 58.5417 68.8711C57.3298 68.8711 57.3298 70.7461 58.5417 70.7461Z" fill="black"/>
<path d="M68.7624 64.1838C69.9743 64.1838 69.9743 62.3088 68.7624 62.3088C67.5505 62.2859 67.5505 64.1838 68.7624 64.1838Z" fill="black"/>
<path d="M64.5324 62.0566C65.7443 62.0566 65.7443 60.1816 64.5324 60.1816C63.3206 60.1816 63.3206 62.0566 64.5324 62.0566Z" fill="black"/>
<path d="M73.6555 64.3213C74.8674 64.3213 74.8674 62.4463 73.6555 62.4463C72.4436 62.4463 72.4436 64.3213 73.6555 64.3213Z" fill="black"/>
<path d="M49.99 91.6455C51.2018 91.6455 51.2018 89.7705 49.99 89.7705C48.7781 89.7705 48.7781 91.6455 49.99 91.6455Z" fill="black"/>
<path d="M44.8679 91.9426C46.0798 91.9426 46.0798 90.0676 44.8679 90.0676C43.656 90.0447 43.656 91.9426 44.8679 91.9426Z" fill="black"/>
<path d="M41.072 89.747C42.2839 89.747 42.2839 87.8721 41.072 87.8721C39.8601 87.8721 39.8601 89.747 41.072 89.747Z" fill="black"/>
<path d="M47.0632 79.5947C48.2751 79.5947 48.2751 77.7197 47.0632 77.7197C45.8513 77.7197 45.8513 79.5947 47.0632 79.5947Z" fill="black"/>
<path d="M52.2536 79.3662C53.4655 79.3662 53.4655 77.4912 52.2536 77.4912C51.0418 77.4912 51.0418 79.3662 52.2536 79.3662Z" fill="black"/>
<path d="M28.1533 74.9318C29.3652 74.9318 29.3652 73.0568 28.1533 73.0568C26.9415 73.034 26.9186 74.9318 28.1533 74.9318Z" fill="black"/>
<path d="M23.0998 74.9982C24.3117 74.9982 24.3117 73.1233 23.0998 73.1233C21.8879 73.1004 21.8879 74.9982 23.0998 74.9982Z" fill="black"/>
<path d="M19.167 72.7355C20.3789 72.7355 20.3789 70.8606 19.167 70.8606C17.9551 70.8377 17.9323 72.7355 19.167 72.7355Z" fill="black"/>
<path d="M88.5638 76.1873C89.6156 76.1873 89.6384 74.541 88.5638 74.541C87.5119 74.541 87.5119 76.1873 88.5638 76.1873Z" fill="black"/>
<path d="M93.2515 83.2544C94.189 83.2544 94.189 81.791 93.2515 81.791C92.2912 81.791 92.2912 83.2544 93.2515 83.2544Z" fill="black"/>
<path d="M97.4129 83.6187C98.3504 83.6187 98.3504 82.1553 97.4129 82.1553C96.4754 82.1553 96.4525 83.6187 97.4129 83.6187Z" fill="black"/>
<path d="M94.852 67.4077C95.7895 67.4077 95.7895 65.9443 94.852 65.9443C93.9146 65.9443 93.9146 67.4077 94.852 67.4077Z" fill="black"/>
<path d="M96.9556 62.1489C97.893 62.1489 97.893 60.6855 96.9556 60.6855C96.0181 60.6855 96.0181 62.1489 96.9556 62.1489Z" fill="black"/>
<path d="M108.297 61.9878C109.234 61.9878 109.234 60.5244 108.297 60.5244C107.359 60.5244 107.359 61.9878 108.297 61.9878Z" fill="black"/>
<path d="M92.4282 62.2173C93.3657 62.2173 93.3657 60.7539 92.4282 60.7539C91.4907 60.7539 91.4907 62.2173 92.4282 62.2173Z" fill="black"/>
<path d="M78.6172 67.0425C79.5547 67.0425 79.5547 65.5791 78.6172 65.5791C77.6797 65.5791 77.6797 67.0425 78.6172 67.0425Z" fill="black"/>
<path d="M83.2363 67.1118C84.1738 67.1118 84.1738 65.6484 83.2363 65.6484C82.2988 65.6484 82.2988 67.1118 83.2363 67.1118Z" fill="black"/>
<path d="M82.2759 68.5044C83.2134 68.5044 83.2134 67.041 82.2759 67.041C81.3384 67.041 81.3384 68.5044 82.2759 68.5044Z" fill="black"/>
<path d="M78.9834 62.1489C79.9209 62.1489 79.9209 60.6855 78.9834 60.6855C78.0459 60.6855 78.0459 62.1489 78.9834 62.1489Z" fill="black"/>
<path d="M82.4361 60.3872C83.3736 60.3872 83.3736 58.9238 82.4361 58.9238C81.4757 58.9238 81.4757 60.3872 82.4361 60.3872Z" fill="black"/>
<path d="M86.7349 75.3648C87.6723 75.3648 87.6723 73.9014 86.7349 73.9014C85.7974 73.9014 85.7974 75.3648 86.7349 75.3648Z" fill="black"/>
<path d="M79.4405 83.5503C80.378 83.5503 80.378 82.0869 79.4405 82.0869C78.4801 82.0869 78.4801 83.5503 79.4405 83.5503Z" fill="black"/>
<path d="M85.2715 83.4829C86.209 83.4829 86.209 82.0195 85.2715 82.0195C84.334 82.0195 84.334 83.4829 85.2715 83.4829Z" fill="black"/>
<path d="M82.8706 89.9068C83.8081 89.9068 83.8081 88.4434 82.8706 88.4434C81.9331 88.4434 81.9331 89.9068 82.8706 89.9068Z" fill="black"/>
<path d="M72.9927 82.3159C73.9302 82.3159 73.9302 80.8525 72.9927 80.8525C72.0552 80.8525 72.0552 82.3159 72.9927 82.3159Z" fill="black"/>
<path d="M72.3523 79.9605C73.2898 79.9605 73.2898 78.4971 72.3523 78.4971C71.4149 78.4971 71.392 79.9605 72.3523 79.9605Z" fill="black"/>
<path d="M77.2456 76.1655C78.1831 76.1655 78.1831 74.7021 77.2456 74.7021C76.3081 74.7021 76.3081 76.1655 77.2456 76.1655Z" fill="black"/>
<path d="M72.8555 76.3247C73.7929 76.3247 73.7929 74.8613 72.8555 74.8613C71.918 74.8613 71.918 76.3247 72.8555 76.3247Z" fill="black"/>
<path d="M71.6206 71.1343C72.5581 71.1343 72.5581 69.6709 71.6206 69.6709C70.6831 69.6709 70.6831 71.1343 71.6206 71.1343Z" fill="black"/>
<path d="M68.3965 73.9029C69.334 73.9029 69.334 72.4395 68.3965 72.4395C67.459 72.4395 67.459 73.9029 68.3965 73.9029Z" fill="black"/>
<path d="M70.8887 67.2466C71.8261 67.2466 71.8261 65.7832 70.8887 65.7832C69.9512 65.7832 69.9512 67.2466 70.8887 67.2466Z" fill="black"/>
<path d="M66.7959 67.98C67.7334 67.98 67.7334 66.5166 66.7959 66.5166C65.8584 66.5166 65.8584 67.98 66.7959 67.98Z" fill="black"/>
<path d="M65.4697 67.1118C66.4072 67.1118 66.4072 65.6484 65.4697 65.6484C64.5322 65.6484 64.5322 67.1118 65.4697 67.1118Z" fill="black"/>
<path d="M71.0259 60.3872C71.9634 60.3872 71.9634 58.9238 71.0259 58.9238C70.0884 58.9238 70.0884 60.3872 71.0259 60.3872Z" fill="black"/>
<path d="M72.7181 59.062C73.6556 59.062 73.6556 57.5986 72.7181 57.5986C71.7806 57.6215 71.7577 59.062 72.7181 59.062Z" fill="black"/>
<path d="M71.6206 58.6274C72.5581 58.6274 72.5581 57.1641 71.6206 57.1641C70.6831 57.1641 70.6831 58.6274 71.6206 58.6274Z" fill="black"/>
<path d="M58.2441 64.0464C59.1816 64.0464 59.1816 62.583 58.2441 62.583C57.3066 62.583 57.3066 64.0464 58.2441 64.0464Z" fill="black"/>
<path d="M57.2837 65.7857C58.2212 65.7857 58.2212 64.3223 57.2837 64.3223C56.3462 64.3223 56.3462 65.7857 57.2837 65.7857Z" fill="black"/>
<path d="M56.2778 66.813C57.2153 66.813 57.2153 65.3496 56.2778 65.3496C55.3403 65.3496 55.3403 66.813 56.2778 66.813Z" fill="black"/>
<path d="M58.107 60.0904C59.0445 60.0904 59.0445 58.627 58.107 58.627C57.1466 58.627 57.1466 60.0904 58.107 60.0904Z" fill="black"/>
<path d="M66.4302 60.5249C67.3677 60.5249 67.3677 59.0615 66.4302 59.0615C65.4927 59.0615 65.4927 60.5249 66.4302 60.5249Z" fill="black"/>
<path d="M62.566 62.1489C63.5035 62.1489 63.5035 60.6855 62.566 60.6855C61.6056 60.6855 61.6056 62.1489 62.566 62.1489Z" fill="black"/>
<path d="M68.7622 65.8755C69.6997 65.8755 69.6997 64.4121 68.7622 64.4121C67.8247 64.4121 67.8247 65.8755 68.7622 65.8755Z" fill="black"/>
<path d="M84.334 62.2173C85.2715 62.2173 85.2715 60.7539 84.334 60.7539C83.3965 60.7539 83.3965 62.2173 84.334 62.2173Z" fill="black"/>
<path d="M62.7031 82.5904C63.6406 82.5904 63.6406 81.127 62.7031 81.127C61.7656 81.127 61.7656 82.5904 62.7031 82.5904Z" fill="black"/>
<path d="M61.6738 82.3843C62.6113 82.3843 62.6113 80.9209 61.6738 80.9209C60.7363 80.9209 60.7363 82.3843 61.6738 82.3843Z" fill="black"/>
<path d="M63.4346 83.688C64.372 83.688 64.372 82.2246 63.4346 82.2246C62.4971 82.2246 62.4971 83.688 63.4346 83.688Z" fill="black"/>
<path d="M70.5229 94.732C71.4604 94.732 71.4604 93.2686 70.5229 93.2686C69.5855 93.2686 69.5855 94.732 70.5229 94.732Z" fill="black"/>
<path d="M72.5581 92.606C73.4956 92.606 73.4956 91.1426 72.5581 91.1426C71.6206 91.1426 71.6206 92.606 72.5581 92.606Z" fill="black"/>
<path d="M52.3223 85.5855C53.2597 85.5855 53.2597 84.1221 52.3223 84.1221C51.3848 84.1221 51.3848 85.5855 52.3223 85.5855Z" fill="black"/>
<path d="M57.2837 82.4526C58.2212 82.4526 58.2212 80.9893 57.2837 80.9893C56.3462 80.9893 56.3462 82.4526 57.2837 82.4526Z" fill="black"/>
<path d="M58.107 76.5308C59.0445 76.5308 59.0445 75.0674 58.107 75.0674C57.1466 75.0674 57.1466 76.5308 58.107 76.5308Z" fill="black"/>
<path d="M59.0444 76.1655C59.9819 76.1655 59.9819 74.7021 59.0444 74.7021C58.1069 74.7021 58.1069 76.1655 59.0444 76.1655Z" fill="black"/>
<path d="M67.0019 74.9986C67.9394 74.9986 67.9394 73.5352 67.0019 73.5352C66.0645 73.5352 66.0645 74.9986 67.0019 74.9986Z" fill="black"/>
<path d="M65.0351 75.9585C65.9726 75.9585 65.9726 74.4951 65.0351 74.4951C64.0977 74.4951 64.0977 75.9585 65.0351 75.9585Z" fill="black"/>
<path d="M50.9502 75.3648C51.8877 75.3648 51.8877 73.9014 50.9502 73.9014C49.9899 73.9014 49.9899 75.3648 50.9502 75.3648Z" fill="black"/>
<path d="M50.79 73.9029C51.7275 73.9029 51.7275 72.4395 50.79 72.4395C49.8525 72.4395 49.8525 73.9029 50.79 73.9029Z" fill="black"/>
<path d="M52.3223 72.6665C53.2597 72.6665 53.2597 71.2031 52.3223 71.2031C51.3848 71.2031 51.3848 72.6665 52.3223 72.6665Z" fill="black"/>
<path d="M55.5459 75.0679C56.4834 75.0679 56.4834 73.6045 55.5459 73.6045C54.6084 73.6045 54.6084 75.0679 55.5459 75.0679Z" fill="black"/>
<path d="M48.8237 77.9253C49.7612 77.9253 49.7612 76.4619 48.8237 76.4619C47.8862 76.4619 47.8862 77.9253 48.8237 77.9253Z" fill="black"/>
<path d="M49.3955 82.2251C50.333 82.2251 50.333 80.7617 49.3955 80.7617C48.458 80.7617 48.458 82.2251 49.3955 82.2251Z" fill="black"/>
<path d="M48.6636 86.6831C49.6011 86.6831 49.6011 85.2197 48.6636 85.2197C47.7261 85.2197 47.7261 86.6831 48.6636 86.6831Z" fill="black"/>
<path d="M47.1318 88.9468C48.0693 88.9468 48.0693 87.4834 47.1318 87.4834C46.1943 87.4834 46.1943 88.9468 47.1318 88.9468Z" fill="black"/>
<path d="M46.9258 94.937C47.8633 94.937 47.8633 93.4736 46.9258 93.4736C45.9883 93.4736 45.9883 94.937 46.9258 94.937Z" fill="black"/>
<path d="M41.2325 94.8013C42.17 94.8013 42.17 93.3379 41.2325 93.3379C40.2721 93.3379 40.2721 94.8013 41.2325 94.8013Z" fill="black"/>
<path d="M44.8677 102.711C45.8052 102.711 45.8052 101.248 44.8677 101.248C43.9302 101.248 43.9302 102.711 44.8677 102.711Z" fill="black"/>
<path d="M34.2124 106.347C35.1499 106.347 35.1499 104.884 34.2124 104.884C33.2749 104.884 33.2749 106.347 34.2124 106.347Z" fill="black"/>
<path d="M55.1802 94.8696C56.1177 94.8696 56.1177 93.4062 55.1802 93.4062C54.2427 93.4062 54.2427 94.8696 55.1802 94.8696Z" fill="black"/>
<path d="M59.4101 95.1665C60.3476 95.1665 60.3476 93.7031 59.4101 93.7031C58.4727 93.7031 58.4727 95.1665 59.4101 95.1665Z" fill="black"/>
<path d="M36.4075 91.7359C37.345 91.7359 37.345 90.2725 36.4075 90.2725C35.47 90.2725 35.4472 91.7359 36.4075 91.7359Z" fill="black"/>
<path d="M34.647 91.439C35.5844 91.439 35.5844 89.9756 34.647 89.9756C33.7095 89.9756 33.7095 91.439 34.647 91.439Z" fill="black"/>
<path d="M25.5923 94.8013C26.5298 94.8013 26.5298 93.3379 25.5923 93.3379C24.6548 93.3379 24.6548 94.8013 25.5923 94.8013Z" fill="black"/>
<path d="M23.2598 84.2154C24.1973 84.2154 24.1973 82.752 23.2598 82.752C22.2995 82.752 22.2995 84.2154 23.2598 84.2154Z" fill="black"/>
<path d="M27.5586 82.4526C28.4961 82.4526 28.4961 80.9893 27.5586 80.9893C26.6211 80.9893 26.6211 82.4526 27.5586 82.4526Z" fill="black"/>
<path d="M30.5542 84.2827C31.4917 84.2827 31.4917 82.8193 30.5542 82.8193C29.6167 82.8193 29.6167 84.2827 30.5542 84.2827Z" fill="black"/>
<path d="M12.2847 87.0493C13.2221 87.0493 13.2221 85.5859 12.2847 85.5859C11.3472 85.5859 11.3472 87.0493 12.2847 87.0493Z" fill="black"/>
<path d="M37.5737 77.9946C38.5112 77.9946 38.5112 76.5312 37.5737 76.5312C36.6362 76.5312 36.6362 77.9946 37.5737 77.9946Z" fill="black"/>
<path d="M36.6821 79.0913C37.6196 79.0913 37.6196 77.6279 36.6821 77.6279C35.7446 77.6279 35.7446 79.0913 36.6821 79.0913Z" fill="black"/>
<path d="M41.0034 81.5845C41.9409 81.5845 41.9409 80.1211 41.0034 80.1211C40.0659 80.1211 40.0659 81.5845 41.0034 81.5845Z" fill="black"/>
<path d="M43.7705 82.3159C44.708 82.3159 44.708 80.8525 43.7705 80.8525C42.833 80.8525 42.833 82.3159 43.7705 82.3159Z" fill="black"/>
<path d="M42.5356 72.3687C43.4731 72.3687 43.4731 70.9053 42.5356 70.9053C41.5981 70.9053 41.5981 72.3687 42.5356 72.3687Z" fill="black"/>
<path d="M42.9702 75.2271C43.9077 75.2271 43.9077 73.7637 42.9702 73.7637C42.0327 73.7637 42.0327 75.2271 42.9702 75.2271Z" fill="black"/>
<path d="M43.9302 75.9585C44.8677 75.9585 44.8677 74.4951 43.9302 74.4951C42.9927 74.4951 42.9927 75.9585 43.9302 75.9585Z" fill="black"/>
<path d="M46.0342 69.3745C46.9717 69.3745 46.9717 67.9111 46.0342 67.9111C45.0967 67.9111 45.0967 69.3745 46.0342 69.3745Z" fill="black"/>
<path d="M49.5552 67.1118C50.4927 67.1118 50.4927 65.6484 49.5552 65.6484C48.6177 65.6484 48.6177 67.1118 49.5552 67.1118Z" fill="black"/>
<path d="M45.0967 65.646C46.0342 65.646 46.0342 64.1826 45.0967 64.1826C44.1592 64.1826 44.1592 65.646 45.0967 65.646Z" fill="black"/>
<path d="M44.7993 66.9732C45.7368 66.9732 45.7368 65.5098 44.7993 65.5098C43.8618 65.5098 43.8618 66.9732 44.7993 66.9732Z" fill="black"/>
<path d="M51.6592 65.144C52.5967 65.144 52.5967 63.6807 51.6592 63.6807C50.7217 63.6807 50.7217 65.144 51.6592 65.144Z" fill="black"/>
<path d="M52.9853 65.5786C53.9228 65.5786 53.9228 64.1152 52.9853 64.1152C52.0479 64.1152 52.0479 65.5786 52.9853 65.5786Z" fill="black"/>
<path d="M52.9853 60.3872C53.9228 60.3872 53.9228 58.9238 52.9853 58.9238C52.0479 58.9238 52.0479 60.3872 52.9853 60.3872Z" fill="black"/>
<path d="M36.9106 60.5249C37.8481 60.5249 37.8481 59.0615 36.9106 59.0615C35.9731 59.0615 35.9731 60.5249 36.9106 60.5249Z" fill="black"/>
<path d="M32.3833 62.5151C33.3208 62.5151 33.3208 61.0518 32.3833 61.0518C31.4458 61.0518 31.4458 62.5151 32.3833 62.5151Z" fill="black"/>
<path d="M30.8516 63.7495C31.789 63.7495 31.789 62.2861 30.8516 62.2861C29.9141 62.2861 29.9141 63.7495 30.8516 63.7495Z" fill="black"/>
<path d="M26.6897 63.522C27.6272 63.522 27.6272 62.0586 26.6897 62.0586C25.7523 62.0586 25.7294 63.522 26.6897 63.522Z" fill="black"/>
<path d="M22.5967 59.5191C23.5342 59.5191 23.5342 58.0557 22.5967 58.0557C21.6592 58.0557 21.6592 59.5191 22.5967 59.5191Z" fill="black"/>
<path d="M6.08818 60.4565C7.02567 60.4565 7.02567 58.9932 6.08818 58.9932C5.15069 58.9932 5.12783 60.4565 6.08818 60.4565Z" fill="black"/>
<path d="M6.36229 65.2124C7.29978 65.2124 7.29978 63.749 6.36229 63.749C5.42481 63.749 5.42481 65.2124 6.36229 65.2124Z" fill="black"/>
<path d="M6.4539 72.5073C7.39139 72.5073 7.39139 71.0439 6.4539 71.0439C5.51642 71.0439 5.49355 72.5073 6.4539 72.5073Z" fill="black"/>
<path d="M12.5815 74.3355C13.519 74.3355 13.519 72.8721 12.5815 72.8721C11.644 72.8721 11.644 74.3355 12.5815 74.3355Z" fill="black"/>
<path d="M15.8057 74.0376C16.7432 74.0376 16.7432 72.5742 15.8057 72.5742C14.8454 72.5971 14.8454 74.0376 15.8057 74.0376Z" fill="black"/>
<path d="M18.9385 63.4517C19.876 63.4517 19.876 61.9883 18.9385 61.9883C18.001 61.9883 18.001 63.4517 18.9385 63.4517Z" fill="black"/>
<path d="M13.085 63.8179C14.0224 63.8179 14.0224 62.3545 13.085 62.3545C12.1475 62.3545 12.1475 63.8179 13.085 63.8179Z" fill="black"/>
<path d="M15.5088 61.7827C16.4463 61.7827 16.4463 60.3193 15.5088 60.3193C14.5713 60.3193 14.5713 61.7827 15.5088 61.7827Z" fill="black"/>
<path d="M21.2705 75.2964C22.208 75.2964 22.208 73.833 21.2705 73.833C20.333 73.833 20.333 75.2964 21.2705 75.2964Z" fill="black"/>
<path d="M19.6699 77.9253C20.6074 77.9253 20.6074 76.4619 19.6699 76.4619C18.7324 76.4619 18.7324 77.9253 19.6699 77.9253Z" fill="black"/>
<path d="M25.3638 77.9253C26.3012 77.9253 26.3012 76.4619 25.3638 76.4619C24.4263 76.4619 24.4263 77.9253 25.3638 77.9253Z" fill="black"/>
<path d="M32.3149 74.8608C33.2524 74.8608 33.2524 73.3975 32.3149 73.3975C31.3774 73.3975 31.3774 74.8608 32.3149 74.8608Z" fill="black"/>
<path d="M33.4124 78.064C34.3499 78.064 34.3499 76.6006 33.4124 76.6006C32.4749 76.6006 32.452 78.064 33.4124 78.064Z" fill="black"/>
<path d="M27.124 69.3062C28.0615 69.3062 28.0615 67.8428 27.124 67.8428C26.1865 67.8428 26.1865 69.3062 27.124 69.3062Z" fill="black"/>
<path d="M26.1641 71.5689C27.1015 71.5689 27.1015 70.1055 26.1641 70.1055C25.2266 70.1055 25.2266 71.5689 26.1641 71.5689Z" fill="black"/>
<path d="M30.4853 71.8667C31.4228 71.8667 31.4228 70.4033 30.4853 70.4033C29.5479 70.4033 29.5479 71.8667 30.4853 71.8667Z" fill="black"/>
<path d="M36.4761 65.2124C37.4136 65.2124 37.4136 63.749 36.4761 63.749C35.5386 63.749 35.5386 65.2124 36.4761 65.2124Z" fill="black"/>
<path d="M39.4031 65.7163C40.3406 65.7163 40.3406 64.2529 39.4031 64.2529C38.4656 64.2529 38.4428 65.7163 39.4031 65.7163Z" fill="black"/>
<path d="M40.5005 65.0523C41.438 65.0523 41.438 63.5889 40.5005 63.5889C39.5402 63.6117 39.5402 65.0523 40.5005 65.0523Z" fill="black"/>
<path d="M59.0444 60.6851C59.9819 60.6851 59.9819 59.2217 59.0444 59.2217C58.1069 59.2217 58.1069 60.6851 59.0444 60.6851Z" fill="black"/>
<path d="M37.5054 75.1362C38.4429 75.1362 38.4429 73.6729 37.5054 73.6729C36.5451 73.6729 36.5451 75.1362 37.5054 75.1362Z" fill="black"/>
<path d="M23.9004 65.9439C24.8379 65.9439 24.8379 64.4805 23.9004 64.4805C22.9629 64.4805 22.9629 65.9439 23.9004 65.9439Z" fill="black"/>
<path d="M22.5284 64.7779C23.4659 64.7779 23.4659 63.3145 22.5284 63.3145C21.568 63.3145 21.568 64.7779 22.5284 64.7779Z" fill="black"/>
<path d="M28.2217 65.2124C29.1592 65.2124 29.1592 63.749 28.2217 63.749C27.2842 63.749 27.2842 65.2124 28.2217 65.2124Z" fill="black"/>
<path d="M16.5376 69.9683C17.4751 69.9683 17.4751 68.5049 16.5376 68.5049C15.5773 68.5049 15.5773 69.9683 16.5376 69.9683Z" fill="black"/>
<path d="M16.9031 60.6621C18.115 60.6621 18.115 58.7871 16.9031 58.7871C15.6684 58.7871 15.6684 60.6621 16.9031 60.6621Z" fill="black"/>
<path d="M13.0163 58.1926C14.2282 58.1926 14.2282 56.3176 13.0163 56.3176C11.8045 56.2947 11.8045 58.1926 13.0163 58.1926Z" fill="black"/>
<path d="M21.9338 60.5937C23.1457 60.5937 23.1457 58.7188 21.9338 58.7188C20.7219 58.7188 20.7219 60.5937 21.9338 60.5937Z" fill="black"/>
<path d="M26.3239 61.9201C27.5358 61.9201 27.5358 60.0451 26.3239 60.0451C25.1121 60.0223 25.1121 61.9201 26.3239 61.9201Z" fill="black"/>
<path d="M43.0388 63.0168C44.2507 63.0168 44.2507 61.1418 43.0388 61.1418C41.8269 61.1189 41.8269 63.0168 43.0388 63.0168Z" fill="black"/>
<path d="M39.2429 60.8906C40.4548 60.8906 40.4548 59.0156 39.2429 59.0156C38.031 59.0156 38.031 60.8906 39.2429 60.8906Z" fill="black"/>
<path d="M45.8967 72.2783C47.1086 72.2783 47.1086 70.4033 45.8967 70.4033C44.6848 70.4033 44.6848 72.2783 45.8967 72.2783Z" fill="black"/>
<path d="M40.7063 72.0715C41.9181 72.0715 41.9181 70.1965 40.7063 70.1965C39.4944 70.1736 39.4944 72.0715 40.7063 72.0715Z" fill="black"/>
<path d="M42.7644 64.1834C43.2217 64.1834 43.2217 63.4746 42.7644 63.4746C42.3071 63.4746 42.3071 64.1834 42.7644 64.1834Z" fill="black"/>
<path d="M41.9641 63.2235C42.4214 63.2235 42.4214 62.5146 41.9641 62.5146C41.5068 62.5146 41.5068 63.2235 41.9641 63.2235Z" fill="black"/>
<path d="M41.5066 64.9159C41.9639 64.9159 41.9639 64.207 41.5066 64.207C41.0492 64.207 41.0492 64.9159 41.5066 64.9159Z" fill="black"/>
<path d="M30.051 56.5008C30.5083 56.5008 30.5083 55.792 30.051 55.792C29.5937 55.792 29.5937 56.5008 30.051 56.5008Z" fill="black"/>
<path d="M15.8742 62.7205C16.3315 62.7205 16.3315 62.0117 15.8742 62.0117C15.4169 62.0117 15.4169 62.7205 15.8742 62.7205Z" fill="black"/>
<path d="M32.8176 76.3709C33.2749 76.3709 33.2749 75.6621 32.8176 75.6621C32.3603 75.6621 32.3603 76.3709 32.8176 76.3709Z" fill="black"/>
<path d="M39.6774 72.8055C40.1347 72.8055 40.1347 72.0967 39.6774 72.0967C39.243 72.0967 39.243 72.8055 39.6774 72.8055Z" fill="black"/>
<path d="M46.697 70.0135C47.1543 70.0135 47.1543 69.3047 46.697 69.3047C46.2397 69.3047 46.2397 70.0135 46.697 70.0135Z" fill="black"/>
<path d="M67.8249 66.5848C68.2822 66.5848 68.2822 65.876 67.8249 65.876C67.3676 65.876 67.3676 66.5848 67.8249 66.5848Z" fill="black"/>
<path d="M4.25872 77.2389C4.41877 77.2389 4.41877 77.0103 4.25872 77.0103C4.09866 76.9874 4.09866 77.2389 4.25872 77.2389Z" fill="black"/>
<path d="M10.9814 82.2716C11.1414 82.2716 11.1414 82.043 10.9814 82.043C10.8213 82.043 10.8213 82.2716 10.9814 82.2716Z" fill="black"/>
<path d="M35.9506 82.7042C36.1106 82.7042 36.1106 82.4756 35.9506 82.4756C35.8134 82.4756 35.8134 82.7042 35.9506 82.7042Z" fill="black"/>
<path d="M69.5629 88.6261C69.7229 88.6261 69.7229 88.3975 69.5629 88.3975C69.4257 88.3975 69.4257 88.6261 69.5629 88.6261Z" fill="black"/>
<path d="M108.297 53.0713H0.462891V55.8152H108.297V53.0713Z" fill="black"/>
</svg>
