<svg width="26" height="25" viewBox="0 0 26 25" fill="none" xmlns="http://www.w3.org/2000/svg">
<path d="M1.73818 19.9771C1.17955 18.1543 1.44279 16.234 1.20763 14.3692C1.00746 12.7835 0.638847 4.24326 1.91476 2.97892C4.19028 0.723881 21.1039 -0.522771 23.4889 2.62853C25.2209 4.91661 24.9035 9.40323 24.9035 12.0912C24.9035 14.9945 25.583 19.4792 23.3119 21.7294C19.8947 25.1157 7.57905 24.7971 2.97582 23.657" stroke="#C18539" stroke-linecap="round" stroke-linejoin="round"/>
<path d="M1.14307 10.2109C2.87445 9.6089 7.81276 10.5796 8.00458 10.1754C8.48821 9.15633 9.72898 7.03079 12.7672 6.44707C14.9003 6.03723 18.0766 6.44707 19.0993 8.53484C24.1207 18.7853 13.5051 21.8029 10.4738 20.1746C7.79206 18.7342 8.00458 16.7842 8.00458 15.2597" stroke="#C18539" stroke-linecap="round" stroke-linejoin="round"/>
<path d="M11.9417 11.0115C12.5131 10.3834 13.6871 9.54377 14.5986 9.77159C17.4714 10.4898 17.4232 16.0796 14.4213 16.6803C11.6024 17.244 9.47737 13.1295 11.9417 11.8971" stroke="#C18539" stroke-linecap="round" stroke-linejoin="round"/>
<path d="M20.8564 10.1623C21.5987 10.0597 23.9898 10.1475 24.7134 10.0195" stroke="#C18539" stroke-linecap="round" stroke-linejoin="round"/>
<path d="M21.7847 5.8998C21.7847 5.83637 21.7847 5.77339 21.7847 5.70996" stroke="#C18539" stroke-linecap="round" stroke-linejoin="round"/>
</svg>
