<svg width="109" height="107" viewBox="0 0 109 107" fill="none" xmlns="http://www.w3.org/2000/svg">
<path d="M4.41863 2.49316H5.97349V16.5326H4.41863V8.52967H2.01775V16.5326H0.462891V2.49316H2.01775V6.95194H4.41863V2.49316Z" fill="white"/>
<path d="M17.1085 13.8345H14.3418L14.0217 16.5326H12.4668L14.0674 2.49316H17.3829L19.0063 16.5326H17.4286L17.1085 13.8345ZM16.9484 12.4168L15.9881 4.04803H15.4622L14.5018 12.4168H16.9484Z" fill="white"/>
<path d="M29.251 16.5318V7.61422L26.9416 9.94651V16.5318H25.3867V2.49233H26.9416V8.04867L29.251 5.64779V2.49233H30.8059V16.5318H29.251ZM29.594 1.02895H26.6443V0H29.594V1.02895Z" fill="white"/>
<path d="M40.7515 6.95194C41.1402 6.95194 41.4832 7.02055 41.7576 7.13488C42.0319 7.24921 42.2606 7.40927 42.4207 7.59219C42.5807 7.79798 42.7179 8.02663 42.7865 8.27816C42.878 8.52968 42.9008 8.82692 42.9008 9.12417V14.3832C42.9008 14.772 42.8322 15.1149 42.7179 15.3893C42.6036 15.6637 42.4435 15.8924 42.2606 16.0524C42.0548 16.2125 41.8262 16.3497 41.5746 16.4183C41.3231 16.5097 41.0259 16.5326 40.7286 16.5326H37.6875V2.49316H42.4893V4.04803H39.2424V6.92908H40.7515V6.95194ZM41.346 9.10131C41.346 8.94125 41.3003 8.80405 41.2088 8.66686C41.1173 8.55253 40.9573 8.48394 40.7286 8.48394H39.2424V14.9549H40.7286C40.9115 14.9549 41.0487 14.9092 41.1631 14.8177C41.2774 14.7262 41.346 14.5662 41.346 14.3375V9.10131Z" fill="white"/>
<path d="M55.0898 2.49316V16.5326H53.535V4.07089H51.7515L51.2942 14.6119C51.2713 15.2521 51.1341 15.7552 50.8826 16.0753C50.6311 16.3954 50.1738 16.5555 49.5335 16.5555H48.6875V15.0006H49.3277C49.4878 15.0006 49.6021 14.9778 49.6478 14.932C49.6936 14.8863 49.7164 14.772 49.7393 14.6119L50.2652 2.51604H55.0898V2.49316Z" fill="white"/>
<path d="M65.835 16.5326V7.61505L63.5256 9.94734V16.5326H61.9707V2.49316H63.5256V8.0495L65.835 5.64862V2.49316H67.3898V16.5326H65.835Z" fill="white"/>
<path d="M75.4838 7.75224L73.7231 2.49316H75.3695L76.9014 7.08915H78.0905V2.49316H79.6453V7.08915H80.8115L82.3434 2.49316H83.9898L82.2291 7.75224L84.1041 16.5326H82.5035L80.7657 8.41534H79.6224V16.5326H78.0676V8.41534H76.9243L75.1865 16.5326H73.5859L75.4838 7.75224Z" fill="white"/>
<path d="M95.3081 2.49316V16.5326H93.7304V12.0738H92.1527C91.8554 12.0738 91.5811 12.0281 91.3067 11.9595C91.0551 11.868 90.8036 11.7537 90.6207 11.5937C90.4149 11.4336 90.2777 11.2049 90.1634 10.9306C90.0491 10.6562 89.9805 10.3132 89.9805 9.92446V2.51604H91.5353V9.92446C91.5353 10.1531 91.6039 10.3132 91.7183 10.4046C91.8326 10.4961 91.9698 10.5418 92.1527 10.5418H93.7304V2.51604H95.3081V2.49316Z" fill="white"/>
<path d="M106.513 13.8345H103.746L103.426 16.5326H101.871L103.472 2.49316H106.787L108.411 16.5326H106.833L106.513 13.8345ZM106.353 12.4168L105.392 4.04803H104.866L103.906 12.4168H106.353Z" fill="white"/>
<path d="M11.2326 21.0136V49.344H8.09998V24.1691H3.59547V49.344H0.462891V21.0136H11.2326Z" fill="white"/>
<path d="M26.3698 21.0137V24.1463H20.0818V29.977H24.815V33.1553H20.0818V46.1658H26.3698V49.3441H16.9492V21.0137H26.3698Z" fill="white"/>
<path d="M31.377 21.0136H34.5095V30.2742H37.2077L40.3174 21.0136H43.6557L40.1116 31.6233L43.9073 49.3212H40.6832L37.1848 32.9266H34.5324V49.344H31.3998V21.0136H31.377Z" fill="white"/>
<path d="M56.7571 43.902H51.1551L50.492 49.3212H47.3594L50.5834 21.0136H57.283L60.5528 49.344H57.3745L56.7571 43.902ZM56.4141 41.0439L54.4477 24.1462H53.3959L51.4752 41.0439H56.4141Z" fill="white"/>
<path d="M75.7581 35.9906C75.7581 36.7909 75.6438 37.454 75.4151 38.0027C75.1865 38.5515 74.8664 39.0088 74.4548 39.3518C74.0432 39.6948 73.5859 39.9463 73.0371 40.1064C72.5112 40.2664 71.9396 40.3579 71.3451 40.3579H68.4412V49.344H65.3086V21.0136H71.3451C72.1225 21.0136 72.8085 21.128 73.3573 21.3566C73.906 21.5853 74.3633 21.9054 74.7292 22.2941C75.0722 22.6828 75.3466 23.1401 75.5066 23.6889C75.6667 24.2377 75.7581 24.7865 75.7581 25.381V35.9906ZM72.5798 25.381C72.5798 25.0608 72.4884 24.7636 72.3054 24.5349C72.1225 24.2834 71.8024 24.1691 71.3451 24.1691H68.4412V37.2253H71.3451C71.6881 37.2253 71.9853 37.1338 72.214 36.9509C72.4426 36.768 72.557 36.4479 72.557 35.9906V25.381H72.5798Z" fill="white"/>
<path d="M88.9293 21.0137H92.0847V49.3441H88.9522V33.1781H84.0818V49.3441H80.9492V21.0137H84.0818V30.0227H88.9293V21.0137Z" fill="white"/>
<path d="M108.204 21.0136V49.344H105.072V35.8076H103.265L100.156 49.344H96.9316L100.064 35.6019C99.2639 35.3503 98.6237 34.9159 98.0978 34.2528C97.5719 33.5897 97.3204 32.6522 97.3204 31.4403V25.4038C97.3204 24.8093 97.4118 24.2377 97.5719 23.7118C97.7319 23.1859 97.9834 22.7286 98.3264 22.317C98.6694 21.9283 99.1039 21.6082 99.6755 21.3795C100.224 21.1508 100.91 21.0365 101.688 21.0365H108.204V21.0136ZM105.049 24.1691H101.711C101.253 24.1691 100.933 24.2834 100.75 24.5349C100.567 24.7865 100.476 25.0608 100.476 25.381V31.4175C100.476 31.8519 100.59 32.172 100.842 32.355C101.093 32.5379 101.368 32.6293 101.688 32.6293H105.026V24.1691H105.049Z" fill="white"/>
<path d="M3.66463 77.2178C4.282 77.2178 4.282 76.2803 3.66463 76.2803C3.07012 76.2803 3.07012 77.2178 3.66463 77.2178Z" fill="white"/>
<path d="M0.463027 59.1084C1.0804 59.1084 1.0804 58.1709 0.463027 58.1709C-0.154342 58.1709 -0.154342 59.1084 0.463027 59.1084Z" fill="white"/>
<path d="M2.49666 58.0791C3.11403 58.0791 3.11403 57.1416 2.49666 57.1416C1.90216 57.1416 1.90216 58.0791 2.49666 58.0791Z" fill="white"/>
<path d="M8.92244 72.5517C9.53981 72.5517 9.53981 71.6143 8.92244 71.6143C8.32794 71.6143 8.32794 72.5517 8.92244 72.5517Z" fill="white"/>
<path d="M14.9146 70.2881C15.532 70.2881 15.532 69.3506 14.9146 69.3506C14.3201 69.3506 14.3201 70.2881 14.9146 70.2881Z" fill="white"/>
<path d="M21.8654 77.2178C22.4827 77.2178 22.4827 76.2803 21.8654 76.2803C21.248 76.2803 21.248 77.2178 21.8654 77.2178Z" fill="white"/>
<path d="M29.0216 72.849C29.639 72.849 29.639 71.9115 29.0216 71.9115C28.4043 71.8887 28.4043 72.849 29.0216 72.849Z" fill="white"/>
<path d="M32.0865 72.4838C32.7039 72.4838 32.7039 71.5463 32.0865 71.5463C31.492 71.5234 31.492 72.4838 32.0865 72.4838Z" fill="white"/>
<path d="M34.9435 59.9072C35.5609 59.9072 35.5609 58.9697 34.9435 58.9697C34.3261 58.9697 34.3261 59.9072 34.9435 59.9072Z" fill="white"/>
<path d="M34.7838 58.1484C35.4011 58.1484 35.4011 57.2109 34.7838 57.2109C34.1893 57.2109 34.1893 58.1484 34.7838 58.1484Z" fill="white"/>
<path d="M33.4122 58.376C34.0296 58.376 34.0296 57.4385 33.4122 57.4385C32.7949 57.4385 32.7949 58.376 33.4122 58.376Z" fill="white"/>
<path d="M32.1549 59.771C32.7722 59.771 32.7722 58.8336 32.1549 58.8336C31.5604 58.8107 31.5604 59.771 32.1549 59.771Z" fill="white"/>
<path d="M25.4322 58.2378C26.0496 58.2378 26.0496 57.3003 25.4322 57.3003C24.8377 57.2774 24.8377 58.2378 25.4322 58.2378Z" fill="white"/>
<path d="M28.8849 60.5015C29.5023 60.5015 29.5023 59.564 28.8849 59.564C28.2675 59.5411 28.2675 60.5015 28.8849 60.5015Z" fill="white"/>
<path d="M18.2064 57.7813C18.8238 57.7813 18.8238 56.8438 18.2064 56.8438C17.6119 56.8438 17.5891 57.7813 18.2064 57.7813Z" fill="white"/>
<path d="M8.05482 56.1807C8.67219 56.1807 8.67219 55.2432 8.05482 55.2432C7.43745 55.2432 7.43745 56.1807 8.05482 56.1807Z" fill="white"/>
<path d="M88.129 57.0498C88.7464 57.0498 88.7464 56.1123 88.129 56.1123C87.5117 56.1123 87.5117 57.0498 88.129 57.0498Z" fill="white"/>
<path d="M91.2623 56.6826C91.8797 56.6826 91.8797 55.7451 91.2623 55.7451C90.6678 55.7451 90.6678 56.6826 91.2623 56.6826Z" fill="white"/>
<path d="M98.8771 56.9119C99.4945 56.9119 99.4945 55.9744 98.8771 55.9744C98.2597 55.9744 98.2597 56.9119 98.8771 56.9119Z" fill="white"/>
<path d="M99.4478 78.4751C100.065 78.4751 100.065 77.5376 99.4478 77.5376C98.8533 77.5147 98.8533 78.4751 99.4478 78.4751Z" fill="white"/>
<path d="M91.4904 78.475C92.1077 78.475 92.1077 77.5375 91.4904 77.5375C90.873 77.5146 90.873 78.475 91.4904 78.475Z" fill="white"/>
<path d="M89.067 78.4751C89.6843 78.4751 89.6843 77.5376 89.067 77.5376C88.4725 77.5147 88.4725 78.4751 89.067 78.4751Z" fill="white"/>
<path d="M84.608 72.7578C85.2254 72.7578 85.2254 71.8203 84.608 71.8203C84.0135 71.8203 84.0135 72.7578 84.608 72.7578Z" fill="white"/>
<path d="M79.2799 71.0209C79.8972 71.0209 79.8972 70.0834 79.2799 70.0834C78.6854 70.0605 78.6854 71.0209 79.2799 71.0209Z" fill="white"/>
<path d="M81.1783 61.3712C81.7957 61.3712 81.7957 60.4337 81.1783 60.4337C80.5838 60.4337 80.5838 61.3712 81.1783 61.3712Z" fill="white"/>
<path d="M77.3834 61.9652C78.0007 61.9652 78.0007 61.0277 77.3834 61.0277C76.7889 61.0049 76.7889 61.9652 77.3834 61.9652Z" fill="white"/>
<path d="M85.1349 61.9653C85.7523 61.9653 85.7523 61.0278 85.1349 61.0278C84.5175 61.005 84.5175 61.9653 85.1349 61.9653Z" fill="white"/>
<path d="M74.6154 62.1035C75.2327 62.1035 75.2327 61.166 74.6154 61.166C73.998 61.166 73.998 62.1035 74.6154 62.1035Z" fill="white"/>
<path d="M66.1334 57.6435C66.7507 57.6435 66.7507 56.7061 66.1334 56.7061C65.5389 56.7061 65.5389 57.6435 66.1334 57.6435Z" fill="white"/>
<path d="M68.5568 56.9119C69.1741 56.9119 69.1741 55.9744 68.5568 55.9744C67.9394 55.9744 67.9394 56.9119 68.5568 56.9119Z" fill="white"/>
<path d="M70.3638 56.3174C70.9812 56.3174 70.9812 55.3799 70.3638 55.3799C69.7693 55.3799 69.7693 56.3174 70.3638 56.3174Z" fill="white"/>
<path d="M52.5509 62.7659C53.1683 62.7659 53.1683 61.8284 52.5509 61.8284C51.9335 61.8056 51.9335 62.7659 52.5509 62.7659Z" fill="white"/>
<path d="M57.2154 69.9912C57.8328 69.9912 57.8328 69.0537 57.2154 69.0537C56.6209 69.0537 56.6209 69.9912 57.2154 69.9912Z" fill="white"/>
<path d="M68.6251 78.2449C69.2425 78.2449 69.2425 77.3074 68.6251 77.3074C68.0078 77.3074 68.0078 78.2449 68.6251 78.2449Z" fill="white"/>
<path d="M81.8412 82.934C82.4586 82.934 82.4586 81.9965 81.8412 81.9965C81.2467 81.9736 81.2238 82.934 81.8412 82.934Z" fill="white"/>
<path d="M61.4669 89.725C62.0843 89.725 62.0843 88.7875 61.4669 88.7875C60.8496 88.7646 60.8496 89.725 61.4669 89.725Z" fill="white"/>
<path d="M54.0138 89.793C54.6312 89.793 54.6312 88.8555 54.0138 88.8555C53.3964 88.8555 53.3964 89.793 54.0138 89.793Z" fill="white"/>
<path d="M51.088 89.4971C51.7054 89.4971 51.7054 88.5596 51.088 88.5596C50.4707 88.5596 50.4707 89.4971 51.088 89.4971Z" fill="white"/>
<path d="M43.9318 93.8168C44.5491 93.8168 44.5491 92.8793 43.9318 92.8793C43.3144 92.8564 43.3144 93.8168 43.9318 93.8168Z" fill="white"/>
<path d="M36.7736 96.1494C37.3909 96.1494 37.3909 95.2119 36.7736 95.2119C36.1562 95.2119 36.1562 96.1494 36.7736 96.1494Z" fill="white"/>
<path d="M30.7833 89.4971C31.4007 89.4971 31.4007 88.5596 30.7833 88.5596C30.166 88.5596 30.166 89.4971 30.7833 89.4971Z" fill="white"/>
<path d="M36.8419 87.301C37.4593 87.301 37.4593 86.3635 36.8419 86.3635C36.2246 86.3635 36.2246 87.301 36.8419 87.301Z" fill="white"/>
<path d="M39.0372 83.0024C39.6546 83.0024 39.6546 82.0649 39.0372 82.0649C38.4199 82.042 38.4199 83.0024 39.0372 83.0024Z" fill="white"/>
<path d="M46.1251 81.6758C46.7425 81.6758 46.7425 80.7383 46.1251 80.7383C45.5078 80.7383 45.5078 81.6758 46.1251 81.6758Z" fill="white"/>
<path d="M39.9064 74.6572C40.5238 74.6572 40.5238 73.7197 39.9064 73.7197C39.289 73.7197 39.289 74.6572 39.9064 74.6572Z" fill="white"/>
<path d="M38.9459 74.9533C39.5632 74.9533 39.5632 74.0158 38.9459 74.0158C38.3514 74.0158 38.3514 74.9533 38.9459 74.9533Z" fill="white"/>
<path d="M34.5783 66.9953C35.1956 66.9953 35.1956 66.0578 34.5783 66.0578C33.9609 66.0578 33.9609 66.9953 34.5783 66.9953Z" fill="white"/>
<path d="M32.3146 67.9557C32.932 67.9557 32.932 67.0182 32.3146 67.0182C31.6972 66.9953 31.6972 67.9557 32.3146 67.9557Z" fill="white"/>
<path d="M24.8615 64.298C25.4788 64.298 25.4788 63.3605 24.8615 63.3605C24.2441 63.3605 24.2441 64.298 24.8615 64.298Z" fill="white"/>
<path d="M25.1583 67.224C25.7757 67.224 25.7757 66.2865 25.1583 66.2865C24.541 66.2637 24.541 67.224 25.1583 67.224Z" fill="white"/>
<path d="M18.1388 66.1274C18.7562 66.1274 18.7562 65.1899 18.1388 65.1899C17.5214 65.167 17.5214 66.1274 18.1388 66.1274Z" fill="white"/>
<path d="M12.1466 60.0449C12.764 60.0449 12.764 59.1074 12.1466 59.1074C11.5293 59.1074 11.5293 60.0449 12.1466 60.0449Z" fill="white"/>
<path d="M8.42006 64.3662C9.03743 64.3662 9.03743 63.4287 8.42006 63.4287C7.80269 63.4287 7.80269 64.3662 8.42006 64.3662Z" fill="white"/>
<path d="M15.0744 78.9765C15.6917 78.9765 15.6917 78.0391 15.0744 78.0391C14.457 78.0391 14.457 78.9765 15.0744 78.9765Z" fill="white"/>
<path d="M46.8576 83.7328C47.4749 83.7328 47.4749 82.7953 46.8576 82.7953C46.2402 82.7725 46.2402 83.7328 46.8576 83.7328Z" fill="white"/>
<path d="M74.9826 84.5342C75.5999 84.5342 75.5999 83.5967 74.9826 83.5967C74.3652 83.5967 74.3652 84.5342 74.9826 84.5342Z" fill="white"/>
<path d="M63.8686 77.5146C64.4859 77.5146 64.4859 76.5771 63.8686 76.5771C63.2741 76.5771 63.2512 77.5146 63.8686 77.5146Z" fill="white"/>
<path d="M61.4689 75.251C62.0863 75.251 62.0863 74.3135 61.4689 74.3135C60.8515 74.3135 60.8515 75.251 61.4689 75.251Z" fill="white"/>
<path d="M55.9806 77.2852C56.598 77.2852 56.598 76.3477 55.9806 76.3477C55.3632 76.3477 55.3632 77.2852 55.9806 77.2852Z" fill="white"/>
<path d="M54.381 77.2178C54.9984 77.2178 54.9984 76.2803 54.381 76.2803C53.7636 76.2803 53.7636 77.2178 54.381 77.2178Z" fill="white"/>
<path d="M53.2833 76.7832C53.9007 76.7832 53.9007 75.8457 53.2833 75.8457C52.666 75.8457 52.666 76.7832 53.2833 76.7832Z" fill="white"/>
<path d="M48.5268 71.6611C49.1441 71.6611 49.1441 70.7236 48.5268 70.7236C47.9323 70.7236 47.9094 71.6611 48.5268 71.6611Z" fill="white"/>
<path d="M48.5943 70.7236C49.2117 70.7236 49.2117 69.7861 48.5943 69.7861C47.9998 69.7861 47.9998 70.7236 48.5943 70.7236Z" fill="white"/>
<path d="M49.7623 70.0605C50.3797 70.0605 50.3797 69.123 49.7623 69.123C49.1678 69.123 49.1678 70.0605 49.7623 70.0605Z" fill="white"/>
<path d="M54.8842 68.4599C55.5015 68.4599 55.5015 67.5225 54.8842 67.5225C54.2897 67.5225 54.2668 68.4599 54.8842 68.4599Z" fill="white"/>
<path d="M54.5865 61.8056C55.2039 61.8056 55.2039 60.8681 54.5865 60.8681C53.992 60.8681 53.992 61.8056 54.5865 61.8056Z" fill="white"/>
<path d="M55.8439 59.1084C56.4613 59.1084 56.4613 58.1709 55.8439 58.1709C55.2265 58.1709 55.2265 59.1084 55.8439 59.1084Z" fill="white"/>
<path d="M60.7365 59.6106C61.3538 59.6106 61.3538 58.6731 60.7365 58.6731C60.1191 58.6731 60.1191 59.6106 60.7365 59.6106Z" fill="white"/>
<path d="M51.3849 60.5703C52.0023 60.5703 52.0023 59.6328 51.3849 59.6328C50.7675 59.6328 50.7675 60.5703 51.3849 60.5703Z" fill="white"/>
<path d="M42.9005 59.6797C43.5179 59.6797 43.5179 58.7422 42.9005 58.7422C42.2832 58.7422 42.2832 59.6797 42.9005 59.6797Z" fill="white"/>
<path d="M99.4478 78.3828C100.065 78.3828 100.065 77.4453 99.4478 77.4453C98.8533 77.4453 98.8533 78.3828 99.4478 78.3828Z" fill="white"/>
<path d="M74.7525 76.3476C75.3699 76.3476 75.3699 75.4102 74.7525 75.4102C74.158 75.4102 74.158 76.3476 74.7525 76.3476Z" fill="white"/>
<path d="M31.0569 77.7876C31.3542 77.7876 31.3542 77.3074 31.0569 77.3074C30.7597 77.3303 30.7597 77.7876 31.0569 77.7876Z" fill="white"/>
<path d="M28.9524 90.1121C29.4097 90.1121 29.4097 89.4033 28.9524 89.4033C28.495 89.4033 28.495 90.1121 28.9524 90.1121Z" fill="white"/>
<path d="M66.7284 78.8855C67.0256 78.8855 67.0256 78.4053 66.7284 78.4053C66.4083 78.4053 66.4083 78.8855 66.7284 78.8855Z" fill="white"/>
<path d="M60.2796 67.9343C60.5768 67.9343 60.5768 67.4541 60.2796 67.4541C59.9823 67.4541 59.9823 67.9343 60.2796 67.9343Z" fill="white"/>
<path d="M64.305 65.0075C64.6022 65.0075 64.6022 64.5273 64.305 64.5273C64.0077 64.5273 64.0077 65.0075 64.305 65.0075Z" fill="white"/>
<path d="M24.5628 70.6315C24.86 70.6315 24.86 70.1514 24.5628 70.1514C24.2655 70.1514 24.2655 70.6315 24.5628 70.6315Z" fill="white"/>
<path d="M6.88895 73.1931C7.18621 73.1931 7.18621 72.7129 6.88895 72.7129C6.5917 72.7129 6.5917 73.1931 6.88895 73.1931Z" fill="white"/>
<path d="M9.8831 60.5485C10.1803 60.5485 10.1803 60.0684 9.8831 60.0684C9.58584 60.0684 9.58584 60.5485 9.8831 60.5485Z" fill="white"/>
<path d="M68.3957 70.7469C68.853 70.7469 68.853 70.0381 68.3957 70.0381C67.9384 70.0381 67.9384 70.7469 68.3957 70.7469Z" fill="white"/>
<path d="M60.2799 68.2988C60.8972 68.2988 60.8972 67.3613 60.2799 67.3613C59.6854 67.3613 59.6854 68.2988 60.2799 68.2988Z" fill="white"/>
<path d="M31.2175 61.7597C32.4294 61.7597 32.4294 59.8848 31.2175 59.8848C30.0056 59.8848 30.0056 61.7597 31.2175 61.7597Z" fill="white"/>
<path d="M43.5652 77.6281C44.777 77.6281 44.777 75.7531 43.5652 75.7531C42.3533 75.7303 42.3533 77.6281 43.5652 77.6281Z" fill="white"/>
<path d="M36.9792 70.0147C38.1911 70.0147 38.1911 68.1397 36.9792 68.1397C35.7673 68.1397 35.7673 70.0147 36.9792 70.0147Z" fill="white"/>
<path d="M48.0925 62.4912C49.3044 62.4912 49.3044 60.6162 48.0925 60.6162C46.8806 60.6162 46.8806 62.4912 48.0925 62.4912Z" fill="white"/>
<path d="M46.0339 57.2324C47.2458 57.2324 47.2458 55.3574 46.0339 55.3574C44.822 55.3574 44.822 57.2324 46.0339 57.2324Z" fill="white"/>
<path d="M61.6745 57.5986C62.8864 57.5986 62.8864 55.7236 61.6745 55.7236C60.4627 55.7236 60.4627 57.5986 61.6745 57.5986Z" fill="white"/>
<path d="M56.78 57.3928C57.9919 57.3928 57.9919 55.5178 56.78 55.5178C55.5681 55.4949 55.5681 57.3928 56.78 57.3928Z" fill="white"/>
<path d="M78.4812 57.0265C79.693 57.0265 79.693 55.1516 78.4812 55.1516C77.2693 55.1287 77.2693 57.0265 78.4812 57.0265Z" fill="white"/>
<path d="M87.4675 59.3596C88.6794 59.3596 88.6794 57.4846 87.4675 57.4846C86.2556 57.4617 86.2556 59.3596 87.4675 59.3596Z" fill="white"/>
<path d="M82.1394 59.0615C83.3512 59.0615 83.3512 57.1865 82.1394 57.1865C80.9275 57.1865 80.9275 59.0615 82.1394 59.0615Z" fill="white"/>
<path d="M87.9695 80.829C89.1813 80.829 89.1813 78.954 87.9695 78.954C86.7576 78.954 86.7576 80.829 87.9695 80.829Z" fill="white"/>
<path d="M83.0769 80.3955C84.2887 80.3955 84.2887 78.5205 83.0769 78.5205C81.865 78.5205 81.865 80.3955 83.0769 80.3955Z" fill="white"/>
<path d="M79.4409 78.3605C80.6528 78.3605 80.6528 76.4856 79.4409 76.4856C78.2291 76.4627 78.2062 78.3605 79.4409 78.3605Z" fill="white"/>
<path d="M67.7331 73.1691C68.945 73.1691 68.945 71.2942 67.7331 71.2942C66.5213 71.2713 66.5213 73.1691 67.7331 73.1691Z" fill="white"/>
<path d="M62.9319 73.1691C64.1438 73.1691 64.1438 71.2942 62.9319 71.2942C61.6972 71.2713 61.6972 73.1691 62.9319 73.1691Z" fill="white"/>
<path d="M58.5417 70.7462C59.7536 70.7462 59.7536 68.8713 58.5417 68.8713C57.3298 68.8713 57.3298 70.7462 58.5417 70.7462Z" fill="white"/>
<path d="M68.7624 64.1838C69.9743 64.1838 69.9743 62.3088 68.7624 62.3088C67.5505 62.286 67.5505 64.1838 68.7624 64.1838Z" fill="white"/>
<path d="M64.532 62.0566C65.7438 62.0566 65.7438 60.1816 64.532 60.1816C63.3201 60.1816 63.3201 62.0566 64.532 62.0566Z" fill="white"/>
<path d="M73.655 64.3213C74.8669 64.3213 74.8669 62.4463 73.655 62.4463C72.4431 62.4463 72.4431 64.3213 73.655 64.3213Z" fill="white"/>
<path d="M49.989 91.6456C51.2009 91.6456 51.2009 89.7706 49.989 89.7706C48.7771 89.7706 48.7771 91.6456 49.989 91.6456Z" fill="white"/>
<path d="M44.8679 91.9425C46.0798 91.9425 46.0798 90.0676 44.8679 90.0676C43.656 90.0447 43.656 91.9425 44.8679 91.9425Z" fill="white"/>
<path d="M41.073 89.7471C42.2848 89.7471 42.2848 87.8721 41.073 87.8721C39.8611 87.8721 39.8611 89.7471 41.073 89.7471Z" fill="white"/>
<path d="M47.0632 79.5948C48.2751 79.5948 48.2751 77.7198 47.0632 77.7198C45.8513 77.7198 45.8513 79.5948 47.0632 79.5948Z" fill="white"/>
<path d="M52.2527 79.3662C53.4645 79.3662 53.4645 77.4912 52.2527 77.4912C51.0408 77.4912 51.0408 79.3662 52.2527 79.3662Z" fill="white"/>
<path d="M28.1538 74.9318C29.3657 74.9318 29.3657 73.0568 28.1538 73.0568C26.942 73.034 26.9191 74.9318 28.1538 74.9318Z" fill="white"/>
<path d="M23.1003 74.9982C24.3122 74.9982 24.3122 73.1233 23.1003 73.1233C21.8884 73.1004 21.8884 74.9982 23.1003 74.9982Z" fill="white"/>
<path d="M19.1675 72.7355C20.3794 72.7355 20.3794 70.8606 19.1675 70.8606C17.9556 70.8377 17.9328 72.7355 19.1675 72.7355Z" fill="white"/>
<path d="M88.5643 76.1873C89.6161 76.1873 89.6389 74.541 88.5643 74.541C87.5124 74.541 87.5124 76.1873 88.5643 76.1873Z" fill="white"/>
<path d="M93.2515 83.2544C94.189 83.2544 94.189 81.791 93.2515 81.791C92.2912 81.791 92.2912 83.2544 93.2515 83.2544Z" fill="white"/>
<path d="M97.4129 83.6185C98.3504 83.6185 98.3504 82.1551 97.4129 82.1551C96.4754 82.1551 96.4525 83.6185 97.4129 83.6185Z" fill="white"/>
<path d="M94.8516 67.4077C95.789 67.4077 95.789 65.9443 94.8516 65.9443C93.9141 65.9443 93.9141 67.4077 94.8516 67.4077Z" fill="white"/>
<path d="M96.957 62.1489C97.8945 62.1489 97.8945 60.6855 96.957 60.6855C96.0195 60.6855 96.0195 62.1489 96.957 62.1489Z" fill="white"/>
<path d="M108.297 61.9877C109.234 61.9877 109.234 60.5244 108.297 60.5244C107.359 60.5244 107.359 61.9877 108.297 61.9877Z" fill="white"/>
<path d="M92.4277 62.2173C93.3652 62.2173 93.3652 60.7539 92.4277 60.7539C91.4902 60.7539 91.4902 62.2173 92.4277 62.2173Z" fill="white"/>
<path d="M78.6172 67.0425C79.5547 67.0425 79.5547 65.5791 78.6172 65.5791C77.6797 65.5791 77.6797 67.0425 78.6172 67.0425Z" fill="white"/>
<path d="M83.2363 67.1118C84.1738 67.1118 84.1738 65.6484 83.2363 65.6484C82.2988 65.6484 82.2988 67.1118 83.2363 67.1118Z" fill="white"/>
<path d="M82.2773 68.5044C83.2148 68.5044 83.2148 67.041 82.2773 67.041C81.3398 67.041 81.3398 68.5044 82.2773 68.5044Z" fill="white"/>
<path d="M78.9824 62.1492C79.9199 62.1492 79.9199 60.6858 78.9824 60.6858C78.0449 60.6858 78.0449 62.1492 78.9824 62.1492Z" fill="white"/>
<path d="M82.4351 60.3872C83.3726 60.3872 83.3726 58.9239 82.4351 58.9239C81.4748 58.9239 81.4748 60.3872 82.4351 60.3872Z" fill="white"/>
<path d="M86.7344 75.3648C87.6719 75.3648 87.6719 73.9014 86.7344 73.9014C85.7969 73.9014 85.7969 75.3648 86.7344 75.3648Z" fill="white"/>
<path d="M79.441 83.5503C80.3785 83.5503 80.3785 82.0869 79.441 82.0869C78.4806 82.0869 78.4806 83.5503 79.441 83.5503Z" fill="white"/>
<path d="M85.2715 83.4829C86.209 83.4829 86.209 82.0195 85.2715 82.0195C84.334 82.0195 84.334 83.4829 85.2715 83.4829Z" fill="white"/>
<path d="M82.8711 89.9068C83.8086 89.9068 83.8086 88.4434 82.8711 88.4434C81.9336 88.4434 81.9336 89.9068 82.8711 89.9068Z" fill="white"/>
<path d="M72.9922 82.3159C73.9297 82.3159 73.9297 80.8525 72.9922 80.8525C72.0547 80.8525 72.0547 82.3159 72.9922 82.3159Z" fill="white"/>
<path d="M72.3523 79.9606C73.2898 79.9606 73.2898 78.4972 72.3523 78.4972C71.4149 78.4972 71.392 79.9606 72.3523 79.9606Z" fill="white"/>
<path d="M77.2461 76.1655C78.1836 76.1655 78.1836 74.7021 77.2461 74.7021C76.3086 74.7021 76.3086 76.1655 77.2461 76.1655Z" fill="white"/>
<path d="M72.8555 76.3247C73.7929 76.3247 73.7929 74.8613 72.8555 74.8613C71.918 74.8613 71.918 76.3247 72.8555 76.3247Z" fill="white"/>
<path d="M71.6211 71.1343C72.5586 71.1343 72.5586 69.6709 71.6211 69.6709C70.6836 69.6709 70.6836 71.1343 71.6211 71.1343Z" fill="white"/>
<path d="M68.3965 73.9029C69.334 73.9029 69.334 72.4395 68.3965 72.4395C67.459 72.4395 67.459 73.9029 68.3965 73.9029Z" fill="white"/>
<path d="M70.8887 67.2466C71.8261 67.2466 71.8261 65.7832 70.8887 65.7832C69.9512 65.7832 69.9512 67.2466 70.8887 67.2466Z" fill="white"/>
<path d="M66.7969 67.9802C67.7344 67.9802 67.7344 66.5168 66.7969 66.5168C65.8594 66.5168 65.8594 67.9802 66.7969 67.9802Z" fill="white"/>
<path d="M65.4687 67.1118C66.4062 67.1118 66.4062 65.6484 65.4687 65.6484C64.5313 65.6484 64.5313 67.1118 65.4687 67.1118Z" fill="white"/>
<path d="M71.0273 60.3872C71.9648 60.3872 71.9648 58.9238 71.0273 58.9238C70.0898 58.9238 70.0898 60.3872 71.0273 60.3872Z" fill="white"/>
<path d="M72.7195 59.062C73.657 59.062 73.657 57.5986 72.7195 57.5986C71.782 57.6215 71.7592 59.062 72.7195 59.062Z" fill="white"/>
<path d="M71.6211 58.6274C72.5586 58.6274 72.5586 57.1641 71.6211 57.1641C70.6836 57.1641 70.6836 58.6274 71.6211 58.6274Z" fill="white"/>
<path d="M58.2441 64.0464C59.1816 64.0464 59.1816 62.583 58.2441 62.583C57.3066 62.583 57.3066 64.0464 58.2441 64.0464Z" fill="white"/>
<path d="M57.2832 65.7857C58.2207 65.7857 58.2207 64.3223 57.2832 64.3223C56.3457 64.3223 56.3457 65.7857 57.2832 65.7857Z" fill="white"/>
<path d="M56.2773 66.813C57.2148 66.813 57.2148 65.3496 56.2773 65.3496C55.3398 65.3496 55.3398 66.813 56.2773 66.813Z" fill="white"/>
<path d="M58.107 60.0904C59.0445 60.0904 59.0445 58.627 58.107 58.627C57.1466 58.627 57.1466 60.0904 58.107 60.0904Z" fill="white"/>
<path d="M66.4297 60.5249C67.3672 60.5249 67.3672 59.0615 66.4297 59.0615C65.4922 59.0615 65.4922 60.5249 66.4297 60.5249Z" fill="white"/>
<path d="M62.566 62.1492C63.5035 62.1492 63.5035 60.6858 62.566 60.6858C61.6056 60.6858 61.6056 62.1492 62.566 62.1492Z" fill="white"/>
<path d="M68.7617 65.8755C69.6992 65.8755 69.6992 64.4121 68.7617 64.4121C67.8242 64.4121 67.8242 65.8755 68.7617 65.8755Z" fill="white"/>
<path d="M84.334 62.2174C85.2715 62.2174 85.2715 60.754 84.334 60.754C83.3965 60.754 83.3965 62.2174 84.334 62.2174Z" fill="white"/>
<path d="M62.7031 82.5905C63.6406 82.5905 63.6406 81.1271 62.7031 81.1271C61.7656 81.1271 61.7656 82.5905 62.7031 82.5905Z" fill="white"/>
<path d="M61.6738 82.3843C62.6113 82.3843 62.6113 80.9209 61.6738 80.9209C60.7363 80.9209 60.7363 82.3843 61.6738 82.3843Z" fill="white"/>
<path d="M63.4336 83.688C64.3711 83.688 64.3711 82.2246 63.4336 82.2246C62.4961 82.2246 62.4961 83.688 63.4336 83.688Z" fill="white"/>
<path d="M70.5234 94.732C71.4609 94.732 71.4609 93.2686 70.5234 93.2686C69.5859 93.2686 69.5859 94.732 70.5234 94.732Z" fill="white"/>
<path d="M72.5586 92.606C73.4961 92.606 73.4961 91.1426 72.5586 91.1426C71.6211 91.1426 71.6211 92.606 72.5586 92.606Z" fill="white"/>
<path d="M52.3223 85.5855C53.2597 85.5855 53.2597 84.1221 52.3223 84.1221C51.3848 84.1221 51.3848 85.5855 52.3223 85.5855Z" fill="white"/>
<path d="M57.2832 82.4526C58.2207 82.4526 58.2207 80.9893 57.2832 80.9893C56.3457 80.9893 56.3457 82.4526 57.2832 82.4526Z" fill="white"/>
<path d="M58.107 76.5308C59.0445 76.5308 59.0445 75.0674 58.107 75.0674C57.1466 75.0674 57.1466 76.5308 58.107 76.5308Z" fill="white"/>
<path d="M59.0449 76.1655C59.9824 76.1655 59.9824 74.7021 59.0449 74.7021C58.1074 74.7021 58.1074 76.1655 59.0449 76.1655Z" fill="white"/>
<path d="M67.0019 74.9986C67.9394 74.9986 67.9394 73.5352 67.0019 73.5352C66.0645 73.5352 66.0645 74.9986 67.0019 74.9986Z" fill="white"/>
<path d="M65.0351 75.9585C65.9726 75.9585 65.9726 74.4951 65.0351 74.4951C64.0977 74.4951 64.0977 75.9585 65.0351 75.9585Z" fill="white"/>
<path d="M50.9507 75.3648C51.8882 75.3648 51.8882 73.9014 50.9507 73.9014C49.9904 73.9014 49.9904 75.3648 50.9507 75.3648Z" fill="white"/>
<path d="M50.7891 73.9029C51.7265 73.9029 51.7265 72.4395 50.7891 72.4395C49.8516 72.4395 49.8516 73.9029 50.7891 73.9029Z" fill="white"/>
<path d="M52.3223 72.6664C53.2597 72.6664 53.2597 71.203 52.3223 71.203C51.3848 71.203 51.3848 72.6664 52.3223 72.6664Z" fill="white"/>
<path d="M55.5469 75.0679C56.4844 75.0679 56.4844 73.6045 55.5469 73.6045C54.6094 73.6045 54.6094 75.0679 55.5469 75.0679Z" fill="white"/>
<path d="M48.8242 77.9253C49.7617 77.9253 49.7617 76.4619 48.8242 76.4619C47.8867 76.4619 47.8867 77.9253 48.8242 77.9253Z" fill="white"/>
<path d="M49.3945 82.2251C50.332 82.2251 50.332 80.7617 49.3945 80.7617C48.457 80.7617 48.457 82.2251 49.3945 82.2251Z" fill="white"/>
<path d="M48.6641 86.6831C49.6015 86.6831 49.6015 85.2197 48.6641 85.2197C47.7266 85.2197 47.7266 86.6831 48.6641 86.6831Z" fill="white"/>
<path d="M47.1328 88.9468C48.0703 88.9468 48.0703 87.4834 47.1328 87.4834C46.1953 87.4834 46.1953 88.9468 47.1328 88.9468Z" fill="white"/>
<path d="M46.9258 94.9368C47.8633 94.9368 47.8633 93.4734 46.9258 93.4734C45.9883 93.4734 45.9883 94.9368 46.9258 94.9368Z" fill="white"/>
<path d="M41.232 94.8013C42.1695 94.8013 42.1695 93.3379 41.232 93.3379C40.2716 93.3379 40.2716 94.8013 41.232 94.8013Z" fill="white"/>
<path d="M44.8672 102.711C45.8047 102.711 45.8047 101.248 44.8672 101.248C43.9297 101.248 43.9297 102.711 44.8672 102.711Z" fill="white"/>
<path d="M34.2129 106.347C35.1504 106.347 35.1504 104.884 34.2129 104.884C33.2754 104.884 33.2754 106.347 34.2129 106.347Z" fill="white"/>
<path d="M55.1797 94.8696C56.1172 94.8696 56.1172 93.4062 55.1797 93.4062C54.2422 93.4062 54.2422 94.8696 55.1797 94.8696Z" fill="white"/>
<path d="M59.4101 95.1665C60.3476 95.1665 60.3476 93.7031 59.4101 93.7031C58.4727 93.7031 58.4727 95.1665 59.4101 95.1665Z" fill="white"/>
<path d="M36.407 91.7359C37.3445 91.7359 37.3445 90.2725 36.407 90.2725C35.4695 90.2725 35.4467 91.7359 36.407 91.7359Z" fill="white"/>
<path d="M34.6465 91.439C35.584 91.439 35.584 89.9756 34.6465 89.9756C33.709 89.9756 33.709 91.439 34.6465 91.439Z" fill="white"/>
<path d="M25.5918 94.8013C26.5293 94.8013 26.5293 93.3379 25.5918 93.3379C24.6543 93.3379 24.6543 94.8013 25.5918 94.8013Z" fill="white"/>
<path d="M23.2593 84.2154C24.1968 84.2154 24.1968 82.752 23.2593 82.752C22.299 82.752 22.299 84.2154 23.2593 84.2154Z" fill="white"/>
<path d="M27.5586 82.4526C28.4961 82.4526 28.4961 80.9893 27.5586 80.9893C26.6211 80.9893 26.6211 82.4526 27.5586 82.4526Z" fill="white"/>
<path d="M30.5547 84.2827C31.4922 84.2827 31.4922 82.8193 30.5547 82.8193C29.6172 82.8193 29.6172 84.2827 30.5547 84.2827Z" fill="white"/>
<path d="M12.2851 87.0493C13.2226 87.0493 13.2226 85.5859 12.2851 85.5859C11.3477 85.5859 11.3477 87.0493 12.2851 87.0493Z" fill="white"/>
<path d="M37.5742 77.9946C38.5117 77.9946 38.5117 76.5312 37.5742 76.5312C36.6367 76.5312 36.6367 77.9946 37.5742 77.9946Z" fill="white"/>
<path d="M36.6816 79.0913C37.6191 79.0913 37.6191 77.6279 36.6816 77.6279C35.7441 77.6279 35.7441 79.0913 36.6816 79.0913Z" fill="white"/>
<path d="M41.0039 81.5845C41.9414 81.5845 41.9414 80.1211 41.0039 80.1211C40.0664 80.1211 40.0664 81.5845 41.0039 81.5845Z" fill="white"/>
<path d="M43.7695 82.3161C44.707 82.3161 44.707 80.8527 43.7695 80.8527C42.832 80.8527 42.832 82.3161 43.7695 82.3161Z" fill="white"/>
<path d="M42.5351 72.3687C43.4726 72.3687 43.4726 70.9053 42.5351 70.9053C41.5977 70.9053 41.5977 72.3687 42.5351 72.3687Z" fill="white"/>
<path d="M42.9687 75.2271C43.9062 75.2271 43.9062 73.7637 42.9687 73.7637C42.0313 73.7637 42.0313 75.2271 42.9687 75.2271Z" fill="white"/>
<path d="M43.9297 75.9585C44.8672 75.9585 44.8672 74.4951 43.9297 74.4951C42.9922 74.4951 42.9922 75.9585 43.9297 75.9585Z" fill="white"/>
<path d="M46.0332 69.3747C46.9707 69.3747 46.9707 67.9113 46.0332 67.9113C45.0957 67.9113 45.0957 69.3747 46.0332 69.3747Z" fill="white"/>
<path d="M49.5547 67.1118C50.4922 67.1118 50.4922 65.6484 49.5547 65.6484C48.6172 65.6484 48.6172 67.1118 49.5547 67.1118Z" fill="white"/>
<path d="M45.0976 65.646C46.0351 65.646 46.0351 64.1826 45.0976 64.1826C44.1602 64.1826 44.1602 65.646 45.0976 65.646Z" fill="white"/>
<path d="M44.7988 66.9732C45.7363 66.9732 45.7363 65.5098 44.7988 65.5098C43.8613 65.5098 43.8613 66.9732 44.7988 66.9732Z" fill="white"/>
<path d="M51.6582 65.1442C52.5957 65.1442 52.5957 63.6808 51.6582 63.6808C50.7207 63.6808 50.7207 65.1442 51.6582 65.1442Z" fill="white"/>
<path d="M52.9844 65.5786C53.9219 65.5786 53.9219 64.1152 52.9844 64.1152C52.0469 64.1152 52.0469 65.5786 52.9844 65.5786Z" fill="white"/>
<path d="M52.9844 60.3872C53.9219 60.3872 53.9219 58.9239 52.9844 58.9239C52.0469 58.9239 52.0469 60.3872 52.9844 60.3872Z" fill="white"/>
<path d="M36.9101 60.5249C37.8476 60.5249 37.8476 59.0615 36.9101 59.0615C35.9727 59.0615 35.9727 60.5249 36.9101 60.5249Z" fill="white"/>
<path d="M32.3828 62.5151C33.3203 62.5151 33.3203 61.0518 32.3828 61.0518C31.4453 61.0518 31.4453 62.5151 32.3828 62.5151Z" fill="white"/>
<path d="M30.8516 63.7497C31.789 63.7497 31.789 62.2863 30.8516 62.2863C29.9141 62.2863 29.9141 63.7497 30.8516 63.7497Z" fill="white"/>
<path d="M26.6902 63.522C27.6277 63.522 27.6277 62.0586 26.6902 62.0586C25.7527 62.0586 25.7299 63.522 26.6902 63.522Z" fill="white"/>
<path d="M22.5976 59.519C23.5351 59.519 23.5351 58.0556 22.5976 58.0556C21.6602 58.0556 21.6602 59.519 22.5976 59.519Z" fill="white"/>
<path d="M6.08672 60.4565C7.0242 60.4565 7.0242 58.9932 6.08672 58.9932C5.14923 58.9932 5.12636 60.4565 6.08672 60.4565Z" fill="white"/>
<path d="M6.36327 65.2124C7.30076 65.2124 7.30076 63.749 6.36327 63.749C5.42578 63.749 5.42578 65.2124 6.36327 65.2124Z" fill="white"/>
<path d="M6.4539 72.5075C7.39139 72.5075 7.39139 71.0441 6.4539 71.0441C5.51642 71.0441 5.49355 72.5075 6.4539 72.5075Z" fill="white"/>
<path d="M12.582 74.3355C13.5195 74.3355 13.5195 72.8721 12.582 72.8721C11.6445 72.8721 11.6445 74.3355 12.582 74.3355Z" fill="white"/>
<path d="M15.8062 74.0376C16.7437 74.0376 16.7437 72.5742 15.8062 72.5742C14.8458 72.5971 14.8458 74.0376 15.8062 74.0376Z" fill="white"/>
<path d="M18.9375 63.4517C19.875 63.4517 19.875 61.9883 18.9375 61.9883C18 61.9883 18 63.4517 18.9375 63.4517Z" fill="white"/>
<path d="M13.084 63.818C14.0215 63.818 14.0215 62.3546 13.084 62.3546C12.1465 62.3546 12.1465 63.818 13.084 63.818Z" fill="white"/>
<path d="M15.5078 61.7827C16.4453 61.7827 16.4453 60.3193 15.5078 60.3193C14.5703 60.3193 14.5703 61.7827 15.5078 61.7827Z" fill="white"/>
<path d="M21.2695 75.2964C22.207 75.2964 22.207 73.833 21.2695 73.833C20.332 73.833 20.332 75.2964 21.2695 75.2964Z" fill="white"/>
<path d="M19.6699 77.9253C20.6074 77.9253 20.6074 76.4619 19.6699 76.4619C18.7324 76.4619 18.7324 77.9253 19.6699 77.9253Z" fill="white"/>
<path d="M25.3633 77.9253C26.3008 77.9253 26.3008 76.4619 25.3633 76.4619C24.4258 76.4619 24.4258 77.9253 25.3633 77.9253Z" fill="white"/>
<path d="M32.3144 74.8608C33.2519 74.8608 33.2519 73.3975 32.3144 73.3975C31.377 73.3975 31.377 74.8608 32.3144 74.8608Z" fill="white"/>
<path d="M33.4129 78.064C34.3504 78.064 34.3504 76.6006 33.4129 76.6006C32.4754 76.6006 32.4525 78.064 33.4129 78.064Z" fill="white"/>
<path d="M27.125 69.3062C28.0625 69.3062 28.0625 67.8428 27.125 67.8428C26.1875 67.8428 26.1875 69.3062 27.125 69.3062Z" fill="white"/>
<path d="M26.1641 71.569C27.1015 71.569 27.1015 70.1056 26.1641 70.1056C25.2266 70.1056 25.2266 71.569 26.1641 71.569Z" fill="white"/>
<path d="M30.4844 71.8667C31.4219 71.8667 31.4219 70.4033 30.4844 70.4033C29.5469 70.4033 29.5469 71.8667 30.4844 71.8667Z" fill="white"/>
<path d="M36.4766 65.2124C37.414 65.2124 37.414 63.749 36.4766 63.749C35.5391 63.749 35.5391 65.2124 36.4766 65.2124Z" fill="white"/>
<path d="M39.4031 65.7165C40.3406 65.7165 40.3406 64.2531 39.4031 64.2531C38.4656 64.2531 38.4428 65.7165 39.4031 65.7165Z" fill="white"/>
<path d="M40.5015 65.0523C41.439 65.0523 41.439 63.5889 40.5015 63.5889C39.5412 63.6118 39.5412 65.0523 40.5015 65.0523Z" fill="white"/>
<path d="M59.0449 60.6851C59.9824 60.6851 59.9824 59.2217 59.0449 59.2217C58.1074 59.2217 58.1074 60.6851 59.0449 60.6851Z" fill="white"/>
<path d="M37.5054 75.1363C38.4429 75.1363 38.4429 73.6729 37.5054 73.6729C36.5451 73.6729 36.5451 75.1363 37.5054 75.1363Z" fill="white"/>
<path d="M23.9004 65.9439C24.8379 65.9439 24.8379 64.4805 23.9004 64.4805C22.9629 64.4805 22.9629 65.9439 23.9004 65.9439Z" fill="white"/>
<path d="M22.5289 64.7779C23.4663 64.7779 23.4663 63.3145 22.5289 63.3145C21.5685 63.3145 21.5685 64.7779 22.5289 64.7779Z" fill="white"/>
<path d="M28.2226 65.2124C29.1601 65.2124 29.1601 63.749 28.2226 63.749C27.2852 63.749 27.2852 65.2124 28.2226 65.2124Z" fill="white"/>
<path d="M16.5367 69.9684C17.4742 69.9684 17.4742 68.505 16.5367 68.505C15.5763 68.505 15.5763 69.9684 16.5367 69.9684Z" fill="white"/>
<path d="M16.9026 60.6621C18.1145 60.6621 18.1145 58.7871 16.9026 58.7871C15.6679 58.7871 15.6679 60.6621 16.9026 60.6621Z" fill="white"/>
<path d="M13.0163 58.1926C14.2282 58.1926 14.2282 56.3176 13.0163 56.3176C11.8045 56.2947 11.8045 58.1926 13.0163 58.1926Z" fill="white"/>
<path d="M21.9343 60.5937C23.1462 60.5937 23.1462 58.7188 21.9343 58.7188C20.7224 58.7188 20.7224 60.5937 21.9343 60.5937Z" fill="white"/>
<path d="M26.323 61.9201C27.5348 61.9201 27.5348 60.0451 26.323 60.0451C25.1111 60.0223 25.1111 61.9201 26.323 61.9201Z" fill="white"/>
<path d="M43.0378 63.0166C44.2497 63.0166 44.2497 61.1417 43.0378 61.1417C41.8259 61.1188 41.8259 63.0166 43.0378 63.0166Z" fill="white"/>
<path d="M39.2429 60.8906C40.4548 60.8906 40.4548 59.0156 39.2429 59.0156C38.031 59.0156 38.031 60.8906 39.2429 60.8906Z" fill="white"/>
<path d="M45.8972 72.2783C47.1091 72.2783 47.1091 70.4033 45.8972 70.4033C44.6853 70.4033 44.6853 72.2783 45.8972 72.2783Z" fill="white"/>
<path d="M40.7058 72.0715C41.9177 72.0715 41.9177 70.1965 40.7058 70.1965C39.4939 70.1736 39.4939 72.0715 40.7058 72.0715Z" fill="white"/>
<path d="M42.7649 64.1834C43.2222 64.1834 43.2222 63.4746 42.7649 63.4746C42.3075 63.4746 42.3075 64.1834 42.7649 64.1834Z" fill="white"/>
<path d="M41.9641 63.2235C42.4214 63.2235 42.4214 62.5146 41.9641 62.5146C41.5068 62.5146 41.5068 63.2235 41.9641 63.2235Z" fill="white"/>
<path d="M41.507 64.9159C41.9644 64.9159 41.9644 64.207 41.507 64.207C41.0497 64.207 41.0497 64.9159 41.507 64.9159Z" fill="white"/>
<path d="M30.052 56.5008C30.5093 56.5008 30.5093 55.792 30.052 55.792C29.5947 55.792 29.5947 56.5008 30.052 56.5008Z" fill="white"/>
<path d="M15.8742 62.7205C16.3315 62.7205 16.3315 62.0117 15.8742 62.0117C15.4169 62.0117 15.4169 62.7205 15.8742 62.7205Z" fill="white"/>
<path d="M32.8176 76.3711C33.2749 76.3711 33.2749 75.6623 32.8176 75.6623C32.3603 75.6623 32.3603 76.3711 32.8176 76.3711Z" fill="white"/>
<path d="M39.6774 72.8055C40.1347 72.8055 40.1347 72.0967 39.6774 72.0967C39.243 72.0967 39.243 72.8055 39.6774 72.8055Z" fill="white"/>
<path d="M46.6985 70.0135C47.1558 70.0135 47.1558 69.3047 46.6985 69.3047C46.2411 69.3047 46.2411 70.0135 46.6985 70.0135Z" fill="white"/>
<path d="M67.8254 66.5848C68.2827 66.5848 68.2827 65.876 67.8254 65.876C67.3681 65.876 67.3681 66.5848 67.8254 66.5848Z" fill="white"/>
<path d="M4.25872 77.2391C4.41877 77.2391 4.41877 77.0105 4.25872 77.0105C4.09866 76.9876 4.09866 77.2391 4.25872 77.2391Z" fill="white"/>
<path d="M10.9814 82.2717C11.1414 82.2717 11.1414 82.0431 10.9814 82.0431C10.8213 82.0431 10.8213 82.2717 10.9814 82.2717Z" fill="white"/>
<path d="M35.9506 82.7042C36.1106 82.7042 36.1106 82.4756 35.9506 82.4756C35.8134 82.4756 35.8134 82.7042 35.9506 82.7042Z" fill="white"/>
<path d="M69.5619 88.6263C69.7219 88.6263 69.7219 88.3977 69.5619 88.3977C69.4247 88.3977 69.4247 88.6263 69.5619 88.6263Z" fill="white"/>
<path d="M108.297 53.0713H0.462891V55.8152H108.297V53.0713Z" fill="white"/>
</svg>
