<svg width="128" height="73" viewBox="0 0 128 73" fill="none" xmlns="http://www.w3.org/2000/svg">
<path d="M127.535 22.9909C127.066 22.2878 126.453 21.4766 125.66 20.5934C124.885 19.7101 124.02 18.8809 123.101 18.1418C122.181 17.4027 121.37 17.0062 120.703 16.9701C118.035 16.898 115.007 16.9881 111.618 17.2585C108.229 17.5289 104.66 17.8894 100.91 18.3761C97.1609 18.8629 93.3213 19.4217 89.4277 20.0526C85.516 20.6835 81.7305 21.3685 78.0712 22.1076C74.4119 22.8286 70.9688 23.5677 67.7241 24.3248C64.4974 25.0639 61.6673 25.7849 59.2518 26.4519C58.9995 26.524 59.1076 26.8485 59.5402 27.4073C59.9909 27.9841 60.5497 28.597 61.2527 29.2459C61.9377 29.9129 62.6407 30.4897 63.3257 30.9765C64.0107 31.4812 64.5155 31.6614 64.7859 31.5713C65.2906 31.355 66.0837 31.1026 67.2194 30.8322C68.337 30.5438 69.725 30.2194 71.3474 29.8769C72.9878 29.5163 74.8265 29.1558 76.8634 28.7592C78.9004 28.3627 81.0815 27.9841 83.3889 27.5875C81.7846 30.7782 80.2163 34.0409 78.7021 37.3397C77.1699 40.6385 75.8539 43.9373 74.7543 47.2C74.4299 48.1734 74.1234 49.1288 73.853 50.1022C73.7449 50.1744 73.5286 50.4808 73.2041 51.0216C72.8255 51.6345 72.3388 52.4276 71.762 53.383C71.1852 54.3384 70.5542 55.3839 69.8873 56.5196C69.2023 57.6552 68.5714 58.7368 67.9405 59.7463C67.3276 60.7557 66.7688 61.639 66.3001 62.3781C65.8134 63.1172 65.5069 63.5678 65.3447 63.73C65.2726 63.8022 65.3267 63.3335 65.5249 62.324C65.7232 61.3145 66.0297 59.9986 66.4443 58.4123C66.8589 56.826 67.3636 55.0414 67.9405 53.0585C68.5173 51.0937 69.1122 49.1829 69.725 47.3623C70.3379 45.5236 70.9688 43.8832 71.5998 42.4411C72.2307 40.981 72.8255 39.9535 73.3844 39.3586C73.4204 39.3226 73.3123 39.2324 73.0599 39.0882C72.8075 38.944 72.429 38.8178 71.9603 38.6736C71.4736 38.5294 70.9328 38.3672 70.3199 38.1869C69.707 38.0067 69.0581 37.8264 68.3731 37.6281C66.7868 37.1955 64.9661 36.7268 62.9292 36.2581C62.6047 36.3843 62.2261 36.853 61.7935 37.6642C61.3609 38.4753 60.9102 39.5209 60.4776 40.8007C60.045 42.0806 59.5943 43.5227 59.1256 45.127C58.675 46.7313 58.2604 48.4078 57.8999 50.1203C57.4132 50.8413 56.7101 51.9049 55.7728 53.347C54.8354 54.7891 53.898 56.2311 52.9427 57.7093C51.9873 59.1874 51.104 60.5034 50.3108 61.6751C49.5177 62.8468 48.9949 63.5318 48.7606 63.73C48.6885 63.8022 48.7426 63.3335 48.9408 62.324C49.1391 61.3145 49.4456 59.9986 49.8602 58.4123C50.2748 56.826 50.7795 55.0414 51.3563 53.0585C51.9332 51.0937 52.5281 49.1829 53.1409 47.3623C53.7538 45.5236 54.3848 43.8832 55.0157 42.4411C55.6466 40.981 56.2415 39.9535 56.8003 39.3586C56.8363 39.3226 56.7282 39.2324 56.4758 39.0882C56.2234 38.944 55.8449 38.8178 55.3762 38.6736C54.8895 38.5294 54.3487 38.3672 53.7358 38.1869C53.1229 38.0067 52.474 37.8264 51.789 37.6281C50.2027 37.1955 48.382 36.7268 46.3451 36.2581C45.9485 36.3843 45.4618 37.0513 44.903 38.259C44.6686 38.7638 44.4343 39.3226 44.1999 39.9535C44.0017 40.278 43.8034 40.6385 43.6411 40.9089C43.1905 41.7381 42.7398 42.6214 42.0729 43.757C41.4059 44.8746 40.4325 46.3167 39.6573 47.5425C38.4676 49.3812 37.3139 51.0396 35.8718 52.9324C34.4298 54.8251 32.9877 56.6818 31.4735 58.2321C29.9593 59.7823 28.6974 60.972 27.2553 62.0176C25.9574 62.9729 23.7943 63.7841 22.0998 63.4777C19.5221 63.027 16.692 60.233 14.9795 57.7093C13.2129 55.0955 12.1674 52.3014 11.8249 49.3271C11.4824 46.3528 11.6987 43.2883 12.4738 40.1518C13.249 37.0152 14.3486 33.9688 15.7726 31.0125C17.1967 28.0562 18.801 25.2982 20.6217 22.7024C22.4243 20.1247 24.1728 17.8894 25.8673 16.0147C27.5618 14.14 27.9223 13.6353 29.2202 12.6799C30.5 11.7245 31.9241 10.4266 32.9516 10.7871C32.9877 10.8051 33.0057 10.8232 33.0417 10.8412C33.7448 11.382 33.5465 12.3193 33.3482 13.9778C33.1499 15.6722 32.6271 17.3847 32.1404 19.8002C31.6537 22.2338 30.7524 25.1179 29.7249 27.8219C28.7515 30.3996 27.9764 32.3645 27.021 34.7079C26.2819 36.5285 25.5248 37.9346 24.4973 40.2419C24.0647 41.2153 29.9232 41.1973 31.6357 40.3501C33.7628 39.2865 34.8083 37.574 36.2504 35.3388C37.6925 33.1216 38.9904 30.7962 40.1621 28.3627C41.3338 25.9291 42.2892 23.6758 43.0463 21.5668C43.8034 19.4577 44.3622 17.6911 44.5965 16.213C44.9571 13.9417 44.8128 12.8421 44.5785 11.5622C44.0197 8.49779 41.7844 5.45136 40.2342 3.93716C35.98 -0.226887 32.3567 -0.154782 28.3369 0.0975843C27.2373 0.169689 24.0106 0.710475 22.3883 1.73797C20.7659 2.76546 19.0354 4.24361 17.1967 6.17241C15.358 8.10121 13.5194 10.3905 11.6266 13.0404C9.75189 15.6902 8.02138 18.5744 6.43507 21.693C4.84877 24.8115 3.4968 28.0742 2.37918 31.4812C1.26156 34.8881 0.522483 38.3311 0.179985 41.7741C-0.162513 45.2352 -0.0183031 48.6241 0.63064 51.977C1.27958 55.3118 2.27102 58.196 3.67707 60.7918C4.84877 62.8107 7.12007 65.9473 10.5631 68.5971C12.2756 69.9311 14.4748 71.1208 16.9984 71.8599C19.0714 72.4727 21.2166 72.6891 22.9651 72.5809C24.263 72.4908 26.0295 72.1122 27.2553 71.5354C28.7875 70.8143 29.9052 70.0572 31.3473 68.9937C33.3842 67.4795 34.574 66.1996 35.944 64.6494C37.35 63.0631 38.3595 61.8733 39.6393 60.251C39.7114 60.1609 39.7835 60.0707 39.8556 59.9806C39.8376 60.251 39.8196 60.5214 39.8016 60.7918C39.7295 62.4682 39.8376 63.676 40.1621 64.4331C40.5587 65.3524 41.2437 66.1636 42.2171 66.8846C43.1905 67.6057 44.218 68.1825 45.2995 68.6512C46.3811 69.1019 47.3726 69.4444 48.3099 69.6607C49.2473 69.877 49.8962 69.9671 50.2568 69.9311C50.455 69.895 50.7615 69.6607 51.1581 69.2461C51.5546 68.8315 52.0233 68.2546 52.5641 67.5516C53.1049 66.8306 53.6817 66.0194 54.3307 65.1C54.9616 64.1807 55.6105 63.2253 56.2415 62.2339C56.3136 63.2253 56.4578 63.9644 56.6561 64.4511C57.0526 65.3704 57.7376 66.1816 58.711 66.9027C59.6844 67.6237 60.7119 68.2005 61.7935 68.6692C62.8751 69.1199 63.8846 69.4624 64.8399 69.6787C65.7953 69.895 66.4263 69.9851 66.7507 69.9491C67.0211 69.913 67.5439 69.4444 68.283 68.5791C69.022 67.6958 69.8512 66.5962 70.7886 65.2623C71.1671 64.7215 71.5457 64.1627 71.9423 63.5858C71.9963 64.397 72.0865 65.2082 72.2127 66.0194C72.2127 66.1275 72.3569 66.2537 72.6453 66.416C72.9337 66.5782 73.2942 66.7585 73.7629 66.9748C74.2316 67.1911 74.7363 67.4074 75.2771 67.6417C75.8359 67.8761 76.4128 68.0924 77.0076 68.3087C78.3956 68.8495 79.9639 69.4083 81.6944 70.0212C81.7665 67.1009 82.1631 63.9283 82.9022 60.5034C83.6232 57.0784 84.6147 53.5272 85.8405 49.8319C87.0662 46.1545 88.5264 42.387 90.2208 38.5475C91.9153 34.7079 93.772 30.9224 95.7909 27.191C95.863 27.1188 95.5746 26.9927 94.9437 26.7944C94.3128 26.5961 93.5196 26.3798 92.6003 26.1274C95.8991 25.6587 99.2519 25.2261 102.623 24.8295C105.994 24.4149 109.238 24.1085 112.357 23.8922C115.476 23.6758 118.36 23.5677 121.028 23.5677C123.695 23.5677 125.967 23.7299 127.86 24.0544C128.13 24.0364 128.004 23.6939 127.535 22.9909Z" fill="black"/>
<path d="M114.232 46.6412C114.033 45.6317 113.799 44.7845 113.547 44.0995C113.294 43.4145 113.024 42.9638 112.736 42.7295C112.105 42.2428 111.384 41.8282 110.608 41.4496C109.833 41.0711 109.13 40.7647 108.481 40.5483C107.85 40.332 107.31 40.2058 106.895 40.1518C106.48 40.1157 106.3 40.1878 106.39 40.3861C106.625 41.1793 106.769 42.2248 106.805 43.4866C106.841 44.7665 106.805 46.1545 106.679 47.6687C106.553 49.1829 106.336 50.7512 106.03 52.3555C105.705 53.9598 105.291 55.492 104.768 56.9341C103.218 56.5015 102.064 55.5281 101.325 54.0319C100.586 52.5358 100.55 50.5348 101.235 48.0292C101.794 46.515 102.425 45.0909 103.11 43.757C103.813 42.4231 104.606 41.2514 105.525 40.2599C105.687 40.0977 105.507 39.8453 105.02 39.5208C104.516 39.1783 103.867 38.8358 103.073 38.4753C102.28 38.1148 101.397 37.7723 100.424 37.4659C99.4502 37.1414 98.5489 36.889 97.7017 36.6907C97.1428 36.5645 96.4218 37.0332 95.5205 38.0968C94.6192 39.1603 93.7359 40.5483 92.8346 42.2789C91.9333 44.0094 91.1221 45.9562 90.383 48.1374C89.6439 50.3005 89.1212 52.4456 88.8328 54.5547C88.5263 56.6637 88.5624 58.6106 88.9229 60.3771C89.2834 62.1437 90.0946 63.5137 91.3745 64.4691C92.2938 65.1901 93.3033 65.8932 94.4209 66.5962C95.5385 67.2992 96.6381 67.9121 97.7377 68.4529C98.8373 68.9937 99.8828 69.4083 100.874 69.6787C101.866 69.9491 102.731 70.0392 103.434 69.913C104.822 69.6787 106.066 69.2821 107.165 68.7233C108.265 68.1645 109.22 67.4614 110.068 66.6322C110.897 65.803 111.618 64.8657 112.195 63.8202C112.501 63.2794 113.601 60.4493 114.178 57.1324C114.7 54.1401 114.7 50.643 114.646 50.0481C114.592 48.7863 114.448 47.6507 114.232 46.6412ZM101.397 62.8828C100.478 63.7841 99.4502 64.2708 98.2965 64.3429C98.2244 64.415 98.1703 64.2708 98.1523 63.8562C98.1343 63.4596 98.1523 62.8828 98.2064 62.1257C98.2605 61.3686 98.3686 60.4673 98.5309 59.4398C98.6931 58.4123 98.8914 57.2947 99.1257 56.0869C99.7566 56.7719 100.478 57.3848 101.253 57.9436C102.028 58.5024 102.875 59.0072 103.795 59.4398C103.11 60.8458 102.316 61.9995 101.397 62.8828Z" fill="black"/>
</svg>
