<svg width="128" height="89" viewBox="0 0 128 89" fill="none" xmlns="http://www.w3.org/2000/svg">
<path d="M126.515 59.4698C125.009 47.0366 120.084 35.4482 112.467 25.5164C108.655 20.5471 104.293 15.906 99.1544 12.2905C97.8031 11.34 96.4064 10.4788 94.9703 9.70063C94.8635 9.58805 94.736 9.51447 94.5943 9.50287C90.4714 7.32027 86.0334 5.81354 81.4186 4.87295C67.2945 1.99425 52.0295 3.89627 38.87 10.0401C38.8188 10.0524 38.7699 10.0757 38.7245 10.1094C29.2532 14.559 20.8812 21.2092 14.8253 29.8613C10.7638 35.6639 8.03812 42.2168 6.35859 49.0812C4.63941 56.1067 3.63156 63.697 3.95833 70.9383C3.97366 71.2818 4.26097 71.4852 4.55776 71.5176C10.3547 76.4901 18.0448 79.5917 25.2834 81.7139C32.9358 83.9573 40.9036 85.0105 48.8696 85.1102C66.0019 85.3249 83.1146 80.8299 98.9087 74.4575C108.24 70.6929 117.237 66.1471 125.984 61.1836C126.714 60.7686 126.794 60.0539 126.515 59.4698ZM86.2058 8.23102C86.096 8.31459 85.9864 8.39652 85.8769 8.4843C85.6593 8.65846 85.921 8.96542 86.1313 8.7745C86.2869 8.63346 86.4374 8.49276 86.5837 8.34841C87.4465 8.62849 88.2996 8.93551 89.1438 9.26615C88.9123 9.36806 88.688 9.4861 88.4799 9.58265C87.847 9.87639 87.2315 10.2041 86.6307 10.5583C86.2326 10.7931 86.6293 11.3464 87.0241 11.144C87.6602 10.8175 88.3113 10.5246 88.9795 10.2709C89.4154 10.1055 89.9184 10.0165 90.2864 9.7325C90.9838 10.0291 91.6739 10.3434 92.3546 10.6784C92.3287 10.6901 92.3001 10.7013 92.2759 10.7136C91.7865 10.9587 91.3171 11.2409 90.8684 11.554C90.372 11.9006 89.8821 12.2774 89.458 12.7124C88.9875 12.2775 88.2894 12.4905 88.0123 12.9173C85.9414 10.4958 82.9209 8.86916 80.468 6.77314C82.4056 7.15723 84.3244 7.63771 86.2058 8.23102ZM76.1474 6.07282C76.1522 6.16417 76.1892 6.25739 76.2736 6.33855C77.9159 7.91528 79.557 9.4924 81.2237 11.0432C81.456 11.2594 81.6955 11.4671 81.9329 11.6774C79.2524 9.65219 76.4339 7.78868 73.7308 5.80744C74.4727 5.87411 75.2134 5.9535 75.9524 6.04635C76.0173 6.05496 76.0822 6.06455 76.1474 6.07282ZM67.7436 5.55069C68.1666 5.98017 68.6525 6.34949 69.1057 6.76343C69.8637 7.45533 70.5761 8.1829 71.3588 8.84985C71.9489 9.35239 72.7594 10.2623 73.6158 10.7927C71.6059 12.066 69.7617 13.7605 68.1022 15.4051C67.0603 16.4381 66.103 17.5344 65.1476 18.6465C64.4582 19.4491 63.6738 20.273 63.1262 21.2009C60.5753 19.7873 58.2754 17.9603 55.7286 16.5338C53.8689 15.4919 51.5873 14.4394 49.4601 13.9739C50.2851 13.5151 50.9639 12.8129 51.7105 12.2329C52.6554 11.4987 53.5995 10.7621 54.5483 10.0329C56.4428 8.5767 58.3841 7.12473 60.4865 5.97823C62.8966 5.70358 65.32 5.55905 67.7436 5.55069ZM57.9578 6.31556C56.6187 7.25374 55.2857 8.19902 54.0092 9.22883C52.425 10.507 50.1417 12.0958 49.0771 13.8893C49.0709 13.8881 49.0649 13.8865 49.0587 13.8853C48.8292 13.8431 48.7014 14.0809 48.8006 14.2683C49.2275 15.0772 50.0361 15.3944 50.8575 15.6878C54.2177 18.235 57.6609 20.7374 61.3493 22.7603C61.6148 22.9058 61.8815 22.5148 61.6467 22.3205C59.5235 20.5639 57.2457 18.9844 54.9142 17.4882C54.9169 17.4896 54.9195 17.4911 54.9222 17.4925C57.6534 19.0762 60.1587 21.0279 62.8041 22.7482C63.3475 23.1016 63.8671 22.5666 63.871 22.0419C64.7345 21.3258 65.4398 20.3867 66.1974 19.5723C66.391 19.3639 66.594 19.164 66.7921 18.9596C66.8551 19.0005 66.9361 19.0077 67.018 18.9448C68.9553 17.455 71.3155 15.9222 72.8295 13.9832C72.9381 13.8441 72.8486 13.6655 72.7096 13.6349C73.6555 12.9013 74.6136 12.18 75.5681 11.4326C76.148 10.9784 75.8829 10.2521 75.3563 10.0796C75.1643 9.728 74.8092 9.50096 74.3986 9.176C73.5992 8.54325 72.8039 7.90405 71.9925 7.28699C71.3049 6.76423 70.5576 6.13244 69.7721 5.57681C70.9688 5.61013 72.1647 5.67633 73.3575 5.77652C77.7908 9.43622 81.9498 13.5366 86.8983 16.4965C87.1222 16.6304 87.3084 16.3041 87.1416 16.1368C86.8251 15.8196 86.5015 15.5103 86.1747 15.2048C86.2245 15.1552 86.2475 15.0761 86.2024 15.0045C84.0214 11.5405 80.4897 8.91602 77.3882 6.2441C78.225 6.36723 79.0598 6.50703 79.8921 6.66326C80.9688 7.79571 82.1388 8.80891 83.3724 9.79504C85.0028 11.0982 86.5281 12.5182 88.1323 13.8428C90.4346 16.5716 92.4644 19.5056 94.041 22.7152C94.9255 24.5162 95.6832 26.378 96.3839 28.2574C96.7549 29.253 97.111 30.2541 97.4748 31.2527C96.9941 30.6855 96.506 30.1366 96.0819 29.5964C94.6786 27.8091 93.2663 26.0298 91.8487 24.2537C89.5495 21.373 87.1295 18.4349 83.9068 16.584C83.9693 15.9827 83.26 15.305 82.549 15.7112C79.9755 17.182 77.5028 18.8508 75.1784 20.6911C73.032 22.3905 70.5073 24.138 68.7625 26.2504C68.4202 26.6647 68.8118 27.1582 69.2554 27.0846C71.6452 29.4157 74.0645 31.7286 76.3556 34.1578C76.2583 34.0823 76.1639 34.0034 76.066 33.9286C73.245 31.7763 70.07 29.6699 66.493 29.2393C66.4061 28.6406 65.6737 28.1963 65.0241 28.7725C61.9205 31.525 58.964 34.4516 56.1331 37.4893C58.803 33.9551 61.8383 30.7766 64.9595 27.5998C65.8836 28.2251 66.8235 28.8241 67.8036 29.3487C67.9499 29.4269 68.0915 29.2172 67.9658 29.1087C67.1526 28.4073 66.2867 27.7664 65.4028 27.1483C65.6445 26.9028 65.8865 26.6569 66.1291 26.411C67.2301 27.3557 68.427 28.1647 69.7948 28.7713C69.9342 28.8331 70.079 28.6457 69.95 28.5416C68.1117 27.0526 66.2361 25.5769 64.6233 23.8387C64.2766 23.4649 63.7598 24.0605 64.1005 24.4317C64.6397 25.0193 65.1958 25.575 65.7751 26.0971C65.462 26.3143 65.1522 26.5361 64.8477 26.7645C63.9538 26.1536 63.0479 25.5593 62.1612 24.9489C61.8549 24.738 61.4653 25.1748 61.7749 25.3868C62.6285 25.9713 63.4743 26.5771 64.329 27.169C62.4742 28.6214 60.7775 30.2778 59.2204 32.0668C59.1768 31.9213 59.0031 31.8087 58.8537 31.9201C57.2263 33.136 55.7869 34.5741 54.4485 36.1001C55.0209 35.1618 55.5998 34.228 56.1939 33.3046C57.5451 31.2051 59.2073 29.3027 60.5061 27.1763C60.843 26.6245 60.3151 26.0774 59.7853 26.0719C57.6836 24.3991 54.2747 23.6736 51.7926 23.0789C50.1723 22.6905 48.5392 22.3563 46.9013 22.0503C46.1193 21.9043 45.3371 21.7537 44.552 21.6254C44.2854 21.5819 43.6495 21.5772 43.1309 21.5161C42.994 21.0739 42.3724 20.7641 41.98 21.2235C38.1908 25.66 34.2736 30.0143 30.707 34.6368C29.0441 36.7918 27.4616 38.9906 26.0175 41.298C25.6018 41.9622 25.1791 42.6448 24.7945 43.3478C24.8611 43.0102 24.9314 42.6737 25.0088 42.3383C27.421 37.9008 30.1522 33.6488 32.6087 29.2397C32.6879 29.0976 32.4662 28.9409 32.3688 29.0776C29.5418 33.0461 27.2798 37.4459 25.1335 41.8177C25.3725 40.8535 25.6477 39.8977 25.9536 38.9536C27.0837 35.466 28.5116 32.0645 29.8953 28.6715C31.1691 25.548 32.4916 22.4406 34.0188 19.4312C35.229 17.0462 36.6765 14.851 38.0997 12.6183C38.6923 12.3209 39.2884 12.0318 39.8888 11.7534C45.6054 9.10254 51.7154 7.26943 57.9578 6.31556ZM51.5369 40.9693C52.1221 40.1991 52.6812 39.4008 53.2873 38.6381C54.7918 36.7445 56.4851 35.0442 58.1672 33.3195C56.2983 35.6275 54.6374 38.1113 53.1512 40.6287C53.1095 40.6992 53.0978 40.7666 53.1065 40.8268C51.5378 42.5974 49.9357 44.3541 48.5014 46.2371C49.465 44.4566 50.5013 42.711 51.5369 40.9693ZM29.047 80.4361C24.7708 79.4486 20.6022 78.0976 16.5586 76.3924C12.6349 74.7378 9.00671 72.659 5.25524 70.6826C5.86248 64.5788 6.14575 58.5064 7.40367 52.4763C8.66572 46.4238 10.6715 40.5142 13.7202 35.1198C18.8097 26.1145 26.7288 18.8595 35.7587 13.8522C34.6959 15.477 33.761 17.2014 32.8782 18.8565C31.1581 22.0811 29.6801 25.426 28.2733 28.7967C26.9191 32.0422 25.5243 35.2877 24.4375 38.6352C23.4449 41.6923 22.008 45.9638 23.0706 49.1507C23.2342 49.6416 23.9196 49.5574 24.0421 49.0899C24.3378 47.9629 24.3861 46.7873 24.4787 45.6187C25.2851 43.9641 26.1468 42.3727 27.261 40.8328C28.8555 38.6284 30.4856 36.4474 32.1913 34.3274C35.5733 30.1243 39.1825 26.1514 42.8726 22.2248C43.5981 22.4293 44.5061 22.4862 45.064 22.5988C46.7541 22.9396 48.4445 23.2849 50.1182 23.7004C51.8417 24.1284 53.5542 24.6352 55.2165 25.2627C56.4344 25.7223 57.5514 26.3992 58.7158 26.9497C55.5818 30.7307 53.0563 35.1177 50.6327 39.3567C49.3424 41.6132 48.0834 43.8938 46.9266 46.2222C45.9213 48.2461 44.7139 50.7519 44.951 53.0658C44.986 53.4062 45.4778 53.5951 45.6805 53.3133C45.7951 53.2759 45.9004 53.1975 45.9743 53.0707C47.2121 50.9449 48.2417 48.8477 49.8069 46.9123C51.3938 44.9498 53.1547 43.1348 54.8765 41.2922C58.5041 37.4105 62.1543 33.5679 66.1524 30.06C66.2162 30.0041 66.2684 29.9452 66.3137 29.8855C69.6446 31.6526 72.905 33.2925 75.8611 35.7122C77.3353 36.9189 78.7379 38.2114 80.1141 39.5279C81.3634 40.7233 82.6113 42.379 84.3657 42.7664C84.5387 42.8046 84.6585 42.6369 84.6176 42.4809C84.5377 42.1758 84.4166 41.8864 84.2679 41.6081C83.9552 40.1747 82.5978 38.9438 81.6979 37.8743C80.4999 36.4502 79.2556 35.065 77.9644 33.7246C75.4786 31.1435 72.8375 28.7902 69.8911 26.7644C72.1616 25.427 74.2198 23.4244 76.3276 21.8713C78.6141 20.1868 80.9376 18.5916 83.4153 17.1997C84.5966 18.3158 85.909 19.2789 87.0133 20.4892C88.5845 22.2111 89.8601 24.1855 91.2588 26.0446C92.5707 27.7882 93.9161 29.5061 95.2559 31.2285C96.4204 32.7256 97.4705 34.6123 99.2023 35.4994C99.5159 35.6598 99.7872 35.3468 99.72 35.0471C99.6333 34.6596 99.4974 34.285 99.3265 33.921C99.202 33.0019 99.0612 32.1183 98.7899 31.1535C98.4718 30.0224 98.1148 28.903 97.733 27.7918C97.0607 25.8358 96.3172 23.9009 95.4446 22.0252C93.9943 18.9067 92.1626 16.0585 90.0187 13.3852C90.4273 13.0749 90.8319 12.7581 91.2674 12.4838C91.7499 12.1797 92.7119 11.5215 93.5319 11.2836C93.7945 11.4242 94.0571 11.5644 94.3168 11.7113C99.6064 14.7051 104.123 18.9001 107.984 23.5614C116.394 33.7131 122.278 45.9469 123.669 59.125C95.5458 75.2477 61.7626 87.9915 29.047 80.4361Z" fill="black"/>
<path d="M45.5862 14.9449C42.168 17.8166 39.4648 21.5606 36.4512 24.8313C36.3924 24.8948 36.4921 24.9818 36.5516 24.9199C39.6204 21.7214 43.1871 18.8028 45.8329 15.2262C45.9497 15.0681 45.7621 14.7971 45.5862 14.9449Z" fill="black"/>
<path d="M31.6811 28.4795C31.6304 28.5769 31.7827 28.6532 31.8332 28.5561C34.5373 23.3682 38.5422 19.0972 42.3473 14.7278C42.4877 14.5666 42.2706 14.2955 42.0929 14.4376C37.4414 18.1492 34.3836 23.2949 31.6811 28.4795Z" fill="black"/>
<path d="M45.7153 13.2244C47.3676 11.6322 49.3363 10.484 51.0276 8.95865C51.186 8.81582 50.9868 8.5826 50.8118 8.63613C48.6015 9.30971 46.7741 11.1533 45.3321 12.8867C45.1193 13.1424 45.4808 13.4503 45.7153 13.2244Z" fill="black"/>
<path d="M41.8872 13.91C42.3438 13.2971 42.8322 12.7108 43.3629 12.1609C43.8906 11.6141 44.5154 11.1447 44.9655 10.5315C45.1224 10.3176 44.8993 10.0817 44.6712 10.1957C43.3326 10.8661 42.301 12.4269 41.4874 13.6396C41.3346 13.8672 41.7223 14.1309 41.8872 13.91Z" fill="black"/>
<path d="M53.8497 22.6455C51.2106 21.5663 48.273 21.0762 45.5057 20.422C45.2514 20.3618 45.1785 20.7437 45.4234 20.8148C48.1374 21.6056 50.9201 22.6264 53.73 22.9868C53.9214 23.0115 54.0538 22.729 53.8497 22.6455Z" fill="black"/>
<path d="M47.9503 17.4185C50.8236 19.2331 53.593 21.2511 56.5915 22.8593C56.7102 22.923 56.8411 22.7406 56.7265 22.6594C53.9457 20.6869 50.904 19.1009 47.9942 17.3315C47.9402 17.2988 47.8982 17.3853 47.9503 17.4185Z" fill="black"/>
<path d="M69.8431 24.0535C69.6352 24.4698 70.2565 24.7751 70.4844 24.3764C71.6754 22.2886 73.9007 20.9657 75.7992 19.5791C77.5821 18.2768 79.4458 17.0601 81.0033 15.4849C81.206 15.2802 80.9549 14.8828 80.6828 15.0058C78.2986 16.0838 76.2254 17.7852 74.1772 19.3921C72.4641 20.7355 70.8343 22.0689 69.8431 24.0535Z" fill="black"/>
<path d="M67.5788 23.9757C69.1465 22.4958 70.7238 21.023 72.3424 19.5991C73.9321 18.2006 75.8258 17.0009 77.2604 15.4497C77.4832 15.2086 77.1634 14.9234 76.9104 15.0504C75.0972 15.9617 73.5151 17.5657 72.0161 18.923C70.347 20.434 68.8052 22.0583 67.3779 23.7988C67.2671 23.9341 67.4548 24.0927 67.5788 23.9757Z" fill="black"/>
<path d="M92.8489 24.1045C93.0362 24.2826 93.4117 24.0615 93.2887 23.8102C92.018 21.2135 89.7833 18.9423 87.9374 16.7358C87.6459 16.3875 87.0505 16.7711 87.3417 17.1361C89.1567 19.4095 90.7407 22.1003 92.8489 24.1045Z" fill="black"/>
<path d="M75.9313 13.5738C76.2562 13.5151 76.537 13.3334 76.8159 13.1633C76.9489 13.0821 77.0778 12.997 77.1994 12.8987C77.3621 12.767 77.4039 12.6455 77.4672 12.4524C77.5326 12.2523 77.3276 12.0857 77.1505 12.0864C76.7912 12.0881 76.5749 12.2778 76.3126 12.5064C76.0797 12.7095 75.822 12.9079 75.676 13.1858C75.5888 13.3512 75.7272 13.6106 75.9313 13.5738Z" fill="black"/>
<path d="M29.9587 77.994C21.4991 76.1673 13.6166 73.0861 6.7395 67.7205C6.63837 67.6416 6.50704 67.787 6.60655 67.8711C13.1332 73.3815 21.3004 77.478 29.8743 78.3961C30.1324 78.4235 30.2222 78.0509 29.9587 77.994Z" fill="black"/>
<path d="M13.5165 64.8104C21.7802 70.2531 32.0563 73.3658 41.9831 72.4439C42.1643 72.4271 42.1477 72.1568 41.9654 72.1617C31.8423 72.4436 22.1317 70.2405 13.5946 64.6554C13.5008 64.5943 13.4244 64.7499 13.5165 64.8104Z" fill="black"/>
<path d="M67.5416 76.5657C59.098 78.3008 50.7261 79.3596 42.0931 78.6403C41.8637 78.6212 41.7826 78.9717 42.0182 78.9976C50.5275 79.9265 59.4788 79.6038 67.687 76.9885C67.969 76.8987 67.815 76.5096 67.5416 76.5657Z" fill="black"/>
<path d="M62.8819 72.1369C68.972 71.5347 74.938 70.308 80.837 68.6967C86.8693 67.0491 93.0364 65.2527 98.8266 62.8791C99.1257 62.7563 98.9755 62.3192 98.6633 62.4044C92.7879 64.0077 87.0788 66.2281 81.2188 67.9068C75.2018 69.6308 69.076 71.0414 62.8625 71.8271C62.6661 71.852 62.6816 72.1565 62.8819 72.1369Z" fill="black"/>
<path d="M101.406 65.5718C95.5933 67.969 89.9142 70.3936 83.7946 71.9426C83.6682 71.9746 83.736 72.1595 83.8598 72.1326C89.9256 70.8137 96.1396 68.9767 101.555 65.8716C101.72 65.7771 101.583 65.4987 101.406 65.5718Z" fill="black"/>
<path d="M114.933 62.7076C112.87 63.6557 110.833 64.6674 108.788 65.6547C108.71 65.6924 108.753 65.8226 108.832 65.7842C110.88 64.7883 112.941 63.8151 114.969 62.7807C115.01 62.7596 114.976 62.688 114.933 62.7076Z" fill="black"/>
<path d="M118.003 56.1153C115.315 57.3089 112.792 58.8661 110.255 60.3443C109.989 60.4998 110.255 60.8796 110.52 60.7382C113.095 59.3655 115.731 58.0485 118.144 56.3986C118.288 56.3002 118.174 56.0393 118.003 56.1153Z" fill="black"/>
<path d="M23.6249 63.1116C23.7185 63.1785 23.837 63.0525 23.7457 62.9747C19.9222 59.7288 16.7529 55.8844 14.6621 51.3063C14.5875 51.1429 14.321 51.2304 14.3946 51.3984C16.4278 56.0386 19.4887 60.1489 23.6249 63.1116Z" fill="black"/>
<path d="M23.3529 65.9063C23.4994 65.9683 23.6006 65.767 23.4636 65.6862C19.52 63.3569 15.8182 60.9786 12.5672 57.7145C12.4465 57.593 12.2749 57.7913 12.3921 57.913C15.5015 61.133 19.1967 64.1515 23.3529 65.9063Z" fill="black"/>
<path d="M25.5205 72.797C25.6071 72.8156 25.6331 72.6853 25.5485 72.6629C19.7918 71.1432 14.5254 68.1966 10.3515 63.9373C10.2443 63.8277 10.0897 64.0061 10.1946 64.1152C14.369 68.4668 19.6171 71.5181 25.5205 72.797Z" fill="black"/>
<path d="M52.0455 76.122C52.2794 76.0853 52.257 75.7689 52.0227 75.7578C47.7944 75.5613 43.5685 75.8287 39.3336 75.5328C39.1606 75.5206 39.1383 75.8187 39.3115 75.8394C43.4622 76.3378 47.8935 76.7761 52.0455 76.122Z" fill="black"/>
<path d="M58.7858 72.3208C58.2594 72.3537 57.7327 72.3867 57.206 72.4196C57.2002 72.42 57.2008 72.4291 57.2066 72.4287C57.7333 72.3958 58.2596 72.3628 58.7863 72.3299C58.7922 72.3295 58.7916 72.3204 58.7858 72.3208Z" fill="black"/>
<path d="M82.46 75.599C80.7836 76.0647 79.1298 76.6157 77.4696 77.1362C77.3466 77.1748 77.4115 77.3654 77.5351 77.3261C79.1924 76.7993 80.8628 76.3011 82.502 75.7199C82.5795 75.6919 82.5389 75.5772 82.46 75.599Z" fill="black"/>
<path d="M99.2859 60.8212C104.583 59.609 109.72 58.1168 114.59 55.6584C114.688 55.6091 114.606 55.4514 114.505 55.4882C109.468 57.3416 104.441 59.3224 99.2649 60.7607C99.225 60.772 99.2469 60.8301 99.2859 60.8212Z" fill="black"/>
<path d="M119.509 49.7054C117.476 50.7052 115.568 52.0062 113.631 53.1778C113.475 53.2721 113.632 53.505 113.789 53.4127C115.726 52.2687 117.774 51.2095 119.605 49.8999C119.701 49.8312 119.624 49.6484 119.509 49.7054Z" fill="black"/>
</svg>
