<svg width="77" height="93" viewBox="0 0 77 93" fill="none" xmlns="http://www.w3.org/2000/svg">
<path d="M76.2713 79.2023C70.8938 70.6069 72.1471 60.1071 72.5436 50.4765C72.7617 45.179 72.5801 39.9156 71.4555 34.7184C70.3984 29.8348 68.2943 25.2576 67.2415 20.3782C66.6037 17.4214 66.5559 14.4656 67.3029 11.5236C68.0283 8.66625 69.2854 5.99075 70.5417 3.33661C70.8049 2.78038 70.6314 1.94738 69.9208 1.81062C52.0084 -1.64328 33.9391 0.323816 16.1761 3.70068C11.0362 4.67774 5.91769 5.76155 0.801039 6.8524C-0.601709 7.15133 -0.00790802 9.30086 1.39376 9.00248C1.39619 9.00194 1.39862 9.00139 1.40105 9.00085C4.37358 12.9204 4.56169 18.2198 3.81951 22.9629C2.95029 28.5182 1.24078 33.8603 0.781309 39.4918C0.343187 44.8588 0.57319 50.3246 1.84431 55.5691C3.15679 60.985 5.72956 65.7262 8.24153 70.6499C10.9865 76.0301 13.459 82.6289 10.5524 88.4688C10.2808 89.0145 10.5094 89.6332 11.1033 89.8232C20.026 92.6757 29.4698 93.4063 38.7825 92.7352C47.4434 92.1108 56.4536 90.6751 64.5569 87.4502C68.7943 85.7636 72.7364 83.4998 76.1146 80.4161C76.4324 80.1259 76.4981 79.5648 76.2713 79.2023ZM53.2119 88.6572C50.9424 89.1429 48.6542 89.5648 46.3544 89.9148C46.132 87.482 45.7649 85.0744 45.079 82.7227C45.0125 82.4949 44.7046 82.5968 44.7343 82.8176C45.06 85.215 45.4611 87.601 45.779 89.9994C39.4853 90.923 33.1053 91.2919 26.7608 90.8641C26.4743 90.8449 26.1889 90.817 25.9026 90.7941C25.9129 90.7762 25.9199 90.7554 25.9181 90.7286C25.808 89.3127 25.7421 87.8842 25.5426 86.4774C25.5305 86.3915 25.3924 86.4136 25.3935 86.4977C25.4091 87.9091 25.5618 89.3218 25.6675 90.7286C25.6689 90.7468 25.674 90.7622 25.6808 90.7759C21.252 90.4073 16.8772 89.6097 12.6152 88.3491C16.9118 77.7563 7.42474 67.6979 4.32978 58.0838C2.5335 52.5033 1.7916 46.5326 2.10486 40.6835C2.43649 34.4911 4.37196 28.6628 5.19631 22.5567C5.83606 17.8163 5.31226 12.608 2.29622 8.81031C3.2103 8.61625 4.12466 8.42245 5.03956 8.22974C5.89418 11.1815 6.89502 14.1675 8.16344 16.9457C8.23371 17.0992 8.46424 16.9876 8.42748 16.8343C7.72151 13.894 6.675 10.9504 5.53983 8.1246C21.5839 4.75395 37.7728 1.73899 54.2376 2.16117C57.3148 2.24009 60.3824 2.46632 63.4309 2.85147C62.1054 7.43729 61.2976 12.5264 62.173 17.1803C62.2098 17.3763 62.5025 17.3206 62.509 17.1349C62.6014 14.4918 62.4506 11.8688 62.703 9.22708C62.906 7.10187 63.235 4.97288 63.7112 2.88498C65.1929 3.07715 66.6691 3.31228 68.1405 3.5831C66.1986 7.76108 64.4431 12.1091 64.6712 16.8035C64.9296 22.1153 67.1913 27.0031 68.6413 32.0448C70.2009 37.4666 70.6954 43.012 70.5481 48.6359C70.4062 54.0634 69.8468 59.4925 70.1695 64.924C70.373 68.3506 70.9257 71.7721 72.0523 74.9941C71.4222 73.3067 70.9317 71.5672 70.5768 69.7942C70.5552 69.6866 70.369 69.709 70.3828 69.8204C70.8109 73.2756 72.0133 76.4498 73.8766 79.3821C73.9212 79.4521 74.0077 79.4312 74.0402 79.3775C74.0667 79.4237 74.0959 79.4688 74.1226 79.5148C72.8804 80.5961 71.5604 81.5564 70.1811 82.4159C68.8565 80.4372 67.5159 78.5739 66.6559 76.3152C65.7696 73.9876 65.2666 71.515 65.2663 69.0231C65.2663 68.9004 65.0817 68.9012 65.0763 69.0231C64.8623 73.7351 66.1996 79.3323 69.8341 82.6305C64.7901 85.6906 58.9762 87.4234 53.2119 88.6572Z" fill="#DEDEDE"/>
<path d="M16.9418 21.0864C16.6301 20.011 14.9512 20.4672 15.2609 21.5499C15.402 22.0437 15.5393 22.5386 15.675 23.0338C15.8466 26.7334 12.7778 30.13 11.1567 33.2244C9.42366 36.5331 8.5231 40.243 8.26228 43.9558C7.70226 51.9339 10.1883 59.7531 13.9122 66.7217C16.1444 70.8991 18.8394 74.8017 21.643 78.6118C22.1097 79.2461 23.2633 79.1032 23.239 78.1796C22.9838 68.4928 22.889 58.7787 22.0803 49.1179C21.2851 39.623 19.5943 30.2394 16.9418 21.0864ZM11.1056 56.1781C8.7669 48.4189 8.94069 39.887 12.8946 32.6876C14.229 30.2578 15.8393 27.8007 16.2336 25.1303C16.3104 25.4276 16.3842 25.7258 16.459 26.0233C16.1612 27.4828 15.4879 28.9129 14.8103 30.2273C13.6017 32.5706 12.6005 34.9458 11.9932 37.5213C11.408 40.0022 11.1402 42.5604 11.2137 45.1086C11.2813 47.4481 11.4251 50.392 12.5457 52.4915C12.7681 52.9083 13.4808 52.7283 13.4522 52.2458C13.3765 50.9682 12.9703 49.6963 12.7813 48.427C12.5721 47.0205 12.4797 45.5953 12.4862 44.1736C12.4992 41.2671 12.9395 38.3729 13.8152 35.6007C14.2365 34.2666 14.9565 32.8203 15.6458 31.3281C15.4314 32.3684 15.2352 33.4125 15.0479 34.4582C14.4965 37.537 14.0576 40.6346 13.8408 43.7563C13.6265 46.8464 13.6222 49.9579 13.9554 53.0399C14.263 55.8867 14.6055 59.3517 16.1552 61.8202C16.3893 62.1932 17.1212 62.0851 17.0618 61.5745C16.9047 60.2274 16.4509 58.9541 16.1377 57.6379C15.7585 56.0449 15.4868 54.4267 15.3168 52.798C15.0033 49.7952 15.0057 46.7662 15.2084 43.7561C15.416 40.6727 15.8247 37.601 16.3271 34.5528C16.5844 32.9917 16.8755 31.4362 17.1431 29.877C17.1745 29.694 17.2099 29.5091 17.2469 29.3229C17.7982 31.7587 18.2861 34.2074 18.7099 36.6675C18.7602 37.1915 18.8264 37.7124 18.9272 38.2256C18.9367 38.2743 18.9596 38.3075 18.9867 38.334C19.5872 42.0809 20.0432 45.8526 20.3492 49.6433C20.9838 57.5022 21.1703 65.3973 21.3846 73.2816C20.8946 70.0091 20.5867 66.6863 20.3681 63.407C20.0811 59.1033 20.3821 54.7521 19.9624 50.4666C19.9335 50.1709 19.4521 50.0422 19.3951 50.3898C18.6842 54.7243 19.1702 59.3206 19.5745 63.6705C19.8035 66.1349 20.1519 68.5604 20.5629 70.9778C19.851 69.0569 18.9491 67.216 17.9794 65.4138C15.8174 61.3953 13.2589 57.4908 11.8221 53.1348C11.7348 52.8704 11.3218 52.9796 11.4018 53.2507C12.6265 57.4019 14.6638 61.1404 16.6577 64.9543C17.6769 66.9044 18.6745 68.8828 19.4491 70.9453C19.8213 71.9362 20.1416 72.9473 20.3889 73.9768C16.5252 68.4744 13.0505 62.6307 11.1056 56.1781Z" fill="#DEDEDE"/>
<path d="M17.5353 53.6698C17.9428 50.2305 17.6834 46.6798 17.6355 43.2216C17.5874 39.7328 17.4445 36.2587 17.3053 32.7734C17.2947 32.5067 16.8969 32.505 16.8899 32.7734C16.7985 36.259 16.7033 39.7337 16.7033 43.2216C16.7031 46.6806 16.4934 50.2356 16.9477 53.6698C16.9969 54.0444 17.4901 54.0501 17.5353 53.6698Z" fill="#DEDEDE"/>
<path d="M42.0805 33.1535C41.2983 30.8669 40.395 28.6209 39.3912 26.423C38.8563 25.2522 38.2917 24.0948 37.7 22.9515C37.1611 21.9102 36.6884 20.669 35.7562 19.9242C35.2927 19.5536 34.7299 19.9042 34.8075 20.4763C34.8978 21.1434 35.1937 21.7723 35.5302 22.3826C35.7002 26.1895 32.6969 29.7177 31.6409 33.3224C30.2006 38.2407 29.8682 43.4371 30.5093 48.5124C31.1174 53.3271 32.5439 57.9965 34.3886 62.4745C35.3207 64.7375 36.3527 66.9573 37.4516 69.1439C38.4879 71.2056 39.4647 73.8562 41.1304 75.4849C41.515 75.8608 42.1296 75.4795 42.0112 74.9722C42.0061 74.9503 41.9988 74.9295 41.9934 74.9078C44.0186 70.7015 44.6946 65.6638 45.1919 61.0714C45.7043 56.3386 45.7179 51.5538 45.1722 46.8234C44.6351 42.1692 43.5964 37.5866 42.0805 33.1535ZM43.6378 60.842C43.2972 64.1905 42.4918 67.4538 41.8493 70.7396C41.8201 68.1449 41.7823 65.551 41.6907 62.9558C41.6207 60.9758 41.5507 58.996 41.4828 57.0159C41.4166 55.0875 41.4461 53.1101 41.0515 51.2171C40.9753 50.8511 40.4942 50.9873 40.4542 51.2979C40.2117 53.1806 40.372 55.1213 40.4228 57.0159C40.4782 59.0787 40.5196 61.142 40.5617 63.205C40.6258 66.3324 40.7709 69.4514 40.9531 72.5713C40.8063 72.3134 40.658 72.0564 40.5158 71.7972C39.9006 70.675 39.2893 69.5506 38.6976 68.4157C37.4754 66.0711 36.3213 63.6869 35.3083 61.2436C33.4075 56.658 31.9974 51.8271 31.5463 46.8699C31.0757 41.7008 31.5728 36.2395 33.4234 31.3594C34.2718 29.122 35.5078 27.0898 35.9978 24.9489C36.3535 28.2542 36.1997 31.607 35.9784 34.9327C35.6689 39.5837 35.234 44.4852 36.7759 48.9686C36.9262 49.4057 37.7114 49.3735 37.6419 48.8513C37.3046 46.3161 36.9708 43.7793 36.9511 41.2178C36.933 38.8969 37.1114 36.5839 37.2368 34.2681C37.3603 31.991 37.3803 29.7815 37.1922 27.6033C37.7079 29.3631 38.2195 31.124 38.6833 32.8986C39.1987 34.8709 39.643 36.8698 39.9249 38.8899C40.2506 41.2251 40.0568 43.5814 40.3277 45.9026C40.3809 46.3599 41.0888 46.5569 41.2037 46.0212C41.6675 43.8606 41.3399 41.3705 41.0558 39.201C40.7939 37.2001 40.3817 35.2268 39.8571 33.2789C39.286 31.1583 38.5995 29.0766 37.8817 27.0049C38.8679 29.1534 39.7531 31.3475 40.519 33.5843C42.0366 38.0158 43.1035 42.6114 43.6092 47.2699C44.0984 51.7773 44.0965 56.3316 43.6378 60.842Z" fill="#DEDEDE"/>
<path d="M37.2127 58.6757C36.3218 56.0775 35.5102 53.4493 34.8521 50.7819C33.5369 45.452 32.8472 39.8378 33.4026 34.3563C33.4255 34.1303 33.0469 34.0782 33.0044 34.3025C31.9674 39.781 32.369 45.1855 33.6039 50.5957C34.2342 53.3572 35.0532 56.071 35.9573 58.7544C36.86 61.4336 37.6527 64.3432 39.1536 66.7535C39.3725 67.1049 39.8579 66.8652 39.7928 66.4841C39.3336 63.7999 38.0941 61.2466 37.2127 58.6757Z" fill="#DEDEDE"/>
<path d="M39.3172 47.5426C39.2616 47.2704 38.811 47.2637 38.7602 47.5426C38.3794 49.6356 38.6669 51.906 38.8407 54.012C39.0191 56.1713 39.334 58.2876 39.6245 60.4292C39.6489 60.609 39.957 60.5679 39.9429 60.3863C39.7753 58.1862 39.7272 55.9529 39.6545 53.746C39.5875 51.706 39.727 49.5481 39.3172 47.5426Z" fill="#DEDEDE"/>
<path d="M59.441 73.2303C63.7063 64.8087 66.2793 55.2981 63.9444 45.937C62.7387 41.103 61.0197 36.3713 59.5088 31.6262C58.708 29.1116 57.9607 26.572 57.106 24.0752C56.8196 23.2379 56.4682 22.4473 56.0603 21.6621C55.5971 20.7705 55.2533 19.7748 54.6914 18.9461C54.2933 18.3591 53.4568 18.6045 53.3976 19.2966C53.3759 19.5507 53.387 19.7988 53.4192 20.0429C52.5132 21.6721 51.6675 23.2849 51.0667 25.0771C50.3056 27.3475 49.7082 29.6802 49.3355 32.0468C48.6185 36.5996 48.9588 41.2147 49.9188 45.7067C50.9275 50.4271 52.5662 54.9838 54.153 59.5326C54.9581 61.841 55.7463 64.1562 56.4314 66.5036C57.0915 68.7653 57.5047 71.0275 58.6029 73.1162C58.6134 73.15 58.6275 73.1822 58.6453 73.2122C58.6748 74.462 59.241 75.5944 59.7932 76.7442C60.7545 78.7459 61.7027 80.7408 62.8635 82.6366C62.9238 82.7349 63.1024 82.6714 63.0581 82.5546C62.4508 80.9586 61.7322 79.4291 60.9694 77.9015C60.2837 76.528 59.258 75.0279 59.0458 73.4581C59.1988 73.4692 59.3526 73.4049 59.441 73.2303ZM55.1403 24.1419C55.9887 26.4217 56.6333 28.8024 57.3701 31.1205C58.1447 33.5571 58.9548 35.9888 59.7389 38.4281C60.4505 41.4793 60.9746 44.5772 61.2919 47.6716C61.5986 50.6642 61.9508 54.2018 61.4335 57.4463C61.3743 55.5316 61.1232 53.6094 60.8872 51.8569C60.347 47.8403 59.4129 43.9226 58.105 40.0876C58.0223 39.8452 57.8028 39.7646 57.6088 39.8016C56.6336 34.1139 54.9144 28.474 54.4708 22.7232C54.7195 23.1949 54.9627 23.6646 55.1403 24.1419ZM56.1906 59.4428C54.66 55.1827 53.0119 50.9531 51.877 46.564C50.7418 42.1739 50.1315 37.6132 50.6161 33.0838C50.8626 30.7786 51.3505 28.4978 51.9845 26.2696C52.0048 26.1988 52.0248 26.1266 52.0451 26.0555C51.6764 28.6832 51.5661 31.366 51.5375 33.8841C51.5086 36.4359 51.647 38.9808 51.9562 41.5136C52.2478 43.9029 52.4913 46.5351 53.5392 48.7292C53.7732 49.2195 54.5327 48.9625 54.5306 48.4606C54.5206 46.0716 53.8251 43.6304 53.5589 41.2582C53.2843 38.8124 53.1457 36.345 53.1497 33.8841C53.1538 31.5057 53.3035 29.1283 53.5438 26.7626C53.616 26.052 53.7081 25.342 53.8046 24.6322C54.2911 33.0017 56.8752 41.242 57.6274 49.5887C57.6591 49.9406 58.1423 49.9406 58.1747 49.5887C58.3536 47.6443 58.3174 45.7156 58.1447 43.7964C58.748 46.5183 59.1937 49.2757 59.4594 52.0501C59.6361 53.8964 59.7526 55.7395 59.8113 57.5933C59.8564 59.0179 59.8278 60.4301 59.9794 61.834C59.8299 62.0978 59.6691 62.3554 59.4948 62.6056C59.3564 62.8046 59.6553 63.0151 59.8213 62.8575C59.9118 62.7713 59.9978 62.6848 60.0832 62.5981C60.1167 62.807 60.1535 63.0156 60.1981 63.2243C60.2602 63.5154 60.6619 63.4721 60.7454 63.2243C60.9694 62.561 61.13 61.8683 61.2411 61.1569C62.0127 59.9509 62.4165 58.6179 62.6181 56.999C62.9711 54.1664 62.7754 51.248 62.5049 48.4168C62.5008 48.3752 62.4957 48.3341 62.4916 48.2925C63.1414 51.9474 63.1419 55.6151 62.4322 59.3431C61.737 62.9951 60.5064 66.4806 59.424 70.0175C59.4069 69.9069 59.3883 69.7967 59.3685 69.6867C59.3202 63.513 58.5702 57.1614 56.6396 51.3544C56.6274 51.318 56.609 51.2909 56.5885 51.2688C56.4912 49.3587 56.302 47.4573 55.9249 45.5978C55.8514 45.2351 55.3274 45.3434 55.3079 45.6813C55.0763 49.6811 55.706 53.7464 56.2585 57.6982C56.2939 57.9509 56.6971 57.8841 56.6963 57.639C56.6939 56.7552 56.6933 55.8649 56.686 54.9724C57.0096 57.7814 57.2806 60.5985 57.5709 63.4124C57.1279 62.0829 56.6641 60.761 56.1906 59.4428Z" fill="#DEDEDE"/>
<path d="M10.7784 20.038C10.7708 20.1142 10.899 20.1321 10.9127 20.0561C11.6006 16.2692 10.8273 12.4599 8.94915 9.1198C8.89375 9.02142 8.74591 9.10872 8.79808 9.20791C10.5703 12.5688 11.1554 16.2744 10.7784 20.038Z" fill="#DEDEDE"/>
<path d="M7.56219 18.7307C7.77409 21.1516 7.53244 23.4627 7.16459 25.8563C7.14486 25.9836 7.32488 26.0412 7.36245 25.9109C8.03355 23.5884 8.09789 21.1254 7.88166 18.7307C7.86301 18.5277 7.54435 18.5255 7.56219 18.7307Z" fill="#DEDEDE"/>
<path d="M10.7345 27.481C11.245 25.2877 11.6558 23.0806 12.0718 20.8675C12.0915 20.7626 11.9329 20.717 11.9107 20.8232C11.4486 23.0284 10.9845 25.226 10.6172 27.4488C10.6047 27.5242 10.7166 27.5585 10.7345 27.481Z" fill="#DEDEDE"/>
<path d="M4.95318 35.3634C4.43695 37.5559 4.2572 39.7789 4.55505 42.0182C4.56505 42.0933 4.6821 42.0982 4.6767 42.0182C4.52264 39.7816 4.6321 37.6056 5.15104 35.418C5.18158 35.2896 4.98345 35.2347 4.95318 35.3634Z" fill="#DEDEDE"/>
<path d="M13.7361 71.7212C15.1167 76.5678 16.274 81.4466 15.3362 86.4925C15.2973 86.7025 15.5916 86.7884 15.6586 86.5814C17.2698 81.6212 15.6405 76.3827 14.0659 71.6301C13.9972 71.4231 13.6753 71.5077 13.7361 71.7212Z" fill="#DEDEDE"/>
<path d="M16.8907 80.2539C17.6545 83.1083 17.4386 85.7406 17.2083 88.6356C17.1924 88.8364 17.4748 88.8442 17.5367 88.6799C18.5565 85.9768 18.2119 82.8229 17.4259 80.1064C17.3267 79.7639 16.798 79.9077 16.8907 80.2539Z" fill="#DEDEDE"/>
<path d="M22.5202 83.0395C21.6561 85.1388 21.1602 87.4389 20.5304 89.6181C20.4583 89.8679 20.8445 89.9733 20.9188 89.7252C21.571 87.5529 22.4021 85.3518 22.8135 83.1203C22.8494 82.9247 22.594 82.8601 22.5202 83.0395Z" fill="#DEDEDE"/>
<path d="M27.4498 81.7209C28.9804 84.2569 29.7685 87.0583 30.2253 89.9671C30.2485 90.1154 30.475 90.0728 30.4791 89.9327C30.5715 86.8697 29.5728 84.0004 27.9814 81.4103C27.7744 81.073 27.2444 81.38 27.4498 81.7209Z" fill="#DEDEDE"/>
<path d="M32.8925 78.3563C33.3936 81.1375 33.6653 84.13 34.5958 86.8047C34.6542 86.9726 34.9375 86.9596 34.9242 86.7604C34.7369 83.916 33.8201 81.0483 33.1928 78.2736C33.1485 78.0758 32.8577 78.1615 32.8925 78.3563Z" fill="#DEDEDE"/>
<path d="M36.9877 79.9204C37.4896 81.5718 37.7688 83.2489 38.1707 84.9216C38.1923 85.0116 38.3415 84.9946 38.335 84.8995C38.2161 83.1964 37.7285 81.4791 37.2369 79.8517C37.1888 79.6928 36.939 79.7606 36.9877 79.9204Z" fill="#DEDEDE"/>
<path d="M48.6464 67.9653C48.6502 67.8137 48.4142 67.8137 48.4107 67.9653C48.3413 71.02 48.6353 74.049 49.4259 77.0048C49.4424 77.0667 49.534 77.0404 49.5213 76.9785C48.9086 74.0006 48.5729 71.0078 48.6464 67.9653Z" fill="#DEDEDE"/>
<path d="M51.8009 70.6522C52.6902 75.718 53.9786 80.7855 56.0348 85.5105C56.0605 85.5694 56.16 85.5275 56.1389 85.4664C54.4521 80.5752 52.9437 75.6907 52.028 70.5892C52.0012 70.4405 51.7747 70.5038 51.8009 70.6522Z" fill="#DEDEDE"/>
<path d="M51.8098 79.8401C51.776 79.6236 51.4455 79.7149 51.4801 79.9309C51.7933 81.895 52.5112 83.6732 53.7637 85.2243C53.8153 85.2884 53.9207 85.2054 53.8772 85.1367C52.8426 83.508 52.1066 81.7515 51.8098 79.8401Z" fill="#DEDEDE"/>
<path d="M66.8877 59.9906C66.7506 67.1838 69.2658 74.0573 72.4292 80.4221C72.4897 80.544 72.6998 80.4583 72.6517 80.3283C70.2067 73.7197 67.089 67.1881 67.055 59.9903C67.0544 59.8827 66.8898 59.8827 66.8877 59.9906Z" fill="#DEDEDE"/>
<path d="M66.4389 30.8536C65.7799 28.4809 64.8729 26.2016 64.3239 23.7942C63.7464 21.2617 63.3542 18.6765 63.2004 16.0834C63.1847 15.8169 62.7771 15.8123 62.7823 16.0834C62.8782 21.0395 63.6071 26.6224 66.1124 30.9912C66.2129 31.1666 66.4935 31.0499 66.4389 30.8536Z" fill="#DEDEDE"/>
<path d="M69.2148 39.3641C68.3515 36.1413 67.0253 33.1707 65.3225 30.3036C65.2128 30.1187 64.9257 30.2855 65.0336 30.4725C66.6682 33.3045 67.9821 36.3222 69.068 39.4047C69.1005 39.496 69.2405 39.4601 69.2148 39.3641Z" fill="#DEDEDE"/>
<path d="M58.072 18.471C58.2152 15.9055 58.0714 13.3348 58.2333 10.7667C58.395 8.20143 58.8104 5.68135 59.0755 3.12911C59.091 2.98072 58.8612 2.95911 58.8217 3.09479C58.1068 5.55784 57.8152 8.2136 57.6371 10.7667C57.4585 13.3275 57.3376 15.9711 57.7882 18.5093C57.8179 18.6769 58.0633 18.6253 58.072 18.471Z" fill="#DEDEDE"/>
<path d="M58.9118 17.9428C59.3626 22.4029 60.4491 27.0517 62.7152 30.9618C62.7652 31.0481 62.9222 30.9897 62.8819 30.8916C61.1445 26.6536 59.6688 22.521 59.1248 17.9428C59.1088 17.8093 58.898 17.8057 58.9118 17.9428Z" fill="#DEDEDE"/>
<path d="M52.9457 12.6382C52.9584 12.778 53.1606 12.782 53.1663 12.6382C53.2884 9.55083 52.5895 6.4983 51.5338 3.61253C51.4792 3.46306 51.2405 3.52442 51.2919 3.67929C52.2649 6.60128 52.6697 9.58218 52.9457 12.6382Z" fill="#DEDEDE"/>
<path d="M46.8254 7.37278C47.7614 11.2835 48.106 15.246 48.2157 19.257C48.2182 19.3451 48.349 19.3448 48.3525 19.257C48.519 15.2336 47.922 11.2356 46.9279 7.34441C46.9111 7.27819 46.8095 7.30629 46.8254 7.37278Z" fill="#DEDEDE"/>
<path d="M43.5422 21.092C42.9367 16.913 42.0667 12.772 41.2659 8.62701C41.2315 8.44862 40.9631 8.52512 40.9948 8.70188C41.7353 12.8558 42.4083 17.0311 43.3443 21.1466C43.3743 21.2782 43.5605 21.219 43.5422 21.092Z" fill="#DEDEDE"/>
<path d="M45.3909 36.9826C44.8339 34.8655 44.2828 32.7576 43.9096 30.5987C43.8763 30.4062 43.5836 30.4878 43.6163 30.6795C43.9858 32.8371 44.4615 34.9726 45.215 37.031C45.2547 37.1397 45.4212 37.0981 45.3909 36.9826Z" fill="#DEDEDE"/>
<path d="M34.5871 14.7559C34.4525 12.3656 34.2963 10.0058 34.4033 7.60975C34.4128 7.39948 34.0855 7.39975 34.0766 7.60975C33.9728 9.99929 33.9909 12.4194 34.4079 14.7803C34.4258 14.8811 34.5931 14.8581 34.5871 14.7559Z" fill="#DEDEDE"/>
<path d="M31.5344 19.5084C31.339 15.711 30.9358 11.9279 30.5852 8.14211C30.5728 8.00724 30.3612 8.0048 30.3725 8.14211C30.6801 11.9336 30.936 15.7318 31.3977 19.5084C31.4079 19.5933 31.539 19.5984 31.5344 19.5084Z" fill="#DEDEDE"/>
<path d="M27.5651 22.6959C27.6889 17.2652 26.6702 11.7626 25.3526 6.51403C25.2953 6.28592 24.9472 6.38241 25.0007 6.61107C26.2448 11.9285 26.7272 17.2757 27.2535 22.6962C27.2726 22.8921 27.5605 22.9002 27.5651 22.6959Z" fill="#DEDEDE"/>
<path d="M22.3559 24.0047C21.7042 19.5524 20.7437 15.149 19.8615 10.7383C19.8288 10.5745 19.5831 10.6448 19.6123 10.807C20.4045 15.2336 21.1202 19.6827 22.1434 24.0633C22.1764 24.2047 22.3759 24.1412 22.3559 24.0047Z" fill="#DEDEDE"/>
<path d="M24.5871 32.7574C24.5915 32.5469 24.2655 32.5471 24.2603 32.7574C24.1728 36.2324 24.4509 39.7533 25.4055 43.1061C25.4461 43.2488 25.6528 43.1883 25.6253 43.0456C24.9693 39.6303 24.5169 36.2419 24.5871 32.7574Z" fill="#DEDEDE"/>
</svg>
