<svg width="42" height="42" viewBox="0 0 42 42" fill="none" xmlns="http://www.w3.org/2000/svg">
<circle cx="21" cy="21" r="20" fill="black" stroke="white" stroke-width="2" stroke-linecap="round" stroke-linejoin="round"/>
<path d="M28.9419 18.8739C28.8833 18.786 28.8067 18.6846 28.7075 18.5742C28.6106 18.4638 28.5025 18.3601 28.3876 18.2677C28.2727 18.1753 28.1713 18.1258 28.0879 18.1213C27.7544 18.1122 27.3759 18.1235 26.9522 18.1573C26.5286 18.1911 26.0825 18.2362 25.6138 18.297C25.1451 18.3579 24.6652 18.4277 24.1785 18.5066C23.6895 18.5854 23.2163 18.6711 22.7589 18.7634C22.3015 18.8536 21.8711 18.946 21.4655 19.0406C21.0622 19.133 20.7084 19.2231 20.4065 19.3065C20.3749 19.3155 20.3885 19.3561 20.4425 19.4259C20.4989 19.498 20.5687 19.5746 20.6566 19.6557C20.7422 19.7391 20.8301 19.8112 20.9157 19.8721C21.0013 19.9351 21.0644 19.9577 21.0982 19.9464C21.1613 19.9194 21.2605 19.8878 21.4024 19.854C21.5421 19.818 21.7156 19.7774 21.9184 19.7346C22.1235 19.6895 22.3533 19.6445 22.6079 19.5949C22.8625 19.5453 23.1352 19.498 23.4236 19.4484C23.2231 19.8473 23.027 20.2551 22.8378 20.6675C22.6462 21.0798 22.4817 21.4922 22.3443 21.9C22.3037 22.0217 22.2654 22.1411 22.2316 22.2628C22.2181 22.2718 22.1911 22.3101 22.1505 22.3777C22.1032 22.4543 22.0424 22.5535 21.9703 22.6729C21.8981 22.7923 21.8193 22.923 21.7359 23.0649C21.6503 23.2069 21.5714 23.3421 21.4926 23.4683C21.4159 23.5945 21.3461 23.7049 21.2875 23.7973C21.2267 23.8896 21.1884 23.946 21.1681 23.9663C21.1591 23.9753 21.1658 23.9167 21.1906 23.7905C21.2154 23.6643 21.2537 23.4998 21.3055 23.3015C21.3574 23.1033 21.4205 22.8802 21.4926 22.6323C21.5647 22.3867 21.639 22.1479 21.7156 21.9203C21.7922 21.6904 21.8711 21.4854 21.95 21.3051C22.0288 21.1226 22.1032 20.9942 22.173 20.9198C22.1776 20.9153 22.164 20.9041 22.1325 20.886C22.1009 20.868 22.0536 20.8522 21.995 20.8342C21.9342 20.8162 21.8666 20.7959 21.79 20.7734C21.7134 20.7508 21.6323 20.7283 21.5466 20.7035C21.3483 20.6494 21.1208 20.5909 20.8661 20.5323C20.8256 20.548 20.7783 20.6066 20.7242 20.708C20.6701 20.8094 20.6138 20.9401 20.5597 21.1001C20.5056 21.2601 20.4493 21.4403 20.3907 21.6409C20.3344 21.8414 20.2825 22.051 20.2375 22.265C20.1766 22.3552 20.0888 22.4881 19.9716 22.6684C19.8544 22.8486 19.7373 23.0289 19.6178 23.2137C19.4984 23.3984 19.388 23.5629 19.2889 23.7094C19.1897 23.8558 19.1244 23.9415 19.0951 23.9663C19.0861 23.9753 19.0928 23.9167 19.1176 23.7905C19.1424 23.6643 19.1807 23.4998 19.2325 23.3015C19.2843 23.1033 19.3474 22.8802 19.4195 22.6323C19.4916 22.3867 19.566 22.1479 19.6426 21.9203C19.7192 21.6904 19.7981 21.4854 19.877 21.3051C19.9558 21.1226 20.0302 20.9942 20.1 20.9198C20.1045 20.9153 20.091 20.9041 20.0595 20.886C20.0279 20.868 19.9806 20.8522 19.922 20.8342C19.8612 20.8162 19.7936 20.7959 19.717 20.7734C19.6404 20.7508 19.5592 20.7283 19.4736 20.7035C19.2753 20.6494 19.0478 20.5909 18.7931 20.5323C18.7436 20.548 18.6827 20.6314 18.6129 20.7824C18.5836 20.8455 18.5543 20.9153 18.525 20.9942C18.5002 21.0347 18.4754 21.0798 18.4551 21.1136C18.3988 21.2173 18.3425 21.3277 18.2591 21.4696C18.1757 21.6093 18.0541 21.7896 17.9572 21.9428C17.8085 22.1726 17.6642 22.38 17.484 22.6165C17.3037 22.8531 17.1235 23.0852 16.9342 23.279C16.7449 23.4728 16.5872 23.6215 16.4069 23.7522C16.2447 23.8716 15.9743 23.973 15.7625 23.9347C15.4403 23.8784 15.0865 23.5291 14.8724 23.2137C14.6516 22.8869 14.5209 22.5377 14.4781 22.1659C14.4353 21.7941 14.4623 21.411 14.5592 21.019C14.6561 20.6269 14.7936 20.2461 14.9716 19.8766C15.1496 19.507 15.3501 19.1623 15.5777 18.8378C15.803 18.5156 16.0216 18.2362 16.2334 18.0018C16.4452 17.7675 16.4903 17.7044 16.6525 17.585C16.8125 17.4656 16.9905 17.3033 17.119 17.3484C17.1235 17.3506 17.1257 17.3529 17.1302 17.3551C17.2181 17.4227 17.1933 17.5399 17.1685 17.7472C17.1437 17.959 17.0784 18.1731 17.0176 18.475C16.9567 18.7792 16.8441 19.1397 16.7156 19.4777C16.5939 19.8 16.497 20.0456 16.3776 20.3385C16.2852 20.5661 16.1906 20.7418 16.0622 21.0302C16.0081 21.1519 16.7404 21.1497 16.9545 21.0438C17.2203 20.9108 17.351 20.6968 17.5313 20.4173C17.7116 20.1402 17.8738 19.8495 18.0203 19.5453C18.1667 19.2411 18.2861 18.9595 18.3808 18.6958C18.4754 18.4322 18.5453 18.2114 18.5746 18.0266C18.6196 17.7427 18.6016 17.6053 18.5723 17.4453C18.5025 17.0622 18.2231 16.6814 18.0293 16.4921C17.4975 15.9716 17.0446 15.9807 16.5421 16.0122C16.4047 16.0212 16.0013 16.0888 15.7985 16.2172C15.5957 16.3457 15.3794 16.5305 15.1496 16.7716C14.9198 17.0127 14.6899 17.2988 14.4533 17.63C14.219 17.9613 14.0027 18.3218 13.8044 18.7116C13.6061 19.1014 13.4371 19.5093 13.2974 19.9351C13.1577 20.361 13.0653 20.7914 13.0225 21.2218C12.9797 21.6544 12.9977 22.078 13.0788 22.4971C13.1599 22.914 13.2839 23.2745 13.4596 23.599C13.6061 23.8513 13.89 24.2434 14.3204 24.5746C14.5344 24.7414 14.8093 24.8901 15.1248 24.9825C15.3839 25.0591 15.6521 25.0861 15.8706 25.0726C16.0329 25.0613 16.2537 25.014 16.4069 24.9419C16.5984 24.8518 16.7381 24.7572 16.9184 24.6242C17.173 24.4349 17.3217 24.275 17.493 24.0812C17.6687 23.8829 17.7949 23.7342 17.9549 23.5314C17.9639 23.5201 17.9729 23.5088 17.982 23.4976C17.9797 23.5314 17.9774 23.5652 17.9752 23.599C17.9662 23.8085 17.9797 23.9595 18.0203 24.0541C18.0698 24.1691 18.1555 24.2704 18.2771 24.3606C18.3988 24.4507 18.5272 24.5228 18.6624 24.5814C18.7976 24.6377 18.9216 24.6805 19.0387 24.7076C19.1559 24.7346 19.237 24.7459 19.2821 24.7414C19.3069 24.7369 19.3452 24.7076 19.3948 24.6558C19.4443 24.6039 19.5029 24.5318 19.5705 24.4439C19.6381 24.3538 19.7102 24.2524 19.7913 24.1375C19.8702 24.0226 19.9513 23.9032 20.0302 23.7792C20.0392 23.9032 20.0572 23.9955 20.082 24.0564C20.1316 24.1713 20.2172 24.2727 20.3389 24.3628C20.4606 24.453 20.589 24.5251 20.7242 24.5837C20.8594 24.64 20.9856 24.6828 21.105 24.7098C21.2244 24.7369 21.3033 24.7481 21.3438 24.7436C21.3776 24.7391 21.443 24.6805 21.5354 24.5724C21.6278 24.462 21.7314 24.3245 21.8486 24.1578C21.8959 24.0902 21.9432 24.0203 21.9928 23.9482C21.9995 24.0496 22.0108 24.151 22.0266 24.2524C22.0266 24.2659 22.0446 24.2817 22.0807 24.302C22.1167 24.3223 22.1618 24.3448 22.2204 24.3718C22.2789 24.3989 22.342 24.4259 22.4096 24.4552C22.4795 24.4845 22.5516 24.5115 22.626 24.5386C22.7995 24.6062 22.9955 24.676 23.2118 24.7526C23.2208 24.3876 23.2704 23.991 23.3628 23.5629C23.4529 23.1348 23.5768 22.6909 23.7301 22.229C23.8833 21.7693 24.0658 21.2984 24.2776 20.8184C24.4894 20.3385 24.7215 19.8653 24.9739 19.3989C24.9829 19.3899 24.9468 19.3741 24.868 19.3493C24.7891 19.3245 24.69 19.2975 24.575 19.2659C24.9874 19.2073 25.4065 19.1533 25.8279 19.1037C26.2492 19.0519 26.6548 19.0136 27.0446 18.9865C27.4344 18.9595 27.795 18.946 28.1284 18.946C28.4619 18.946 28.7458 18.9662 28.9824 19.0068C29.0162 19.0045 29.0005 18.9617 28.9419 18.8739Z" fill="white"/>
<path d="M27.2789 21.8303C27.2541 21.7041 27.2248 21.5982 27.1933 21.5126C27.1617 21.427 27.1279 21.3706 27.0919 21.3413C27.013 21.2805 26.9229 21.2287 26.826 21.1814C26.7291 21.134 26.6412 21.0957 26.5601 21.0687C26.4812 21.0417 26.4136 21.0259 26.3618 21.0191C26.31 21.0146 26.2875 21.0236 26.2987 21.0484C26.328 21.1476 26.346 21.2782 26.3505 21.436C26.3551 21.596 26.3505 21.7695 26.3348 21.9587C26.319 22.148 26.292 22.344 26.2537 22.5446C26.2131 22.7451 26.1613 22.9367 26.0959 23.1169C25.9021 23.0628 25.7579 22.9412 25.6656 22.7541C25.5732 22.5671 25.5687 22.317 25.6543 22.0038C25.7241 21.8145 25.803 21.6365 25.8886 21.4698C25.9765 21.303 26.0756 21.1566 26.1906 21.0326C26.2108 21.0124 26.1883 20.9808 26.1275 20.9403C26.0644 20.8974 25.9833 20.8546 25.8841 20.8096C25.785 20.7645 25.6746 20.7217 25.5529 20.6834C25.4312 20.6428 25.3185 20.6113 25.2126 20.5865C25.1428 20.5707 25.0527 20.6293 24.94 20.7622C24.8273 20.8952 24.7169 21.0687 24.6043 21.285C24.4916 21.5013 24.3902 21.7447 24.2978 22.0173C24.2054 22.2877 24.1401 22.5559 24.104 22.8195C24.0657 23.0831 24.0702 23.3265 24.1153 23.5473C24.1604 23.7681 24.2618 23.9394 24.4217 24.0588C24.5367 24.1489 24.6628 24.2368 24.8026 24.3247C24.9423 24.4126 25.0797 24.4892 25.2172 24.5568C25.3546 24.6244 25.4853 24.6762 25.6092 24.71C25.7332 24.7438 25.8413 24.7551 25.9292 24.7393C26.1027 24.71 26.2582 24.6604 26.3956 24.5906C26.5331 24.5207 26.6525 24.4328 26.7584 24.3292C26.862 24.2255 26.9522 24.1084 27.0243 23.9777C27.0626 23.9101 27.2 23.5563 27.2721 23.1417C27.3375 22.7677 27.3375 22.3305 27.3307 22.2562C27.324 22.0984 27.3059 21.9565 27.2789 21.8303ZM25.6746 23.8605C25.5596 23.9732 25.4312 24.034 25.287 24.043C25.278 24.052 25.2712 24.034 25.269 23.9822C25.2667 23.9326 25.269 23.8605 25.2757 23.7659C25.2825 23.6712 25.296 23.5586 25.3163 23.4301C25.3366 23.3017 25.3614 23.162 25.3907 23.011C25.4695 23.0966 25.5596 23.1733 25.6565 23.2431C25.7534 23.313 25.8593 23.376 25.9743 23.4301C25.8886 23.6059 25.7895 23.7501 25.6746 23.8605Z" fill="white"/>
</svg>
