<svg width="46" height="64" viewBox="0 0 46 64" fill="none" xmlns="http://www.w3.org/2000/svg">
<path d="M4.06164 0.595558C2.15539 1.93931 1.56164 5.06431 1.18664 15.7206C0.780391 26.9706 0.780391 44.2518 1.15539 49.1581C1.78039 57.0018 2.37414 58.5018 5.65539 60.6268C7.12414 61.5956 7.43664 61.6893 8.93664 61.5331C11.0304 61.3456 9.99914 65.8772 18.3116 60.6272C19.6866 49.1581 20.3741 49.5959 18.3116 44.5242C18.3116 31.6178 18.0415 22.1475 14.2491 12.6666C13.8993 11.8736 16.0911 3.56015 7.81164 0.845558C5.12414 -0.0294419 4.96789 -0.0606918 4.06164 0.595558ZM10.7491 22.0478C11.8116 22.3915 2.87414 26.8391 9.53039 22.9863C-1.00086 26.4872 10.1241 20.0643 10.0304 19.9706C7.81164 19.9706 7.81164 19.2323 9.74914 18.5956L9.53039 17.2831L10.9054 18.0643C11.6554 18.4706 9.65539 21.6728 10.7491 22.0478ZM11.0304 27.8768C10.6866 29.3143 10.2491 29.3768 10.2491 27.9706C10.2491 26.9081 10.3429 26.7206 10.7491 26.8768C11.0929 27.0018 11.1866 27.2831 11.0304 27.8768ZM20.9366 31.3768C11.0304 27.8768 19.9991 31.5331 19.6866 31.3456C19.2804 31.1268 19.4366 31.0643 20.4054 31.0643C21.4991 31.0643 21.5616 31.0956 20.9366 31.3768ZM14.2491 39.9969C13.4991 40.6532 12.1554 42.7206 11.9054 42.4706C11.8116 42.4081 11.8741 41.9393 12.0304 41.4706C12.2804 40.7518 10.6362 39.8945 12.9174 39.1757C14.3549 38.707 14.3116 37.6462 16.1866 36.8962C15.7179 39.0837 12.1241 38.9925 14.2491 39.9969Z" fill="#C18539"/>
<path d="M42.7289 62.7179C44.6351 61.3742 45.2289 58.2492 45.6039 47.5929C46.0101 36.3429 46.0101 19.0617 45.6351 14.1554C45.0101 6.31166 44.4164 4.81166 41.1351 2.68666C39.6664 1.71791 39.3539 1.62416 37.8539 1.78041C35.7601 1.96791 36.7914 -2.5637 28.4789 2.6863C27.1039 14.1554 26.4164 13.7176 28.4789 18.7892C28.4789 31.6957 28.749 41.166 32.5414 50.6468C32.8913 51.4399 30.6994 59.7533 38.9789 62.4679C41.6664 63.3429 41.8226 63.3742 42.7289 62.7179ZM36.0414 41.2657C34.9789 40.9219 43.9164 36.4743 37.2601 40.3272C47.7914 36.8263 36.6664 43.2492 36.7601 43.3429C38.9789 43.3429 38.9789 44.0812 37.0414 44.7179L37.2601 46.0304L35.8851 45.2492C35.1351 44.8429 37.1351 41.6407 36.0414 41.2657ZM35.7601 35.4367C36.1039 33.9992 36.5414 33.9367 36.5414 35.3429C36.5414 36.4054 36.4476 36.5929 36.0414 36.4367C35.6976 36.3117 35.6039 36.0304 35.7601 35.4367ZM25.8539 31.9367C35.7601 35.4367 26.7914 31.7804 27.1039 31.9679C27.5101 32.1867 27.3539 32.2492 26.3851 32.2492C25.2914 32.2492 25.2289 32.2179 25.8539 31.9367ZM32.5414 23.3166C33.2914 22.6603 34.6351 20.5929 34.8851 20.8429C34.9789 20.9054 34.9164 21.3742 34.7601 21.8429C34.5101 22.5617 36.1543 23.419 33.8731 24.1378C32.4356 24.6065 32.4789 25.6673 30.6039 26.4173C31.0726 24.2298 34.6664 24.321 32.5414 23.3166Z" fill="#C18539"/>
</svg>
