<svg width="160" height="152" viewBox="0 0 160 152" fill="none" xmlns="http://www.w3.org/2000/svg">
<path d="M69.531 0.906296C52.6248 1.93755 37.656 6.5313 26.1873 14.1875C19.2498 18.8125 13.906 24.3125 10.0623 30.875C8.5623 33.4063 8.4373 34.2188 9.53105 34.9375C10.6873 35.6875 11.406 35.25 12.7498 32.9063C20.9373 18.6875 39.2498 8.2188 61.7185 4.8438C67.1248 4.0313 83.1248 4.0313 88.906 4.8438C103.719 6.93755 117.375 11.2813 125.625 16.5C131.75 20.375 137.531 25.75 141.969 31.6875C150.937 43.6563 155.937 57.2813 156.469 71.1563C156.969 84.6563 153.062 98.3438 145.062 111.094C133.094 130.156 112.375 143.219 87.9685 147C82.1248 147.906 69.781 148 64.5623 147.156C56.1248 145.813 50.0623 143.969 43.1873 140.656C35.5935 137.031 30.6248 133.469 23.8123 126.813C10.281 113.563 3.4373 98.125 3.4373 80.8438C3.4373 68.6875 5.9998 56.8125 10.5623 47.7188C12.4373 43.9375 14.031 41.6875 16.781 38.8125C19.2185 36.25 19.4998 35.4375 18.6248 33.8125L18.1873 33.0625L15.3123 35.8438C8.40605 42.5625 5.21855 48.9063 2.3748 61.625C-1.7502 80.0625 -0.375202 95.25 6.6248 109.25C11.8748 119.75 21.0623 130.438 31.2498 137.906C38.3748 143.125 45.0935 146.281 53.4373 148.281C71.2811 152.625 88.406 152 103.5 146.5C110.062 144.125 122.25 138.406 126.812 135.563C135.812 129.969 143 121.813 150.625 108.5C153.781 102.938 155.469 99.375 156.875 95.1563C160.75 83.4063 160.969 70 157.469 56C152.281 35.1563 137.812 17.4688 119.094 9.12505C113.25 6.50005 104.969 4.0938 97.1873 2.75005C89.0623 1.3438 76.2185 0.500046 69.531 0.906296Z" fill="#C18539"/>
</svg>
