<svg width="60" height="62" viewBox="0 0 60 62" fill="none" xmlns="http://www.w3.org/2000/svg">
<path d="M3.62463 0.687378C1.71838 2.03113 1.12463 5.15613 0.749629 15.8124C0.343379 27.0624 0.343379 44.3436 0.718379 49.2499C1.34338 57.0936 1.93713 58.5936 5.21838 60.7186C6.68713 61.6874 6.99963 61.7811 8.49963 61.6249C10.5934 61.4374 11.8121 60.8124 20.1246 55.5624C34.5934 46.4686 48.2809 36.8436 54.7496 31.2186C57.0934 29.1874 59.8121 26.3124 59.8121 25.8436C59.8121 25.6874 59.5934 25.0624 59.3434 24.4374C58.8746 23.3749 58.4059 23.0936 50.9684 19.4374C37.2496 12.6874 16.9059 4.06238 7.37463 0.937378C4.68713 0.0623779 4.53088 0.0311279 3.62463 0.687378ZM20.9684 17.4999C23.8121 18.3749 29.5934 20.6561 30.7184 21.3124C31.7184 21.9061 31.5621 21.8436 26.0621 19.9374C23.5621 19.0624 19.8746 17.9061 17.8746 17.3436C13.2809 16.1249 11.8746 15.2811 15.8121 16.1249C17.3434 16.4686 19.6559 17.0624 20.9684 17.4999ZM13.8121 19.5936C14.8746 19.9374 15.7496 20.2499 15.7496 20.2811C15.7496 20.3749 9.68713 20.1561 9.59338 20.0624C9.56213 20.0311 9.43713 19.4061 9.31213 18.6874L9.09338 17.3749L10.4684 18.1561C11.2184 18.5624 12.7184 19.2186 13.8121 19.5936ZM10.5934 27.9686C10.2496 29.4061 9.81213 29.4686 9.81213 28.0624C9.81213 26.9999 9.90588 26.8124 10.3121 26.9686C10.6559 27.0936 10.7496 27.3749 10.5934 27.9686ZM25.9996 27.2811C25.6871 27.3436 25.1871 27.3436 24.9059 27.2811C24.5934 27.1874 24.8434 27.1249 25.4371 27.1249C26.0309 27.1249 26.2809 27.1874 25.9996 27.2811ZM28.8121 27.5936C28.4996 27.6561 27.9996 27.6561 27.7184 27.5936C27.4059 27.4999 27.6559 27.4374 28.2496 27.4374C28.8434 27.4374 29.0934 27.4999 28.8121 27.5936ZM20.4996 31.4686C20.0309 31.6561 19.5621 31.6249 19.2496 31.4374C18.8434 31.2186 18.9996 31.1561 19.9684 31.1561C21.0621 31.1561 21.1246 31.1874 20.4996 31.4686ZM31.3434 34.3749C30.5934 35.0311 11.7184 42.8124 11.4684 42.5624C11.3746 42.4999 11.4371 42.0311 11.5934 41.5624C11.8434 40.8436 12.2496 40.5936 14.5309 39.8749C15.9684 39.4061 18.7184 38.4374 20.5934 37.6874C25.2809 35.8436 32.0309 33.7811 31.3434 34.3749Z" fill="#C18539"/>
</svg>
