<svg width="258" height="59" viewBox="0 0 258 59" fill="none" xmlns="http://www.w3.org/2000/svg">
<path fill-rule="evenodd" clip-rule="evenodd" d="M256.484 26.2011C252.843 25.6779 249.275 25.0052 245.634 24.7063C239.019 24.2578 232.405 23.9588 225.79 23.7346C222.594 23.5851 219.399 23.5851 216.203 23.8093C214.122 23.9588 212.115 23.7346 210.183 23.0619C204.981 21.3428 199.778 19.6984 194.353 18.8015C193.238 18.652 192.123 18.353 191.008 17.9793C187.441 16.7087 183.725 16.1107 180.009 15.6622C178.523 15.5127 177.036 15.3633 175.624 14.9895C170.868 13.7189 165.888 13.5694 161.206 12.0745C160.463 11.8503 159.645 11.8503 158.828 11.7756C152.882 11.5513 147.011 11.1776 141.14 12.0745C139.282 10.6544 137.275 9.68271 135.045 8.86053C129.546 6.91718 123.749 6.16972 118.1 4.82433C113.121 3.62843 107.993 3.10523 102.939 2.35779C100.041 1.90933 97.0678 1.61035 94.095 1.23663C90.6762 0.86291 87.3319 0.33972 83.9131 0.0407444C82.5011 -0.108744 81.0146 0.190205 79.5282 0.339693C79.2309 0.339693 78.9337 0.788175 78.1905 1.38613C79.1566 1.46087 79.6026 1.46085 80.0485 1.46085C81.089 1.46085 82.1294 1.23664 83.0956 1.38613C90.0074 2.13357 96.9192 2.95574 103.831 3.85267C107.919 4.37588 111.932 5.04858 115.945 5.87077C120.404 6.7677 124.789 8.03836 129.323 8.7858C131.998 9.23427 134.599 10.2059 137.572 11.9998C136.606 12.4482 136.086 12.6725 135.566 12.8219C132.073 13.7936 128.505 14.5411 125.012 15.5875C119.364 17.3066 113.641 18.951 109.033 23.0619C107.844 24.1083 106.506 24.4073 104.946 24.0336C103.385 23.6598 101.75 23.5851 100.264 23.0619C97.8853 22.2397 95.3584 21.9407 92.9059 21.7165C89.2642 21.4923 85.6225 21.3428 81.9808 21.1186C78.785 20.8943 75.7379 20.3711 72.7651 18.7267C70.9071 17.6803 68.7518 17.0076 66.6709 16.4844C59.9077 14.8401 53.1446 13.1957 46.3071 11.7756C40.5845 10.5797 34.8619 9.75745 29.1392 8.86053C27.1326 8.56155 25.0516 8.71106 22.9706 8.7858C22.6734 8.7858 22.3761 9.15951 21.5585 9.75746C22.9706 9.83221 23.7138 9.90696 24.5313 9.90696C25.6461 9.90696 26.8352 9.8322 27.9501 9.98169C31.4431 10.5049 34.9362 10.9534 38.4292 11.7008C47.6449 13.7189 56.9349 15.8117 66.1506 17.9793C68.0086 18.4278 69.7923 19.1752 71.6503 19.8479C72.0962 19.9974 72.4678 20.3711 73.3597 20.9691C72.0962 21.1933 71.353 21.4175 70.6098 21.4923C68.8261 21.7165 66.9681 21.866 65.1845 22.2397C57.8268 23.5851 50.915 26.2759 44.1519 29.4151C41.8479 30.4615 39.6926 31.7322 37.3887 32.7786C36.7198 33.0776 35.828 33.3765 35.1591 33.2271C31.2201 32.6291 27.2812 31.8069 23.4165 31.1342C21.4099 30.7605 19.4032 30.3868 17.3223 30.0878C14.0522 29.6394 10.7821 29.1161 7.51202 28.7424C5.35673 28.5182 3.20148 28.3687 1.0462 28.2192C0.60028 28.2192 -0.0686192 28.294 0.00570094 29.1909C0.451622 29.2656 0.897533 29.3404 1.34345 29.4151C4.0933 29.7141 6.84314 29.8636 9.51867 30.3121C17.248 31.5827 25.0516 33.0776 32.7809 34.423C37.9833 35.3199 42.9627 36.8148 48.0908 37.936C53.3676 39.0571 58.2727 41.2247 63.1778 43.3175C63.5494 43.467 63.7724 43.8407 64.2926 44.3639C63.2521 44.8124 62.4346 45.1861 61.6171 45.5598C60.6509 45.9335 59.6848 46.3073 58.7186 46.6062C57.9011 46.9052 56.9349 46.9052 56.3403 47.9516C56.8606 48.1011 57.1579 48.4001 57.3808 48.3253C60.1307 47.1294 63.1778 46.9799 66.002 46.3073C67.1168 46.0083 68.2316 46.0083 69.4207 45.9335C75.5893 45.6346 81.6835 46.681 87.8521 46.8305C88.298 46.8305 88.7439 46.9799 89.1898 47.0547C93.1288 47.8769 96.9935 48.6991 100.932 49.5213C104.054 50.194 107.175 50.9414 110.297 51.5393C115.128 52.511 119.884 53.408 124.715 54.4544C127.019 54.9028 129.397 55.5008 131.701 56.0987C135.268 56.9209 138.761 57.8178 142.329 58.64C143.369 58.8642 144.484 59.238 145.599 58.7895C145.376 57.8178 144.633 57.8178 143.964 57.6684C139.951 56.6967 136.012 55.5755 131.998 54.6786C125.904 53.2585 119.735 51.9878 113.641 50.6424C112.229 50.3435 110.743 50.194 109.628 48.9981C110.52 47.6527 111.858 47.2789 113.121 46.7557C114.087 46.382 115.053 46.083 116.019 45.7093C119.289 44.4387 122.56 43.0185 125.904 41.8974C130.215 40.4772 134.599 39.1319 139.133 38.5339C141.809 38.1602 144.484 37.5622 147.234 37.039C148.2 36.8895 149.241 36.7401 150.281 36.8148C154.071 36.9643 157.787 37.1138 161.578 37.4127C167.077 37.7865 172.503 37.338 178.002 38.0854C182.759 38.6834 187.515 38.9076 192.198 40.1783C194.947 40.9257 197.772 41.3741 200.596 41.8226C201.636 41.9721 202.602 42.1216 203.643 42.1216C203.94 42.1216 204.237 41.6732 204.758 41.2994C203.494 41.0005 202.602 40.851 201.785 40.6267C201.042 40.4025 200.224 40.1782 199.481 39.954C198.589 39.8045 197.697 39.655 196.805 39.5803C195.914 39.4308 195.022 39.2813 194.13 39.1318C193.312 38.9824 192.569 38.9076 191.752 38.7581C190.86 38.6086 189.968 38.4591 189.076 38.2349C188.184 38.0107 187.292 37.7865 186.401 37.637C185.583 37.4875 184.84 37.338 184.022 37.2632C183.205 37.1885 182.313 37.338 181.347 36.5158C182.536 35.8431 183.576 35.3946 184.468 34.7219C187.961 32.1806 191.975 30.91 195.839 29.3404C200.298 27.5465 205.055 26.7991 209.811 26.0516C213.081 25.5284 216.352 25.2295 219.696 25.2295C221.851 25.3042 224.007 25.1547 226.162 25.2295C236.418 25.5285 246.674 25.6032 256.856 27.5465C257.153 27.6213 257.525 27.4718 257.822 27.397C257.971 27.3223 258.045 26.8738 257.971 26.8738C257.302 26.6496 256.93 26.2759 256.484 26.2011ZM138.464 37.1138C131.627 38.1602 125.161 40.253 118.844 43.0933C114.905 44.8871 110.891 46.382 106.878 48.1011C105.317 48.7738 103.905 48.9233 102.27 48.4001C97.811 47.0547 93.1288 46.3073 88.521 45.6346C86.9602 45.4104 85.3252 45.4103 83.7645 45.3356C82.724 45.2608 81.6835 45.2609 80.7173 45.1114C77.5216 44.6629 74.4001 44.2144 71.2044 44.7376C70.3125 44.8871 69.3464 44.7377 68.4545 44.6629C67.414 44.5882 66.4479 44.3639 65.7047 43.5418C64.5899 42.2711 63.1035 41.7479 61.6171 41.1499C55.5229 38.4592 49.2056 36.6653 42.7398 35.1704C41.7736 34.9462 40.8075 34.5725 39.1724 34.0493C40.1386 33.2271 40.6588 32.7786 41.1791 32.4796C45.4896 30.1625 49.9488 28.0698 54.7053 26.7244C56.7119 26.1264 58.6443 25.6032 60.5766 24.8558C62.7319 24.0336 64.9615 23.6598 67.2654 23.4356C70.0153 23.2114 72.6908 22.9124 75.4406 22.9124C78.6364 22.9124 81.7578 22.6134 84.9536 23.1366C88.0007 23.6598 91.1222 23.0619 94.1693 23.7346C95.8044 24.1083 97.5137 24.2578 99.2231 24.6315C106.283 25.9769 113.344 27.3223 120.404 28.8172C125.458 29.8636 130.363 31.4332 135.12 33.3765C136.978 34.124 138.761 35.1704 141.065 36.2916C139.876 36.5906 139.207 36.9643 138.464 37.1138ZM205.501 25.3042C198.143 26.5749 191.157 29.0414 184.617 32.7786C183.651 33.3018 182.536 33.6756 181.495 34.1988C180.901 34.4977 180.158 34.7219 179.786 35.2451C178.82 36.5158 177.482 36.6653 176.07 36.5158C171.76 36.2916 167.449 35.9926 163.064 35.7684C158.976 35.6189 154.815 35.7684 150.727 35.2451C149.315 35.0957 147.754 35.3199 146.268 35.4694C145.079 35.5441 144.038 35.2452 142.998 34.7967C138.538 32.9281 134.154 30.9847 129.62 29.4899C125.83 28.2192 122.039 27.0233 118.026 26.5001C115.648 26.2011 113.344 25.5284 111.04 24.9305C110.743 24.8557 110.52 24.5568 110.148 24.3325C111.263 22.9124 112.526 21.7913 114.161 21.1186C117.431 19.7732 120.702 18.4277 124.046 17.3066C129.471 15.5127 135.045 14.1674 140.768 13.7189C143.146 13.4947 145.525 13.5694 147.903 13.4947C149.612 13.4947 151.322 13.4946 153.031 13.4199C157.267 13.1957 161.503 13.3452 165.517 14.84C166.037 15.0643 166.631 15.0643 167.226 15.139C169.827 15.5128 172.428 15.737 174.955 16.5592C176.888 17.1571 179.043 17.1571 181.05 17.4561C182.982 17.7551 184.84 18.1288 186.772 18.5772C191.231 19.6237 195.691 20.5953 200.075 21.7165C202.528 22.3892 205.055 23.0619 207.805 24.4073C206.764 24.8557 206.17 25.2295 205.501 25.3042Z" fill="black"/>
</svg>
