<svg width="176" height="39" viewBox="0 0 176 39" fill="none" xmlns="http://www.w3.org/2000/svg">
<path fill-rule="evenodd" clip-rule="evenodd" d="M16.2902 18.9916C15.9183 19.3575 15.2488 19.6501 14.8025 19.6501C11.9759 19.5038 9.14929 19.9428 6.32268 19.138C4.53745 18.6258 2.52907 18.3331 0 19.138C0.818229 19.577 1.04137 19.7965 1.33891 19.8697C5.05814 20.2355 8.85177 20.5282 12.571 20.8941C12.9429 20.8941 13.2404 20.8941 13.6124 20.9673C20.9764 21.9917 28.2661 23.0892 35.6302 24.1136C37.6386 24.4063 39.7213 24.699 41.7297 24.9917C44.1844 25.3576 46.7134 25.577 49.1681 26.0161C54.8957 27.0405 60.6233 28.1381 66.2766 29.2356C66.946 29.382 67.6155 29.4552 68.285 29.382C71.8554 29.1625 75.2027 30.6259 79.0707 30.9917C78.55 31.5771 78.3269 32.0162 78.0294 32.2357C76.988 32.8942 75.8722 33.4796 74.7564 34.1382C74.4589 34.3577 74.3101 34.7235 73.715 35.6016C75.9466 34.5772 77.583 33.8455 79.2195 33.1137C82.0461 31.943 85.0215 30.9186 88.0713 30.6991C90.6747 30.5527 93.2782 30.2601 95.956 30.4796C101.386 31.065 106.891 31.3576 112.321 32.2357C116.114 32.821 119.833 34.065 123.701 34.504C126.379 34.8699 129.057 35.4553 131.809 35.9675C137.834 37.1382 144.083 37.2845 150.034 38.9675C150.108 38.9675 150.257 39.0407 150.331 38.9675C150.554 38.8211 150.852 38.6016 151.001 38.3821C151.075 38.3089 150.926 37.8699 150.777 37.7967C149.81 37.4309 148.843 37.065 147.876 36.9187C143.86 36.187 139.768 35.6016 135.752 34.943C131.958 34.2845 128.09 33.5528 124.296 32.821C123.701 32.6747 122.883 32.6747 122.809 31.6503C124.817 29.821 127.123 28.5039 129.801 27.7722C131.958 27.1137 134.264 26.7478 136.421 26.0161C137.983 25.5039 139.545 25.3575 141.107 25.4307C147.133 25.7234 153.232 25.8697 159.257 26.3819C162.307 26.6014 165.282 27.3332 168.332 27.9186C169.373 28.1381 169.745 27.7722 169.894 26.821C168.927 25.7966 167.811 25.7966 166.696 25.6502C163.646 25.2112 160.596 24.6258 157.546 24.4063C151.819 24.1136 146.166 23.8941 140.438 23.8941C138.653 23.8941 136.793 24.5526 135.38 22.8697C135.157 22.577 134.562 22.577 134.115 22.5038C130.694 21.7721 127.197 21.0404 123.701 20.3087C121.767 19.9428 119.908 19.6501 117.974 19.2843C117.527 19.2111 117.081 18.8453 116.337 18.4062C117.528 17.7477 118.42 17.1623 119.313 16.7233C124.148 14.6744 129.206 13.3574 134.562 13.211C136.867 13.1378 139.099 12.9183 141.405 12.8452C145.05 12.772 148.695 12.6257 152.339 12.772C155.612 12.9184 158.885 13.5037 162.158 13.8696C165.431 14.2354 168.704 14.6013 172.051 14.9672C172.944 15.0403 173.837 15.2598 174.729 15.333C175.473 15.4062 176.068 14.9671 175.994 14.5281C175.919 13.8696 175.324 13.6501 174.804 13.5769C174.506 13.5037 174.134 13.5037 173.762 13.5037C169.373 12.9915 164.91 12.5525 160.522 12.0403C154.348 11.3817 148.248 11.0159 142.074 11.3086C140.587 11.3817 139.099 11.4549 137.611 11.3817C137.091 11.3817 136.421 11.3086 135.975 11.0159C133.818 9.40609 131.437 8.52802 128.685 8.67436C128.462 8.67436 128.239 8.60123 128.016 8.52806C122.362 7.21096 116.635 6.25972 110.833 5.82069C102.502 5.16215 94.2451 5.01581 85.7653 5.60119C84.6496 4.35727 83.0875 3.69871 81.3767 3.25968C79.5914 2.82065 77.8062 2.30844 76.021 2.01575C72.5249 1.43038 69.0288 0.991359 65.5327 0.332813C63.2268 -0.106218 60.9953 -0.0330368 58.6894 0.113307C58.2431 0.113307 57.8711 0.625482 57.0529 1.13768C59.4332 1.28403 61.2185 1.3572 63.0037 1.50354C67.318 1.79623 71.5579 2.82063 75.7978 3.69869C77.8062 4.06455 79.7402 4.72313 81.7486 5.23533C82.2693 5.38167 82.7899 5.67435 82.5668 6.55241C81.823 6.8451 80.9303 7.13777 80.1121 7.35728C75.8722 8.74754 71.6323 10.0647 68.0618 12.772C67.3924 13.2842 66.6485 13.2842 65.7559 13.1379C63.3012 12.772 60.7722 12.333 58.3175 12.1134C51.3997 11.5281 44.4076 11.0159 37.4898 10.5037C36.2253 10.4305 35.2583 10.0646 34.5888 9.04022C33.7706 7.7963 32.5804 7.21094 31.1671 6.99142C29.2331 6.69874 27.3735 6.18654 25.4395 6.0402C23.0592 5.82068 20.6789 5.89387 18.2242 5.82069C17.3316 5.82069 16.3646 5.8207 15.472 5.96705C15.1 6.04022 14.7281 6.47925 13.9099 7.06462C15.1744 7.06462 15.9183 7.06462 16.5877 7.06462C20.0094 7.28414 23.4311 7.50364 26.8528 7.64999C28.7124 7.72316 30.4232 8.38171 32.0597 9.25977C32.3572 9.40612 32.5804 9.9183 32.9523 10.4305C31.1671 10.9427 29.6794 11.3086 28.1917 11.8208C23.8774 13.6501 19.7119 15.6989 16.2902 18.9916ZM121.842 21.5526C123.329 21.7721 124.668 22.2843 126.156 22.6502C128.611 23.2356 130.991 23.6746 133.446 24.26C133.743 24.9185 133.223 25.0649 132.851 25.2112C131.512 25.7234 130.098 26.3088 128.685 26.7478C125.784 27.7722 122.958 28.943 120.652 31.0649C119.759 31.943 118.718 32.1625 117.528 31.8698C117.081 31.7235 116.635 31.7966 116.189 31.6503C112.544 30.4796 108.825 30.26 105.105 29.8942C103.32 29.7478 101.46 29.382 99.6752 29.1624C94.9146 28.5771 90.154 28.6503 85.3934 29.4552C84.5008 29.6015 83.6082 29.6747 82.7156 29.5283C76.3929 28.7234 70.0702 27.7722 63.7475 26.8941C63.45 26.821 63.1524 26.6746 62.7061 26.5283C62.7061 25.2112 63.5244 24.9917 64.1938 24.6258C68.4337 22.138 73.0456 20.6014 77.8062 19.3575C83.0875 18.0404 88.3688 17.9672 93.7245 18.333C98.1875 18.6257 102.576 18.9916 107.039 19.4306C109.643 19.7233 112.246 20.1623 114.775 20.5282C117.156 20.8941 119.536 21.1136 121.842 21.5526ZM71.5579 12.4061C74.1614 11.0159 76.8392 9.91831 79.7402 9.11342C83.0131 8.16219 86.286 7.21094 89.7821 6.99142C91.3442 6.84508 92.9806 6.69874 94.5427 6.62556C101.981 6.25971 109.345 7.50362 116.709 7.94265C117.156 7.94265 117.602 8.01583 118.048 8.089C122.437 8.96706 126.751 9.84513 131.14 10.7964C131.437 10.8695 131.735 11.0891 132.702 11.6744C125.561 12.4793 119.61 14.6745 113.957 17.6013C112.99 18.1135 112.097 18.4062 111.056 18.2599C109.122 18.0404 107.188 17.8209 105.254 17.6745C100.27 17.3087 95.2122 16.9428 90.2284 16.5769C89.7821 16.5769 89.3358 16.6501 88.8895 16.5769C85.9141 16.0647 83.0131 16.3574 80.1121 17.0891C77.2111 15.1866 73.8638 14.8208 70.814 13.5769C70.5165 12.8452 71.1116 12.6988 71.5579 12.4061ZM40.5396 12.2598C47.3829 12.772 54.1519 13.2842 60.9209 14.0159C64.6401 14.3818 68.3593 15.1867 72.0042 15.8452C73.4175 16.0647 74.9052 16.5038 76.3929 17.7477C75.649 18.1135 75.2771 18.4062 74.9052 18.5525C71.3347 19.6501 67.8387 21.1136 64.4914 22.7965C63.3012 23.3819 62.0367 23.8941 61.2184 25.0648C60.4746 26.1624 59.4332 26.1624 58.1687 25.9429C54.3751 25.2112 50.5815 24.4795 46.7135 23.9673C38.6055 22.9429 30.4976 21.4063 22.3153 20.8209C20.8277 20.7477 19.4143 20.3087 18.0754 20.0892C17.7035 19.2111 18.2242 18.9184 18.6705 18.6257C25.2907 14.0159 32.4316 11.6744 40.5396 12.2598Z" fill="black"/>
</svg>
