<svg width="353" height="99" viewBox="0 0 353 99" fill="none" xmlns="http://www.w3.org/2000/svg">
<path fill-rule="evenodd" clip-rule="evenodd" d="M338.4 17.8453C330.356 16.8758 322.385 15.3097 314.192 15.3843C313.596 15.3843 313.074 15.2351 312.478 15.1606C309.648 14.7877 306.817 14.2656 303.987 14.1911C299.517 14.1165 295.048 14.4148 290.653 14.6385C289.312 14.7131 288.27 14.5639 287.227 13.669C283.8 10.9097 279.927 9.04527 275.607 8.00119C270.914 6.88254 266.37 5.46555 261.752 4.19774C259.666 3.60113 257.581 3.00453 255.42 2.63164C249.089 1.66215 242.757 0.8418 236.426 0.0214538C235.681 -0.0531231 234.936 0.0214447 234.34 0.990944C235.606 1.21467 236.724 1.36384 237.841 1.51299C243.502 2.40791 249.163 3.30282 254.75 4.19774C256.91 4.57063 258.996 4.94352 261.081 5.46556C265.923 6.73337 270.765 8.15034 275.607 9.49273C278.735 10.3877 281.64 11.5809 284.173 13.669C284.545 14.0419 285.141 14.3402 284.769 15.0114C280.523 15.7572 276.203 16.2046 272.255 18.2928C271.659 18.5911 270.914 18.7402 270.318 18.964C266.221 20.3809 262.124 21.8725 258.027 23.2895C255.048 24.3335 252.441 25.8996 249.983 27.8386C249.163 28.4352 248.418 29.1064 247.599 29.7776C244.247 29.1064 240.895 28.3607 237.469 27.8386C232.925 27.1674 228.381 26.8691 223.837 26.2725C216.91 25.303 209.982 24.781 202.981 24.2589C200.373 24.0352 197.692 23.8861 195.085 24.0352C191.658 24.259 188.306 24.9301 185.103 25.303C183.39 24.4826 181.9 23.6623 180.336 22.9911C178.697 22.2454 176.984 21.5742 175.271 20.903C170.206 18.8148 165.141 16.8012 159.703 15.608C156.053 14.7877 152.403 13.669 148.753 12.7741C143.762 11.5809 138.623 10.9097 133.558 10.0893C127.449 9.11983 121.267 9.19439 115.084 8.67235C111.881 8.44862 108.678 8.74696 105.55 9.49273C105.326 9.5673 105.103 9.49273 104.88 9.49273C99.9633 6.65881 94.7491 4.79437 89.1625 3.7503C86.5554 3.30284 83.9483 2.85537 81.4157 2.48248C78.8086 2.03502 76.2015 1.58755 73.6689 1.21467C66.2946 0.170589 58.8457 -0.0531413 51.3969 0.0960125C50.95 0.0960125 50.5776 0.245185 49.6837 0.394338C50.4286 0.8418 50.801 1.21467 51.1735 1.21467C52.2163 1.36382 53.2591 1.36383 54.2275 1.36383C61.6763 1.1401 69.1251 1.96043 76.425 3.07909C82.3096 3.97401 88.0452 5.46555 93.8552 6.80793C95.9409 7.32997 97.9521 8.2995 99.9633 9.11984C100.41 9.34357 100.783 9.79101 101.155 10.1639C100.857 10.4622 100.708 10.6859 100.559 10.7605C96.9837 12.0283 93.4828 13.4453 89.9074 14.5639C86.6299 15.6826 83.7993 17.6216 80.7453 19.1131C80.6708 19.1877 80.5963 19.2623 80.5218 19.4114C80.4473 19.7098 80.2239 20.0826 80.3729 20.3064C80.4474 20.5301 80.9688 20.6792 81.1922 20.6047C82.0116 20.2318 82.7565 19.7097 83.5759 19.3368C91.0992 15.1605 99.2184 12.9232 107.412 10.9097C109.87 10.313 112.403 10.2385 114.935 10.4622C117.766 10.6114 120.597 10.9843 123.502 10.9843C131.397 11.1334 139.219 12.4012 146.965 14.0419C150.094 14.7131 153.073 15.9063 156.276 16.5029C162.533 17.6216 168.344 20.0826 174.154 22.3199C176.09 23.0657 177.953 23.886 179.815 24.7064C180.411 24.9301 181.156 25.2285 180.783 26.2725C179.442 26.72 178.101 27.3912 176.686 27.7641C171.398 28.9573 166.481 31.1945 161.491 33.2081C160.15 33.7302 158.735 34.4014 157.468 35.2218C152.999 38.1303 148.157 40.5167 144.433 44.0964C138.325 43.4252 132.589 42.754 126.779 42.232C122.31 41.8591 117.84 41.7099 113.446 41.6353C110.168 41.5608 106.816 41.7099 103.464 41.7845C102.347 41.7845 101.528 41.4862 100.708 40.7405C99.6653 39.8455 98.548 38.9506 97.2817 38.5032C93.7063 37.3845 90.0564 36.415 86.3319 35.5201C84.3208 34.998 82.3096 34.7743 80.2984 34.4014C75.4566 33.4319 70.6894 32.3878 65.9221 31.3437C61.0059 30.2997 56.0897 29.181 51.1735 28.0623C47.5235 27.242 43.7991 26.2725 40.1492 25.6013C34.4881 24.6318 28.9015 23.6623 23.0914 23.7369C21.5271 23.7369 19.8884 23.5132 18.3241 23.364C17.4303 23.2894 16.4619 23.2149 15.6425 23.7369C15.2701 23.9606 14.8232 24.1098 15.1211 24.8555C15.9405 24.781 16.8344 24.6318 17.7282 24.6318C26.4434 25.1539 35.0095 26.1234 43.5756 27.9878C46.3317 28.5844 49.0878 29.3302 51.9183 29.8522C56.8346 30.8963 61.8998 31.5674 66.667 32.8352C71.5088 34.1776 76.574 34.6997 81.4157 35.9675C84.3952 36.7879 87.4493 37.2353 90.4288 37.9811C92.5145 38.5031 94.6001 39.2489 96.6113 39.9947C97.4307 40.293 98.399 40.6659 98.4735 41.8591C97.4307 42.6049 96.1644 42.5303 94.8981 42.8286C90.4288 43.8726 85.9595 44.7676 81.5647 46.11C77.1699 47.4523 72.9985 49.2422 68.6782 50.8083C67.2629 51.3304 65.8476 51.8524 64.5814 52.449C60.261 54.5372 55.9407 56.6999 52.1418 59.6084C50.801 60.5779 49.5347 60.6524 47.9705 60.4287C42.4583 59.8321 37.2442 58.1915 31.8065 57.1474C25.4005 55.8796 19.069 54.5372 12.514 54.3134C9.68349 54.2388 6.85294 54.4626 4.02239 53.866C3.05404 53.6423 1.93671 53.7914 0.968361 53.7914C0.59592 53.7914 0 53.6422 0 54.388C0.297953 54.5371 0.521423 54.7608 0.819376 54.8354C4.32032 55.2083 7.89577 55.5812 11.3967 55.805C15.4191 56.0287 19.367 56.327 23.3148 57.0727C28.827 58.1914 34.2646 59.3847 39.7768 60.5779C40.8941 60.8016 42.0114 60.9507 43.1287 61.1745C45.3634 61.6219 47.598 61.9949 49.8327 62.4423C51.0245 62.7406 52.2163 63.2626 53.4826 63.4118C58.9947 63.9338 64.3579 64.9779 69.6465 66.2457C74.4883 67.439 79.4045 68.7068 84.2463 69.9746C85.2146 70.1983 86.2574 70.3474 86.9278 71.5407C86.183 71.839 85.587 72.1373 84.9911 72.361C82.0116 73.4796 78.9576 74.4492 75.9781 75.6424C74.1903 76.3136 72.4026 77.0593 71.2108 78.7C72.1792 79.1475 72.7751 78.4018 73.5199 78.1035C75.5311 77.2831 77.4678 76.3136 79.5535 75.6424C82.1606 74.7475 84.7677 73.9271 87.3748 73.1068C88.1197 72.883 88.939 72.5102 89.6839 72.5848C92.7379 72.8085 95.7919 72.361 98.846 72.7339C101.006 73.0322 103.166 72.883 105.326 73.1068C112.701 73.778 120.001 75.2695 127.375 75.9407C128.269 76.0153 129.163 76.3136 130.057 76.5374C133.036 77.5069 136.016 77.9543 139.144 78.4018C142.198 78.7747 145.252 79.2966 148.306 79.8187C149.647 80.0424 150.913 80.5645 152.329 80.7882C155.159 81.2357 157.99 81.4594 160.82 81.9814C165.885 82.8764 170.951 83.8459 176.016 84.7408C176.612 84.89 177.431 84.89 177.506 85.8595C175.792 86.4561 174.079 86.9781 172.291 87.5747C167.524 89.2154 162.906 91.3035 158.809 94.2866C158.139 94.7341 157.915 95.2561 158.511 96.151C158.958 96.0019 159.479 95.8528 159.926 95.5545C162.31 94.2121 164.545 92.5714 167.077 91.4528C173.856 88.2459 181.081 86.5306 188.53 86.0086C193.595 85.7103 198.586 85.8595 203.502 87.1273C206.258 87.873 209.089 88.2459 211.919 88.6934C215.942 89.3645 220.038 89.9612 224.135 90.5578C228.232 91.1544 232.254 91.6765 236.351 92.2731C239.629 92.7205 242.981 93.0934 246.184 93.7646C254.601 95.5545 263.093 96.5239 271.584 97.7171C273.744 98.0154 275.83 98.6121 277.916 98.985C278.214 99.0596 278.512 98.8358 278.884 98.7612C278.437 97.4934 277.32 97.3443 276.352 97.1951C273.223 96.6731 270.02 96.2256 266.892 95.7782C261.677 95.0324 256.463 94.3612 251.249 93.5408C249.312 93.2425 247.45 92.6459 245.513 92.4222C237.543 91.4527 229.722 89.8866 221.826 88.6934C221.305 88.6188 220.858 88.2459 220.187 87.9476C220.858 87.351 221.23 86.9035 221.752 86.6798C224.433 85.1137 227.04 83.5476 229.871 82.2052C232.106 81.0865 234.489 80.3407 236.873 79.3712C239.107 78.4763 241.193 77.2831 243.502 76.5374C248.865 74.8221 254.154 73.1068 259.815 72.8085C260.634 72.734 261.454 72.6593 262.199 72.361C264.806 71.4661 267.636 72.2119 270.243 71.0932C270.541 70.9441 270.914 71.0186 271.286 71.0932C274.266 71.6898 277.245 71.3915 280.15 71.4661C285.663 71.6898 291.1 71.839 296.538 72.4356C300.635 72.8831 304.657 73.3305 308.754 73.8525C314.341 74.5237 319.853 75.1203 325.439 75.717C328.195 76.0153 330.877 76.2391 333.633 76.5374C335.123 76.6865 336.613 76.8357 338.028 76.9848C341.007 77.3577 343.912 77.8051 346.817 78.2526C347.339 78.3272 348.009 78.3272 348.233 77.3577C347.488 77.134 346.743 76.9102 345.998 76.761C338.177 75.7915 330.356 74.7475 322.534 73.8525C317.097 73.2559 311.584 72.7339 306.147 72.2119C300.933 71.6898 295.718 70.8695 290.504 70.4966C284.024 70.0491 277.469 69.9 270.988 69.8255C269.126 69.8255 267.711 69.3034 266.221 68.483C262.72 66.544 259.294 64.4559 255.346 63.4864C251.696 62.5915 248.046 61.5474 244.396 60.5779C243.8 60.4287 243.279 60.0559 242.534 59.7576C242.906 59.161 243.13 58.788 243.502 58.4897C244.098 57.9677 244.768 57.5202 245.439 57.0727C252.068 52.7473 258.996 49.0185 266.668 46.7812C269.722 45.8862 272.776 44.8422 275.905 44.0964C280.672 43.0523 285.588 42.3811 290.504 41.9337C295.793 41.4116 301.007 41.4116 306.296 41.6353C308.233 41.7099 310.169 42.1574 312.106 42.1574C317.618 42.2319 323.056 43.0523 328.419 44.2455C334.229 45.5879 340.039 46.8558 345.775 48.2727C347.19 48.6456 348.605 49.1676 350.02 49.5405C350.616 49.6896 351.138 49.5405 351.138 48.571C350.467 48.2727 349.797 47.8252 349.052 47.6015C345.998 46.7812 342.87 45.8862 339.741 45.1404C335.644 44.1709 331.473 43.3506 327.376 42.4557C325.588 42.0828 323.801 41.71 322.013 41.4862C318.288 41.1133 314.49 40.8896 310.765 40.5913C300.635 39.8455 290.43 39.771 280.374 41.4862C279.48 41.6354 278.661 41.5608 277.841 40.9641C276.649 40.1438 275.309 39.3235 273.968 38.876C267.189 36.415 260.486 33.8794 253.558 31.8658C252.515 31.5675 251.323 31.4183 250.728 30.2997C251.1 28.9573 252.068 28.4353 253.037 27.7641C256.687 25.2285 260.784 23.886 264.88 22.4691C267.562 21.4996 270.318 20.7538 273 19.7843C276.798 18.2928 280.672 17.3979 284.62 16.9504C286.333 16.7267 288.046 16.8013 289.759 16.5775C293.707 16.0555 297.73 16.0555 301.752 15.9063C306.445 15.7572 311.138 16.1301 315.83 16.5775C321.044 17.0996 326.333 17.547 331.547 18.2928C338.102 19.1877 344.657 20.3809 351.212 21.4996C351.585 21.5742 352.032 21.425 353 21.3504C352.255 20.8284 351.957 20.4555 351.585 20.3809C346.892 19.5606 342.721 18.2928 338.4 17.8453ZM133.334 74.5237C132.738 75.1949 132.068 75.4933 131.174 75.4187C130.354 75.3441 129.535 75.3441 128.79 75.1204C123.204 73.778 117.543 73.1814 111.881 72.4356C106.891 71.7645 101.9 71.3169 96.8348 71.2423C93.6318 71.1678 90.4288 71.2424 87.5982 69.4526C77.3933 66.7678 67.3374 63.8593 56.9091 62.3678C55.6428 62.2186 54.3764 62.144 52.9612 61.0999C55.1958 59.3101 57.4305 58.1914 59.5906 56.9236C63.5385 54.6117 67.5609 52.5236 72.1047 51.4049C74.6373 50.7337 77.0209 49.6151 79.479 48.7202C80.8943 48.1981 82.2351 47.6761 83.7248 47.3032C91.1737 45.2896 98.6225 43.7981 106.369 43.3507C111.062 43.1269 115.755 42.9032 120.373 43.4998C121.416 43.6489 122.459 43.7235 123.427 43.7235C128.492 43.4998 133.409 44.5438 138.399 45.1404C146.518 46.1099 154.265 48.4218 162.087 50.5846C165.364 51.4795 168.716 52.3744 171.993 53.2693C173.185 53.5676 174.377 53.9405 175.345 54.7609C175.345 55.5812 174.75 55.4321 174.377 55.5066C172.44 55.5812 170.578 56.1032 168.716 56.6998C166.034 57.5948 163.204 58.1915 160.448 59.0118C153.744 61.0254 147.487 64.2322 141.528 67.961C138.623 69.7509 135.643 71.7644 133.334 74.5237ZM253.409 65.0525C253.931 65.2762 254.452 65.4254 255.048 65.5745C258.325 66.2457 261.007 68.2593 263.986 69.8255C264.135 69.9 264.21 70.1983 264.433 70.5712C263.54 70.795 262.646 71.0932 261.826 71.2423C253.707 72.2118 245.886 74.1509 238.363 77.3577C234.787 78.9238 231.137 80.2662 227.636 81.9069C224.955 83.1747 222.348 84.6663 220.113 86.6053C218.623 87.8731 217.059 88.3205 215.048 87.9476C211.919 87.2764 208.716 87.0527 205.588 86.2324C199.852 84.7408 194.116 84.2933 188.232 84.5916C184.656 84.8154 181.156 84.2934 177.655 83.6222C170.355 82.2052 163.055 80.7882 155.681 80.0424C153.222 79.8187 150.764 79.0729 148.306 78.6255C145.923 78.178 143.613 77.8051 141.23 77.5068C138.846 77.2831 136.537 76.6865 134.302 75.7916C134.6 74.1509 135.718 73.6289 136.686 72.8831C143.464 67.7373 150.988 64.0084 158.958 61.0253C163.651 59.2355 168.641 58.4151 173.483 57.0727C174.228 56.849 175.047 56.7745 175.867 56.7745C178.399 56.8491 180.858 56.7744 183.39 56.2524C184.061 56.1032 184.731 56.1033 185.476 56.1778C189.722 56.4016 193.967 56.327 198.139 56.8491C203.8 57.5948 209.536 57.5948 215.197 58.1168C218.251 58.4151 221.305 58.8626 224.359 59.31C227.04 59.6829 229.796 60.0559 232.478 60.5033C234.638 60.8762 236.724 61.2491 238.884 61.622C239.554 61.7711 240.225 61.9203 240.895 61.9949C245.215 62.2932 249.387 63.3372 253.409 65.0525ZM258.474 34.998C262.795 36.4149 267.04 38.2048 271.286 39.92C272.478 40.4421 273.968 40.6658 274.787 42.1574C273.074 43.2014 271.212 43.6489 269.424 44.3201C265.774 45.7371 262.05 46.8558 258.474 48.1982C255.718 49.2422 253.186 50.8829 250.579 52.2252C249.61 52.7473 248.642 53.3439 247.599 53.9405C244.694 55.7304 241.715 57.3711 239.182 59.9067C237.767 59.683 236.426 59.3847 235.085 59.1609C228.754 58.1914 222.422 57.2219 216.165 56.2524C215.569 56.1778 215.048 56.2524 214.452 56.2524C208.046 55.9541 201.714 55.6558 195.308 54.9101C191.137 54.4626 186.891 54.4625 182.645 54.4625C180.858 54.4625 179.219 54.2389 177.729 53.4185C175.569 52.2253 173.26 51.7032 170.951 51.1066C164.545 49.4659 158.139 47.7507 151.733 46.11C150.541 45.8117 149.349 45.3642 147.71 44.7675C148.381 43.8726 148.753 43.276 149.2 42.8286C151.137 41.2624 152.999 39.5472 155.383 38.5032C156.872 37.832 158.213 37.0115 159.554 36.1912C162.831 34.2522 166.258 32.7607 169.833 31.5675C175.196 29.703 180.634 27.6895 186.221 26.6454C190.243 25.8996 194.414 25.5267 198.511 25.6759C205.662 25.9742 212.888 26.7946 220.038 27.3912C220.411 27.3912 220.709 27.5403 221.081 27.5403C225.104 27.242 229.051 28.2115 232.999 28.5098C235.83 28.7336 238.66 29.1064 241.417 29.8522C247.078 31.4929 252.813 33.1336 258.474 34.998Z" fill="black"/>
</svg>
