<svg width="101" height="73" viewBox="0 0 101 73" fill="none" xmlns="http://www.w3.org/2000/svg">
<path d="M100.993 39.0644C100.701 25.9307 91.9527 14.9118 80.5848 9.08783C66.0117 1.62172 48.5108 2.23195 32.8763 5.45861C32.7865 5.47714 32.7048 5.50321 32.6278 5.53333C28.2939 3.49064 23.6849 1.97622 19.0698 0.863788C17.5655 0.501184 15.9184 -0.0409854 14.3571 0.00245762C12.843 0.0444525 11.6677 0.853651 10.6691 1.93306C8.4416 4.34125 6.78093 7.19777 5.54628 10.2217C5.00034 11.5592 6.89187 12.2128 7.71931 11.2681C11.0505 12.0515 14.3003 13.0733 17.4346 14.3572C12.3535 16.792 8.30145 21.5432 5.54861 26.2953C2.1114 32.2293 0.254936 39.0623 0.0217916 45.9052C-0.223517 53.0973 1.58137 60.4734 6.49709 65.9104C11.6355 71.5936 18.8398 72.6936 26.1475 72.8254C33.0158 72.9493 42.1487 72.4555 46.9217 66.7074C46.9248 66.7034 46.9269 66.6987 46.9304 66.6947C51.4904 68.5494 56.5834 69.3485 61.383 69.7073C68.2652 70.2223 75.325 69.3942 81.7126 66.699C92.812 62.0162 101.269 51.4363 100.993 39.0644ZM12.2907 3.88974C13.3229 2.74342 14.1674 2.38951 15.6986 2.68347C16.105 2.76138 16.5101 2.84768 16.9147 2.93776C16.9237 3.18277 17.0769 3.39536 17.3263 3.47413C17.4569 3.51555 17.5872 3.56073 17.719 3.59838C17.8769 3.64356 18.0411 3.64211 18.2038 3.64848C18.3851 3.65572 18.5728 3.5196 18.6357 3.34641C19.0472 3.44951 19.4582 3.55407 19.8677 3.66007C25.036 4.99898 30.1023 6.80766 34.7765 9.41018C38.7648 11.631 42.4934 14.5069 45.559 17.936C45.1611 18.0692 44.848 18.5338 45.137 18.9474C45.4246 19.3586 45.7056 19.7757 46.0108 20.1742C46.3033 20.5556 46.6961 21.0387 47.2298 20.9927C47.4589 20.973 47.626 20.8525 47.701 20.6338C47.7065 20.6179 47.7071 20.6023 47.7115 20.5863C50.0348 23.7551 51.7971 27.3127 52.7422 31.1966C54.2806 37.5192 53.51 44.0945 52.8563 50.4835C50.5367 49.6946 48.459 48.4825 47.0425 46.4245C47.0569 46.3773 47.0737 46.333 47.083 46.28C48.5027 38.1738 42.9843 30.8919 37.5965 25.4603C32.1826 20.0027 25.694 15.8745 18.5468 13.0794C15.1738 11.7602 11.7468 10.8357 8.19719 10.3274C9.21897 7.99713 10.5888 5.77922 12.2907 3.88974ZM65.219 20.8759C65.51 21.167 66.0693 21.2047 66.3555 20.8759C66.5712 20.6286 66.6775 20.5539 66.9486 20.4128C67.2234 20.2695 67.4798 20.1568 67.6576 19.8713C70.1999 21.1088 72.6324 22.5737 74.9152 24.2512C71.407 24.2129 67.6443 25.31 64.6696 26.3761C61.5947 27.4781 57.4694 28.8052 55.1385 31.45C54.5013 28.1903 53.2698 25.0809 51.619 22.2076C51.6216 22.2053 51.6245 22.2039 51.6271 22.2015C52.9808 20.993 54.1969 19.8837 55.8556 19.0838C57.4902 18.2957 59.2331 17.8187 60.9506 17.256C60.97 17.2496 60.9853 17.2398 61.0039 17.2328C62.6837 17.7562 64.3348 18.3713 65.9462 19.078C65.6549 19.2683 65.3968 19.5124 65.219 19.7398C64.9514 20.0806 64.8859 20.5432 65.219 20.8759ZM54.3672 50.8351C55.2514 45.544 56.0557 40.1473 55.5987 34.789C55.6902 34.7041 55.7757 34.6019 55.8472 34.4672C57.7263 30.9313 62.4598 29.4768 66.014 28.2592C68.0045 27.5775 70.0551 27.0075 72.1345 26.6738C73.9927 26.3755 75.8098 26.4395 77.6515 26.423C78.5548 27.1986 79.4301 28.0093 80.2717 28.8561C84.3918 33.0006 90.9688 40.765 87.1001 46.916C85.4591 49.5249 82.3642 50.7465 79.4932 51.4332C75.9251 52.2867 72.1586 52.5091 68.5004 52.5242C64.0408 52.5424 59.5077 52.1378 55.1579 51.1317C54.8839 51.0682 54.6119 50.9999 54.3412 50.9286C54.3504 50.8985 54.3614 50.869 54.3672 50.8351ZM50.7163 20.7187C50.0047 19.6115 49.2325 18.5439 48.41 17.5213C47.7401 16.6886 47.0378 15.891 46.3074 15.1261C50.1249 15.0488 53.9328 15.4583 57.6347 16.3173C54.9769 17.2186 52.1985 18.5355 50.7163 20.7187ZM35.0218 49.9578C35.1037 52.3646 35.4038 54.8087 36.2608 57.057C33.5268 59.4875 29.808 60.5521 26.195 59.9216C21.9223 59.1759 18.9386 56.2339 17.3645 52.2745C14.4339 44.9019 15.6459 36.2698 19.5688 29.5037C21.7818 25.6865 24.786 22.799 28.3284 20.2646C29.1344 20.8264 29.9305 21.4068 30.7102 22.0168C33.8917 24.5055 36.8371 27.3394 39.3745 30.4905C35.9381 36.0978 34.8025 43.5329 35.0218 49.9578ZM43.9441 66.1114C43.9403 66.1091 43.9377 66.1056 43.934 66.1033C42.0494 64.97 39.5019 66.706 38.1557 68.0026C37.7928 68.3522 38.2826 69.0316 38.7086 68.7191C39.543 68.1066 40.4449 67.6916 41.4453 67.4225C41.6599 67.3649 41.8727 67.3194 42.0833 67.2768C40.7018 68.0611 39.2496 68.702 37.6292 69.1544C34.8596 69.9274 31.9938 70.2214 29.1274 70.312C29.2551 70.2153 29.1804 69.9749 28.9997 69.9625C27.2368 69.8417 25.4261 70.0911 23.6655 70.2072C23.58 70.2127 23.5166 70.2489 23.4662 70.2958C18.4489 70.0496 13.4856 68.9948 9.62443 65.5408C-0.323434 56.6428 0.951475 40.2608 6.24544 29.2066C7.69614 26.1774 9.53608 23.3276 11.8122 20.8513C13.9406 18.5355 16.4151 16.7434 19.0136 15.0294C21.7812 16.2571 24.4498 17.7011 27.0005 19.3685C19.6157 23.4133 14.839 32.044 13.7454 40.1542C12.5982 48.6627 15.3534 59.8081 24.7956 62.1424C29.1129 63.21 34.0362 62.3269 37.3576 59.2943C38.7657 61.5922 40.8208 63.4159 43.1146 64.8011C43.607 65.0983 44.1132 65.3726 44.6256 65.6364C44.3991 65.8003 44.1717 65.9559 43.9441 66.1114ZM95.7661 50.3451C93.3498 55.1918 89.4437 59.1802 84.8425 61.9959C74.4275 68.3693 60.4116 68.6844 49.0197 64.8568C46.2773 63.9355 43.5635 62.6221 41.4339 60.6292C38.8922 58.2508 37.717 55.1649 37.3506 51.7462C36.9558 48.0611 37.1395 44.2874 37.8085 40.6454C38.3689 37.5954 39.3985 34.727 40.4183 31.8294C41.6929 33.5404 42.8832 35.4296 43.7477 37.4318C43.5679 37.3458 43.3272 37.3655 43.216 37.5685C42.6796 38.5503 41.9538 39.9399 42.3848 41.0682C42.4714 41.295 42.7731 41.3605 42.9107 41.1369C43.2113 40.6492 43.2806 40.125 43.3967 39.575C43.5195 38.9928 43.706 38.4318 43.9366 37.8839C44.3009 38.7878 44.5957 39.7131 44.7999 40.6544C44.7264 40.6674 44.6583 40.7129 44.6151 40.8056C44.0634 41.9843 43.8135 43.1257 43.7657 44.4229C43.761 44.5498 43.9626 44.5802 43.9896 44.4533C44.201 43.4608 44.5474 42.4509 44.9595 41.5108C45.1718 42.8789 45.1831 44.2761 44.9259 45.6851C44.8002 46.3735 45.2526 46.8659 45.7771 47.028C46.9666 49.4675 49.4243 51.001 51.9121 52.0063C55.7305 53.5491 60.0325 54.1953 64.1126 54.5512C68.5742 54.9405 73.0636 54.8275 77.4986 54.2028C80.7722 53.7417 84.1515 52.8453 86.7974 50.7749C93.4781 45.5475 90.0226 36.8905 85.738 31.3515C81.2596 25.562 75.3904 20.8655 68.8207 17.6502C61.2883 13.9636 52.8873 12.165 44.5048 12.6638C44.2795 12.6771 44.0886 12.7411 43.9258 12.8352C41.6523 10.8241 39.1622 9.08031 36.5278 7.5653C48.8763 5.32886 62.1201 4.96828 74.0142 9.23728C85.0556 13.2001 94.7437 21.682 97.5009 33.4191C98.8282 39.0693 98.3712 45.1194 95.7661 50.3451Z" fill="#DEDEDE"/>
<path d="M47.0483 8.82215C46.1299 8.37324 44.9746 8.7425 44.0227 8.91396C43.6184 8.98665 43.3982 9.47408 43.4955 9.84248C43.6088 10.272 44.0235 10.4342 44.4241 10.3696C45.3123 10.2262 46.4659 10.1868 47.1364 9.50449C47.32 9.31711 47.3046 8.94755 47.0483 8.82215Z" fill="#DEDEDE"/>
<path d="M61.3469 7.72442C60.5588 7.5715 59.7595 7.50808 58.9572 7.51995C58.2036 7.53125 58.2155 8.63499 58.9572 8.6822C59.7444 8.7323 60.5029 8.869 61.2594 9.09172C61.8827 9.27505 62.3684 9.54208 62.9911 9.27707C63.2364 9.17281 63.2413 8.85452 63.1547 8.65294C62.8738 7.99869 61.9838 7.84809 61.3469 7.72442Z" fill="#DEDEDE"/>
<path d="M53.4206 9.79005C52.9329 9.62496 52.7374 10.3797 53.2098 10.5546C53.9153 10.8159 54.7285 11.2633 55.4931 11.2263C55.7222 11.2153 55.8853 10.9164 55.6927 10.7443C55.0935 10.2085 54.1693 10.0432 53.4206 9.79005Z" fill="#DEDEDE"/>
<path d="M77.5694 16.6338C76.8286 16.1264 76.0863 15.6213 75.3446 15.1147C74.9759 14.863 74.6521 15.4486 74.9993 15.7055C75.6834 16.2115 76.3678 16.7172 77.0519 17.2231C77.6488 17.6645 78.279 18.2722 79.0062 18.461C79.2324 18.5198 79.467 18.258 79.3251 18.0462C78.9159 17.4343 78.1692 17.0445 77.5694 16.6338Z" fill="#DEDEDE"/>
<path d="M68.3627 13.9466C67.8451 13.6634 67.3276 13.3798 66.8098 13.0966C66.2453 12.7876 65.7553 13.6243 66.3056 13.9594C66.8095 14.2661 67.3134 14.5731 67.8174 14.8798C68.2747 15.1584 68.7103 15.4689 69.262 15.4703C69.551 15.4709 69.7344 15.1471 69.5901 14.8983C69.3147 14.4233 68.8304 14.2026 68.3627 13.9466Z" fill="#DEDEDE"/>
<path d="M76.8722 13.2851C75.7994 12.012 74.3901 11.0791 73.068 10.0854C72.6382 9.76248 72.0633 10.499 72.4888 10.8358C73.786 11.8625 75.045 12.9886 76.5495 13.7028C76.8258 13.834 77.0706 13.5203 76.8722 13.2851Z" fill="#DEDEDE"/>
<path d="M91.0633 28.6205C90.7774 27.0377 89.8411 25.7956 88.6919 24.7069C88.2609 24.2988 87.6168 24.9389 88.0391 25.3597C89.0603 26.3771 89.7965 27.6239 90.577 28.8256C90.7461 29.0859 91.1166 28.9148 91.0633 28.6205Z" fill="#DEDEDE"/>
<path d="M80.1082 22.4591C79.7218 22.2182 79.2634 22.7896 79.6147 23.0989C80.2041 23.6176 80.7005 24.2226 81.09 24.9058C81.4364 25.5132 81.6351 26.221 82.1321 26.7284C82.3195 26.9196 82.6632 26.8304 82.731 26.5703C83.1643 24.9119 81.3573 23.2376 80.1082 22.4591Z" fill="#DEDEDE"/>
<path d="M82.0088 19.2157C82.7621 20.1248 83.1901 21.2152 83.8699 22.166C84.0555 22.4258 84.5137 22.3577 84.5073 21.9934C84.4833 20.6403 83.6306 19.4311 82.7844 18.44C82.3233 17.8999 81.563 18.6775 82.0088 19.2157Z" fill="#DEDEDE"/>
<path d="M92.1932 36.3929C92.0281 35.6051 90.8311 35.9399 90.9889 36.7248C91.1375 37.4639 91.2861 38.203 91.4349 38.9418C91.565 39.5883 91.6533 40.1834 92.0721 40.7048C92.2841 40.9689 92.7171 40.8012 92.7982 40.513C92.9795 39.8701 92.7906 39.2445 92.6568 38.605C92.5022 37.8676 92.3475 37.1303 92.1932 36.3929Z" fill="#DEDEDE"/>
<path d="M93.7758 38.2224C94.6024 40.4569 94.8057 42.8535 94.9847 45.211C95.0087 45.5295 95.4324 45.593 95.5393 45.286C96.4194 42.7614 96.0111 40.3089 95.0116 37.8818C94.7052 37.1378 93.4853 37.437 93.7758 38.2224Z" fill="#DEDEDE"/>
<path d="M84.725 53.3049C84.3656 53.9713 83.9506 54.5934 83.4556 55.1671C83.0047 55.6899 82.4744 56.2048 82.1515 56.8185C81.9896 57.1258 82.2569 57.5003 82.6053 57.4088C84.1246 57.01 85.2093 55.2908 85.8974 53.9898C86.3055 53.2189 85.1412 52.5339 84.725 53.3049Z" fill="#DEDEDE"/>
<path d="M76.7844 56.5943C75.4081 57.0183 73.9745 57.3725 72.8053 58.257C72.5971 58.4145 72.6544 58.7514 72.9423 58.763C74.4005 58.8217 75.7693 58.2999 77.1337 57.8617C77.9348 57.6042 77.5971 56.3438 76.7844 56.5943Z" fill="#DEDEDE"/>
<path d="M69.8772 62.9393C68.5936 63.2567 67.2807 63.3752 65.9641 63.432C65.7886 63.4395 65.733 63.7126 65.9207 63.752C67.3187 64.0459 68.6767 63.9263 70.0417 63.5362C70.4251 63.4267 70.2647 62.8434 69.8772 62.9393Z" fill="#DEDEDE"/>
<path d="M61.5174 60.26C60.4076 59.5757 58.9954 59.4647 57.7923 58.9657C57.3646 58.7885 57.0764 59.4954 57.4787 59.7101C58.6525 60.3368 60.089 61.0959 61.4517 60.766C61.6898 60.7087 61.7141 60.3814 61.5174 60.26Z" fill="#DEDEDE"/>
<path d="M68.8984 57.2402C69.1162 57.2028 69.0713 56.9033 68.8984 56.8422C68.4107 56.6699 67.8934 56.4562 67.3831 56.3678C66.827 56.2714 66.2411 56.2676 65.6793 56.2201C64.9688 56.1602 64.9729 57.2683 65.6793 57.3279C66.2287 57.3743 66.8308 57.4942 67.3831 57.4678C67.8847 57.4441 68.4052 57.325 68.8984 57.2402Z" fill="#DEDEDE"/>
<path d="M48.3437 57.0584C47.7074 56.7039 47.1328 56.2399 46.4956 55.8944C45.9914 55.621 45.3455 56.1872 45.6783 56.7117C46.1258 57.4164 46.8556 57.9669 47.5739 58.375C48.249 58.7585 49.0506 59.1833 49.8141 58.8372C50.0574 58.7269 50.1011 58.3866 49.9876 58.176C49.6641 57.5762 48.9073 57.3723 48.3437 57.0584Z" fill="#DEDEDE"/>
<path d="M56.0156 54.9727C54.6938 54.0451 53.012 53.7039 51.5642 53.0068C51.0906 52.7788 50.686 53.4427 51.1477 53.7195C52.5636 54.5687 54.178 55.5612 55.887 55.4486C56.1465 55.4315 56.2247 55.1196 56.0156 54.9727Z" fill="#DEDEDE"/>
<path d="M42.371 46.1725C42.4153 45.6483 41.5145 45.518 41.443 46.0468C41.2379 47.5589 41.3072 49.3195 42.4972 50.4244C42.7072 50.6193 42.9951 50.4215 42.9511 50.1603C42.7208 48.7991 42.2516 47.5809 42.371 46.1725Z" fill="#DEDEDE"/>
<path d="M43.8178 27.4547C43.9956 27.6139 44.2673 27.4147 44.1503 27.1981C43.5305 26.0488 42.5461 25.0526 41.7334 24.0354C41.5142 23.7611 41.1382 24.1478 41.3494 24.4194C42.1334 25.4276 42.8644 26.6009 43.8178 27.4547Z" fill="#DEDEDE"/>
<path d="M49.5091 39.3564C49.6631 39.556 50.0399 39.5832 50.1045 39.2785C50.3351 38.1907 49.7772 36.8486 49.5276 35.7953C49.3776 35.1616 48.4125 35.4303 48.5536 36.0637C48.7809 37.0838 48.856 38.5105 49.5091 39.3564Z" fill="#DEDEDE"/>
<path d="M50.7216 32.6075C50.8841 32.7656 51.1259 32.6034 51.0848 32.396C50.8597 31.2625 50.0949 30.2317 49.5385 29.2363C49.3126 28.8323 48.7053 29.1905 48.9196 29.598C49.4493 30.6065 49.8953 31.8023 50.7216 32.6075Z" fill="#DEDEDE"/>
<path d="M52.6322 44.9187C52.8914 44.433 52.8306 43.8193 52.799 43.2849C52.7781 42.9336 52.5143 42.6333 52.1474 42.6333C51.7992 42.6333 51.489 42.9316 51.4957 43.2849C51.5053 43.8066 51.4803 44.4651 51.7694 44.9187C51.9626 45.2219 52.4483 45.2628 52.6322 44.9187Z" fill="#DEDEDE"/>
<path d="M60.6504 26.7218C60.0274 26.8379 59.476 27.1745 58.9095 27.4528C58.5243 27.6419 58.8611 28.202 59.244 28.0248C59.818 27.7589 60.4048 27.542 60.8881 27.1301C61.0906 26.9575 60.8673 26.6812 60.6504 26.7218Z" fill="#DEDEDE"/>
<path d="M64.2811 23.6023C64.9582 23.5823 65.9632 23.7335 66.4955 23.2399C66.6293 23.116 66.6487 22.8379 66.4955 22.7178C65.9096 22.2578 64.9788 22.4724 64.2811 22.5055C63.5793 22.5385 63.5718 23.6231 64.2811 23.6023Z" fill="#DEDEDE"/>
<path d="M61.235 20.6055C60.5918 20.5821 60.1382 20.8294 59.5798 21.1182C58.967 21.4353 58.3539 21.7522 57.7411 22.0693C57.2412 22.3279 57.6802 23.0265 58.174 22.8101C59.2581 22.3354 60.734 21.9856 61.4693 21.0139C61.6014 20.8396 61.4195 20.6122 61.235 20.6055Z" fill="#DEDEDE"/>
<path d="M58.2123 24.2257C57.9496 24.1866 57.7587 24.2613 57.5381 24.3908C57.2487 24.5605 57.0057 24.7928 56.7526 25.0109C56.5319 25.2012 56.5351 25.573 56.7062 25.7882C56.8968 26.0277 57.1989 26.0758 57.4697 25.9406C57.735 25.8082 58.002 25.69 58.2392 25.5111C58.4474 25.3538 58.6105 25.2295 58.6806 24.9657C58.729 24.7844 58.7211 24.5906 58.6021 24.4389C58.5042 24.3135 58.3678 24.2489 58.2123 24.2257Z" fill="#DEDEDE"/>
<path d="M56.2942 19.8037C55.763 19.8037 55.7622 20.6291 56.2942 20.6291C56.8254 20.6291 56.8262 19.8037 56.2942 19.8037Z" fill="#DEDEDE"/>
<path d="M38.0883 16.7182C38.5459 17.2389 39.0198 17.8141 39.6853 18.0629C39.9856 18.1753 40.2622 17.89 40.2764 17.6126C40.3566 16.0582 38.5338 14.6938 37.4376 13.8617C36.7321 13.3262 35.8299 14.5041 36.4899 15.09C37.0602 15.5959 37.5853 16.1456 38.0883 16.7182Z" fill="#DEDEDE"/>
<path d="M44.5176 24.0187C44.875 24.4048 45.2624 24.8826 45.837 24.8522C46.1029 24.838 46.2761 24.6512 46.2987 24.3906C46.3482 23.8218 45.8651 23.4076 45.4962 23.0404C45.1005 22.6468 44.705 22.2532 44.3093 21.8596C43.7069 21.2604 42.8068 22.1692 43.3802 22.7887C43.7593 23.1988 44.1385 23.6086 44.5176 24.0187Z" fill="#DEDEDE"/>
<path d="M24.2801 7.70995C24.8127 7.92456 25.3966 8.06444 25.9579 8.18464C26.4566 8.29122 27.0167 8.42357 27.4679 8.12382C27.6886 7.97698 27.7816 7.69518 27.6431 7.45508C27.3611 6.96534 26.7763 6.81647 26.2547 6.69744C25.6645 6.56276 25.0652 6.42259 24.4605 6.37654C23.6342 6.31369 23.6287 7.44755 24.2801 7.70995Z" fill="#DEDEDE"/>
<path d="M17.6922 9.37015C18.3354 9.60648 18.9787 9.84281 19.622 10.0791C20.1754 10.2825 20.7604 10.5402 21.3486 10.3609C21.5789 10.2909 21.7341 9.99747 21.5856 9.77852C21.2345 9.26068 20.6544 9.08632 20.0822 8.89083C19.3943 8.65595 18.7064 8.42136 18.0183 8.18648C17.2653 7.92958 16.9592 9.10081 17.6922 9.37015Z" fill="#DEDEDE"/>
<path d="M12.8296 6.14767C13.4844 6.29363 14.2913 6.62554 14.9368 6.32491C15.1662 6.21805 15.1622 5.89888 15.0127 5.73641C14.5728 5.25795 13.7031 5.25564 13.1038 5.15282C12.4609 5.04277 12.1724 6.00112 12.8296 6.14767Z" fill="#DEDEDE"/>
<path d="M11.8095 8.27158C12.177 8.40684 12.5445 8.54238 12.9118 8.67763C13.2889 8.81665 13.5817 8.92497 13.9836 8.82649C14.1997 8.77349 14.3607 8.46331 14.2107 8.26811C13.7384 7.65267 12.7925 7.5177 12.0838 7.27674C11.4501 7.06126 11.1937 8.04481 11.8095 8.27158Z" fill="#DEDEDE"/>
<path d="M30.4646 14.6586C30.5046 14.6937 30.5481 14.7287 30.5927 14.7632C30.42 14.9584 30.3479 15.2344 30.5182 15.4858C30.9509 16.125 31.4395 16.7277 31.9979 17.2615C32.3944 17.6406 33.247 18.4118 33.8208 17.9177C34.4266 17.3958 33.5257 16.6628 33.1393 16.3532C32.5743 15.9002 32.07 15.3833 31.6162 14.8205C31.6895 14.7053 31.7123 14.5555 31.6767 14.4029C31.6098 14.1153 31.3147 13.8683 31.1024 13.6803C30.9981 13.5879 30.8968 13.4926 30.7899 13.4031C30.8255 12.7929 29.7945 12.5398 29.6074 13.2215C29.4539 13.7805 30.0922 14.3346 30.4646 14.6586Z" fill="#DEDEDE"/>
<path d="M15.8119 20.6879C17.2055 20.4799 18.7344 19.0863 19.3736 17.8705C19.6722 17.3025 19.0339 16.5119 18.43 16.9269C17.8186 17.3471 17.2837 17.9081 16.7389 18.4109C16.2283 18.8821 15.6584 19.4466 15.3337 20.0658C15.1489 20.418 15.4519 20.7418 15.8119 20.6879Z" fill="#DEDEDE"/>
<path d="M10.3783 24.7937C9.85906 25.6191 9.34238 26.4445 8.90157 27.3157C8.49408 28.1211 8.27945 28.9767 8.03038 29.8397C7.96753 30.0578 8.27251 30.2603 8.42977 30.0723C8.99772 29.3934 9.59116 28.7482 10.0253 27.9726C10.5035 27.1179 10.9008 26.225 11.2973 25.3309C11.5695 24.7167 10.7517 24.2006 10.3783 24.7937Z" fill="#DEDEDE"/>
<path d="M5.57044 43.6201C6.51952 40.9513 7.15409 38.1909 7.93519 35.4705C8.06581 35.0149 7.4136 34.8652 7.24388 35.2799C6.15288 37.9476 5.27822 40.6643 5.07983 43.5538C5.05927 43.8501 5.48123 43.8712 5.57044 43.6201Z" fill="#DEDEDE"/>
<path d="M13.7739 30.5239C15.076 28.9944 16.355 27.4991 17.5039 25.8497C17.7162 25.5447 17.2146 25.15 16.9838 25.4483C15.752 27.0395 14.7004 28.71 13.6288 30.4118C13.574 30.4993 13.705 30.6047 13.7739 30.5239Z" fill="#DEDEDE"/>
<path d="M21.5523 21.1223C22.0783 21.1342 22.4649 20.7612 22.8559 20.4536C23.2872 20.1142 23.7181 19.7747 24.1494 19.4356C24.6382 19.0507 23.9834 18.1896 23.478 18.5656C23.0378 18.8931 22.5973 19.2204 22.1571 19.548C21.7612 19.8425 21.2998 20.1214 21.1753 20.6274C21.1136 20.8776 21.2937 21.1163 21.5523 21.1223Z" fill="#DEDEDE"/>
<path d="M12.3974 39.5678C11.9603 41.6829 11.7429 43.6964 12.1252 45.8396C12.159 46.0296 12.4823 46.0333 12.5127 45.8396C12.8266 43.8458 13.0068 41.8249 13.403 39.845C13.5336 39.1905 12.5335 38.9093 12.3974 39.5678Z" fill="#DEDEDE"/>
<path d="M8.81797 46.4649C8.80088 48.9394 8.97786 51.3195 10.0419 53.5884C10.1746 53.8716 10.6261 53.726 10.6185 53.4323C10.5612 51.1037 10.1885 48.7966 10.1644 46.4649C10.1557 45.5987 8.82376 45.5966 8.81797 46.4649Z" fill="#DEDEDE"/>
<path d="M5.90962 55.0558C5.5056 54.4297 4.49918 55.0115 4.90609 55.6423C5.7512 56.9522 6.55664 58.297 7.71338 59.3628C7.8831 59.5191 8.20256 59.3685 8.12175 59.125C7.62998 57.6392 6.75096 56.3594 5.90962 55.0558Z" fill="#DEDEDE"/>
<path d="M14.6773 61.1683C13.9538 60.6511 13.2946 61.8307 13.9865 62.35C15.0723 63.1647 16.1726 64.1233 17.5243 64.4503C17.7759 64.5111 18.0088 64.2372 17.8677 64.0037C17.1234 62.772 15.8201 61.9854 14.6773 61.1683Z" fill="#DEDEDE"/>
<path d="M21.3743 61.259C20.1958 60.565 19.0692 59.8867 18.0573 58.9469C17.4992 58.4285 16.6573 59.2693 17.2203 59.7839C18.3275 60.7964 19.7342 61.5755 21.2538 61.7041C21.4983 61.725 21.5675 61.3728 21.3743 61.259Z" fill="#DEDEDE"/>
<path d="M38.2277 65.2969C36.1056 65.29 34.0346 65.8258 31.907 65.866C31.0949 65.8814 31.0973 67.0966 31.907 67.1259C34.1194 67.2058 36.4778 67.1207 38.3841 65.8739C38.6349 65.7094 38.5454 65.2981 38.2277 65.2969Z" fill="#DEDEDE"/>
<path d="M38.2686 61.2241C37.586 61.4239 36.9917 61.8077 36.413 62.2126C36.0498 62.4666 35.916 62.932 36.2042 63.3056C36.4622 63.6401 37.0119 63.7151 37.3143 63.3809C37.7997 62.8445 38.2825 62.2899 38.575 61.6229C38.6645 61.4196 38.5162 61.1514 38.2686 61.2241Z" fill="#DEDEDE"/>
</svg>
