<svg width="29" height="33" viewBox="0 0 29 33" fill="none" xmlns="http://www.w3.org/2000/svg">
<path d="M26.9715 14.9278C27.3555 14.2405 27.2376 13.2278 27.097 12.4895C26.9328 11.6274 26.5834 10.8066 26.1157 10.0669C25.6568 9.34098 25.1217 8.66397 24.5354 8.03686C23.9639 7.42546 23.3325 6.85255 22.5485 6.53173C22.1578 6.37196 21.7583 6.27907 21.3555 6.23862C21.3341 6.12437 21.2838 6.00759 21.2396 5.89447C21.1149 5.57493 20.9732 5.262 20.8099 4.96022C20.4978 4.38301 20.1133 3.84054 19.6831 3.34522C18.8091 2.3388 17.6842 1.52619 16.4374 1.04828C16.1844 0.951301 15.9371 0.900697 15.6953 0.895341C15.0466 0.603492 14.3535 0.385645 13.6453 0.264917C13.6337 0.24765 13.6122 0.237995 13.5889 0.252584C13.5877 0.253359 13.5865 0.254134 13.5853 0.254909C12.5201 0.0818154 11.4231 0.129036 10.3945 0.474941C9.60529 0.740361 8.73433 1.19389 8.25508 1.89944C7.7604 2.62776 7.88429 3.61036 8.30589 4.34121C8.55982 4.78142 8.93427 5.13923 9.33769 5.44194C9.7466 5.7488 10.2151 6.05988 10.6981 6.24305C10.6577 6.406 10.6247 6.57169 10.6007 6.74049C10.3566 8.45712 11.2128 9.9437 12.4458 11.0717C12.465 11.0893 12.485 11.1016 12.5052 11.1116C12.2982 11.4586 12.1176 11.8214 11.9699 12.1993C11.6859 12.9259 11.472 13.7817 11.5624 14.5758C11.5246 14.6103 11.4868 14.6449 11.4493 14.6797C11.0619 14.9635 10.7304 15.3007 10.4377 15.6759C10.421 15.6931 10.4043 15.7101 10.3877 15.7273C10.3794 15.7359 10.3762 15.7454 10.3765 15.7544C10.0867 16.1379 9.8347 16.5585 9.6029 17.0002C9.27806 17.6192 8.99982 18.2624 8.76922 18.9223C8.70783 19.0979 8.66688 19.3185 8.56969 19.4789C8.526 19.551 8.45496 19.6029 8.41133 19.6744C8.36171 19.7557 8.34882 19.8329 8.35678 19.9101C7.03469 20.8785 6.03341 22.3025 6.3414 23.9642C6.19678 24.0031 6.05321 24.0457 5.91148 24.0934C5.762 24.1169 5.61322 24.1451 5.46564 24.1773C5.4163 24.1881 5.41799 24.2442 5.44788 24.2701C5.22432 24.3659 5.0069 24.4755 4.79835 24.602C4.3893 24.8501 4.07603 25.1624 3.71998 25.4743C3.485 25.6802 3.31663 25.7958 3.24707 26.0611C2.78354 26.2591 2.36405 26.5674 1.98284 26.8946C0.885428 27.8367 -0.477117 29.3723 0.673222 30.8098C1.58767 31.9524 3.18639 32.1852 4.55887 32.046C5.25689 31.9753 6.01558 31.9207 6.68773 31.7115C7.09502 31.5848 7.50238 31.3393 7.68273 30.9674C8.92546 31.8784 10.5097 32.4568 12.0339 31.9943C12.7358 31.7813 13.3701 31.3537 13.7898 30.7473C13.9387 30.5321 14.0553 30.2945 14.1451 30.0447C14.2088 30.0395 14.2705 30.0066 14.312 29.9335C14.3222 29.9156 14.3314 29.8974 14.3412 29.8794C15.3289 29.8508 16.3357 29.5455 17.2424 29.1767C18.2074 28.7842 19.1235 28.2712 19.9471 27.6317C20.775 26.9888 21.5714 26.2262 22.1563 25.3506C22.2785 25.1677 22.3755 24.9787 22.443 24.7829C24.4522 24.4927 26.0326 22.7601 26.9909 21.0805C28.0523 19.2206 28.7915 16.5409 26.9715 14.9278ZM13.3973 10.5469C14.3696 9.339 15.6809 8.45712 17.0629 7.78144C18.0148 7.31601 19.0667 6.86975 20.1405 6.73147C19.2021 6.92634 18.2807 7.31298 17.4583 7.72048C15.6627 8.61012 14.0478 9.93771 12.8344 11.5333C12.7022 11.7071 12.5757 11.8855 12.4575 12.069C12.7034 11.5242 13.0236 11.011 13.3973 10.5469ZM16.1532 12.2709C17.3529 11.9862 18.5978 11.9989 19.8215 12.0638C20.9899 12.1258 22.252 12.138 23.3323 12.6396C23.7481 12.8326 24.1253 13.0925 24.4915 13.3665C24.2315 13.2456 23.9694 13.1349 23.7074 13.0366C22.465 12.5703 21.1268 12.4975 19.8134 12.5796C18.4869 12.6625 17.1609 12.8561 15.8618 13.1349C14.734 13.3768 13.5615 13.6462 12.4922 14.1034C13.6064 13.2822 14.8102 12.5896 16.1532 12.2709ZM24.2672 8.43851C22.3153 7.90901 20.118 8.03784 18.2963 8.94849C18.2595 8.96681 18.2853 9.02996 18.3245 9.01551C20.2454 8.31031 22.236 8.09232 24.244 8.54923C24.2869 8.55903 24.3144 8.52365 24.3138 8.49017C24.6842 8.90641 25.0139 9.35373 25.3025 9.78308C25.3197 9.80881 25.3366 9.83489 25.3537 9.86082C24.688 9.53317 23.9649 9.28819 23.2355 9.26965C23.1696 9.26796 23.1589 9.36417 23.2202 9.38256C24.0075 9.6188 24.7787 9.80768 25.524 10.1299C25.8443 10.6559 26.1132 11.2191 26.3021 11.8048C25.6482 11.1443 24.8143 10.6271 23.8808 10.5286C23.8077 10.5209 23.8037 10.6273 23.8644 10.6493C24.8086 10.9916 25.6834 11.3939 26.3923 12.109C26.3975 12.1281 26.403 12.1471 26.4081 12.1663C26.5261 12.6188 26.5956 13.0831 26.6012 13.551C26.6033 13.7293 26.5869 13.9061 26.5684 14.0824C25.5482 13.0007 24.3559 12.0781 22.9441 11.5567C22.8865 11.5354 22.8512 11.625 22.9029 11.6545C24.1902 12.3904 25.4594 13.1755 26.5578 14.182C26.5495 14.2595 26.5417 14.3368 26.5351 14.4142C26.0943 14.0838 25.6534 13.7535 25.2126 13.4231C24.739 13.0681 24.2685 12.6927 23.7378 12.4249C22.6918 11.8973 21.4917 11.8546 20.3457 11.7871C19.072 11.712 17.7834 11.6646 16.5219 11.895C15.8384 12.0199 15.1807 12.2392 14.5536 12.5283C15.0018 12.1942 15.4714 11.89 15.9626 11.6208C16.6517 11.2431 17.3773 10.9709 18.1037 10.6775C18.1591 10.6552 18.1395 10.5706 18.0784 10.5858C16.6083 10.9519 15.2153 11.8143 14.0541 12.7761C13.8118 12.9052 13.5743 13.044 13.3422 13.1918C12.8776 13.4878 12.4451 13.8146 12.0321 14.1634C12.0347 14.141 12.0373 14.1187 12.0401 14.0963C12.6098 13.4512 13.2054 12.8306 13.8409 12.2495C14.5762 11.577 15.3668 10.9868 16.156 10.3809C16.2157 10.3351 16.1633 10.2344 16.095 10.2766C14.5855 11.2097 13.2212 12.4902 12.0765 13.8569C12.0835 13.8199 12.0913 13.783 12.1003 13.7462C12.1791 13.4222 12.3033 13.1119 12.4559 12.8159C12.5157 12.6997 12.5804 12.5864 12.6478 12.4747C13.0685 11.8806 13.5748 11.3714 14.1383 10.884C14.1678 10.8585 14.1288 10.8072 14.0963 10.8295C13.9006 10.9639 13.7153 11.1138 13.5401 11.2757C14.3022 10.3979 15.18 9.62683 16.1516 8.9881C17.1369 8.34033 18.2013 7.81443 19.3233 7.44992C20.5978 7.03586 21.86 6.90188 23.0892 7.52801C23.1645 7.56635 23.2371 7.5648 23.2985 7.53978C23.6472 7.80174 23.97 8.10973 24.2672 8.43851ZM10.5078 5.59071C10.6272 4.98538 10.842 4.42797 11.0544 3.84315C11.0745 3.78775 10.9912 3.75702 10.962 3.80417C10.6448 4.31662 10.487 4.93104 10.4109 5.53292C10.3937 5.52263 10.3764 5.51234 10.3591 5.50205C10.3521 5.35123 10.3479 5.20048 10.3607 5.04958C10.3796 4.82878 10.4473 4.61974 10.4735 4.40105C10.4818 4.33212 10.3853 4.32127 10.3535 4.36856C10.1685 4.64307 10.1182 5.03782 10.1676 5.3888C10.0019 5.29006 9.83829 5.18821 9.68416 5.0727C9.60818 5.01583 9.53425 4.95571 9.46166 4.89397C9.59338 4.61206 9.72468 4.3298 9.84506 4.04323C9.85155 4.02773 9.8254 4.0168 9.81793 4.03174C9.68064 4.30569 9.55363 4.58514 9.42727 4.86465C9.34727 4.79509 9.27024 4.72229 9.19645 4.64631C9.28392 4.18616 9.44566 3.76421 9.63158 3.32549C9.64617 3.29102 9.6017 3.26248 9.5802 3.29546C9.33134 3.67787 9.1949 4.12414 9.1283 4.57534C8.95218 4.38329 8.79924 4.17115 8.68436 3.9354C8.55489 3.66991 8.46856 3.36707 8.45749 3.06514C8.56687 2.85737 8.69775 2.66032 8.85005 2.47651C8.86288 2.46108 8.84195 2.43909 8.82764 2.4541C8.68351 2.60485 8.5606 2.76653 8.45784 2.93849C8.46454 2.7506 8.50189 2.5651 8.57899 2.39144C8.78507 1.92742 9.25735 1.60935 9.68282 1.36529C10.3794 0.965678 11.1509 0.758122 11.9393 0.704136C11.7224 0.937347 11.5439 1.19459 11.3984 1.48848C11.3866 1.5123 11.4202 1.5326 11.4343 1.50948C11.6136 1.21623 11.8294 0.940941 12.0731 0.696524C12.3597 0.683204 12.648 0.689263 12.9355 0.714213C12.5761 1.00028 12.2493 1.32279 11.9664 1.69442C11.9478 1.71895 11.9876 1.74798 12.0084 1.72684C12.3548 1.37607 12.7135 1.03876 13.0964 0.730352C13.3973 0.763547 13.6963 0.816617 13.9908 0.887095C13.338 1.16323 12.7145 1.65065 12.4846 2.2987C12.4686 2.3438 12.5345 2.38214 12.5658 2.34592C12.8466 2.02122 13.0732 1.68356 13.4167 1.41603C13.6658 1.22201 13.9416 1.0666 14.2332 0.948834C14.4128 0.998168 14.5902 1.05399 14.7648 1.11573C14.6684 1.16513 14.5729 1.22179 14.4786 1.28783C13.8731 1.71161 13.3377 2.2729 12.8242 2.80092C12.3107 3.32901 11.8264 3.90481 11.4376 4.53305C11.6805 3.78183 12.0614 3.10722 12.5546 2.48229C12.5616 2.47348 12.5496 2.46079 12.542 2.46968C12.009 3.08946 11.6291 3.82489 11.3935 4.60487C11.1653 4.98319 10.9727 5.38048 10.8294 5.79764C10.7252 5.72483 10.6172 5.65682 10.5078 5.59071ZM12.5277 10.4903C12.8785 9.79612 13.2943 9.14329 13.7239 8.49412C13.7397 8.47008 13.7018 8.43985 13.6834 8.46289C13.1976 9.06985 12.8175 9.74714 12.4943 10.4519C12.4642 10.4173 12.4343 10.3825 12.4047 10.3475C12.6191 9.50815 13.0161 8.78216 13.5198 8.07238C13.5374 8.04764 13.4979 8.0174 13.4778 8.03996C12.9139 8.67137 12.5566 9.48327 12.3705 10.3073C12.144 10.0383 11.9305 9.75905 11.7444 9.46622C11.9964 8.80077 12.3402 8.1869 12.743 7.5963C12.7574 7.57523 12.7234 7.54831 12.7072 7.56867C12.2669 8.12312 11.9442 8.75108 11.7126 9.41604C11.6252 9.27522 11.5444 9.13124 11.4718 8.98373C11.7522 8.10762 12.1499 7.32524 12.6257 6.52821C12.6459 6.49431 12.5964 6.45336 12.5697 6.48501C12.0086 7.14919 11.6198 8.00338 11.4125 8.85828C11.2975 8.60526 11.2075 8.34174 11.1502 8.06589C11.3299 6.95678 11.8297 6.03437 12.5455 5.15918C12.5718 5.1269 12.5311 5.0844 12.4993 5.11295C11.8389 5.70334 11.3975 6.54407 11.1886 7.41785C11.3658 6.1749 12.0476 4.99045 12.844 4.06212C13.3415 3.48209 13.8958 2.92919 14.4871 2.44444C15.1616 1.89147 15.9851 1.50272 16.8404 1.87872C16.9071 1.90804 16.9717 1.90754 17.0271 1.88795C17.1986 1.98535 17.3641 2.08825 17.5208 2.18776C17.5815 2.22632 17.6417 2.26578 17.7014 2.30602C17.3153 2.3555 16.9651 2.66243 16.654 2.87457C16.1212 3.23774 15.5919 3.60141 15.0869 4.0032C15.0546 4.02886 15.096 4.07903 15.1302 4.05923C15.5847 3.79564 16.0222 3.50901 16.4557 3.21251C16.8327 2.95477 17.4034 2.39666 17.9013 2.44621C18.2141 2.6723 18.5093 2.92172 18.7862 3.19123C17.7901 3.9612 16.7749 4.71277 15.8126 5.52482C15.7888 5.5449 15.8206 5.58684 15.8462 5.56837C16.8734 4.83301 17.8548 4.03132 18.8494 3.25268C18.8544 3.25769 18.8596 3.26248 18.8646 3.26755C19.3228 3.72552 19.7227 4.23352 20.0502 4.79276C20.2104 5.06636 20.3551 5.34933 20.4818 5.63998C20.5115 5.70799 20.5394 5.7767 20.5668 5.8457C19.7115 5.72032 18.8495 5.84817 18.0767 6.26208C18.0342 6.28492 18.0716 6.34363 18.1137 6.32544C18.9091 5.98158 19.7638 5.84937 20.6171 5.97813C20.6332 6.02126 20.6499 6.06411 20.6652 6.10753C20.6781 6.14396 20.6902 6.18061 20.7023 6.21726C19.6345 6.25102 18.564 6.6032 17.5916 7.02994C16.3775 7.56282 15.1943 8.23997 14.191 9.11806C14.6992 8.52273 15.2354 7.95271 15.7911 7.39128C15.8029 7.37944 15.7851 7.36196 15.7729 7.37303C15.1256 7.96229 14.5328 8.61661 13.9841 9.30419C13.7676 9.50491 13.5598 9.715 13.3637 9.93659C13.1403 10.1891 12.9333 10.4552 12.7445 10.7332C12.6716 10.653 12.5992 10.5721 12.5277 10.4903ZM12.3763 31.2274C12.3424 31.2444 12.3081 31.2612 12.2728 31.2769C11.3666 31.6805 10.4528 31.5999 9.59458 31.282C10.1645 30.6446 10.5781 29.796 10.7357 28.9714C10.7481 28.9065 10.6622 28.8845 10.6382 28.9445C10.4576 29.3973 10.2783 29.8519 10.0477 30.2822C9.87128 30.6114 9.66069 30.9181 9.45222 31.2269C9.13091 31.0973 8.8182 30.9359 8.51712 30.7558C9.17157 30.1631 9.537 29.075 9.46673 28.2381C9.46208 28.1825 9.37307 28.1602 9.36158 28.2239C9.27701 28.6925 9.18243 29.1579 8.99721 29.5991C8.83201 29.9928 8.5852 30.3105 8.3565 30.6574C8.19362 30.5551 8.03463 30.4481 7.87986 30.3382C8.18157 29.9396 8.27806 29.4027 8.34656 28.898C8.46355 28.0359 8.36841 27.2167 7.76688 26.5512C7.22787 25.9549 6.45571 25.6508 5.66671 25.5824C5.21425 25.5431 4.75558 25.5825 4.31044 25.6695C4.15257 25.7004 3.99413 25.7357 3.86572 25.8054C4.38796 25.2833 5.09795 25.0614 5.84488 25.0969C5.87568 25.0984 5.88329 25.0482 5.85221 25.0424C5.36894 24.9522 4.88709 25.0465 4.46901 25.27C4.63041 25.1421 4.79955 25.0247 4.98653 24.9237C5.17647 24.8211 5.37289 24.7331 5.57319 24.6547C5.7849 24.5983 5.99873 24.5447 6.21616 24.4873C6.23998 24.481 6.24378 24.4515 6.23131 24.4355C6.48877 24.3641 6.74996 24.3057 7.01171 24.2561C8.46694 23.9799 10.1557 23.8626 11.54 24.4867C12.8298 25.0681 13.6222 26.3113 13.8168 27.6894C13.9353 28.5286 13.854 29.4336 13.4679 30.156C13.1519 30.5731 12.7902 30.9366 12.3763 31.2274ZM7.8351 29.7565C7.80437 29.2811 7.69478 28.8028 7.53317 28.3858C7.2483 27.6508 6.7453 27.1117 6.1258 26.639C5.76122 26.3607 5.3736 26.109 4.95221 25.9658C5.24314 25.9408 5.53739 25.9436 5.8262 25.9814C6.47876 26.0669 7.10227 26.3494 7.54051 26.8501C8.01997 27.398 8.08826 28.0693 8.0163 28.769C7.9829 29.0952 7.93701 29.4376 7.8351 29.7565ZM14.3909 28.0849C14.2993 26.6352 13.6129 25.2038 12.3779 24.3951C10.9357 23.4508 9.07805 23.495 7.43979 23.7399C7.37573 23.7495 7.31152 23.7597 7.24739 23.7703C8.90742 22.9192 10.9673 23.2095 12.4962 24.2815C13.7342 25.1496 14.4812 26.624 14.3909 28.0849ZM0.785563 29.403C0.931875 29.208 1.07516 29.0103 1.2455 28.8327C1.54926 28.516 1.88093 28.2259 2.24128 27.9753C2.2651 27.9587 2.24438 27.9216 2.2183 27.9359C1.76992 28.1817 1.28398 28.5271 0.915592 28.947C1.05768 28.6175 1.28433 28.3288 1.5346 28.0643C2.03704 27.7098 2.56484 27.3955 3.10541 27.0975C3.12711 27.0855 3.10809 27.0554 3.08638 27.065C2.63955 27.2628 2.21887 27.5061 1.8182 27.7803C1.87296 27.7276 1.92779 27.6756 1.98199 27.6243C2.3582 27.2681 2.76817 26.9071 3.2341 26.6636C3.31008 26.629 3.38549 26.5935 3.46048 26.5571C3.50445 26.5387 3.54872 26.5211 3.59368 26.505C4.28112 26.2596 4.89681 26.4232 5.49129 26.8155C6.13504 27.2404 6.72684 27.7532 7.0473 28.4699C7.19235 28.7942 7.26529 29.1233 7.31011 29.4567C7.24838 29.8222 7.09748 30.1615 6.8795 30.463C6.88443 30.4486 6.89035 30.4346 6.895 30.42C6.91086 30.3708 6.83629 30.352 6.81853 30.399C6.77173 30.5227 6.71232 30.6382 6.64424 30.747C6.62916 30.763 6.61443 30.7793 6.59892 30.795C6.59011 30.8039 6.58906 30.8159 6.59272 30.8263C6.47199 31.0003 6.32519 31.1527 6.15992 31.2833C5.77003 31.3659 5.36944 31.4012 4.97575 31.4564C4.88406 31.4692 4.79131 31.4812 4.69792 31.4919C5.01106 31.3313 5.29593 31.1231 5.52745 30.8867C5.54725 30.8665 5.51758 30.8376 5.49658 30.8559C5.1093 31.1939 4.69793 31.4062 4.26047 31.5325C3.63604 31.575 2.99525 31.5464 2.40704 31.3583C3.66408 31.0381 4.78299 30.0903 5.53703 29.07C5.55846 29.0411 5.51124 29.0051 5.48721 29.0316C5.03988 29.5246 4.53392 29.9677 3.99456 30.3576C3.79116 30.5046 3.58029 30.6339 3.3654 30.7555C2.8199 30.8749 2.21365 30.9758 1.67915 30.7643C1.20342 30.576 0.831654 30.1382 0.841944 29.6112C0.842367 29.5906 0.811849 29.5912 0.810228 29.6112C0.770197 30.1161 1.06691 30.5478 1.50458 30.7828C2.02414 31.0618 2.62052 31.0047 3.1725 30.8625C2.89891 31.0108 2.62052 31.1508 2.34404 31.3011C2.33093 31.3082 2.326 31.3198 2.32635 31.3315C2.0672 31.2413 1.81891 31.1192 1.58788 30.9565C1.05838 30.5838 0.699862 30.0435 0.785563 29.403ZM6.44782 31.2124C6.57285 31.0698 6.68053 30.9099 6.76638 30.7363C7.05745 30.4783 7.25119 30.1498 7.3469 29.787C7.35938 29.9227 7.36981 30.0591 7.38052 30.1961C7.2624 30.2752 7.18727 30.4327 7.23407 30.5657C7.09199 30.9192 6.84757 31.0957 6.44782 31.2124ZM21.0961 25.7237C20.9692 24.2596 20.1242 22.696 18.7592 22.0967C18.7282 22.0831 18.7007 22.1278 18.7322 22.1429C19.4105 22.4684 19.9427 23.0194 20.3053 23.6744C20.6878 24.3654 20.8037 25.0954 20.9927 25.8409C20.6494 26.2218 20.2654 26.5723 19.9009 26.887C19.7465 27.0203 19.5876 27.1481 19.4264 27.273C19.485 27.0181 19.5248 26.7561 19.5299 26.5011C19.5312 26.4385 19.4494 26.4371 19.4287 26.4874C19.3032 26.7921 19.2271 27.1287 19.1794 27.4594C19.069 27.5403 18.9571 27.6191 18.8439 27.6961C19.0755 27.0487 19.1166 26.3468 18.874 25.6856C18.8551 25.6341 18.7812 25.654 18.7918 25.7083C18.9275 26.4068 18.9344 27.1083 18.7196 27.7797C18.51 27.9183 18.2958 28.0498 18.0775 28.1744C18.2734 27.196 17.7371 26.0666 17.1367 25.3477C17.1225 25.3306 17.0919 25.3537 17.1055 25.3717C17.4285 25.801 17.6553 26.2863 17.7939 26.8054C17.9244 27.294 17.9048 27.7644 17.9359 28.2555C17.7088 28.381 17.4775 28.4992 17.2423 28.6091C16.8931 28.7724 16.5389 28.907 16.1807 29.0252C16.2874 28.8499 16.3319 28.6336 16.3871 28.4374C16.445 28.2314 16.4899 28.0239 16.5017 27.8099C16.5044 27.7605 16.43 27.7401 16.4075 27.7844C16.3107 27.9745 16.2449 28.1772 16.1919 28.3835C16.1399 28.5859 16.0668 28.801 16.0748 29.011C16.0749 29.011 16.0752 29.0109 16.0752 29.0109C16.0745 29.0293 16.0837 29.0438 16.0976 29.0526C15.789 29.1522 15.4774 29.2401 15.1635 29.3238C15.3932 28.5915 15.5196 27.8517 15.5292 27.0788C15.5299 27.0282 15.4569 27.0303 15.4519 27.0788C15.3735 27.8461 15.2388 28.6119 15.0377 29.3571C14.8686 29.4016 14.6989 29.4452 14.5287 29.489C15.1298 28.0323 14.85 26.2851 13.8927 25.0332C12.8257 23.6378 11.0418 22.8805 9.30414 22.8898C8.4429 22.8944 7.47869 23.0872 6.831 23.6881C6.82226 23.6153 6.81663 23.5426 6.81458 23.47C8.02603 22.6588 9.32063 22.1111 10.7092 21.6711C10.7595 21.6551 10.7386 21.583 10.6876 21.5927C9.29075 21.8585 7.94759 22.5301 6.81381 23.383C6.81423 23.3259 6.81677 23.2689 6.82107 23.2121C6.88527 23.0587 6.97126 22.9123 7.06873 22.7714C7.91193 22.2575 8.78733 21.8308 9.69452 21.4356C9.71911 21.4249 9.70157 21.3834 9.6762 21.3921C8.77218 21.7039 7.91115 22.1629 7.11884 22.7007C7.26156 22.5043 7.42245 22.3185 7.57116 22.1404C7.81974 21.8427 8.0865 21.5659 8.38441 21.3269C8.91983 20.9993 9.50458 20.7895 10.1279 20.6568C10.1451 20.6532 10.1416 20.6234 10.1237 20.6257C9.65498 20.6846 9.20822 20.8297 8.79134 21.0392C8.87296 20.9889 8.95626 20.9407 9.04288 20.8966C9.61854 20.6032 10.2604 20.4264 10.884 20.2674C11.5461 20.0985 12.2192 19.9797 12.9025 19.9466C15.2991 19.8306 17.7104 20.6948 19.5652 22.2015C19.8162 22.4054 20.063 22.6199 20.2857 22.855C20.278 22.8746 20.2786 22.8977 20.2957 22.9178C20.7698 23.4757 21.0586 24.1329 21.2051 24.8386C21.2255 25.0884 21.2214 25.3415 21.2011 25.5986C21.1668 25.6408 21.1317 25.6824 21.0961 25.7237ZM21.7551 24.7806C21.7486 24.7929 21.7414 24.805 21.7348 24.8173C21.6399 23.8705 21.1288 22.9681 20.4403 22.3202C19.4629 21.4004 18.2855 20.6845 17.0381 20.196C15.7835 19.7047 14.4217 19.4536 13.0734 19.5035C12.3405 19.5307 11.6141 19.6535 10.9045 19.8363C10.2055 20.0164 9.48894 20.2246 8.84688 20.5613C8.14598 20.9288 7.61077 21.4951 7.1299 22.1128C7.31892 21.7204 7.57786 21.3572 7.86654 21.0452C8.50605 20.3539 9.3267 19.8389 10.2034 19.5034C12.0347 18.8026 14.1306 18.7322 16.0463 19.0804C18.0081 19.4371 19.9073 20.3589 21.0653 22.0358C21.5644 22.7585 22.2092 23.9131 21.7551 24.7806ZM26.816 20.1841C26.5389 20.7545 26.2033 21.2909 25.8136 21.7859C25.594 20.4277 24.4738 19.3666 23.5149 18.4644C23.487 18.4382 23.4449 18.48 23.4728 18.5065C24.4918 19.4712 25.4566 20.4691 25.7577 21.8588C25.5058 22.1717 25.2315 22.4675 24.935 22.7431C24.8742 22.7996 24.8124 22.8538 24.75 22.9071C24.8759 21.6786 24.0168 20.377 23.0099 19.7753C22.966 19.7491 22.9262 19.8174 22.9699 19.8437C23.5363 20.1842 23.9887 20.6727 24.2855 21.2638C24.5698 21.8301 24.6262 22.3847 24.6473 22.9932C24.2502 23.3172 23.8221 23.5818 23.3712 23.8093C23.5447 22.8739 23.4414 21.8898 22.9863 21.0419C22.965 21.0022 22.8949 21.0297 22.912 21.0732C23.2676 21.979 23.4137 22.9214 23.2506 23.869C23.0223 23.9799 22.7885 24.082 22.5499 24.178C22.5512 24.0706 22.5438 23.9611 22.526 23.8493C22.4449 23.3405 22.2207 22.8282 21.9792 22.3756C20.9447 20.4364 18.9531 19.209 16.8651 18.6891C14.7786 18.1695 12.4108 18.1534 10.364 18.8577C9.90461 19.0158 9.42903 19.2341 8.97177 19.5047C8.99658 19.4502 9.01864 19.3938 9.0388 19.3361C9.58556 18.8208 10.1413 18.3315 10.7802 17.9286C11.4429 17.5109 12.1588 17.1947 12.8924 16.9244C12.9466 16.9044 12.9259 16.8212 12.8682 16.8364C11.4691 17.2064 10.0729 18.0408 9.10307 19.1384C9.12802 19.0582 9.15276 18.9787 9.18074 18.9034C9.36348 18.4118 9.57576 17.9314 9.81158 17.463C11.0801 16.6953 12.4023 16.045 13.7578 15.4393C13.7791 15.4298 13.7638 15.3928 13.7418 15.4013C12.3892 15.924 11.0935 16.6076 9.85817 17.3695C9.86768 17.351 9.87649 17.3322 9.88608 17.3136C10.3452 16.4267 10.8802 15.5606 11.7038 14.9843C11.7754 15.0005 11.8637 14.9535 11.8798 14.8686C11.9055 14.8528 11.9304 14.8361 11.9566 14.8207C12.9306 14.2517 14.093 13.991 15.1815 13.7379C16.3774 13.4598 17.5914 13.2551 18.8131 13.1324C19.9982 13.0134 21.2155 12.9487 22.3919 13.1769C23.5342 13.3984 24.5525 13.9329 25.5242 14.5551C26.457 15.1524 27.2689 15.769 27.4814 16.9211C27.6167 17.6548 27.4943 18.4045 27.2578 19.1146C27.0254 18.4103 26.496 17.8022 25.9097 17.3709C25.8651 17.3381 25.8241 17.4117 25.8667 17.4445C26.507 17.938 26.8852 18.565 27.2001 19.2814C27.088 19.5927 26.9564 19.8953 26.816 20.1841Z" fill="#231F20"/>
<path d="M11.1263 2.43602C10.6869 2.84197 10.3989 3.38832 10.2329 3.95806C10.2232 3.99125 10.2744 4.00514 10.2845 3.9723C10.4617 3.39417 10.7687 2.92507 11.1613 2.47112C11.1821 2.44709 11.15 2.41417 11.1263 2.43602Z" fill="#231F20"/>
<path d="M13.2171 5.10842C12.8843 5.50542 12.578 5.92582 12.2621 6.33628C12.2434 6.36053 12.2847 6.38421 12.3032 6.36032C12.6178 5.95155 12.9446 5.54926 13.242 5.12766C13.2523 5.11307 13.2287 5.09461 13.2171 5.10842Z" fill="#231F20"/>
<path d="M13.5156 6.99729C12.8878 7.77988 12.4189 8.68052 12.0514 9.61103C12.0382 9.64444 12.0916 9.65825 12.105 9.62576C12.4871 8.69933 12.9939 7.85487 13.553 7.02612C13.5678 7.00406 13.5326 6.97615 13.5156 6.99729Z" fill="#231F20"/>
<path d="M14.221 4.00334C14.851 3.26473 15.6348 2.66293 16.5089 2.24105C16.5756 2.20884 16.5173 2.11017 16.4509 2.14174C15.5477 2.57187 14.7984 3.18524 14.193 3.98171C14.1809 3.99777 14.2079 4.0187 14.221 4.00334Z" fill="#231F20"/>
<path d="M17.7639 5.75642C18.3331 5.337 18.9369 4.98553 19.6167 4.77938C19.6946 4.75577 19.6619 4.63469 19.583 4.65703C18.8828 4.8555 18.2379 5.18195 17.7194 5.69876C17.6909 5.72717 17.7294 5.78179 17.7639 5.75642Z" fill="#231F20"/>
<path d="M16.38 5.7504C16.9961 5.3899 17.6057 5.02229 18.2467 4.70697C18.2871 4.68717 18.2518 4.62853 18.2117 4.64707C17.5639 4.9473 16.9296 5.28038 16.3519 5.7024C16.3238 5.72312 16.3484 5.76886 16.38 5.7504Z" fill="#231F20"/>
<path d="M15.7888 4.70775C16.2924 4.17627 16.8593 3.75968 17.4449 3.32582C17.4679 3.30876 17.4482 3.27183 17.4219 3.28642C16.7949 3.635 16.2415 4.15323 15.758 4.67688C15.7389 4.69746 15.7694 4.72819 15.7888 4.70775Z" fill="#231F20"/>
<path d="M14.9226 2.69688C15.4239 2.34625 15.9621 2.08584 16.5151 1.82873C16.5418 1.81633 16.5229 1.77327 16.4953 1.78165C15.9102 1.95933 15.3755 2.26957 14.8786 2.62161C14.8333 2.65375 14.8764 2.72923 14.9226 2.69688Z" fill="#231F20"/>
<path d="M17.3567 9.58249C16.2533 9.88273 15.2139 10.3803 14.2327 10.9624C14.1866 10.9898 14.2282 11.0612 14.2747 11.0343C15.2615 10.4649 16.3052 10.0325 17.372 9.63796C17.4061 9.62534 17.3931 9.57262 17.3567 9.58249Z" fill="#231F20"/>
<path d="M23.1605 7.7503C21.8545 7.59476 20.5225 7.7028 19.2413 7.9845C19.2288 7.98725 19.2341 8.00628 19.2465 8.0036C20.5435 7.72683 21.841 7.67757 23.1605 7.76813C23.1721 7.76891 23.1716 7.75164 23.1605 7.7503Z" fill="#231F20"/>
<path d="M15.0409 14.2282C13.5825 14.4516 12.1891 15.068 10.9643 15.8782C10.9453 15.8907 10.9625 15.9211 10.9823 15.909C12.2498 15.1305 13.6176 14.638 15.0562 14.2836C15.093 14.2745 15.0766 14.2227 15.0409 14.2282Z" fill="#231F20"/>
<path d="M13.677 16.5977C12.4327 16.7023 11.2471 17.1794 10.229 17.8922C10.2063 17.908 10.2273 17.9454 10.251 17.9298C11.2966 17.2447 12.454 16.8404 13.682 16.6346C13.7028 16.6312 13.6982 16.596 13.677 16.5977Z" fill="#231F20"/>
<path d="M17.077 15.6848C16.0179 15.5861 14.9328 15.6825 13.8833 15.8355C13.8404 15.8418 13.8588 15.9064 13.9012 15.9005C14.9604 15.7533 16.0103 15.7434 17.077 15.7324C17.1081 15.7321 17.107 15.6876 17.077 15.6848Z" fill="#231F20"/>
<path d="M17.5245 14.9949C16.7611 14.8202 15.9696 14.7456 15.194 14.6431C15.1457 14.6367 15.1339 14.7209 15.1824 14.7287C15.9549 14.8534 16.7337 15.0089 17.5155 15.061C17.5534 15.0636 17.5614 15.0033 17.5245 14.9949Z" fill="#231F20"/>
<path d="M14.8312 17.7087C13.9755 17.6922 13.1302 17.7752 12.2874 17.9201C12.2496 17.9266 12.2658 17.9835 12.3032 17.9775C13.1397 17.843 13.9848 17.7796 14.8311 17.7504C14.8579 17.7494 14.8581 17.7092 14.8312 17.7087Z" fill="#231F20"/>
<path d="M21.9752 17.9999C22.9555 18.5653 23.7624 19.3184 24.4638 20.2011C24.475 20.2151 24.4989 20.1966 24.4888 20.1818C23.851 19.2553 22.9732 18.513 21.9963 17.9638C21.9729 17.9507 21.952 17.9865 21.9752 17.9999Z" fill="#231F20"/>
<path d="M21.266 19.0547C21.2495 19.0409 21.2256 19.0644 21.2422 19.0786C22.0107 19.7377 22.704 20.4608 23.3946 21.1992C23.4079 21.2135 23.4274 21.1928 23.4156 21.1782C22.7803 20.3975 22.0354 19.7012 21.266 19.0547Z" fill="#231F20"/>
<path d="M21.2977 20.0304C22.0817 20.9112 22.6989 21.9035 23.2079 22.9647C23.2223 22.9947 23.275 22.9732 23.2623 22.9418C22.8152 21.841 22.1537 20.8495 21.3608 19.9674C21.3223 19.9245 21.2597 19.9877 21.2977 20.0304Z" fill="#231F20"/>
<path d="M22.6588 15.5597C22.6199 15.5416 22.5855 15.5989 22.6247 15.618C23.4184 16.004 24.149 16.4977 24.7997 17.0945C25.4585 17.6987 25.9631 18.3943 26.4748 19.1212C26.5061 19.1658 26.5735 19.1276 26.5484 19.0782C25.7562 17.5187 24.2184 16.2871 22.6588 15.5597Z" fill="#231F20"/>
<path d="M23.2041 14.4562C24.5255 15.0337 25.7973 15.6508 26.8101 16.6871C26.9388 16.9097 27.0528 17.1442 27.1498 17.3914C27.1744 17.4543 27.2762 17.4289 27.253 17.363C26.7785 16.017 25.7527 14.8151 24.3925 14.3147C24.3397 14.2953 24.3053 14.379 24.3543 14.4053C25.2508 14.8864 26.0253 15.5224 26.5869 16.3365C25.6723 15.4236 24.395 14.8984 23.2255 14.4054C23.1967 14.3933 23.1753 14.4436 23.2041 14.4562Z" fill="#231F20"/>
<path d="M23.9791 17.843C23.9163 17.8032 23.8594 17.902 23.9211 17.9423C24.853 18.552 25.5645 19.364 26.1853 20.2803C26.2076 20.3131 26.2558 20.2849 26.2384 20.2493C25.7461 19.243 24.9174 18.4398 23.9791 17.843Z" fill="#231F20"/>
<path d="M11.7984 22.6949C11.1694 22.4679 10.4904 22.4402 9.83042 22.5073C9.75424 22.515 9.75205 22.634 9.83042 22.6282C10.4926 22.5794 11.1218 22.6706 11.7704 22.7963C11.837 22.8092 11.8621 22.718 11.7984 22.6949Z" fill="#231F20"/>
<path d="M13.3167 21.1813C13.0265 21.1115 12.7352 21.0464 12.4441 20.98C12.4267 20.9761 12.4193 21.0029 12.4367 21.0068C12.7285 21.0708 13.02 21.1361 13.3125 21.1967C13.3225 21.1987 13.3267 21.1837 13.3167 21.1813Z" fill="#231F20"/>
<path d="M15.705 20.8328C15.1063 20.6009 14.5026 20.3831 13.8995 20.163C13.873 20.1533 13.8617 20.1955 13.8879 20.2051C14.4902 20.4259 15.0915 20.6488 15.6981 20.8577C15.7141 20.8631 15.7202 20.8387 15.705 20.8328Z" fill="#231F20"/>
<path d="M15.2276 25.4327C15.7192 26.4439 15.8624 27.4894 15.8627 28.6029C15.8627 28.6343 15.9068 28.6325 15.9103 28.6029C16.0418 27.5125 15.7456 26.3855 15.2549 25.4167C15.2458 25.3984 15.2188 25.4145 15.2276 25.4327Z" fill="#231F20"/>
<path d="M16.4854 25.3598C16.822 26.4142 17.2297 27.5767 16.8367 28.6724C16.822 28.7132 16.8888 28.742 16.9073 28.7022C17.4274 27.5819 17.031 26.3938 16.5687 25.3247C16.5482 25.2772 16.4699 25.311 16.4854 25.3598Z" fill="#231F20"/>
<path d="M16.1406 23.0855C16.1209 23.0675 16.0917 23.0963 16.1111 23.115C17.374 24.3246 18.5181 25.6032 18.5646 27.4434C18.5656 27.4828 18.6194 27.4803 18.6241 27.4434C18.8544 25.647 17.3414 24.1845 16.1406 23.0855Z" fill="#231F20"/>
<path d="M17.408 22.626C18.1114 23.0463 18.7964 23.5264 19.3261 24.1594C19.8988 24.8439 20.1786 25.6159 20.223 26.5022C20.2247 26.5371 20.2729 26.5359 20.2765 26.5022C20.4672 24.7101 18.7944 23.3889 17.423 22.6002C17.4064 22.5907 17.3916 22.6161 17.408 22.626Z" fill="#231F20"/>
<path d="M11.5492 28.3793C11.4935 27.5183 11.0535 26.6937 10.4904 26.0575C10.475 26.0402 10.4506 26.0654 10.4651 26.0828C11.0341 26.7658 11.3104 27.5299 11.5006 28.3859C11.5065 28.4128 11.5511 28.4074 11.5492 28.3793Z" fill="#231F20"/>
<path d="M12.5028 26.9384C13.3118 28.1853 13.06 29.7392 12.1564 30.8522C12.1293 30.8855 12.1711 30.9292 12.2041 30.8999C13.312 29.914 13.351 28.0878 12.5421 26.9155C12.5257 26.8915 12.4867 26.9136 12.5028 26.9384Z" fill="#231F20"/>
<path d="M11.6451 29.2519C11.6597 30.1941 11.147 30.8309 10.4492 31.3901C10.4109 31.4208 10.4522 31.4894 10.4974 31.4729C11.3625 31.1575 11.8218 30.1187 11.7918 29.2519C11.7886 29.1579 11.6437 29.1571 11.6451 29.2519Z" fill="#231F20"/>
<path d="M9.46546 26.834C9.80178 27.3823 9.91412 27.9636 9.92977 28.5998C9.93097 28.6501 10.0118 28.666 10.0212 28.6122C10.1365 27.9568 9.95514 27.3085 9.61262 26.7479C9.55553 26.6544 9.40795 26.7401 9.46546 26.834Z" fill="#231F20"/>
<path d="M9.4814 29.9603C9.38886 30.249 9.27744 30.5401 9.22507 30.8391C9.21669 30.8872 9.28491 30.9258 9.31021 30.875C9.44779 30.5985 9.53222 30.2937 9.63046 30.0014C9.66218 29.9071 9.51178 29.8656 9.4814 29.9603Z" fill="#231F20"/>
<path d="M8.70279 27.8036C8.73577 28.167 8.71103 28.5251 8.66162 28.886C8.65796 28.9129 8.69623 28.9256 8.7037 28.8976C8.79969 28.537 8.81273 28.1743 8.77812 27.8036C8.77368 27.7558 8.69842 27.7552 8.70279 27.8036Z" fill="#231F20"/>
<path d="M6.87027 25.0948C6.41378 25.0204 5.92728 25.0776 5.47354 25.1498C5.42181 25.1581 5.44408 25.2357 5.49518 25.2282C5.95385 25.1602 6.40117 25.177 6.8616 25.159C6.89649 25.1576 6.90833 25.101 6.87027 25.0948Z" fill="#231F20"/>
<path d="M8.46228 24.592C8.10552 24.4737 7.74707 24.3694 7.38481 24.2692C7.30094 24.246 7.26472 24.379 7.34894 24.3992C7.71507 24.4867 8.07958 24.5688 8.44959 24.6378C8.47947 24.6434 8.49159 24.6017 8.46228 24.592Z" fill="#231F20"/>
<path d="M3.67506 29.935C4.3477 29.9239 4.98588 29.4336 5.03535 28.7391C5.03719 28.7139 4.99955 28.7106 4.9925 28.7333C4.80771 29.3333 4.32078 29.8213 3.67506 29.8676C3.63228 29.8706 3.63122 29.9357 3.67506 29.935Z" fill="#231F20"/>
<path d="M6.12902 28.7452C6.12874 28.762 6.1534 28.7615 6.15481 28.7452C6.20182 28.1763 5.93126 27.6407 5.48133 27.3C5.47421 27.2946 5.46463 27.3069 5.47174 27.3124C5.92358 27.6659 6.13797 28.1773 6.12902 28.7452Z" fill="#231F20"/>
<path d="M5.70932 30.9513C6.59079 30.4399 7.50425 29.1602 6.63787 28.2233C6.60545 28.1883 6.55583 28.2397 6.586 28.2752C6.96052 28.7158 6.92767 29.3329 6.66627 29.8229C6.43116 30.2636 6.02267 30.5618 5.67211 30.903C5.64702 30.9275 5.67909 30.9688 5.70932 30.9513Z" fill="#231F20"/>
<path d="M5.66367 30.3724C5.43582 30.5545 5.19845 30.7202 4.95121 30.8598C5.49685 30.4807 5.90584 29.909 6.11213 29.2647C6.13454 29.1947 6.02762 29.1671 6.00317 29.2346C5.65754 30.1886 4.88342 30.8689 3.94994 31.2295C3.94078 31.233 3.93521 31.2392 3.93232 31.2462C3.64364 31.3006 3.34249 31.3102 3.02781 31.2624C2.99215 31.2569 2.97565 31.31 3.01251 31.3178C3.98362 31.5222 5.14123 31.2865 5.74304 30.4337C5.77877 30.383 5.70476 30.3396 5.66367 30.3724Z" fill="#231F20"/>
</svg>
