<svg width="136" height="100" viewBox="0 0 136 100" fill="none" xmlns="http://www.w3.org/2000/svg">
<path d="M3.20821 88.6195H4.46549V99.9783H3.20821V93.4968H1.25727V99.9783H0V88.6195H1.25727V92.2396H3.20821V88.6195Z" fill="black"/>
<path d="M11.8574 97.8106H9.60297L9.34284 100H8.08557L9.3862 88.6411H12.0742L13.3748 100H12.0958L11.8574 97.8106ZM11.7273 96.6617L10.947 89.8767H10.5134L9.73303 96.6617H11.7273Z" fill="black"/>
<path d="M20.073 100V92.7815L18.2088 94.6674V100H16.9298V88.6195H18.1871V93.1283L20.0513 91.1774V88.6195H21.3086V99.9783H20.073V100ZM20.3331 87.4272H17.9486V86.5818H20.3331V87.4272Z" fill="black"/>
<path d="M27.725 92.2179C28.0502 92.2179 28.3103 92.2612 28.5271 92.3479C28.7439 92.4347 28.9389 92.5647 29.069 92.7165C29.1991 92.8682 29.3075 93.0633 29.3725 93.2801C29.4375 93.4968 29.4809 93.7136 29.4809 93.952V98.2008C29.4809 98.5259 29.4375 98.786 29.3508 99.0028C29.2641 99.2196 29.134 99.4147 28.9823 99.5447C28.8306 99.6748 28.6355 99.7832 28.4187 99.8482C28.2019 99.9133 27.9852 99.9566 27.7467 99.9566H25.2755V88.6195H29.1774V89.8767H26.5328V92.2179H27.725ZM28.2236 93.9737C28.2236 93.8437 28.1802 93.7353 28.1152 93.6269C28.0502 93.5185 27.9201 93.4752 27.725 93.4752H26.5111V98.721H27.725C27.8768 98.721 27.9852 98.6777 28.0719 98.6126C28.1586 98.5476 28.2019 98.4175 28.2019 98.2224V93.9737H28.2236Z" fill="black"/>
<path d="M37.7182 88.6195V99.9783H36.4609V89.8768H35.0085L34.64 98.4175C34.6184 98.9378 34.51 99.328 34.3149 99.5881C34.1198 99.8482 33.7513 99.9783 33.231 99.9783H32.5374V98.721H33.0576C33.1877 98.721 33.2744 98.6993 33.3177 98.656C33.3611 98.6126 33.3828 98.5259 33.3828 98.3959L33.8163 88.5978H37.7182V88.6195Z" fill="black"/>
<path d="M44.785 100V92.7815L42.9207 94.6674V100H41.6635V88.6195H42.9207V93.1283L44.785 91.1774V88.6195H46.0422V99.9783H44.785V100Z" fill="black"/>
<path d="M50.9846 92.8899L49.5539 88.6411H50.8762L52.1118 92.3696H53.0873V88.6195H54.3445V92.3479H55.2983L56.5339 88.6195H57.8779L56.4472 92.8682L57.9646 99.9783H56.664L55.255 93.3884H54.3229V99.9783H53.0656V93.3884H52.1335L50.7245 99.9783H49.4238L50.9846 92.8899Z" fill="black"/>
<path d="M65.3999 88.6195V99.9783H64.1209V96.3799H62.842C62.6035 96.3799 62.3651 96.3365 62.17 96.2715C61.9532 96.2065 61.7798 96.0981 61.6064 95.968C61.4546 95.838 61.3246 95.6429 61.2379 95.4261C61.1511 95.2093 61.1078 94.9275 61.1078 94.624V88.6195H62.3651V94.624C62.3651 94.8191 62.4084 94.9275 62.5168 95.0142C62.6252 95.0793 62.7336 95.1226 62.8636 95.1226H64.1426V88.6195H65.3999Z" fill="black"/>
<path d="M72.8568 97.8106H70.6024L70.3422 100H69.085L70.3856 88.6411H73.0736L74.3742 100H73.0952L72.8568 97.8106ZM72.7267 96.6617L71.9463 89.8767H71.5128L70.7324 96.6617H72.7267Z" fill="black"/>
<path d="M86.7518 88.6195V99.9783H85.4946V89.8767H83.6954V99.9783H82.4381V88.6195H86.7518Z" fill="black"/>
<path d="M94.4689 88.6195V89.8767H91.9544V92.2179H93.862V93.4968H91.9544V98.721H94.4689V99.9783H90.6754V88.6195H94.4689Z" fill="black"/>
<path d="M98.1323 88.6195H99.3896V92.3479H100.473L101.709 88.6195H103.053L101.622 92.8682L103.14 99.9783H101.839L100.43 93.3884H99.3679V99.9783H98.1106V88.6195H98.1323Z" fill="black"/>
<path d="M109.946 97.8106H107.692L107.432 100H106.175L107.475 88.6411H110.163L111.464 100H110.185L109.946 97.8106ZM109.816 96.6617L109.036 89.8767H108.602L107.822 96.6617H109.816Z" fill="black"/>
<path d="M119.224 94.624C119.224 94.9492 119.181 95.2093 119.094 95.4261C119.007 95.6429 118.877 95.838 118.704 95.968C118.531 96.0981 118.357 96.2065 118.14 96.2715C117.924 96.3365 117.707 96.3799 117.468 96.3799H116.298V99.9783H115.041V88.6195H117.468C117.794 88.6195 118.054 88.6628 118.27 88.7495C118.487 88.8362 118.682 88.9663 118.812 89.118C118.964 89.2698 119.051 89.4649 119.116 89.6817C119.181 89.8984 119.224 90.1152 119.224 90.3536V94.624ZM117.945 90.3753C117.945 90.2453 117.902 90.1369 117.837 90.0285C117.772 89.9201 117.642 89.8767 117.447 89.8767H116.276V95.1226H117.447C117.598 95.1226 117.707 95.0793 117.794 95.0142C117.88 94.9492 117.924 94.8191 117.924 94.624V90.3753H117.945Z" fill="black"/>
<path d="M126.161 88.6195H127.418V99.9783H126.161V93.4968H124.21V99.9783H122.953V88.6195H124.21V92.2396H126.161V88.6195Z" fill="black"/>
<path d="M135.525 88.6195V99.9783H134.268V94.5373H133.553L132.317 99.9783H131.016L132.274 94.4506C131.949 94.3422 131.688 94.1688 131.493 93.9087C131.277 93.6486 131.19 93.2801 131.19 92.7815V90.3536C131.19 90.1152 131.233 89.8768 131.298 89.6817C131.363 89.4649 131.472 89.2915 131.602 89.118C131.732 88.9663 131.927 88.8362 132.144 88.7495C132.36 88.6628 132.642 88.6195 132.946 88.6195H135.525ZM134.268 89.8767H132.924C132.729 89.8767 132.621 89.9201 132.534 90.0285C132.469 90.1369 132.425 90.2453 132.425 90.3753V92.8032C132.425 92.9766 132.469 93.1066 132.577 93.1717C132.686 93.2584 132.794 93.2801 132.924 93.2801H134.268V89.8767Z" fill="black"/>
<path d="M135.027 24.2818C134.528 23.5231 133.878 22.6777 133.054 21.7456C132.23 20.8135 131.32 19.9464 130.344 19.1443C129.369 18.364 128.524 17.9304 127.808 17.9088C124.99 17.8437 121.782 17.9304 118.184 18.2122C114.585 18.494 110.792 18.8842 106.825 19.4045C102.858 19.903 98.7826 20.51 94.6423 21.182C90.5019 21.854 86.4917 22.591 82.6115 23.3497C78.7312 24.1301 75.0678 24.9105 71.6428 25.6908C68.2178 26.4712 65.2264 27.2299 62.6685 27.9453C62.4084 28.032 62.5168 28.3571 62.972 28.9641C63.4489 29.571 64.0558 30.2214 64.7712 30.915C65.5082 31.6087 66.2452 32.2156 66.9822 32.7576C67.7193 33.2778 68.2395 33.4946 68.543 33.3862C69.0632 33.1694 69.9303 32.8876 71.1226 32.6058C72.3148 32.3024 73.7672 31.9555 75.5014 31.587C77.2355 31.2185 79.1865 30.8066 81.3542 30.3948C83.5219 29.9829 85.8197 29.571 88.2692 29.1592C86.5784 32.5408 84.9092 35.9875 83.3051 39.4992C81.6793 43.0109 80.292 46.4792 79.1214 49.9475C78.7746 50.9664 78.4711 52.0069 78.1676 53.004C78.0593 53.069 77.8208 53.3942 77.474 53.9795C77.0621 54.6298 76.5635 55.4752 75.9566 56.4723C75.3496 57.4912 74.6776 58.5967 73.9623 59.7889C73.2469 60.9812 72.5533 62.1301 71.9029 63.2139C71.2526 64.2978 70.6674 65.2082 70.1688 65.9886C69.6702 66.769 69.3234 67.2459 69.15 67.4193C69.0633 67.506 69.1283 67.0074 69.3451 65.9236C69.5618 64.8397 69.887 63.4741 70.3205 61.7832C70.7541 60.0924 71.296 58.2065 71.9029 56.1255C72.5099 54.0445 73.1386 52.0285 73.8105 50.0776C74.4609 48.1267 75.1328 46.3925 75.8048 44.8534C76.4768 43.3143 77.1055 42.2305 77.7124 41.6018C77.7558 41.5585 77.6474 41.4718 77.3656 41.32C77.0838 41.1683 76.6936 41.0166 76.195 40.8865C75.6965 40.7348 75.1112 40.5613 74.4609 40.3879C73.8105 40.1928 73.1169 39.9977 72.4015 39.781C70.7107 39.3257 68.8031 38.8272 66.6354 38.3286C66.2886 38.4587 65.8984 38.9572 65.4432 39.8243C64.988 40.6914 64.5111 41.7969 64.0558 43.1409C63.6006 44.4849 63.1237 46.024 62.6251 47.7365C62.1482 49.449 61.7147 51.2048 61.3245 53.0257C60.8259 53.7844 60.0672 54.9333 59.0701 56.4507C58.073 57.9681 57.0758 59.5071 56.057 61.0679C55.0382 62.6286 54.106 64.0377 53.2823 65.2732C52.4369 66.5088 51.895 67.2459 51.6348 67.4626C51.5481 67.5493 51.6132 67.0508 51.8299 65.9669C52.0467 64.8831 52.3719 63.5174 52.8054 61.8266C53.239 60.1358 53.7809 58.2499 54.3878 56.1689C54.9948 54.0879 55.6234 52.0719 56.2954 50.1209C56.9457 48.17 57.6177 46.4358 58.2897 44.8968C58.9617 43.3577 59.5904 42.2738 60.1973 41.6452C60.2407 41.6018 60.1323 41.5151 59.8505 41.3634C59.5687 41.2117 59.1785 41.0599 58.6799 40.9299C58.1813 40.7781 57.5961 40.6047 56.9457 40.4313C56.2954 40.2362 55.6018 40.0411 54.8864 39.8243C53.1956 39.3691 51.288 38.8705 49.1203 38.372C48.7084 38.502 48.1882 39.1957 47.6029 40.4963C47.3645 41.0382 47.1043 41.6235 46.8659 42.2738C46.6491 42.6207 46.4323 42.9892 46.2806 43.2927C45.8037 44.1597 45.3268 45.1135 44.6331 46.3058C43.9395 47.498 42.899 49.0154 42.0752 50.316C40.818 52.267 39.5824 54.0228 38.065 56.0388C36.5476 58.0548 35.0085 60.0057 33.4044 61.6532C31.8003 63.3006 30.478 64.5579 28.9389 65.6634C27.5732 66.6606 25.2755 67.5493 23.4763 67.2242C20.745 66.7473 17.7318 63.7775 15.9326 61.1112C14.0684 58.3366 12.9412 55.3885 12.5944 52.2236C12.2258 49.0804 12.4643 45.8289 13.288 42.5123C14.1118 39.1957 15.2823 35.9658 16.778 32.8443C18.2738 29.7228 19.9863 26.7747 21.9155 24.0434C23.8231 21.3121 25.6873 18.9276 27.4865 16.955C29.2857 14.9607 29.6543 14.4404 31.0416 13.4216C32.4072 12.4244 33.903 11.0371 35.0085 11.4056C35.0519 11.4273 35.0735 11.4273 35.0952 11.449C35.8322 12.0343 35.6371 13.0097 35.4204 14.7872C35.2036 16.5864 34.64 18.3856 34.1414 20.9652C33.6212 23.5448 32.6674 26.6013 31.5835 29.4627C30.543 32.194 29.7193 34.275 28.7221 36.7678C27.9418 38.6971 27.1397 40.1928 26.0558 42.6423C25.6006 43.6828 31.822 43.6612 33.6212 42.7507C35.8756 41.6235 36.9811 39.8026 38.5202 37.4398C40.0376 35.077 41.4249 32.6275 42.6605 30.0479C43.8961 27.4684 44.9149 25.0839 45.717 22.8511C46.519 20.6184 47.1043 18.7325 47.3645 17.1717C47.733 14.7656 47.6029 13.595 47.3428 12.251C46.7358 8.99946 44.3947 5.79124 42.7472 4.16546C38.2384 -0.256674 34.4015 -0.169965 30.1311 0.111838C28.9606 0.176869 25.5356 0.762153 23.8231 1.86769C22.1106 2.95154 20.2681 4.53397 18.3388 6.57162C16.3879 8.60927 14.4369 11.0371 12.4426 13.8551C10.4483 16.6732 8.62744 19.7296 6.95831 23.0245C5.28917 26.3195 3.85848 29.7878 2.66624 33.3862C1.47399 37.0063 0.693619 40.648 0.346785 44.3115C-0.021726 47.9749 0.15169 51.5733 0.823681 55.1284C1.49567 58.6617 2.55785 61.7182 4.05357 64.4712C5.28917 66.6172 7.69533 69.9338 11.3588 72.7519C13.1796 74.1609 15.4991 75.4181 18.1654 76.2202C20.3764 76.8705 22.6525 77.109 24.4951 76.9789C25.8608 76.8922 27.725 76.4803 29.0473 75.8734C30.6731 75.093 31.8436 74.3126 33.3827 73.1854C35.5504 71.5813 36.8077 70.2156 38.2601 68.5682C39.7558 66.8774 40.818 65.6201 42.1836 63.9076C42.2703 63.8209 42.3354 63.7125 42.4004 63.6041C42.3787 63.8859 42.357 64.1894 42.357 64.4712C42.2703 66.2487 42.4004 67.5277 42.7472 68.3297C43.1591 69.3052 43.8961 70.1723 44.9366 70.931C45.9771 71.6897 47.061 72.3183 48.1882 72.7952C49.3371 73.2721 50.3993 73.6406 51.3747 73.8791C52.3719 74.1175 53.0439 74.2042 53.434 74.1609C53.6508 74.1175 53.9543 73.8791 54.3878 73.4238C54.7997 72.9903 55.2983 72.3833 55.8836 71.6246C56.4472 70.8659 57.0758 69.9989 57.7478 69.0234C58.4198 68.0479 59.0918 67.0508 59.7638 65.9886C59.8505 67.0508 60.0022 67.8311 60.1973 68.3297C60.6092 69.3052 61.3462 70.1723 62.3867 70.931C63.4272 71.6897 64.5111 72.3183 65.6383 72.7952C66.7872 73.2721 67.8493 73.6406 68.8681 73.8791C69.887 74.1175 70.559 74.2042 70.8841 74.1609C71.1876 74.1175 71.7079 73.6406 72.4882 72.7085C73.2686 71.7764 74.1574 70.6058 75.1545 69.1968C75.5664 68.6115 75.9566 68.0262 76.3684 67.4193C76.4335 68.2864 76.5202 69.1318 76.6502 69.9989C76.6502 70.1072 76.802 70.259 77.1055 70.4324C77.4089 70.6058 77.7991 70.8009 78.2977 71.0177C78.7963 71.2345 79.3165 71.4729 79.9018 71.733C80.4871 71.9715 81.0941 72.2099 81.7444 72.4484C83.2184 73.012 84.8659 73.6189 86.7084 74.2476C86.7735 71.1694 87.207 67.7878 87.9874 64.1677C88.7677 60.526 89.7866 56.7758 91.0872 52.8739C92.3878 48.9721 93.9269 44.9835 95.7261 40.9299C97.5253 36.8546 99.4762 32.8443 101.622 28.8991C101.687 28.834 101.406 28.6823 100.712 28.4655C100.04 28.2487 99.1944 28.032 98.219 27.7502C101.731 27.2516 105.264 26.7964 108.841 26.3628C112.417 25.9293 115.864 25.6041 119.159 25.3657C122.454 25.1489 125.51 25.0188 128.35 25.0188C131.168 25.0188 133.596 25.1923 135.59 25.5174C135.655 25.3874 135.504 25.0405 135.027 24.2818Z" fill="black"/>
<path d="M120.937 49.3406C120.72 48.2567 120.481 47.3679 120.2 46.6526C119.918 45.9373 119.636 45.4604 119.354 45.2002C118.682 44.7017 117.923 44.2464 117.1 43.8346C116.276 43.4444 115.517 43.1192 114.845 42.8808C114.173 42.6423 113.61 42.5123 113.176 42.4689C112.743 42.4256 112.547 42.5123 112.634 42.729C112.894 43.5744 113.024 44.68 113.068 46.024C113.111 47.3679 113.068 48.842 112.938 50.4461C112.808 52.0502 112.569 53.6977 112.244 55.4101C111.897 57.1226 111.464 58.7268 110.922 60.2442C109.274 59.7889 108.06 58.7484 107.28 57.166C106.5 55.5836 106.456 53.4592 107.193 50.8146C107.779 49.2105 108.45 47.6931 109.188 46.2841C109.925 44.8751 110.77 43.6395 111.745 42.5773C111.919 42.4039 111.724 42.1438 111.203 41.7752C110.683 41.4067 109.99 41.0382 109.144 40.6697C108.299 40.2795 107.367 39.9327 106.326 39.5859C105.286 39.239 104.332 38.9789 103.443 38.7621C102.858 38.6321 102.077 39.1306 101.124 40.2578C100.17 41.3851 99.216 42.8591 98.2839 44.68C97.3301 46.5225 96.4631 48.5819 95.6827 50.8796C94.9023 53.1774 94.3604 55.4535 94.0352 57.6862C93.7101 59.919 93.7534 61.9783 94.1219 63.8642C94.5121 65.7501 95.3575 67.1808 96.7232 68.1997C97.6986 68.9584 98.7608 69.7171 99.9531 70.4541C101.124 71.1911 102.294 71.8414 103.465 72.4267C104.635 72.9903 105.741 73.4238 106.781 73.7273C107.844 74.0308 108.754 74.1175 109.513 73.9874C110.987 73.7273 112.309 73.3155 113.48 72.7302C114.65 72.1449 115.669 71.4079 116.558 70.5191C117.446 69.6303 118.184 68.6332 118.812 67.5493C119.137 66.9641 120.308 63.9726 120.915 60.4609C121.457 57.2961 121.457 53.5893 121.413 52.9606C121.305 51.6167 121.153 50.4244 120.937 49.3406ZM107.323 66.5522C106.348 67.506 105.264 68.0262 104.028 68.1129C103.942 68.1997 103.898 68.0262 103.877 67.6144C103.855 67.2025 103.877 66.5739 103.942 65.7718C104.007 64.9698 104.115 64.016 104.288 62.9321C104.462 61.8266 104.679 60.656 104.917 59.3771C105.589 60.0924 106.348 60.7427 107.172 61.3497C107.995 61.935 108.884 62.4769 109.86 62.9321C109.144 64.4062 108.299 65.5984 107.323 66.5522Z" fill="black"/>
</svg>
