<svg width="52" height="52" viewBox="0 0 52 52" fill="none" xmlns="http://www.w3.org/2000/svg">
<path d="M25.9625 51.925C19.0582 51.925 12.4962 49.2432 7.58904 44.336C2.68184 39.4288 0 32.9239 0 25.9625C0 19.0582 2.68184 12.4962 7.58904 7.58904C12.4962 2.68184 19.0011 0 25.9625 0C32.8668 0 39.4288 2.68184 44.336 7.58904C49.2432 12.4962 51.925 19.0011 51.925 25.9625C51.925 32.8668 49.2432 39.4288 44.336 44.336C39.3717 49.2432 32.8668 51.925 25.9625 51.925ZM25.9625 0.970026C19.2864 0.970026 13.0098 3.59481 8.27377 8.27377C3.53775 13.0098 0.970026 19.2864 0.970026 25.9625C0.970026 32.6386 3.59481 38.9152 8.27377 43.6513C13.0098 48.3873 19.2864 50.955 25.9625 50.955C32.6386 50.955 38.9152 48.3302 43.6513 43.6513C48.3873 38.9152 50.955 32.6386 50.955 25.9625C50.955 19.2864 48.3302 13.0098 43.6513 8.27377C38.9152 3.53775 32.6386 0.970026 25.9625 0.970026Z" fill="black"/>
<path d="M25.7018 51.092L0.76709 26.1572L0.121528 26.8028L25.0563 51.7375L25.7018 51.092Z" fill="black"/>
<path d="M33.4027 50.0423L1.93164 18.5713L1.28608 19.2169L32.7571 50.6879L33.4027 50.0423Z" fill="black"/>
<path d="M39.2329 47.5989L4.41309 12.7791L3.76752 13.4246L38.5874 48.2445L39.2329 47.5989Z" fill="black"/>
<path d="M44.1411 43.821L8.11084 7.79077L7.46528 8.43633L43.4956 44.4666L44.1411 43.821Z" fill="black"/>
<path d="M51.4689 25.3808L26.5342 0.446045L25.8886 1.09161L50.8233 26.0263L51.4689 25.3808Z" fill="black"/>
<path d="M50.4154 33.0587L18.9443 1.58765L18.2988 2.23321L49.7698 33.7042L50.4154 33.0587Z" fill="black"/>
<path d="M47.9605 38.8633L13.1406 4.04346L12.4951 4.68902L47.3149 39.5089L47.9605 38.8633Z" fill="black"/>
<path d="M50.2453 17.0805L34.8325 1.66772L34.187 2.31328L49.5997 17.726L50.2453 17.0805Z" fill="black"/>
<path d="M17.6803 49.7167L2.26758 34.304L1.62202 34.9495L17.0347 50.3622L17.6803 49.7167Z" fill="black"/>
<path d="M25.8047 0.907522L25.1592 0.261963L0.224454 25.1967L0.870013 25.8422L25.8047 0.907522Z" fill="black"/>
<path d="M33.4317 2.03252L32.7861 1.38696L1.31511 32.858L1.96067 33.5035L33.4317 2.03252Z" fill="black"/>
<path d="M39.1832 4.55327L38.5376 3.90771L3.71773 38.7276L4.36329 39.3731L39.1832 4.55327Z" fill="black"/>
<path d="M44.252 8.25152L43.6064 7.60596L7.57616 43.6362L8.22172 44.2818L44.252 8.25152Z" fill="black"/>
<path d="M51.5967 26.6746L50.9512 26.0291L26.0164 50.9638L26.662 51.6093L51.5967 26.6746Z" fill="black"/>
<path d="M50.4151 19.0447L49.7695 18.3992L18.2985 49.8702L18.9441 50.5158L50.4151 19.0447Z" fill="black"/>
<path d="M47.9185 13.2818L47.2729 12.6362L12.4531 47.4561L13.0986 48.1017L47.9185 13.2818Z" fill="black"/>
<path d="M50.2134 35.1336L49.5679 34.488L34.4779 49.578L35.1235 50.2235L50.2134 35.1336Z" fill="black"/>
<path d="M17.6583 2.4085L17.0127 1.76294L1.59997 17.1757L2.24553 17.8212L17.6583 2.4085Z" fill="black"/>
</svg>
