<svg width="186" height="79" viewBox="0 0 186 79" fill="none" xmlns="http://www.w3.org/2000/svg">
<path d="M185.812 49.4958C185.296 44.4341 183.689 39.5699 181.364 35.0574C177.229 27.0313 170.016 17.166 160.209 16.3349C158.858 16.2202 157.586 16.2946 156.38 16.5212C152.262 10.5378 143.321 7.96104 136.409 8.44282C136.288 6.95893 136.123 5.40542 135.396 4.09076C133.82 1.23829 130.545 0.941446 127.623 0.768797C119.228 0.273369 110.812 0.0379374 102.402 0.00176978C99.4506 -0.0108548 96.0672 -0.0135828 93.7685 2.14556C92.8779 2.98185 92.2979 3.99761 91.9004 5.09732C91.8724 5.0864 91.8482 5.07206 91.8185 5.06285C87.8455 3.83179 83.5798 4.40399 79.6099 5.35561C76.5377 6.09192 72.9554 6.72929 70.4608 8.81201C70.0828 8.0965 69.7105 7.37792 69.3441 6.65628C69.1404 6.25502 68.6337 5.97728 68.1891 5.994C57.4613 6.39423 46.989 10.082 38.4545 16.5822C38.3259 16.5174 38.1201 16.5891 38.1358 16.7638C38.1375 16.7836 38.1409 16.8037 38.143 16.8235C37.7247 17.1473 37.3094 17.4755 36.901 17.813C36.338 18.2777 35.8235 18.7632 35.3895 19.2798C35.3448 19.1631 35.1353 19.189 35.1506 19.3259C35.1585 19.3979 35.1701 19.4695 35.1789 19.5415C34.4597 20.4791 34.0274 21.527 34.0915 22.7567C30.6829 23.6592 27.0815 25.1581 24.9275 27.9618C24.0376 27.1794 23.1239 26.3506 22.0658 25.8064C19.3177 24.3931 17.4872 26.3475 15.6 28.2033C12.6178 31.1363 9.98068 34.4573 7.5902 37.8833C4.39892 42.4571 1.62765 47.438 0.0908707 52.825C-0.0575531 53.3453 0.0922313 53.7725 0.382937 54.0646C-0.711987 60.5618 0.324597 67.6134 6.34003 71.3254C10.8845 74.1294 16.6778 75.2178 21.8341 76.2766C27.6643 77.4735 33.579 78.2351 39.5235 78.5395C51.9044 79.1731 64.4208 78.447 76.7932 77.8861C89.2295 77.3224 101.653 76.5038 114.057 75.4471C125.775 74.4488 137.544 73.434 149.154 71.5103C154.77 70.5795 160.351 69.3979 165.814 67.7888C170.945 66.278 176.347 64.5214 181.011 61.8549C182.984 60.7269 184.6 59.1686 185.365 56.9873C186.189 54.6333 186.06 51.9378 185.812 49.4958ZM136.692 14.7077C136.677 13.0225 136.617 11.3359 136.5 9.6541C142.74 10.8289 149.714 12.224 154.002 17.1916C147.126 19.7885 142.513 27.3916 137.623 32.5639C137.406 32.7942 137.185 33.0211 136.962 33.2439C137.787 31.7198 138.681 30.2198 139.688 28.8165C141.005 26.9828 142.585 25.3495 143.971 23.5698C144.128 23.3678 143.925 23.0023 143.669 23.1781C140.047 25.6566 137.265 29.7056 135.25 33.5425C135.03 33.9629 135.273 34.3556 135.607 34.5084C135.236 34.8319 134.853 35.1407 134.462 35.4403C135.979 28.6387 136.757 21.6812 136.692 14.7077ZM80.0968 7.12338C83.8657 6.31609 87.5289 5.93053 91.291 6.97564C91.3241 6.98486 91.3545 6.98622 91.3865 6.99236C91.1671 8.11117 91.0559 9.26103 90.9467 10.3604C90.0999 18.9096 89.5843 27.4888 89.368 36.0763C82.2812 28.2105 76.2319 19.4685 71.1879 10.1621C73.7299 8.33602 77.1044 7.76451 80.0968 7.12338ZM28.2788 27.7035C29.2662 28.552 30.1919 29.4572 31.093 30.3962C31.9266 31.2649 32.7103 32.2319 33.7292 32.8891C34.042 33.0907 34.4856 32.755 34.3683 32.3977C33.5975 30.0503 31.2254 28.203 29.3427 26.7297C30.9777 25.8678 32.7103 25.2649 34.5385 24.6623C34.8654 25.5204 35.312 26.3591 35.8201 27.1797C35.3311 26.9927 34.6961 27.4772 35.0585 28.0177C36.9423 30.8265 38.5825 33.7493 40.7948 36.3189C40.9586 36.5089 41.309 36.3073 41.2227 36.0698C40.8573 35.0639 40.4086 34.113 39.9125 33.191C42.247 36.771 44.5818 40.3512 46.9164 43.9311C43.3361 41.3816 39.8169 38.7465 36.2759 36.1408C33.6886 34.2365 31.0797 32.3636 28.4333 30.5416C27.6612 30.01 26.8867 29.4934 26.1401 28.9369C26.7717 28.3732 27.4217 27.888 28.0887 27.4605C28.1273 27.5445 28.1894 27.6267 28.2788 27.7035ZM20.2386 27.9409C20.2284 27.942 20.2212 27.9426 20.2117 27.9437C20.2127 27.943 20.2144 27.942 20.2154 27.9416C20.2233 27.9413 20.2274 27.942 20.2386 27.9409ZM99.932 73.8251C98.0243 73.9646 96.1163 74.099 94.208 74.2277C94.6993 74.1328 95.1896 74.0352 95.6786 73.9336C97.0956 73.8841 98.5133 73.8483 99.932 73.8251ZM88.3553 74.6061C87.101 74.6835 85.8468 74.7596 84.5921 74.8323C82.8387 74.9343 81.0842 75.0312 79.3297 75.1261C80.4052 75.0131 81.4783 74.9022 82.547 74.7975C85.6048 74.4979 88.6631 74.2727 91.7243 74.1096C90.6014 74.2809 89.4785 74.4467 88.3553 74.6061ZM180.998 58.5333C179.071 60.111 176.412 61.0289 174.13 61.9494C171.739 62.914 169.305 63.7745 166.845 64.545C161.81 66.121 156.662 67.3149 151.475 68.2655C140.792 70.2233 129.936 71.2271 119.13 72.234C113.802 72.7305 108.469 73.1792 103.134 73.5862C103.118 73.5166 103.066 73.4542 102.974 73.448C101.44 73.3416 99.9051 73.2846 98.369 73.2645C98.3915 73.1717 98.3154 73.0522 98.1891 73.0734C97.8148 73.1362 97.4409 73.1972 97.0666 73.259C88.215 73.2665 79.3431 74.5041 70.568 75.5611C68.8954 75.6365 67.2228 75.7065 65.5495 75.772C66.7506 75.5962 67.9499 75.4086 69.1468 75.2042C69.1591 75.2022 69.154 75.1837 69.1417 75.1858C67.8748 75.4004 66.6059 75.5976 65.3353 75.7805C60.3394 75.9746 55.3421 76.1237 50.3451 76.2053C49.9026 76.2125 49.4604 76.2155 49.0179 76.22C43.5767 75.8569 38.1515 75.2564 32.7608 74.4054C26.7242 73.4528 20.744 72.217 14.8309 70.672C14.7712 70.6563 14.7456 70.7484 14.8053 70.7645C24.5095 73.3849 34.4177 75.211 44.4068 76.2104C38.0891 76.1173 31.8089 75.6768 25.5836 74.7026C22.9734 73.9837 20.4086 73.0962 17.9048 72.0167C17.8656 71.9996 17.8311 72.0573 17.8707 72.0747C20.1199 73.0594 22.3988 73.8773 24.6999 74.5655C21.8911 74.1025 19.0936 73.5289 16.3093 72.826C11.887 71.7096 6.59455 70.4369 3.82329 66.4646C1.55599 63.215 1.37515 58.8981 1.89685 55.0984C1.92995 54.8568 1.96681 54.6159 2.00571 54.375C2.31484 54.2348 2.57279 53.9659 2.69357 53.5425C2.73008 53.4146 2.77409 53.288 2.81197 53.16C5.09428 55.7378 9.02564 57.5213 12.3159 58.2487C12.5114 58.2921 12.6625 58 12.4602 57.9069C10.8221 57.1528 9.16826 56.4192 7.58097 55.5597C5.98619 54.6961 4.57464 53.5241 2.98121 52.6779C2.97507 52.6748 2.96961 52.6748 2.96347 52.6721C4.99875 46.1681 8.90928 40.0465 13.3548 34.7582C14.0093 34.0751 14.6644 33.392 15.312 32.7018C16.1657 31.7914 16.9924 30.8603 17.7939 29.9076C17.7953 29.9063 17.7966 29.9053 17.7977 29.9039C20.9504 32.3681 24.1069 34.8305 27.4312 37.061C27.5656 37.1511 27.7301 36.9419 27.6056 36.8348C24.5955 34.243 21.4103 31.8702 18.2221 29.5037C18.5596 29.1901 18.9028 28.8833 19.2607 28.5978C19.5293 28.3838 19.8053 28.1764 20.1052 28.0078C20.2055 28.0279 20.3673 28.0488 20.4181 28.074C20.7061 28.2153 20.9831 28.3596 21.254 28.5322C22.2296 29.1532 23.0573 30.0049 23.9591 30.7248C24.9442 31.5113 26.0313 32.1589 27.0747 32.8642C29.5597 34.5439 31.9887 36.3073 34.4065 38.0815C39.922 42.1289 45.3687 46.2694 51.0743 50.0503C52.1859 50.7869 53.6337 49.3239 52.91 48.2146C49.5631 43.0836 46.2159 37.9522 42.869 32.8212C41.2578 30.3512 39.6132 27.9 38.0345 25.4095C37.4039 24.4149 36.4387 23.1296 36.8082 21.8825C37.0552 21.0493 37.928 20.3113 38.7469 19.6933C39.6668 22.5004 41.5052 25.0871 43.9844 26.5976C44.1451 26.6955 44.3304 26.4642 44.1878 26.3339C41.9041 24.245 40.2581 22.0313 39.2669 19.3071C39.4143 19.1983 39.5546 19.0935 39.6818 18.9942C41.7007 17.4196 43.8418 16.0148 46.0767 14.7851C47.2637 16.6443 48.4552 18.4988 49.6825 20.3324C49.7269 20.3986 49.8326 20.3386 49.7903 20.2693C48.6367 18.3927 47.4493 16.5399 46.2555 14.6892C52.7418 11.1561 60.0128 9.10851 67.4016 8.71374C72.0785 17.7802 77.8315 26.2151 84.4236 33.9748C84.3311 34.0024 84.2588 34.0867 84.296 34.2061C84.8378 35.9374 85.6553 37.5602 86.8956 38.8963C86.9939 39.0021 87.185 38.8612 87.099 38.7394C86.1405 37.3763 85.3223 35.9667 84.7771 34.3934C86.3531 36.2346 87.9759 38.0375 89.643 39.8015C90.3496 40.5491 91.6083 39.9602 91.6244 38.9809C91.7451 31.6461 92.0826 24.316 92.6579 17.0026C92.9213 13.6557 92.9401 10.0806 93.7654 6.81562C94.657 3.29064 97.3832 2.3687 100.717 2.29023C105.186 2.18548 109.675 2.28818 114.156 2.4755C114.732 5.21264 115.265 7.97571 116.063 10.6535C116.117 10.835 116.369 10.7562 116.341 10.5771C115.917 7.85697 115.227 5.1734 114.581 2.49427C117.165 2.60516 119.745 2.74164 122.318 2.88256C122.415 2.88802 122.512 2.89382 122.609 2.89928C122.741 6.00935 122.432 9.04061 122.141 12.1394C122.124 12.325 122.416 12.3575 122.462 12.1828C123.254 9.17266 123.318 6.02232 123.121 2.92862C124.622 3.01324 126.123 3.10366 127.623 3.20534C127.861 3.22137 128.108 3.23536 128.357 3.25004C128.336 5.3638 128.309 7.47653 128.398 9.58927C128.403 9.71278 128.585 9.71278 128.59 9.58927C128.679 7.48199 128.653 5.37471 128.632 3.26641C129.792 3.34011 131.012 3.47045 131.987 4.05357C133.487 4.95025 133.679 6.66788 133.797 8.26471C133.94 10.1929 134.019 12.1288 134.042 14.0618C134.14 22.1251 133.17 30.1605 131.184 37.9737C130.902 39.0816 132.094 39.9895 133.09 39.4388C141.214 34.9479 144.721 25.4147 152.694 20.7995C155.874 18.9591 158.957 18.683 161.841 19.4084C158.49 23.1296 155.003 26.428 150.987 29.4914C150.816 29.6221 150.964 29.9059 151.161 29.7896C155.464 27.2561 159.494 23.6459 162.448 19.575C166.788 20.8882 170.651 24.4279 173.682 28.2265C170.756 32.5219 166.964 36.1244 162.615 38.9833C162.45 39.0915 162.595 39.3436 162.77 39.2484C167.412 36.7256 171.192 33.058 174.003 28.6346C174.662 29.4804 175.279 30.3355 175.851 31.1783C177.533 33.6599 179.017 36.283 180.208 39.0311C180.119 39.0188 180.023 39.0458 179.957 39.1379C177.082 43.1658 173.426 46.1145 169.361 48.867C169.159 49.0031 169.332 49.2915 169.55 49.1901C174.002 47.1149 177.635 43.435 180.378 39.4208C181.107 41.1513 181.719 42.9314 182.189 44.7568C183.209 48.7213 184.681 55.5191 180.998 58.5333Z" fill="#231F20"/>
<path d="M37.6948 34.0193C36.7476 31.0958 34.351 28.7582 31.9776 26.942C31.3774 26.4827 30.5704 27.5173 31.1635 27.997C33.4676 29.861 35.2197 32.1706 37.2881 34.2557C37.4546 34.4236 37.7709 34.2543 37.6948 34.0193Z" fill="#231F20"/>
<path d="M76.8892 9.76776C76.4343 9.20238 75.4291 9.966 75.8744 10.5508C77.1976 12.2889 78.43 14.0905 79.5417 15.9715C80.5496 17.6772 81.318 19.7029 82.661 21.1715C82.9916 21.5332 83.4539 21.135 83.3987 20.7419C83.1114 18.6903 81.7298 16.6993 80.6438 14.9824C79.497 13.1685 78.2332 11.4393 76.8892 9.76776Z" fill="#231F20"/>
<path d="M85.5208 18.6662C85.7207 18.9511 86.3083 18.8961 86.2598 18.4659C85.9667 15.8505 84.6872 13.4307 83.766 10.9952C83.4572 10.179 82.1333 10.5329 82.4458 11.3593C83.3674 13.7955 84.0062 16.5108 85.5208 18.6662Z" fill="#231F20"/>
<path d="M88.0824 16.2837C88.2666 16.6273 88.9088 16.4926 88.8573 16.0739C88.5809 13.8305 87.8207 11.6311 87.3232 9.42861C87.1328 8.58652 85.8301 8.94274 86.0277 9.78585C86.5384 11.9634 87.0161 14.2973 88.0824 16.2837Z" fill="#231F20"/>
<path d="M86.9438 25.6873C86.5053 24.4627 84.5356 24.994 84.9819 26.2281C85.8854 28.7251 86.6483 31.2114 88.2933 33.3385C88.4772 33.5763 88.8801 33.3716 88.8723 33.0986C88.7928 30.4707 87.8183 28.1303 86.9438 25.6873Z" fill="#231F20"/>
<path d="M139.248 22.376C141.069 19.3662 141.439 15.1448 141.945 11.7253C142.106 10.6334 140.507 10.122 140.242 11.2558C139.81 13.1075 139.353 14.9565 138.875 16.7969C138.434 18.4958 137.842 20.2189 137.806 21.985C137.789 22.7677 138.859 23.0195 139.248 22.376Z" fill="#231F20"/>
<path d="M141.195 24.7734C144.016 22.3488 145.782 18.2209 147.464 14.9757C147.983 13.976 146.548 13.1278 145.95 14.091C144.886 15.8072 143.804 17.5115 142.76 19.2408C141.816 20.8045 140.714 22.4317 140.212 24.2005C140.042 24.7983 140.769 25.1399 141.195 24.7734Z" fill="#231F20"/>
<path d="M162.888 25.5531C163.999 24.4462 165.006 23.2264 166.042 22.0492C166.16 21.9151 165.963 21.7172 165.845 21.8524C164.807 23.0401 163.725 24.206 162.767 25.4599C162.713 25.5305 162.827 25.6131 162.888 25.5531Z" fill="#231F20"/>
<path d="M150.572 39.8557C153.852 37.022 156.755 33.7399 159.77 30.6295C159.865 30.5319 159.718 30.3859 159.62 30.4801C156.499 33.4837 153.207 36.3754 150.361 39.6452C150.235 39.7905 150.426 39.9813 150.572 39.8557Z" fill="#231F20"/>
<path d="M170.979 37.2397C172.925 36.1638 174.244 34.3087 174.808 32.1779C174.842 32.052 174.654 32.0012 174.614 32.1243C173.956 34.1876 172.635 35.8278 170.877 37.0656C170.772 37.1393 170.863 37.3035 170.979 37.2397Z" fill="#231F20"/>
<path d="M181.564 48.7348C178.96 50.5776 176.284 52.3526 173.915 54.4984C173.76 54.6386 173.959 54.8891 174.135 54.7847C176.867 53.1691 179.336 51.1512 181.849 49.2237C182.131 49.0077 181.866 48.5208 181.564 48.7348Z" fill="#231F20"/>
<path d="M179.006 54.9874C177.331 56.4973 175.426 57.5219 173.417 58.5097C173.22 58.6069 173.359 58.9174 173.565 58.8604C175.777 58.2483 177.716 56.9125 179.386 55.3675C179.642 55.1314 179.263 54.7564 179.006 54.9874Z" fill="#231F20"/>
<path d="M125.935 3.99397C125.979 3.99397 125.979 3.92676 125.935 3.92676C125.892 3.92676 125.892 3.99397 125.935 3.99397Z" fill="#231F20"/>
<path d="M127.654 20.4458C129.105 18.3112 129.637 15.732 129.573 13.1791C129.567 12.9266 129.175 12.9253 129.18 13.1791C129.227 15.7576 128.53 18.0113 127.438 20.3199C127.37 20.4645 127.562 20.5795 127.654 20.4458Z" fill="#231F20"/>
<path d="M108.124 8.56686C108.243 6.86937 108.169 5.15005 108.167 3.44914C108.167 3.26387 107.879 3.26353 107.879 3.44914C107.877 5.15005 107.803 6.86971 107.922 8.56686C107.931 8.69652 108.115 8.69652 108.124 8.56686Z" fill="#231F20"/>
<path d="M102.41 12.653C101.986 10.2919 101.827 7.89149 102.037 5.50067C102.05 5.35156 101.824 5.35634 101.807 5.50067C101.515 7.95905 101.616 10.3052 102.224 12.7042C102.255 12.8253 102.431 12.7728 102.41 12.653Z" fill="#231F20"/>
<path d="M58.2672 22.451C58.3371 22.5824 58.5715 22.4903 58.5128 22.3476C57.1426 19.0246 55.5106 15.8003 53.922 12.5776C53.8418 12.4152 53.6094 12.5575 53.6817 12.7182C55.1475 15.9845 56.5851 19.2887 58.2672 22.451Z" fill="#231F20"/>
<path d="M54.7288 30.6932C54.8653 30.7843 55.0212 30.5789 54.9032 30.467C53.537 29.1721 52.4731 27.7357 51.9497 25.9058C51.8699 25.6274 51.4345 25.7458 51.5147 26.0255C52.0463 27.8844 53.102 29.6085 54.7288 30.6932Z" fill="#231F20"/>
<path d="M63.8794 19.4337C63.9439 19.5036 64.0364 19.403 63.9811 19.332C62.2079 17.0514 60.6622 14.7496 59.5052 12.0927C59.456 11.9797 59.2909 12.0773 59.3394 12.1896C60.4698 14.8022 61.9359 17.3377 63.8794 19.4337Z" fill="#231F20"/>
<path d="M77.2306 37.3126C77.3282 37.4058 77.5162 37.2778 77.4264 37.1615C76.019 35.3364 74.4044 33.6686 72.8604 31.9588C72.682 31.7613 72.392 32.0533 72.5687 32.2505C74.0966 33.9562 75.5737 35.7305 77.2306 37.3126Z" fill="#231F20"/>
<path d="M105.618 35.6912C105.803 32.9609 105.82 30.2384 105.829 27.5026C105.831 27.0335 105.098 27.0325 105.1 27.5026C105.11 30.2384 105.126 32.9609 105.311 35.6912C105.324 35.8884 105.605 35.8888 105.618 35.6912Z" fill="#231F20"/>
<path d="M13.2458 36.3697C15.7853 37.927 18.2983 39.5634 20.9297 40.963C21.089 41.048 21.2176 40.8228 21.0702 40.7228C18.6037 39.0496 15.9836 37.5906 13.4204 36.0715C13.228 35.9576 13.0564 36.2537 13.2458 36.3697Z" fill="#231F20"/>
<path d="M13.4856 48.235C11.3736 47.0019 9.13085 46.3761 6.69124 46.2478C6.46877 46.2362 6.47014 46.5798 6.69124 46.5935C9.02815 46.7351 11.2859 47.3752 13.384 48.409C13.4993 48.466 13.5989 48.3012 13.4856 48.235Z" fill="#231F20"/>
<path d="M7.75001 62.1738C6.42409 61.7203 5.01558 61.4873 3.64837 61.1843C3.46241 61.143 3.38257 61.4242 3.56921 61.4712C4.92755 61.8128 6.29169 62.2345 7.68107 62.4236C7.84246 62.4457 7.91208 62.2294 7.75001 62.1738Z" fill="#231F20"/>
<path d="M22.5219 52.1962C24.5752 53.0256 26.6174 53.8971 28.7031 54.6412C28.8096 54.6791 28.885 54.5044 28.7809 54.457C26.7515 53.5388 24.666 52.7431 22.601 51.9092C22.4236 51.8379 22.3465 52.1255 22.5219 52.1962Z" fill="#231F20"/>
<path d="M60.9558 71.0748C47.2077 72.3877 33.5383 71.8073 20.0345 68.801C19.9802 68.789 19.957 68.8719 20.0116 68.8842C33.3667 71.8701 47.3462 72.847 60.9558 71.2283C61.052 71.2167 61.0551 71.0652 60.9558 71.0748Z" fill="#231F20"/>
<path d="M83.9676 69.4841C96.7576 68.0415 109.672 67.0268 122.4 65.1133C122.527 65.0942 122.498 64.8765 122.369 64.8871C109.545 65.9319 96.7443 67.8979 83.9672 69.4169C83.9253 69.422 83.9246 69.4889 83.9676 69.4841Z" fill="#231F20"/>
<path d="M135.707 66.0563C125.516 68.3993 115.391 70.4199 104.939 71.1979C104.835 71.2057 104.833 71.3657 104.939 71.361C115.293 70.8901 125.878 69.4806 135.776 66.306C135.934 66.2552 135.87 66.0187 135.707 66.0563Z" fill="#231F20"/>
<path d="M77.8281 69.5937C77.9885 69.5856 77.9888 69.3525 77.8281 69.3443C74.4297 69.1689 70.9952 69.3027 67.5924 69.3109C67.3887 69.3112 67.3883 69.6272 67.5924 69.6275C70.9952 69.635 74.4297 69.7688 77.8281 69.5937Z" fill="#231F20"/>
<path d="M165.273 59.5189C156.491 62.3911 147.783 65.0832 138.703 66.8776C138.438 66.9298 138.557 67.3123 138.813 67.2755C147.874 65.9792 157.072 63.6795 165.406 59.8345C165.584 59.7526 165.458 59.4585 165.273 59.5189Z" fill="#231F20"/>
<path d="M167.851 55.4513C163.721 56.724 159.589 57.9612 155.556 59.5202C155.318 59.6116 155.406 59.9757 155.663 59.9088C159.845 58.821 163.919 57.4115 168.012 56.0341C168.377 55.9112 168.226 55.3356 167.851 55.4513Z" fill="#231F20"/>
<path d="M53.2653 68.1438C68.2469 67.9066 83.3864 67.5228 98.2783 65.7652C98.4216 65.7482 98.4291 65.5261 98.2783 65.5349C83.2653 66.4244 68.3107 67.663 53.2653 67.9998C53.1728 68.0018 53.1725 68.1455 53.2653 68.1438Z" fill="#231F20"/>
<path d="M119.279 67.7831C111.101 68.7166 102.964 70.0896 94.816 71.2514C86.2494 72.4729 77.679 73.6971 69.1004 74.8306C69.0527 74.8371 69.051 74.9128 69.1004 74.9074C77.3992 73.9953 85.6843 73.0372 93.9585 71.9208C102.419 70.7792 110.939 69.7061 119.314 68.0372C119.455 68.0093 119.425 67.7663 119.279 67.7831Z" fill="#231F20"/>
<path d="M129.085 63.1384C133.377 62.3065 137.659 61.4423 141.923 60.4801C146.164 59.5233 150.498 58.6485 154.603 57.2021C154.809 57.1294 154.725 56.8442 154.513 56.8783C150.209 57.5706 145.973 58.787 141.736 59.7994C137.491 60.8134 133.246 61.8288 128.991 62.7958C128.767 62.847 128.863 63.1817 129.085 63.1384Z" fill="#231F20"/>
<path d="M40.0079 66.6596C33.3067 65.6504 26.6191 64.8345 19.9724 63.4708C19.8161 63.4387 19.7486 63.6751 19.9062 63.7113C26.4676 65.2256 33.2313 66.5696 39.9673 66.9613C40.1369 66.9712 40.1806 66.6856 40.0079 66.6596Z" fill="#231F20"/>
<path d="M19.4858 65.7352C16.6729 65.5278 14.0084 65.1156 11.3784 64.0681C11.0567 63.9398 10.9185 64.4588 11.2355 64.5864C13.8559 65.6407 16.6504 66.2903 19.4858 66.1C19.7205 66.0839 19.7202 65.7523 19.4858 65.7352Z" fill="#231F20"/>
</svg>
