<svg width="58" height="10" viewBox="0 0 58 10" fill="none" xmlns="http://www.w3.org/2000/svg">
<path fill-rule="evenodd" clip-rule="evenodd" d="M18.0711 4.99668V5.00665C17.9471 5.06312 17.8361 5.1196 17.7251 5.17607C17.0832 5.53831 16.4018 5.82263 15.6947 6.02321C15.3063 6.10294 14.9505 6.14945 14.5522 6.14945C14.3303 6.13948 14.1181 6.10294 13.8961 6.05975C13.0311 5.83385 12.2411 5.39201 11.4446 5.00997V5C12.2411 4.60467 13.0213 4.18609 13.8765 3.95022C14.2552 3.87049 14.6077 3.83727 14.9864 3.8572C15.4532 3.90371 15.8971 4.02995 16.3411 4.17612C16.8307 4.3688 17.2942 4.58142 17.7512 4.84386C17.8622 4.89037 17.9732 4.94685 18.0744 5.00332L18.0711 4.99668ZM21.1885 5.47174L20.3464 6.70092C20.1244 6.99658 19.9122 7.27564 19.6478 7.53809C19.3703 7.78724 19.0831 7.97992 18.7468 8.15932C18.0483 8.52143 17.2942 8.70082 16.5173 8.84699C16.2497 8.88353 15.9853 8.92672 15.7078 8.95994C15.7176 8.93669 15.7176 8.93669 16.6381 7.57131C16.8144 7.3454 16.9841 7.10953 17.1604 6.88031C17.3922 6.61122 17.637 6.37203 17.9242 6.15941C18.1789 6.02321 18.1789 6.02321 18.5118 5.84049C19.3671 5.51493 20.2876 5.47838 21.1853 5.46842L21.1885 5.47174ZM21.1885 4.53491C20.7544 4.54487 20.3007 4.49837 19.8567 4.46514C19.3997 4.40867 18.9558 4.32894 18.5249 4.15951C18.3355 4.05653 18.3355 4.05653 17.9602 3.86384C17.4803 3.51502 17.1278 3.08647 16.7817 2.62138C16.4259 2.1131 16.4259 2.1131 15.7078 1.04006C16.4063 1.1065 17.0821 1.24271 17.748 1.43539C18.1821 1.58156 18.5804 1.74102 18.9917 1.96693C19.07 2.0234 19.1581 2.07988 19.2463 2.13635C19.6249 2.40877 19.922 2.73765 20.1995 3.09644C20.4671 3.4818 20.4671 3.4818 21.1885 4.53159V4.53491ZM25.3864 5.47174C24.6977 5.48171 23.9991 5.51493 23.3234 5.65113C23.2222 5.67439 23.1341 5.69432 23.0361 5.72754C22.5693 5.87371 22.2266 6.0664 21.8479 6.38199C21.6912 6.52817 21.5346 6.67766 21.404 6.8338C20.8621 7.51151 20.3953 8.23573 19.9057 8.94665C20.1407 8.93669 20.3725 8.89018 20.6042 8.85696C21.2147 8.75397 21.8153 8.62109 22.3931 8.40515C22.5138 8.36197 22.6346 8.30217 22.7587 8.25898C23.281 7.99986 23.702 7.69422 24.1133 7.27564C24.2472 7.10621 24.381 6.93679 24.5018 6.76736C24.8021 6.32884 25.0992 5.89697 25.3897 5.46842L25.3864 5.47174ZM25.3864 4.52162V4.53159C24.776 4.52162 24.1656 4.48508 23.5552 4.39538C23.0786 4.29239 22.6771 4.16948 22.256 3.93361C22.1025 3.83062 22.1025 3.83062 21.9687 3.73096C21.6814 3.4818 21.4366 3.19942 21.1918 2.90708C20.7479 2.29581 20.3268 1.66462 19.9057 1.04338C20.8393 1.12311 21.7696 1.34902 22.6379 1.68787C22.9937 1.84401 23.3267 2.03669 23.6368 2.27588C23.7151 2.34565 23.7902 2.41209 23.8685 2.47853C24.0774 2.70443 24.2798 2.92037 24.4594 3.1662C24.7695 3.61801 25.0796 4.06981 25.393 4.52162H25.3864ZM29.6724 5.47174C29.0294 5.48171 28.4059 5.50496 27.7726 5.61791C27.5082 5.67439 27.2536 5.74083 26.9859 5.84382C26.7966 5.92355 26.6301 6.01324 26.4538 6.12619C26.1535 6.34213 25.8989 6.578 25.6672 6.86038C25.1351 7.52812 24.6683 8.24901 24.1917 8.94998C24.4137 8.94001 24.6585 8.8935 24.8805 8.86028C25.0241 8.83703 25.1677 8.81709 25.3113 8.79384C26.023 8.63438 26.6987 8.4417 27.3417 8.10284C27.6747 7.91016 27.9522 7.68426 28.2296 7.43842C28.3733 7.27896 28.5169 7.1195 28.6409 6.95007C28.9837 6.45176 29.3297 5.95677 29.6724 5.47174ZM29.6724 4.53491H29.5288C28.9184 4.51165 28.308 4.47843 27.7073 4.37545C27.4103 4.29572 27.1328 4.21599 26.8554 4.10304C26.653 4.00005 26.653 4.00005 26.4898 3.90039C26.3788 3.83062 26.2776 3.74093 26.1796 3.66452C25.7683 3.28912 25.4354 2.86057 25.1122 2.41209C24.8021 1.95696 24.4887 1.50848 24.1917 1.04338C24.2145 1.04338 24.2374 1.05335 24.257 1.05335C24.825 1.12311 25.3799 1.22278 25.9348 1.35898C26.3788 1.48522 26.8097 1.63139 27.234 1.83404C27.4005 1.93703 27.567 2.02672 27.7335 2.13968C27.8085 2.20944 27.8999 2.27588 27.9881 2.34565C28.2329 2.57155 28.4549 2.80742 28.654 3.06986C28.8629 3.35224 28.8629 3.35224 29.6757 4.53823L29.6724 4.53491ZM33.8703 5.47174C33.6712 5.47174 33.4688 5.47174 33.2697 5.48171C32.5156 5.52822 31.7159 5.58469 31.0173 5.92355C30.9292 5.95677 30.8509 6.00328 30.7627 6.04978C30.3743 6.30891 30.087 6.60125 29.7867 6.9534C29.6104 7.19259 29.4407 7.41517 29.2644 7.65436C28.3896 8.94333 28.3896 8.94333 28.3896 8.96659C29.4211 8.85364 30.4853 8.64102 31.4188 8.16596C31.8856 7.9168 32.2512 7.63443 32.607 7.26235C32.7376 7.0896 32.7376 7.0896 32.8617 6.93346C33.1391 6.5481 33.1391 6.5481 33.8736 5.47838L33.8703 5.47174ZM33.8703 4.53491C33.2142 4.52494 32.5711 4.4884 31.9281 4.37545C31.7518 4.34223 31.7518 4.34223 31.4743 4.2625C31.0304 4.11632 30.6648 3.91035 30.309 3.60804C30.1001 3.40539 30.1001 3.40539 29.9989 3.28912C29.8879 3.1662 29.7867 3.03996 29.6855 2.93033C29.2318 2.31907 28.8107 1.6779 28.3863 1.04338C29.1306 1.14305 29.8389 1.256 30.5603 1.48522C30.704 1.52841 30.8378 1.58821 30.9814 1.63139C31.1022 1.68787 31.236 1.74435 31.3699 1.81079C31.5364 1.90048 31.7159 2.00347 31.8791 2.10313C32.2121 2.34232 32.4797 2.61141 32.7441 2.91705C33.1326 3.43529 33.5015 3.99008 33.8671 4.53159L33.8703 4.53491ZM38.078 5.47174C37.3566 6.52152 37.3566 6.52152 37.0791 6.91685C36.7658 7.32215 36.4361 7.65104 36.0019 7.94338C35.7799 8.07959 35.5482 8.21247 35.3131 8.31546C34.4481 8.6676 33.5276 8.85696 32.594 8.95994C32.6038 8.93669 32.6038 8.93669 33.4819 7.63775C33.8246 7.16269 34.1576 6.71088 34.6015 6.31555C34.6799 6.24579 34.768 6.18931 34.8561 6.12287C35.1336 5.95344 35.4111 5.83053 35.7212 5.72754C35.8093 5.69432 35.9105 5.67107 35.9986 5.65113C36.6874 5.51493 37.3762 5.47838 38.0747 5.47174H38.078ZM38.078 4.52162V4.53159C37.4676 4.50833 36.8702 4.48508 36.2696 4.39538C36.1031 4.36216 35.9334 4.32894 35.7701 4.28243L35.336 4.13626C35.1369 4.03327 35.1369 4.03327 34.9573 3.93029C34.6472 3.72764 34.3893 3.49177 34.1347 3.21936C33.57 2.52836 33.0902 1.77424 32.594 1.04006C33.2501 1.11979 33.8801 1.23274 34.5134 1.40217C34.6701 1.44536 34.8268 1.50515 34.9802 1.54834C35.114 1.60482 35.2348 1.65133 35.3686 1.70448C35.6135 1.81743 35.8485 1.95032 36.0803 2.08984C36.3022 2.25927 36.5013 2.4287 36.7005 2.62138C37.213 3.21936 37.6341 3.87381 38.078 4.5183V4.52162ZM42.2759 5.47174C41.9429 5.95677 41.6002 6.44179 41.2672 6.94011C41.1334 7.09625 40.9995 7.26567 40.8559 7.42513C40.6339 7.62778 40.4022 7.82046 40.1574 7.97992C39.8799 8.14935 39.5926 8.28556 39.2793 8.40847C38.5252 8.68089 37.7483 8.82706 36.9486 8.94001C36.9061 8.94001 36.8474 8.94998 36.7951 8.94998C37.2293 8.31546 37.6504 7.68426 38.0943 7.07631C38.4828 6.61454 38.8288 6.25243 39.3478 5.95677C39.5143 5.87704 39.5143 5.87704 39.6938 5.79731C40.536 5.51493 41.4043 5.47838 42.2792 5.47174H42.2759ZM42.2759 4.53491C41.2901 4.52494 40.2912 4.47843 39.3772 4.05985C39.2102 3.97172 39.0508 3.86948 38.9006 3.75422C38.8255 3.69774 38.7472 3.6313 38.6786 3.57482L38.3653 3.2559C37.7907 2.55494 37.3011 1.78753 36.7886 1.04338C36.831 1.04338 36.831 1.04338 37.1999 1.08657C37.8756 1.19952 38.5219 1.33573 39.165 1.55166C39.5208 1.68787 39.8538 1.83404 40.1639 2.0234C40.4054 2.19283 40.4054 2.19283 40.4414 2.21608C40.8298 2.46524 41.1301 2.88383 41.3978 3.24261C41.685 3.67116 41.9854 4.09971 42.2726 4.53159L42.2759 4.53491ZM46.5064 5.47174C46.1408 5.99995 45.785 6.54478 45.3966 7.06303C45.0505 7.47164 44.7078 7.78724 44.241 8.06962L43.908 8.23905C43.0071 8.64434 42.0082 8.84699 41.0322 8.95994C41.0322 8.93669 41.0322 8.93669 41.9201 7.63775C42.253 7.16269 42.5991 6.71088 43.0299 6.31555C43.1181 6.24579 43.2062 6.18931 43.2846 6.12287C43.562 5.95344 43.8395 5.83053 44.1529 5.72754C44.2508 5.69432 44.3422 5.67107 44.4401 5.65113C45.1158 5.51493 45.8176 5.47838 46.5064 5.47174ZM46.5064 4.52162V4.53159C45.8633 4.52162 45.2072 4.48508 44.574 4.37213C44.1757 4.28243 43.8199 4.16948 43.4641 3.9768C43.3857 3.93029 43.3074 3.8871 43.2291 3.83062C43.2193 3.82066 43.154 3.77415 43.1409 3.76418C42.9973 3.68445 42.8635 3.52499 42.7427 3.41204C42.0866 2.68782 41.5643 1.84069 41.0322 1.04006C41.8744 1.12976 42.71 1.29918 43.5098 1.58156C43.6991 1.66129 43.8754 1.7377 44.0517 1.81743C44.2214 1.92042 44.3977 2.02008 44.5511 2.12306L44.8188 2.32571C44.9298 2.42538 44.9298 2.42538 45.1387 2.61806C45.6512 3.21604 46.0723 3.87049 46.5032 4.51498L46.5064 4.52162ZM29.0294 4.14954C27.9848 2.72436 26.5648 1.75431 24.6879 1.32244C26.5518 1.50183 28.0403 2.37222 29.0294 4.14954ZM45.9286 4.14954C44.8939 2.72436 43.4739 1.75431 41.5871 1.32244C43.4608 1.50183 44.9493 2.37222 45.9286 4.14954ZM45.9058 5.85378C44.9298 7.62778 43.4412 8.49817 41.5773 8.69085C43.4543 8.24901 44.8743 7.27896 45.9058 5.85378ZM41.721 4.14954C40.6764 2.72436 39.2662 1.75431 37.3794 1.32244C39.2531 1.50183 40.7417 2.37222 41.721 4.14954ZM41.6981 5.85378C40.7221 7.62778 39.2336 8.49817 37.3696 8.69085C39.2466 8.24901 40.6666 7.27896 41.6981 5.85378ZM37.4806 4.14954C36.4393 2.72436 35.0292 1.75431 33.1391 1.32244C35.003 1.50183 36.4916 2.37222 37.4806 4.14954ZM37.448 5.85378C36.4818 7.62778 34.9932 8.49817 33.1293 8.69085C35.0063 8.24901 36.4165 7.27896 37.448 5.85378ZM33.2175 4.14954C32.1762 2.72436 30.766 1.75431 28.876 1.32244C30.7529 1.50183 32.2414 2.37222 33.2175 4.14954ZM33.1946 5.85378C32.1631 7.27564 30.7399 8.24901 28.8629 8.69085C30.7268 8.49817 32.2153 7.62778 33.1946 5.85378ZM24.7466 4.14954C23.7151 2.72436 22.2951 1.75431 20.4149 1.32244C22.2821 1.50183 23.7673 2.37222 24.7466 4.14954ZM24.7238 5.85378C23.6923 7.27564 22.269 8.24901 20.3921 8.69085C22.256 8.49817 23.7445 7.62778 24.7238 5.85378ZM20.5357 4.14954C19.5042 2.72436 18.0842 1.75431 16.1942 1.32244C18.0711 1.50183 19.5597 2.37222 20.5357 4.14954ZM20.5128 5.85378C19.5368 7.62778 18.0483 8.49817 16.1811 8.69085C18.0581 8.24901 19.478 7.27896 20.5128 5.85378ZM17.3791 5.0299C15.6033 6.02321 13.883 5.98002 12.1954 5.16611C14.0267 5.77737 15.7502 5.68768 17.3791 5.0299ZM1.57013 9.98979L13.8733 9.99976C14.2617 9.97651 14.66 9.94328 15.0615 9.92003L15.4956 9.88681C16.2595 9.79711 17.007 9.69413 17.7382 9.50145C18.0254 9.42171 18.316 9.33202 18.6032 9.22903C18.4139 9.48816 18.2376 9.73731 18.0581 9.98647C19.7 9.90674 21.355 9.79379 22.899 9.18585C22.7097 9.45826 22.5204 9.72735 22.3343 9.98647C23.9305 9.90674 25.5758 9.80708 27.0741 9.22903C26.8978 9.48816 26.5518 9.95325 26.542 9.99644C26.9304 9.96322 27.3319 9.93996 27.7302 9.91671C28.2753 9.87352 28.8172 9.81372 29.3493 9.72735C29.8063 9.64762 30.247 9.55792 30.6811 9.43168C30.8835 9.36524 31.0826 9.29548 31.2915 9.22903C31.1022 9.47819 30.9259 9.73731 30.7464 9.98647H30.8149C32.2578 9.89677 33.6451 9.80708 35.0357 9.38849C35.2577 9.30876 35.4666 9.24232 35.4894 9.22903C35.3001 9.48816 35.1238 9.73731 34.9443 9.98647H35.0879C36.3642 9.90674 37.6177 9.81704 38.8614 9.50145C39.1258 9.42171 39.1258 9.42172 39.3609 9.34198C39.5828 9.27554 39.7069 9.21907 39.7265 9.21907C39.5371 9.47819 39.3609 9.72735 39.1715 9.98647H39.2499C40.6372 9.90674 41.9919 9.80708 43.3466 9.42171C43.5457 9.36524 43.7481 9.2988 43.9472 9.21907C44.3226 9.04964 44.3226 9.04964 44.5348 8.95994C44.8808 8.75729 44.8808 8.75729 45.0342 8.65431C45.3019 8.45166 45.3019 8.45166 45.4227 8.34868C45.7099 8.08955 45.9678 7.80718 46.2126 7.50154C46.8785 6.53149 47.2898 5.94348 47.5347 5.58137H57.9935V4.41863H47.5347C47.1462 3.85388 46.7578 3.27583 46.3693 2.71108C46.2028 2.48517 46.0266 2.2028 45.8144 2.01011C45.3835 1.51512 44.7927 1.15301 44.2051 0.8806C43.7513 0.701207 43.2943 0.541746 42.8178 0.428795C42.0735 0.259368 41.3194 0.156383 40.5523 0.0899408C40.1215 0.0533977 39.6873 0.0334651 39.2531 0.000244141H39.1748C39.3641 0.259368 39.5404 0.518491 39.7297 0.780937C39.5861 0.724462 39.4425 0.677952 39.3086 0.634765C38.2216 0.295911 37.1216 0.149739 36.0019 0.0700082C35.0944 0.0135325 35.0944 0.0135325 34.9475 0.000244141C35.1238 0.259368 35.3034 0.508525 35.4927 0.757683C35.3491 0.714495 35.2054 0.667986 35.0716 0.61151C34.2392 0.362353 33.3937 0.216181 32.5418 0.123162C31.964 0.0799745 31.3993 0.0334651 30.8215 0.000244141H30.7529C30.9292 0.259368 31.1087 0.508525 31.2981 0.767649C31.1544 0.711173 31.0108 0.664664 30.877 0.621477C29.9238 0.329132 28.9543 0.18296 27.9685 0.0932629C26.8488 0.0135325 26.8488 0.0135325 26.5485 0.00356624C26.5485 0.0135325 26.5583 0.0268209 26.5583 0.0401093C26.7346 0.289267 26.9043 0.525136 27.0806 0.761005C26.937 0.717817 26.8031 0.671308 26.6595 0.614832C25.6933 0.319166 24.7172 0.186282 23.7184 0.0932629C23.2842 0.0567198 22.8501 0.0367872 22.4192 0.00356624H22.3408C22.5302 0.275978 22.7162 0.545068 22.9056 0.804192C21.7957 0.375641 20.6303 0.196248 19.4421 0.0932629C19.008 0.0567198 18.5738 0.0367872 18.143 0.00356624H18.0646C18.2409 0.26269 18.4204 0.511847 18.6097 0.761005C18.0646 0.581611 17.5325 0.435439 16.9776 0.319166C16.3998 0.216181 15.8253 0.139772 15.2345 0.0932629C14.8003 0.0567198 14.3694 0.0367872 13.9353 0.00356624C7.11616 0.00356624 3.53197 0.0135325 1.52116 0.0135325C1.34489 0.272656 1.17841 0.545068 1.03152 0.827447L14.5 0.917143C14.833 1.3922 15.1659 1.86726 15.4891 2.339H0.401508C0.310108 2.59812 0.244822 2.8805 0.179536 3.15292H13.191C12.1921 3.50506 11.2716 4.04324 10.2923 4.46182L9.90387 4.59803H0V4.96014C0 5.10631 0 5.26245 0.00979289 5.41194H9.99201C10.214 5.50164 10.2695 5.52489 10.56 5.65113C11.4479 6.04646 12.2999 6.5182 13.2139 6.84709H0.199122C0.267672 7.12947 0.332958 7.40188 0.421094 7.67097H15.476C15.365 7.85036 15.1986 8.07626 14.9309 8.47159L14.895 8.50814L14.4967 9.08286L1.0609 9.15927C1.21432 9.44165 1.39385 9.71406 1.57013 9.98315V9.98979ZM28.9935 5.85378C28.0174 7.62778 26.542 8.49817 24.665 8.69085C26.5518 8.24901 27.962 7.27896 28.9935 5.85378Z" fill="#C18439"/>
</svg>
